<?xml version="1.0" encoding="utf-8"?>
<!-- Generator: Adobe Illustrator 28.1.0, SVG Export Plug-In . SVG Version: 6.00 Build 0)  -->
<svg version="1.1" id="Слой_1" xmlns="http://www.w3.org/2000/svg" xmlns:xlink="http://www.w3.org/1999/xlink" x="0px" y="0px"
	 viewBox="0 0 2162.6 3508" style="enable-background:new 0 0 2162.6 3508;" xml:space="preserve">
<style type="text/css">
	.st0{fill:#F7BE1C;}
	.st1{fill:#1A67AE;}
	.st2{fill:#26994B;}
	.st3{fill:#EA7F15;}
	.st4{fill:#FCD33D;}
	.st5{fill:#168EB7;}
</style>
<path class="st0" d="M1552.6,0l4.1,2.1l26.9,26.9l7.2,8.3l87,87l7.2,8.3l87,87l7.2,8.3l87,87l7.3,8.3l87,87l7.3,8.3l46.6,46.6
	l-6.2,7.3l-13.5,13.5l-7.3,8.3l-127.4,127.4l-7.2,8.3l-127.4,127.4l-7.3,8.3l-127.4,127.4l-7.2,8.3l-59,59l2.1,4.1l8.3,7.3
	l63.2,63.2l8.3,7.3l63.2,63.2l8.3,7.2l63.2,63.2l8.3,7.2l63.2,63.2l8.3,7.3l63.2,63.2l8.3,7.3l63.2,63.2l8.3,7.2l63.2,63.2l8.3,7.2
	l63.2,63.2l8.3,7.3l55.9,55.9l-5.2,4.1l-9.3,9.3l-8.3,7.3l-99.4,99.4l-8.3,7.2l-99.4,99.4l-8.3,7.3l-98.4,98.4l-8.3,7.2l-99.4,99.4
	l-8.3,7.3l-99.4,99.4l-8.3,7.2l-54.9,54.9l6.2,7.3l31.1,31.1l7.3,8.3l32.1,32.1l7.3,8.3l31.1,31.1l7.2,8.3l32.1,32.1l7.2,8.3
	l32.1,32.1l7.2,8.3l31.1,31.1l7.3,8.3l32.1,32.1l7.3,8.3l32.1,32.1l7.3,8.3l32.1,32.1l7.3,8.3l31.1,31.1l7.3,8.3l32.1,32.1l7.3,8.3
	l31.1,31.1l-2.1,4.1l-12.4,11.4l-121.2,121.2l-8.3,7.2l-123.3,123.3l-8.3,7.2l-123.3,123.3l-8.3,7.2l-124.3,124.3l-8.3,7.3
	l-123.3,123.3l-8.3,7.2L1219,3467.6l-8.3,7.2l-33.1,33.1l-4.1-2.1l-78.7-78.7l-8.3-7.2l-257.9-257.9l-8.3-7.2l-99.4-99.4l1-4.1
	l15.5-15.5l7.3-8.3l25.9-25.9l7.3-8.3l26.9-26.9l7.3-8.3l26.9-26.9l7.3-8.3l25.9-25.9l7.3-8.3l26.9-26.9l7.3-8.3l25.9-25.9l7.3-8.3
	l26.9-26.9l7.3-8.3l25.9-25.9l7.3-8.3l26.9-26.9l7.3-8.3l26.9-26.9l7.2-8.3l23.8-23.8l-2.1-4.1l-87-87l-7.3-8.3l-115-115l-7.3-8.3
	l-115-115l-7.3-8.3L543.8,2088l-8.3-7.2l-66.3-66.3l-8.3-7.2l-90.1-90.1l-8.3-7.3l-123.3-123.3l-8.3-7.3l-123.3-123.3l-8.3-7.3
	L0,1549.4l2.1-4.1l8.3-7.2l47.6-47.6l8.3-7.3l47.6-47.6l8.3-7.3l48.7-48.7l8.3-7.2l47.6-47.6l8.3-7.2l47.6-47.6l8.3-7.2l47.6-47.6
	l8.3-7.3l47.6-47.6l8.3-7.3l47.6-47.6l8.3-7.3l47.6-47.6l8.3-7.3l47.6-47.6l8.3-7.3l20.7-20.7l2.1-4.1l136.7-136.7l7.3-8.3
	l255.8-255.8l7.3-8.3l255.8-255.8l7.3-8.3l255.8-255.8l7.3-8.3L1552.6,0z"/>
<path class="st1" d="M2036.2,1589.8h123.3l-1,4.1l-10.4,10.4l-8.3,7.3l-99.4,99.4l-8.3,7.2l-99.4,99.4l-8.3,7.3l-98.4,98.4l-8.3,7.2
	l-99.4,99.4l-8.3,7.3l-99.4,99.4l-8.3,7.2l-54.9,54.9l6.2,7.3l31.1,31.1l7.3,8.3l32.1,32.1l7.3,8.3l31.1,31.1l7.2,8.3l32.1,32.1
	l7.2,8.3l32.1,32.1l7.2,8.3l31.1,31.1l7.3,8.3l32.1,32.1l7.3,8.3l32.1,32.1l7.3,8.3l32.1,32.1l7.3,8.3l31.1,31.1l7.3,8.3l32.1,32.1
	l7.3,8.3l31.1,31.1l-2.1,4.1l-12.4,11.4l-121.2,121.2l-8.3,7.2l-123.3,123.3l-8.3,7.2l-123.3,123.3l-8.3,7.2l-124.3,124.3l-8.3,7.3
	l-123.3,123.3l-8.3,7.2L1219,3467.6l-8.3,7.2l-33.1,33.1l-4.1-2.1l-78.7-78.7l-8.3-7.2l-257.9-257.9l-8.3-7.2l-99.4-99.4l1-4.1
	l15.5-15.5l7.3-8.3l25.9-25.9l7.3-8.3l26.9-26.9l7.3-8.3l26.9-26.9l7.3-8.3l25.9-25.9l7.3-8.3l26.9-26.9l7.3-8.3l25.9-25.9l7.3-8.3
	l26.9-26.9l7.3-8.3l25.9-25.9l7.3-8.3l26.9-26.9l7.3-8.3l26.9-26.9l7.2-8.3l23.8-23.8l-2.1-4.1l-87-87l-7.3-8.3l-115-115l-7.3-8.3
	l-115-115l-7.3-8.3L543.8,2088l-8.3-7.2l-67.3-67.3l2.1-4.1l51.8-51.8l8.3-7.2l187.5-187.5l8.3-7.3l162.6-162.6l299.3-1
	L2036.2,1589.8z"/>
<path class="st2" d="M2036.2,1589.8h123.3l-1,4.1l-10.4,10.4l-8.3,7.3l-99.4,99.4l-8.3,7.2l-99.4,99.4l-8.3,7.3l-98.4,98.4l-8.3,7.2
	l-99.4,99.4l-8.3,7.3l-99.4,99.4l-8.3,7.2l-54.9,54.9l-775.8-1H653.5L543.8,2088l-8.3-7.2l-67.3-67.3l2.1-4.1l51.8-51.8l8.3-7.2
	l187.5-187.5l8.3-7.3l162.6-162.6l299.3-1L2036.2,1589.8z"/>
<path class="st3" d="M1552.6,0l4.1,2.1l26.9,26.9l7.2,8.3l87,87l7.2,8.3l87,87l7.2,8.3l87,87l7.3,8.3l87,87l7.3,8.3l46.6,46.6
	l-6.2,7.3l-13.5,13.5l-7.3,8.3l-127.4,127.4l-7.2,8.3l-127.4,127.4l-7.3,8.3l-127.4,127.4l-7.2,8.3l-59,59l-58,1l-351.1,2.1
	l-397.7,2.1l-126.4,1l6.2-7.3l132.6-132.6l7.3-8.3l255.8-255.8l7.3-8.3l255.8-255.8l7.3-8.3l255.8-255.8l7.3-8.3L1552.6,0z"/>
<path class="st4" d="M1521.5,961.2l4.1,2.1l10.4,9.3l62.1,62.1l8.3,7.3l63.2,63.2l8.3,7.2l63.2,63.2l8.3,7.2l63.2,63.2l8.3,7.3
	l63.2,63.2l8.3,7.3l63.2,63.2l8.3,7.2l63.2,63.2l8.3,7.2l63.2,63.2l8.3,7.3l55.9,55.9l-3.1,1v-2.1l-123.3,1l-848.3,2.1H888.7
	l6.2-7.3l49.7-49.7l8.3-7.3l304.5-304.5l8.3-7.3L1521.5,961.2z"/>
<path class="st5" d="M655.6,2196.8h116l774.7,1l-5.2,5.2l-12.4,12.4l-7.3,8.3l-16.6,16.6l-7.3,8.3l-16.6,16.6l-7.3,8.3l-16.6,16.6
	l-7.3,8.3l-15.5,15.5l-7.3,8.3l-16.6,16.6l-7.3,8.3l-16.6,16.6l-7.3,8.3l-16.6,16.6l-7.3,8.3l-16.6,16.6l-7.3,8.3l-16.6,16.6
	l-7.2,8.3l-16.6,16.6l-7.2,8.3l-16.6,16.6l-7.2,8.3l-16.6,16.6l-7.3,8.3l-15.5,15.5l-7.3,8.3l-16.6,16.6l-7.2,8.3l-16.6,16.6
	l-7.2,8.3l-16.6,16.6l-7.2,8.3l-16.6,16.6l-7.3,8.3l-10.4,10.4l-7.3-6.2l-83.9-83.9l-7.3-8.3l-115-115l-7.3-8.3l-115-115l-7.3-8.3
	l-110.8-110.8L655.6,2196.8z"/>
</svg>
