<?xml version="1.0" encoding="utf-8"?>
<!-- Generator: Adobe Illustrator 28.1.0, SVG Export Plug-In . SVG Version: 6.00 Build 0)  -->
<svg version="1.1" id="Layer_1" xmlns="http://www.w3.org/2000/svg" xmlns:xlink="http://www.w3.org/1999/xlink" x="0px" y="0px"
	 viewBox="0 0 521.1 421.9" style="enable-background:new 0 0 521.1 421.9;" xml:space="preserve">
<style type="text/css">
	.st0{fill:#31B9FD;}
	.st1{fill:#32BAFD;}
	.st2{fill:#08A1FC;}
	.st3{fill:#1CADFC;}
	.st4{fill:#1EAEFC;}
	.st5{fill:#07A0FC;}
	.st6{fill:#3EC2FD;}
	.st7{fill:#53CEFE;}
	.st8{fill:#059FFC;}
	.st9{fill:#63D8FE;}
	.st10{fill:#62D8FE;}
	.st11{fill:#2EB7FD;}
	.st12{fill:#65DAFE;}
	.st13{fill:#5CD3FE;}
	.st14{fill:#169BFC;}
	.st15{fill:#22A3FC;}
	.st16{fill:#DEB4FF;}
	.st17{fill:#E1BBFF;}
	.st18{fill:#2BA6FC;}
	.st19{fill:#AAA8FE;}
	.st20{fill:#9CAFFE;}
	.st21{fill:#95B1FD;}
	.st22{fill:#48BFFD;}
	.st23{fill:#3AB1FD;}
	.st24{fill:#D0B8FF;}
	.st25{fill:#ACB9FE;}
	.st26{fill:#B2B7FE;}
	.st27{fill:#BBA8FF;}
	.st28{fill:#DAA6FF;}
	.st29{fill:#CEA6FF;}
	.st30{fill:#CAA6FF;}
	.st31{fill:#B3A7FF;}
	.st32{fill:#8EA2FE;}
	.st33{fill:#9DA9FD;}
	.st34{fill:#81A2FE;}
	.st35{fill:#90A9FD;}
	.st36{fill:#9EA8FE;}
</style>
<path class="st0" d="M61.9,260.9c0-0.4-0.1-0.7-0.1-1.1c0-29.4,0-58.8,0.2-88.4c16.7-0.2,33.1-0.2,49.6-0.2c0,3.2,0.1,6.4,0.1,9.7
	c0,26.2,0,52.4-0.2,78.7c-15.6,0.2-31,0.2-46.3,0.2C63.9,259.8,62.7,259.9,61.9,260.9z"/>
<path class="st1" d="M459.1,171.3c0,1.7,0.1,3.3,0.1,5c0,25.7,0,51.5-0.2,77.4c-1.5,0.6-2.8,1.2-4.2,1.2c-15.2,0.1-30.3,0-45.5,0
	c0-0.4-0.1-0.7-0.1-1.1c0-27.4,0-54.8,0.2-82.4C426.2,171.3,442.7,171.3,459.1,171.3z"/>
<path class="st2" d="M459.1,335.4c0,6.8,0.1,13.6,0.1,20.5c0,13.5,0,27,0,40.5c0,8.4-3.1,15.2-9.6,20.5c-4.2,3.4-9.1,5.1-14.6,5.3
	c-7.8,0.2-14.3-2.5-19.5-8.2c-3.8-4.2-6.2-9.2-6.2-15c-0.1-21.1,0-42.2,0.2-63.4C426.2,335.4,442.7,335.4,459.1,335.4z"/>
<path class="st3" d="M61.9,261.1c0.9-1.2,2-1.3,3.3-1.3c15.4,0,30.8,0,46.3,0c0.2,0.4,0.2,0.9,0.2,1.3c0,26.5,0,53-0.2,79.6
	c-14.3,0.2-28.4,0.1-42.5,0.2c-2.4,0-4.7,0.5-7.1,0.7c0-0.8-0.1-1.6-0.1-2.4C61.8,313.3,61.8,287.3,61.9,261.1z"/>
<path class="st4" d="M459.1,335.2c-16.5,0.2-33,0.2-49.6,0.2c-0.2-1.1-0.2-2.1-0.2-3.2c0-25.6,0-51.2,0-77
	c15.2-0.2,30.3-0.1,45.5-0.2c1.3,0,2.7-0.7,4.1-1c0.2,0.3,0.2,0.7,0.2,1.1C459.2,281.7,459.2,308.3,459.1,335.2z"/>
<path class="st5" d="M61.9,341.9c2.4-0.4,4.7-0.9,7.1-0.9c14.1-0.1,28.2,0,42.5,0c0.2,7.7,0.2,15.5,0.2,23.2c0,11-0.1,22,0,32.9
	c0.1,9-3.7,16-11.1,20.9c-8.9,5.9-20.6,5.6-29.1-1.1c-5.2-4.1-8.8-9.6-9.3-16.6c-0.1-1.6-0.3-3.2-0.4-4.8
	C61.8,377.7,61.8,359.9,61.9,341.9z"/>
<path class="st6" d="M235.6,201c0-3.9-0.1-7.8-0.1-11.7c0-20.2,0-40.3,0.2-60.7c16.7-0.2,33.1-0.2,49.6-0.2c0,1.1,0.1,2.1,0.1,3.2
	c0,23,0,46-0.2,69.2c-1.2,0.3-2.3,0.5-3.3,0.5c-13.8,0-27.7,0-41.5,0C238.8,201.4,237.2,201.2,235.6,201z"/>
<path class="st7" d="M285.4,128.3c-16.5,0.2-33,0.2-49.6,0.2c-0.2-4.1-0.2-8.3-0.2-12.4c0-20,0-40.1,0.2-60.3c1,0,1.8,0.2,2.5,0.2
	c14.8,0,29.6,0,44.3,0c0.9,0,1.8-0.2,2.7-0.4c0,1.2,0.1,2.3,0.1,3.5C285.4,82.1,285.4,105.1,285.4,128.3z"/>
<path class="st8" d="M285.4,362.9c0,12.3,0.2,24.5,0,36.8c-0.1,4.8-2.2,9.2-5.3,13c-5.8,7.3-13.6,10.3-22.6,9.2
	c-11.1-1.4-19.4-8.8-21.5-20.5c-0.2-1.3-0.4-2.5-0.4-3.8c0-11.5,0-22.9,0.2-34.6C252.4,362.9,268.9,362.9,285.4,362.9z"/>
<path class="st9" d="M285.4,55.4c-0.9,0.3-1.8,0.5-2.8,0.5c-14.8,0-29.6,0-44.3,0c-0.8,0-1.6-0.2-2.5-0.3
	c-0.2-11.1-0.4-22.2-0.1-33.3c0.1-4.8,2.3-9.1,5.3-13c4.2-5.3,9.8-8.3,16.3-9.1c6.9-0.9,13.3,0.9,18.9,5.3c5.3,4.2,7.9,9.8,9.2,16.3
	c0.1,0.4,0,0.7,0,1.1C285.4,33.7,285.4,44.5,285.4,55.4z"/>
<path class="st10" d="M409.4,51.5c0-9.9-0.4-19.8,0.1-29.7c0.3-6.5,3.7-11.8,8.7-16c3.9-3.3,8.4-5.1,13.4-5.6C438-0.4,444,1,449.2,5
	c5.3,4.1,9.2,9.4,9.5,16.3c0.5,9.8,0.3,19.6,0.3,29.6c-1.2,0.3-2.1,0.5-3.1,0.5C440.4,51.5,424.9,51.5,409.4,51.5z"/>
<path class="st11" d="M235.6,201.2c1.6,0,3.2,0.2,4.8,0.2c13.8,0,27.7,0,41.5,0c1,0,2.1-0.2,3.3-0.4c0.2,11.7,0.2,23.5,0.2,35.2
	c0,3,0,6.1-0.2,9.3c-16.7,0.2-33.1,0.2-49.6,0.2C235.6,230.9,235.6,216.2,235.6,201.2z"/>
<path class="st12" d="M61.9,36.2c0-4.3-0.3-8.6,0-12.8C62.8,12,70.4,3,81.5,0.6c9.5-2,18,0.8,24.5,8.3c3.7,4.3,5.7,9.4,5.7,15.1
	c0,4,0,7.9-0.2,12.1C94.8,36.2,78.4,36.2,61.9,36.2z"/>
<path class="st13" d="M61.9,36.4c16.5-0.2,33-0.2,49.6-0.2c0.2,7.7,0.2,15.4,0,23.3c-16.7,0.2-33.1,0.2-49.6,0.2
	C61.9,52,61.9,44.3,61.9,36.4z"/>
<path class="st14" d="M285.4,362.7c-16.5,0.2-33,0.2-49.6,0.2c-0.2-5-0.2-9.9-0.1-15.1c12.4-0.2,24.5-0.2,36.7-0.2
	c4.3,0,8.7,0.1,13,0.1C285.5,352.6,285.4,357.6,285.4,362.7z"/>
<path class="st15" d="M235.6,245.9c16.5-0.2,33-0.2,49.6-0.2c0.2,4.8,0.2,9.7,0.1,14.7c-9.6,0.2-19.1,0.2-28.6,0.2
	c-7.1,0-14.1,0-21.2-0.1C235.6,255.7,235.6,250.9,235.6,245.9z"/>
<path class="st16" d="M207.7,346.6c-4.2-0.6-8.1-2.2-11.8-4.3c-3.9-2.2-7.5-4.9-10.6-8.2c-5.4-5.8-9.1-12.5-10.7-20.3
	c-0.8-3.9-1.3-8-1.1-12c0.6-9.5,3.8-18.1,10-25.5c6.2-7.4,14-12.1,23.2-14.5c0.2,0,0.4,0,0.7,0.1c0.2,2.2,0.2,4.2,0.2,6.3
	c0,0.1,0,0.3-0.2,0.3c-2.9,1.1-5.7,2.1-8.5,3.3c-0.3,0.1-0.4,0.5-0.8,0.8c-3.4,1.3-5.8,3.8-8.1,6.2c-9,9.5-11.7,20.8-9.3,33.3
	c1.6,8.3,6.1,15.1,12.5,20.5c1.5,1.3,3.4,2.1,5.1,3.3c2.8,2.2,5.9,3.5,9.3,4.1c0,0.1,0,0.3,0,0.4
	C207.7,342.5,207.7,344.5,207.7,346.6z"/>
<path class="st16" d="M313.4,261.6c4.2,0.6,8.1,2.1,11.6,4.2c3.6,2.2,7,4.8,10.1,7.7c6,5.6,9.7,12.7,11.4,20.7
	c0.8,3.7,1.3,7.6,1.1,11.4c-0.6,10.8-4.2,20.3-11.9,28.3c-3.9,4-8.3,7.3-13.2,9.6c-2.7,1.3-5.8,1.9-8.8,2.7
	c-0.2-2.2-0.2-4.1-0.2-6.2c0-0.1,0-0.3,0.2-0.3c3.1-1.2,6.1-2.5,9.3-3.8c2.8-2.2,5.7-4.1,8.1-6.6c8.2-8.3,11.1-18.6,9.9-30
	c-1-9.6-5.7-17.5-13-23.8c-1.6-1.4-3.4-2.4-5.3-3.6c-2.9-1.9-5.8-3.3-9.2-3.8c0-0.1,0-0.3,0-0.4
	C313.3,265.7,313.4,263.7,313.4,261.6z"/>
<path class="st17" d="M25,157.5c-2.5-1.4-5.1-2.6-7.4-4.3c-5.8-4.1-10.2-9.5-13.3-15.9c-2.7-5.6-4.2-11.5-4.3-17.8
	c-0.2-7.7,1.3-15,4.9-21.9c3.2-6,7.5-11,13-15c4.5-3.2,9.4-5.4,14.6-6.9c0.5-0.1,1-0.1,1.6,0c0,2.2-0.1,4.2-0.3,6.3
	c-3,1.4-5.9,2.7-9,4c-4.2,2.3-7.6,5.2-10.4,8.9c-7.1,9.1-9.4,19.4-7.3,30.7c1.1,6.1,3.9,11.5,7.8,16.2c2.8,3.4,6,6.4,10.1,8.3
	c0,0.1,0,0.3,0,0.4C25,153,25,155.2,25,157.5z"/>
<path class="st17" d="M486.7,75.6c2.5,0.7,5,1.2,7.4,2.1c5.6,2.2,10.5,5.5,14.6,9.8c6.3,6.4,10.4,14.1,11.7,22.9
	c1.9,11.9-0.3,23.2-7.5,33.1c-3.8,5.3-8.5,9.6-14.4,12.6c-0.9,0.5-1.8,0.9-2.8,1.2c0-2.4,0.1-4.7,0.2-7c0-0.1,0-0.3,0.1-0.3
	c2.1-1.3,4.2-2.5,5.9-4c9.7-8.9,13.9-20,12.2-33.2c-1.2-9.2-5.6-16.8-12.4-22.9c-1.7-1.5-3.9-2.6-5.9-4c-0.6-0.4-1.1-0.8-1.6-1.1
	c-2.4-1-4.8-1.9-7.3-3.1C487,79.6,486.9,77.6,486.7,75.6z"/>
<path class="st17" d="M372.1,157.5c-12.3-5.8-20.3-15.4-23.6-28.4c-3.4-13.2-1-25.8,7.1-36.9c6.2-8.5,14.6-14,25-16.5
	c0.2,0,0.4,0,0.7,0.1c0.2,2.2,0.2,4.2,0.2,6.3c0,0.1,0,0.3-0.2,0.3c-3.5,0.5-6.4,1.8-9.3,3.8c-3.8,2.2-7,4.7-9.7,8.1
	c-7.8,9.7-10.5,20.5-7.7,32.6c1.5,6.3,4.4,12,8.9,16.6c2.5,2.6,5.7,4.5,8.6,6.7c0,0.1,0,0.3,0,0.4
	C372.1,153,372.1,155.2,372.1,157.5z"/>
<path class="st17" d="M139.6,75.6c5.7,1,10.9,3.3,15.6,6.6c6.4,4.6,11.5,10.4,14.8,17.7c1.8,4,3,8.2,3.5,12.6
	c1.2,9.5-0.5,18.4-5.1,26.8c-4.4,8.1-11,14.1-19.4,18c-0.1-2.4-0.1-4.6-0.1-7c0-0.3,0-0.4,0.2-0.6c0.8-0.3,1.5-0.4,2-0.8
	c2.6-2.3,5.3-4.4,7.6-6.9c5.5-6.1,8.3-13.6,8.8-21.7c0.5-8.5-1.8-16.3-6.6-23.3c-3.1-4.5-6.9-8.3-12-10.9c-3.1-1.3-6.2-2.5-9.2-3.7
	c0-0.1,0-0.3,0-0.4C139.6,79.6,139.6,77.6,139.6,75.6z"/>
<path class="st18" d="M459.1,171.1c-16.5,0.2-33,0.2-49.6,0.2c-0.2-3.1-0.2-6.2-0.1-9.5c10.5-0.2,20.8-0.2,31.2-0.2
	c6.2,0,12.4,0,18.6,0.1C459.2,164.7,459.2,167.8,459.1,171.1z"/>
<path class="st18" d="M111.7,171.1c-16.5,0.2-33,0.2-49.6,0.2c-0.2-3.1-0.2-6.2-0.1-9.5c8.6-0.2,17.1-0.2,25.6-0.2
	c8,0,16.1,0,24.1,0.1C111.7,164.7,111.7,167.8,111.7,171.1z"/>
<path class="st7" d="M409.4,51.7c15.5-0.2,31-0.2,46.5-0.2c1,0,2-0.2,3.1-0.4c0.2,2.7,0.2,5.5,0,8.4c-16.7,0.2-33.1,0.2-49.6,0.2
	C409.4,57.1,409.4,54.4,409.4,51.7z"/>
<path class="st19" d="M285.6,347.7c-4.5,0-8.8-0.1-13.2-0.1c-12.2,0-24.4,0-36.7,0c-6.3,0-12.3,0-18.6-0.1c-0.2-0.1-0.2-0.3,0-0.3
	c5.7,0,11.2,0,16.7,0c1.3,0,1.8-0.4,1.7-1.7c-0.1-1.4,0-2.8,0.2-4.3c16.7,0,33.2,0,49.8,0c3,0,5.9,0,8.8,0.2
	c0.1,1.3,0.4,2.5,0.3,3.6c-0.1,1.7,0.5,2.2,2.2,2.2c2.4-0.1,4.8,0.2,7.2,0.3C298,347.6,291.9,347.6,285.6,347.7z"/>
<path class="st20" d="M459.4,161.6c-6.4,0-12.5-0.1-18.7-0.1c-10.3,0-20.7,0-31.2,0c-3.2,0-6.1,0-9.1-0.1c2.4-0.2,4.9-0.3,7.3-0.2
	c1.3,0,1.8-0.4,1.7-1.7c-0.1-1.4,0-2.8,0.2-4.3c16.6,0,32.9,0,49.4,0c0.2,0,0.2,0,0.3,0.2c0,1.2,0,2.3,0,3.3c0,2.5,0,2.4,2.6,2.5
	c2.5,0.1,5,0.2,7.5,0.3C466,161.6,462.8,161.6,459.4,161.6z"/>
<path class="st20" d="M111.9,161.6c-8.2,0-16.3,0-24.3-0.1c-8.5,0-17,0-25.6,0c-3.4,0-6.6,0-9.9-0.1c2.7-0.2,5.4-0.3,8.1-0.2
	c1.3,0,1.8-0.4,1.7-1.7c-0.1-1.4,0-2.8,0.1-4.3c0.2,0,0.2,0,0.5,0c16.6,0,32.9,0,49.3,0.2c0,1.3,0.1,2.5,0,3.7
	c-0.2,1.8,0.6,2.2,2.2,2.1c2.4,0,4.7,0.2,7.1,0.3C118,161.6,115,161.6,111.9,161.6z"/>
<path class="st20" d="M235.4,260.6c7.2,0,14.3,0,21.3,0.1c9.5,0,18.9,0,28.6,0c3.2,0,6.1,0,9.2,0.1c-2.4,0.2-4.9,0.3-7.3,0.2
	c-1.3,0-1.8,0.5-1.7,1.7c0.1,1.4,0,2.8-0.2,4.3c-16.7,0-33.2,0-49.7-0.2c0-1.3-0.1-2.5,0-3.7c0.2-1.8-0.6-2.2-2.2-2.1
	c-2.4,0.1-4.7-0.2-7.1-0.3C229.3,260.6,232.2,260.6,235.4,260.6z"/>
<path class="st21" d="M111.7,74.5c3,0,6,0,9,0.2c-2.4,0.2-4.9,0.3-7.3,0.2c-1.3,0-1.8,0.4-1.7,1.7c0.1,1.4,0,2.8-0.2,4.3
	c-16.7,0-33.2,0-49.7-0.2c0-1.4-0.1-2.6,0-3.9c0.2-1.6-0.5-2-2-1.9c-2.3,0-4.6-0.2-6.9-0.3c2.9,0,5.7,0,8.8-0.1c0.3,0,0.4,0,0.7,0
	c6.4,0,12.7,0,18.9,0C91.4,74.6,101.6,74.5,111.7,74.5z"/>
<path class="st21" d="M459.2,74.5c2.9,0,5.7,0,8.6,0.2c-2.3,0.2-4.6,0.3-7,0.2c-1.3,0-1.8,0.4-1.7,1.7c0.1,1.4,0,2.8-0.2,4.3
	c-16.7,0-33.2,0-49.7-0.2c0-1.3-0.1-2.5,0-3.7c0.2-1.8-0.6-2.2-2.2-2.1c-2.4,0-4.7-0.2-7.1-0.3c3,0,6,0,9.3-0.1
	c16.7,0,33.1,0,49.6,0C459.1,74.5,459.1,74.5,459.2,74.5z"/>
<path class="st22" d="M409.4,59.8c16.5-0.2,33-0.2,49.6-0.2c0.2,1.6,0.2,3.2,0,5c-16.7,0.2-33.1,0.2-49.6,0.2
	C409.4,63.3,409.4,61.6,409.4,59.8z"/>
<path class="st22" d="M61.9,59.8c16.5-0.2,33-0.2,49.6-0.2c0.2,1.6,0.2,3.2,0,5c-16.7,0.2-33.1,0.2-49.6,0.2
	C61.9,63.3,61.9,61.6,61.9,59.8z"/>
<path class="st23" d="M61.9,65c16.5-0.2,33-0.2,49.6-0.2c0.2,1.5,0.2,3,0,4.7c-14.9,0.2-29.7,0.2-44.4,0.2c-4.9,0-4.9,0-4.9,4.8
	c-0.1,0-0.1,0-0.3,0C61.8,71.4,61.8,68.3,61.9,65z"/>
<path class="st23" d="M409.4,65c16.5-0.2,33-0.2,49.6-0.2c0.2,3.1,0.2,6.2,0.2,9.5c-0.1,0.2-0.1,0.2-0.3,0c-0.1-0.7-0.1-1.3-0.1-1.8
	c0-2.8,0-2.8-2.8-2.8c-15.5,0-31.1,0-46.6,0C409.4,68.2,409.4,66.7,409.4,65z"/>
<path class="st18" d="M62.4,74.6c-0.2-4.8-0.2-4.8,4.7-4.8c14.7,0,29.5,0,44.4,0c0.2,1.5,0.2,3,0.2,4.6c-10.1,0.2-20.3,0.2-30.4,0.2
	C75,74.6,68.8,74.6,62.4,74.6z"/>
<path class="st18" d="M409.4,69.9c15.6-0.2,31.1-0.2,46.7-0.2c2.8,0,2.8,0,2.8,2.8c0,0.6,0,1.1,0,1.8c-16.4,0.2-32.8,0.2-49.3,0.2
	C409.3,73,409.3,71.5,409.4,69.9z"/>
<path class="st24" d="M148.9,150.4c0,2.2,0,4.4,0,6.8c0,0.2-0.2,0.2-0.3,0.3c-0.3,0.1-0.4,0.2-0.4,0.3c0,0-0.2,0.1-0.3,0.1
	c-0.3,0.1-0.4,0.2-0.4,0.3c-4.4,1.1-8.7,2.3-13.4,3.3c-1.2-0.1-2.1,0-3,0.1c-0.2,0-0.3,0-0.6-0.1c-0.1-2.2-0.1-4.1,0-6.1
	c3.2-0.5,6.1-1,9.3-1.5c0.8-0.1,1.5-0.2,2.1-0.4C144.2,152.5,146.5,151.4,148.9,150.4z"/>
<path class="st24" d="M25.1,157.5c-0.1-2.2-0.1-4.5,0-6.8c3.1,1.1,6.2,2.3,9.3,3.5c3.1,0.4,6.1,0.8,9.1,1.3
	c-0.1,2.1-0.2,4.1-0.4,6.1c-5.1,0.3-9.9-0.9-14.8-2.6c-0.3-0.2-0.4-0.3-0.5-0.3c0,0-0.2,0-0.3-0.2c-0.6-0.3-1.1-0.4-1.6-0.6
	c0,0-0.2,0-0.3-0.1c-0.2-0.2-0.3-0.2-0.4-0.3C25.3,157.5,25.2,157.5,25.1,157.5z"/>
<path class="st24" d="M372.2,157.5c-0.1-2.3-0.1-4.5,0.1-6.8c0.9,0.2,1.6,0.6,2.3,0.8c2.3,0.8,4.6,1.6,7,2.4c3.1,0.5,6.2,1,9.2,1.6
	c0,2.1,0,4.1,0,6.1c-0.2,0-0.3,0-0.7-0.1c-1.5-0.2-2.8-0.2-4.1-0.2c-3.6-0.9-7.2-1.7-11.1-2.7c-0.3-0.2-0.4-0.3-0.5-0.3
	c-0.4-0.1-0.8-0.2-1.4-0.5c-0.3-0.2-0.4-0.2-0.5-0.3C372.5,157.5,372.3,157.5,372.2,157.5z"/>
<path class="st24" d="M496,150.4c-0.1,2.3-0.2,4.5-0.3,6.9c0,0.2,0,0.1-0.2,0.1c-0.8,0.3-1.5,0.7-2.1,1c-3.2,0.9-6.4,1.9-9.6,2.6
	c-1.9,0.4-4,0.3-6.2,0.2c-0.2-2.2-0.2-4.1,0-6.1c3.2-0.4,6.1-0.8,9.2-1.2C490,152.9,493,151.6,496,150.4z"/>
<path class="st24" d="M304.2,347.6c-2.6-0.1-4.9-0.4-7.3-0.3c-1.7,0.1-2.3-0.5-2.2-2.2c0.1-1.1-0.2-2.3-0.2-3.6
	c0.1-0.2,0.2-0.2,0.4-0.2c3.2,0,6.1,0,9.3,0c3.2-0.4,6.1-0.7,9.1-1.1c0,2,0,3.9,0,6.1C310.4,346.8,307.4,347.2,304.2,347.6z"/>
<path class="st25" d="M111.7,80.9c0-1.4,0.1-2.8,0-4.3c-0.1-1.3,0.4-1.7,1.7-1.7c2.5,0,4.9-0.1,7.5-0.2c3.1-0.1,6.1-0.1,9.3,0.1
	c0.2,2.2,0.2,4.1,0.2,6.1c0,0,0,0-0.2,0c-3.2,0-6.1,0-9.3,0C117.7,80.9,114.7,80.9,111.7,80.9C111.7,80.9,111.7,80.9,111.7,80.9z"/>
<path class="st26" d="M390.9,161.6c-0.2-2-0.2-4-0.2-6.1c0-0.2,0-0.2,0.2-0.2c3.2,0,6.1,0,9.3,0c3.2,0,6.1,0,9.1,0c0,0,0,0,0,0
	c0,1.4-0.1,2.8,0,4.3c0.1,1.3-0.4,1.7-1.7,1.7c-2.5,0-4.9,0.1-7.5,0.2C397,161.6,394,161.6,390.9,161.6z"/>
<path class="st26" d="M130.3,155.3c0,2,0,3.9,0,6.1c-3,0.2-6,0.2-9.1,0.2c-2.5-0.1-4.9-0.3-7.3-0.3c-1.6,0-2.4-0.3-2.2-2.1
	c0.1-1.2,0-2.3,0-3.7c0-0.2,0-0.2,0.2-0.2c3.2,0,6.1,0,9.3,0C124.3,155.3,127.3,155.3,130.3,155.3
	C130.3,155.3,130.3,155.3,130.3,155.3z"/>
<path class="st25" d="M399.9,74.6c2.5,0.1,4.9,0.3,7.3,0.3c1.6,0,2.4,0.3,2.2,2.1c-0.1,1.2,0,2.3,0,3.7c0,0.2,0,0.2-0.2,0.2
	c-3.2,0-6.1,0-9.3,0c-3.2,0-6.1,0-9.1,0c0,0,0,0,0-0.2c0-2.1,0-4.1,0-6.1C393.7,74.6,396.7,74.6,399.9,74.6z"/>
<path class="st26" d="M285.4,266.9c0-1.4,0.1-2.8,0-4.3c-0.1-1.3,0.4-1.7,1.7-1.7c2.5,0,4.9-0.1,7.5-0.2c3.1-0.1,6.1-0.1,9.3,0.1
	c0.2,2.2,0.2,4.1,0.2,6.1c0,0,0,0-0.2,0c-3.2,0-6.1,0-9.3,0C291.4,266.9,288.4,266.9,285.4,266.9
	C285.4,266.9,285.4,266.9,285.4,266.9z"/>
<path class="st26" d="M226.1,260.6c2.5,0.1,4.9,0.3,7.3,0.3c1.6,0,2.4,0.4,2.2,2.1c-0.1,1.2,0,2.3,0,3.7c0,0.2,0,0.2-0.2,0.2
	c-3.2,0-6.1,0-9.3,0c-3.2,0-6.1,0-9.1,0c0,0,0,0,0-0.2c0-2.1,0-4.1,0-6.1C220,260.6,222.9,260.6,226.1,260.6z"/>
<path class="st25" d="M52.7,74.6c2.5,0.1,4.8,0.3,7.1,0.3c1.5,0,2.2,0.4,2,1.9c-0.1,1.2,0,2.5,0,3.9c0,0.2,0,0.2-0.2,0.2
	c-3,0-5.9,0-8.9,0c-3.2,0-6.1,0-9.1,0c0,0,0,0,0-0.2c0-2.1,0-4.1,0-6.1C46.6,74.6,49.6,74.6,52.7,74.6z"/>
<path class="st25" d="M459.2,80.9c0-1.4,0.1-2.8,0-4.3c-0.1-1.3,0.4-1.7,1.7-1.7c2.3,0,4.7-0.1,7.1-0.2c3.1-0.1,6.1-0.1,9.3,0.1
	c0.2,2.2,0.2,4.1,0.2,6.1c0,0,0,0-0.2,0c-3.2,0-6.1,0-9.3,0C464.9,80.9,462,80.9,459.2,80.9C459.2,80.9,459.2,80.9,459.2,80.9z"/>
<path class="st26" d="M43.4,161.6c0-2,0.1-4,0.2-6.1c0-0.2,0-0.2,0.2-0.2c3.2,0,6.1,0,9.3,0c3,0,5.9,0,8.7,0c0,1.4-0.1,2.8,0,4.3
	c0.1,1.3-0.4,1.7-1.7,1.7c-2.7,0-5.4,0.1-8.2,0.2C49.1,161.6,46.3,161.6,43.4,161.6z"/>
<path class="st26" d="M477.4,155.3c0,2,0,3.9,0,6.1c-2.6,0.2-5.2,0.2-8,0.2c-2.7-0.1-5.2-0.3-7.7-0.3c-2.5-0.1-2.5,0-2.6-2.5
	c0-1,0-2.1,0.2-3.3c3-0.2,5.9-0.2,8.9-0.2C471.4,155.3,474.4,155.3,477.4,155.3C477.4,155.3,477.4,155.3,477.4,155.3z"/>
<path class="st24" d="M477.4,80.9c0-2,0-3.9,0-6.1c3.1,0.1,6.1,0.3,9.2,0.7c0.2,2.1,0.3,4.2,0.3,6.3c-0.2,0.2-0.2,0.2-0.4,0.2
	C483.4,81.6,480.4,81.2,477.4,80.9z"/>
<path class="st24" d="M43.4,74.6c0.2,2,0.2,4,0,6.1c-3.2,0.6-6.1,0.9-9.2,1.3c-0.2,0-0.2,0-0.3,0c0.1-2,0.2-4,0.4-6.2
	C37.3,75.3,40.3,74.9,43.4,74.6z"/>
<path class="st24" d="M390.5,74.6c0.2,2,0.2,4,0,6.1c-3.2,0.5-6.1,0.9-9.1,1.3c0-2,0-4,0-6.2C384.4,75.3,387.4,74.9,390.5,74.6z"/>
<path class="st24" d="M130.3,80.9c0-2,0-3.9,0-6.1c0.5-0.2,1-0.2,1.8-0.1c0.7,0.1,1.1,0,1.6-0.1c1.9,0.2,3.9,0.5,5.9,0.9
	c0.1,2.1,0.1,4.1-0.1,6.3C136.3,81.6,133.3,81.2,130.3,80.9z"/>
<path class="st24" d="M216.8,260.6c0.2,2,0.2,4,0,6.1c-3.2,0.5-6.1,0.9-9.1,1.3c0-2,0-4,0-6.2c1.8-0.5,3.5-0.9,5.5-1.1
	c0.7,0.1,1.1,0,1.5-0.1C215.4,260.6,216,260.6,216.8,260.6z"/>
<path class="st24" d="M217,347.3c0,0,0,0.2,0,0.2c-0.3,0.1-0.6,0.1-1.1,0c-1-0.1-1.8,0-2.6,0.1c-1.8-0.3-3.6-0.5-5.5-0.9
	c-0.1-2.1-0.1-4.1,0.1-6.3c3.2,0.2,6.1,0.6,9.1,1.1C217,343.5,217,345.4,217,347.3z"/>
<path class="st24" d="M304,266.9c0-2,0-3.9,0-6.1c0.6-0.2,1.3-0.2,2.2-0.1c0.8,0,1.3,0,1.9-0.1c1.7,0.3,3.4,0.5,5.2,0.9
	c0.1,2.1,0.1,4.1-0.1,6.3C310,267.6,307,267.3,304,266.9z"/>
<path class="st26" d="M385.9,161.4c1.2-0.1,2.5-0.1,3.9,0.1C388.7,161.5,387.3,161.5,385.9,161.4z"/>
<path class="st17" d="M493.5,158.6c0.5-0.4,1.2-0.7,2-1.1C495,157.9,494.3,158.3,493.5,158.6z"/>
<path class="st26" d="M131.2,161.6c0.8-0.1,1.7-0.1,2.7-0.1C133.1,161.6,132.2,161.6,131.2,161.6z"/>
<path class="st27" d="M213.4,347.6c0.6-0.1,1.4-0.1,2.3-0.1C215.1,347.6,214.3,347.6,213.4,347.6z"/>
<path class="st17" d="M26.1,158c0.4,0,0.9,0.2,1.4,0.4C27.1,158.4,26.7,158.3,26.1,158z"/>
<path class="st26" d="M308,260.6c-0.4,0.1-0.9,0.1-1.6,0.1C306.8,260.6,307.3,260.6,308,260.6z"/>
<path class="st25" d="M133.5,74.6c-0.3,0.1-0.7,0.1-1.3,0.1C132.6,74.6,133,74.6,133.5,74.6z"/>
<path class="st26" d="M214.6,260.6c-0.3,0.1-0.7,0.1-1.2,0.1C213.7,260.6,214.1,260.6,214.6,260.6z"/>
<path class="st17" d="M25.4,157.6c0.1-0.1,0.2,0,0.3,0.1C25.6,157.8,25.5,157.8,25.4,157.6z"/>
<path class="st17" d="M148.3,157.8c0-0.1,0-0.2,0.2-0.3C148.5,157.6,148.4,157.8,148.3,157.8z"/>
<path class="st17" d="M372.5,157.6c0.1-0.1,0.2,0,0.3,0.1C372.7,157.8,372.6,157.8,372.5,157.6z"/>
<path class="st17" d="M147.5,158.2c0-0.1,0-0.2,0.2-0.3C147.8,158,147.7,158.1,147.5,158.2z"/>
<path class="st17" d="M374.3,158.4c0.1-0.1,0.2,0,0.3,0.1C374.6,158.5,374.5,158.5,374.3,158.4z"/>
<path class="st17" d="M28,158.7c0.1-0.1,0.2,0,0.3,0.1C28.2,158.9,28.1,158.9,28,158.7z"/>
<path class="st28" d="M198.4,335.7c-1.7-1-3.6-1.9-5.1-3.1c-6.3-5.5-10.9-12.2-12.5-20.5c-2.4-12.6,0.4-23.9,9.3-33.3
	c2.3-2.5,4.7-4.9,8.1-6C198.4,293.8,198.4,314.8,198.4,335.7z"/>
<path class="st27" d="M217,341.3c-3-0.4-6-0.7-9.1-1.1c-0.2,0-0.2-0.2-0.2-0.5c0-24,0-47.7,0-71.4c0,0,0-0.2,0-0.3
	c3-0.5,6-0.8,9.1-1.2c0.2,0,0.2,0,0.2,0.2C217,291.9,217,316.6,217,341.3C217,341.3,217,341.3,217,341.3z"/>
<path class="st29" d="M207.5,268.4c0.2,23.7,0.2,47.4,0.2,71.3c-3.4-0.3-6.5-1.6-9.3-3.8c0-21.1,0-42.1,0-63.2
	c0.2-0.5,0.4-0.9,0.6-1C201.8,270.5,204.6,269.5,207.5,268.4z"/>
<path class="st28" d="M322.6,272.1c1.7,1.2,3.6,2.2,5.1,3.5c7.3,6.3,11.9,14.2,13,23.8c1.2,11.4-1.7,21.7-9.9,30
	c-2.4,2.4-5.3,4.4-8.1,6.4C322.6,314.5,322.6,293.3,322.6,272.1z"/>
<path class="st27" d="M304,266.9c3,0.4,6,0.7,9.1,1.1c0.2,0,0.2,0.2,0.2,0.5c0,24,0,47.7,0,71.4c0,0,0,0.2,0,0.3c-3,0.5-6,0.8-9.1,1
	C304,316.3,304,291.6,304,266.9C304,266.9,304,266.9,304,266.9z"/>
<path class="st29" d="M313.5,339.8c-0.2-23.7-0.2-47.4-0.1-71.3c3.4,0.2,6.3,1.6,9.2,3.5c0.1,21.3,0.1,42.5,0.1,63.9
	C319.6,337.3,316.6,338.6,313.5,339.8z"/>
<path class="st28" d="M25,150.1c-4.1-1.8-7.3-4.9-10.1-8.2c-3.9-4.7-6.6-10.1-7.8-16.2C5,114.3,7.3,104.1,14.4,95
	c2.9-3.6,6.3-6.6,10.4-8.7C25,107.6,25,128.9,25,150.1z"/>
<path class="st30" d="M25,150.2c0-21.3,0-42.5,0-63.9c2.9-1.5,5.8-2.8,8.8-4.2c0.2-0.1,0.2-0.1,0.4,0.1c0.1,24.1,0.1,48.1,0.1,72
	c-3-1.2-6-2.4-9.2-3.7C25,150.4,25,150.3,25,150.2z"/>
<path class="st28" d="M496,86.1c1.9,1.3,4.1,2.3,5.8,3.9c6.9,6.1,11.2,13.7,12.4,22.9c1.7,13.2-2.5,24.2-12.2,33.2
	c-1.7,1.6-3.8,2.7-5.9,3.9C496,128.5,496,107.3,496,86.1z"/>
<path class="st30" d="M496,86c0.1,21.3,0.1,42.5,0.1,63.9c0,0.2,0,0.4,0,0.4c-3,1.3-6,2.5-9.2,3.6c-0.1-24.1-0.1-48-0.1-71.9
	c0.1,0,0.1,0,0.3,0c2.5,1,4.9,1.9,7.4,2.9C494.9,85.1,495.4,85.5,496,86z"/>
<path class="st28" d="M372.1,150.1c-2.9-2.2-6.1-4.1-8.6-6.7c-4.5-4.6-7.5-10.3-8.9-16.6c-2.8-12.1-0.1-23,7.7-32.6
	c2.7-3.3,5.9-5.9,9.7-7.9C372.1,107.6,372.1,128.9,372.1,150.1z"/>
<path class="st31" d="M381.4,82.1c3-0.5,6-0.8,9.1-1.2c0.2,0,0.2,0,0.2,0.2c0,24.9,0,49.5,0,74.2c0,0,0,0,0,0
	c-3-0.4-6.1-0.9-9.2-1.6c-0.1-24-0.1-47.7-0.1-71.4C381.4,82.3,381.4,82.2,381.4,82.1z"/>
<path class="st30" d="M381.2,82.3c0.2,23.7,0.2,47.4,0.2,71.3c-2.3-0.6-4.6-1.4-6.9-2.2c-0.7-0.3-1.4-0.7-2.3-1
	c-0.1,0-0.1-0.2-0.1-0.3c0-21.3,0-42.5,0-63.9C374.8,84.2,377.8,82.8,381.2,82.3z"/>
<path class="st28" d="M148.9,86.1c5,2.5,8.8,6.3,11.9,10.8c4.8,7,7.1,14.8,6.6,23.3c-0.5,8.2-3.3,15.6-8.8,21.7
	c-2.3,2.5-5,4.7-7.6,6.9c-0.5,0.4-1.2,0.6-2,0.7C148.9,128.3,148.9,107.2,148.9,86.1z"/>
<path class="st31" d="M130.3,80.9c3,0.4,6,0.7,9.1,1.1c0.2,0,0.2,0.2,0.2,0.4c0,24,0,47.7,0,71.4c-3,0.5-6,1-9.1,1.5
	c-0.2,0-0.2,0-0.2-0.2C130.3,130.2,130.3,105.6,130.3,80.9C130.3,80.9,130.3,80.9,130.3,80.9z"/>
<path class="st30" d="M139.8,153.8c-0.2-23.7-0.2-47.4-0.1-71.3c3,1,6.1,2.2,9.2,3.5c0.1,21.2,0.1,42.3,0.1,63.6c0,0.3,0,0.5,0,0.8
	c-2.4,1.1-4.7,2.1-7.1,3.1C141.2,153.6,140.6,153.7,139.8,153.8z"/>
<path class="st32" d="M235.6,266.9c16.5,0,33,0,49.7,0c0.2,0,0.2,0,0.2,0.2c0,24.9,0,49.5,0,74.2c-16.5,0-33,0-49.7,0
	c-0.2,0-0.2,0-0.2-0.2C235.6,316.3,235.6,291.6,235.6,266.9C235.6,266.9,235.6,266.9,235.6,266.9z"/>
<path class="st33" d="M285.6,341.3c-0.2-24.7-0.2-49.4-0.2-74.2c3-0.2,6-0.2,9.1,0c0.2,24.9,0.2,49.5,0.2,74.2c0,0-0.2,0-0.3,0
	C291.5,341.3,288.6,341.3,285.6,341.3z"/>
<path class="st27" d="M217.2,347.3c-0.2-1.9-0.2-3.7-0.2-5.8c0-0.2,0-0.2,0.2-0.2c3.2,0,6.1,0,9.3,0c3.2,0,6.1,0,9.1,0c0,0,0,0,0,0
	c0,1.4-0.1,2.9,0,4.3c0.1,1.3-0.4,1.7-1.7,1.7C228.4,347.2,222.9,347.3,217.2,347.3z"/>
<path class="st34" d="M409.3,80.9c16.5,0,33,0,49.7,0c0.2,0,0.2,0,0.2,0.2c-0.1,24.9-0.3,49.5-0.4,74.2c-16.4,0-32.8,0-49.3,0
	c-0.2,0-0.2,0-0.2-0.2C409.3,130.2,409.3,105.6,409.3,80.9C409.3,80.9,409.3,80.9,409.3,80.9z"/>
<path class="st35" d="M458.9,155.3c0-24.7,0.2-49.4,0.3-74.2c2.9-0.2,5.7-0.2,8.8,0c0.2,24.9,0.2,49.5,0.2,74.2c-2.9,0-5.7,0-8.7,0
	C459.1,155.3,459.1,155.3,458.9,155.3z"/>
<path class="st34" d="M61.8,80.9c16.5,0,33,0,49.7,0c0.2,0,0.2,0,0.2,0.2c0,24.9,0,49.5,0,74.2c0,0,0,0,0,0c-16.4,0-32.8,0-49.3-0.2
	C62.1,130.2,62,105.6,61.8,80.9C61.8,80.9,61.8,80.9,61.8,80.9z"/>
<path class="st35" d="M61.7,80.9c0.3,24.7,0.4,49.4,0.5,74.2c-0.1,0.2-0.1,0.2-0.3,0.2c-3,0-5.8,0-8.8-0.2
	c-0.2-24.9-0.2-49.5-0.2-74.2C55.8,80.9,58.6,80.9,61.7,80.9z"/>
<path class="st31" d="M34.5,154.2c-0.2-23.9-0.2-47.9-0.2-72c3-0.5,6-0.9,9.1-1.3c0.2,0,0.2,0,0.2,0.2c0,24.9,0,49.5,0,74.2
	c0,0,0,0,0,0C40.6,154.9,37.6,154.6,34.5,154.2z"/>
<path class="st31" d="M486.6,82c0.2,23.9,0.1,47.9,0.1,72c-3,0.5-6,0.9-9.1,1.3c-0.2,0-0.2,0-0.2-0.2c0-24.9,0-49.5,0-74.2
	c0,0,0,0,0,0C480.4,81.2,483.4,81.6,486.6,82z"/>
<path class="st19" d="M294.9,341.3c-0.2-24.7-0.2-49.4-0.2-74.2c3-0.2,6-0.2,9.1-0.2c0.2,24.7,0.2,49.4,0.2,74.2
	C301.1,341.3,298.1,341.3,294.9,341.3z"/>
<path class="st36" d="M130.1,80.9c0.2,24.7,0.2,49.4,0.2,74.2c-3,0.2-6,0.2-9.1,0c-0.2-24.9-0.2-49.5-0.2-74.2
	C124,80.9,127,80.9,130.1,80.9z"/>
<path class="st35" d="M120.8,80.9c0.2,24.7,0.2,49.4,0.2,74.2c-3,0.2-6,0.2-9.1,0.2c-0.2-24.7-0.2-49.4-0.2-74.2
	C114.7,80.9,117.7,80.9,120.8,80.9z"/>
<path class="st35" d="M409.2,80.9c0.2,24.7,0.2,49.4,0.2,74.2c-3,0.2-6,0.2-9.1,0c-0.2-24.9-0.2-49.5-0.2-74.2
	C403,80.9,406,80.9,409.2,80.9z"/>
<path class="st36" d="M399.9,80.9c0.2,24.7,0.2,49.4,0.2,74.2c-3,0.2-6,0.2-9.1,0.2c-0.2-24.7-0.2-49.4-0.2-74.2
	C393.7,80.9,396.7,80.9,399.9,80.9z"/>
<path class="st33" d="M235.6,341.1c-3,0.2-6,0.2-9.1,0c-0.2-24.9-0.2-49.5-0.2-74.2c3,0,6,0,9.1,0
	C235.6,291.6,235.6,316.3,235.6,341.1z"/>
<path class="st19" d="M226.1,266.9c0.2,24.7,0.2,49.4,0.2,74.2c-3,0.2-6,0.2-9.1,0.2c-0.2-24.7-0.2-49.4-0.2-74.2
	C220,266.9,223,266.9,226.1,266.9z"/>
<path class="st36" d="M43.8,155.3c-0.2-24.7-0.2-49.4-0.2-74.2c3-0.2,6-0.2,9.1-0.2c0.2,24.7,0.2,49.4,0.2,74.2
	C49.9,155.3,46.9,155.3,43.8,155.3z"/>
<path class="st36" d="M477.2,80.9c0.2,24.7,0.2,49.4,0.2,74.2c-3,0.2-6,0.2-9.1,0.2c-0.2-24.7-0.2-49.4-0.2-74.2
	C471.1,80.9,474.1,80.9,477.2,80.9z"/>
</svg>
