<?xml version="1.0" encoding="utf-8"?>
<!-- Generator: Adobe Illustrator 28.1.0, SVG Export Plug-In . SVG Version: 6.00 Build 0)  -->
<svg version="1.1" id="Layer_1" xmlns="http://www.w3.org/2000/svg" xmlns:xlink="http://www.w3.org/1999/xlink" x="0px" y="0px"
	 viewBox="0 0 505.3 471.6" style="enable-background:new 0 0 505.3 471.6;" xml:space="preserve">
<style type="text/css">
	.st0{fill:#45D551;}
	.st1{fill:#3CD255;}
	.st2{fill:#53DA4A;}
	.st3{fill:#5BDD46;}
	.st4{fill:#66E140;}
	.st5{fill:#62DF43;}
	.st6{fill:#5FDE44;}
	.st7{fill:#4DD84D;}
	.st8{fill:#57D949;}
	.st9{fill:#6BE33D;}
	.st10{fill:#3DCCAA;}
	.st11{fill:#41BC5E;}
	.st12{fill:#50E9FB;}
	.st13{fill:#53D04F;}
	.st14{fill:#4DD5B2;}
	.st15{fill:#4CCD53;}
	.st16{fill:#47D0AE;}
	.st17{fill:#44CA56;}
	.st18{fill:#2AD393;}
	.st19{fill:#3CBB62;}
	.st20{fill:#1CD3AA;}
	.st21{fill:#46C459;}
	.st22{fill:#40C25B;}
	.st23{fill:#00FFF7;}
	.st24{fill:#18DAB5;}
	.st25{fill:#10E5C9;}
	.st26{fill:#06F3E2;}
</style>
<path class="st0" d="M2.3,272.6c1.4-3.2,2.5-6.4,4.2-9.4c3.6-6.5,7-13,8-20.4c1.2-8.2,0.4-16.4-3-24c-1.6-3.6-3.5-7.1-5.4-10.5
	c-2.8-5.2-4.7-10.6-5.5-16.5c0.7,0.2,1.2,0.6,1.7,0.9c4.1,2,8.2,3.9,12.2,5.8c11.3,5.4,22.5,10.9,33.8,16.3
	c11.4,5.5,22.8,11,34.1,16.5c10.1,4.9,20.3,9.9,30.4,14.8c3.6,1.7,7.1,3.5,10.7,5.2c0.6,0.3,1.3,0.4,1.9,0.6
	c0.1-0.2,0.2-0.3,0.3-0.5c-1.7-1.9-3.3-4-5-5.8c-8-8.2-16.2-16.4-24.2-24.6c-0.3-0.4-0.7-0.7-1-1.1c-0.3-0.5-0.6-1-0.9-1.5
	c0.1-0.1,0.2-0.3,0.3-0.4c1.6,0.7,3.2,1.5,4.8,2.2c0.1-0.1,0.2-0.3,0.4-0.4c-1.2-1.6-2.4-3.2-3.7-4.8c-2.6-3.1-5.6-6-8-9.2
	c-5.8-8.1-5.7-17.1-3.5-26.3c0.3-1.2,0.9-1.9,2.2-1.1c1.2,0.7,1.7-0.1,2.2-1.1c0.5-0.9,1.1-1.8,1.7-2.6c-0.9,2.6-1.7,5.2-2.6,7.8
	c0,0.3,0,0.5-0.1,0.7c-0.2,0.5-0.2,1-0.3,1.6c0,0.7,0,1.2,0,1.7c-0.5,8.8,2.9,15.8,9,21.9c29.4,29.6,58.8,59.2,88.1,88.8
	c5.4,5.4,10.7,11,16.3,16.2c5.3,4.9,11.7,8,18.5,10.3c6.3,2.2,12.9,2.1,19.4,2.1c2.3,0,4.6-0.9,6.9-1.3c9.7-1.9,17.9-6.6,24.8-13.4
	c11.1-10.8,22-21.9,32.9-32.8c0.5-0.5,1.1-1,1.8-1.5c1.3-0.7,2.4-0.6,3.6,0c0.8,0.3,1.7,0.3,2.6,0.5c-3.5,3.7-6.9,7.3-10.3,10.8
	c-2,2.1-2,2.7,0.3,4.4c-0.7,0.8-1.6,1.5-2,2.3c-2.5,5-7,8.3-10.2,12.6c-1.4,1.8-1.5,2.1,0.6,3.1c7.1,3.5,14.3,6.9,21.4,10.3
	c11.5,5.6,23,11.1,34.5,16.7c11.4,5.5,22.8,11,34.1,16.5c10.1,4.9,20.3,9.9,30.4,14.8c3.3,1.6,6.6,3.1,9.9,4.6
	c0.2,10.4-2.7,19.9-8.8,28.4c-3.8,5.3-8.5,9.5-14.2,12.8c-5,2.9-10.4,4.7-16,5.6c-3.8,0.6-7.7,0.3-11.6,0.5
	c-7.7,0.3-15.2,1.5-22,5.3c-4.1,2.4-7.7,5.5-11.8,8.4c-1.5-0.2-2.8-0.4-4-0.9c-2.3-1-4.6-2.1-6.9-3.2c-11.1-5.4-22.2-10.7-33.3-16.1
	c-7.6-3.7-15.3-7.4-22.9-11.1c-11.5-5.6-23.1-11.2-34.6-16.8c-6.9-3.3-13.8-6.7-20.8-10c-12.2-5.9-24.3-11.8-36.5-17.7
	c-6.8-3.3-13.6-6.6-20.4-9.8c-11.4-5.5-22.9-11.1-34.3-16.6c-7.3-3.5-14.6-7.1-21.9-10.6c-12.1-5.9-24.2-11.7-36.3-17.6
	c-6.9-3.3-13.7-6.6-20.6-9.9c-13-6.3-26-12.6-38.9-19C3.9,274.7,3.2,273.5,2.3,272.6z"/>
<path class="st1" d="M2.2,272.7c1,0.8,1.7,2,2.8,2.5c12.9,6.4,25.9,12.7,38.9,19c6.9,3.3,13.7,6.6,20.6,9.9
	c12.1,5.9,24.2,11.7,36.3,17.6c7.3,3.5,14.6,7.1,21.9,10.6c11.4,5.5,22.9,11.1,34.3,16.6c6.8,3.3,13.6,6.6,20.4,9.8
	c12.2,5.9,24.3,11.8,36.5,17.7c6.9,3.3,13.8,6.7,20.8,10c11.5,5.6,23.1,11.2,34.6,16.8c7.6,3.7,15.3,7.4,22.9,11.1
	c11.1,5.4,22.2,10.7,33.3,16.1c2.3,1.1,4.6,2.3,6.9,3.2c1.2,0.5,2.5,0.6,3.9,0.9c-4.7,5.1-7.7,11.4-11.6,17.1
	c-5.4,8-12.8,13.7-21.9,17.1c-4,1.5-8.1,2.3-12.4,2.7c-9.6,0.9-18.5-1.3-26.8-6c-6.2-3.5-12.4-6.8-19.5-8c-5.4-0.9-10.9-0.9-16.4,0
	c-7.8,1.3-14.4,5.4-21.2,9c-5.5,2.9-11.4,4.5-17.6,5.1c-8.7,0.8-16.9-0.9-24.6-4.7c-8.5-4.2-15-10.6-19.6-18.8
	c-3.2-5.6-6.7-11-11.6-15.3c-6.2-5.5-13.3-9.3-21.5-10.7c-4.9-0.8-10-1-15-1.2c-10.4-0.3-19.7-3.4-28-9.8
	c-9.5-7.3-14.8-17.1-17.1-28.6c-0.4-1.8-0.3-3.7-0.4-5.5c-0.6-6.4,0-13-1.8-19.3c-1.8-6.3-4.6-11.9-8.7-17.1c-4.7-6-11-10-17.4-13.8
	c-11.6-6.8-18.8-16.7-21.9-29.7c-1.8-7.6-1.5-15.2,0.5-22.7C1.8,273.7,1.9,273.2,2.2,272.7z"/>
<path class="st2" d="M420.8,373.3c-3.3-1.4-6.7-2.9-10-4.5c-10.1-4.9-20.3-9.9-30.4-14.8c-11.4-5.5-22.8-11-34.1-16.5
	c-11.5-5.6-23-11.1-34.5-16.7c-7.1-3.5-14.3-6.9-21.4-10.3c-2.1-1-2-1.3-0.6-3.1c3.3-4.3,7.8-7.6,10.2-12.6c0.4-0.9,1.3-1.6,2-2.3
	c-2.2-1.7-2.3-2.3-0.3-4.4c3.4-3.6,6.8-7.2,10.4-10.9c1.3-1.4,2.5-2.6,3.8-3.8c0.7-0.9,1.2-1.7,1.9-2.6c3.6-3.7,7.1-7.2,10.6-10.8
	c0.7-0.7,1.3-1.6,0.2-2.6c-0.2-0.2-0.3-0.9-0.1-1.1c1-1.9,1.9-4,3.3-5.5c13.4-13.5,26.9-27,40.3-40.4c0.5-0.5,1-1.1,1.6-1.7
	c0.6-0.6,1.2-1.1,1.7-1.6c12-12,24-24,36-35.9c0.5-0.5,1.1-1,1.6-1.3c-1.4,2.1,0.2,3,1.4,3.8c-2.2,2.6-4.2,5.2-6.4,7.5
	c-4.3,4.5-8.7,9-13,13.5c-4.3,4.5-8.5,9-12.7,13.5c-2.1,2.2-2.1,2.3,0.3,4.1c0.1,0.1,0.1,0.2,0.1,0.4c-2,2.4-4,4.8-6.1,7.1
	c-3,3.4-6,6.7-9,10.1c0,0-0.1,0.1-0.1,0.1c-0.7,0.9-0.8,1.6,0.5,2.2c1.3,0.6,2.6,1.1,3.9,1.8c11.2,5.4,22.3,10.8,33.4,16.2
	c7.6,3.7,15.2,7.3,22.7,11c10.1,4.9,20.1,9.8,30.2,14.7c3.6,1.7,7.1,3.5,10.7,5.1c0.7,0.3,1.5,0.3,2.3,0.5
	c0.3,7.3,0.1,14.5-2.5,21.4c-1.8,4.7-4.3,9.1-7.5,13.1c-5,6.4-11.8,10.4-18.6,14.5c-6.3,3.8-11.3,8.8-15.1,15.1
	c-3.3,5.4-5.4,11.2-6.3,17.3C420.8,366.1,421,369.6,420.8,373.3z"/>
<path class="st3" d="M52.2,86.3c1-5.1,3.1-9.7,5.9-14.1c6-9.4,14.3-15.6,24.8-19c4.3-1.4,8.7-2.2,13.2-2.2c2.5,0,4.9,0,7.6,0.1
	c1,0.5,1.8,0.8,2.5,1.1c8.8,4.2,17.5,8.5,26.3,12.7c11.3,5.5,22.6,11,34,16.4c11.2,5.4,22.4,10.8,33.6,16.3
	c11.4,5.5,22.8,11,34.1,16.5c10.4,5,20.7,10.1,31.1,15.2c5,2.4,10.1,4.8,15.1,7.2c1.5,0.7,3,0.7,4.3-0.5c3.5-3.3,7.1-6.6,10.6-9.8
	c0.5-0.4,1.1-0.7,1.7-1c1.5,0.5,2.9,1,4.3,1.5c-0.5,0.7-0.9,1.3-1.4,1.8c-5,4.9-10,9.8-15,14.7c-3.4,3.3-6.7,6.6-10.2,9.8
	c-3.3,2.9-6.8,5.6-10.2,8.4c-0.3,0.2-0.9,0.4-1.1,0.3c-1.5-0.7-2.6,0-3.7,0.9c-5.9,5-11.9,10.1-17.7,15.2c-1,0.9-1.7,0.9-2.8,0.3
	c-4.3-2.2-8.7-4.2-13-6.4c-2.2-1.1-4.5-2.2-6.3-3.8c-5.6-5-11.1-10.1-16.5-15.3c-8.5-8.2-17-16.5-25.5-24.7
	c-1.2-1.2-2.5-2.4-3.9-3.4c-5.9-4.6-12.6-7.4-20.1-8.4c-8-1.1-15.4,0.7-22.6,4.2c-6.6,3.2-4.2,3.7-11.2,0.3
	c-10.3-5-20.7-9.9-31-14.9c-10.3-5-20.6-10-30.9-15.1C56,89.3,53.5,88.8,52.2,86.3z"/>
<path class="st4" d="M375.5,51c0.5,0,1,0,1.7,0.1c-1,1.2-2.1,2.3-3.2,3.4c-4.7,4.7-9.4,9.3-14.2,14c-0.9,0.9-1.7,1.7-2.6,2.6
	c-0.5,0.5-1,1-1.5,1.5c-2.4,2.3-4.7,4.4-7.1,6.7c-0.4,0.4-0.7,0.7-1,1.1c0,0,0,0-0.1,0c-0.4,0.4-0.7,0.7-1,1.2
	c-0.1,0.2-0.2,0.2-0.4,0.3c-0.8,0.8-1.4,1.5-2.1,2.2c0,0,0,0-0.1,0c-1.1-0.1-2.1-0.3-3.1-0.3c-0.8,0-1.8-0.2-2.3,0.2
	c-3.1,2.7-6.1,5.6-9.2,8.3c-3.6,3.2-7.3,6.3-10.7,9.7c-2.4,2.3-4.7,3.3-7.7,1.1c-0.3-0.3-0.8-0.3-1.2-0.5
	c-11.2-5.4-22.3-10.8-33.5-16.2c-11.2-5.4-22.4-10.8-33.6-16.3c-11.4-5.5-22.8-11-34.1-16.5c-10.4-5-20.7-10.1-31.1-15.2
	c-4.1-2-8.2-3.9-12.2-5.8c-5.8-2.8-11.6-5.6-17.4-8.4c-1.1-0.6-1.3-1.2-0.6-2.4c0.5-0.7,0.6-1.7,0.9-2.6c1.9-2.3,3.6-5,5.8-7
	c3.5-3.2,7.3-5.9,11.6-7.8c5-2.2,10.2-3.6,15.7-4.2c7-0.7,13.7,0.2,20.1,2.7c3.9,1.5,7.6,3.5,11.3,5.5c5.3,2.9,10.7,5.2,16.7,5.9
	c2.1,0.3,4.3,0.3,6.5,0.7c0.6,0.8,0.9,1.5,1.5,1.8c2.1,1.1,4.4,2.1,6.5,3.1c11.6,5.6,23.2,11.2,34.8,16.8
	c7.4,3.6,14.8,7.2,22.2,10.8c9.9,4.8,19.8,9.7,29.7,14.5c5.6,2.7,11.2,5.3,16.8,8c1.7,0.8,3.2,0.6,4.6-0.8c5.3-5,10.7-9.9,16-14.9
	c1.1-1,2.1-1,3.4-0.7c0.8,0.2,1.9,0.2,2.5-0.2C374.3,53,374.8,51.9,375.5,51z"/>
<path class="st5" d="M147.6,19.3c-0.2,0.8-0.3,1.8-0.7,2.5c-0.7,1.1-0.5,1.8,0.6,2.4c5.8,2.8,11.6,5.6,17.4,8.4
	c4.1,2,8.2,3.9,12.2,5.8c10.4,5,20.7,10.1,31.1,15.2c11.4,5.5,22.7,11,34.1,16.5c11.2,5.4,22.4,10.8,33.6,16.3
	c11.2,5.4,22.3,10.8,33.5,16.2c0.4,0.2,0.9,0.2,1.2,0.5c2.9,2.2,5.2,1.3,7.7-1.1c3.5-3.4,7.2-6.4,10.7-9.7c3.1-2.8,6.1-5.6,9.2-8.3
	c0.5-0.4,1.5-0.3,2.3-0.2c1,0,2,0.2,3.1,0.4c0,0.2,0,0.2,0,0.3c-10,10.2-20,20.3-30.9,29.4c-0.4,0.3-1.2,0.5-1.6,0.3
	c-1.5-0.6-2.6-0.3-3.6,0.9c-0.9,1-1.9,1.7-2.9,2.6c-2.5,2.4-5.1,4.9-7.6,7.3c-0.6,0.4-1.2,0.7-1.7,1.1c-3.6,3.3-7.1,6.6-10.6,9.8
	c-1.3,1.2-2.8,1.2-4.3,0.5c-5-2.4-10.1-4.8-15.1-7.2c-10.4-5-20.7-10.1-31.1-15.2c-11.4-5.5-22.8-11-34.1-16.5
	c-11.2-5.4-22.4-10.8-33.6-16.3c-11.3-5.5-22.6-10.9-34-16.4c-8.8-4.2-17.5-8.5-26.3-12.7c-0.8-0.4-1.5-0.7-2.3-1.2
	c1.7-0.4,3.5-0.6,5.3-0.8c8.2-1.2,15.4-4.4,21.9-9.5C137,36,141,30,144.6,23.7C145.5,22.2,146.6,20.8,147.6,19.3z"/>
<path class="st6" d="M471.4,281.1c-0.7,0-1.6,0-2.3-0.3c-3.6-1.7-7.2-3.4-10.7-5.1c-10.1-4.9-20.1-9.8-30.2-14.7
	c-7.6-3.7-15.2-7.3-22.7-11c-11.1-5.4-22.3-10.8-33.4-16.2c-1.3-0.6-2.6-1.2-3.9-1.8c-1.2-0.5-1.2-1.3-0.5-2.2c0,0,0.1-0.1,0.1-0.1
	c3-3.4,6-6.7,9-10.1c2.1-2.4,4.1-4.8,6.1-7.1c0-0.1,0-0.3-0.1-0.4c-2.4-1.8-2.4-1.8-0.3-4.1c4.2-4.5,8.5-9,12.7-13.5
	c4.3-4.5,8.8-8.9,13-13.5c2.2-2.3,4.2-4.9,6.4-7.5c-1.3-0.8-2.9-1.7-1.4-3.9c9.4-9.6,18.7-18.9,28-28.3c0.2-0.2,0.4-0.3,0.6-0.4
	c6.2,3.7,12.5,7.1,17.5,12.5c4,4.4,7.1,9.3,9.3,14.9c2.8,7,3.5,14.3,2.8,21.6c-0.5,6.2-2.5,12.2-5.7,17.7c-3.5,6.1-7,12.3-8.2,19.3
	c-0.7,4.2-1.1,8.4-0.7,12.8c0.5,5.2,1.6,10.1,3.8,14.7c1.4,2.9,2.9,5.8,4.5,8.7c3.2,5.5,5.4,11.2,6,17.5
	C471.1,280.7,471.3,280.8,471.4,281.1z"/>
<path class="st7" d="M91.2,174.4c-0.6,0.9-1.2,1.8-1.7,2.7c-0.5,1-1,1.8-2.2,1.1c-1.4-0.8-1.9-0.1-2.2,1.1
	c-2.2,9.2-2.3,18.2,3.5,26.3c2.4,3.3,5.3,6.1,8,9.2c1.3,1.5,2.4,3.2,3.7,4.8c-0.1,0.1-0.2,0.3-0.4,0.4c-1.6-0.7-3.2-1.5-4.8-2.2
	c-0.1,0.1-0.2,0.3-0.3,0.4c0.3,0.5,0.5,1,0.9,1.5c0.3,0.4,0.7,0.7,1,1.1c8.1,8.2,16.2,16.4,24.2,24.6c1.8,1.8,3.4,3.9,5,5.8
	c-0.1,0.2-0.2,0.3-0.3,0.5c-0.6-0.2-1.3-0.3-1.9-0.6c-3.6-1.7-7.2-3.4-10.7-5.2c-10.1-4.9-20.3-9.9-30.4-14.8
	c-11.4-5.5-22.7-11-34.1-16.5c-11.3-5.4-22.5-10.9-33.8-16.3c-4.1-2-8.2-3.9-12.2-5.8c-0.5-0.3-1-0.7-1.7-1c-0.3-2-0.5-3.9-0.5-5.9
	C-0.2,176,2.6,167.1,8,159c4.2-6.4,10.1-11,16.6-14.9c4.1-2.5,7.8-5.5,12-8.3c0.9,0.4,1.6,0.9,2.3,1.2c5.3,2.5,10.7,4.9,15.9,7.5
	c5.6,2.7,11.2,5.6,16.8,8.4c0.7,0.3,1.4,0.6,2,0.9c2,0.9,3.9,1.9,5.9,2.8c2.9,1.3,5.7,2.8,8.6,3.9c0.7,0.3,2-0.1,2.6-0.6
	c1.3-1,2.4-2.3,3.6-3.5c1.1-1.2,2.2-1.4,3.8-0.7c0.8,0.4,2.2,0.4,2.8-0.1c2.9-2.3,5.6-4.9,8.3-7.4c3.9-3.7,7.6-7.6,11.6-11.2
	c3.3-2.9,6.8-5.4,10.3-8.1c0.3-0.2,0.8-0.4,1.2-0.4c1.6,0,3.1,0.1,4.6,0.3c-3.1,2.8-6.2,5.3-9,8.1c-9.7,9.6-19.3,19.2-28.9,28.9
	c-0.5,0.5-1.1,1-1.6,1.5c-1.8,2-3.6,4-5.5,6.1C91.6,173.7,91.4,174.1,91.2,174.4C91.2,174.4,91.2,174.4,91.2,174.4z"/>
<path class="st8" d="M52.2,86.4c1.3,2.3,3.8,2.9,6.1,4c10.3,5,20.6,10.1,30.9,15.1c10.3,5,20.6,10,31,14.9c7,3.4,4.6,2.9,11.2-0.3
	c7.2-3.5,14.6-5.3,22.6-4.2c7.5,1,14.2,3.8,20.1,8.4c1.4,1.1,2.7,2.2,3.9,3.4c8.5,8.2,16.9,16.5,25.5,24.7
	c5.4,5.2,10.9,10.3,16.5,15.3c1.8,1.6,4.1,2.7,6.3,3.8c4.3,2.2,8.7,4.2,13,6.4c1.1,0.5,1.8,0.5,2.8-0.3c5.9-5.1,11.8-10.1,17.7-15.2
	c1.1-0.9,2.2-1.6,3.7-0.9c0.3,0.1,0.9,0,1.1-0.3c3.4-2.8,7-5.5,10.2-8.4c3.5-3.1,6.8-6.5,10.2-9.8c5-4.9,10-9.8,15-14.7
	c0.5-0.5,0.9-1.1,1.5-1.9c2.9-3,6.1-5.1,9.2-7.4c2.2-1.6,4-1.9,6.2-1.1c-0.6,0.6-1.1,1.2-1.6,1.7c-12,12-24,24-35.9,36
	c-0.5,0.5-1,1.1-1.6,1.7c-0.8,0.6-1.5,1.2-2.3,1.8c-0.9-0.1-1.7-0.1-2.3-0.4c-1.3-0.6-2.2-0.2-3.2,0.6c-3.7,3.4-7.5,6.6-11.1,10.1
	c-7.1,6.7-14.2,13.4-21.3,20.2c-1.8,1.8-1.9,1.8-3.8-0.1c-2.4-2.4-4.8-4.8-7.2-7.2c-0.5-0.5-1.2-0.8-1.9-1.3c-0.7-0.5-1.2-1-1.8-1.6
	c-0.5-0.7-0.9-1.3-1.4-1.8c-4.2-4.2-8.6-8.2-12.8-12.4c-11.8-11.7-23.4-23.6-35.3-35.2c-2.7-2.6-5.9-4.8-9.2-6.5
	c-12.2-6-27-3.3-36.8,6.2c-2.7,2.6-5.7,4.9-8.7,7.2c-0.4,0.3-1.2,0.5-1.6,0.3c-1.5-0.8-2.7-0.2-3.7,0.7
	c-5.6,5.1-11.2,10.1-16.7,15.2c-1.9,1.7-2.7,1.9-5,0.8c-9.9-4.8-19.7-9.6-29.6-14.4c-4.6-2.2-9.2-4.3-13.8-6.5
	c-2.2-1.1-4.3-2.4-6.5-3.6c4.4-5.9,7-12.7,8.3-19.9c0.3-1.8,0.3-3.7,0.4-5.5c0.4-5.4,0.7-10.9,1.1-16.3C51.8,87.4,52,87,52.2,86.4z"
	/>
<path class="st9" d="M375.3,51c-0.5,0.9-1,2-1.8,2.6c-0.6,0.4-1.7,0.5-2.5,0.2c-1.3-0.4-2.3-0.4-3.4,0.7c-5.3,5-10.7,9.9-16,14.9
	c-1.4,1.3-2.9,1.6-4.6,0.8c-5.6-2.7-11.2-5.3-16.8-8c-9.9-4.8-19.8-9.7-29.7-14.5c-7.4-3.6-14.8-7.2-22.2-10.8
	c-11.6-5.6-23.2-11.2-34.8-16.8c-2.2-1.1-4.4-2-6.5-3.1c-0.6-0.3-0.9-1-1.4-1.7c0.6-0.3,1.3-0.5,2-0.5c8.2-0.1,15.6-2.7,22.6-6.9
	c6.3-3.7,13-6.7,20.3-7.6c12.4-1.5,23.7,1.4,33.9,8.9c6.1,4.4,10.3,10.3,14,16.7c2.6,4.5,5.5,8.8,9.4,12.3
	c6.4,5.9,13.9,10.1,22.6,11.5C365.2,50.5,370.2,50.6,375.3,51z"/>
<path class="st10" d="M431,130.5c0,0.1,0,0.1-0.2,0.3c-0.5,0.5-1,0.9-1.4,1.3c-38.2,38.2-76.4,76.4-114.5,114.5
	c-0.4,0.4-0.8,0.9-1.3,1.4c-13.4,13.4-26.8,26.7-40.1,40c-4.4,4.4-8.8,8.9-13.5,13.1c-6.1,5.5-13.4,8.4-21.6,8.9
	c-11.3,0.7-21-3-29.1-11.1c-13.5-13.6-27.1-27.1-40.6-40.6c-0.4-0.4-0.8-0.9-1.1-1.4c0.9-0.1,1.8-0.1,2.5-0.4
	c1.2-0.5,2.3-1.2,3.5-1.8c0.6,0.6,1.2,1.1,1.7,1.6c12.7,12.7,25.3,25.4,38,38c3.1,3.1,6.7,5.6,10.9,7.3c11.3,4.6,24.8,2,33.4-6.6
	c55.9-55.9,111.9-111.9,167.8-167.8c0.5-0.5,1-1.1,1.6-1.7c0.1,0,0.3,0,0.3,0.1C428.5,127.5,429.7,129,431,130.5z"/>
<path class="st11" d="M394,55.1c1.4,0.7,2.8,1.4,4.4,2.3c-0.4,0.8-0.9,1.4-1.5,2c-20.8,20.8-41.5,41.5-62.3,62.3
	c-0.6,0.6-1.1,1.2-1.7,1.8c-0.7,0.7-1.4,1.3-2,1.9c-31.1,31.1-62.1,62.1-93.2,93.2c-0.6,0.6-1.2,1.1-2.2,2c-0.6-0.8-0.9-1.4-1.5-2
	c-7.5-7.6-15.1-15.1-22.6-22.6c-0.6-0.6-1.2-1-1.9-1.6c-3.3-3.4-6.5-6.8-9.8-10c-13.3-13.3-26.6-26.6-39.9-40
	c-5.4-5.5-13.4-5.4-18.7,0c-9.2,9.4-18.6,18.6-27.8,27.9c-0.5,0.5-1.1,1-1.8,1.5c-0.5,0.1-1,0-1.2,0.2c-1.6,1.5-3.2,3.1-4.7,4.7
	c-0.2,0.2,0.1,0.7,0.1,1.2c-0.3,0.4-0.5,0.7-0.9,1c-0.6,0.6-1,1.1-1.4,1.6c-0.6,0.6-1.1,1.3-1.8,1.5c-1,0.4-2.2,0.4-3.3,0.4
	c1.2-2.8,2.5-5.4,3.8-8.1c0.6-0.6,1.2-1.1,1.7-1.6c11.4-11.4,22.8-23,34.4-34.3c7.4-7.2,17.4-7.2,24.7,0
	c24,23.7,47.8,47.6,71.6,71.5c1.1,1.1,1.8,1.2,2.9,0c32.9-33,65.9-66,98.9-98.9c0.5-0.5,0.8-1.2,1.4-1.8c0.7-0.5,1.4-1,2-1.5
	c17.7-17.7,35.4-35.4,53.1-53C393.1,56.1,393.6,55.6,394,55.1z"/>
<path class="st12" d="M413,43.1c6.9-6.9,13.8-13.9,20.7-20.8c5-5.1,10.1-10.1,15.1-15.1c4.7-4.7,12.7-4.7,17.3,0
	c2.8,2.8,5.4,5.8,8.2,8.5c8.9,8.8,17.7,17.6,26.7,26.3c2.4,2.4,3.9,5.2,4.1,8.4c0.2,3.4-0.7,6.7-3.3,9.3
	c-18.9,18.9-37.8,37.8-56.9,56.6c-1.1-1.8-2.1-3.6-3-5.6c0-0.2,0-0.2,0.2-0.3c2.9-2.9,5.6-5.7,8.5-8.6c3.1-3.1,6.2-6.2,9.3-9.3
	c12.1-12,24-24,36.1-35.8c3.1-3.1,3.3-7.5,0-10.8c-11.2-10.9-22.2-22.1-33.3-33.2c-3.6-3.6-6.9-3.6-10.5,0
	c-6.4,6.4-12.8,12.8-19.2,19.2c-0.4,0.4-0.7,0.8-1.2,1.3c-2.4,2.4-4.7,4.7-7.1,7.1c-2.4,2.4-4.7,4.7-7.1,7c-0.2,0-0.2,0-0.3-0.1
	C415.9,45.7,414.5,44.4,413,43.1z"/>
<path class="st2" d="M41.8,129.5c2.2,1.2,4.3,2.4,6.5,3.5c4.6,2.2,9.2,4.3,13.8,6.5c9.9,4.8,19.7,9.6,29.6,14.4
	c2.3,1.1,3.1,0.9,5-0.8c5.6-5.1,11.1-10.2,16.7-15.2c1.1-1,2.2-1.5,3.7-0.7c0.4,0.2,1.2,0,1.6-0.3c2.9-2.3,6-4.6,8.7-7.2
	c9.8-9.5,24.6-12.2,36.8-6.2c3.3,1.6,6.5,3.9,9.2,6.5c11.9,11.6,23.5,23.4,35.3,35.2c4.2,4.2,8.5,8.3,12.8,12.4
	c0.5,0.5,0.9,1.1,1.3,1.8c-4.7-3.8-9.3-7.7-13.8-11.8c-2.7-2.5-5.1-5.4-8.8-6.5c-0.4-0.1-0.8-0.6-1.2-0.8c-1.8-1.1-3.6-2.3-5.5-3.5
	c-7.8-7.7-15.5-15.3-23.1-23c-2.6-2.6-5.4-4.8-8.9-6.2c-5.8-2.5-11.8-3.2-17.9-1.4c-2.2,0.7-4.4,1.6-6.6,2.4
	c-1.6-0.1-3.1-0.2-4.7-0.2c-0.4,0-0.9,0.2-1.2,0.4c-3.5,2.7-7.1,5.2-10.3,8.1c-4,3.6-7.7,7.5-11.6,11.2c-2.7,2.5-5.4,5.1-8.3,7.4
	c-0.6,0.5-2,0.5-2.8,0.1c-1.6-0.7-2.7-0.5-3.8,0.7c-1.2,1.2-2.3,2.5-3.6,3.5c-0.7,0.5-1.9,0.9-2.6,0.6c-2.9-1.2-5.7-2.6-8.6-3.9
	c-2-0.9-3.9-1.9-5.9-2.8c-0.7-0.3-1.4-0.5-2-0.9c-5.6-2.8-11.1-5.6-16.8-8.4c-5.3-2.6-10.6-5-15.9-7.5c-0.7-0.3-1.4-0.8-2.2-1.3
	c1.5-1.8,3.1-3.6,4.9-5.6c0.2-0.3,0.3-0.3,0.3-0.4C41.8,129.7,41.8,129.6,41.8,129.5z"/>
<path class="st11" d="M313.6,248.1c0.4-0.5,0.8-0.9,1.2-1.4c38.2-38.2,76.4-76.4,114.5-114.5c0.4-0.4,0.8-0.8,1.3-1.2
	c1,1,1.8,2,2.7,3.3c-0.4,0.8-0.8,1.4-1.3,2c-7.1,7.1-14.2,14.3-21.4,21.4c-1,1-1.9,2.1-3,3.2c-0.6,0.6-1.2,1.1-1.7,1.6
	c-29.4,29.4-58.8,58.8-88.1,88.1c-0.6,0.6-1.3,1.2-1.9,1.6c0.3-0.8,0.7-1.5,1.1-2.5C315.9,249,314.8,248.6,313.6,248.1z"/>
<path class="st13" d="M278,157.3c0.5-0.6,1-1.1,1.5-1.7c12-12,24-24,35.9-36c0.5-0.5,1-1.1,1.7-1.8c0.4-0.4,0.6-0.6,0.9-0.8
	c17.5-17.5,35-35,52.5-52.5c0.3-0.3,0.6-0.8,1.1-1.2c4-4,7.9-7.9,11.8-11.8c1.8,0.5,3.6,0.9,5.4,1.5c-0.5,0.7-1,1.3-1.5,1.8
	c-20.9,20.9-41.7,41.7-62.6,62.6c-0.6,0.6-1.1,1.2-1.7,1.8c-0.6,0.6-1.2,1.1-1.7,1.6c-11.2,11.2-22.5,22.5-33.7,33.7
	c-0.5,0.5-1.1,1-1.8,1.4c-0.5-0.2-1-0.3-1.3-0.5c-1.6-0.9-3-0.6-4.3,0.8C279.6,156.9,278.7,157,278,157.3z"/>
<path class="st14" d="M412.9,43.1c1.6,1.3,3,2.6,4.5,4.1c-2.2,2.5-4.4,4.8-6.7,7.1c-2.4,2.4-4.7,4.7-7.1,7.1
	c-0.7,0.6-1.2,1.1-1.7,1.6c-18.8,18.8-37.5,37.5-56.3,56.3c-0.6,0.6-1.2,1.1-1.9,1.6c-0.7,0.2-1.2,0.3-1.7,0.5c-2,1-4,2.1-6,3.2
	c-2.1,1.1-2.7,0.9-3-1.2c0.5-0.6,1.1-1.2,1.6-1.8c20.8-20.8,41.5-41.5,62.3-62.3c0.6-0.6,1-1.2,1.6-1.9
	C403.3,52.6,408,47.9,412.9,43.1z"/>
<path class="st13" d="M441.7,140.8c-0.1,0.3-0.4,0.4-0.5,0.5c-9.3,9.3-18.6,18.7-28,28.1c-0.6,0.6-1.2,1.1-1.7,1.6
	c-12,12-24,24-36,35.9c-0.5,0.5-1.1,1-1.7,1.5c-0.5-0.5-0.7-1.1-1.2-1.4c-1.8-1.2-1.8-1.2-0.3-2.8c0.5-0.5,0.7-1.2,1-2
	c0.6-0.6,1.1-1.2,1.6-1.7c10-10,20-20,30-30c0.5-0.5,1-1.1,1.6-1.7c9.9-9.8,19.6-19.5,29.4-29.2c0.6-0.6,1.2-1.1,1.8-1.6
	C439,138.9,440.3,139.8,441.7,140.8z"/>
<path class="st15" d="M323,119.4c0.5-0.6,1-1.2,1.6-1.8c20.8-20.9,41.7-41.7,62.6-62.6c0.5-0.5,1-1.1,1.6-1.7
	c1.7,0.5,3.4,1.1,5.1,1.7c-0.3,0.5-0.8,1.1-1.2,1.5c-17.7,17.7-35.4,35.4-53.1,53c-0.6,0.6-1.2,1-2.1,1.6c-1,0.4-1.9,0.7-2.5,1.3
	c-1,1-1.9,1.3-3.2,0.8c-0.7-0.2-1.8,0.2-2.4,0.7c-1.6,1.4-3,3-4.5,4.4C324.4,118.8,323.6,119.1,323,119.4z"/>
<path class="st15" d="M437.6,137.8c-0.5,0.6-1.2,1.1-1.7,1.7c-9.8,9.7-19.5,19.5-29.4,29.1c0.1-0.7,0.2-1.5,0.6-2.1
	c0.7-0.9,1.6-1.7,2.4-2.6c-0.2,0-0.5-0.1-0.7-0.1c-0.3-1.1-0.5-2.2-0.8-3.2c1-1,1.9-2.1,2.9-3.1c7.1-7.1,14.2-14.3,21.4-21.4
	c0.5-0.5,0.9-1.1,1.4-1.8C434.9,135.4,436.2,136.6,437.6,137.8z"/>
<path class="st5" d="M383.1,51.7c-3.7,3.9-7.6,7.8-11.7,11.7c-3.2-1.7-5.4-0.5-7.3,2c-0.3,0.4-0.7,0.9-1.2,1.2
	c-1,0.7-2.1,1.2-3.1,1.8c4.7-4.7,9.4-9.3,14.1-14c1.1-1.1,2.2-2.1,3.4-3.3C379.2,51.2,381.1,51.4,383.1,51.7z"/>
<path class="st14" d="M442.1,110.8c0.9,1.8,1.9,3.6,2.9,5.5c-2.2,2.4-4.4,4.7-6.9,7.1c-1.4-1.6-2.6-3.2-3.7-4.9c0-0.1,0-0.3,0.1-0.3
	C437,115.7,439.5,113.3,442.1,110.8z"/>
<path class="st16" d="M434.3,118.6c1.2,1.6,2.3,3.2,3.6,4.8c-2.2,2.3-4.4,4.7-6.8,7c-1.3-1.5-2.6-3-3.8-4.8
	C429.6,123.2,431.9,120.9,434.3,118.6z"/>
<path class="st8" d="M41.7,129.8c0,0.1,0,0.2-0.2,0.3C41.4,130,41.5,129.9,41.7,129.8z"/>
<path class="st17" d="M88.6,183c0-0.2,0-0.3,0.1-0.7c0.3-0.3,0.5-0.4,0.5-0.5c0.4-1.8,1.2-2.7,3.1-1.7c0.3,0.1,1.1-0.4,1.3-0.7
	c0.4-0.6,0.6-1.5,1-2.2c0.6-1.2,1.1-2.7,2.8-2.7c-1.1,2.4-2.2,4.7-3.4,7.1c-2.5,8.5-0.4,15.9,5.7,21.9
	c34.7,34.9,69.6,69.7,104.4,104.5c0.4,0.4,0.8,0.8,1.2,1.2c10.1,8,21.4,11.9,34.3,10.8c11.2-0.9,20.9-5.2,28.9-13.1
	c4.7-4.7,9.5-9.5,14.2-14.2c2.4-2.4,4.7-4.9,7.2-7.3c3-2.9,6-5.6,8.9-8.5c3.1-3.1,6.1-6.2,9.2-9.2c-1.1,1.6-2.2,3.1-3.3,4.5
	c-0.7,0.9-1.1,1.6,0.2,2.2c1.3,0.5,1.3,1.4,0.9,2.5c-0.6,0.5-1.1,1-1.7,1.5c-11,11-21.8,22-32.9,32.8c-6.9,6.7-15.1,11.5-24.8,13.4
	c-2.3,0.4-4.6,1.3-6.9,1.3c-6.5,0-13,0-19.4-2.1c-6.8-2.3-13.2-5.4-18.5-10.3c-5.6-5.2-10.9-10.8-16.3-16.2
	c-29.4-29.6-58.7-59.3-88.1-88.8c-6.1-6.1-9.5-13.2-9-21.9c0-0.5,0-1,0.1-1.7C88.5,183.9,88.6,183.5,88.6,183z"/>
<path class="st15" d="M97.5,174.4c-1.8,0-2.2,1.5-2.9,2.8c-0.4,0.7-0.6,1.5-1,2.2c-0.3,0.4-1.1,0.9-1.3,0.7c-1.9-1-2.7-0.1-3.1,1.7
	c0,0.1-0.2,0.3-0.5,0.4c0.7-2.5,1.6-5,2.5-7.6c0-0.1,0-0.1,0.1-0.2c0.3-0.4,0.5-0.7,0.6-1.1c1.8-2,3.6-4,5.4-6
	c0.5-0.5,1.1-1,1.6-1.5c9.6-9.6,19.2-19.3,28.9-28.9c2.8-2.8,6-5.3,9-8.1c2.3-0.9,4.4-1.8,6.7-2.5c6.1-1.8,12-1.1,17.9,1.4
	c3.4,1.5,6.3,3.6,8.9,6.2c7.6,7.7,15.3,15.3,23.2,23.1c4.8,4.9,9.3,9.7,14,14.4c3.6,3.6,7.4,7.1,11,10.7c5.4,5.3,10.7,10.7,16,16
	c0.9,0.9,1.6,0.9,2.4,0.1c4.7-4.7,9.3-9.4,14.1-14.2c7.5-7.4,14.8-14.7,22.2-22c0.9-0.9,1.8-1.9,2.7-2.8c0.7-0.6,1.3-1.2,2.1-1.8
	c0.8-0.4,1.8-0.5,2.2-1c1.3-1.4,2.6-1.7,4.3-0.8c0.4,0.2,0.8,0.3,1.3,0.6c-0.4,0.7-0.9,1.2-1.4,1.7c-15.5,15.5-31,31-46.5,46.5
	c-2,2-2,2-3.9,0.1c-13.5-13.5-26.9-26.9-40.4-40.4c-9-9-18-17.9-26.9-27c-2.9-2.9-6.2-4.9-10.1-6c-7.5-2.2-14.4-0.6-20.1,4.4
	c-5.8,5.1-11.1,10.7-16.7,16.2c-1,1-1.8,2.1-2.7,3C110.5,161.3,104,167.9,97.5,174.4z"/>
<path class="st15" d="M306,276.7c0.3-1.1,0.3-2-1-2.5c-1.3-0.5-0.9-1.3-0.2-2.2c1.2-1.4,2.2-2.9,3.4-4.6c0.4-0.6,0.6-0.9,0.9-1.2
	c20.9-21,41.9-41.9,62.8-62.8c0.4-0.4,0.8-0.7,1.3-1.1c-0.3,0.6-0.5,1.4-1,1.9c-1.5,1.7-1.5,1.6,0.3,2.8c0.5,0.3,0.7,0.9,1.1,1.5
	c-0.5,0.7-1,1.3-1.5,1.8c-13.4,13.5-26.9,26.9-40.3,40.4c-1.5,1.5-2.3,3.6-3.3,5.5c-0.2,0.3-0.1,0.9,0.1,1.1c1.1,1,0.5,1.8-0.2,2.6
	c-3.5,3.6-7,7.2-10.7,10.8c-0.9-0.1-1.6-0.4-2.3-0.5c-0.6-0.1-1.2-0.1-1.8-0.1c0.4,0.5,0.7,0.9,1,1.4c0.4,0.6,0.8,1.3,1.3,1.9
	c-1.2,1.2-2.3,2.4-3.6,3.7c-1-0.1-1.9,0-2.7-0.4C308.4,276.2,307.3,276.1,306,276.7z"/>
<path class="st15" d="M88.5,183.1c0,0.4,0,0.9-0.2,1.4C88.3,184.1,88.4,183.6,88.5,183.1z"/>
<path class="st0" d="M316,273.3c-0.5-0.6-0.9-1.2-1.4-1.9c-0.3-0.5-0.7-0.9-1-1.4c0.6,0,1.2,0,1.8,0.1c0.7,0.1,1.4,0.4,2.2,0.6
	C317.3,271.6,316.7,272.4,316,273.3z"/>
<path class="st6" d="M359.7,68.5c1.1-0.7,2.2-1.2,3.2-1.9c0.5-0.3,0.9-0.7,1.2-1.2c1.8-2.5,4-3.6,7.1-1.9c-0.2,0.5-0.5,0.9-0.9,1.2
	c-17.5,17.5-35,35-52.5,52.5c-0.2,0.2-0.5,0.4-0.8,0.7c-2.4-0.6-4.2-0.3-6.4,1.3c-3.2,2.2-6.4,4.4-9.2,7.3c-1.5-0.4-3-0.8-4.5-1.3
	c2.4-2.5,5-5,7.5-7.4c0.9-0.9,2-1.7,2.9-2.6c1.1-1.2,2.2-1.5,3.6-0.9c0.4,0.2,1.2,0,1.6-0.3c10.9-9.1,21-19.3,30.9-29.4
	c0,0,0.1-0.1,0.2-0.3c0.1-0.1,0.1-0.1,0.2-0.1c0.8-0.8,1.4-1.5,2.1-2.2c0.1-0.1,0.2-0.1,0.4-0.3c0.5-0.5,0.8-0.8,1-1.2
	c0,0,0,0,0.1,0c0.4-0.4,0.7-0.7,1-1.1c2.3-2.2,4.6-4.4,7.1-6.6c0.6-0.6,1.1-1.1,1.5-1.5C358,70.2,358.8,69.4,359.7,68.5z"/>
<path class="st5" d="M345.9,81.8c-0.5,0.7-1.2,1.4-2,2.2C344.5,83.3,345.2,82.6,345.9,81.8z"/>
<path class="st5" d="M357.1,71.1c-0.3,0.4-0.7,0.9-1.2,1.4C356.2,72,356.6,71.6,357.1,71.1z"/>
<path class="st5" d="M347.4,80.3c-0.2,0.3-0.5,0.7-0.9,1.1C346.7,81.1,347,80.7,347.4,80.3z"/>
<path class="st5" d="M348.6,79.2c-0.2,0.3-0.5,0.7-0.9,1.1C347.9,79.9,348.1,79.6,348.6,79.2z"/>
<path class="st0" d="M91.8,173.4c-0.1,0.3-0.2,0.6-0.5,1C91.4,174.1,91.6,173.7,91.8,173.4z"/>
<path class="st7" d="M250.8,184.1c-4.7,4.7-9.3,9.4-14,14.1c-0.8,0.8-1.5,0.8-2.4-0.1c-5.3-5.4-10.6-10.7-16-16
	c-3.6-3.6-7.4-7.1-11-10.7c-4.7-4.7-9.2-9.5-13.9-14.4c1.7,1,3.6,2.1,5.4,3.3c0.4,0.3,0.8,0.7,1.2,0.8c3.7,1.1,6.1,4.1,8.8,6.5
	c4.5,4.1,9.1,7.9,13.8,11.9c0.7,0.5,1.2,0.9,1.9,1.6c0.5,0.7,0.9,1.3,1.4,1.8c2.6,2.6,5.1,5.2,7.7,7.7c1.9,1.9,2.2,1.8,4.4,0
	c2.6-2.2,5.4-4.2,8.2-6.3c0.3-0.2,0.7-0.3,1-0.3C248.5,184.1,249.7,184.1,250.8,184.1z"/>
<path class="st2" d="M250.9,184c-1.3,0.1-2.4,0.1-3.6,0.1c-0.4,0-0.8,0.1-1,0.3c-2.7,2.1-5.5,4.1-8.2,6.3c-2.2,1.8-2.5,1.9-4.4,0
	c-2.6-2.6-5.2-5.1-7.7-7.7c-0.5-0.5-0.8-1-1.3-1.7c0.6,0.3,1.2,0.6,1.8,1.1c2.4,2.4,4.8,4.8,7.2,7.2c1.9,1.9,2,1.8,3.8,0.1
	c7.1-6.7,14.2-13.5,21.3-20.2c3.7-3.4,7.4-6.7,11.1-10.1c1-0.9,1.9-1.2,3.2-0.6c0.6,0.3,1.4,0.2,2.3,0.4c-0.7,0.9-1.6,1.9-2.5,2.8
	C265.8,169.3,258.4,176.7,250.9,184z"/>
<path class="st18" d="M343.9,120.9c0.6-0.5,1.2-1.1,1.8-1.6c18.8-18.8,37.5-37.5,56.3-56.3c0.5-0.5,1.1-1,1.8-1.5
	c1.7,1.5,3.3,2.9,4.7,4.4c5.6,5.8,9.1,12.7,10.9,20.5c1.4,5.6,1.3,11.4,1.5,17.1c0.1,2.9,0.3,6,1.1,8.8c1.3,4.5,3.2,8.9,4.8,13.4
	c-0.5,0.6-1,1.1-1.5,1.7c-55.9,55.9-111.9,111.9-167.8,167.8c-8.6,8.6-22.1,11.2-33.4,6.6c-4.1-1.7-7.7-4.2-10.9-7.3
	c-12.7-12.6-25.3-25.3-38-38c-0.5-0.5-1.1-1-1.8-1.7c-0.3-0.4-0.5-0.6-0.7-0.7c-11.9-11.9-23.7-23.7-35.6-35.6
	c-0.3-0.3-0.7-0.6-1.1-0.9c-0.6-0.6-1.1-1.2-1.6-1.7c-7.7-7.7-15.3-15.4-23-23c-2.9-2.8-2.5-7.5-0.1-9.9
	c11.5-11.3,22.9-22.8,34.4-34.2c0.7-0.7,1.5-1.3,2.4-1.7c2.8-1.1,5.1-0.2,7.2,1.9c15.5,15.6,31.1,31.1,46.7,46.7
	c0.6,0.6,1.2,1.1,1.8,1.7c8.9,9,17.9,17.9,26.7,26.9c3,3.1,7.2,3,10.2,0c33.8-34,67.7-67.8,101.6-101.7
	C343,121.9,343.4,121.4,343.9,120.9z"/>
<path class="st19" d="M313.5,248.1c1.2,0.4,2.3,0.9,3.5,1.4c-0.4,1-0.8,1.7-1.2,2.6c-6.6,6.8-13.2,13.5-19.8,20.1
	c-1.3,1.4-2.6,2.8-4.1,4.2c-3.8,3.7-7.6,7.3-11.3,10.9c-6.3,6.2-12.2,12.7-18.8,18.5c-9.7,8.4-21.3,10.7-33.7,8.6
	c-8.9-1.4-16.3-5.8-22.7-12.2c-9.1-9.2-18.3-18.3-27.5-27.5c-24.9-24.9-49.8-49.8-74.7-74.7c-4.3-4.3-6.3-9.5-5.1-15.7
	c1.1-0.2,2.3-0.2,3.3-0.5c0.7-0.2,1.3-1,1.8-1.5c0.5-0.5,0.9-1.1,1.4-1.5c-3.1,6-2.3,11.4,2.4,16.1c2.9,2.9,5.9,5.9,8.8,8.8
	c5,4.9,9.9,9.8,15,14.9c12,12.1,24,24.1,36,36c0.1,0.1,0.3,0.2,0.4,0.3c0.4,0.5,0.8,0.9,1.2,1.4c13.5,13.5,27.1,27.1,40.6,40.6
	c8,8.1,17.8,11.8,29.1,11.1c8.1-0.5,15.5-3.4,21.6-8.9c4.6-4.2,9-8.7,13.5-13.1C286.8,274.8,300.1,261.5,313.5,248.1z"/>
<path class="st20" d="M426.9,125.7c-1.7-4.5-3.6-8.8-4.9-13.4c-0.8-2.8-1-5.8-1.1-8.8c-0.2-5.7-0.1-11.5-1.5-17.1
	c-1.9-7.8-5.4-14.7-10.9-20.5c-1.5-1.5-3-3-4.6-4.5c2.2-2.4,4.4-4.7,6.9-7c4.5,3.6,8.1,7.8,11.1,12.5c4.7,7.4,7.6,15.4,8.3,24.1
	c0.4,4.8,0.6,9.6,0.7,14.4c0.2,4.5,1.6,8.7,3.4,12.8c0,0,0,0.2,0,0.3c-2.3,2.4-4.6,4.7-7,7C427.2,125.7,427,125.7,426.9,125.7z"/>
<path class="st16" d="M167.6,257c-0.3-0.1-0.5-0.2-0.6-0.3c-12-12-23.9-23.9-35.8-36c2.3-0.2,3.9-1.3,5.1-3.1c0.3,0.3,0.7,0.5,1,0.8
	c11.9,11.9,23.7,23.7,35.6,35.6c0.2,0.2,0.3,0.4,0.6,0.7c-1.1,0.7-2.1,1.4-3.3,1.9C169.4,256.9,168.5,256.9,167.6,257z"/>
<path class="st21" d="M97.5,174.5c6.5-6.7,13-13.2,19.5-19.8c1-1,1.8-2.1,2.7-3c5.5-5.4,10.8-11.1,16.7-16.2
	c5.7-5,12.6-6.6,20.1-4.4c3.9,1.1,7.2,3.2,10.1,6c9,9,18,18,26.9,27c13.5,13.5,26.9,26.9,40.4,40.4c1.9,1.9,1.9,1.9,3.9-0.1
	c15.5-15.5,31-31,46.5-46.5c0.5-0.5,0.9-1,1.5-1.6c0.6-0.6,1.2-1.1,1.7-1.6c11.2-11.2,22.5-22.5,33.7-33.7c0.5-0.5,1.1-1,1.7-1.6
	c0.7-0.4,1.5-0.6,2-1c1.5-1.4,2.9-3,4.5-4.4c0.6-0.5,1.7-0.9,2.4-0.7c1.4,0.5,2.3,0.2,3.2-0.8c0.5-0.6,1.5-0.8,2.4-1.3
	c-0.3,0.6-0.6,1.3-1.1,1.8c-33,33-65.9,65.9-98.9,98.9c-1.2,1.2-1.8,1.1-2.9,0c-23.8-23.9-47.6-47.8-71.6-71.5
	c-7.3-7.2-17.2-7.2-24.7,0c-11.6,11.3-22.9,22.8-34.4,34.3c-0.5,0.5-1.1,1-1.9,1.6c-1,0-1.7,0.2-2.4-0.1c-1.2-0.4-1.9-0.1-2.4,0.9
	c-0.4,0.9-0.7,1.9-1.2,2.7c-0.4,0.7-1.1,1.2-1.7,1.7C95.3,179.2,96.3,176.9,97.5,174.5z"/>
<path class="st22" d="M94.1,181.6c0.7-0.7,1.4-1.2,1.8-1.8c0.5-0.8,0.8-1.8,1.2-2.7c0.5-1,1.3-1.4,2.4-0.9c0.6,0.2,1.4,0.1,2.3,0.1
	c-1.1,2.6-2.3,5.3-3.6,8c-1.1,6.3,0.8,11.5,5.1,15.9c24.9,24.9,49.8,49.8,74.7,74.7c9.2,9.2,18.3,18.3,27.5,27.5
	c6.3,6.3,13.8,10.7,22.7,12.2c12.5,2,24.1-0.3,33.7-8.6c6.6-5.7,12.5-12.3,18.8-18.5c3.7-3.7,7.5-7.2,11.3-10.8c0.1,3,0.1,2.9-1.7,6
	c-0.4,0.7-0.3,1.8-0.4,2.7c-2.4,2.4-4.7,4.9-7.1,7.3c-4.7,4.7-9.5,9.5-14.2,14.2c-8,8-17.7,12.2-28.9,13.1
	c-12.9,1.1-24.3-2.8-34.3-10.8c-0.4-0.3-0.8-0.8-1.2-1.2c-34.8-34.8-69.7-69.6-104.4-104.5C93.7,197.5,91.7,190.1,94.1,181.6z"/>
<path class="st14" d="M136.2,217.5c-1.1,2-2.7,3-5.1,3.1c-5.1-4.9-10.1-9.8-15-14.7c-2.9-2.9-5.9-5.9-8.8-8.8
	c-4.8-4.8-5.5-10.2-2.3-16.1c0.3-0.4,0.5-0.7,0.9-1.2c2-2.1,4-4.1,5.9-6c0.5-0.5,1.1-1,1.6-1.5c9.3-9.3,18.6-18.5,27.8-27.9
	c5.3-5.4,13.2-5.5,18.7,0c13.3,13.3,26.6,26.6,39.9,40c3.3,3.3,6.5,6.6,9.6,10.1c-1.9,0.9-3.1,3.1-5.5,2.7c-0.6-0.5-1.2-1.1-1.8-1.6
	c-15.6-15.5-31.1-31.1-46.7-46.7c-2.1-2.1-4.4-3-7.2-1.9c-0.9,0.3-1.7,1-2.4,1.7c-11.5,11.4-22.8,22.9-34.4,34.2
	c-2.5,2.4-2.9,7.1,0.1,9.9c7.8,7.6,15.4,15.3,23,23C135.1,216.3,135.6,216.8,136.2,217.5z"/>
<path class="st16" d="M204,197.2c2.3,0.3,3.5-1.9,5.5-2.7c0.7,0.4,1.4,0.9,2,1.4c7.5,7.5,15.1,15.1,22.6,22.6c0.5,0.5,0.9,1.2,1.5,2
	c1-0.9,1.6-1.4,2.2-2c31.1-31.1,62.1-62.1,93.2-93.2c0.6-0.6,1.2-1.2,2-1.9c0.4,2,1,2.2,3.1,1.1c2-1.1,4-2.1,6-3.2
	c0.5-0.2,1-0.4,1.7-0.5c-0.3,0.5-0.7,1-1.2,1.5c-33.9,33.9-67.8,67.7-101.6,101.7c-3,3-7.2,3.1-10.2,0
	C221.9,215.1,213,206.3,204,197.2z"/>
<path class="st19" d="M111.6,173.7c-1.8,2-3.7,3.9-5.7,5.9c-0.2-0.3-0.4-0.9-0.3-1c1.5-1.6,3.1-3.2,4.7-4.7
	C110.6,173.7,111.1,173.8,111.6,173.7z"/>
<path class="st23" d="M432,33.1c0.4-0.4,0.7-0.9,1.1-1.3c6.4-6.4,12.8-12.8,19.2-19.2c3.6-3.5,6.9-3.5,10.5,0
	c11.1,11.1,22.1,22.2,33.3,33.2c3.4,3.3,3.2,7.8,0,10.8c-12.1,11.8-24,23.8-36.1,35.7c-0.5-4.1-0.8-8.1-1.5-12
	c-1.7-9.3-4.8-18.1-9.7-26.1c-2.8-4.6-6.1-8.9-9.4-13.1C437.2,38.3,434.5,35.8,432,33.1z"/>
<path class="st24" d="M434.4,118.2c-1.9-4-3.3-8.2-3.5-12.7c-0.2-4.8-0.4-9.6-0.7-14.4c-0.7-8.7-3.6-16.7-8.3-24.1
	c-3-4.7-6.6-8.9-11-12.6c2.1-2.4,4.3-4.7,6.6-7c0.1-0.1,0.2-0.1,0.4,0c2.4,2.3,4.7,4.5,6.8,6.8c6.3,7.2,10.8,15.5,13.4,24.8
	c2.2,8,2.7,16.2,2.7,24.4c0,2.4,0.9,4.8,1.5,7.1c0,0.1,0,0.1,0,0.3C439.5,113.3,437,115.7,434.4,118.2z"/>
<path class="st25" d="M442.2,110.4c-0.6-2.3-1.6-4.7-1.6-7.1c0-8.3-0.4-16.4-2.7-24.4c-2.6-9.2-7-17.5-13.4-24.8
	c-2.1-2.4-4.4-4.5-6.7-6.9c2.2-2.4,4.5-4.7,7-7c3.3,3.5,6.6,6.7,9.5,10.3c7.2,8.9,11.6,19,14.2,30.1c1.6,7,1.4,14.1,2,21.2
	C447.9,104.7,445.1,107.5,442.2,110.4z"/>
<path class="st26" d="M450.7,101.9c-0.7-7-0.5-14.1-2.1-21.1c-2.5-11.1-7-21.3-14.2-30.1c-2.9-3.6-6.2-6.9-9.4-10.4
	c2.2-2.4,4.5-4.7,6.9-7.1c2.6,2.6,5.3,5.1,7.5,8c3.3,4.2,6.6,8.5,9.4,13.1c4.9,8,8.1,16.8,9.7,26.1c0.7,3.9,0.9,8,1.4,12.1
	C456.9,95.7,453.9,98.7,450.7,101.9z"/>
<path class="st21" d="M290,285.2c0-0.8-0.1-1.9,0.3-2.6c1.8-3.1,1.9-3.1,1.9-6.1c1.3-1.5,2.6-2.9,4-4.3c6.6-6.6,13.2-13.2,19.8-19.9
	c0.7-0.7,1.4-1.2,2-1.8c29.4-29.4,58.8-58.8,88.1-88.1c0.5-0.5,1.1-1,1.7-1.6c0.4,1,0.7,2.1,0.9,3.2c0.2,0,0.5,0.1,0.7,0.1
	c-0.8,0.8-1.7,1.6-2.4,2.6c-0.4,0.5-0.5,1.3-0.7,2.1c-0.4,0.7-0.9,1.2-1.4,1.8c-10,10-20,20-30,30c-0.5,0.5-1,1.1-1.6,1.7
	c-0.5,0.5-0.9,0.8-1.3,1.2c-21,20.9-41.9,41.9-62.8,62.8c-0.3,0.3-0.6,0.6-0.9,1.1c-3.1,3.2-6.2,6.4-9.3,9.4
	C296,279.6,293.1,282.4,290,285.2z"/>
</svg>
