<?xml version="1.0" encoding="utf-8"?>
<!-- Generator: Adobe Illustrator 28.1.0, SVG Export Plug-In . SVG Version: 6.00 Build 0)  -->
<svg version="1.1" id="Layer_1" xmlns="http://www.w3.org/2000/svg" xmlns:xlink="http://www.w3.org/1999/xlink" x="0px" y="0px"
	 viewBox="0 0 496.3 489.8" style="enable-background:new 0 0 496.3 489.8;" xml:space="preserve">
<style type="text/css">
	.st0{fill:#8EF3FF;}
	.st1{fill:#80EAFE;}
	.st2{fill:#71E1FE;}
	.st3{fill:#5FD6FE;}
	.st4{fill:#10A6FC;}
	.st5{fill:#6FE0FE;}
	.st6{fill:#DAA6FF;}
	.st7{fill:#56D1FE;}
	.st8{fill:#6BDEFE;}
	.st9{fill:#26B3FD;}
	.st10{fill:#0CA3FC;}
	.st11{fill:#73E2FE;}
	.st12{fill:#3EC2FD;}
	.st13{fill:#47C8FE;}
	.st14{fill:#5CD5FE;}
	.st15{fill:#2EB8FD;}
	.st16{fill:#16AAFC;}
	.st17{fill:#CDA4FD;}
	.st18{fill:#2AA2F4;}
	.st19{fill:#A49EFA;}
	.st20{fill:#1095F3;}
	.st21{fill:#B7A1FC;}
	.st22{fill:#A3AEFB;}
	.st23{fill:#C3A2FA;}
	.st24{fill:#B5BEFB;}
	.st25{fill:#5AD3FE;}
	.st26{fill:#43C5FE;}
	.st27{fill:#2AB6FD;}
	.st28{fill:#749DF8;}
	.st29{fill:#8D9AF7;}
	.st30{fill:#7E99F6;}
	.st31{fill:#83A2FA;}
	.st32{fill:#A1BBFB;}
	.st33{fill:#719DF8;}
</style>
<path class="st0" d="M148.9,0.1c8.2,0,16.4,0,24.8,0.1c0.2,20,0.2,39.7,0.2,59.5c0,2.4,0,2.4,2.4,2.4c19,0,37.9,0,56.9,0
	c2.5,0,2.5,0,2.5-2.4c0-19.9,0-39.8,0-59.7c8.2,0,16.4,0,24.8,0.1c0.2,10.6,0.2,21,0.2,31.6c0,9.6,0,19,0,28.4
	c0,1.4,0.4,1.9,1.9,1.9c19.5,0,38.9,0,58.4,0c1.4,0,1.9-0.4,1.9-1.9c-0.1-9.5,0-19.1,0-28.8c0-10.6,0-21,0-31.4
	c8.1,0,16.1,0,24.4,0.1c0.2,10.4,0.2,20.5,0.2,30.9c0,9.7,0,19.1,0,28.6c0,2.5,0,2.5,2.4,2.5c19.9,0,39.8,0,59.7,0
	c0,8.1,0,16.1-0.1,24.4c-5,0.2-9.9,0.2-14.7,0.2c-15,0-30,0-44.9,0c-1.4,0-2.4,0.1-2.3,1.9c0.1,8.4,0.1,16.8,0.1,25.4
	c0,2,0,3.9-0.2,5.8c-8.2,0-16.3,0-24.4-0.2c0-10.3,0-20.4,0-30.5c0-2.4,0-2.4-2.4-2.4c-19.2,0-38.4,0-57.7,0c-1.8,0-2.1,0.6-2.1,2.3
	c0.1,10.3,0,20.6-0.2,30.9c-8.3,0-16.5,0-24.7-0.2c0-10.3-0.1-20.5,0-30.7c0-1.8-0.5-2.3-2.3-2.3c-19.1,0.1-38.2,0.1-57.3,0
	c-1.8,0-2.3,0.4-2.3,2.3c0.1,10.3,0,20.6-0.2,30.9c-8.3,0-16.5,0-24.7-0.2c0-10.4-0.1-20.6,0-30.9c0-1.7-0.5-2.1-2.1-2.1
	c-19.2,0.1-38.4,0-57.7,0c-2.4,0-2.4,0-2.4,2.4c0,10.2,0,20.5-0.2,30.7c-8.2,0-16.3,0-24.4-0.2c0-0.8,0-1.4,0-2.2
	c0-9.4,0-18.5,0-27.7c0-3,0-3-2.9-3c-19.7,0-39.4,0-59.2,0c0-8.1,0-16.1,0.1-24.4c20-0.2,39.7-0.2,59.5-0.2c2.4,0,2.4,0,2.4-2.4
	C62.1,39.9,61.9,20,61.8,0.1c8.3,0,16.6,0,25.1,0.1c0.1,2.4-0.2,4.5-0.2,6.7c0,17.6,0,35.2,0,52.8c0,2.5,0,2.5,2.4,2.5
	c19,0,38,0,57.1,0c2.7,0,2.7,0,2.7-2.6C148.9,39.8,148.9,19.9,148.9,0.1z"/>
<path class="st1" d="M62.2,119.9c8.1,0,16.1,0,24.4,0.2c0.2,9,0.2,17.9,0.1,26.8c0,1.6,0.4,2.1,2.1,2.1c19.3-0.1,38.7-0.1,58,0
	c1.6,0,2.1-0.5,2.1-2.1c-0.1-9,0-18,0-27c8.2,0,16.3,0,24.7,0.1c0.2,0.5,0.2,1,0.2,1.5c0,8.5,0,16.9,0,25.3c0,1.6,0.4,2.1,2.1,2.1
	c19.2-0.1,38.4-0.1,57.7,0c1.6,0,2.1-0.4,2.1-2.1c-0.1-8.5,0-17,0-25.6c0-0.6,0-1,0.1-1.4c8.2,0,16.3,0,24.7,0.2
	c0.2,9,0.2,17.9,0.2,26.8c0,1.6,0.4,2.1,2.1,2.1c19.3-0.1,38.7-0.1,58,0c1.6,0,2.1-0.4,2.1-2.1c-0.1-9,0-18,0-27
	c8.1,0,16.1,0,24.4,0.2c0.2,8.9,0.2,17.6,0.2,26.4c0,2.5,0,2.5,2.4,2.5c19.9,0,39.8,0,59.7,0c0,8.2,0,16.4-0.1,24.7
	c-12,0.2-23.7,0.2-35.5,0.2c-8.2,0-16.4,0-24.5,0c-1.1,0-1.9,0.1-1.9,1.5c0.1,9.3,0.1,18.6,0.1,28.1c0,3.8,0,7.4-0.2,11
	c-8.2,0-16.3,0-24.4-0.2c0-12.8,0-25.5,0-38.1c0-1.7-0.4-2.3-2.3-2.3c-19.2,0.1-38.4,0.1-57.6,0c-1.8,0-2.3,0.5-2.3,2.3
	c0.1,12.8,0,25.5-0.2,38.3c-8.3,0-16.5,0-24.7-0.2c0-2.9,0-5.6,0-8.5c0-10.1,0-20,0-29.9c0-1.4-0.3-2-1.8-2c-19.4,0-38.8,0-58.1,0
	c-1.5,0-1.9,0.5-1.9,1.9c0,10,0,20.1,0,30.3c0,2.9,0,5.6-0.2,8.4c-8.3,0-16.5,0-24.7-0.2c0-12.8-0.1-25.5,0-38.1
	c0-1.8-0.4-2.3-2.3-2.3c-19.2,0.1-38.4,0.1-57.6,0c-1.8,0-2.3,0.5-2.3,2.3c0.1,12.8,0,25.5-0.2,38.3c-8.2,0-16.3,0-24.4-0.2
	c0-3.3,0-6.4,0-9.7c0-9.6,0-19,0.1-28.4c0-2-0.6-2.3-2.4-2.3c-19.9,0.1-39.8,0-59.7,0c0-8.2,0-16.4,0.1-24.7
	c20-0.2,39.9-0.2,59.7-0.1c1.8,0,2.3-0.5,2.3-2.3C62.1,137.7,62.2,128.8,62.2,119.9z"/>
<path class="st2" d="M148.9,214.3c8.2,0,16.3,0,24.7,0.2c0.2,6.4,0.3,12.7,0.2,18.9c0,1.8,0.6,2.2,2.2,2.2c19.1-0.1,38.3-0.1,57.4,0
	c1.9,0,2.3-0.6,2.2-2.3c-0.1-6.3,0-12.6,0-18.9c8.2,0,16.3,0,24.7,0.2c0.2,6.5,0.2,12.8,0.2,19.1c0,1.4,0.3,1.9,1.9,1.9
	c19.5,0,38.9,0,58.4,0c1.5,0,1.9-0.4,1.9-1.9c-0.1-6.4,0-12.9,0-19.3c8.1,0,16.1,0,24.4,0.2c0.2,6.3,0.2,12.4,0.2,18.6
	c0,2.5,0,2.5,2.4,2.5c9.2,0,18.5,0,27.7,0.2c-0.7,0.9-1.4,1.8-2.1,2.5c-3.8,3.7-7.7,7.4-11.4,11.1c-3.3,3.2-6.5,6.5-9.7,9.7
	c-0.4,0.4-0.6,0.9-1.1,1.4c-1.6,0-3,0.1-4.4,0c-1,0-1.3,0.4-1.3,1.3c0,1.4,0,2.8-0.2,4.3c-3.8,3.2-7.4,6.4-11.1,9.5
	c-1,0.8-2.4,1.6-3.6,1.6c-3.1,0-5.2,1.5-7.3,3.4c-0.7,0.7-1.6,1.3-2.4,1.7c0-6.6-0.1-13.1,0-19.5c0-1.8-0.4-2.3-2.3-2.3
	c-19.2,0.1-38.4,0.1-57.6,0c-1.8,0-2.3,0.5-2.3,2.3c0.1,13.1,0,26.3-0.2,39.4c-8.3,0-16.5,0-24.6-0.2c0-3.4,0-6.6-0.1-10
	c0-10,0-19.7,0-29.5c0-1.2-0.1-2-1.6-1.9c-19.5,0-39,0-58.5,0c-1.3,0-1.7,0.5-1.7,1.7c0,10,0,19.9,0,30.1c0,3.4-0.1,6.6-0.2,9.9
	c-8.3,0-16.5,0-24.6-0.2c0-13.2-0.1-26.2,0-39.2c0-1.8-0.4-2.3-2.3-2.3c-19.2,0.1-38.4,0.1-57.6,0c-1.8,0-2.3,0.5-2.3,2.3
	c0.1,13.1,0,26.3-0.2,39.4c-8.2,0-16.3,0-24.4-0.2c0-4-0.1-7.9-0.1-11.9c0-9.2,0-18.1,0-27.1c0-2.5,0-2.5-2.6-2.5
	c-19.8,0-39.7,0-59.5,0c0-8.2,0-16.4,0.1-24.7c20-0.2,39.9-0.2,59.7-0.1c1.8,0,2.3-0.5,2.3-2.3c-0.1-6.3,0-12.6,0-19
	c8.1,0,16.1,0,24.4,0.2c0.2,6.4,0.2,12.7,0.2,18.9c0,1.5,0.3,2.2,2,2.2c19.4-0.1,38.7-0.1,58.1,0c1.7,0,2.1-0.6,2-2.1
	C148.8,227.1,148.9,220.7,148.9,214.3z"/>
<path class="st3" d="M62.2,302.2c8.1,0,16.1,0,24.4,0.2c0.2,6.1,0.2,12.1,0.2,18c0,1.6,0.4,2.3,2.2,2.3c19.4-0.1,38.8-0.1,58.1,0
	c1.5,0,1.9-0.5,1.9-1.9c-0.1-6.2,0-12.4,0-18.6c8.2,0,16.3,0,24.7,0.2c0.2,6.2,0.3,12.2,0.2,18.2c0,1.6,0.3,2.1,2,2.1
	c19.3-0.1,38.5-0.1,57.8,0c1.7,0,2.1-0.5,2.1-2.1c-0.1-6.1,0-12.3,0-18.4c8.2,0,16.3,0,24.6,0.2c0.2,6.2,0.2,12.3,0.2,18.3
	c0,1.6,0.5,2,2,2c8.3-0.1,16.7,0,25,0c0.7,0,1.3-0.2,2.2-0.3c1.9,0.1,3.7,0.2,5.4,0.4c-5.6,5.6-11.2,11.1-16.8,16.6
	c-0.8,0.8-1.7,1.4-2.5,2.2c-1.8,1.9-3.5,3.8-5.4,5.7c-2.8,0-5.5,0.1-8.1,0c-1.3,0-1.9,0.3-1.7,1.7c0.1,0.4,0,0.9-0.2,1.3
	c-0.3,0.1-0.5,0.1-0.6,0.3c-6.1,5.5-12.2,11-18.1,16.7c-1.8,1.7-3.4,2.8-5.9,2.2c0-6.9-0.1-13.6-0.1-20.3c0-1.3-0.3-1.9-1.7-1.9
	c-19.5,0-38.9,0-58.4,0c-1.3,0-1.7,0.3-1.7,1.7c0.1,9.1,0,18.2,0,27.5c0,11.1,0,22-0.1,32.9c-8.2,0-16.3,0-24.6-0.1
	c-0.2-20-0.2-39.8-0.2-59.7c0-1.8-0.5-2.3-2.3-2.2c-19.1,0.1-38.2,0-57.2,0c-2.6,0-2.6,0-2.6,2.6c0,19.8,0,39.7,0,59.5
	c-8.1,0-16.1,0-24.4-0.1c-0.2-10.8-0.2-21.5-0.2-32.3c0-9.2,0-18.3,0.1-27.3c0-1.9-0.6-2.3-2.4-2.3c-19.9,0.1-39.8,0-59.7,0
	c0-8.1,0-16.2,0.1-24.4c20.1-0.2,40-0.2,59.8-0.1c1.6,0,2.1-0.4,2.1-2.1C62.1,314.4,62.2,308.3,62.2,302.2z"/>
<path class="st4" d="M86.9,409.3c-0.2-19.9-0.1-39.7-0.1-59.5c0-2.5,0-2.6,2.6-2.6c19.1,0,38.2,0,57.2,0c1.8,0,2.3,0.4,2.3,2.2
	c-0.1,19.8,0,39.7,0,59.6c-6.9,0.2-13.7,0.2-20.6,0.2C114.6,409.3,100.8,409.3,86.9,409.3z"/>
<path class="st5" d="M148.7,0.1c0.2,19.9,0.2,39.7,0.2,59.5c0,2.6,0,2.6-2.7,2.6c-19,0-38,0-57.1,0c-2.4,0-2.4,0-2.4-2.5
	c0-17.6,0-35.2,0-52.8c0-2.2,0.2-4.3,0.3-6.6c4.6-0.2,9.3-0.2,13.9-0.2C116.8,0,132.7,0.1,148.7,0.1z"/>
<path class="st5" d="M235.4,0.1c0.2,19.9,0.2,39.8,0.2,59.7c0,2.4,0,2.4-2.5,2.4c-19,0-37.9,0-56.9,0c-2.4,0-2.4,0-2.4-2.4
	c0-19.8,0-39.5,0-59.5c5.9-0.2,11.7-0.2,17.6-0.2C206,0,220.6,0.1,235.4,0.1z"/>
<path class="st5" d="M61.6,0.1c0.3,19.9,0.4,39.8,0.5,59.7c0,2.4,0,2.4-2.4,2.4c-19.8,0-39.5,0-59.5,0C0.1,52,0.1,41.7,0,31.5
	c0-6.6,0.1-13.1,0-19.7C-0.2,5.7,5.7-0.1,11.8,0C28.4,0.1,44.9,0.1,61.6,0.1z"/>
<path class="st6" d="M439.1,211c2.7,0.1,5,1.2,6.8,3c7.7,7.6,15.4,15.3,23,23c7.8,7.8,15.6,15.6,23.5,23.4c5.3,5.3,5.2,13.5,0,18.7
	c-4.8,4.8-9.8,9.6-14.7,14.4c-4,3.9-8,7.7-12,11.6c-4.3,4.2-8.6,8.4-12.9,12.5c-1.1,1.1-2.3,2-3.6,3c-0.2-3.4-0.1-6.7-0.1-10
	c0-27.7,0-55.4,0-83.1c0-0.8-0.5-1.8-1-2.4c-1.8-2-3.7-4-5.8-5.8c-0.9-0.8-2.1-1.1-3.2-1.7c0-0.1,0-0.3,0-0.4
	C439.1,215,439.1,213,439.1,211z"/>
<path class="st6" d="M316.7,449.1c-4.1,4-8.2,8-12.3,12c-7.1,7-14.3,14-21.4,21c-1.7,1.6-3.3,3.3-5.1,4.8
	c-4.1,3.5-11.6,4.1-15.8,0.3c-6.1-5.5-11.8-11.4-17.7-17.2c-10.3-10.2-20.5-20.5-30.6-30.9c2.9-0.1,5.6-0.2,8.5-0.2
	c0.4,0,0.7,0,1,0.2c3,3.2,6,6.4,9.1,9.4c0.4,0.4,1.3,0.5,1.9,0.5c24.7,0,49.5,0,74.4,0C311.4,449.1,314.1,449.1,316.7,449.1z"/>
<path class="st7" d="M409.3,148.7c-19.9,0.2-39.8,0.2-59.7,0.2c-2.4,0-2.4,0-2.4-2.5c0-8.7,0-17.5,0-26.4c0-2,0-3.9,0.2-5.9
	c20.7-0.2,41.3-0.2,61.9-0.2C409.3,125.4,409.3,137,409.3,148.7z"/>
<path class="st8" d="M409.3,62c-19.9,0.2-39.8,0.2-59.7,0.2c-2.4,0-2.4,0-2.4-2.5c0-9.5,0-19,0.2-28.6c2.2-2.4,4.8-1.6,7.3-1.6
	c18.2,0,36.4,0,54.6,0C409.3,40.2,409.3,51,409.3,62z"/>
<path class="st9" d="M62.2,302c0,6.3-0.1,12.4,0,18.6c0,1.7-0.5,2.1-2.1,2.1c-19.9-0.1-39.8,0-59.8,0c-0.2-10.7-0.2-21.3,0-32.2
	c20.7-0.2,41.3-0.2,61.8-0.2C62.1,294.1,62.1,298,62.2,302z"/>
<path class="st10" d="M62.1,377c0,10.7,0.1,21.3,0.1,32.1c-10.3,0.2-20.7,0.2-31,0.2c-6.4,0-12.9-0.1-19.3,0
	c-6.1,0.2-12-5.7-11.8-11.8c0.2-6.7,0-13.5,0.2-20.4C21,376.9,41.5,376.9,62.1,377z"/>
<path class="st11" d="M322.4,0.1c0.2,10.4,0.2,20.8,0,31.4c-20.8,0.2-41.3,0.2-61.9,0.2c0-10.4,0-20.8,0-31.4c7-0.2,14-0.2,21-0.2
	C295,0,308.7,0.1,322.4,0.1z"/>
<path class="st7" d="M62.2,119.7c0,9.1-0.1,18,0,26.9c0,1.8-0.5,2.3-2.3,2.3c-19.8-0.1-39.7,0-59.7,0c-0.2-10.3-0.2-20.6,0-31.1
	c20.8-0.2,41.3-0.2,61.9-0.2C62.1,118.3,62.2,118.9,62.2,119.7z"/>
<path class="st12" d="M62.2,214.2c0,6.5-0.1,12.8,0,19.1c0,1.8-0.5,2.3-2.3,2.3c-19.8-0.1-39.7,0-59.6,0c-0.2-10.2-0.2-20.4,0-30.7
	c20.8-0.2,41.3-0.2,61.9-0.2C62.1,207.8,62.1,210.9,62.2,214.2z"/>
<path class="st13" d="M62.1,204.5c-20.6,0.2-41.1,0.2-61.9,0.2c-0.2-10.2-0.2-20.4-0.2-30.7c19.9-0.2,39.8-0.1,59.7-0.2
	c1.8,0,2.5,0.4,2.4,2.3C62.1,185.5,62.2,194.9,62.1,204.5z"/>
<path class="st14" d="M62.1,117.5c-20.6,0.2-41.1,0.2-61.9,0.2c-0.2-10.2-0.2-20.4-0.2-30.7c19.7-0.2,39.5-0.2,59.2-0.2
	c2.9,0,2.9,0,2.9,3C62.2,98.9,62.2,108.1,62.1,117.5z"/>
<path class="st15" d="M62.1,290.1c-20.6,0.2-41.1,0.2-61.8,0.2c-0.2-9.8-0.2-19.6-0.2-29.6c19.9-0.2,39.7-0.2,59.5-0.2
	c2.6,0,2.6,0,2.6,2.5C62.1,271.9,62.1,280.9,62.1,290.1z"/>
<path class="st16" d="M62.1,376.8c-20.6,0.2-41.1,0.2-61.8,0.2c-0.2-9.8-0.2-19.6-0.2-29.6c19.9-0.2,39.8-0.2,59.7-0.2
	c1.7,0,2.4,0.4,2.4,2.3C62.1,358.5,62.1,367.6,62.1,376.8z"/>
<path class="st10" d="M173.9,409.3c-0.2-10.9-0.1-21.8,0.1-32.9c16.3-0.2,32.4-0.2,48.5-0.2c1.2,0,2.5,0.1,3.4-0.5
	c2.4-1.6,5.1-1.8,7.8-1.7c0.6,0,1.2-0.2,1.8-0.2c0,2.2,0,4.1,0,6.3c0.1,2.4,0.2,4.7,0.2,7.1c-0.1,0.5-0.2,0.9-0.4,1.4
	c-0.3,0.1-0.5,0.1-0.6,0.2c-6.7,6.5-13.5,12.9-20.2,19.4c-0.3,0.3-0.4,0.7-0.6,1.1C200.7,409.3,187.4,409.3,173.9,409.3z"/>
<path class="st13" d="M347.2,203.2c0-9.3,0-18.6-0.1-27.9c0-1.5,0.8-1.5,1.9-1.5c8.2,0,16.4,0,24.5,0c11.8,0,23.5,0,35.5,0
	c0.2,8.3,0.2,16.6,0.1,25.2c-0.7,0.5-1.3,0.7-1.7,1.1c-2.4,2.1-5.1,3.1-8.3,3.1C381.8,203.2,364.5,203.2,347.2,203.2z"/>
<path class="st11" d="M409.3,29.3c-18.2,0.2-36.4,0.2-54.6,0.2c-2.5,0-5.1-0.7-7.3,1.5c-0.1-10.2-0.2-20.3-0.2-30.7
	c10.6-0.2,21.2-0.2,31.8-0.2c6.2,0,12.4,0.1,18.6,0c6.1-0.1,11.8,5.4,11.7,11.8C409.2,17.6,409.3,23.3,409.3,29.3z"/>
<path class="st3" d="M409.3,113.7c-20.6,0.2-41.1,0.2-61.9,0.2c-0.2-8.4-0.2-16.8-0.2-25.2c0-1.8,1-1.9,2.3-1.9c15,0,30,0,44.9,0
	c4.8,0,9.7,0,14.7,0C409.3,95.7,409.3,104.6,409.3,113.7z"/>
<path class="st12" d="M347.2,203.4c17.3-0.2,34.6-0.2,51.9-0.2c3.2,0,5.9-1,8.3-3.1c0.4-0.4,1-0.6,1.7-1c0.1,4.5,0.2,8.9,0,13.6
	c-2.1,1.9-4,3.7-6,5.3c-0.9,0.7-2,1.5-3,1.5c-3.8,0.1-6.6,2-9.3,4.2c-3,2.5-5.9,5.2-8.7,8c-1.2,1.2-2.2,2.6-3.5,3.9
	c-0.6,0-1,0-1.4,0.1c-9.2,0-18.5,0-27.7,0c-2.4,0-2.4,0-2.4-2.5c0-6.1,0-12.3,0-18.6C347.2,210.7,347.2,207.1,347.2,203.4z"/>
<path class="st17" d="M439.1,217.7c1.1,0.5,2.3,0.8,3.2,1.6c2,1.8,3.9,3.8,5.8,5.8c0.6,0.6,1,1.6,1,2.4c0.1,27.7,0,55.4,0,83.1
	c0,3.3-0.1,6.6-0.1,10.1c-5.7,5.8-11.5,11.6-17.3,17.3c-0.7,0.7-1.4,1.4-2.3,2c-0.3-2.7-0.4-5.4-0.4-8.2c0.1-0.4,0.3-0.7,0.5-1
	c2.7-2.5,5.2-5,7.9-7.4c1.3-1.1,1.7-2.4,1.7-4.1C439.1,285.4,439.1,251.6,439.1,217.7z"/>
<path class="st18" d="M409.2,219.6c0,4.2,0,8.5,0,13c-2.3,2.5-4.5,4.8-6.9,7.1c-4.6,4.5-9.1,8.9-13.8,13.4c-3.3,3.1-6.4,6.2-9.6,9.2
	c-2.1,2-4.2,4-6.3,6.1c-6.5,6.3-12.9,12.6-19.5,19c-4.8,4.6-9.4,9.1-14.2,13.8c-2.7,2.5-5.2,4.9-7.8,7.4c-2.9,2.8-5.8,5.5-8.8,8.1
	c0-2.3,0-4.5,0.1-6.7c6.7-6.4,13.2-12.9,20-19c3.5-3.1,5.3-6.5,4.4-11.2c0-0.4,0-0.7,0.2-1c0.7-0.4,1.4-0.7,1.9-1.2
	c3.7-3.6,7.5-7.1,11.2-10.8c2-2,3.8-4.1,5.8-6.2c0.4,0,0.7-0.1,1.1-0.1c1.8,0,3.5,0.1,5.2,0c0.7,0,1.5-0.3,2-0.8
	c3.4-3.2,6.7-6.4,10-9.6c1.3-1.3,2.6-2.6,4-3.9c3.4-3.3,6.7-6.6,10-9.9c0.1-0.1,0.1-0.3,0.1-0.7c-2.1,0-4.1,0-6.1-0.1
	c5.3-5.2,10.5-10.3,15.7-15.4C408.5,219.8,408.9,219.7,409.2,219.6z"/>
<path class="st19" d="M409.7,359.1c-0.1,0.1-0.1,0.2-0.4,0.4c-3.8,3.5-7.4,6.9-10.9,10.4c-11.4,11-22.8,22-34.2,33.1
	c-2.1,2.1-4.1,4.2-6.2,6.3c-4.9,4.8-9.8,9.7-14.7,14.5c-1.9,1.9-3.9,3.7-6.1,5.5c-3-0.1-5.8-0.2-8.5-0.4c0.6-0.6,1.1-1.2,1.6-1.7
	c2.7-2.6,5.4-5.2,8.1-7.9c3.5-3.4,6.9-6.7,10.4-10c6.8-6.4,13.4-12.8,20-19.2c4.2-4,8.4-8.1,12.5-12.1c7.5-7.3,14.9-14.7,22.4-22
	c1.9-1.8,3.7-3.6,5.6-5.2c0,1.2-0.1,2.3,0,3.3C409.4,355.7,409.6,357.4,409.7,359.1z"/>
<path class="st10" d="M409.2,373.6c0,8.4,0.2,16.8,0,25.3c-0.1,4.2-3.3,8.1-7.5,9.7c-1.4,0.5-3.1,0.8-4.6,0.8c-8,0.1-16,0-24.1-0.1
	c0.3-0.7,0.7-1.2,1.1-1.7c2.7-2.6,5.4-5.1,8-7.7c8.5-8.4,17-16.8,25.5-25.1C408.2,374.2,408.7,373.9,409.2,373.6z"/>
<path class="st20" d="M409.3,373.4c-0.5,0.5-1.1,0.8-1.5,1.2c-8.5,8.4-17,16.8-25.5,25.1c-2.6,2.6-5.4,5.1-8,7.7
	c-0.5,0.5-0.9,1-1.3,1.7c-4.9,0.1-9.7,0.2-14.7,0.2c1.9-2.1,3.9-4.3,6-6.3c11.4-11,22.8-22.1,34.2-33.1c3.6-3.4,7.1-6.9,10.8-10.3
	C409.3,364.1,409.3,368.7,409.3,373.4z"/>
<path class="st15" d="M409.3,219.4c-0.3,0.3-0.7,0.4-1,0.7c-5.2,5.1-10.4,10.2-15.8,15.4c-0.4,0.1-0.5,0.1-0.9,0.1
	c-2.4,0-4.6,0-7.1,0c-2,0-3.9,0-5.8,0c1.1-1.3,2.1-2.7,3.3-3.9c2.8-2.7,5.7-5.4,8.7-8c2.7-2.2,5.6-4.1,9.3-4.2c1,0,2.1-0.8,3-1.5
	c2-1.6,3.9-3.4,5.9-5.1C409.2,215,409.3,217.1,409.3,219.4z"/>
<path class="st20" d="M214.1,409.3c0-0.4,0.2-0.8,0.5-1.1c6.7-6.5,13.5-13,20.2-19.4c0.1-0.1,0.3-0.2,0.6-0.1
	c0.1,1.9,0.1,3.6,0.1,5.6c0,2.4,0,4.7,0,7.1c-2.7,2.7-5.3,5.3-8,8c-0.2,0.1-0.4,0.1-0.5,0.1C222.8,409.4,218.5,409.3,214.1,409.3z"
	/>
<path class="st21" d="M409.8,359c-0.2-1.6-0.4-3.3-0.5-5c-0.1-1,0-2.1,0-3.3c0-0.2,0-0.2,0.1-0.2c2.8-2.6,5.5-5.1,8.2-7.7
	c0.7-0.7,1.2-1.5,1.9-2.3c2.7-2.5,5.2-4.9,7.7-7.3c0.5-0.5,1.2-0.8,1.8-1.2c0.1,2.6,0.2,5.3,0.3,8.1c-4.7,4.7-9.5,9.3-14.3,13.9
	C413.3,355.6,411.6,357.3,409.8,359z"/>
<path class="st22" d="M227,409.5c0.2-0.1,0.3-0.2,0.8-0.2c1,0,1.7,0,2.5,0c1.9,0.1,3.8,0.2,5.7,0.5c-3.3,3.3-6.4,6.4-9.7,9.6
	c-1.8,1.7-3.6,3.3-5.3,5.1c-1.3,1.4-2.4,3-3.6,4.6c0,0,0,0-0.2,0c-2.2,0-4.2,0-6.2,0c0.1-2.7,1.2-4.9,3-6.8c3.2-3.4,6.6-6.7,9.9-10
	C224.8,411.3,225.9,410.5,227,409.5z"/>
<path class="st23" d="M439,210.8c0.1,2.1,0.1,4.2-0.1,6.3c-3.2-0.2-5.5,0.7-7.4,3.1c-0.8,1-1.9,1.8-2.9,2.7c-3,2.9-5.9,5.7-8.9,8.4
	c-0.2-1.5-0.2-2.9-0.3-4.3c-0.1-1.3-0.3-2.5-0.4-3.7c3.7-3.5,7.2-7.1,11.1-10.4C432.5,210.8,435.7,210.4,439,210.8z"/>
<path class="st22" d="M418.8,223.3c0.3,1.2,0.4,2.4,0.5,3.7c0.1,1.4,0.1,2.8,0.2,4.4c-2.3,2.5-4.7,4.7-7,7c-1.8,1.8-3.6,3.5-5.6,5.2
	c-1.6-1.4-3-2.7-4.4-4.1c2.2-2.3,4.5-4.5,6.8-6.9C412.5,229.5,415.6,226.4,418.8,223.3z"/>
<path class="st17" d="M316.8,449.1c-2.7,0-5.4,0-8.2-0.1c2.4-2.7,4.9-5.4,7.4-8c0.5-0.6,0.9-1.3,1.5-1.9c0.4,0,0.7,0,1.1,0
	c2.9,0,5.7,0,8.4,0C323.7,442.4,320.3,445.7,316.8,449.1z"/>
<path class="st23" d="M327.2,439c-2.9,0-5.6,0-8.5-0.1c0.3-0.7,0.7-1.3,1.3-1.8c2.7-2.7,5.5-5.4,8.3-8.1c0.1,0,0.3,0,0.3,0
	c2.8,0.1,5.6,0.1,8.5,0.3C333.9,432.6,330.6,435.8,327.2,439z"/>
<path class="st24" d="M210.8,429.1c2.1-0.1,4.1-0.1,6.3,0.1c-0.3,3.3,0.9,5.6,3.2,7.6c0.7,0.6,1.2,1.5,1.8,2.2c-2.7,0-5.5,0-8.4,0
	C211.3,436.2,210.4,432.9,210.8,429.1z"/>
<path class="st25" d="M148.9,119.7c0,9.2,0,18.2,0,27.1c0,1.6-0.4,2.1-2.1,2.1c-19.3-0.1-38.7-0.1-58,0c-1.7,0-2.1-0.5-2.1-2.1
	c0.1-8.9,0-17.7,0-26.8c0-10.4,0-20.6,0-30.9c0-2.4,0-2.4,2.4-2.4c19.2,0,38.4,0,57.7,0c1.6,0,2.1,0.4,2.1,2.1
	C148.8,99,148.9,109.3,148.9,119.7z"/>
<path class="st25" d="M322.6,119.7c0,9.2,0,18.2,0,27.1c0,1.6-0.5,2.1-2.1,2.1c-19.3-0.1-38.7-0.1-58,0c-1.7,0-2.1-0.5-2.1-2.1
	c0.1-8.9,0-17.7,0-26.8c0-10.5,0-20.8,0-31.1c0-1.6,0.3-2.3,2.1-2.3c19.2,0.1,38.4,0,57.7,0c2.3,0,2.4,0,2.4,2.4
	C322.6,99.3,322.6,109.4,322.6,119.7z"/>
<path class="st14" d="M235.6,119.7c0,0.6,0,1-0.2,1.5c-20.6,0.2-41.1,0.2-61.6,0.2c0-0.4,0-0.8,0-1.4c0-10.4,0.1-20.7,0-31
	c0-1.8,0.6-2.3,2.3-2.3c19.1,0.1,38.2,0.1,57.3,0c1.8,0,2.3,0.5,2.3,2.3C235.5,99.2,235.6,109.3,235.6,119.7z"/>
<path class="st8" d="M260.5,31.9c20.6-0.2,41.2-0.2,61.9-0.2c0.2,9.5,0.2,19.1,0.2,28.6c0,1.5-0.5,1.9-1.9,1.9
	c-19.5,0-38.9,0-58.4,0c-1.5,0-1.9-0.5-1.9-1.9C260.5,50.9,260.5,41.4,260.5,31.9z"/>
<path class="st26" d="M322.6,214.2c0,6.6,0,13.1,0,19.5c0,1.5-0.4,1.9-1.9,1.9c-19.5,0-38.9,0-58.4,0c-1.5,0-1.9-0.5-1.9-1.9
	c0.1-6.3,0-12.6,0-19.1c0-12.9,0-25.7,0-38.5c0-1.8,0.5-2.3,2.3-2.3c19.2,0.1,38.4,0.1,57.6,0c1.8,0,2.3,0.6,2.3,2.3
	C322.6,188.7,322.6,201.4,322.6,214.2z"/>
<path class="st26" d="M148.9,214.2c0,6.5-0.1,12.9,0,19.3c0,1.6-0.3,2.2-2,2.1c-19.4-0.1-38.7-0.1-58.1,0c-1.7,0-2-0.6-2-2.2
	c0.1-6.3,0-12.5,0-18.9c0-12.9,0-25.7,0-38.5c0-1.8,0.5-2.3,2.3-2.3c19.2,0.1,38.4,0.1,57.6,0c1.8,0,2.3,0.6,2.3,2.3
	C148.8,188.7,148.9,201.3,148.9,214.2z"/>
<path class="st13" d="M173.8,205.8c0-10,0-20.1,0-30.1c0-1.4,0.3-1.9,1.9-1.9c19.4,0,38.8,0,58.1,0c1.6,0,1.8,0.6,1.8,2
	c0,9.9,0,19.8-0.2,29.9C214.7,205.8,194.3,205.8,173.8,205.8z"/>
<path class="st12" d="M173.8,206c20.5-0.2,41-0.2,61.6-0.2c0.2,2.7,0.2,5.5,0.2,8.4c0,6.5-0.1,12.8,0,19.1c0,1.7-0.4,2.3-2.2,2.3
	c-19.1-0.1-38.3-0.1-57.4,0c-1.7,0-2.3-0.4-2.2-2.2c0.1-6.3,0-12.5,0-18.9C173.7,211.6,173.8,208.9,173.8,206z"/>
<path class="st7" d="M173.8,121.5c20.5-0.2,40.9-0.2,61.6-0.2c0.2,8.5,0.1,17,0.2,25.5c0,1.7-0.5,2.1-2.1,2.1
	c-19.2-0.1-38.4-0.1-57.7,0c-1.7,0-2.1-0.5-2.1-2.1C173.8,138.4,173.8,130.1,173.8,121.5z"/>
<path class="st27" d="M148.9,302c0,6.4-0.1,12.6,0,18.7c0,1.4-0.4,1.9-1.9,1.9c-19.4,0-38.8-0.1-58.1,0c-1.8,0-2.2-0.7-2.2-2.3
	c0.1-5.9,0-11.9,0-18c0-13.3,0-26.5,0-39.6c0-1.8,0.5-2.3,2.3-2.3c19.2,0.1,38.4,0.1,57.6,0c1.8,0,2.3,0.5,2.3,2.3
	C148.8,275.8,148.9,288.8,148.9,302z"/>
<path class="st27" d="M289.5,322.3c-0.7,0.1-1.3,0.3-2,0.3c-8.3,0-16.7,0-25,0c-1.5,0-2-0.4-2-2c0.1-6.1,0-12.1,0-18.3
	c0-13.3,0.1-26.5,0-39.6c0-1.8,0.5-2.3,2.3-2.3c19.2,0.1,38.4,0.1,57.6,0c1.8,0,2.3,0.5,2.3,2.3c-0.1,6.4,0,12.9,0,19.7
	c0,4.8,0,9.3,0,13.9c-0.1,0.4-0.2,0.7-0.5,1c-0.6,0.3-1.2,0.4-1.6,0.8c-6,5.5-12,11-18,16.4c-0.9,0.8-2.3,1.4-3.4,1.3
	C294.3,315.8,292.1,319.3,289.5,322.3z"/>
<path class="st15" d="M173.8,292.1c0-10,0-19.9,0-29.9c0-1.3,0.3-1.7,1.7-1.7c19.5,0,39,0,58.5,0c1.6,0,1.6,0.7,1.6,1.9
	c0,9.8,0,19.6-0.2,29.5C214.7,292.1,194.3,292.1,173.8,292.1z"/>
<path class="st9" d="M173.8,292.3c20.5-0.2,41-0.2,61.6-0.2c0.2,3.2,0.2,6.5,0.2,9.9c0,6.3-0.1,12.4,0,18.6c0,1.6-0.4,2.1-2.1,2.1
	c-19.3-0.1-38.5-0.1-57.8,0c-1.7,0-2.1-0.6-2-2.1c0.1-6,0-12,0-18.2C173.7,298.9,173.7,295.7,173.8,292.3z"/>
<path class="st3" d="M322.6,296.2c0-4.5,0-8.9,0-13.6c0.8-0.8,1.7-1.4,2.4-2.1c2.1-1.9,4.2-3.4,7.3-3.4c1.2,0,2.6-0.8,3.6-1.6
	c3.7-3.1,7.3-6.3,11.1-9.3c0.1,2.4,0.1,4.6,0,6.9c-1.1,0.8-2.2,1.5-3.2,2.4c-6.8,6.6-13.5,13.2-20.2,19.8
	C323.3,295.7,323,295.9,322.6,296.2z"/>
<path class="st9" d="M347.1,273.1c0-2.2,0-4.5,0-6.9c0-1.6,0-3,0-4.4c0-0.9,0.4-1.3,1.3-1.3c1.4,0,2.8,0,4.6,0c2.6,0,4.8,0,7.2,0
	c2,0,3.9,0,5.8,0.1c-1.9,2.1-3.7,4.2-5.7,6.2c-3.7,3.7-7.4,7.2-11.2,10.8c-0.5,0.5-1.2,0.8-1.9,1
	C347.2,276.6,347.2,274.9,347.1,273.1z"/>
<path class="st3" d="M360.2,260.4c-2.2,0-4.5,0-6.9,0c0.1-0.5,0.3-1,0.7-1.4c3.2-3.3,6.4-6.5,9.7-9.7c3.8-3.7,7.6-7.4,11.4-11.1
	c0.8-0.7,1.4-1.6,2.1-2.5c0.4-0.1,0.8-0.2,1.4-0.2c2,0,3.9,0,5.9,0.1c-1.5,1.8-3.2,3.5-4.9,5.2c-6,5.9-12.1,11.8-18.1,17.8
	C361,259.2,360.6,259.8,360.2,260.4z"/>
<path class="st16" d="M235.6,373.6c-0.6,0.1-1.2,0.4-1.8,0.3c-2.8-0.1-5.4,0.1-7.8,1.7c-0.9,0.6-2.3,0.5-3.4,0.5
	c-16.1,0-32.2,0-48.5,0c-0.2-9.1-0.2-18.2-0.2-27.3c0-1.3,0.5-1.7,1.7-1.7c19.5,0,38.9,0,58.4,0c1.5,0,1.7,0.6,1.7,1.9
	c0,6.7,0,13.4,0,20.4C235.6,371.1,235.6,372.3,235.6,373.6z"/>
<path class="st16" d="M289.6,322.3c2.5-3,4.7-6.5,9.5-6.4c1.1,0,2.6-0.6,3.4-1.3c6.1-5.4,12-11,18-16.4c0.4-0.4,0.9-0.5,1.6-0.6
	c0.2,1.9,0.4,3.7,0.5,5.6c0,2.4,0,4.6,0,6.9c0,2.1,0,4.3,0,6.7c-2,2.2-4,4-6.1,5.9c-2.4,0-4.7,0-7.1,0c-2.4,0-4.6,0-7,0
	c-2.5,0-4.9,0-7.3,0C293.3,322.5,291.6,322.4,289.6,322.3z"/>
<path class="st7" d="M235.6,373.8c0-1.4,0-2.7,0.1-4.1c2.5,0.2,4.2-0.8,5.9-2.5c5.9-5.7,12.1-11.2,18.1-16.7
	c0.1-0.1,0.3-0.2,0.6-0.1c0.1,2.3,0.1,4.4,0,6.5c-0.5,0.3-0.9,0.6-1.3,0.9c-6.5,6.3-12.9,12.7-19.4,19c-1.2,1.2-2.7,2.1-4,3.2
	C235.6,377.9,235.6,375.9,235.6,373.8z"/>
<path class="st26" d="M295,322.7c2.4-0.1,4.8-0.1,7.3,0c-1.5,1.7-3.2,3.2-4.8,4.8c-6.1,6-12.3,12-18.4,18c-0.5,0.5-0.8,1.1-1.3,1.6
	c-0.4,0-0.7,0.1-1.1,0.1c-2.2,0-4.2-0.1-6.2-0.1c1.7-1.9,3.4-3.8,5.2-5.7c0.8-0.8,1.7-1.4,2.5-2.2
	C283.8,333.8,289.4,328.3,295,322.7z"/>
<path class="st16" d="M270.3,347.1c2.2,0,4.2,0,6.3,0.2c-0.1,0.5-0.3,0.9-0.6,1.2c-4.3,4.2-8.6,8.4-13,12.6
	c-0.7,0.7-1.7,1.1-2.6,1.5c0-2.1,0-3.9-0.1-5.8c0-2.1,0-4.2,0-6.5c0-0.6,0.1-1,0-1.5c-0.2-1.3,0.5-1.7,1.7-1.7
	C264.8,347.2,267.5,347.2,270.3,347.1z"/>
<path class="st21" d="M428.6,222.9c0.9-0.9,2-1.7,2.8-2.6c1.9-2.4,4.3-3.3,7.4-2.9c0.2,0,0.2,0.2,0.2,0.3c0,34,0,67.8,0,101.7
	c0,1.7-0.4,2.9-1.7,4.1c-2.7,2.4-5.2,4.9-8,7.3c-0.3-0.9-0.4-1.7-0.4-2.5c0-17.8,0-35.6,0-53.4c0-0.8-0.2-1.5-0.3-2.5
	c0.1-1.8,0.2-3.4,0.3-5.2c0-14.1,0-28,0-42C429,224.3,428.8,223.6,428.6,222.9z"/>
<path class="st19" d="M222.3,439c-0.7-0.8-1.2-1.7-1.9-2.3c-2.4-1.9-3.5-4.3-3.1-7.6c0-0.2,0-0.2,0.2-0.2c37,0,73.9,0,110.7,0
	c-2.8,2.7-5.5,5.4-8.3,8.1c-0.5,0.5-0.9,1.1-1.4,1.8c-0.3,0.1-0.6,0.1-1.2,0.1c-5.2,0-10.1,0-15,0c-26.4,0-52.8,0-79.1,0
	C223,439.1,222.7,439.1,222.3,439z"/>
<path class="st23" d="M223.3,439.2c26.4-0.1,52.7-0.1,79.1-0.2c4.9,0,9.8,0,14.8,0c-0.3,0.6-0.7,1.3-1.2,1.9c-2.5,2.6-5,5.2-7.5,8
	c-24.8,0.1-49.5,0.1-74.2,0.1c-0.6,0-1.5-0.1-1.9-0.5C229.3,445.6,226.3,442.5,223.3,439.2z"/>
<path class="st12" d="M260.3,356.8c0.1,1.9,0.2,3.7,0.2,5.9c0,0.6,0,0.9-0.2,1.2c-0.5,0.3-1,0.6-1.3,0.9
	c-6.3,6.1-12.5,12.3-18.8,18.4c-1.4,1.3-2.9,2.5-4.3,3.8c-0.1-2.3-0.2-4.5-0.3-7c1.4-1.2,2.8-2.2,4-3.3c6.5-6.3,12.9-12.6,19.4-19
	C259.4,357.4,259.8,357.2,260.3,356.8z"/>
<path class="st15" d="M235.8,387.1c1.5-1.4,3-2.6,4.4-3.9c6.3-6.1,12.5-12.3,18.8-18.4c0.3-0.3,0.8-0.6,1.3-0.7
	c0.1,2.4,0.1,4.6,0,6.9c-2,1.6-3.9,3.2-5.6,4.9c-5.9,5.7-11.7,11.5-17.6,17.2c-0.4,0.4-1,0.7-1.5,1c0-1.7,0-3.5,0-5.4
	C235.6,388,235.7,387.6,235.8,387.1z"/>
<path class="st19" d="M428.7,272.4c0.1,0.8,0.3,1.5,0.3,2.3c0,17.8,0,35.6,0,53.4c0,0.8,0.2,1.6,0.3,2.5c-0.1,0.4-0.2,0.7-0.3,1.1
	c-0.6,0.5-1.3,0.9-1.8,1.4c-2.6,2.4-5.1,4.9-7.8,7.1c-0.1-20.3-0.2-40.3,0-60.5C424.1,279.2,427.5,277.1,428.7,272.4z"/>
<path class="st24" d="M428.7,272.3c-1.2,4.8-4.6,6.9-9.4,7.6c-3.1-0.3-5.6-1.3-7.6-3.4c-0.8-0.8-1.6-1.5-2.4-2.4
	c-0.4-0.6-0.8-1.2-1.3-1.7c-4.5-4.4-8.9-8.7-13.4-13.1c-0.6-0.6-1.3-1.2-2.1-1.9c-1.3-1.6-2.5-3-3.7-4.5c4.5-4.4,9-8.8,13.6-13.3
	c1.5,1.3,3,2.6,4.6,4.1c5.2,5.2,10.2,10.2,15.2,15.3c2.5,2.5,5.3,4.8,6.8,8.2C428.9,268.8,428.8,270.5,428.7,272.3z"/>
<path class="st22" d="M316.7,322.6c2-1.9,3.9-3.8,5.9-5.8c3-2.9,5.9-5.6,8.8-8.4c2.6-2.4,5.1-4.9,7.9-7.3c1.7,1.3,3.1,2.7,4.5,4.1
	c0,0.1,0,0.3-0.1,0.3c-0.7,0.5-1.4,1-2,1.5c-4.2,4.1-8.5,8.2-12.7,12.3c-6.4,6.3-12.8,12.6-19.2,18.8c-0.3,0.3-0.7,0.5-1.1,0.8
	c-1.5-1.4-2.9-2.7-4.3-4.2C308.5,330.6,312.6,326.6,316.7,322.6z"/>
<path class="st22" d="M388.7,253c1.3,1.4,2.6,2.8,3.8,4.5c-0.6,0.9-1.1,1.7-1.8,2.3c-4.5,4.3-9.1,8.5-13.6,12.9
	c-6.1,5.9-12.2,11.9-18.3,17.9c-0.3,0.3-0.6,0.5-1,0.7c-0.1,0-0.3,0-0.3-0.1c-1.4-1.4-2.7-2.7-4.1-4c6.5-6.3,12.9-12.6,19.4-18.9
	c2.1-2,4.2-4.1,6.3-6.1C382.3,259.2,385.4,256.1,388.7,253z"/>
<path class="st7" d="M360.4,260.4c0.2-0.6,0.6-1.3,1.1-1.8c6-5.9,12.1-11.9,18.1-17.8c1.7-1.7,3.4-3.4,5.1-5.2
	c2.3-0.1,4.5-0.1,6.9,0c-0.3,0.7-0.6,1.2-1.1,1.7c-5.1,5-10.2,10-15.4,15c-1,1-2.2,1.8-3.2,2.9c-1.6,1.7-3.2,3.4-4.7,5.1
	c-0.3,0-0.5,0-1,0.1C364.3,260.5,362.4,260.5,360.4,260.4z"/>
<path class="st12" d="M367.4,260.4c1.4-1.7,2.9-3.5,4.6-5.2c1-1,2.1-1.9,3.2-2.9c5.1-5,10.3-10,15.4-15c0.5-0.5,0.8-1,1.3-1.7
	c0.2-0.1,0.3-0.1,0.6-0.1c2.1,0,4.2,0,6.3,0c-0.1,0.4,0,0.7-0.1,0.7c-3.3,3.3-6.7,6.6-10,9.9c-1.3,1.3-2.6,2.6-4,3.9
	c-3.3,3.2-6.6,6.4-10,9.6c-0.5,0.5-1.3,0.7-2,0.8C370.9,260.5,369.2,260.5,367.4,260.4z"/>
<path class="st13" d="M322.6,302.9c-0.1-1.8-0.2-3.5-0.3-5.5c0.1-0.5,0.2-0.7,0.3-1.2c0.3-0.4,0.7-0.6,1-0.9
	c6.7-6.6,13.5-13.2,20.2-19.8c0.9-0.9,2-1.6,3.2-2.4c0.1,1.7,0.2,3.5,0.2,5.4c0,0.5,0,0.7-0.2,1.2c-0.5,0.4-1,0.7-1.3,1
	c-6.7,6.5-13.3,13.1-20,19.6C324.8,301.3,323.6,302.1,322.6,302.9z"/>
<path class="st15" d="M322.6,303.1c1-1,2.2-1.8,3.1-2.8c6.7-6.5,13.3-13.1,20-19.6c0.3-0.3,0.8-0.6,1.3-0.9c1,4.6-0.8,8-4.3,11.1
	c-6.8,6.1-13.3,12.6-20,19C322.6,307.7,322.6,305.5,322.6,303.1z"/>
<path class="st24" d="M353.3,287.3c1.4,1.2,2.8,2.5,4.2,4.1c-4.5,4.7-9.1,9.2-13.7,13.8c-1.4-1.3-2.9-2.7-4.4-4.1
	C343.9,296.5,348.6,291.9,353.3,287.3z"/>
<path class="st28" d="M409.3,350.5c-1.9,1.8-3.8,3.6-5.6,5.4c-7.5,7.3-14.9,14.7-22.4,22c-4.2,4.1-8.3,8.1-12.5,12.1
	c-6.6,6.4-13.3,12.8-20.2,19.2c-8.9,0.1-17.4,0.1-26-0.1c0-6.5,0-12.8,0.2-19.2c1,0.1,1.9,0.3,2.7,0.4c6.3,0,12.5,0,18.8,0
	c2.6,0,2.9-0.4,2.9-2.9c0-12.4,0-24.8,0-37.2c0-2.9,0.2-3.1,3-3.1c19.7,0,39.4,0,59.1,0.2C409.3,348.5,409.3,349.5,409.3,350.5
	C409.3,350.5,409.3,350.5,409.3,350.5z"/>
<path class="st29" d="M328.3,429c-36.9,0-73.8,0-110.8,0c1-1.5,2.1-3.1,3.4-4.6c1.6-1.8,3.4-3.3,5.4-5.1c11.8-0.1,23.3-0.1,34.9-0.1
	c0.8,0,1.5-0.2,2.4-0.3c2.4,2.6,5.2,3.9,8.7,3.7c3-0.2,5.1-1.8,7.2-3.7c0.9,0.2,1.6,0.3,2.3,0.3c18.8,0,37.6,0,56.4,0
	c-2.7,2.6-5.4,5.2-8,7.8c-0.5,0.5-1,1.1-1.6,1.7C328.6,429,328.4,429,328.3,429z"/>
<path class="st30" d="M338.3,419.3c-18.9,0.1-37.7,0.1-56.5,0.1c-0.7,0-1.5-0.1-2.3-0.4c1.9-3.1,2.1-6.3,1.4-9.6c14,0,27.8,0,41.6,0
	c8.6,0,17.1,0,25.9,0C345.3,412.6,341.9,415.9,338.3,419.3z"/>
<path class="st18" d="M235.6,394.2c0.5-0.5,1.1-0.7,1.5-1.2c5.9-5.7,11.7-11.5,17.6-17.2c1.8-1.7,3.7-3.2,5.7-4.7
	c0.1,2.1,0.2,4,0.1,6c-1.8,1.8-3.5,3.6-5.3,5.4c-4.8,4.6-9.5,9.1-14.2,13.7c-1.8,1.7-3.6,3.3-5.3,4.9
	C235.6,398.9,235.6,396.6,235.6,394.2z"/>
<path class="st31" d="M235.5,401.3c1.8-1.7,3.6-3.3,5.5-4.9c1.5,1.4,2,3.6,4.2,4.1c0,0.1,0,0.3-0.1,0.3c-3.1,3-6.2,5.9-9.2,8.9
	c-1.9-0.1-3.8-0.3-5.7-0.4c-0.7,0-1.5,0-2.4,0C230.3,406.6,232.9,404,235.5,401.3z"/>
<path class="st29" d="M409.4,350.5c-0.1-0.9-0.1-2-0.1-3.3c0-24.5,0-48.7,0-72.9c0.8,0.7,1.6,1.5,2.4,2.2c2,2,4.5,3,7.5,3.4
	c0.2,20.1,0.2,40.2,0.2,60.5c-0.6,0.9-1.1,1.8-1.8,2.5C414.9,345.3,412.2,347.9,409.4,350.5z"/>
<path class="st30" d="M235.9,409.8c3.1-3,6.1-6,9.4-8.9c3.2,2.9,6.3,5.9,9.4,8.9c3,3.1,5.9,6.1,8.9,9.2c-0.8,0.1-1.5,0.4-2.3,0.4
	c-11.5,0-23,0-34.7,0C229.4,416.2,232.6,413,235.9,409.8z"/>
<path class="st19" d="M429,267c-1.5-3.2-4.3-5.5-6.8-8c-5-5-10-10.1-15.1-15.2c1.8-1.9,3.6-3.6,5.4-5.4c2.3-2.3,4.7-4.5,7.1-6.9
	c3-2.9,5.9-5.7,8.9-8.6c0.2,0.7,0.5,1.4,0.5,2.1C429,239,429,252.9,429,267z"/>
<path class="st15" d="M278,347.2c0.4-0.5,0.7-1.2,1.1-1.6c6.1-6,12.2-12,18.4-18c1.6-1.6,3.3-3.1,5-4.8c2.3-0.1,4.5-0.1,6.9,0
	c-1.8,1.9-3.7,3.7-5.6,5.6c-5.8,5.7-11.6,11.4-17.4,17.1c-0.5,0.5-0.8,1.2-1.4,1.8C282.4,347.2,280.2,347.2,278,347.2z"/>
<path class="st18" d="M285,347.2c0.4-0.6,0.8-1.3,1.3-1.8c5.8-5.7,11.6-11.4,17.4-17.1c1.9-1.8,3.8-3.6,5.8-5.6
	c2.3-0.1,4.6-0.1,7-0.1c-3.9,4-8,8-12.2,12.2c-4.6,4.4-8.9,8.5-13.4,12.6C288.8,347.3,286.9,347.2,285,347.2z"/>
<path class="st20" d="M284.8,347.2c2.1,0.1,4,0.1,6,0.4c-0.2,0.5-0.4,0.8-0.8,1.1c-8.6,8.3-17.1,16.5-25.6,24.7
	c-1.3,1.2-2.6,2.4-4,3.6c0-1.9,0-3.8,0-5.9c0-2.4,0-4.6,0-7.1c0-0.5,0-0.7,0-1.1c0.9-0.7,1.8-1.2,2.6-1.9c4.4-4.2,8.7-8.4,13-12.6
	c0.3-0.3,0.5-0.7,0.8-1.1c0.3-0.1,0.6-0.2,1-0.2C280.2,347.2,282.4,347.2,284.8,347.2z"/>
<path class="st31" d="M409.3,274.1c0,24.3,0,48.5,0,72.9c-19.7,0.2-39.4,0.2-59.1,0.2c-2.9,0-3,0.2-3,3.1c0,12.4,0,24.8,0,37.2
	c0,2.5-0.4,2.9-2.9,2.9c-6.3,0-12.5,0-18.8,0c-0.9,0-1.7-0.2-2.7-0.5c-0.2-5-0.2-9.9,0-14.8c0.5-0.2,0.8-0.3,1.2-0.4
	c7.6-2.9,8.6-12,3.5-16.6c-2.4-2.1-4.5-4.4-6.7-6.7c-3.9-3.9-7.8-7.7-11.8-11.7c0-0.3,0-0.5,0-0.6c0.3-0.3,0.7-0.5,1-0.8
	c6.4-6.3,12.8-12.6,19.2-18.8c4.2-4.1,8.4-8.2,12.7-12.3c0.6-0.6,1.3-1,2.1-1.5c6.6,6.3,12.9,12.7,19.3,19
	c4.4,4.3,11.6,3.6,14.9-1.4c2.8-4.2,2.3-9.3-1.4-13c-3-3-6-6-9.1-9.1c-3.2-3.3-6.4-6.5-9.6-9.8c0.3-0.2,0.6-0.4,0.9-0.7
	c6.1-6,12.2-12,18.3-17.9c4.5-4.3,9.1-8.6,13.6-12.9c0.7-0.6,1.2-1.4,1.8-2.2c0.7,0.5,1.4,1.1,2,1.7c4.5,4.3,8.9,8.7,13.4,13.1
	C408.5,272.9,408.8,273.5,409.3,274.1z"/>
<path class="st32" d="M357.9,291.4c3.3,3.3,6.5,6.5,9.7,9.8c3,3,6.1,6,9.1,9.1c3.6,3.7,4.2,8.8,1.4,13c-3.3,5-10.5,5.7-14.9,1.4
	c-6.4-6.3-12.7-12.7-19.2-19.1c-0.1-0.1-0.1-0.2-0.1-0.3c4.6-4.6,9.2-9.1,13.8-13.7C357.6,291.4,357.8,291.4,357.9,291.4z"/>
<path class="st24" d="M308.7,339c0.1,0.2,0.1,0.3,0,0.7c-0.4,0.3-0.8,0.5-1,0.7c-3.1,3-6.2,6-9.3,8.9c-1.2,1.2-2.7,2.1-4.1,3.1
	c-1.4-1.3-2.7-2.5-4.1-3.7c0.2-0.3,0.5-0.6,0.8-1c4.4-4.3,8.8-8.5,13.3-12.7C305.8,336.2,307.2,337.6,308.7,339z"/>
<path class="st33" d="M322.6,375.1c0,4.8,0,9.7,0,14.7c0,6.5,0,12.8,0,19.3c-13.8,0.2-27.6,0.2-41.6,0.2c-0.3,0-0.4,0-0.5-0.1
	c-1-1.5-1.9-3.1-3.1-4.3c-5.4-5.5-10.9-11-16.4-16.4c-0.5-0.5-1.1-0.8-1.6-1.3c0-0.3,0-0.4,0.1-0.6c0.4-0.2,0.8-0.4,1-0.6
	c4.2-4,8.4-8.1,12.5-12.1c6.8-6.6,13.5-13.3,20.3-19.9c0.3-0.3,0.7-0.6,1.1-0.8c0.7,0.5,1.3,0.9,1.8,1.4
	c5.5,5.5,11.1,10.9,16.5,16.5C315.5,374,318.6,375.4,322.6,375.1z"/>
<path class="st24" d="M280.5,409.3c0,0,0.2,0,0.2,0c0.9,3.3,0.7,6.5-1.3,9.5c-2.1,2.1-4.2,3.7-7.2,3.9c-3.5,0.2-6.3-1.1-8.7-3.7
	c-3-3.1-6-6.1-8.9-9.3c0.6-0.3,1.2-0.4,1.7-0.4C264.4,409.3,272.5,409.3,280.5,409.3z"/>
<path class="st22" d="M294.3,353.1c-0.3,0.3-0.7,0.5-1,0.8c-6.8,6.6-13.5,13.3-20.3,19.9c-4.2,4.1-8.3,8.1-12.5,12.1
	c-0.3,0.3-0.6,0.4-1.1,0.6c-1.5-1.4-2.8-2.7-4.1-4c1.7-1.7,3.4-3.5,5.2-5.3c1.4-1.3,2.7-2.5,4-3.7c8.5-8.2,17-16.5,25.6-24.7
	c1.4,1.2,2.7,2.4,4.2,3.8C294.3,352.8,294.3,352.9,294.3,353.1z"/>
<path class="st24" d="M255.1,382.6c1.4,1.3,2.7,2.6,4.1,4c0.1,0.2,0.1,0.4,0,0.7c-1.8,1.7-3.4,3.1-5.1,4.7c-3,2.8-6,5.7-9.1,8.5
	c-2.2-0.4-2.7-2.6-4.1-4.1C245.7,391.7,250.4,387.1,255.1,382.6z"/>
<path class="st32" d="M245.2,400.5c3-2.9,6-5.8,9.1-8.6c1.6-1.5,3.3-3,5.1-4.5c0.7,0.3,1.3,0.7,1.7,1.1c5.5,5.5,11,10.9,16.4,16.4
	c1.2,1.2,2,2.8,3.1,4.3c-8,0.1-16,0.1-24.1,0.1c-0.5,0-1.1,0.1-1.8,0.3c-3.1-2.8-6.2-5.8-9.3-8.8
	C245.2,400.8,245.2,400.6,245.2,400.5z"/>
<path class="st32" d="M294.5,353.1c-0.1-0.2-0.1-0.3-0.1-0.6c1.3-1.2,2.8-2.1,4-3.3c3.2-2.9,6.2-5.9,9.3-8.9c0.3-0.2,0.6-0.4,1-0.6
	c4.1,3.8,8,7.7,11.9,11.6c2.2,2.2,4.4,4.6,6.7,6.7c5.1,4.6,4.2,13.7-3.5,16.6c-0.3,0.1-0.7,0.2-1.2,0.4c-4.1,0.4-7.2-1-10-3.9
	c-5.4-5.6-11-11-16.5-16.5C295.8,354,295.2,353.6,294.5,353.1z"/>
</svg>
