<?xml version="1.0" encoding="utf-8"?>
<!-- Generator: Adobe Illustrator 28.1.0, SVG Export Plug-In . SVG Version: 6.00 Build 0)  -->
<svg version="1.1" id="Layer_1" xmlns="http://www.w3.org/2000/svg" xmlns:xlink="http://www.w3.org/1999/xlink" x="0px" y="0px"
	 viewBox="0 0 397.1 452.3" style="enable-background:new 0 0 397.1 452.3;" xml:space="preserve">
<style type="text/css">
	.st0{fill:#FF67E2;}
	.st1{fill:#FF7AE9;}
	.st2{fill:#FF8AEF;}
	.st3{fill:#FF56DB;}
	.st4{fill:#FF4AD7;}
	.st5{fill:#FF9CF6;}
	.st6{fill:#FFBE02;}
	.st7{fill:#FF42D4;}
	.st8{fill:#FF96F4;}
	.st9{fill:#FC34CF;}
	.st10{fill:#FFA2F8;}
	.st11{fill:#FE01BB;}
	.st12{fill:#FE3DD2;}
	.st13{fill:#EB07BB;}
	.st14{fill:#F31BC4;}
	.st15{fill:#F829CA;}
	.st16{fill:#EF10BE;}
	.st17{fill:#FF1EC6;}
	.st18{fill:#FE0ABF;}
	.st19{fill:#FD14C2;}
	.st20{fill:#FE28CA;}
	.st21{fill:#FFC82C;}
	.st22{fill:#F57E85;}
	.st23{fill:#FF8538;}
	.st24{fill:#FFA51A;}
	.st25{fill:#F77A44;}
	.st26{fill:#ED02B9;}
	.st27{fill:#F502BB;}
	.st28{fill:#F47DC0;}
	.st29{fill:#F47DAE;}
	.st30{fill:#F10BBE;}
	.st31{fill:#F67C68;}
	.st32{fill:#FF5C60;}
	.st33{fill:#FF6C50;}
	.st34{fill:#F14D71;}
	.st35{fill:#F1589C;}
	.st36{fill:#F15BA9;}
	.st37{fill:#F15080;}
	.st38{fill:#F1548E;}
</style>
<path class="st0" d="M322.6,263.1c0,13.9,0,27.8-0.1,41.8c-1,0-1.9-0.2-2.7-0.2c-106.5,0-213.1,0-319.6,0c0-13.9,0-27.8,0.1-41.9
	c100.7-0.2,201.2-0.2,301.7-0.2C308.8,262.7,315.7,263,322.6,263.1z"/>
<path class="st1" d="M0.1,304.9c106.6-0.2,213.1-0.2,319.6-0.2c0.9,0,1.7,0.2,2.7,0.3c0.2,13.1,0.2,26.1,0,39.3
	c-1.1,0-2-0.2-2.9-0.2c-106.5,0-212.9,0-319.4,0C0.1,331.2,0.1,318.1,0.1,304.9z"/>
<path class="st2" d="M0.1,344.4c106.5-0.2,213-0.2,319.4-0.2c0.9,0,1.8,0.2,2.9,0.3c0.2,10.8,0.2,21.6,0,32.6
	c-49.5,0.2-98.8,0.2-148.2,0.2c-0.6,0-1.3-0.2-1.8,0.1c-0.7,0.3-1.3,0.9-2,1.4c-3.1-1.1-6.3-1.9-9.7-1.8c-4.6,0.2-8.8,1.4-12.7,3.9
	c-1.7,1.1-3.5,2-5.5,3c-0.9-0.1-1.6-0.2-2.3-0.3c-46.7,0-93.5,0-140.2,0C0.1,370.6,0.1,357.6,0.1,344.4z"/>
<path class="st3" d="M322.6,262.9c-6.9,0-13.8-0.2-20.6-0.2c-100.5,0-201,0-301.7,0c-0.2-10.8-0.2-21.6,0-32.6
	c104.5-0.2,208.9-0.2,313.2-0.2c3,0,6,0.2,9.1,0.4C322.6,241.1,322.6,251.9,322.6,262.9z"/>
<path class="st4" d="M322.6,230.2c-3.1,0-6.1-0.2-9.1-0.2c-104.3,0-208.7,0-313.2,0c-0.2-6.2-0.2-12.4,0-18.8
	c106-0.2,211.7-0.2,317.5-0.2c1.6,0,3.2,0.2,4.8,0.4C322.6,217.6,322.6,223.8,322.6,230.2z"/>
<path class="st5" d="M0.1,383.8c46.8-0.2,93.5-0.2,140.2-0.2c0.7,0,1.3,0.1,2.1,0.3c-2.4,1.7-4.9,3.3-7.4,4.9
	c-6.2,3.9-12.5,7.7-18.7,11.5c-7.3,4.5-14.6,8.9-21.9,13.4c-7.2,4.4-14.4,8.9-21.6,13.3c-6.4,4-12.9,7.9-19.3,11.9
	c-5.1,3.1-10.2,6.3-15.3,9.4c-7.1,4.3-14.6,5.1-22.4,2.1c-7.9-3-12.8-8.9-15.2-17c-0.3-1.1-0.5-2.4-0.5-3.6
	C0.1,414.6,0.1,399.3,0.1,383.8z"/>
<path class="st6" d="M243.4,0.1c0.7,0,1.4-0.1,2-0.1c40.6,0,81.2-0.1,121.8,0.1c13.9,0.1,25,8.7,29,22.5c0.6,2.2,0.8,4.6,0.8,6.9
	c0.1,35.8,0,71.5,0,107.3c0,5.1-1.5,9.6-4.4,13.8c-0.9-0.7-1.5-1.5-2.3-2.1c-2.2-1.7-2.2-1.6-4.2,0.4c-4,4.1-8.7,6.5-14.6,6.3
	c-3.9-0.1-7.8,0-11.7-0.2c0-0.9,0-1.7,0-2.4c0-49.7,0-99.4,0-149.1c0-2.7,0-2.7-2.6-2.7c-0.9,0-1.7,0-2.8,0
	c-1.5-0.1-2.9-0.2-4.5-0.3c-1,0-1.9-0.1-2.8-0.1c-34.6,0-69.2,0-103.8-0.1C243.4,0.3,243.4,0.1,243.4,0.1z"/>
<path class="st7" d="M322.6,211.2c-1.6,0-3.2-0.2-4.8-0.2c-105.8,0-211.5,0-317.5,0c-0.2-4.3-0.2-8.7,0-13.2
	c26.4-0.2,52.5-0.2,78.7-0.2c0.9,0,1.8,0.1,2.8,0.2c4.4,0.4,8.8,1.2,13.3,1.2c72.8,0.1,145.7,0,218.5,0.1c3,0,6,0.2,9.1,0.4
	C322.6,203.3,322.6,207.2,322.6,211.2z"/>
<path class="st8" d="M170.6,378.7c0.5-0.5,1.1-1.1,1.8-1.4c0.5-0.2,1.2-0.1,1.8-0.1c49.3,0,98.6,0,148.1,0c0.2,9.3,0.2,18.6,0,28.1
	c-34.1,0.2-68.1,0.2-102,0.2c-0.5,0-1,0-1.5,0c-1.1,0-1.6,0.4-1.6,1.5c-9.1-5.6-18.3-11.3-27.4-16.9
	C183.5,386.4,177.1,382.6,170.6,378.7z"/>
<path class="st9" d="M0.1,181.6c0-10.1,0-20.1,0.1-30.3c12.1-0.2,24-0.2,35.8-0.1c0.9,0,2,0.4,2.5,1c1.2,1.6,2.7,2.5,4.7,2.3
	c1.4-0.2,2.3,0.4,3,1.7c0.8,1.6,1.8,3.1,2.6,4.7c1.2,2.2,2.7,3.7,5.6,3.4c1.1-0.1,2.4,0.4,3.6,0.8c1.3,1.5,2.4,3,3.7,4.5
	c3.8,4.5,8.2,8.3,13.2,11.1c7.9,4.3,16.6,6.3,25.7,6.3c73.9,0,147.8,0,221.8,0c0,1.9,0,3.7-0.1,5.8c-74.6,0.2-149,0.2-223.4,0.2
	c-7.4,0-14.5-1.5-21.4-3.8c-2.8-0.9-5.5-1.7-8.3-1.4c-4.1,0.4-7.4-1.1-10.4-3.6c-2.1-1.7-4.4-2.5-7.2-2.5
	C34.5,181.6,17.3,181.6,0.1,181.6z"/>
<path class="st10" d="M217.4,407.2c-0.1-1.2,0.5-1.7,1.6-1.7c0.5,0,1,0,1.5,0c33.9,0,67.9,0,102,0c0.2,8.1,0.5,16.1,0.1,24.2
	c-0.2,4.7-2.1,9-5.1,12.9c-4.2,5.4-9.8,8.4-16.3,9.4c-4.3,0.6-8.8,0.6-12.7-1.6c-6.5-3.6-12.8-7.5-19.2-11.3
	c-7.4-4.5-14.7-9-22.1-13.5c-7.2-4.4-14.3-8.8-21.5-13.2C223,410.6,220.2,409,217.4,407.2z"/>
<path class="st11" d="M0.1,67.4c0-11.6-0.3-23.2,0.1-34.7c0.2-6.5,3-12.4,7-17.6C12.7,7.8,20,3.2,29,1.3c2.7-0.6,5.6-0.6,8.6-0.8
	c0.3,0,0.4,0,0.5,0.1c0.5,0.3,0.9,0.4,1.4,0.7c3,4.2,4.8,8.9,6.2,13.8c2.2,7.8,4,15.7,3.9,23.9c-0.1,10.5,0,21-0.2,31.4
	c-1.2-0.1-2.3-0.1-3.3-0.4c-0.8-0.2-1.8-0.5-2.2-1.1c-0.8-1.3-1.9-1.5-3.3-1.5C27.2,67.4,13.6,67.4,0.1,67.4z"/>
<path class="st12" d="M0.1,181.8c17.2-0.2,34.4-0.1,51.5-0.2c2.8,0,5.1,0.8,7.2,2.5c3.1,2.4,6.3,4,10.4,3.6c2.9-0.3,5.6,0.5,8.3,1.4
	c6.9,2.3,14,3.8,21.4,3.8c74.4,0,148.8,0,223.4,0c0.2,2.1,0.2,4.2,0.2,6.5c-3.1,0-6.1-0.2-9.1-0.2c-72.8,0-145.7,0-218.5-0.1
	c-4.4,0-8.8-0.8-13.3-1.2c-0.9-0.1-1.8-0.2-2.8-0.2c-26.2,0-52.3,0-78.7,0C0.1,192.4,0.1,187.2,0.1,181.8z"/>
<path class="st13" d="M322.7,161.9c0,2,0,4-0.2,6.1c-73.6,0.2-147.1,0.2-220.5,0.1c-2.8,0-5.7-0.3-8.5-0.8c-6.2-1.1-11.5-4-16-8.3
	c-3.1-3-5.3-6.7-7.1-10.7c-0.6-2.2-1.6-4.3-1.8-6.4c-0.6-6.7-0.9-13.4-1.2-20.1c-0.1-1.4-0.4-2.2-1.9-2c-1.9,0.2-2.5-0.8-2.6-2.5
	c-0.1-3.1-0.3-6.2-0.3-9.3c-0.2-6.2-0.3-12.5-0.2-18.7c1.7,1.4,0.9,3.3,0.9,4.9c0,1.5,0.4,2.2,2.1,2.2c2-0.1,2.7,0.6,2.8,2.6
	c0.2,2.6,0.3,5.2,0.4,7.7c0.1,1.9,0.8,2.6,2.7,2.7c1,0,2.1,0,3.2,0.2c0,9,0.1,17.9,0,26.7c-0.2,13.7,11.3,25.4,25.2,25.2
	c9.7-0.1,19.3,0,29,0c8.1,0,16.2,0,24.5,0c27,0,53.9,0,80.8,0c0.3,0,0.6,0,1.1,0c28.5,0,56.8,0,85,0.1c0.9,0,1.7,0,2.6,0.2
	C322.7,161.7,322.7,161.9,322.7,161.9z"/>
<path class="st14" d="M322.6,174.2c0,2,0,4-0.1,6.2c-74.5,0.2-148.8,0.2-223.2,0.1c-3.7,0-7.4-0.7-11-1.5
	c-6.3-1.4-11.7-4.6-16.8-8.6c-0.2-0.3-0.3-0.4-0.4-0.5c-5.1-4-8.6-9.1-11.2-15c-1.4-3.2-2.5-6.4-3.7-9.7c-0.5-1.4-1.5-2-3-1.9
	c-1.8,0-2.7-0.8-2.8-2.7c-0.3-6.4-0.5-12.8-0.7-19.4c0.3-1.1,0.3-2.2,0.6-3.1c0.2-0.5,0.9-1.2,1.4-1.1c1.7,0.1,3.1-0.4,4.2-1.4
	c0,4.4,0,8.7,0,13c0,2.3,0.5,2.9,2.8,2.8c1.7-0.1,2.5,0.6,2.7,2.2c0.4,3.5,0.8,7,1.2,10.6c1.9,7.8,5.4,14.5,11.2,19.9
	c6.9,6.4,15,10.1,24.5,10.1C173.1,174.2,247.8,174.2,322.6,174.2z"/>
<path class="st15" d="M71.5,170.4c5.1,3.8,10.5,7.1,16.8,8.5c3.6,0.8,7.3,1.5,11,1.5c74.3,0.1,148.7,0.1,223.1,0.1
	c0.2,2,0.2,4,0.2,6.2c-74,0.2-147.9,0.2-221.8,0.2c-9.1,0-17.7-2-25.7-6.3c-5-2.7-9.4-6.6-13.1-11.1
	C65.3,169.7,68.4,170.1,71.5,170.4z"/>
<path class="st16" d="M322.6,174c-74.8,0.2-149.6,0.2-224.3,0.1c-9.4,0-17.6-3.7-24.5-10.1c-5.8-5.4-9.3-12.1-11.1-19.8
	c0.5,0.6,1.1,1.3,1.3,2.1c0.3,1.3,0.9,1.9,2.3,1.9c1.3,0,2.7,0.2,4,0.3c1.8,3.9,3.9,7.6,7,10.6c4.5,4.4,9.9,7.3,16,8.3
	c2.8,0.5,5.6,0.8,8.5,0.8c73.4,0,146.9,0,220.5,0C322.6,170.1,322.6,171.9,322.6,174z"/>
<path class="st17" d="M71.4,170.3c-3.1-0.3-6.2-0.6-9.5-1c-1.3-1.4-2.5-2.9-3.8-4.5c-0.5-0.9-1-1.5-1.4-2.2
	c-1.7-3.6-3.3-7.2-5.1-10.7c-0.8-1.6-1.1-3.8-3.7-3.8c-2.4,0.1-3-0.5-3.6-2.8c-0.5-2.2-0.8-4.5-1.2-6.7c-0.4-2.9-0.5-3-3.5-3
	c-1.1,0-2.2,0-2.4-1.4c-0.3-2-1.6-2.3-3.4-2.3c-11.3,0.1-22.5,0-33.8,0c0-7.3,0-14.7,0.1-22.2c11.1-0.2,22-0.2,32.9-0.2
	c1.7,0,3.2,0,4.3,1.6c0.3,0.4,1,0.5,1.5,0.6c3.8,0.5,3.8,0.4,4.6,4.1c0.1,0.4,0,1,0.2,1.3c0.6,0.6,1.5,1.7,2.1,1.6
	c2.2-0.2,3.2,0.8,3.7,2.7c0.2,6.4,0.5,12.8,0.8,19.2c0.1,1.9,0.9,2.7,2.8,2.7c1.5,0,2.5,0.5,3,1.9c1.2,3.2,2.3,6.5,3.7,9.7
	c2.6,5.8,6.1,11,11.2,15C71.2,169.9,71.3,170.1,71.4,170.3z"/>
<path class="st18" d="M0.1,67.5c13.5-0.2,27-0.2,40.6-0.2c1.4,0,2.5,0.2,3.3,1.5c0.4,0.6,1.4,0.9,2.2,1.1c1,0.2,2.1,0.2,3.3,0.5
	c0.4,2.5,0.7,4.8,0.9,7.1c0.2,2.6,0.3,2.8,2.8,2.8c1.4,0,2.1,0.5,2.1,2.1c-0.1,6.9-0.2,13.6-0.5,20.3c-0.7,0-1.2,0-1.7,0
	c-2.3,0-2.8-0.5-3-2.8c-0.1-1-0.3-2-0.4-2.9c-0.2-1.8-1.1-2.7-3-2.5c-1.9,0.3-2.9-0.6-3.3-2.4C43,90.6,42,90.1,40.5,90
	c-1,0-1.9-0.4-2.8-0.6c-1.1-0.3-2.2-0.8-3.3-0.8c-11.4-0.1-22.8,0-34.2,0C0.1,81.6,0.1,74.7,0.1,67.5z"/>
<path class="st19" d="M0.1,88.8c11.4-0.2,22.8-0.2,34.2-0.1c1.1,0,2.2,0.6,3.3,0.8c0.9,0.2,1.9,0.6,2.8,0.6c1.5,0,2.5,0.6,2.8,2.1
	c0.4,1.8,1.4,2.7,3.3,2.4c1.8-0.3,2.8,0.7,3,2.5c0.1,1,0.3,2,0.4,2.9c0.2,2.3,0.7,2.8,3,2.8c0.5,0,1,0,1.7,0.1
	c0.5,2.4,1,4.6,1.2,6.8c0.2,1.9,0,3.8,0,5.7c-1.2,1.2-2.5,1.7-4.2,1.6c-0.4,0-1.2,0.6-1.4,1.1c-0.3,1-0.4,2-0.6,3.1
	c-0.6-1.8-1.6-2.8-3.8-2.6c-0.7,0.1-1.5-1-2.1-1.6c-0.2-0.3-0.2-0.8-0.2-1.3c-0.8-3.7-0.8-3.7-4.6-4.1c-0.5-0.1-1.2-0.2-1.5-0.6
	c-1.1-1.6-2.6-1.6-4.3-1.6c-10.9,0-21.8,0-32.9,0C0.1,102.6,0.1,95.8,0.1,88.8z"/>
<path class="st20" d="M0.1,131.9c11.3-0.2,22.6-0.1,33.8-0.2c1.8,0,3,0.4,3.4,2.3c0.2,1.4,1.3,1.4,2.4,1.4c2.9,0,3,0.1,3.5,3
	c0.3,2.3,0.7,4.5,1.2,6.7c0.5,2.4,1.2,2.9,3.6,2.8c2.7-0.1,2.9,2.2,3.7,3.8c1.8,3.5,3.4,7.1,5.1,10.7c0.3,0.7,0.8,1.4,1.3,2.2
	c-1.2-0.1-2.4-0.7-3.5-0.6c-2.8,0.3-4.4-1.2-5.6-3.4c-0.9-1.6-1.9-3.1-2.6-4.7c-0.6-1.3-1.6-1.8-3-1.7c-2.1,0.2-3.5-0.7-4.7-2.3
	c-0.5-0.6-1.7-1-2.5-1c-11.9-0.1-23.8,0-35.8,0C0.1,144.8,0.1,138.4,0.1,131.9z"/>
<path class="st21" d="M359.8,155.2c3.9,0,7.8-0.1,11.7,0c5.9,0.2,10.6-2.2,14.6-6.3c2-2,2-2.1,4.2-0.4c0.8,0.6,1.4,1.4,2.2,2.2
	c0.1,0.1,0.1,0.2,0,0.4c-0.2,0.2-0.2,0.3-0.3,0.5c-3.9,5.6-9.5,8.6-16.1,9.9c-2.3,0.4-4.7,0.1-7,0.1c-3,0-5.9,0-9.3,0
	c-3.3,0-6.3,0-9.3-0.2c0-2.1,0-4.1,0.2-6.1C353.9,155.2,356.9,155.2,359.8,155.2z"/>
<path class="st21" d="M243.2,0.1c0.2,0,0.2,0.2,0,0.3c-5.1,0.1-10.1,0.2-15.3,0.2c-19-0.1-37.9-0.1-56.7-0.1c-0.4,0-0.7,0.1-1.3,0.1
	c-0.5-0.1-0.9-0.1-1.3-0.1c-20.7,0-41.4-0.1-62.1-0.1c-0.5,0-1,0.1-1.6,0.1c-4.2-0.1-8.2-0.1-12.2-0.2c0-0.1,0.1-0.2,0.1-0.2
	c12.7,0,25.4,0,38.1,0C168.3,0,205.7,0,243.2,0.1z"/>
<path class="st22" d="M92.6,0c0.2,0,0.1,0.2,0,0.4c-0.4,0.2-0.7,0.4-1,0.4C81.8,0.6,72,0.5,62.2,0.4c-0.1,0-0.2-0.1-0.4-0.1
	c0,0-0.1-0.1-0.1-0.1C72,0.1,82.2,0,92.6,0z"/>
<path class="st11" d="M350.5,161.4c3,0,6,0,9.2,0.1c-0.5,0.1-1.1,0.3-1.7,0.3c-11.7,0-23.3,0-35.1,0c-0.2,0-0.2-0.2-0.2-0.3
	c0-0.1,0-0.2,0.1-0.2c6.3,0,12.4,0,18.7,0C344.6,161.5,347.6,161.5,350.5,161.4z"/>
<path class="st10" d="M61.6,0.1c0.2,0,0.2,0.1,0.1,0.2c-5.1,0.1-10.1,0.1-15.1,0.1c-0.8,0-1.5,0.3-2.5,0.4c-2.1-0.1-4.1-0.2-6-0.3
	c-0.1,0-0.1,0-0.3-0.1c0.5-0.1,1-0.3,1.6-0.4C46.7,0,54,0,61.6,0.1z"/>
<path class="st6" d="M392.3,151.5c-0.1-0.1,0-0.2,0.1-0.3C392.5,151.2,392.5,151.3,392.3,151.5z"/>
<path class="st23" d="M350.5,161.3c-3,0.2-5.9,0.2-9.1,0c-0.2-2.2-0.2-4.2-0.2-6.3c0-41.8,0-83.3,0-124.9c0-7.4,2-14.3,5.6-20.7
	c0.4-0.8,0.9-1.5,1.5-2.4c-2.4-0.2-4.6-0.4-6.9-0.5c-2,0-3.9,0-5.7-0.1c3.2-2.7,7-3.8,10.8-4.7c1.2-0.3,2.4-0.7,3.6-1
	c1.4,0.1,2.8,0.2,4.3,0.4c-1.7,1.8-3.4,3.4-5.2,5.1c0.1,0.2,0.2,0.4,0.3,0.5c1.6,0,3.3,0,5.1,0c-0.4,1.2-0.6,2-0.9,2.9
	c-1.9,5.4-3,11.1-3.1,16.7c-0.1,43-0.1,86-0.1,129.1C350.5,157.2,350.5,159.1,350.5,161.3z"/>
<path class="st24" d="M350.7,155.2c-0.2-43-0.2-86-0.1-129.1c0-5.7,1.2-11.3,3.1-16.7c0.3-0.9,0.6-1.7,0.9-2.9c-1.9,0-3.5,0-5.1,0
	c-0.1-0.2-0.2-0.4-0.3-0.5c1.8-1.6,3.5-3.3,5.3-5c0.9-0.1,1.8-0.1,2.7-0.1c2.6,0,2.6,0,2.6,2.7c0,49.7,0,99.4,0,149.1
	c0,0.7,0,1.5,0,2.4C356.9,155.2,353.9,155.2,350.7,155.2z"/>
<path class="st25" d="M350,0.5c-1,0.4-2.2,0.7-3.4,1c-3.9,0.9-7.6,2.1-10.9,4.8c-0.5,0.1-0.8,0.1-1.3,0.1c-34,0-67.9,0-101.8-0.2
	c-0.7-0.8-1.4-1.5-2-2.2c-0.9-1.1-1.7-2.3-2.5-3.4c5-0.1,10-0.1,15.1-0.2c34.8,0,69.4,0,104,0C348.1,0.5,348.9,0.5,350,0.5z"/>
<path class="st26" d="M38.1,0.6c1.9,0,3.8,0.1,6,0.3c1.5,0.4,2.7,0.6,3.9,1c9.7,2.7,16.9,8.6,22,17.2c3.3,5.6,4.2,11.8,4.4,18.2
	c0.1,2.8,0.1,5.7,0.1,8.7c0,11.2,0,22.3,0,33.4c0,10,0,20-0.1,30.1c-1,0-2.1,0-3.1,0c-1.9,0-2.6-0.7-2.7-2.7
	c-0.1-2.6-0.2-5.2-0.4-7.7c-0.1-2-0.8-2.7-2.8-2.6c-1.7,0.1-2-0.6-2.1-2.2c0-1.6,0.8-3.5-0.9-5.1c-0.1-0.6-0.1-1-0.1-1.6
	c-0.1-10-0.3-19.9-0.4-29.8c-0.1-7.4,0-14.9,0-22.3c0-0.7,0-1.4-0.1-2C60.3,24,56.8,15.3,50.5,8c-2.9-3.3-6.3-6.1-10.9-6.8
	C39.1,1,38.6,0.8,38.1,0.6z"/>
<path class="st27" d="M39.5,1.3c4.6,0.6,8,3.4,10.9,6.7c6.4,7.3,9.8,16.1,11.3,25.6c0.1,0.7,0.1,1.4,0.1,2c0,7.4,0,14.9,0,22.3
	c0.1,9.9,0.2,19.7,0.2,29.7c-0.3-0.4-0.4-1-0.6-1.5c-0.2-0.4-0.6-1.1-0.9-1.1c-2.4,0.2-4.4-0.3-5.4-2.7c0-1.4-0.7-1.9-2.1-1.9
	c-2.5,0-2.6-0.2-2.8-2.8c-0.2-2.3-0.5-4.6-0.7-7.1c0-10.6-0.1-21.1,0-31.6c0.1-8.2-1.7-16.1-3.9-23.9C44.4,10.2,42.6,5.5,39.5,1.3z"
	/>
<path class="st28" d="M74.4,109.6c0-10.2,0-20.2,0-30.2c0-11.1,0-22.1,0.2-33.4c1.2,0.6,2.3,1.4,3.4,2.1c0.9,0.6,1.8,1.2,2.7,2
	c0,28.9,0,57.6,0,86.2c0,1.4,0.1,2.8,0.4,4.2c1.5,8.2,9.2,14.6,17.5,14.6c14.6,0,29.2,0,44,0c2.8,0,5.4,0,8,0.2
	c0.8,2.1,1.5,4.1,2.2,6.1c-8.1,0-16.2,0.1-24.3,0.1c-9.7,0-19.3-0.1-29,0c-13.9,0.2-25.4-11.5-25.2-25.2
	C74.6,127.5,74.5,118.6,74.4,109.6z"/>
<path class="st22" d="M322.7,161.5c-0.9,0-1.7,0-2.6,0c-28.3,0-56.6,0-85.1-0.2c-1.1-1.3-2.1-2.4-3-3.6c-0.7-0.8-1.3-1.7-1.8-2.5
	c3.4,0,6.7,0,10.1,0c17.7,0,35.2,0,52.8,0c10,0,19.8,0,29.6,0c0,0,0,0,0,0.2C322.6,157.5,322.6,159.5,322.7,161.5
	C322.6,161.5,322.6,161.5,322.7,161.5z"/>
<path class="st29" d="M230,155.2c0.7,0.8,1.3,1.7,2,2.5c0.9,1.2,1.9,2.3,2.8,3.6c-0.3,0.1-0.6,0.2-0.9,0.2c-26.9,0-53.7,0-80.8,0
	c-0.9-2-1.6-4-2.2-6.1c13.1-0.1,26-0.2,39-0.2C203.4,155.2,216.7,155.2,230,155.2z"/>
<path class="st30" d="M55.1,82.4c1.1,2.3,3.1,2.7,5.4,2.5c0.3,0,0.7,0.7,0.9,1.1c0.2,0.5,0.3,1.1,0.6,1.7c0.1,0.4,0.1,0.8,0.1,1.4
	c0.1,6.4,0.2,12.6,0.4,18.9c0.1,3.1,0.3,6.2,0.3,9.3c0,1.7,0.7,2.7,2.6,2.5c1.5-0.2,1.9,0.6,1.9,2c0.3,6.7,0.6,13.4,1.2,20.1
	c0.2,2.1,1.1,4.2,1.8,6.4c-1.3,0-2.7-0.2-4-0.2c-1.4,0-2-0.6-2.3-1.9c-0.2-0.8-0.8-1.5-1.3-2.2c-0.5-3.5-0.9-7-1.3-10.5
	c-0.2-1.6-1-2.3-2.7-2.2c-2.3,0.1-2.8-0.5-2.8-2.8c0-4.3,0-8.5,0-13c0-2.1,0.1-4,0-5.9c-0.2-2.2-0.7-4.4-1.1-6.8
	C54.9,96,55,89.3,55.1,82.4z"/>
<path class="st29" d="M80.8,49.9c-0.9-0.6-1.8-1.2-2.7-1.8c-1.1-0.8-2.2-1.5-3.4-2.3c-0.2-2.9-0.1-5.7-0.2-8.6
	c-0.3-6.3-1.1-12.6-4.4-18.2C65,10.5,57.7,4.5,48,1.9c-1.2-0.3-2.4-0.6-3.7-0.9c0.7-0.2,1.4-0.5,2.2-0.5c5-0.1,10-0.1,15.1-0.1
	c0.3,0,0.4,0,0.5,0C72,0.5,81.8,0.6,91.6,0.8c0.3,0,0.6-0.1,1-0.3c4.1-0.1,8.1-0.1,12.3,0.1c0.5,0.6,0.9,1.1,1.2,1.5
	c1,1.4,2,2.8,2.8,4.2c-11.7,0-23.2,0-35,0c-1.7,0-3.3,0-5.2,0c0.5,0.7,0.6,1,0.8,1.2c5.3,5.9,8.7,12.7,10.2,20.5
	C81.2,35.3,80.8,42.6,80.8,49.9z"/>
<path class="st22" d="M109.1,6.4c-1-1.4-2-2.8-3-4.2c-0.3-0.5-0.7-0.9-1.1-1.5c0.5-0.2,1-0.3,1.5-0.3c20.7,0,41.4,0.1,62.1,0.1
	c0.4,0,0.7,0,1.3,0.2c0.7,0.8,1.2,1.5,1.7,2.2c0.8,1.2,1.5,2.3,2.1,3.5c-0.9,0-1.7,0-2.6,0c-16.8,0-33.4,0-50.2,0
	C116.8,6.4,112.9,6.4,109.1,6.4z"/>
<path class="st31" d="M173.8,6.4c-0.7-1.2-1.5-2.3-2.2-3.5c-0.5-0.7-1-1.4-1.5-2.2c0.4-0.2,0.7-0.3,1.1-0.3
	c18.9,0,37.7,0.1,56.7,0.1c1,1.2,1.8,2.4,2.7,3.5c0.6,0.7,1.3,1.4,1.8,2.2c-2.8,0.1-5.4,0.2-8.2,0.2C207.3,6.4,190.6,6.4,173.8,6.4z
	"/>
<path class="st31" d="M322.8,161.5c-0.2-2-0.2-3.9,0-6.1c3.2-0.2,6.1-0.2,9.3-0.2c3.1,0,6.1,0,9.1,0c0,2,0,4,0.1,6.1
	C335.2,161.5,329.1,161.5,322.8,161.5z"/>
<path class="st32" d="M331.9,155.2c-3,0-6,0-9.1,0c-0.2,0-0.2,0-0.2-0.2c0-41.5,0-82.7,0-124c0-6.8,2-13.1,6.3-18.5
	c1.7-2.2,3.7-4.1,5.6-6.1c0.3,0,0.7,0.1,1.1,0c1.9-0.1,3.8-0.1,5.8,0.1c-0.1,0.5-0.3,0.9-0.6,1.2c-6,6.9-8.9,14.9-8.9,24
	C331.9,72.8,331.9,114,331.9,155.2z"/>
<path class="st33" d="M332.1,155.2c-0.2-41.2-0.2-82.3-0.2-123.5c0-9.1,2.9-17.1,8.9-24c0.3-0.3,0.5-0.7,0.7-1.2
	c2.2,0,4.3,0.2,6.7,0.4c-0.6,0.9-1,1.7-1.5,2.4c-3.6,6.4-5.6,13.3-5.6,20.7c0,41.6,0,83.2,0,124.9
	C338.2,155.2,335.3,155.2,332.1,155.2z"/>
<path class="st34" d="M334.4,6.4c-1.7,2-3.7,4-5.4,6.1c-4.3,5.4-6.3,11.7-6.3,18.5c-0.1,41.3,0,82.6,0,124c-9.8,0.2-19.6,0.2-29.6,0
	c-0.7-1.5-1.2-2.9-1.8-4.3c-3.1-6.6-6.2-13.1-9.2-19.7c-5.8-12.3-11.5-24.7-17.2-37c-2.8-6-5.6-12-8.4-18
	c-6.4-13.7-12.8-27.5-19.2-41.3c-3.9-8.3-7.8-16.6-11.7-24.9c-0.5-1.1-0.7-2.3-1.1-3.5c2.6,0,5.2,0,8-0.1
	C266.5,6.4,300.3,6.4,334.4,6.4z"/>
<path class="st35" d="M108.9,6.4c4,0,7.9,0,11.9,0.2c1.1,2.2,1.9,4.4,2.9,6.4c3.1,6.6,6.2,13.1,9.2,19.7
	c5.9,12.7,11.9,25.5,17.8,38.2c2.7,5.9,5.5,11.8,8.3,17.7c5.5,11.8,10.9,23.6,16.4,35.4c3.9,8.4,7.9,16.8,11.8,25.2
	c0.9,2,1.7,4.1,2.5,6.1c-12.9,0-25.8,0-38.9,0c-2.8,0-5.4,0-8.2-0.2c-0.3-0.7-0.4-1.3-0.6-1.7c-1.5-3.3-3-6.6-4.6-10
	c-4.3-9.2-8.6-18.4-12.9-27.6c-5.2-11.2-10.5-22.4-15.7-33.7c-4.2-9-8.3-18-12.5-26.9c-6.6-14.2-13.3-28.4-19.9-42.6
	c-0.9-2-1.6-4.1-2.4-6.2C85.7,6.4,97.2,6.4,108.9,6.4z"/>
<path class="st36" d="M73.9,6.4c1,2.1,1.6,4.2,2.6,6.2c6.6,14.2,13.3,28.4,19.9,42.6c4.2,9,8.4,18,12.5,26.9
	c5.2,11.2,10.5,22.4,15.7,33.7c4.3,9.2,8.6,18.4,12.9,27.6c1.5,3.3,3.1,6.6,4.6,10c0.2,0.5,0.3,1.1,0.4,1.7
	c-14.6,0.1-29.2,0.2-43.9,0.1c-8.3,0-16-6.4-17.5-14.6c-0.2-1.4-0.4-2.8-0.4-4.2c0-28.7,0-57.4,0-86.2c0-7.5,0.4-14.8-1-22
	c-1.5-7.8-4.9-14.6-10.2-20.5c-0.2-0.2-0.3-0.5-0.8-1.2C70.7,6.4,72.2,6.4,73.9,6.4z"/>
<path class="st37" d="M224.2,6.4c0.5,1.2,0.7,2.4,1.3,3.5c3.9,8.3,7.8,16.6,11.7,24.9c6.4,13.7,12.8,27.5,19.2,41.3
	c2.8,6,5.6,12,8.4,18c5.8,12.3,11.5,24.7,17.2,37c3.1,6.6,6.2,13.1,9.2,19.7c0.6,1.3,1.1,2.7,1.6,4.3c-17.5,0.1-35,0.1-52.7,0
	c-0.3-0.6-0.4-1-0.6-1.4c-2.2-4.9-4.5-9.8-6.8-14.7c-4.3-9.3-8.6-18.5-12.9-27.8c-5.2-11.2-10.5-22.4-15.7-33.6
	c-4.3-9.3-8.6-18.5-13-27.8c-5.6-12-11.3-24.1-16.9-36.1c-1.1-2.4-2.1-4.9-3.1-7.3c0.8,0,1.5,0,2.5,0C190.6,6.4,207.3,6.4,224.2,6.4
	z"/>
<path class="st38" d="M171,6.4c1.2,2.5,2.2,4.9,3.3,7.3c5.6,12.1,11.3,24.1,16.9,36.1c4.3,9.2,8.6,18.5,13,27.8
	c5.2,11.2,10.5,22.4,15.7,33.6c4.3,9.3,8.6,18.5,12.9,27.8c2.3,4.9,4.5,9.8,6.8,14.7c0.2,0.4,0.3,0.8,0.4,1.4
	c-3.2,0.1-6.5,0.2-9.9,0.2c-13.4,0-26.7,0-40.2,0c-1-2.1-1.8-4.1-2.7-6.1c-3.9-8.4-7.9-16.8-11.8-25.2
	c-5.5-11.8-10.9-23.6-16.4-35.4c-2.7-5.9-5.5-11.8-8.3-17.7c-5.9-12.7-11.9-25.5-17.8-38.2c-3.1-6.6-6.2-13.1-9.2-19.7
	c-1-2.1-1.8-4.2-2.7-6.4C137.6,6.4,154.2,6.4,171,6.4z"/>
</svg>
