<?xml version="1.0" encoding="utf-8"?>
<!-- Generator: Adobe Illustrator 28.1.0, SVG Export Plug-In . SVG Version: 6.00 Build 0)  -->
<svg version="1.1" id="Layer_1" xmlns="http://www.w3.org/2000/svg" xmlns:xlink="http://www.w3.org/1999/xlink" x="0px" y="0px"
	 viewBox="0 0 471.9 471.8" style="enable-background:new 0 0 471.9 471.8;" xml:space="preserve">
<style type="text/css">
	.st0{fill:#08BF6F;}
	.st1{fill:#16C468;}
	.st2{fill:#08B666;}
	.st3{fill:#42D452;}
	.st4{fill:#0DB864;}
	.st5{fill:#23C861;}
	.st6{fill:#2DCC5D;}
	.st7{fill:#4CD74D;}
	.st8{fill:#58DC47;}
	.st9{fill:#36CF58;}
	.st10{fill:#62E043;}
	.st11{fill:#2DD7AD;}
	.st12{fill:#19BB5D;}
	.st13{fill:#39E6F9;}
	.st14{fill:#19D9F9;}
	.st15{fill:#26C359;}
	.st16{fill:#31E3FA;}
	.st17{fill:#28DFFA;}
	.st18{fill:#22DCFB;}
	.st19{fill:#1ABF60;}
	.st20{fill:#35DAAD;}
	.st21{fill:#07D59C;}
	.st22{fill:#04DFB5;}
	.st23{fill:#06D9A8;}
	.st24{fill:#00FFF7;}
	.st25{fill:#03EACB;}
	.st26{fill:#02F5E2;}
	.st27{fill:#04E0B8;}
	.st28{fill:#05DBAB;}
	.st29{fill:#05C896;}
	.st30{fill:#02F8E5;}
	.st31{fill:#04DCAD;}
	.st32{fill:#04BD8E;}
	.st33{fill:#05C593;}
	.st34{fill:#03B588;}
	.st35{fill:#02AD82;}
	.st36{fill:#FEFFFE;}
</style>
<path class="st0" d="M471.7,410.7c0.3,9.4,0.2,18.6-3.2,27.6c-3.3,8.6-8.5,15.8-15.6,21.7c-6.2,5.2-13.3,8.7-21.2,10.3
	c-3.4,0.7-6.9,1.4-10.3,1.4c-94.7,0.1-189.3,0.1-284,0c-10.9,0-21-3.5-29.8-10.2C97.2,453.8,90.9,443.5,88,431
	c-0.6-2.4-0.8-5-0.8-7.5c-0.1-4.1,0-8.3,0.2-12.6C215.6,410.7,343.6,410.7,471.7,410.7z"/>
<path class="st1" d="M471.8,410.6c-128.1,0.2-256.2,0.2-384.4,0.2c-0.2-0.2-0.2-0.3,0-0.6c79-0.1,157.9-0.1,236.7-0.1
	c7.7,0,15.5,0,23.1-1.1c5.3-0.8,10.4-2.1,15.2-4.6c0.4-0.2,0.7-0.5,1.4-1.1c-1.7-0.2-2.9-0.3-4.2-0.4c0.3-0.8,0.7-1.1,1.1-1.3
	c1.4-0.7,2.9-1.3,4.3-2.1c1.8-1,3.5-2.2,5.3-3.4c2.5-1.2,4.6-2.8,6.9-4.6c-1.3-0.5-2.1-0.8-2.8-1.1c0.2,0.1,0.4,0.2,0.7,0.3
	c3.2-3.5,6.4-7,9.5-10.5c6.7-7.8,11.4-16.8,14.1-26.7c3-0.1,5.9-0.2,8.8-0.2c-0.1,1.3-0.3,2.5-0.4,3.7c-0.2,2.6,0.1,2.9,2.7,2.9
	c19.1,0,38.1,0,57.2,0c1.6,0,3.2,0.2,4.8,0.4c0,10.2,0,20.4,0.1,30.6C471.8,397,471.8,403.7,471.8,410.6z"/>
<path class="st2" d="M87.1,397.4c0-4.1,0-8.2,0.1-12.4c43.3-0.2,86.4-0.2,129.5-0.2c0.9,0,1.9,0,3,0c39.3,0,78.4,0,117.5,0
	c2.3,0,4.7-0.3,7-0.8c11.4-2.2,21-7.7,28.5-16.5c8.2-9.5,11.9-20.8,12-33.3c0.1-12.1,0-24.3,0.2-36.4c2.7,0,2.8,0.1,2.8,2.6
	c0,0.7,0,1.5,0,2.2c0,4.7-0.4,9.5,0.1,14.1c0.9,8.1,1.5,16.3,0.6,24.4c-0.8,7.2-2.1,14.3-5.1,21c-0.2,0.5-0.3,1.5-0.1,1.7
	c1.7,0.9,0.9,2,0.2,2.9c-2.8,3.6-5.6,7.2-8.6,10.7c-1.3,1.6-2.7,3.4-4.4,4.5c-4.1,2.6-8.4,4.9-12.6,7.3c-0.6,0.4-1.2,0.7-1.9,1.1
	c0.1,0.1,0.1,0.2,0.2,0.3c1.4,0.1,2.8,0.2,4.4,0.3c-0.3,0.5-0.3,0.7-0.4,0.8c-0.1,0.1-0.3,0.3-0.4,0.3c-6.6,2.8-13.3,5.4-20.7,5.4
	C255,397.3,171.1,397.4,87.1,397.4z"/>
<path class="st3" d="M471.7,199.8c0,10.6,0,21.3,0.1,31.9c0,5.5,0,11-0.2,16.7c-1.6,1.9-3.6,1.7-5.5,1.7c-17.5,0-35,0-52.6,0
	c-2.7,0-3.3-0.5-3.5-3.3c-0.4-5.2-0.8-10.3-1.1-15.5c-0.1-1.3-0.5-2-1.8-2.5c-0.5-0.2-0.9-1-1.2-1.5c-0.2-0.4-0.3-0.9-0.4-1.5
	c0-0.5,0-0.9,0-1.5c-0.1-8.4-0.2-16.6-0.4-24.8c0-1.5-0.5-3.5-1.5-4.2c-1.7-1.2-0.4-3.4-2.1-4.2c-0.1-0.1-0.2-0.1-0.3-0.3
	c0-8.7,0-17.3,0-26c0-17.5,0-34.9,0.1-52.2c0.4,0.6,0.7,1.2,1,1.8c0.3,0.5,0.5,1.3,0.9,1.5c1.5,0.7,1.7,1.9,1.7,3.4
	c0,0.9,0.5,1.8,0.7,2.8c0,0.5,0,0.9-0.1,1.5c-0.2,0.6-0.3,1-0.3,1.4c0.1,13.8,0.2,27.6,0.4,41.4c0,0.2,0,0.4,0,0.6
	c0.4,0.8,0.5,2,1.2,2.4c2,1.5,2.4,3.6,2.5,5.7c0.3,6,0.3,12.1,0.4,18.2c0,1.4,0.1,2.8,0.3,4.2c0.4,2.7,0.5,2.6,3.2,2.6
	C432.7,199.8,452.2,199.8,471.7,199.8z"/>
<path class="st4" d="M87.1,397.5c84-0.2,167.9-0.2,251.8-0.2c7.4,0,14-2.6,20.7-5.4c0.2-0.1,0.3-0.2,0.4-0.3
	c0.1-0.1,0.2-0.3,0.4-0.8c-1.6-0.1-3-0.2-4.4-0.3c-0.1-0.1-0.1-0.2-0.2-0.3c0.6-0.4,1.2-0.8,1.9-1.1c4.2-2.4,8.6-4.7,12.6-7.3
	c1.7-1.1,3.1-2.9,4.4-4.5c2.9-3.5,5.8-7.1,8.6-10.7c0.7-0.9,1.5-2-0.2-2.9c-0.2-0.1-0.2-1.2,0.1-1.7c3-6.7,4.4-13.8,5.1-21
	c0.9-8.1,0.3-16.3-0.6-24.4c-0.5-4.7-0.1-9.4-0.1-14.1c0-0.7,0-1.5,0-2.2c0-2.5,0-2.6-2.8-2.8c-0.2-4.2-0.2-8.2-0.2-12.2
	c0-15.7,0-31.4,0-47.3c0-5,0-9.8,0-14.6c0-15.6,0-31.3,0.2-46.9c3.9,0,3.8,0,3.9,3.7c0.6,25.4-1.3,50.8,1.1,76.2
	c0.1,0.8,0.4,1.9,1,2.1c1.2,0.5,1.2,1.4,1.2,2.4c0,3.6,0,7.2,0,10.8c0,0.6,0.5,1.3,0.7,2c0,0.8,0,1.4,0,2.2c0,8.7,0,17.2,0,25.8
	c0,0.8,0.2,1.6,0.4,2.5c0.1,1,0.3,1.9,0.3,2.7c0,2.9,0,5.8,0,8.7c0,1.3,0.1,2.5,1.7,3.1c0.6,0.2,1,1.4,1.2,2.2
	c0.3,1.3,0.4,2.6,0.4,3.9c-0.2,7.8-0.4,15.5-0.6,23.3c0,0.6,0.2,1.7,0.5,1.8c2.2,0.4,1.6,1.9,1.7,3.3c-2.6,10-7.2,18.9-13.9,26.7
	c-3.1,3.6-6.3,7-9.5,10.5c-0.2-0.1-0.4-0.2-0.7-0.3c0.8,0.3,1.5,0.6,2.8,1.1c-2.3,1.8-4.3,3.5-7,4.6c-0.9,0.1-1.5,0.4-2.1,0.3
	c-5-0.5-9.4,1.7-14,3.1c-0.5,0.1-0.8,0.5-1.3,0.7c0,0.2,0.1,0.3,0.1,0.5c1.4,0.1,2.9,0.2,4.3,0.3c0,0.3,0,0.5,0,0.8
	c-2.6,0.3-5.2,0.9-7.8,0.9c-87.4,0-174.9,0-262.3,0C87.1,400.9,87.1,399.3,87.1,397.5z"/>
<path class="st5" d="M471.8,359.6c-1.6,0-3.2-0.2-4.8-0.2c-19.1,0-38.1,0-57.2,0c-2.6,0-2.9-0.2-2.7-2.9c0.1-1.2,0.2-2.3,0.4-3.8
	c-0.1-1.7,0.4-3.6-0.3-4.3c-1.4-1.4-1.5-2.8-1.6-4.5c-0.2-7.6-0.5-15.2-0.8-22.8c0-1-0.4-2.5-1.1-2.7c-1.6-0.6-1.5-1.6-1.5-2.8
	c0-0.7,0-1.5,0-2.2c-0.4-6-0.7-12-1-17.9c1.7,0.5,3.2,1,4.7,1.6c0.3,1.5,0.2,3.3,1,4.1c1.6,1.6,2.2,3.4,2.4,5.5
	c0.2,2.8,0.5,5.7,0.8,8.5c0.3,2.7,0.6,2.9,3.2,2.9c17.8,0,35.6,0,53.3,0c1.8,0,3.6,0.1,5.1-1.1C471.7,331.1,471.8,345.3,471.8,359.6
	z"/>
<path class="st6" d="M471.8,316.8c-1.5,1.4-3.3,1.3-5.1,1.3c-17.8,0-35.6,0-53.3,0c-2.6,0-2.9-0.3-3.2-2.9c-0.3-2.8-0.6-5.6-0.8-8.5
	c-0.2-2.1-0.8-3.9-2.4-5.5c-0.8-0.8-0.7-2.6-1-4.3c-0.3-7.3-0.5-14.3-0.8-21.3c-0.1-1.4-0.1-2.9-0.4-4.2c-0.4-1.8,0.4-4.2-2.2-5.1
	c-0.2-0.1-0.3-0.8-0.3-1.2c-0.4-7.7-0.9-15.4-1.1-23.1c-0.3-11.1-0.3-22.3-0.4-33.4c0-1.2-0.2-2.2-1.6-2.5c-0.4-0.1-0.9-0.7-0.9-1.2
	c-0.4-3.9-1.1-7.9-1.1-11.8c-0.1-13,0-26,0.1-39c0.3,0.2,0.5,0.4,0.5,0.6c0.2,1.6-0.1,3.4,2,4.1c0.2,0.1,0.3,0.8,0.3,1.2
	c0,1-0.1,2.1,0.1,3.1c0.1,0.6,0.7,1.1,1.1,1.6c0,8.6,0,17.1,0,26c0.1,4.9,0.2,9.5,0.4,14c0.1,2.6,0.2,5.2,0.4,7.7
	c0,0.5,0.5,1.5,0.8,1.5c2.1,0.2,1.8,1.7,1.8,3c0,1-0.1,2,0,3c0.2,1.4,0.7,2.8,1.1,4.3c0,0.4,0,0.8-0.1,1.5c-0.2,0.9-0.3,1.6-0.3,2.3
	c0.1,5.8,0.2,11.6,0.4,17.4c0.1,4.4,0.2,8.9,0.4,13.3c0.1,1.5,0.1,3.6,1,4.3c1.9,1.5,2.2,3.3,2.3,5.5c0.2,3.5,0.4,7,0.9,10.5
	c0.4,2.9,0.5,2.8,3.4,2.8c19.4,0,38.8,0,58.2,0C471.7,293.6,471.8,305.1,471.8,316.8z"/>
<path class="st7" d="M471.8,199.6c-19.5,0.2-39,0.2-58.6,0.2c-2.7,0-2.8,0-3.2-2.6c-0.2-1.4-0.3-2.8-0.3-4.2
	c-0.1-6.1-0.1-12.1-0.4-18.2c-0.1-2-0.5-4.2-2.5-5.7c-0.6-0.5-0.8-1.6-1.2-2.4c-0.1-0.2,0-0.4,0-0.6c-0.1-13.8-0.3-27.6-0.4-41.4
	c0-0.4,0.1-0.8,0.4-1.3c1,0.6,2.2,1.2,2.4,2c0.7,2.7,1.5,5.4,1.6,8.2c0.2,7.4,0.1,14.7,0.1,22.1c0,2.9,1.2,4,4,4c17.7,0,35.3,0,53,0
	c1.8,0,3.6,0.1,5.1-1.1C471.7,172.1,471.8,185.8,471.8,199.6z"/>
<path class="st8" d="M471.8,158.3c-1.5,1.4-3.3,1.3-5.1,1.3c-17.7,0-35.3,0-53,0c-2.8,0-4-1.1-4-4c0-7.4,0.1-14.7-0.1-22.1
	c-0.1-2.7-0.8-5.5-1.6-8.2c-0.2-0.8-1.5-1.4-2.4-2.1c-0.1-0.5-0.1-0.9-0.1-1.6c-0.1-11.7-0.2-23.1-0.4-34.5c1.4,0,2.7,0,4.3,0.1
	c0.2,8.1,0.1,15.9,0.2,23.8c0,2.3,0.5,4.5,0.6,6.8c0.1,1.7,0.9,2,2.4,2c18.5,0,36.9,0,55.4,0c1,3.3,2.3,6.6,2.9,10
	C472.5,139.2,471.6,148.7,471.8,158.3z"/>
<path class="st9" d="M471.8,281.8c-19.4,0.2-38.8,0.2-58.2,0.2c-2.9,0-3,0-3.4-2.8c-0.4-3.5-0.6-7-0.9-10.5
	c-0.1-2.1-0.5-3.9-2.3-5.5c-0.9-0.7-0.9-2.8-1-4.3c-0.2-4.4-0.3-8.9-0.4-13.3c-0.1-5.8-0.3-11.6-0.4-17.4c0-0.7,0.1-1.3,0.3-2.1
	c0.2,0.3,0.3,0.9,0.5,1.3c0.3,0.6,0.7,1.4,1.2,1.5c1.3,0.4,1.7,1.2,1.8,2.5c0.3,5.2,0.7,10.3,1.1,15.5c0.2,2.8,0.8,3.3,3.5,3.3
	c17.5,0,35,0,52.6,0c1.9,0,3.9,0.3,5.5-1.5C471.7,259.6,471.8,270.6,471.8,281.8z"/>
<path class="st0" d="M87.1,402.7c87.5-0.2,174.9-0.2,262.4-0.2c2.6,0,5.2-0.6,7.8-0.9c0-0.3,0-0.5,0-0.8c-1.4-0.1-2.9-0.2-4.3-0.3
	c0-0.2-0.1-0.3-0.1-0.5c0.4-0.2,0.8-0.5,1.3-0.7c4.6-1.4,9-3.7,14-3.1c0.6,0.1,1.2-0.2,2-0.3c-1.6,1.1-3.3,2.3-5,3.4
	c-1.4,0.8-2.9,1.4-4.3,2.1c-0.4,0.2-0.8,0.6-1.1,1.3c1.2,0.1,2.4,0.3,4.2,0.4c-0.7,0.6-1,0.9-1.4,1.1c-4.8,2.5-9.9,3.9-15.2,4.6
	c-7.7,1.1-15.4,1.1-23.1,1.1c-78.8,0-157.7,0-236.7,0C87.1,407.6,87.1,405.3,87.1,402.7z"/>
<path class="st10" d="M468.1,119.6c-18.4,0.1-36.9,0.1-55.4,0.2c-1.5,0-2.3-0.3-2.4-2c-0.1-2.3-0.6-4.5-0.6-6.8
	c-0.1-7.9,0-15.7,0-23.8c5.3-0.2,10.5-0.5,15.8-0.2c8,0.6,15.4,3.3,22.2,7.6c6,3.7,11.1,8.4,14.9,14.3
	C464.7,112.3,466.2,116,468.1,119.6z"/>
<path class="st11" d="M384.8,176.4c0,15.6,0,31.3,0,46.9c0,4.8,0,9.6-0.2,14.7c-1.4,1.2-2.6,2.3-3.9,3.3c-0.7,0.5-1.5,0.9-2.2,1.2
	c0-1.1,0-2,0-3c0-50.8,0-101.6,0-152.6c0-3.2,0-6.1,0-9.3c0-3.2,0-6.2,0.2-9.2c2.1,0,4.1,0,6,0c0,6.1,0.1,12.2,0.1,18.6
	c0,23.1,0,45.8,0,68.5C384.7,162.5,384.8,169.4,384.8,176.4z"/>
<path class="st12" d="M384.9,176.4c-0.2-6.9-0.2-13.9-0.2-20.8c0-22.7,0-45.4,0-68.3c2.6-0.2,5.2-0.2,8,0.1
	c0.2,39.6,0.2,79,0.2,118.6c0,22.6,0,45.1,0,67.5c-0.2-0.6-0.7-1.3-0.7-1.9c-0.1-3.6,0-7.2,0-10.8c0-1,0-1.9-1.2-2.4
	c-0.5-0.2-0.9-1.4-1-2.1c-2.4-25.4-0.6-50.8-1.1-76.2C388.8,176.4,388.8,176.4,384.9,176.4z"/>
<path class="st13" d="M384.7,68.3c-2,0.2-3.9,0.2-6.1,0.2c-0.2,0-0.2,0-0.2-0.2c0-3.1,0-6.1,0-9.3c0-3.2,0-6.1,0-9.3
	c0-11.3-3.9-20.9-11.3-29c-8.7-9.5-19.8-14.2-32.7-14.3c-23.9-0.1-47.8,0-71.7-0.2c2.1-2.3,3.4-5.3,7-5.6c0.2,0,0.3-0.3,0.5-0.5
	c1.5,0,3.1-0.1,4.6-0.1c19.8,0,39.5,0,59.3,0c11,0,21,2.9,30,9.3c5.9,4.2,10.6,9.5,14.3,15.8c3.1,5.2,4.8,10.8,6,16.7
	c0.3,1.7,0.4,3.4,0.4,5.1C384.7,54,384.7,61,384.7,68.3z"/>
<path class="st11" d="M219.5,384.6c-0.9,0-1.9,0.1-2.8,0.1c-43.1,0-86.2,0-129.5,0c-6.3,0-12.3,0-18.6-0.2c-0.3-2.1-0.4-3.9-0.5-5.8
	c0.1-0.2,0.2-0.2,0.5-0.3c3.2,0,6.1,0,9.3,0c3.2,0,6.1,0,9.3,0c43.2,0,86.1,0,129.1,0c2.5,0,5.1,0,7.6,0.2c-0.3,0.6-0.5,1.1-0.8,1.5
	C222,381.6,220.8,383.1,219.5,384.6z"/>
<path class="st14" d="M0.1,90.8c0-14.4-0.2-28.9,0-43.3C0.2,40.8,1.9,34.2,5,28.2c3.7-7.4,8.8-13.7,15.7-18.6
	c6.2-4.4,13-7.3,20.4-8.8C43.9,0.2,47,0.1,50,0C63.5,0,77,0,90.6,0.2c-0.2,0.7-0.5,1.3-0.9,1.8c-1,1.5-2,2.9-3.2,4.4
	c-5.1,0-10.1,0-15,0c-8.6,0.1-17.2-0.1-25.8,0.4C36.6,7.3,28.4,11,21.6,17C11.4,26,6.4,37.5,6.4,51c-0.1,11.5,0,23-0.1,34.6
	c-0.9,0.7-1.7,1.3-2.5,2C2.5,88.7,1.3,89.7,0.1,90.8z"/>
<path class="st15" d="M392.9,205.7c0-39.4,0-78.9,0-118.5c1.3-0.2,2.5-0.2,3.9,0c0.2,22.4,0.2,44.6,0.2,66.8c0,13-0.1,26,0,39.1
	c0,3.9,0.7,7.9,1.1,11.8c0,0.4,0.5,1.1,0.9,1.2c1.4,0.4,1.6,1.3,1.6,2.5c0.1,11.1,0.1,22.3,0.4,33.4c0.2,7.7,0.7,15.4,1.1,23.1
	c0,0.4,0.1,1.1,0.3,1.2c2.6,0.9,1.7,3.3,2.2,5.1c0.3,1.4,0.4,2.8,0.4,4.2c0.3,7,0.5,14,0.8,21.1c-1.5-0.3-3.1-0.8-4.7-1.5
	c-0.1-2.1-0.1-3.9-0.1-5.8c0-3.1,0.2-6.2-0.1-9.2c-0.1-2.1,0-4.5-2.4-5.9c-0.5-0.3-0.8-1.1-0.8-1.8c-0.3-3.9-0.7-7.9-0.8-11.8
	c-0.1-6.8,0-13.6,0-20.4c0-4.8,0.1-9.5-0.1-14.3c-0.1-1.6-0.5-3.5-1.4-4.7c-0.6-0.8-1.1-1.4-1.1-2.4c0-3.2,0.1-6.4-0.1-9.7
	C394.3,208.1,393.4,206.9,392.9,205.7z"/>
<path class="st13" d="M68.1,378.7c0.1,1.9,0.3,3.7,0.4,5.7c-7.8,0.2-15.6,0.6-23.4,0.1c-6.9-0.4-13.4-2.6-19.5-6
	c-4.1-2.3-7.9-5.1-11.1-8.4c-4-4-7.2-8.6-9.6-13.8c-2.5-5.3-4.3-10.8-4.4-16.7c-0.3-10.8-0.3-21.6-0.3-32.7c0.4-0.5,0.7-0.8,1-1.1
	c1.7-1.5,3.4-3.1,5.2-4.4c0,6.1,0,11.9,0,17.8c0.1,6.6,0,13.1,0.4,19.7c0.5,7.8,3.2,15,7.9,21.3c8.8,11.8,20.5,18,35.4,18.1
	c3.2,0,6.1,0,9.3,0C62.4,378.5,65.2,378.6,68.1,378.7z"/>
<path class="st16" d="M6.4,301.4c-1.7,1.5-3.4,3.1-5.1,4.6c-0.3,0.3-0.6,0.6-1,0.9c-0.1-0.4-0.2-0.8-0.2-1.3c0-25.6,0-51.2,0.2-77.1
	c0.6-0.6,1-1.1,1.5-1.4c1.6-1.3,3.1-2.6,4.7-3.7C6.4,249.5,6.4,275.4,6.4,301.4z"/>
<path class="st17" d="M6.4,223.2c-1.6,1.3-3.2,2.6-4.7,3.9c-0.5,0.4-0.9,0.8-1.4,1.3C0.1,221.9,0,215.3,0,208.8
	c0-13.5,0-27.1,0.2-40.9c0.3-0.9,0.6-1.6,0.6-2.3c0-4.5,0-9,0-13.6c0-2.6,3-6.3,5.6-6.7C6.4,171.4,6.4,197.3,6.4,223.2z"/>
<path class="st18" d="M86.7,6.3c1-1.5,2-2.9,3-4.4c0.4-0.5,0.7-1.1,1-1.8C91.7,0,92.7,0,93.6,0c24.8,0,49.5,0,74.4,0.1
	c-0.5,0.6-1.3,0.9-1.8,1.4c-1.5,1.5-2.9,3.2-4.5,4.7C136.6,6.3,111.7,6.3,86.7,6.3z"/>
<path class="st18" d="M6.4,145.1c-2.5,0.6-5.6,4.3-5.6,6.9c0,4.5,0,9,0,13.6c0,0.7-0.3,1.4-0.5,2.2C0.1,167,0,166.2,0,165.4
	c0-24.8,0-49.5,0-74.4c1.3-1.2,2.5-2.3,3.7-3.4c0.8-0.7,1.6-1.3,2.5-1.8C6.4,105.7,6.4,125.4,6.4,145.1z"/>
<path class="st16" d="M270,0c0,0.2-0.1,0.5-0.3,0.6c-3.5,0.3-4.9,3.3-7.1,5.6c-19.9,0.1-39.7,0.1-59.4,0c0.8-1,1.5-1.9,2.3-2.7
	c1.1-1.2,2.2-2.3,3.3-3.4c7,0,14-0.1,21-0.1C243.1,0,256.4,0,270,0z"/>
<path class="st9" d="M397.1,154.1c-0.1-22.2-0.1-44.4-0.1-66.8c1.3-0.2,2.5-0.2,3.9,0c0.2,8.5,0.2,16.8,0.2,25.1
	c0,17.4,0,34.7,0,52.3c-0.4-0.4-1-0.9-1.1-1.5c-0.2-1,0-2.1-0.1-3.1c0-0.4-0.1-1.1-0.3-1.2c-2.1-0.7-1.9-2.5-2-4.1
	C397.7,154.5,397.4,154.3,397.1,154.1z"/>
<path class="st17" d="M208.6,0c-0.9,1.2-2,2.3-3.1,3.4c-0.8,0.8-1.5,1.7-2.5,2.7c-13.8,0.1-27.5,0.1-41.1,0.1
	c1.4-1.6,2.8-3.2,4.3-4.7c0.5-0.5,1.3-0.9,2-1.4C181.6,0,195,0,208.6,0z"/>
<path class="st7" d="M401.2,112.4c-0.1-8.3-0.1-16.6-0.1-25.1c1.3-0.2,2.5-0.2,3.9-0.2c0.3,11.4,0.4,22.8,0.5,34.4
	c-0.2-0.7-0.7-1.6-0.7-2.5c0-1.5-0.2-2.7-1.7-3.4c-0.4-0.2-0.6-1-0.9-1.5C401.9,113.6,401.7,113,401.2,112.4z"/>
<path class="st19" d="M392.9,205.9c0.5,1,1.3,2.2,1.4,3.4c0.2,3.2,0.1,6.4,0.1,9.7c0,1,0.5,1.6,1.1,2.4c0.9,1.2,1.4,3.1,1.4,4.7
	c0.2,4.8,0.1,9.5,0.1,14.3c0,6.8-0.1,13.6,0,20.4c0.1,3.9,0.4,7.9,0.8,11.8c0.1,0.6,0.4,1.5,0.8,1.8c2.4,1.4,2.2,3.7,2.4,5.9
	c0.2,3.1,0.1,6.1,0.1,9.2c0,1.9,0,3.7,0,5.7c0.4,6.2,0.7,12.1,1.1,18.1c0,0.7,0,1.5,0,2.2c0,1.2-0.1,2.2,1.5,2.8
	c0.6,0.2,1,1.8,1.1,2.7c0.3,7.6,0.6,15.2,0.8,22.8c0.1,1.7,0.2,3.1,1.6,4.5c0.7,0.7,0.2,2.6,0.3,4.1c-2.9,0.3-5.7,0.4-8.8,0.5
	c-0.2-1.3,0.3-2.9-1.9-3.3c-0.3,0-0.5-1.2-0.5-1.8c0.2-7.8,0.4-15.5,0.6-23.3c0-1.3-0.1-2.6-0.4-3.9c-0.2-0.8-0.6-1.9-1.2-2.2
	c-1.6-0.6-1.7-1.8-1.7-3.1c-0.1-2.9,0-5.8,0-8.7c0-0.9-0.2-1.7-0.2-2.8c-0.1-4.2,1.1-8.1,0.5-12.1c-0.1-0.7,0.7-1.6,1.2-2.4
	c0.4-0.6,1.2-1.1,1.2-1.7c0.1-2.9,0.1-5.8,0-8.7c0-0.7-0.4-1.6-1-2c-0.6-0.6-1.5-0.9-2.3-1.3c0-0.6,0-1.3,0-2.1
	C392.9,251,392.9,228.5,392.9,205.9z"/>
<path class="st20" d="M219.7,384.7c1-1.5,2.3-3,3.5-4.6c0.3-0.4,0.5-0.9,1-1.5c37.8-0.2,75.4-0.2,113.1-0.2c0.7,0,1.4,0,2,0
	c11.4-1.4,21.1-6.1,28.6-14.9c6.8-8,10.5-17.1,10.5-27.7c0-21,0-41.9,0-62.9c0-10.1,0-20.2,0-30.3c0.7-0.5,1.5-0.9,2.2-1.4
	c1.3-1,2.5-2,3.9-3.1c0.1,15.7,0.2,31.4,0.2,47.1c0,4,0,8,0,12.2c0,12.3,0,24.5,0,36.6c-0.1,12.5-3.8,23.8-12,33.3
	c-7.5,8.8-17.1,14.3-28.5,16.5c-2.3,0.4-4.6,0.8-7,0.8C298.1,384.7,259,384.7,219.7,384.7z"/>
<path class="st9" d="M405.6,224.2c-0.4-1.2-0.8-2.6-1.1-4.1c-0.2-1,0-2,0-3c0-1.3,0.3-2.8-1.8-3c-0.3,0-0.7-1-0.8-1.5
	c-0.2-2.6-0.3-5.2-0.4-7.7c-0.1-4.6-0.3-9.1-0.4-13.8c0.1-0.1,0.2-0.1,0.3,0c1.7,0.8,0.4,3,2.1,4.2c1,0.7,1.5,2.7,1.5,4.2
	C405.4,207.6,405.4,215.8,405.6,224.2z"/>
<path class="st12" d="M392.9,275.9c0.8,0.3,1.7,0.6,2.3,1.2c0.5,0.5,0.9,1.3,1,2c0.1,2.9,0.1,5.8,0,8.7c0,0.6-0.8,1.1-1.2,1.7
	c-0.5,0.8-1.3,1.6-1.2,2.4c0.6,4-0.5,7.9-0.5,12c-0.2-0.6-0.4-1.4-0.4-2.2C392.9,293.1,392.9,284.6,392.9,275.9z"/>
<path class="st21" d="M378.4,242.4c0,10.3,0,20.4,0,30.5c0,21,0,41.9,0,62.9c0,10.5-3.7,19.7-10.5,27.7
	c-7.5,8.8-17.2,13.5-28.6,14.9c-0.7,0.1-1.4,0-2,0c-37.6,0-75.3,0-113.1,0c-2.7,0-5.3,0-7.8,0c-43,0-86,0-129.1-0.2
	c-0.2-38.6-0.2-77.1-0.1-115.6c0.5-0.4,0.9-0.6,1.2-1c5.3-6.7,10.6-13.4,15.9-20.1c3-3.8,6-7.6,8.8-11.4c0.3-0.5,0.1-1.4,0.1-2.1
	c-0.7,0.1-1.4,0.2-2.1,0.4c-0.2,0.1-0.3,0.4-0.5,0.6c-7.1,9.1-14.3,18.2-21.5,27.2c-0.5,0.6-1.4,0.8-2.1,1.1c0-7.5,0-14.8,0.1-22.2
	c0.7-0.6,1.2-1.2,1.7-1.8c4-5,7.9-10.1,12-15.1c1.8-2.1,2.1-4,0.9-6.6c-2.1-4.4-2.8-9.3-2.7-14.1c0-3.9,1-7.6,2.2-11.4
	c2.7-8.5,7.7-14.8,15.2-19.6c8.4-5.4,17.5-7.2,27.3-5.6c1.4,0.2,2.4-0.3,3.3-1.4c3.7-4.8,7.4-9.6,11.2-14.3
	c7.6-9.7,15.3-19.4,23-29.1c5.8-7.3,11.6-14.6,17.3-22c1.8-2.3,3.6-4.7,5.5-7c5.9,0,11.6,0,17.3,0.1c-0.3,0.7-0.4,1.4-0.8,2
	c-7.3,9.3-14.6,18.6-21.9,27.9c-12.8,16.2-25.5,32.5-38.3,48.7c-0.6,0.8-1.1,1.6,0,2.4c1,0.8,1.5,0.1,2.1-0.7
	c5.5-7.1,11.1-14.1,16.6-21.1c7.2-9.2,14.5-18.3,21.7-27.5c7.2-9.1,14.4-18.2,21.5-27.4c1-1.3,1.8-2.9,2.9-4.3c15.9,0,31.7,0,47.6,0
	c35.3,0,70.4,0,105.5,0c0,50.8,0,101.6,0,152.4C378.4,240.4,378.4,241.3,378.4,242.4 M226.8,255.2c31.3-31.3,62.5-62.5,93.8-93.8
	c6.8-6.8,10.5-14.9,10.2-24.6c-0.3-10.3-4.4-18.7-12.4-25.1c-7-5.6-15-7.9-23.9-6.8c-8.4,1.1-15.5,4.8-21.4,10.9
	c-3.4,3.5-6.7,7-10.1,10.4c-5.1,5.2-10.3,10.3-15.4,15.4c-19.5,19.5-39,39-58.5,58.5c-1.9,1.9-2.3,1.9-4.2,0
	c-1.7-1.7-3.4-3.4-5.1-5.1c-7.2-7.1-14.4-14.2-21.6-21.2c-0.4-0.3-0.7-0.7-1.2-0.9c-0.3-0.2-1-0.2-1.2,0c-1.4,1.3-2.6,0.5-3.7-0.3
	c-6.3-4-13.2-5-20.5-3.9c-9.3,1.4-16,6.6-20.7,14.5c-3.5,6-4.8,12.5-3.4,19.4c1.1,5.5,3.1,10.6,7.3,14.7c1.3,1.2,3.6,2.5,2.1,5.1
	c-0.2,0.3,0.3,1.2,0.7,1.6c5,5.3,10,10.6,15.1,15.9c5,5.1,10.1,10.1,15.1,15.1c2.7,2.7,5.3,5.3,8,8c3.5,3.5,6.8,7.2,10.4,10.5
	c5.4,4.8,12,7.2,19.2,7.5c9.7,0.4,18-3,24.9-9.7C215.9,266.3,221.2,260.8,226.8,255.2z"/>
<path class="st22" d="M378.5,68.4c0,3,0,6-0.2,9.2c-33,0.2-65.9,0.2-99,0.2c-15.4,0-30.7,0-45.9-0.1c0.6-1,1.2-1.8,1.8-2.7
	c1.6-2.2,3.2-4.3,5-6.5c37.9,0,75.6,0,113.4,0C361.8,68.5,370.1,68.4,378.5,68.4C378.4,68.4,378.4,68.4,378.5,68.4z"/>
<path class="st23" d="M279.4,77.8c32.9,0,65.7,0,98.8,0c0.2,3,0.2,6,0.2,9.1c-35.1,0.2-70.2,0.2-105.5,0c0.2-0.6,0.5-1,0.8-1.5
	C275.7,82.9,277.5,80.3,279.4,77.8z"/>
<path class="st24" d="M161.7,6.3c13.8,0,27.5,0,41.3,0c19.9,0,39.6,0,59.5,0c24.1,0,48-0.1,71.9,0c12.9,0.1,24,4.7,32.7,14.3
	c7.4,8.1,11.3,17.8,11.1,29c-79.3,0.2-158.4,0.2-237.7,0.2c-7,0.1-13.9,0.1-20.8,0.4c-6,0.3-11.7,1.7-17.4,3.7
	c-6.6,2.3-12.9,5.2-18.5,9.3c-4.4,3.3-8.7,6.7-12.6,10.6c-4.7,4.7-8.4,10.2-11.7,16c-5.9,10.5-9.3,21.8-9.6,33.8
	c-0.4,13.9-0.1,27.8-0.1,41.8c0,71.1,0,142.1,0,213c-14.8-0.1-26.5-6.3-35.2-18.1C10,354,7.2,346.8,6.8,339
	c-0.4-6.5-0.3-13.1-0.4-19.7c-0.1-5.9,0-11.8,0-17.8c0-26.1,0-52,0-78.1c0-26.1,0-52,0-78.1c0-19.9,0-39.6,0-59.5
	c0-11.7,0-23.2,0-34.7c0.1-13.5,5-25,15.2-34c6.9-6.1,15-9.7,24.2-10.3c8.6-0.5,17.2-0.3,25.8-0.4c5,0,9.9,0,15,0
	C111.7,6.3,136.6,6.3,161.7,6.3z"/>
<path class="st25" d="M378.4,68.2c-8.3,0.2-16.6,0.2-24.9,0.2c-37.7,0-75.5,0-113.5,0c-36.4,0-72.5-0.1-108.6,0.1
	c-5.2,0-10.5,0.8-15.6,2c-14.7,3.7-26.4,12.1-35.3,24.2c-8.1,10.9-11.9,23.4-12,37c-0.1,13.4,0,26.8,0,40.2c0,68.8,0,137.6,0,206.5
	c-0.1,0.1-0.2,0.1-0.3,0.3c-2.9,0-5.8-0.2-8.8-0.5c-0.2-74.6-0.2-149-0.2-223.6c0-9.3,0-18.4,0-27.5c0-2,0.2-4.1,0.4-6.1
	c1.2-8.2,3.4-16,7.2-23.4c4.5-8.9,10.7-16.2,18.3-22.6c7.5-6.3,16.1-10.5,25.5-13.2c7.7-2.2,15.7-2.8,23.8-2.6c22,0,43.9,0,65.8,0
	c59.4,0,118.7,0,178.1,0C378.4,62.1,378.4,65.1,378.4,68.2z"/>
<path class="st26" d="M378.4,59c-59.4,0.2-118.7,0.2-178.1,0.2c-21.9,0-43.7,0-65.8-0.1c0.4-0.9,0.9-1.6,1.4-2.4
	c1.6-2.3,3.1-4.5,4.7-6.8c79.1,0,158.3,0,237.6,0C378.4,52.8,378.4,55.8,378.4,59z"/>
<path class="st27" d="M68.7,378.4c-0.2-68.8-0.2-137.6-0.2-206.5c0-13.4-0.1-26.8,0-40.2c0.1-13.6,3.9-26,12-37
	c8.9-12.1,20.6-20.5,35.3-24.2c5-1.3,10.4-2,15.6-2c36.1-0.2,72.2-0.1,108.4-0.1c-1.4,2.2-3,4.3-4.7,6.5c-0.6,0.8-1.2,1.7-2,2.7
	c-7.8,0.1-15.3,0.1-23.1,0.1c-24.4,0-48.6,0-72.9,0c-6.8,0-13.4,0.6-19.9,2.7c-7.4,2.3-14.1,6.1-19.9,11.2
	c-6.5,5.7-11.6,12.4-15,20.5c-2.7,6.5-4.5,13.2-4.5,20.2c-0.1,37.5,0,75,0,112.7c0,44.6,0,89,0,133.4
	C74.8,378.4,71.8,378.4,68.7,378.4z"/>
<path class="st28" d="M78,378.4c-0.2-44.4-0.2-88.8-0.1-133.4c0.5-0.4,0.9-0.6,1.1-1c1.9-2.4,3.6-4.8,5.6-7.1c0.7-0.8,1.6-1.4,2.5-2
	c0,0.2,0,0.2,0,0.3c0,7.3,0,14.6,0,22.3c0,2,0,3.6,0,5.2c0,38.5,0,76.9,0,115.5C84.1,378.4,81.1,378.4,78,378.4z"/>
<path class="st26" d="M59.2,154.8c0,74.4,0,148.8,0,223.4c-3,0.2-6,0.2-9.1,0.2c-0.2-70.9-0.2-141.9,0-213c1.8-2.2,3.4-4.2,5.1-6.1
	C56.4,157.7,57.8,156.3,59.2,154.8z"/>
<path class="st23" d="M87.2,235.1c-0.1,0-0.1-0.1-0.1-0.4c0-33.4-0.1-66.6,0.1-99.8c0-4.1,0.8-8.3,1.9-12.2
	c3.6-12.3,11.1-21.9,22-28.6c7.3-4.5,15.3-7,23.9-7c22.9-0.1,45.9,0,68.8,0c0,0,0,0,0,0c-1.8,2.3-3.6,4.7-5.4,7
	c-5.8,7.3-11.5,14.7-17.3,22c-7.6,9.7-15.3,19.4-23,29.1c-3.7,4.8-7.5,9.5-11.2,14.3c-0.9,1.2-1.9,1.7-3.3,1.4
	c-9.8-1.7-18.8,0.1-27.3,5.6c-7.5,4.8-12.5,11.1-15.2,19.6c-1.2,3.8-2.2,7.5-2.2,11.4c0,4.8,0.6,9.7,2.7,14.1
	c1.2,2.5,0.9,4.5-0.9,6.6c-4.1,4.9-8,10.1-12,15.1C88.4,233.9,87.9,234.5,87.2,235.1z"/>
<path class="st29" d="M226.7,255.3c-5.5,5.5-10.8,11-16.3,16.3c-6.9,6.7-15.2,10.1-24.9,9.7c-7.2-0.3-13.8-2.7-19.2-7.5
	c-3.7-3.3-7-7-10.4-10.5c-2.7-2.7-5.3-5.4-8-8c-5-5-10.1-10-15.1-15.1c-5.1-5.2-10.1-10.6-15.1-15.9c-0.4-0.4-0.9-1.3-0.7-1.6
	c1.5-2.6-0.8-3.9-2.1-5.1c-4.2-4.1-6.2-9.1-7.3-14.7c-1.4-6.9-0.1-13.5,3.4-19.4c4.7-7.9,11.4-13.1,20.7-14.5
	c7.3-1.1,14.1-0.2,20.5,3.9c1.1,0.7,2.3,1.6,3.7,0.3c0.2-0.2,0.8-0.1,1.2,0c0.4,0.2,0.8,0.6,1.2,0.9c7.2,7.1,14.4,14.2,21.6,21.2
	c1.7,1.7,3.4,3.4,5.1,5.1c1.9,1.9,2.3,1.9,4.2,0c19.5-19.5,39-39,58.5-58.5c5.1-5.1,10.3-10.2,15.4-15.4c3.4-3.4,6.7-6.9,10.1-10.4
	c5.9-6.1,12.9-9.8,21.4-10.9c9-1.2,16.9,1.2,23.9,6.8c8,6.4,12.1,14.8,12.4,25.1c0.2,9.7-3.4,17.8-10.2,24.6
	C289.3,192.7,258.1,224,226.7,255.3 M120.2,216.8c0.5,0.9,0.9,1.9,1.6,2.6c3.6,3.7,7.4,7.4,11,11.1c0.6,0.6,0.6,1.7,0.9,2.5
	c0.3,0.8,0.3,1.9,0.9,2.4c2.4,2.5,4.9,4.9,7.3,7.4c0.8,0.8,1.4,1.3,2.7,0.6c1.1-0.6,2.7,0.8,2.1,1.8c-0.9,1.6,0,2.4,0.9,3.3
	c3.5,3.5,6.9,7,10.3,10.4c4.1,4.1,7.9,8.6,12.3,12.3c6.4,5.4,14.1,6.7,22.3,5.1c5.7-1.1,10.6-3.7,14.7-7.8
	c37.2-37.3,74.5-74.5,111.7-111.8c4.6-4.6,7.1-10.4,7.5-16.8c0.7-10.1-2.6-18.5-10.7-25c-7.2-5.8-15.2-7.7-24.1-5.7
	c-5.8,1.3-10.9,4.2-15.2,8.5c-12.7,12.9-25.3,25.9-38,38.7c-16.3,16.5-32.8,32.8-49.2,49.2c-0.4,0.4-0.7,0.7-1.1,1c-1,1-2,0.9-2.9,0
	c-1-1-1.9-2.1-3.1-3c-0.5-0.4-1.4-0.3-2.1-0.4c-0.7-0.1-1.7,0.1-2.1-0.3c-0.4-0.5-0.3-1.5-0.5-2.3c-0.1-0.7,0-1.6-0.3-2
	c-2.6-2.8-5.4-5.5-8.1-8.2c-0.3-0.3-1.3-0.5-1.6-0.2c-1.2,1.1-2,0.4-2.8-0.5c-3.5-3.6-7.1-7.1-10.7-10.6c-0.7-0.7-1.9-1.1-3-1.7
	c-4.5-3.1-9.4-4.8-14.8-4.6c-6.6,0.2-12.3,2.6-17.3,7.4c-7,6.7-9,18.3-5.3,27.1C115.3,211.1,117.7,213.8,120.2,216.8z"/>
<path class="st28" d="M210.2,77.8c7.6,0,15.1,0,22.9,0c15.4,0,30.7,0,46.1,0c-1.7,2.6-3.6,5.1-5.5,7.7c-0.3,0.4-0.6,0.9-1,1.5
	c-15.8,0.1-31.5,0.1-47.6,0.1c-1.5,0-2.6,0-3.7,0c-5.7,0-11.4,0-17.3,0c-0.2,0-0.2,0-0.2-0.1c0.3-0.7,0.6-1.2,0.9-1.7
	C206.6,82.7,208.4,80.3,210.2,77.8z"/>
<path class="st23" d="M221.4,87.2c1.1-0.1,2.3-0.1,3.6-0.1c-0.7,1.4-1.5,3-2.5,4.3c-7.2,9.2-14.3,18.3-21.5,27.4
	c-7.2,9.2-14.5,18.3-21.7,27.5c-5.6,7-11.1,14.1-16.6,21.1c-0.6,0.8-1.1,1.4-2.1,0.7c-1-0.8-0.6-1.6,0-2.4
	c12.8-16.2,25.5-32.5,38.3-48.7c7.3-9.3,14.6-18.6,21.9-27.9C221,88.7,221.1,88,221.4,87.2z"/>
<path class="st23" d="M87.2,262.6c-0.1-1.6-0.1-3.2-0.1-5c0.7-0.6,1.6-0.8,2.1-1.4c7.2-9,14.3-18.1,21.5-27.2
	c0.2-0.2,0.3-0.5,0.5-0.6c0.7-0.2,1.4-0.3,2.1-0.4c0,0.7,0.2,1.6-0.1,2.1c-2.9,3.9-5.9,7.7-8.8,11.4c-5.3,6.7-10.6,13.4-15.9,20.1
	C88.1,262,87.7,262.3,87.2,262.6z"/>
<path class="st30" d="M59.2,154.6c-1.4,1.7-2.7,3.1-4.1,4.6c-1.7,1.9-3.3,3.9-5.1,5.9c-0.1-13.9-0.4-27.7,0-41.6
	c0.3-12,3.7-23.3,9.6-33.8c3.3-5.8,7-11.3,11.7-16c3.9-3.8,8.2-7.3,12.6-10.6c5.6-4.1,11.9-7.1,18.5-9.3c5.6-1.9,11.4-3.4,17.4-3.7
	c6.9-0.3,13.7-0.3,20.8-0.4c-1.4,2.3-3,4.5-4.6,6.8c-0.5,0.8-1,1.5-1.6,2.4c-8-0.1-16,0.5-23.7,2.7c-9.4,2.7-17.9,7-25.5,13.2
	c-7.6,6.3-13.8,13.7-18.3,22.6c-3.8,7.4-6,15.3-7.2,23.4c-0.3,2-0.4,4.1-0.4,6.1C59.2,136.2,59.2,145.3,59.2,154.6z"/>
<path class="st31" d="M210.1,77.8c-1.6,2.5-3.4,5-5.2,7.5c-0.3,0.5-0.6,1-0.9,1.7C181,87.1,158,87,135.1,87.1
	c-8.6,0-16.6,2.6-23.9,7c-11,6.7-18.4,16.2-22,28.6c-1.1,3.9-1.9,8.1-1.9,12.2c-0.2,33.2-0.1,66.3-0.1,99.7
	c-0.8,0.9-1.8,1.4-2.5,2.3c-1.9,2.3-3.7,4.8-5.6,7.1c-0.3,0.3-0.7,0.5-1.1,0.8c-0.1-37.5-0.2-75-0.1-112.5c0-7,1.8-13.7,4.5-20.2
	c3.3-8.1,8.5-14.8,15-20.5c5.8-5.1,12.5-8.9,19.9-11.2c6.5-2.1,13.2-2.7,19.9-2.7C161.4,77.8,185.7,77.8,210.1,77.8z"/>
<path class="st32" d="M120.2,216.5c-2.5-2.7-4.9-5.5-6.4-9c-3.7-8.8-1.6-20.4,5.3-27.1c4.9-4.8,10.7-7.1,17.3-7.4
	c5.4-0.2,10.3,1.6,15,4.8c1.3,1.2,2.4,2.1,3.4,3.2c10,10,20,20,30,30c2.1,2.1,2.1,2.1,4.3,0c30.2-30.2,60.3-60.4,90.5-90.4
	c5.9-5.9,13-8.9,21.5-7.5c10.3,1.6,17.1,7.4,20.3,17.3c3,9.4,0.8,17.8-6.1,24.7c-36.6,36.6-73.2,73.2-109.8,109.8
	c-3.3,3.3-7.2,5.9-11.8,7.1c-8.5,2.4-16.4,0.8-22.8-5.1c-7.6-6.9-14.7-14.3-22.1-21.6c-1-1-1.8-2-2.8-3c-3.7-3.7-7.4-7.3-11.1-10.9
	C130,226.5,125.1,221.5,120.2,216.5 M307.8,119.5c-0.6-0.3-1.3-0.5-1.9-0.8c-7.8-3.5-16.6-1.9-22.6,4.1c-31.5,31.5-63,63-94.4,94.4
	c-1.8,1.8-1.9,1.8-3.7,0c-4.3-4.4-8.5-8.8-12.8-13.2c-7.4-7.4-14.9-14.7-22.4-22c-0.4-0.3-0.7-0.6-1.2-0.9c-7.5-5.2-17-5.2-24.3,0.2
	c-6.7,5-9.3,11.8-8.1,20.1c0.7,4.7,3.1,8.6,6.4,11.9c15.7,15.7,31.4,31.4,47.1,47.1c1.2,1.2,2.5,2.4,3.8,3.5
	c8.6,7.2,20.2,6.7,28.2-1.3c35.8-35.8,71.6-71.6,107.3-107.3c1-1,2-1.9,2.9-2.9c3.5-4.1,6.4-8.7,6.3-14.3
	C318.4,130.1,315.1,123.7,307.8,119.5z"/>
<path class="st33" d="M120.2,216.7c4.9,4.8,9.8,9.8,14.8,14.8c3.7,3.7,7.4,7.3,11.1,10.9c1,1,1.8,2,2.8,3
	c7.3,7.2,14.5,14.6,22.1,21.6c6.5,5.9,14.3,7.5,22.8,5.1c4.6-1.3,8.4-3.8,11.8-7.1c36.6-36.6,73.2-73.2,109.8-109.8
	c6.9-6.9,9.1-15.3,6.1-24.7c-3.1-9.9-10-15.6-20.3-17.3c-8.5-1.4-15.7,1.7-21.5,7.5c-30.2,30.1-60.3,60.3-90.5,90.4
	c-2.2,2.2-2.2,2.2-4.3,0c-10-10-20-20-30-30c-1-1-2.2-2-3.3-3.1c0.9,0.4,2,0.7,2.8,1.5c3.6,3.5,7.1,7.1,10.7,10.6
	c0.8,0.8,1.6,1.6,2.8,0.5c0.3-0.2,1.2-0.1,1.6,0.2c2.8,2.7,5.5,5.4,8.1,8.2c0.4,0.4,0.2,1.3,0.3,2c0.1,0.8,0,1.8,0.5,2.3
	c0.3,0.4,1.4,0.2,2.1,0.3c0.7,0.1,1.6,0,2.1,0.4c1.1,0.9,2.1,2,3.1,3c1,1,1.9,1,2.9,0c0.4-0.3,0.7-0.7,1.1-1
	c16.4-16.4,32.8-32.7,49.2-49.2c12.7-12.8,25.3-25.8,38-38.7c4.2-4.3,9.3-7.2,15.2-8.5c8.9-2,16.9-0.1,24.1,5.7
	c8.1,6.5,11.4,15,10.7,25c-0.4,6.4-3,12.2-7.5,16.8c-37.2,37.3-74.5,74.5-111.7,111.8c-4.1,4.1-9,6.7-14.7,7.8
	c-8.2,1.6-15.9,0.2-22.3-5.1c-4.4-3.7-8.2-8.2-12.3-12.3c-3.4-3.5-6.9-7-10.3-10.4c-0.9-0.9-1.8-1.7-0.9-3.3c0.6-1-1.1-2.4-2.1-1.8
	c-1.3,0.7-1.9,0.2-2.7-0.6c-2.4-2.5-5-4.9-7.3-7.4c-0.5-0.6-0.6-1.6-0.9-2.4c-0.3-0.9-0.3-2-0.9-2.5c-3.6-3.8-7.4-7.4-11-11.1
	C121.1,218.7,120.7,217.7,120.2,216.7z"/>
<path class="st34" d="M307.9,119.6c7.2,4.2,10.5,10.5,10.5,18.5c0,5.6-2.8,10.2-6.3,14.3c-0.9,1-1.9,1.9-2.9,2.9
	c-35.8,35.8-71.6,71.6-107.3,107.3c-8,8-19.6,8.5-28.2,1.3c-1.3-1.1-2.6-2.3-3.8-3.5c-15.7-15.7-31.4-31.4-47.1-47.1
	c-3.3-3.3-5.7-7.2-6.4-11.9c-1.2-8.3,1.4-15.1,8.1-20.1c7.3-5.4,16.8-5.4,24.3-0.2c0.4,0.3,0.8,0.6,1.2,0.9c7.5,7.3,15,14.6,22.4,22
	c4.3,4.3,8.5,8.8,12.8,13.2c1.8,1.8,1.9,1.8,3.7,0c31.5-31.5,63-63,94.4-94.4c6-6,14.9-7.6,22.6-4.1
	C306.5,119,307.2,119.2,307.9,119.6 M144.9,229.6c10,10,20.1,20.1,30.1,30.1c1.1,1.1,2.4,2.1,3.8,2.9c6.3,3.7,14.9,2.3,20.3-3.1
	c35.5-35.6,71-71,106.5-106.6c1.8-1.8,3.6-3.6,5.2-5.6c2.2-2.9,3.7-6.3,3.5-10c-0.3-5.6-2.6-10.2-7.6-13.5
	c-6.8-4.5-15.3-3.2-20.7,2.2c-32.3,32.3-64.6,64.6-96.9,96.9c-1.9,1.9-1.9,1.9-4-0.1c-11.9-11.9-23.8-23.7-35.6-35.7
	c-3.8-3.8-8.2-6-13.7-5.7c-6.1,0.2-12.4,4.4-14.4,10.3c-2.5,6.9-1.1,13,4.1,18.3C131.9,216.5,138.3,222.9,144.9,229.6z"/>
<path class="st35" d="M144.9,229.5c-6.5-6.5-13-13-19.4-19.4c-5.2-5.2-6.5-11.3-4.1-18.3c2.1-5.8,8.3-10,14.4-10.3
	c5.6-0.2,9.9,1.9,13.7,5.7c11.8,11.9,23.7,23.8,35.6,35.7c2,2,2,2,4,0.1c32.3-32.3,64.6-64.6,96.9-96.9c5.4-5.4,13.9-6.7,20.7-2.2
	c5,3.3,7.2,7.9,7.6,13.5c0.2,3.7-1.3,7.1-3.5,10c-1.5,2-3.4,3.8-5.2,5.6c-35.5,35.5-71,71-106.5,106.6c-5.4,5.4-14,6.8-20.3,3.1
	c-1.4-0.8-2.7-1.8-3.8-2.9C165,249.6,155,239.6,144.9,229.5 M273.7,144.1c-28.3,28.3-56.6,56.6-84.8,84.8c-1.9,1.9-1.9,1.9-3.7,0
	c-13.1-13.1-26.2-26.2-39.3-39.4c-3.3-3.4-7.4-4.6-11.8-3.8c-4.7,0.8-7.9,4-9.3,8.4c-1.5,4.6-0.4,8.9,3.1,12.4
	c16.8,16.9,33.6,33.9,50.5,50.7c2.2,2.2,5,3.5,8.3,3.5c4.1,0.1,7.3-1.8,10-4.6c36.5-36.5,73-72.9,109.4-109.4
	c3.3-3.3,4.8-7.2,3.9-11.8c-0.9-4.4-3.5-7.6-7.7-9.1c-4.5-1.5-9-1.3-12.6,2.2C284.3,133.2,279.2,138.6,273.7,144.1z"/>
<path class="st36" d="M273.8,144c5.3-5.4,10.5-10.8,15.8-15.9c3.6-3.5,8.1-3.7,12.6-2.2c4.2,1.5,6.8,4.7,7.7,9.1
	c0.9,4.7-0.6,8.5-3.9,11.8c-36.5,36.5-72.9,73-109.4,109.4c-2.8,2.8-5.9,4.7-10,4.6c-3.3-0.1-6.1-1.3-8.3-3.5
	c-16.9-16.9-33.7-33.8-50.5-50.7c-3.5-3.5-4.5-7.8-3.1-12.4c1.4-4.4,4.6-7.6,9.3-8.4c4.5-0.8,8.5,0.4,11.8,3.8
	c13.1,13.2,26.2,26.2,39.3,39.4c1.8,1.8,1.8,1.8,3.7,0C217.2,200.6,245.5,172.3,273.8,144z"/>
</svg>
