<?xml version="1.0" encoding="utf-8"?>
<!-- Generator: Adobe Illustrator 28.1.0, SVG Export Plug-In . SVG Version: 6.00 Build 0)  -->
<svg version="1.1" id="Layer_1" xmlns="http://www.w3.org/2000/svg" xmlns:xlink="http://www.w3.org/1999/xlink" x="0px" y="0px"
	 viewBox="0 0 496.4 422" style="enable-background:new 0 0 496.4 422;" xml:space="preserve">
<style type="text/css">
	.st0{fill:#FCE624;}
	.st1{fill:#FCDB21;}
	.st2{fill:#FE920E;}
	.st3{fill:#FE970F;}
	.st4{fill:#FCD41F;}
	.st5{fill:#FDCE1D;}
	.st6{fill:#FE890B;}
	.st7{fill:#FDC41B;}
	.st8{fill:#FDB918;}
	.st9{fill:#FE9E11;}
	.st10{fill:#FDCD1D;}
	.st11{fill:#FDB216;}
	.st12{fill:#FDAC15;}
	.st13{fill:#FDC71C;}
	.st14{fill:#FDA713;}
	.st15{fill:#F58E6A;}
	.st16{fill:#FEA112;}
	.st17{fill:#F7A485;}
	.st18{fill:#FEA312;}
	.st19{fill:#F9B396;}
	.st20{fill:#F79C7A;}
	.st21{fill:#F69472;}
	.st22{fill:#FDBF19;}
	.st23{fill:#F9AC91;}
	.st24{fill:#F8A17E;}
	.st25{fill:#FA9951;}
	.st26{fill:#FA8A4C;}
	.st27{fill:#FB893C;}
	.st28{fill:#F99B6A;}
	.st29{fill:#FBA055;}
	.st30{fill:#F78C5D;}
	.st31{fill:#FE9C10;}
	.st32{fill:#FEB355;}
	.st33{fill:#FDAD57;}
	.st34{fill:#FDB057;}
	.st35{fill:#F4805D;}
	.st36{fill:#F48662;}
	.st37{fill:#F68355;}
	.st38{fill:#F69976;}
	.st39{fill:#FCA457;}
	.st40{fill:#F88245;}
	.st41{fill:#FB7F30;}
	.st42{fill:#F97D37;}
	.st43{fill:#FB904F;}
	.st44{fill:#FC8532;}
	.st45{fill:#FC9831;}
	.st46{fill:#F89264;}
	.st47{fill:#FA8C2F;}
	.st48{fill:#FA8239;}
</style>
<path class="st0" d="M0.1,157.8c0-0.7-0.1-1.5-0.1-2.2c0-44,0-88,0-132.1c0-5.3,2.2-10,5.4-14.1C9.6,4,15.2,1.3,21.7,0
	c0.5-0.1,1,0,1.5,0c45.6,0,91.1,0,136.7,0c1.3,0,2.2,0.3,3.1,1.2c15.6,15.7,31.3,31.3,46.9,47c1,1,1.9,1.3,3.2,1.3
	c42.5,0,84.9,0,127.5,0.1c-0.9,0.6-1.9,1.2-3,1.6c-8.2,2.6-16.4,5.1-24.6,7.7c-20,6.3-40,12.7-60.1,19c-11.8,3.7-23.5,7.4-35.3,11.1
	c-20,6.3-40.1,12.5-60,19.1c-6.8,2.3-13.8,3-20.8,3.2c-12.3,0.5-24.6,0.5-37,0.4c-6.4,0-12.6,1-18.5,3.3c-5.4,2.1-10.3,5.1-14.7,8.9
	c-5.1,4.4-8.7,9.9-12.5,15.4c-0.9,1.2-1.7,1.9-3.1,2.4c-13.7,4.3-27.4,8.7-41.1,13C6.7,155.9,3.4,156.8,0.1,157.8z"/>
<path class="st1" d="M0.1,157.9c3.3-1.1,6.6-2,9.8-3c13.7-4.3,27.4-8.7,41.1-13c1.4-0.4,2.3-1.1,3.1-2.4c3.8-5.4,7.4-11,12.5-15.4
	c4.4-3.8,9.3-6.8,14.7-8.9c5.9-2.3,12.1-3.3,18.5-3.3c12.3,0.1,24.7,0.1,37-0.4c7-0.3,13.9-1,20.8-3.2c19.9-6.6,40-12.8,60-19.1
	c11.8-3.7,23.5-7.4,35.3-11.1c20-6.3,40-12.7,60.1-19c8.2-2.6,16.4-5.1,24.6-7.7c1.1-0.3,2.1-1,3.2-1.6c14.3-0.1,28.7-0.2,43-0.2
	c4.6,0,8.9,1,12.9,3.2c1,0.5,1.9,1.2,2.9,2c-0.7,0.8-1.3,1.7-2,1.9c-12.6,4-25.1,8-37.7,12c-12,3.8-24,7.6-36,11.4
	c-14.6,4.6-29.2,9.2-43.8,13.8c-13.3,4.2-26.7,8.5-40,12.7c-4,1.3-8,2.9-12.1,3.6c-6.1,0.9-12.4,1.4-18.6,1.5
	c-13.5,0.3-27,0.3-40.5,0.4c-4.6,0.1-9.3,0.2-13.9,0.4c-1.6,0.1-3.2,0.4-4.8,0.6c-3.5,0.5-6.9,1.1-10.4,1.7c-1.1,0.2-2.1,0.7-3.3,1
	c-2.5,0-4.7,0-7,0c-7.5,0-15-0.1-22.5,0c-6.1,0.1-12.1,0.7-18,2.2c-10.8,2.8-19.7,8.5-26.4,17.4c-1.8,2.4-3.2,5-4.9,7.5
	c-1.4,0.9-3.1,1.4-3.8,2.6c-1.4,2.3-2.6,4.9-3,7.4c-0.8,4.4-1.1,8.9-1.5,13.4c-0.2,1.9-0.9,2.9-2.7,3.4c-13,4.1-26,8.2-39,12.3
	c-2.4,0.7-4.9,1.1-7.4,1.7C0.1,175.3,0.1,166.7,0.1,157.9z"/>
<path class="st2" d="M1.6,396.3c-0.5-3.5-1.2-7-1.5-10.5c-0.3-3.2,0-6.4,0.1-9.8c1.2-0.3,2.2-0.2,3.1-0.5c8.8-2.8,17.6-5.6,26.4-8.4
	c5.2-1.7,10.4-3.3,15.6-4.9c2-0.6,3.6-1.3,5-3.3c1.3-1.8,3.3-3.7,5.1-5c2.1-1.5,2.7-3.2,3-5.3c0.1-1.2,0.6-1.9,1.7-2.4
	c0.7-0.3,1.5-1.1,1.6-1.8c0.4-2.9,0.6-5.9,0.8-8.8c0.1-1.3,0.5-2.1,1.7-2.7c0.7-0.3,1.5-1.4,1.6-2.2c0.4-7.9,0.6-15.8,0.8-23.7
	c0-0.6,0-1.2,0-1.9c0.1-1.2,0.6-2.1,1.9-2.7c0.7-0.3,1.4-1.4,1.4-2.2c0.2-8.4,0.3-16.8,0.4-25.3c0.1-4.8,0.2-9.5,0.4-14.3
	c0.1-5.6,0.3-11.3,0.4-16.9c0.1-12.3,0-24.7,0-37c0-2.7,0.3-3.2,2.9-4c2.4-0.8,4.8-1.6,7.3-2.3c1.9-0.5,3.8-0.9,5.8-1.2
	c0,13.9,0.1,27.7,0.1,41.7c0,18.9,0,37.6,0,56.3c0,27.4,0,54.9,0,82.5c0,1.8,0.1,3.5,0,5.2c-0.3,5.6-1.1,11.2-3.6,16.3
	c-5.5,11.3-14.6,17.7-27,20c-1.4,0.2-2.7,0.4-3.9,0.6c-1.3,0-2.5,0-4-0.1c0.2-0.7,0.4-1.4,0.9-1.8c1.7-1.5,3.4-3,5.2-4.5
	c3.9-3.2,5.3-8,7.4-12.3c0.7-1.3,1.1-2.8,1.5-4.2c0.2-0.9,0.1-1.8-1.3-1.6c-0.4,0.1-1.1-0.4-1.1-0.7c-0.2-1.1-0.2-2.3-0.2-3.5
	c0.1-2.3,0.3-4.7,0.4-7c0.1-1.4,0.1-2.8-2-2c-0.2,0.1-0.6,0-0.7-0.1c-0.9-1.4-2-2.3-3.8-1.6c-0.1,0-0.6-0.3-0.6-0.6
	c-0.6-2.4-1.9-1.5-3.4-1c-1.2,0.5-2.5,0.7-3.7,1.1c-10.6,3.3-21.1,6.7-31.7,10C10.9,393.6,6.2,394.9,1.6,396.3z"/>
<path class="st3" d="M87,199.1c-1.9,0.5-3.8,0.9-5.7,1.4c-2.4,0.7-4.8,1.5-7.3,2.3c-2.5,0.8-2.9,1.3-2.9,4c0,12.3,0,24.7,0,37
	c0,5.6-0.2,11.3-0.4,16.9c-0.1,4.8-0.3,9.5-0.4,14.3c-0.1,8.4-0.2,16.8-0.4,25.3c0,0.8-0.7,1.9-1.4,2.2c-1.3,0.6-1.7,1.5-1.9,2.7
	c-0.1,0.6,0,1.2,0,1.9c-0.2,7.9-0.5,15.8-0.8,23.7c0,0.8-0.8,1.8-1.6,2.2c-1.3,0.6-1.7,1.4-1.7,2.7c-0.2,2.9-0.4,5.9-0.8,8.8
	c-0.1,0.7-0.9,1.5-1.6,1.8c-1.1,0.5-1.6,1.1-1.7,2.4c-0.2,2.1-0.9,3.7-3,5.3c-1.8,1.3-3.8,3.2-5.1,5c-1.4,2-3,2.7-5,3.3
	c-5.2,1.6-10.4,3.3-15.6,4.9c-8.8,2.8-17.6,5.6-26.4,8.4c-0.9,0.3-1.9,0.2-3.1,0.3c-0.2-5.3-0.2-10.7,0-16.2c1-0.3,1.9-0.5,2.7-0.7
	c6.7-2.1,13.4-4.2,20-6.3c8-2.5,16.1-5.1,24.1-7.6c1.5-0.5,2.5-1.3,3-3c0.2-0.8,1-1.5,1.8-1.9c1.1-0.6,1.6-1.2,1.9-2.5
	c0.3-1.7,0.8-3.4,2.6-4.5c0.6-0.4,0.9-1.4,1-2.2c0.5-4.4,0.8-8.8,1.2-13.3c0.1-1.3,0.4-2.6,2-3.3c0.7-0.3,1.2-1.6,1.2-2.5
	c0.3-3.4,0.4-6.8,0.4-10.2c0.1-5.2-0.1-10.5,0.1-15.7c0.1-2.9,0.5-5.8,0.8-8.6c0.1-0.6,0.5-1.3,1.1-1.6c1.3-0.7,1.8-1.8,1.8-3.2
	c0.1-5.3,0.3-10.5,0.4-15.8c0.1-11.8,0-23.6,0.1-35.4c0.9-0.7,0.9-1.4-0.1-2c0-2.8,0-5.4,0-8.1c0-0.2,0-0.2,0.1-0.3
	c0.3-1.1,0.4-2.2,0.6-3.2c0.2-0.7,0.4-1.8,0.9-2c1.8-0.8,2-2.2,2.1-3.8c0.1-11.2,0.2-22.4,0.4-33.6c0-3.6,0-7.2,0.4-10.7
	c1-10.9,11.1-21.7,21.9-23.1c7.9-1,16-1.8,24-1.9c52.3-0.4,104.6,0.5,156.9-0.8c7-0.2,14,0.1,21-0.1c3.4-0.1,6.8-1,10.2-1.6
	c2-0.3,4-0.8,6-0.9c3.2-0.2,6.4,0,9.7-0.1c0.6,0,1.3-0.5,2-0.7c1,0.1,1.9,0.2,2.8,0.5c-1.4,0.7-2.8,1.3-4.2,1.9
	c0,0.2,0.1,0.3,0.1,0.5c1.5-0.1,3-0.2,4.5-0.3c10.9-0.6,22,1.4,32.8-1.5c1.2-0.3,2.5-0.7,3.9-1.1c15.6,0,30.9,0,46.4,0.1
	c0.4,1,0.7,1.9,1,2.8c0,1.6,0,3.2,0.1,5c0,0.2,0,0.3-0.2,0.2c-27.6,0-55.1,0-82.6,0c-7.6,0-15.3,0-23,0c-3.3,0-6.4,0-9.6,0
	c-0.5,0-0.9,0-1.5,0c-13.5,0-26.9,0-40.3,0c-13.2,0-26.4,0-39.7,0c-33.6,0-67.1,0-100.5,0c-4.3,0-8.5,0.9-12.3,3.1
	c-8,4.8-12.7,11.6-12.8,21.1c-0.1,4.6,0,9.2,0,13.8C87.1,182.7,87,190.9,87,199.1z"/>
<path class="st4" d="M136.6,115.7c1-0.4,2.1-0.8,3.1-1c3.5-0.6,6.9-1.2,10.4-1.7c1.6-0.2,3.2-0.5,4.8-0.6c4.6-0.2,9.3-0.3,13.9-0.4
	c13.5-0.2,27-0.1,40.5-0.4c6.2-0.1,12.5-0.6,18.6-1.5c4.1-0.6,8.1-2.3,12.1-3.6c13.3-4.2,26.7-8.5,40-12.7
	c14.6-4.6,29.2-9.2,43.8-13.8c12-3.8,24-7.6,36-11.4c12.6-4,25.2-7.9,37.7-12c0.8-0.2,1.3-1.1,2.1-1.8c5.4,3.7,8.2,9.1,9.7,15.2
	c0.1,0.6,0,1.2-0.1,2.1c-1,0.9-1.8,1.8-2.8,2.3c-1.3,0.6-2.7,0.9-4.1,1.3c-11.9,3.7-23.7,7.5-35.6,11.3c-18.7,5.9-37.3,11.9-56,17.8
	c-5.3,1.7-10.5,3.9-16,4.9c-6.8,1.2-13.8,1.7-20.8,2c-10.1,0.4-20.2,0.3-30.3,0.5c-4.5,0.1-8.9,0.2-13.4,0.4
	c-2.2,0.1-4.3,0.2-6.4,0.6c-4.2,0.7-8.2,2.4-12.6,2c-0.4,0-0.8,0.5-1.3,0.7c-5.4,0-10.6,0-16,0c-17.8,0-35.4,0-53.2,0
	C139.4,115.7,138,115.7,136.6,115.7z"/>
<path class="st5" d="M210.3,115.7c0.4-0.2,0.8-0.7,1.1-0.7c4.4,0.4,8.4-1.4,12.6-2c2.1-0.3,4.3-0.5,6.4-0.6
	c4.4-0.2,8.9-0.3,13.4-0.4c10.1-0.2,20.2-0.1,30.3-0.5c7-0.3,14-0.7,20.8-2c5.4-1,10.7-3.2,16-4.9c18.7-5.9,37.3-11.9,56-17.8
	c11.9-3.8,23.7-7.5,35.6-11.3c1.4-0.4,2.8-0.7,4.1-1.3c1-0.5,1.8-1.4,2.8-2.1c0.2,0.4,0.4,0.9,0.4,1.4c0,5.7,0,11.4-0.2,17.3
	c-0.6,0.3-1,0.3-1.4,0.4c-7.7,2.4-15.5,4.8-23.2,7.2c-11.3,3.6-22.7,7.2-34,10.8c-2.1,0.7-4.3,1.2-6.5,1.4
	c-5.5,0.4-11.1,0.6-16.7,0.8c-12,0.3-24,0.5-36,0.8c-2.2,0.1-4.4,0.1-6.4,0.7c-5.1,1.3-10.3,1.8-15.6,1.6c-1.6-0.1-3.2,0.2-4.8,0.4
	c-0.3,0-0.6,0.5-1.1,0.7c-8,0-15.8,0-23.8,0C229.9,115.7,220.1,115.7,210.3,115.7z"/>
<path class="st6" d="M1.6,396.4c4.6-1.5,9.2-2.8,13.8-4.2c10.6-3.3,21.1-6.7,31.7-10c1.2-0.4,2.5-0.6,3.7-1.1c1.4-0.6,2.8-1.4,3.4,1
	c0.1,0.2,0.5,0.6,0.6,0.6c1.8-0.7,2.9,0.2,3.8,1.6c0.1,0.1,0.5,0.2,0.7,0.1c2.1-0.8,2.1,0.5,2,2c-0.1,2.3-0.3,4.7-0.4,7
	c0,1.2,0,2.3,0.2,3.5c0,0.3,0.8,0.8,1.1,0.7c1.4-0.2,1.5,0.7,1.3,1.6c-0.4,1.4-0.8,2.9-1.5,4.2c-2.2,4.3-3.5,9-7.4,12.3
	c-1.8,1.5-3.5,2.9-5.2,4.5c-0.5,0.4-0.7,1.1-1.1,1.8c-5,0.2-10,0.5-15,0.1c-8.2-0.7-15.5-3.8-21.6-9.5
	C7.1,407.9,3.7,402.7,1.6,396.4z"/>
<path class="st7" d="M0.1,253.4c0-9.1,0-18.1,0.1-27.4c6.2-2,12.1-3.7,18.1-5.6c9.4-2.9,18.8-5.9,28.2-8.9c1.6-0.5,2.5-1.4,2.7-3.1
	c0.2-3.3,0.4-6.6,0.8-10c0.2-2.3-0.4-5,2.6-6.2c0.4-0.2,0.4-1,0.7-1.4c0.2-0.4,0.5-0.8,0.8-0.9c0,2.5,0,4.9,0,7.4
	c0,6.5,0.2,12.8-0.1,19.1c-0.1,2.7,0.1,5.9-2.8,7.7c-0.4,0.3-0.6,1.1-0.7,1.7c-0.2,1.5-0.3,2.9-0.5,4.4c-0.2,2.2-0.5,4.4-0.7,6.6
	c-0.2,1.6-1.1,2.4-2.7,2.8c-14.5,4.5-28.9,9.1-43.4,13.6C2.2,253.7,1.1,253.4,0.1,253.4z"/>
<path class="st8" d="M0.1,253.6c1-0.2,2.2,0.1,3.1-0.2c14.5-4.5,28.9-9.1,43.4-13.6c1.5-0.5,2.5-1.2,2.7-2.8
	c0.2-2.2,0.5-4.4,0.7-6.6c0.2-1.5,0.3-2.9,0.5-4.4c0.1-0.6,0.3-1.4,0.7-1.7c2.9-1.9,2.7-5,2.8-7.7c0.3-6.3,0.1-12.6,0.2-19.1
	c1.4-1.4,2.7-2.6,4-3.7c0,4.8,0,9.4,0,14.1c0,4,0,7.9-0.1,11.8c-0.6,0.8-0.9,2-1.6,2.4c-2.2,1.2-2.3,3-2.3,5.1
	c0,5.8,0.2,11.5-0.1,17.3c-0.1,3.1,0.1,6.5-3,8.7c-0.4,0.3-0.6,1.2-0.7,1.9c-0.3,2.1-0.5,4.3-0.8,6.4c-0.4,2.1-0.9,3.8-3.5,4.6
	c-14.2,4.3-28.3,8.8-42.4,13.3c-1.4,0.4-2.4,0.5-3.5-0.5C0.1,270.4,0.1,262.1,0.1,253.6z"/>
<path class="st9" d="M66.3,211.4c0,2.6,0,5.2,0,8.2c0,0.8,0,1.4,0,1.9c0,11.8,0,23.6,0,35.3c0,5.3-0.2,10.5-0.4,15.8
	c0,1.4-0.5,2.5-1.8,3.2c-0.5,0.3-1,1-1.1,1.6c-0.4,2.9-0.7,5.8-0.8,8.6c-0.1,5.2,0,10.5-0.1,15.7c0,3.4-0.2,6.8-0.4,10.2
	c-0.1,0.9-0.6,2.2-1.2,2.5c-1.6,0.7-1.8,2-2,3.3c-0.5,4.4-0.8,8.8-1.2,13.3c-0.1,0.8-0.4,1.8-1,2.2c-1.8,1.1-2.2,2.8-2.6,4.5
	c-0.3,1.3-0.8,1.9-1.9,2.5c-0.7,0.4-1.6,1.2-1.8,1.9c-0.5,1.7-1.5,2.5-3,3c-8,2.5-16.1,5.1-24.1,7.6c-6.7,2.1-13.3,4.2-20,6.3
	c-0.8,0.3-1.7,0.4-2.7,0.5c-0.2-4.8-0.2-9.7,0-14.7c4.3-1.4,8.5-2.7,12.6-4c6-1.9,12.1-3.8,18.1-5.7c5.3-1.7,10.5-3.3,15.8-5
	c1.5-0.5,2.6-1.2,3-3.1c0.4-1.8,0.3-4.1,2.9-4.7c0.3-0.1,0.6-0.5,0.6-0.9c0.6-3,1.2-6.1,1.5-9.1c0.2-1.3,0.3-2.2,1.6-2.8
	c0.6-0.3,1-1.3,1-2c0.3-5.1,0.5-10.2,0.8-15.5c0-0.5,0-0.9,0.1-1.4c0-0.4,0-0.7-0.1-1.2c0-0.5,0-0.9,0.1-1.4
	c0.6-1.5,1.2-2.8,2.7-3.5c0.3-0.1,0.4-0.9,0.5-1.3c0.3-5.3,0.5-10.7,0.8-16.2c0-5.1,0-10.1,0-15.3c0-6.4,0-12.6,0-19
	c0-4.3,0-8.4,0.1-12.5c3.2-0.7,3.2-0.8,3.2-3.8c0-1.2-0.1-2.5,0-3.7C65.6,212.3,66,211.8,66.3,211.4z"/>
<path class="st10" d="M54,189.8c-0.3,0.4-0.5,0.7-0.8,1.1c-0.3,0.5-0.3,1.3-0.7,1.4c-3,1.2-2.4,3.9-2.6,6.2c-0.4,3.3-0.5,6.6-0.8,10
	c-0.1,1.7-1,2.6-2.7,3.1c-9.4,2.9-18.8,5.9-28.2,8.9c-6,1.9-12,3.6-18.1,5.4c-0.2-7.4-0.2-14.9,0-22.5c0.7-0.3,1.3-0.3,1.8-0.4
	c14.9-4.7,29.7-9.4,44.6-14.1c1.5-0.5,2.3-1.3,2.4-2.8c0.3-3.8,0.4-7.6,0.9-11.4c0.4-2.7-0.6-6,2.7-7.7c0.3-0.2,0.3-0.9,0.6-1.3
	c0.2-0.4,0.5-0.8,0.8-0.9c0,2.9,0,5.6,0,8.6C54,178.8,54,184.3,54,189.8z"/>
<path class="st11" d="M0.1,278.9c1.1,0.8,2.1,0.8,3.5,0.4c14.1-4.5,28.2-9,42.4-13.3c2.6-0.8,3.1-2.5,3.5-4.6
	c0.4-2.1,0.5-4.3,0.8-6.4c0.1-0.7,0.2-1.5,0.7-1.9c3.1-2.2,2.8-5.6,3-8.7c0.3-5.8,0.1-11.5,0.1-17.3c0-2,0.2-3.9,2.3-5.1
	c0.7-0.4,1-1.6,1.6-2.2c0.1,5.4,0.1,10.6,0.1,16c0,1.8,0,3.4-0.1,5.1c-0.3,0.5-0.6,0.9-0.6,1.4c0,1.9,0.3,3.9-1.9,4.9
	c-0.3,0.1-0.5,0.7-0.5,1.2c-0.3,3.1-0.7,6.1-0.9,9.2c-0.2,3.4-0.2,6.8-0.4,10.2c-0.1,1.4-0.4,2.7-1.9,3.3c-0.5,0.2-0.8,1-0.9,1.6
	c-0.4,2.4-1,4.7-1,7.1c0,2.9-1.6,3.9-4,4.6c-12.7,3.9-25.4,8-38.1,12c-2.5,0.8-5,1.4-7.5,2.1C0.1,292,0.1,285.5,0.1,278.9z"/>
<path class="st4" d="M54,164.5c-0.3,0.4-0.5,0.7-0.7,1.1c-0.2,0.4-0.2,1.1-0.6,1.3c-3.3,1.7-2.3,5-2.7,7.7
	c-0.5,3.8-0.6,7.6-0.9,11.4c-0.1,1.5-0.9,2.3-2.4,2.8c-14.9,4.6-29.7,9.4-44.6,14.1c-0.5,0.2-1.1,0.2-1.8,0.3
	c-0.2-6.3-0.2-12.7-0.2-19.2c2.5-0.7,5-1.1,7.4-1.9c13-4.1,26-8.2,39-12.3c1.8-0.6,2.6-1.6,2.7-3.4c0.4-4.5,0.7-9,1.5-13.4
	c0.5-2.6,1.7-5.2,3-7.4c0.7-1.2,2.4-1.7,3.8-2.5c-0.4,1.5-0.9,2.9-1.4,4.4C54.2,153.1,53.8,158.7,54,164.5z"/>
<path class="st12" d="M0.1,298.6c2.5-0.9,5-1.5,7.5-2.3c12.7-4,25.4-8.1,38.1-12c2.4-0.8,4-1.7,4-4.6c0-2.4,0.6-4.7,1-7.1
	c0.1-0.6,0.5-1.4,0.9-1.6c1.5-0.7,1.9-2,1.9-3.3c0.2-3.4,0.2-6.8,0.4-10.2c0.2-3.1,0.6-6.1,0.9-9.2c0-0.4,0.2-1,0.5-1.2
	c2.3-1,1.9-3.1,1.9-4.9c0-0.4,0.3-0.9,0.6-1.2c0.1,4.5,0.1,8.8,0.1,13.3c0,4.5,0,8.9-0.1,13.3c-0.8,0.6-1.4,1.1-2,1.8
	c-0.5,0.6-1.1,1.2-1.2,1.9c-0.5,4.9-0.7,9.8-1.2,14.8c-0.1,1.5-0.2,3.6-1.2,4.2c-2.2,1.4-2.4,3.3-2.5,5.4c-0.3,4.1-0.8,4.8-4.3,5.9
	c-11.6,3.6-23.1,7.4-34.7,10.9c-3.5,1.1-7.2,1.8-10.7,2.7C0.1,309.7,0.1,304.2,0.1,298.6z"/>
<path class="st13" d="M263.8,115.7c0.3-0.2,0.6-0.7,1-0.7c1.6-0.2,3.2-0.5,4.8-0.4c5.3,0.2,10.5-0.3,15.6-1.6
	c2.1-0.5,4.3-0.6,6.4-0.7c12-0.3,24-0.5,36-0.8c5.6-0.1,11.1-0.4,16.7-0.8c2.2-0.2,4.4-0.7,6.5-1.4c11.3-3.6,22.7-7.2,34-10.8
	c7.7-2.4,15.5-4.8,23.2-7.2c0.4-0.1,0.8-0.2,1.4-0.2c0.2,5.3,0.2,10.7,0.1,16.2c-1-0.8-2-0.7-3.1-0.3c-3.9,1.2-7.8,2.7-11.8,3.4
	c-4.7,0.8-9.6,1-14.4,1.2c-8,0.3-16.1,0.3-24.1,0.4c-4.6,0.1-9.1,0.2-13.7,0.4c-0.4,0-0.7,0.1-1.1,0.1c-4.4,0.7-8.8,1.4-13.1,2.1
	c-1.3,0.2-2.5,0.7-3.9,1.1c-1.2,0.1-2.2,0.2-3.4,0.4c-2,0-3.9,0-5.9-0.1c-0.9-0.2-1.6-0.3-2.3-0.3
	C296.4,115.7,280.1,115.7,263.8,115.7z"/>
<path class="st14" d="M0.1,315.3c3.6-1.1,7.2-1.8,10.8-2.9c11.6-3.6,23.2-7.3,34.7-10.9c3.5-1.1,4-1.8,4.3-5.9
	c0.2-2.1,0.4-4,2.5-5.4c0.9-0.6,1-2.8,1.2-4.2c0.5-4.9,0.7-9.8,1.2-14.8c0.1-0.7,0.7-1.3,1.2-1.9c0.6-0.6,1.2-1.2,2-1.6
	c0.1,2.4,0.1,4.6,0.1,7c0,3.5,0,6.9-0.1,10.3c-0.4,0.8-0.7,1.5-1,2.2c-0.2,0.5-0.6,1-0.9,1.5c-0.6,0.9-1.5,1.8-1.6,2.8
	c-0.4,3.5-0.5,7-0.9,10.5c-0.1,1.1-0.3,2.5-1,3c-1.7,1.4-2.3,3.2-2.8,5.3c-0.5,2.2-1.4,4-4,4.4c-2.2,0.4-4.3,1.3-6.4,1.9
	c-11.3,3.6-22.6,7.2-33.9,10.8c-1.8,0.6-3.6,0.9-5.4,1.4C0.1,324.4,0.1,320,0.1,315.3z"/>
<path class="st15" d="M496.3,338.6c0,5.6,0.1,11.3,0.1,16.9c0,12.2,0.1,24.4,0,36.6c-0.1,11.3-5.3,19.8-14.9,25.7
	c-4.6,2.8-9.6,4.1-15,4.1c-7.2,0-14.5,0-22-0.2c-1.1-2.1-1.9-4.2-2.5-6.2c1.7,0,3.2,0,4.8,0c3.7,0,7.2,0,10.8,0
	c4.1-0.1,8.3,0.1,12.4-0.4c11.3-1.5,19.9-11.1,20.1-22.9c0.2-13.9,0.1-27.9,0.1-42c0-1.9,0-3.7,0.1-5.4c1.4-1.6,2.6-3.3,4-4.8
	C494.7,339.5,495.6,339.1,496.3,338.6z"/>
<path class="st12" d="M409.6,119.8c0,1.5,0,3-0.1,4.6c-1,0-1.7-0.1-2.5-0.1c-11.7,0-23.5,0-35.4,0c-17,0-33.9,0-51,0
	c-28,0-55.7,0-83.5-0.1c0.6-0.3,1.2-0.6,1.7-0.6c12-0.1,23.9-0.4,35.9-0.3c4.8,0,9.2-1.6,13.8-2.4c0.2,0,0.4-0.4,0.7-0.6
	c1.2,0,2.2,0,3.4,0c27.6,0,55,0,82.6,0C386.8,120.1,398.2,120,409.6,119.8z"/>
<path class="st16" d="M58.1,292.1c-0.2,5.1-0.5,10.2-0.8,15.4c0,0.7-0.5,1.7-1,2c-1.3,0.7-1.4,1.6-1.6,2.8c-0.4,3.1-1,6.1-1.5,9.1
	c-0.1,0.3-0.4,0.8-0.6,0.9c-2.6,0.6-2.5,2.9-2.9,4.7c-0.4,1.9-1.5,2.6-3,3.1c-5.3,1.7-10.5,3.3-15.8,5c-6,1.9-12,3.8-18.1,5.7
	c-4.1,1.3-8.3,2.5-12.6,3.8c-0.2-2.6-0.2-5.2,0-8c3.8-1.3,7.5-2.5,11.2-3.6c11.9-3.7,23.7-7.5,35.6-11.2c1.5-0.5,2.3-1.2,2.7-2.9
	c0.4-1.9,0.3-4.3,2.9-5.1c0.4-0.1,0.6-1,0.7-1.6c0.5-3.9,1-7.8,1.5-11.7c0.1-0.6,0.3-1.4,0.8-1.6c2-0.8,1.7-2.4,1.8-4
	C57.4,293.8,57.9,293,58.1,292.1z"/>
<path class="st17" d="M496.3,173c0,2.1,0.1,4.2,0.1,6.3c0,21.7,0,43.4-0.2,65.4c-1.3,1.4-2.4,2.6-3.6,3.7c-0.7,0.7-1.7,1.1-2.5,1.5
	c0-10.8,0-21.5,0-32.4c0-11.3,0-22.5,0-33.9c0-1.4,0-2.7,0.1-4c0.7-0.7,1.4-1.3,2-2C493.5,176.2,494.9,174.6,496.3,173z"/>
<path class="st18" d="M58.1,291.9c-0.2,1-0.7,1.9-0.7,2.8c-0.1,1.6,0.2,3.2-1.8,4c-0.4,0.2-0.7,1-0.8,1.6c-0.5,3.9-1,7.8-1.5,11.7
	c-0.1,0.6-0.3,1.5-0.7,1.6c-2.6,0.8-2.5,3.2-2.9,5.1c-0.4,1.6-1.2,2.4-2.7,2.9c-11.9,3.7-23.7,7.5-35.6,11.2
	c-3.7,1.2-7.3,2.3-11.1,3.4c-0.2-2.3-0.2-4.7-0.2-7.2c1.8-0.6,3.6-1,5.4-1.6c11.3-3.6,22.6-7.2,33.9-10.8c2.1-0.7,4.2-1.5,6.4-1.9
	c2.6-0.5,3.5-2.3,4-4.4c0.5-2,1-3.8,2.8-5.3c0.7-0.6,0.9-2,1-3c0.3-3.5,0.4-7,0.9-10.5c0.1-1,1.1-1.9,1.6-2.8
	c0.3-0.5,0.7-0.9,0.9-1.5c0.3-0.7,0.6-1.4,1-2c0.1,1,0.1,1.9,0.1,2.8c0,0.4,0,0.8-0.1,1.4c0,0.5,0,0.9,0.1,1.2
	C58.1,291,58.1,291.4,58.1,291.9z"/>
<path class="st8" d="M375.1,120.2c-27.4,0-54.8,0-82.4-0.1c0.5-0.4,1.1-0.8,1.7-0.9c4.3-0.7,8.6-1.3,13-2c2.6-0.4,5.2-0.7,7.8-1.1
	c1.9,0,3.7,0,5.9,0.1c2.8,0.1,5.2,0.2,7.7,0.2c0.3,0,0.6-0.4,1.1-0.7c7.7,0,15.3,0,23.1,0c19,0,37.8,0,56.7,0c0,0.3,0,0.6-0.1,0.9
	c-0.8,0-1.4-0.2-2-0.2c-4.8-0.1-9.4,0.7-14.1,1.6c-5.3,1-10.9,1-16.3,1.4C376.4,119.5,375.8,119.9,375.1,120.2z"/>
<path class="st19" d="M437.2,136.6c12.4,0,24.8-0.2,37.2,0c4.6,0.1,8.8,2,12.3,5c2,1.7,3.7,3.8,5.5,6c-0.8,1.3-1.4,2.4-2.3,3.3
	c-0.6,0.6-1.4,1-2.1,1.4c-4.2-6.9-10.3-9.8-18.3-9.6c-7.7,0.2-15.3,0-23.2,0c-3.2,0-6.1,0-9.1-0.2
	C437.2,140.5,437.2,138.6,437.2,136.6z"/>
<path class="st20" d="M496.3,267.9c0,11.9,0,23.8-0.1,35.9c-1.1,1.3-2,2.4-3,3.5c-1.1,1.2-2.1,2.5-3.2,3.5c0-13.1,0-26,0.1-38.9
	c0.5-0.3,0.9-0.6,1.3-0.9C493.1,270,494.7,269,496.3,267.9z"/>
<path class="st21" d="M490.1,311.1c1.1-1.2,2.1-2.4,3.2-3.7c0.9-1.1,1.9-2.2,3-3.4c0.1,11.4,0.2,22.8,0.1,34.4
	c-0.7,0.7-1.6,1-2.2,1.7c-1.4,1.5-2.6,3.2-4,4.6c-0.1-9.3-0.1-18.5-0.1-27.9C490.1,314.8,490.1,312.9,490.1,311.1z"/>
<path class="st9" d="M371.7,124.3c11.7,0,23.5,0,35.2,0c0.8,0,1.6,0.1,2.5,0.3c0.2,1.2,0.2,2.3,0,3.6c-0.4,0.2-0.7,0.2-0.9,0.2
	c-15.4,0-30.8,0-46.5,0c-10.4,0-20.5,0-30.5-0.1c0.7-0.3,1.4-0.6,2.1-0.6c6.3,0,12.5,0,18.8-0.1c2.4,0,4.8-0.3,7.2-0.7
	c3.7-0.6,7.4-1.2,11.1-1.9C371.1,124.9,371.4,124.5,371.7,124.3z"/>
<path class="st7" d="M352.8,115.7c-7.6,0-15.1,0-23.1,0c-2,0-3.6,0-5.2,0c1.2-0.4,2.4-0.8,3.7-1.1c4.4-0.8,8.8-1.4,13.1-2.1
	c0.4-0.1,0.7-0.1,1.1-0.1c4.6-0.1,9.1-0.3,13.7-0.4c8-0.2,16.1-0.2,24.1-0.4c4.8-0.2,9.6-0.4,14.4-1.2c4-0.7,7.9-2.1,11.8-3.4
	c1.2-0.4,2.1-0.5,3.1,0.5c0.1,1.3,0.2,2.5,0,4c-4.4,0.3-8.6,0.5-12.8,0.5c-7.9,0.2-15.7,0.2-23.6,0.4c-1.9,0-3.8,0.2-5.7,0.5
	c-4.5,0.8-8.8,2.5-13.5,2.1C353.5,115,353.1,115.5,352.8,115.7z"/>
<path class="st22" d="M352.9,115.7c0.2-0.2,0.6-0.7,1-0.7c4.7,0.5,9-1.3,13.5-2.1c1.9-0.3,3.8-0.5,5.7-0.5
	c7.9-0.2,15.7-0.3,23.6-0.4c4.2-0.1,8.4-0.2,12.8-0.4c0.2,1.3,0.2,2.5,0.2,3.9C390.8,115.7,372,115.7,352.9,115.7z"/>
<path class="st23" d="M487.8,152.6c0.7-0.5,1.5-0.9,2.1-1.5c0.9-1,1.5-2.1,2.3-3.2c2,3,3.5,6.3,3.9,9.9c0.1,1.1,0.2,2.2,0.2,3.3
	c0,3.9,0,7.8,0,11.8c-1.4,1.7-2.8,3.3-4.2,4.9c-0.6,0.7-1.2,1.3-2,1.8c-0.1-6.4-0.1-12.6-0.1-18.9c-0.1-0.5-0.2-0.9-0.4-1.5
	c0-0.5,0-0.9,0-1.5c-0.5-1.2-1-2.2-1.4-3.4c-0.1-0.5-0.3-0.9-0.4-1.4C487.8,152.7,487.8,152.6,487.8,152.6z"/>
<path class="st24" d="M496.3,267.7c-1.6,1.2-3.2,2.3-4.8,3.4c-0.4,0.3-0.8,0.6-1.3,0.7c-0.1-7.1-0.1-14.1-0.1-21.1
	c0-0.3,0-0.5,0-0.6c0.8-0.5,1.8-1,2.5-1.6c1.2-1.1,2.3-2.3,3.6-3.5C496.3,252.4,496.3,260,496.3,267.7z"/>
<path class="st25" d="M52.7,421.9c1.1-0.2,2.3-0.5,3.9-0.6c0.9,0.1,1.5,0.2,2.1,0.2c35.3,0,70.5,0,106,0c22.5,0,44.8,0,67.3,0
	c14.8,0,29.5,0,44.1,0.1c0,0.1,0,0.2,0,0.2c-0.4,0-0.9,0.1-1.3,0.1c-73.7,0-147.3,0-221,0C53.5,421.9,53.2,421.9,52.7,421.9z"/>
<path class="st26" d="M441.7,421.9c-1.9,0-3.7,0-5.9,0c-1.1-0.2-1.9-0.2-2.7-0.4c-0.6-0.4-1.2-0.8-1.8-1c-2.1-0.9-4.3-1.8-6.4-2.8
	c-0.9-0.4-1.5-1.3-2.1-2c1.8,0,3.4,0,5.2,0c2.5,0,4.9,0,7.4,0c0.2,0,0.2,0,0.3,0.1c0.4,0.7,0.8,1.2,1.3,1.7
	C438.5,418.9,440.1,420.4,441.7,421.9z"/>
<path class="st11" d="M375.3,120.2c0.5-0.2,1.2-0.7,1.9-0.7c5.4-0.5,11-0.4,16.3-1.4c4.7-0.9,9.3-1.7,14.1-1.6c0.6,0,1.2,0.2,2,0.3
	c0.2,0.9,0.2,1.8,0.2,2.8C398.2,120,386.8,120.1,375.3,120.2z"/>
<path class="st27" d="M433.1,421.5c0.8,0.1,1.6,0.1,2.5,0.2c-0.3,0.1-0.7,0.1-1.2,0.1c-52.7,0-105.3,0-158.1,0c-0.2,0-0.2-0.2,0-0.3
	c11.8-0.1,23.5-0.1,35.3-0.1c28.8,0,57.5,0,86.3,0C409.8,421.6,421.5,421.5,433.1,421.5z"/>
<path class="st28" d="M418.6,136.6c3,0,6,0,9.1,0.1c0.2,2.2,0.2,4.1,0,6.1c-3.2,0-6.2,0-9.1-0.2
	C418.6,140.5,418.6,138.6,418.6,136.6z"/>
<path class="st24" d="M427.9,142.9c0-2,0-3.9,0-6.1c3-0.2,6-0.2,9.1-0.2c0.2,2,0.2,3.9,0.2,6.1c0,0.2,0,0.2-0.2,0.2
	C433.9,142.9,430.9,142.9,427.9,142.9C427.9,142.9,427.9,142.9,427.9,142.9z"/>
<path class="st29" d="M418.4,136.6c0.2,2,0.2,3.9,0.2,6.1c0,0.2,0,0.2-0.2,0.2c-3,0-5.9,0-8.8-0.2c0-2.1,0-4.1,0-6
	c0,0,0-0.1,0.1-0.1C412.6,136.5,415.4,136.6,418.4,136.6z"/>
<path class="st30" d="M441.8,421.9c-1.7-1.5-3.3-3-4.8-4.5c-0.5-0.5-0.8-1-1.1-1.7c1.9-0.1,3.6-0.1,5.5-0.1c0.2,0,0.2,0,0.3,0
	c0.8,2,1.6,4,2.5,6.1C443.5,421.9,442.8,421.9,441.8,421.9z"/>
<path class="st31" d="M408.6,128.5c0.2-0.1,0.5-0.1,0.9-0.1c0.1,0.9,0.2,1.8,0.2,2.8C409.3,130.5,409,129.6,408.6,128.5z"/>
<path class="st10" d="M56.2,147.4c0.5-1.4,1-2.8,1.5-4.3c1.6-2.6,3-5.3,4.8-7.6c6.7-9,15.7-14.6,26.4-17.4c5.9-1.5,11.9-2.1,18-2.2
	c7.5-0.1,15,0,22.5,0c2.3,0,4.6,0,7,0c1.5,0,2.9,0,4.4,0.1c-0.3,0.3-0.6,0.6-1,0.6c-5.2,0.3-10.4,0.7-15.4,2.3
	c-0.7,0.2-1.3,0.9-2.2,1.4c-3.8,0-7.5,0-11.1,0c-1.5,0-3-0.5-4.4-0.3c-5.4,0.7-10.8,1.5-16.1,2.6c-7.8,1.6-14.7,5.2-20.4,10.8
	c-2.9,2.9-5.2,6.4-7.9,9.7C60.3,144.4,58.3,145.9,56.2,147.4z"/>
<path class="st32" d="M87,199.2c0-8.3,0-16.5,0.1-24.7c0-4.6-0.1-9.2,0-13.8c0.2-9.5,4.8-16.4,12.8-21.1c3.8-2.2,7.9-3.1,12.3-3.1
	c33.4,0,66.9,0,100.5,0.2c-0.8,1.2-1.9,2.1-2.8,3.2c-0.8,0.9-1.5,1.9-2.4,2.9c-31.9,0-63.6,0-95.4,0c-1.3,0-2.6,0-3.9,0.2
	c-9.2,2-15.2,9.5-15.2,19c0,25,0,49.9-0.1,74.9c-0.8,0.5-1.5,0.9-2.2,1.4c-1.2,0.8-2.4,1.5-3.6,2.3C87.1,227,87.1,213.2,87,199.2z"
	/>
<path class="st33" d="M164.5,421.5c-35.3,0-70.5,0-105.8,0c-0.6,0-1.2-0.1-2-0.2c12.1-2.4,21.3-8.8,26.7-20.1
	c2.5-5.1,3.3-10.7,3.6-16.3c0.1-1.7,0-3.3,0.2-5.2c0.7-0.8,1.2-1.4,1.7-1.9c1.4-1.5,2.8-3,4.1-4.4c-0.1,6.1,0.1,12.1-0.5,18
	c-0.7,7.8-3.8,14.8-8.7,21c-0.8,1-1.6,2-2.7,3.3c29.9,0,59.3,0,88.8,0.1c-0.6,0.8-1.2,1.5-1.9,2.1
	C167,419.1,165.7,420.3,164.5,421.5z"/>
<path class="st34" d="M93.1,373.2c-1.4,1.5-2.8,3-4.1,4.5c-0.5,0.6-1,1.2-1.7,1.8c-0.1-27.4-0.1-54.9-0.2-82.3c0-18.7,0-37.4,0-56.3
	c1.2-0.9,2.4-1.7,3.6-2.5c0.7-0.5,1.4-0.9,2.2-1.2C93.1,282.6,93.1,327.9,93.1,373.2z"/>
<path class="st31" d="M322.3,128.4c-0.6,0.2-1.2,0.7-1.9,0.7c-3.2,0.1-6.5-0.1-9.7,0.1c-2,0.1-4,0.6-6,0.9
	c-3.4,0.5-6.8,1.5-10.2,1.6c-7,0.2-14-0.1-21,0.1c-52.3,1.3-104.6,0.4-156.9,0.8c-8,0.1-16,0.9-24,1.9
	c-10.8,1.4-20.9,12.2-21.9,23.1c-0.3,3.6-0.3,7.2-0.4,10.7c-0.2,11.2-0.3,22.4-0.4,33.6c0,1.6-0.3,3-2.1,3.8c-0.5,0.2-0.7,1.3-0.9,2
	c-0.2,1-0.3,2.1-0.6,3.1c-0.1-14.4-0.1-28.7-0.1-43.1c0-2.3,0-4.5,0-6.7c0-6.7,2.2-12.7,6.2-18.1c4.7-6.5,11.3-10.3,18.9-11.8
	c7.4-1.4,15-2.4,22.6-2.6c20.4-0.3,40.9-0.1,61.5-0.1c32.8,0,65.4,0,98.2,0C290,128.4,306.1,128.4,322.3,128.4z"/>
<path class="st33" d="M409.5,136.6c0.2,2,0.2,3.9,0.2,6.1c0,0.2,0,0.2-0.2,0.2c-19,0-37.8,0-56.6,0c-17.6,0-35.3,0-52.9-0.2
	c0.4-0.8,0.9-1.4,1.3-2.1c0.9-1.3,1.8-2.7,2.8-4c7.6,0,15.3,0,22.9,0C354.4,136.6,381.8,136.6,409.5,136.6z"/>
<path class="st34" d="M303.8,136.6c-0.7,1.4-1.7,2.7-2.6,4c-0.4,0.6-0.9,1.3-1.5,2.1c-30.8,0.1-61.5,0.1-92.1,0.1
	c0.7-1,1.4-2,2.2-2.9c0.9-1.1,2-2,3-3.2c13.2-0.1,26.4-0.2,39.5-0.2c13.4,0,26.7,0,40.3,0.2c0.4,0.5,0.5,0.8,0.7,1.1
	c0.3-0.4,0.6-0.8,0.9-1.2C297.5,136.6,300.6,136.6,303.8,136.6z"/>
<path class="st16" d="M322.4,128.4c-16.3,0-32.4,0-48.7-0.1c2.8-0.5,5.8-1.2,8.7-1.3c11.5-0.6,23,1.3,34.4-1.5
	c1.3-0.3,2.6-0.7,3.9-1.1c16.9,0,33.7,0,50.8,0c-0.1,0.2-0.4,0.6-0.8,0.7c-3.7,0.7-7.4,1.4-11.1,1.9c-2.4,0.4-4.8,0.7-7.2,0.7
	c-6.3,0.1-12.5,0-18.8,0.1c-0.7,0-1.4,0.3-2.3,0.6c-2.2,0.3-4.2,0.4-6.2,0.5C324.3,128.6,323.5,128.5,322.4,128.4z"/>
<path class="st18" d="M66.3,167.8c0,14.3,0,28.5,0,43c0,0.2,0,0.3,0,0.5c-0.2,0.6-0.7,1.1-0.7,1.6c-0.1,1.2,0,2.5,0,3.7
	c0,3,0,3-3.2,3.6c-0.1-4.8-0.1-9.4-0.1-14.1c0-12.5,0-24.7,0.2-37C63.8,168.6,65,168.2,66.3,167.8z"/>
<path class="st31" d="M325.2,128.9c2-0.3,4-0.4,6.2-0.5c10.2,0,20.3,0,30.5,0c-1.1,0.4-2.3,0.8-3.5,1.1c-10.8,2.9-21.9,0.9-32.8,1.5
	c-1.5,0.1-3,0.2-4.5,0.3c0-0.2-0.1-0.3-0.1-0.5C322.4,130.2,323.8,129.6,325.2,128.9z"/>
<path class="st33" d="M294.2,136.6c-0.2,0.4-0.5,0.8-0.8,1.2c-0.2-0.3-0.4-0.6-0.5-1.1C293.3,136.6,293.7,136.6,294.2,136.6z"/>
<path class="st31" d="M66.4,221.4c-0.1-0.5-0.1-1-0.1-1.7C67.3,220,67.3,220.6,66.4,221.4z"/>
<path class="st13" d="M122.5,120.2c0.7-0.5,1.3-1.1,2-1.4c5-1.6,10.2-2,15.4-2.3c0.4,0,0.7-0.3,1.2-0.6c17.7-0.1,35.3-0.1,53.1,0
	c0,0.4-0.1,0.8-0.3,0.8c-4,0.8-8.1,1.6-12.1,2.4c-0.6,0.1-1,0.7-1.5,1.1c0,0,0,0-0.2,0C160.7,120.2,141.6,120.2,122.5,120.2z"/>
<path class="st7" d="M180.1,120.2c0.5-0.4,1-1,1.5-1.1c4-0.8,8.1-1.6,12.1-2.4c0.2,0,0.3-0.5,0.5-0.8c5.2-0.1,10.4-0.1,15.8-0.1
	c10,0,19.8,0,29.7,0.1c-0.3,0.3-0.8,0.6-1.2,0.6c-5.9,0.3-11.7,0.6-17.3,2.6c-0.5,0.2-0.9,0.7-1.5,1.1
	C206.4,120.2,193.3,120.2,180.1,120.2z"/>
<path class="st22" d="M219.9,120.2c0.4-0.4,0.8-0.9,1.3-1.1c5.6-2,11.5-2.3,17.3-2.6c0.4,0,0.9-0.3,1.4-0.6
	c7.9-0.1,15.7-0.1,23.7-0.1c16.5,0,32.8,0,49.1,0c0.7,0,1.5,0.1,2.3,0.3c-2.5,0.5-5.1,0.8-7.7,1.2c-4.3,0.6-8.6,1.3-13,2
	c-0.6,0.1-1.2,0.5-1.9,0.9c-1,0.1-2.1,0.1-3.4,0.1C265.8,120.2,242.9,120.2,219.9,120.2z"/>
<path class="st22" d="M54,189.9c0-5.6,0-11.1,0.1-16.8c1.4-1.1,2.7-1.9,4-2.6c0,7.7,0,15.3,0,22.9c-1.3,1.2-2.6,2.4-4,3.7
	C54,194.8,54,192.5,54,189.9z"/>
<path class="st11" d="M58.1,193.7c0-7.7,0-15.3,0-23.2c0-0.6,0-0.9,0.1-1.2c1.5-0.9,3.4-1.3,3.5-3.4c0-0.1,0.3-0.2,0.5-0.1
	c0,1.2,0,2.2,0,3.2c0,12.3,0,24.6-0.1,37c-1.4,0.7-2.7,1.2-3.9,1.7C58.1,203,58.1,198.4,58.1,193.7z"/>
<path class="st12" d="M58.1,207.8c1.3-0.7,2.5-1.2,3.9-1.7c0.1,4.6,0.1,9.2,0.1,14c0,4.3,0,8.4-0.1,12.7c-1.4,1-2.7,1.9-4,2.8
	c0-5.2,0-10.4,0-15.8C58.1,215.7,58.1,211.8,58.1,207.8z"/>
<path class="st14" d="M58.1,235.7c1.3-1,2.5-1.9,4-2.8c0.1,6.2,0.1,12.4,0,18.8c-1.4,0.9-2.7,1.7-4,2.4c0-4.3,0-8.7,0-13.2
	C58.1,239.1,58.1,237.5,58.1,235.7z"/>
<path class="st18" d="M58.1,254.3c1.3-0.9,2.6-1.6,4-2.4c0.1,4.9,0.1,9.9,0,15.1c-0.3,0.5-0.6,0.9-0.6,1.2c0.6,3.1-1.2,4.8-3.4,6.4
	c0-2.2,0-4.5,0-6.9C58.1,263.2,58.1,258.8,58.1,254.3z"/>
<path class="st16" d="M58.1,274.8c2.2-1.8,4-3.5,3.4-6.6c-0.1-0.3,0.3-0.6,0.6-1c-0.1,5.3-0.4,10.6-0.6,15.9c0,0.5-0.2,1.2-0.5,1.3
	c-1.5,0.7-2.1,2-2.7,3.5c-0.1-0.8-0.1-1.7-0.1-2.8C58.1,281.7,58.1,278.3,58.1,274.8z"/>
<path class="st16" d="M58.2,290.5c-0.1-0.2-0.2-0.6-0.2-1C58.2,289.8,58.2,290.1,58.2,290.5z"/>
<path class="st13" d="M58.1,169.3c0,0.3,0,0.6,0,1c-1.3,1-2.6,1.8-4,2.7c-0.1-2.7-0.1-5.4-0.1-8.4c-0.2-5.9,0.2-11.6,2.2-17.1
	c2.1-1.6,4.1-3.1,6.2-4.4c-0.9,2.6-2,5.1-2.8,7.7C57.6,156.8,58.1,163.1,58.1,169.3z"/>
<path class="st22" d="M324.3,115.7c1.8,0,3.4,0,5.2,0c-0.1,0.2-0.5,0.7-0.8,0.7c-2.5,0-4.9-0.1-7.5-0.2
	C322.1,116,323.2,115.9,324.3,115.7z"/>
<path class="st35" d="M490,350.5c0,13.9,0.2,27.9-0.1,41.8c-0.2,11.8-8.8,21.4-20.1,22.9c-4.1,0.5-8.3,0.3-12.4,0.4
	c-3.5,0.1-7.1,0-10.8-0.2c-0.2-11.7-0.2-23.3,0-34.7c0.5,1.5,0.8,2.9,1.2,4.5c0.6-0.5,1-0.7,1.3-1c5.5-4.6,11.1-9.3,16.6-13.9
	c5.6-4.7,11.3-9.4,16.9-14.1C485.1,354.3,487.6,352.4,490,350.5z"/>
<path class="st36" d="M490,350.3c-2.5,2.1-5,3.9-7.4,5.9c-5.7,4.7-11.3,9.4-16.9,14.1c-5.5,4.6-11.1,9.2-16.6,13.9
	c-0.3,0.3-0.7,0.5-1.3,1c-0.4-1.6-0.7-3.1-1.2-4.7c-0.1-12.9-0.1-25.5,0-38.1c0.3,0.9,0.6,1.7,0.6,2.5c0.1,2.2,0,4.4,0,7
	c1.2-0.8,1.8-1.3,2.4-1.8c5.5-4.6,11.1-9.3,16.6-13.9c6.5-5.4,13-10.8,19.5-16.2c1.3-1.1,2.8-2,4.2-2.9c0,9.2,0,18.4,0,27.7
	C490.1,346.7,490,348.4,490,350.3z"/>
<path class="st37" d="M446.5,342.3c0,12.7,0,25.3,0,38.1c0,11.7,0,23.3,0,35c-1.5,0.2-3,0.2-4.7,0.2c-0.2,0-0.3,0-0.5-0.2
	c-3.2-8.4-4.1-17.1-4.1-25.8c-0.1-23.6,0-47.2,0.1-70.7c0.3,0.8,0.5,1.5,0.6,2.3c0.1,1.5,0,3,0,4.5c0.2,0.1,0.4,0.2,0.6,0.3
	c0.9-0.7,1.8-1.4,2.7-2c1.8-1.3,3.5-2.7,5.3-3.8C446.5,327.7,446.5,335,446.5,342.3z"/>
<path class="st18" d="M320.6,124.3c-1.1,0.4-2.4,0.8-3.7,1.1c-11.4,2.9-22.9,0.9-34.4,1.5c-3,0.2-5.9,0.8-8.9,1.3
	c-32.7,0.1-65.3,0.1-98,0c1.7-0.5,3.6-0.8,5.4-1.2c5.3-1.2,10.5-2.1,16-1.7c0.4,0,0.8,0.1,1.1,0c1.1-0.3,2.2-0.7,3.5-1.1
	c12,0,23.8,0,35.5,0C264.8,124.3,292.6,124.3,320.6,124.3z"/>
<path class="st11" d="M237.1,124.2c-11.8,0.1-23.6,0.1-35.8,0.1c-24.4,0-48.5,0-72.5-0.1c0.7-0.3,1.4-0.6,2.1-0.6
	c12.2-0.2,24.5-0.1,36.7-0.5c4.1-0.1,8.1-1.5,12.1-2.3c0.2,0,0.3-0.4,0.4-0.6c0,0,0,0,0,0c13.2,0,26.3,0,39.6,0
	c23.1,0,46.1,0,69.2,0c0,0.2-0.2,0.6-0.4,0.6c-4.6,0.8-9,2.4-13.8,2.4c-12-0.1-23.9,0.2-35.9,0.3
	C238.3,123.6,237.7,123.9,237.1,124.2z"/>
<path class="st38" d="M490,183.8c0,11.2,0,22.3-0.1,33.7c-0.6,0.4-1.1,0.5-1.4,0.8c-5.5,4.6-11,9.2-16.4,13.8
	c-7.5,6.2-14.9,12.5-22.5,18.7c-0.9,0.7-2,1-3.1,1.3c0-11.3,0-22.5,0.1-33.7c1.3-0.7,2.5-1.2,3.5-2.1c4.9-4,9.8-8.1,14.7-12.2
	c6.2-5.1,12.3-10.3,18.5-15.4C485.6,187,487.8,185.5,490,183.8z"/>
<path class="st21" d="M446.5,252.3c1-0.5,2.2-0.8,3.1-1.5c7.5-6.2,15-12.4,22.5-18.7c5.5-4.6,10.9-9.2,16.4-13.8
	c0.4-0.3,0.9-0.4,1.4-0.6c0.1,10.7,0.1,21.3,0.1,32.2c0,0.3,0,0.5-0.1,0.8c-7,5.8-14,11.5-20.8,17.2c-6.3,5.2-12.5,10.6-18.9,15.8
	c-1,0.8-2.4,1.2-3.7,1.6c0-3.3,0-6.4,0-9.7C446.5,267.7,446.5,260,446.5,252.3z"/>
<path class="st20" d="M490,183.7c-2.2,1.8-4.5,3.4-6.6,5.1c-6.2,5.1-12.4,10.3-18.5,15.4c-4.9,4.1-9.8,8.2-14.7,12.2
	c-1,0.8-2.3,1.4-3.5,1.9c-0.1-10.6-0.1-21-0.2-31.6c0-0.5,0-0.9,0.1-1.3c1-0.3,2-0.3,2.7-0.9c4.9-4,9.7-8,14.5-12.1
	c5.5-4.6,11.1-9.2,16.7-13.8c2.4-1.9,4.8-3.8,7.3-5.6c0.1,0.4,0.3,0.8,0.4,1.5c0.5,1.3,1,2.3,1.5,3.3c0,0.4,0,0.8-0.1,1.4
	c-1,1.1-0.3,1.4,0.5,1.6c0,6.2,0,12.4,0,18.8C490.1,181,490,182.2,490,183.7z"/>
<path class="st24" d="M487.8,152.8c-2.4,2-4.9,3.8-7.3,5.7c-5.6,4.6-11.1,9.2-16.7,13.8c-4.8,4-9.6,8.1-14.5,12.1
	c-0.7,0.5-1.7,0.6-2.7,0.7c-0.1-14.2-0.1-28.2-0.1-42.3c7.7,0,15.3,0.2,23,0c7.9-0.2,14,2.7,18.3,9.6
	C487.8,152.6,487.8,152.7,487.8,152.8z"/>
<path class="st28" d="M446.3,142.9c0.2,14,0.2,28,0.2,42.2c0,0.6,0,1-0.1,1.5c-1.2,1-2.2,1.8-3.3,2.6c-1.8,1.3-3.7,2.6-5.5,3.7
	c-0.1-16.8-0.2-33.4-0.4-50c0,0,0,0,0-0.1C440.2,142.8,443.2,142.9,446.3,142.9z"/>
<path class="st15" d="M446.5,285.4c1.2-0.6,2.7-0.9,3.7-1.8c6.3-5.2,12.6-10.5,18.9-15.8c6.9-5.7,13.8-11.4,20.8-17
	c0.1,6.9,0.1,13.9,0.1,21c0,13.1,0,26,0,39.1c0,2,0,3.9,0,6c-1.4,1.1-2.9,2-4.2,3.1c-6.5,5.4-13,10.8-19.5,16.2
	c-5.5,4.6-11.1,9.3-16.6,13.9c-0.6,0.5-1.3,0.9-2.4,1.8c0-2.6,0-4.8,0-7c0-0.8-0.3-1.6-0.6-2.5c-0.1-7.4-0.1-14.7-0.1-22.4
	C446.5,308.2,446.5,296.8,446.5,285.4z"/>
<path class="st24" d="M489.6,157.6c-0.5-0.9-1-1.9-1.5-3.1C488.7,155.4,489.2,156.5,489.6,157.6z"/>
<path class="st24" d="M490,160.6c-0.8-0.1-1.4-0.3-0.5-1.3C489.8,159.7,489.9,160.1,490,160.6z"/>
<path class="st29" d="M311.5,421.6c-11.7,0-23.3,0-35.2,0c-14.8,0-29.5,0-44.3-0.1c0.3-0.7,0.8-1.2,1.3-1.7c1.4-1.4,2.7-2.7,4.3-4.1
	c9.1,0,18.1,0,27.2,0c17.5,0,34.9,0,52.3,0.2c-0.8,0.9-1.5,1.7-2.3,2.5C313.7,419.4,312.6,420.4,311.5,421.6z"/>
<path class="st39" d="M237.4,415.6c-1.4,1.4-2.7,2.7-4.1,4.1c-0.5,0.5-1,1.1-1.5,1.7c-22.4,0.1-44.7,0.1-67.2,0.1
	c1.1-1.2,2.3-2.5,3.5-3.7c0.6-0.6,1.2-1.3,2-2.1C192.8,415.6,215.1,415.6,237.4,415.6z"/>
<path class="st40" d="M437.2,318.9c0,23.6-0.1,47.2,0,70.8c0,8.7,1,17.4,4,25.8c-1.7,0.1-3.5,0.1-5.4,0.1c-0.2,0-0.3,0-0.5-0.1
	c-1.7-3-3.4-5.8-4.6-8.8c-2.2-5.3-2.6-11-2.8-16.7c-0.2-7.1,0-14.1,0-21.4c0-26.2,0-52.3,0.1-78.3c0.3,0.8,0.6,1.6,0.6,2.3
	c0.1,2.1,0,4.3,0,6.4c0.2,0.1,0.4,0.1,0.6,0.2c1-0.8,2-1.6,3-2.3c1.6-1.1,3.3-2.2,5-3.2C437.2,302.2,437.2,310.6,437.2,318.9z"/>
<path class="st41" d="M427.9,415.6c-1.6,0-3.2,0-5.2,0c-0.8,0-1.4,0-1.9-0.1c-0.6-0.8-1.1-1.5-1.7-2.1c-1.2-1.4-2.6-2.6-3.7-4.1
	c-4.7-6-6.1-13.2-6.1-20.6c0-13.1,0.2-26.1,0.3-39.2c0.1-7.4,0-14.7,0.1-22.1c1.2-1,2.2-2.1,3.4-2.9c1.8-1.2,2.9-3.4,5.4-3.3
	c0,11.1,0,22,0,33.1c0,1.8,0,3.4,0,5.2c0,1.4,0,2.7,0,4.1c0.1,10.1,0.1,20,0.4,29.9c0.2,7.7,3,14.6,8.1,20.4
	C427.6,414.4,427.7,415.1,427.9,415.6z"/>
<path class="st42" d="M428.1,415.6c-0.4-0.5-0.5-1.2-0.9-1.6c-5.2-5.8-7.9-12.7-8.1-20.4c-0.3-9.9-0.3-19.8-0.3-29.8
	c0.4,2.2,0.6,4.5,0.8,6.9c0.1,1.2,0,2.4,0,4.1c1.3-1,2.2-1.7,3.1-2.4c1.7-1.2,3.5-2.4,5.3-3.6c0,7.1-0.1,14.1,0,21.2
	c0.1,5.7,0.6,11.4,2.8,16.7c1.2,3,3,5.8,4.5,8.8C433,415.6,430.6,415.6,428.1,415.6z"/>
<path class="st43" d="M420.9,415.6c0.5,0,1,0,1.7,0c0.9,0.7,1.5,1.5,2.4,2c2.1,1,4.2,1.9,6.4,2.8c0.6,0.3,1.2,0.6,1.8,1
	c-11.6,0.1-23.3,0.1-35.1,0c0.6-0.9,1.3-1.7,2.1-2.5c1.1-1.1,2.2-2.2,3.5-3.3C409.4,415.6,415.1,415.6,420.9,415.6z"/>
<path class="st25" d="M403.4,415.6c-1.1,1.1-2.2,2.2-3.3,3.3c-0.8,0.8-1.5,1.6-2.3,2.5c-28.7,0.1-57.3,0.1-86.2,0.1
	c0.9-1.1,2-2.2,3.1-3.3c0.8-0.8,1.5-1.6,2.4-2.5C346,415.6,374.7,415.6,403.4,415.6z"/>
<path class="st27" d="M418.6,142.9c3,0,6,0,9.1,0c0.2,0,0.2,0,0.2,0.2c0,23.4,0,46.6,0,70c0,18.9,0,37.6-0.1,56.4
	c-1.3,0.8-2.5,1.7-3.7,2.5c-1.8,1.1-2.9,3.4-5.5,3.3c0-6.9,0-13.6,0.1-20.3c0.8-0.8,1-1.6-0.1-2.4
	C418.6,215.8,418.6,179.4,418.6,142.9C418.6,142.9,418.6,142.9,418.6,142.9z"/>
<path class="st43" d="M427.9,212.8c0-23.2,0-46.4,0-69.8c3-0.2,6-0.2,9.1-0.2c0.3,16.6,0.4,33.3,0.5,50.2c-0.1,1.1-0.3,1.9-0.3,2.7
	c0,6.8,0,13.6-0.1,20.4c-2.7,2.1-5.4,4.1-8.4,6.6c0-3.1,0-5.6,0-8.1C428.6,214.1,428.2,213.5,427.9,212.8z"/>
<path class="st44" d="M418.4,142.9c0.2,36.5,0.2,72.9,0.2,109.7c0,1,0,1.6,0,2.2c0,6.7,0,13.4,0,20.5c0,15.5,0,30.6,0,45.8
	c-2.5,0-3.6,2.2-5.4,3.4c-1.2,0.8-2.2,1.9-3.4,2.7c-0.1-14.3-0.1-28.4-0.1-42.8c0-47.3,0-94.4,0-141.6c0,0,0,0,0,0
	C412.5,142.9,415.4,142.9,418.4,142.9z"/>
<path class="st8" d="M180,120.2c0,0.2-0.1,0.5-0.2,0.6c-4,0.8-8,2.2-12.1,2.3c-12.2,0.4-24.4,0.3-36.7,0.5c-0.7,0-1.4,0.3-2.3,0.6
	c-7.7,0.3-15.2,0.1-22.7,0.6c-7.8,0.5-15.5,1.5-22.8,4.9c-9.2,4.3-15.6,10.9-19.1,20.4c-1.8,5-2,10.3-1.9,15.5
	c-0.2,0.1-0.5,0.2-0.5,0.2c-0.1,2.2-2,2.5-3.5,3.4c-0.1-6.2-0.6-12.5,1.4-18.5c0.8-2.6,1.9-5.1,2.9-7.7c2.6-3.4,4.8-6.9,7.8-9.8
	c5.7-5.5,12.6-9.2,20.4-10.8c5.3-1.1,10.7-1.8,16.1-2.6c1.4-0.2,2.9,0.3,4.4,0.3c3.7,0,7.3,0,11.1,0
	C141.6,120.2,160.7,120.2,180,120.2z"/>
<path class="st45" d="M409.5,142.9c0.2,47.1,0.2,94.3,0,141.6c-1,3.1-1.7,6-1.2,9c0.3,1.6-0.2,2.7-1.4,3.7
	c-8.8,7.3-17.5,14.7-26.4,21.9c-10.6,8.6-20.5,18-31.8,25.7c-5,3.4-9.3,7.7-14,11.6c-6.3,5.3-12.6,10.6-18.9,15.8
	c-5.6,4.7-11.2,9.3-16.8,13.9c-5.5,4.5-10.9,9.1-16.4,13.6c-5.6,4.6-11.1,9.2-16.7,13.8c-0.6,0.5-0.9,1.3-1.4,1.9
	c-8.9,0-17.9,0-27,0c-22.5,0-44.8,0-67.3,0c-29.7,0-59.1,0-89,0c1-1.3,1.9-2.3,2.7-3.3c4.9-6.2,8-13.2,8.7-21
	c0.5-5.9,0.3-11.9,0.5-18c0-45.4,0-90.7,0-136.2c0-25.1,0-50.1,0-75.1c0-9.4,6-16.9,15.2-19c1.2-0.3,2.6-0.2,3.9-0.2
	c31.7,0,63.5,0,95.4,0c30.8,0,61.5,0,92.3,0c17.8,0,35.5,0,53.1,0C371.7,142.9,390.5,142.9,409.5,142.9z"/>
<path class="st14" d="M62.2,165.8c-0.1-5.4,0-10.7,1.9-15.7c3.5-9.5,9.9-16.1,19.1-20.4c7.3-3.4,15-4.4,22.8-4.9
	c7.5-0.5,15-0.3,22.6-0.4c24.2,0,48.3,0,72.6,0c-0.9,0.4-2,0.7-3.2,1.1c-0.3,0.1-0.7,0.1-1.1,0c-5.4-0.4-10.7,0.5-16,1.7
	c-1.8,0.4-3.7,0.7-5.6,1.2c-20.5,0.1-40.9-0.1-61.4,0.3c-7.5,0.1-15.1,1.2-22.6,2.6c-7.6,1.5-14.2,5.3-18.9,11.8
	c-3.9,5.4-6.2,11.4-6.2,18.1c0,2.2,0,4.3,0,6.7c-1.3,0.5-2.5,0.9-3.9,1.3C62.2,167.9,62.2,166.9,62.2,165.8z"/>
<path class="st30" d="M437.4,318.9c-0.1-8.4-0.1-16.7-0.1-25.3c0-4.2,0-8.1,0.2-11.9c1.5-0.9,2.9-1.9,4.3-2.8
	c1.6-1.1,3.2-2.1,4.8-3.1c0,3.1,0,6.2,0,9.5c0,11.6,0,23,0,34.6c-1.8,1.5-3.5,2.8-5.3,4.2c-0.9,0.7-1.8,1.4-2.7,2
	c-0.2-0.1-0.4-0.2-0.6-0.3c0-1.5,0-3,0-4.5C437.9,320.5,437.7,319.7,437.4,318.9z"/>
<path class="st46" d="M446.5,275.5c-1.6,1.2-3.2,2.3-4.8,3.3c-1.4,0.9-2.8,1.9-4.3,2.6c-0.1-21.9-0.1-43.6-0.1-65.3
	c0-6.8,0-13.6,0-20.4c0-0.8,0.1-1.6,0.3-2.5c1.9-1.4,3.7-2.7,5.6-4c1.1-0.8,2.1-1.6,3.3-2.5c0.1,10.4,0.1,20.8,0.1,31.4
	c0,11.3,0,22.5,0,33.9C446.5,260,446.5,267.7,446.5,275.5z"/>
<path class="st47" d="M264.8,415.6c0.3-0.6,0.6-1.4,1.2-1.9c5.5-4.6,11.1-9.2,16.7-13.8c5.5-4.5,10.9-9.1,16.4-13.6
	c5.6-4.7,11.2-9.3,16.8-13.9c6.3-5.3,12.6-10.5,18.9-15.8c4.6-3.9,9-8.2,14-11.6c11.4-7.7,21.2-17.1,31.8-25.7
	c8.9-7.2,17.6-14.6,26.4-21.9c1.2-1,1.6-2.2,1.4-3.7c-0.5-3,0.3-5.9,1.2-8.9c0.1,14.1,0.1,28.2,0.1,42.6c0,7.5,0,14.9,0,22.3
	c-0.1,13.1-0.3,26.1-0.3,39.2c0,7.4,1.3,14.5,6.1,20.6c1.1,1.4,2.5,2.7,3.7,4.1c0.6,0.6,1.1,1.3,1.7,2.1c-5.7,0.1-11.4,0.1-17.3,0.1
	c-28.8,0-57.5,0-86.3,0C299.7,415.6,282.3,415.6,264.8,415.6z"/>
<path class="st48" d="M418.6,321.3c0-15.3,0-30.5,0-45.8c2.5-0.2,3.6-2.5,5.5-3.6c1.2-0.8,2.4-1.7,3.7-2.3c0.1,7,0.1,13.8,0.1,20.7
	c0,26.1,0,52.1,0,78.3c-1.8,1.4-3.5,2.6-5.3,3.8c-0.9,0.6-1.8,1.4-3.1,2.4c0-1.7,0.1-2.9,0-4.1c-0.2-2.3-0.4-4.7-0.8-7
	c-0.1-1.3-0.1-2.5,0-4c0.9-1.9,0.8-4.3-0.1-5.3C418.6,343.3,418.6,332.4,418.6,321.3z"/>
<path class="st26" d="M428.1,290.3c-0.1-6.9-0.1-13.7-0.1-20.7c0-18.9,0-37.6,0-56.6c0.2,0.4,0.7,1.1,0.7,1.7c0.1,2.5,0,5,0,8.1
	c3.1-2.4,5.7-4.5,8.4-6.6c0.1,21.7,0.1,43.4,0.1,65.3c0,4,0,7.9,0,11.9c-1.7,1.3-3.4,2.4-5,3.5c-1,0.7-2,1.5-3,2.3
	c-0.2-0.1-0.4-0.1-0.6-0.2c0-2.1,0-4.3,0-6.4C428.6,291.8,428.3,291.1,428.1,290.3z"/>
<path class="st42" d="M418.6,354.4c0.9,0.8,1.1,3.3,0.1,5C418.6,357.8,418.6,356.2,418.6,354.4z"/>
<path class="st48" d="M418.7,254.8c-0.1-0.6-0.1-1.2-0.1-2C419.7,253.2,419.6,254,418.7,254.8z"/>
</svg>
