<?xml version="1.0" encoding="utf-8"?>
<!-- Generator: Adobe Illustrator 28.1.0, SVG Export Plug-In . SVG Version: 6.00 Build 0)  -->
<svg version="1.1" id="Layer_1" xmlns="http://www.w3.org/2000/svg" xmlns:xlink="http://www.w3.org/1999/xlink" x="0px" y="0px"
	 viewBox="0 0 524.7 523.1" style="enable-background:new 0 0 524.7 523.1;" xml:space="preserve">
<style type="text/css">
	.st0{fill:#B878FF;}
	.st1{fill:#B36BFF;}
	.st2{fill:#AA57FF;}
	.st3{fill:#AA58FF;}
	.st4{fill:#A245FF;}
	.st5{fill:#9C37FF;}
	.st6{fill:#B065FF;}
	.st7{fill:#64B0FF;}
	.st8{fill:#93CAFE;}
	.st9{fill:#70B8FF;}
	.st10{fill:#81C0FE;}
	.st11{fill:#83C1FE;}
	.st12{fill:#8FBEFF;}
	.st13{fill:#9FD0FE;}
	.st14{fill:#7BBCFE;}
	.st15{fill:#6AB4FF;}
	.st16{fill:#A7D5FF;}
	.st17{fill:#A9C6FF;}
	.st18{fill:#AB99FF;}
	.st19{fill:#ABA1FF;}
	.st20{fill:#AAB2FF;}
	.st21{fill:#A885FF;}
	.st22{fill:#4AAAFE;}
	.st23{fill:#6696FE;}
	.st24{fill:#4DADFE;}
	.st25{fill:#6398FE;}
	.st26{fill:#7F84FE;}
	.st27{fill:#9474FF;}
	.st28{fill:#8E78FF;}
	.st29{fill:#9274FF;}
	.st30{fill:#8B7AFF;}
	.st31{fill:#9566FF;}
	.st32{fill:#7D85FE;}
	.st33{fill:#7F84FF;}
	.st34{fill:#9075FF;}
</style>
<path class="st0" d="M52.1,349.3c0-11.2,0-22.4-0.1-33.6c0-5.9,0-11.9,0.2-18c140.7-0.2,281.2-0.2,421.6-0.2c0,11.7,0,23.4,0.1,35
	c0,5.4,0,10.9-0.2,16.5c-1,0.3-1.9,0.5-2.7,0.5c-138.7,0-277.3,0-416,0C54,349.7,53.1,349.5,52.1,349.3z"/>
<path class="st1" d="M52.1,349.5c1,0,2,0.2,3,0.2c138.7,0,277.3,0,416,0c0.9,0,1.7-0.2,2.7-0.3c0.2,14.5,0.2,29,0,43.7
	c-1.3,0.3-2.5,0.5-3.7,0.5c-50.9,0-101.8,0-152.8,0c-1.6,0-3.2-0.2-4.8-0.4c-0.1-3-0.1-6-0.5-9c-0.6-4.8-5.6-9.5-10.7-9.6
	c-24.8-0.2-49.5-0.3-74.3-0.4c-4.9,0-9.2,1.7-11.7,6.2c-1,1.8-1.5,4-1.9,6.1c-0.3,1.7-0.1,3.5-0.2,5.4c-1.3,0.3-2.5,0.5-3.7,0.5
	c-50.9,0-101.8,0-152.8,0c-1.6,0-3.2-0.2-4.8-0.4C52.1,378,52,363.8,52.1,349.5z"/>
<path class="st2" d="M312.5,393.4c1.6,0,3.2,0.2,4.8,0.2c50.9,0,101.8,0,152.8,0c1.2,0,2.3-0.2,3.6-0.4c0.2,8.3,0.2,16.6,0.2,24.8
	c0,9.5,0,18.9-0.2,28.6c-53.9,0.2-107.5,0.2-161.2,0.2c0-10.9,0-21.8-0.1-32.6C312.5,407.3,312.5,400.4,312.5,393.4z"/>
<path class="st3" d="M52.1,392.3c1.6,0,3.2,0.2,4.8,0.2c50.9,0,101.8,0,152.8,0c1.2,0,2.3-0.2,3.6-0.4c0.2,8.9,0.2,17.8,0.2,26.7
	c0,8.3,0,16.7-0.2,25.2c-53.9,0.2-107.5,0.2-161.2,0.2c0-11.4,0-22.7-0.1-34.1C52,404.2,52,398.3,52.1,392.3z"/>
<path class="st4" d="M52.1,444.4c53.7-0.2,107.4-0.2,161.2-0.2c0.2,11.6,0.2,23.2,0.2,34.8c0,3.2,0,6.3-0.2,9.6
	c-1.6,0.4-3,0.9-4.5,0.9c-50,0-100,0-150,0c-2.2,0-4.5-0.5-6.7-0.7C52.1,474.1,52,459.3,52.1,444.4z"/>
<path class="st4" d="M312.5,447c53.7-0.2,107.4-0.2,161.2-0.2c0.2,13.8,0.2,27.5,0,41.5c-1.3,0.3-2.5,0.5-3.7,0.5
	c-50.9,0-101.8,0-152.8,0c-1.6,0-3.2-0.2-4.8-0.4C312.5,474.7,312.5,460.9,312.5,447z"/>
<path class="st5" d="M312.5,488.6c1.6,0,3.2,0.2,4.8,0.2c50.9,0,101.8,0,152.8,0c1.2,0,2.3-0.2,3.6-0.3c0.2,7.9,0.4,15.9,0.1,23.8
	c-0.2,5.6-5.6,10.8-11.3,10.8c-46.1,0-92.1,0-138.2,0.1c-4.7,0-9.7-3.8-11.1-7.9c-0.5-1.5-0.7-3.1-0.8-4.6
	C312.4,503.3,312.5,496.1,312.5,488.6z"/>
<path class="st5" d="M52.1,489c2.3,0.1,4.5,0.5,6.8,0.5c50,0,100,0,150,0c1.4,0,2.9-0.5,4.5-0.7c0.2,7.8,0.4,15.6,0.1,23.4
	c-0.2,5.6-5.6,10.8-11.3,10.8c-46.1,0-92.1,0-138.2,0.1c-4.7,0-9.7-3.8-11.1-7.9c-0.5-1.5-0.7-3.1-0.8-4.6
	C52,503.5,52,496.3,52.1,489z"/>
<path class="st6" d="M473.9,297.4c-140.5,0.2-281,0.2-421.6,0.2c-0.2-3.2-0.2-6.5-0.2-9.9c0-0.2,0-0.2,0.2-0.2c0.7,0,1.3,0,1.8,0
	c139.3,0,278.5,0,417.8,0c0.7,0,1.4,0,2.1,0c0,0,0,0.1,0,0.1C473.9,290.8,473.9,294,473.9,297.4z"/>
<path class="st7" d="M82.5,170c4-4,7.9-8,11.9-12C144.7,107.5,195.1,57,245.4,6.6c3.7-3.7,8.2-5.5,13.4-6.3c6.8-1,12.9,0.6,18.3,4.6
	c2.7,2,5.1,4.5,7.5,6.9c8.8,8.7,17.6,17.5,26.3,26.3c16.5,16.6,33,33.3,49.6,49.9c0.4,0.4,0.7,0.8,1.5,1.7c0-1.1,0-1.8,0-2.4
	c0-15.9,0-31.9,0-47.8c0-3.5,1.2-6.7,3.8-9.2c2.3-2.2,5.1-3.5,8.5-3.5c12.8,0,25.7,0,38.5,0c5.3,0,10.6,4.7,11.3,9.9
	c0.2,1.7,0.4,3.4,0.4,5.1c0,36.1,0,72.3,0,108.4c0,1.2,0.3,2,1.2,2.9c4.5,4.4,8.9,8.8,13.2,13.4c-2,0.1-3.8,0.1-5.6,0.1
	c-1,0-1.6,0.4-1.7,1.4c-4.3-4.3-8.6-8.4-12.7-12.7c-0.5-0.5-0.9-1.4-0.9-2.1c0-2,0.3-3.9,0.3-5.9c-0.1-6.6-0.3-13.2-0.3-19.8
	c0-2.3,0.3-4.7,0.3-7c0-11.8,0-23.6,0-35.5c0-11.3,0-22.7,0-34c0-3.7,0.1-7.3,0-11c-0.1-4-2.7-7-6-7c-12.5,0-24.9-0.1-37.4,0.1
	c-1.5,0-3.2,1-4.4,1.9c-1.8,1.4-2,3.6-2,5.8c0,15.3,0,30.6,0,45.9c0,1.8,0.3,3.6,0.3,5.4c0,3.6-0.2,7.2-0.3,10.8
	c0,0.4-0.1,0.8-0.1,1.2c-0.2,0.2-0.4,0.3-0.6,0.5c-0.4-0.6-0.7-1.3-1.2-1.8c-30.3-30.3-60.6-60.6-90.9-90.9
	c-7.2-7.2-18.8-7.5-26.1-0.3c-13,12.8-25.8,25.7-38.7,38.6c-4.1,4.1-8.1,8.4-12.2,12.5c-35.5,35.5-71,71-106.5,106.6
	c-0.5,0.5-1.1,1-1.8,1.4c-0.8-0.3-1.5-0.6-2.2-0.6C86.2,169.9,84.3,170,82.5,170z"/>
<path class="st8" d="M1,255.6c0.9-3.8,2.9-7,5.6-9.7c5.7-5.9,11.5-11.6,17.5-17.4c1.3,0,2.3,0,3.7,0.1c-1.7,2.3-3.1,4-4.3,6
	c-1.4,2.3-2.6,4.8-3.9,7.4c-0.5,0.6-1,1.2-1.5,1.8c-3.7,3.8-8,7-10.5,11.9C5.2,255.6,3.1,255.6,1,255.6z"/>
<path class="st9" d="M82.4,170c2,0,3.8-0.1,5.7,0c0.7,0,1.4,0.4,2.1,0.8c-0.1,0.3-0.2,0.5-0.3,0.6c-6.4,6.6-12.9,13.1-19.3,19.7
	c-0.4,0.4-0.9,0.6-1.5,0.9c-2.8-0.1-5.5-0.3-8.1-0.4C68,184.4,75.1,177.2,82.4,170z"/>
<path class="st10" d="M472.8,200.5c4.9,4.8,9.7,9.7,14.6,14.5c2.5,2.5,5.1,5.1,7.6,7.8c-1.7,0.7-3.2,0.4-4.7-0.6
	c-2.4-1.7-5.1-3-7.6-4.4c-0.4-0.2-1.1-0.1-1.8-0.2c-0.7-0.5-1.2-1-1.8-1.5c-0.1-0.2-0.2-0.2-0.3-0.3c0,0,0,0-0.1-0.1
	c-0.6-0.7-1.2-1.3-1.7-1.9c-4.1-4.2-8.2-8.4-12.3-12.7c0.9-0.4,1.7-0.9,2.5-0.9C469.1,200.2,471,200.4,472.8,200.5z"/>
<path class="st11" d="M28.5,223.9c7-7,14-14.1,21.3-21.2c2.9,0.1,5.6,0.2,8.1,0.5c-2.3,2.4-4.6,4.6-6.8,6.9c-2,2.1-3.9,4.2-5.8,6.3
	c0,0,0,0-0.1,0c-0.2,0.1-0.3,0.2-0.4,0.4c-0.7,0.5-1.4,1-2.2,1.4c-2.7,1.4-5.2,2.9-7.7,4.2c-0.7,0.4-1.5,0.8-2.3,0.9
	C31.3,223.8,29.9,223.8,28.5,223.9z"/>
<path class="st8" d="M500.8,228.8c6.2,6.1,12.5,12.1,18.4,18.5c2,2.2,3,5.3,4.4,8.2c-2.2,0.3-4.3,0.4-6.5,0.4
	c-1.9-4.3-5.2-7.3-8.5-10.3c0,0,0,0,0-0.1c-0.1-0.2-0.2-0.2-0.4-0.4c-0.4-0.5-0.7-1-1.1-1.5c-0.9-4-3.3-7.1-5.4-10.3
	c-0.9-1.3-1.8-2.5-3-4.1C499.6,229,500.2,228.9,500.8,228.8z"/>
<path class="st9" d="M448.7,176.3c5.1,5,10.1,10,15,15.1c-2.3,0-4.4-0.2-6.5-0.2c-0.5,0-1,0.7-1.6,1c-5.1-5.1-10.1-10.2-15-15.3
	c0.8-0.3,1.5-0.6,2.2-0.6C444.7,176.3,446.7,176.3,448.7,176.3z"/>
<path class="st12" d="M500.7,228.6c-0.5,0.2-1.1,0.3-2.1,0.5c1.1,1.6,2.1,2.8,3,4.1c2.2,3.2,4.6,6.3,5.3,10.2
	c-1.3-1-2.4-2.1-3.5-3.3c-4.7-4.7-9.5-9.4-14.2-14.1c-2.8-2.9-5.5-5.7-8.1-8.4c0.6,0,1.2-0.1,1.7,0.1c2.6,1.4,5.2,2.8,7.6,4.4
	c1.5,1.1,3,1.3,4.8,0.7C497,224.7,498.9,226.6,500.7,228.6z"/>
<path class="st13" d="M0.9,255.6c2.2-0.1,4.4-0.1,6.6,0.1c-0.9,3.1-1.7,6.1-0.9,9.1c0.7,2.8,1.8,5.4,2.5,8.2
	c-2.3,0.2-4.5,0.3-6.6,0.4c-1.7-2.8-2.5-5.9-2.5-9.1C0,261.5,0.5,258.6,0.9,255.6z"/>
<path class="st13" d="M517.1,255.9c2.1-0.1,4.2-0.2,6.4-0.4c1.9,5.9,1.4,11.7-1.3,17.4c-2.6,0.1-4.8,0.1-7-0.1
	C518.5,267.5,519.1,261.8,517.1,255.9z"/>
<path class="st12" d="M28.4,224c1.5-0.2,2.8-0.2,4.2-0.4c0.8-0.1,1.6-0.5,2.3-0.9c2.5-1.4,5-2.8,7.6-4.1c-2.3,2.6-4.6,5.1-7.1,7.7
	c-2,1.9-3.8,3.8-5.7,5.6c-3.4,3.3-6.7,6.7-10.1,10c1.3-2.4,2.4-4.9,3.8-7.3c1.2-1.9,2.6-3.7,4.3-6c-1.4-0.1-2.4-0.1-3.6-0.2
	C25.5,226.9,26.9,225.5,28.4,224z"/>
<path class="st14" d="M58,203.1c-2.6-0.1-5.3-0.3-8.1-0.4c3.5-3.7,7.1-7.4,10.9-11.1c2.8,0.1,5.4,0.2,8.1,0.5
	C65.4,195.8,61.7,199.5,58,203.1z"/>
<path class="st15" d="M448.6,176.2c-1.9,0.1-3.9,0.1-5.9,0.2c-0.7,0-1.4,0.3-2.3,0.6c-3.1-2.9-6-5.8-8.9-8.8c0-1.1,0.6-1.5,1.6-1.5
	c1.8,0,3.7,0,5.7,0C442.2,169.8,445.4,172.9,448.6,176.2z"/>
<path class="st14" d="M455.7,192.3c0.5-0.4,1-1.1,1.5-1.1c2.1,0,4.3,0.2,6.6,0.3c3.1,2.9,6,5.8,9,8.8c-1.8,0-3.7-0.2-5.6-0.2
	c-0.8,0-1.7,0.5-2.6,0.9C461.5,198.2,458.6,195.3,455.7,192.3z"/>
<path class="st16" d="M2.5,273.6c2.1-0.3,4.3-0.4,6.7-0.5c2,1.7,3.8,3.4,5.6,5.2c0,0.1,0,0.2,0,0.4c0,2.3,0,4.5-0.1,6.6
	c-1.3-0.6-2.6-1.1-3.8-1.9C7.2,281.1,4.5,277.8,2.5,273.6z"/>
<path class="st16" d="M515.2,273.1c2.3,0,4.5,0,6.9,0c-2.2,5.1-5.8,9.1-10.9,11.6c-0.1-2.5-0.1-4.9-0.1-7.3c0-0.1,0-0.2,0.1-0.3
	C512.7,275.7,513.9,274.4,515.2,273.1z"/>
<path class="st17" d="M511.1,277.5c0,2.3,0,4.7,0,7.2c-3,1.1-6,1.9-9.1,2.6c-0.2-2.2-0.2-4.1-0.2-6.2c0-0.1,0-0.2,0.2-0.2
	C505.6,280.9,508.3,279.2,511.1,277.5z"/>
<path class="st17" d="M14.9,285.5c0-2.3,0-4.4,0.1-6.7c3.1,0.7,6.1,1.6,9.1,2.7c0,2.1,0,4.1,0,6.1C20.9,287.7,17.9,286.8,14.9,285.5
	z"/>
<path class="st18" d="M52,287.6c-3,0-6,0-9.1-0.2c-0.2-2.2-0.2-4.1,0-6.1c3.2,0,6.1,0,9.1,0.2C52,283.6,52,285.5,52,287.6
	C52.1,287.5,52,287.5,52,287.6z"/>
<path class="st19" d="M42.7,281.3c0,2,0,3.9,0,6.1c-3,0.2-6,0.2-9.1,0c-0.2-2.2-0.2-4.1,0-6.1C36.8,281.2,39.7,281.2,42.7,281.3
	C42.7,281.2,42.7,281.3,42.7,281.3z"/>
<path class="st18" d="M483.2,287.5c-3,0-6,0-9.1,0.1c-0.2,0-0.2,0-0.2-0.2c0-2.2,0-4.1,0.2-6.1c3,0,5.9,0,8.8,0c0.2,0,0.2,0,0.3,0.2
	C483.2,283.6,483.2,285.5,483.2,287.5z"/>
<path class="st19" d="M483.4,287.5c-0.2-2-0.2-4-0.1-6.1c0.1-0.2,0.3-0.2,0.5-0.2c3,0,5.9,0,8.8,0c0,0,0,0.1,0,0.2
	c0,2.1,0,4.1,0,6.1C489.5,287.5,486.6,287.5,483.4,287.5z"/>
<path class="st20" d="M492.7,287.5c-0.2-2-0.2-4,0-6.1c3.2-0.2,6.1-0.2,9.1-0.2c0,2,0,3.9,0,6.1
	C498.8,287.5,495.9,287.5,492.7,287.5z"/>
<path class="st20" d="M33.4,281.3c0,2,0,3.9,0,6.1c-3,0.2-6,0.2-9.1,0.2c-0.2-2-0.2-4-0.2-6.1c0-0.2,0-0.2,0.2-0.2
	C27.4,281.2,30.4,281.2,33.4,281.3C33.4,281.2,33.4,281.3,33.4,281.3z"/>
<path class="st21" d="M473.9,281.3c0,2,0,3.9,0,6.1c-0.7,0.2-1.4,0.2-2.1,0.2c-139.3,0-278.5,0-417.8,0c-0.6,0-1.1,0-1.8,0
	c-0.2-2-0.2-3.9-0.2-6.1c0-0.2,0-0.2,0.2-0.2c0.5,0,0.8,0,1.1,0c139.7,0,279.3,0,419,0C472.8,281.2,473.4,281.2,473.9,281.3
	C473.9,281.2,473.9,281.3,473.9,281.3z"/>
<path class="st22" d="M455.6,192.3c3,3,5.9,5.9,8.9,8.9c4.2,4.2,8.4,8.4,12.5,12.6c0.6,0.6,1.1,1.2,1.6,1.9
	c-0.9-0.1-1.8-0.4-2.6-0.5c-3.6-0.7-7.3-1.9-10.9-1.9c-134.2-0.1-268.5-0.1-402.7,0c-4.2,0-8.4,1.2-12.6,2c-1.5,0.3-3,0.8-4.5,1.3
	c1.9-2.1,3.9-4.3,5.9-6.3c2.2-2.3,4.5-4.6,6.8-6.9c3.7-3.8,7.4-7.4,11.2-11.2c0.5-0.4,1.1-0.6,1.4-1c6.5-6.5,12.9-13.1,19.3-19.7
	c0.1-0.1,0.2-0.3,0.4-0.5c0.6-0.6,1.2-1.1,1.7-1.6c35.5-35.5,71-71,106.5-106.6c4.1-4.1,8.1-8.4,12.2-12.5
	c12.9-12.9,25.7-25.8,38.7-38.6c7.3-7.2,18.9-6.9,26.1,0.3c30.3,30.3,60.6,60.6,90.9,90.9c0.5,0.5,0.8,1.2,1.2,1.8
	c0.2-0.2,0.4-0.3,0.6-0.5c0-0.4,0.1-0.8,0.1-1.2c0.1-3.6,0.3-7.2,0.3-10.8c0-1.8-0.3-3.6-0.3-5.4c0-15.3,0-30.6,0-45.9
	c0-2.1,0.2-4.4,2-5.8c1.3-0.9,2.9-1.9,4.4-1.9c12.5-0.1,24.9-0.1,37.4-0.1c3.4,0,5.9,3,6,7c0.1,3.7,0,7.3,0,11c0,11.3,0,22.7,0,34
	c0,11.8,0,23.6,0,35.5c0,2.3-0.3,4.7-0.3,7c0.1,6.6,0.3,13.2,0.3,19.8c0,2-0.3,3.9-0.3,5.9c0,0.7,0.4,1.6,0.9,2.1
	c4.2,4.2,8.4,8.4,12.7,12.7c3,3,5.9,5.9,8.9,8.9C445.5,182.1,450.5,187.2,455.6,192.3z"/>
<path class="st23" d="M24.1,281.3c-3-0.9-6-1.7-9.1-2.7c-0.1,0-0.1-0.2-0.2-0.5c0-4.9-0.2-9.5,0-14.2c0.2-4.1,0.5-8.1,1.2-12.1
	c0.4-2.8,1.4-5.5,2.1-8.2c0.4-0.5,0.9-1.1,1.4-1.7c3.5-3.4,6.8-6.7,10.2-10.1c1.9-1.9,3.7-3.7,5.8-5.6c3,0.1,5.7,0.2,8.4,0.2
	c0.6,0,1.1,0.1,1.6,0.2c-6,3.3-10.9,7.7-14.8,13.4c-4.9,7.5-6.8,15.6-6.7,24.4C24.2,270,24.1,275.6,24.1,281.3
	C24.1,281.2,24.1,281.2,24.1,281.3z"/>
<path class="st24" d="M18,243.7c-0.6,2.7-1.6,5.4-2,8.2c-0.6,4-1,8.1-1.2,12.1c-0.2,4.6,0,9.3,0,14.1c-1.8-1.5-3.5-3.2-5.4-5
	c-1-2.8-2.1-5.5-2.8-8.2c-0.8-3.1,0-6.1,1.1-9.1C10,250.7,14.3,247.5,18,243.7z"/>
<path class="st25" d="M45.7,226.6c-0.6,0-1.1-0.1-1.7-0.1c-2.7-0.1-5.4-0.2-8.2-0.3c2.2-2.6,4.5-5.1,7-7.7c0.7-0.6,1.4-1,2.2-1.6
	c0.3-0.2,0.4-0.3,0.4-0.4c0,0,0,0,0,0c1.5-0.4,2.9-1,4.4-1.3c4.2-0.8,8.4-2,12.6-2c134.2-0.1,268.5-0.1,402.7,0
	c3.6,0,7.3,1.2,10.9,1.9c0.8,0.2,1.7,0.4,2.7,0.6c0.2,0,0.1,0,0.2,0.1c0.1,0.2,0.2,0.2,0.3,0.3c0.5,0.5,1.1,0.9,1.7,1.4
	c2.8,2.8,5.5,5.6,8.1,8.6c-3,0.1-5.9,0.1-8.9,0.1c-0.8-0.2-1.5-0.3-2.1-0.6c-5-2.2-10.3-3.5-15.8-3.5c-132.8,0-265.6,0-398.4,0
	c-2,0-4,0.1-5.9,0.6C53.8,223.9,49.8,225.3,45.7,226.6z"/>
<path class="st22" d="M479.1,216.1c-0.1,0-0.2,0-0.3-0.2C478.9,215.8,479,215.9,479.1,216.1z"/>
<path class="st22" d="M45.2,216.5c0,0.1-0.1,0.1-0.3,0.3C45,216.8,45.1,216.7,45.2,216.5z"/>
<path class="st23" d="M480.2,226.2c2.9,0,5.8,0.1,8.8,0c4.9,4.6,9.6,9.3,14.3,14c1.1,1.1,2.3,2.2,3.5,3.4c0.4,0.5,0.8,0.9,1.2,1.5
	c0.2,0.3,0.3,0.3,0.4,0.4c0,0,0,0,0,0.1c0.1,0.6,0.1,1,0.2,1.4c1.8,5.4,2.4,10.9,2.4,16.6c0,4.5,0,9,0,13.5c0,0,0,0.2,0,0.2
	c-2.8,1.7-5.6,3.5-9.1,3.3c-0.2-6.6-0.1-13.1-0.2-19.5c0-1.9-0.2-3.8-0.6-5.7c-0.9-5.6-3-10.8-6.2-15.7c-2.9-4.1-6.3-7.5-10.3-10.4
	C483.3,228.4,481.7,227.3,480.2,226.2z"/>
<path class="st24" d="M511.3,277.1c-0.1-4.5-0.1-9-0.1-13.5c0-5.6-0.6-11.2-2.4-16.6c-0.1-0.4-0.2-0.8-0.2-1.4
	c3.3,2.8,6.6,5.9,8.5,10.2c2,6,1.5,11.6-1.8,17.1C513.9,274.4,512.7,275.7,511.3,277.1z"/>
<path class="st24" d="M508.5,245.5c-0.1,0-0.2,0-0.3-0.2C508.3,245.2,508.4,245.3,508.5,245.5z"/>
<path class="st26" d="M495.1,239.9c3.2,4.8,5.2,10,6.1,15.6c0.3,1.9,0.5,3.8,0.6,5.7c0.1,6.4,0,12.9,0,19.5c0,0.2,0,0.3,0,0.4
	c-3,0.1-6,0.1-9.1,0.1c-0.2,0-0.2,0-0.2-0.2c0-6.5,0.1-12.8,0-19.1c-0.1-5.5-1.3-10.8-4.4-15.5c-1.7-2.6-3.8-4.9-5.5-7.3
	C486.9,239.5,491,239.7,495.1,239.9z"/>
<path class="st27" d="M52,281.3c-3,0-6,0-9.1,0c-0.2,0-0.2,0-0.2-0.2c0-2.8,0-5.4,0.1-8c0.4-0.5,0.8-1,0.8-1.6
	c0.1-1.4,0.1-2.8,0.1-4.2c0.1-2.4,0.4-4.9-0.7-7.4c0-0.5,0-0.9,0.1-1.4c0.8-2.7,2.8-2.7,5-2.6c2.2,0.1,4.4,0.3,6.4-1
	c-2.1,2.9-2.6,6-2.6,9.4C52.1,270,52,275.6,52,281.3C52,281.2,52,281.2,52,281.3z"/>
<path class="st28" d="M42.7,273.1c0,2.6,0,5.2,0,8c-3,0.2-6,0.2-9.1,0.2c-0.2,0-0.2,0-0.2-0.2c0-2.7,0-5.1,0.1-7.7
	c2.6-2,5.6-0.5,8.2-1.4c0.1-1.5-1-3.2,0.9-4C42.7,269.8,42.7,271.4,42.7,273.1z"/>
<path class="st27" d="M482.9,281.2c-2.9,0-5.7,0-8.8,0c-0.2,0-0.2,0-0.2-0.2c0-4.6-0.1-9.1,0-13.6c0.1-4.1,0-8.2-1.7-11.9
	c2.6,0.1,5.1,0.3,7.5,0.3c1.5,0,2.3,0.6,2.3,2c0.1,2.7,0,5.5,0,8.2c0,1.5,0.1,3.1-0.1,4.6c-0.2,1.2,0.2,1.9,1.2,2.5
	c0,0.3,0,0.5-0.1,0.7C483,276.4,482.9,278.8,482.9,281.2z"/>
<path class="st29" d="M482.9,281.2c0-2.4,0-4.8,0.3-7.2c0.2,2.4,0.3,4.8,0.4,7.2c0,0-0.2,0-0.3,0
	C483.2,281.3,483.1,281.3,482.9,281.2z"/>
<path class="st30" d="M483.8,281.2c-0.2-2.4-0.3-4.8-0.5-7.3c-0.1-0.3-0.1-0.5-0.1-0.9c-0.1-5,0.1-9.7-0.4-14.4
	c-1.1-10.3-11.3-18.4-20.9-18.1c-1-0.2-1.8-0.3-2.7-0.3c-58.2,0-116.4,0-174.6,0c-72.8,0-145.5,0-218.3,0c-0.9,0-1.8,0.2-2.9,0.4
	c-4.5-0.1-8.2,1.4-11.7,3.8c-3.4,2.4-5.6,5.6-7.6,9.2c-2.3,2.2-5.2,1.2-7.7,1.9c0.9,0.3,1.7,0.3,2.6,0.3c2.6,0,2.6,0,2.3,2.6
	c-0.1,1.2-0.2,2.4,0,3.5c0.2,0.8,0.9,1.4,1.4,2.3c0,1.3,0,2.4,0,3.6c-2,1-0.8,2.7-0.9,4.2c-2.6,0.8-5.7-0.6-8.2,1.2
	c-0.1-3.9-0.3-7.7-0.1-11.5c0.2-5.4,1.3-10.7,4.3-15.3c1.8-2.7,4-5.1,6.1-7.7c1-0.8,1.9-1.5,3-2.2c0.3-0.2,0.6-0.3,0.8-0.4
	c5.2-3.1,10.7-4.8,17-4.8c132.6,0.1,265.2,0.1,397.8,0.1c2.7,0,5.4,0.5,8,1.3c3,1,5.7,2.5,8.7,3.9c1.1,0.9,2.2,1.7,3.3,2.5
	c1.9,2.4,4,4.7,5.7,7.3c3.1,4.7,4.3,10,4.4,15.5c0.1,6.3,0,12.6,0,19.1C489.7,281.2,486.8,281.2,483.8,281.2z"/>
<path class="st26" d="M43.8,238.8c-2,2.5-4.2,5-6,7.7c-3.1,4.6-4.1,9.9-4.3,15.3c-0.2,3.8,0,7.5,0,11.5c0,2.7,0,5.1,0,7.8
	c-3,0.2-6,0.2-9.1,0.2c-0.2-5.6-0.1-11.2-0.2-16.7c-0.2-8.8,1.8-16.9,6.8-24.4c1.4-0.2,2.6-0.4,3.8-0.5
	C37.8,239.3,40.8,239.1,43.8,238.8z"/>
<path class="st31" d="M472.1,255.6c1.9,3.8,2,7.8,1.9,11.9c-0.1,4.5,0,8.9,0,13.5c-0.6,0.2-1.1,0.2-1.7,0.2c-139.7,0-279.3,0-419,0
	c-0.3,0-0.6,0-1.1,0c-0.2-5.6-0.1-11.3-0.2-16.9c0-3.3,0.5-6.5,2.7-9.4c0.2-0.3,0.3-0.3,0.4-0.5c0.8-0.8,1.5-1.5,2.1-2.2
	c0,0,0,0,0.1,0c3.1-1.6,6.2-1.9,9.5-1.9c131,0,261.9,0,392.9,0c4.2,0,7.8,0.9,10.9,3.9C471.1,254.7,471.6,255.1,472.1,255.6z"/>
<path class="st32" d="M43.9,238.8c-3.1,0.3-6.1,0.5-9.2,0.8c-1.2,0.1-2.4,0.2-3.8,0.4c3.7-5.6,8.6-10,14.6-13.3
	c4.1-1.4,8.2-2.8,12.3-3.9c1.9-0.5,3.9-0.6,5.9-0.6c132.8,0,265.6,0,398.4,0c5.5,0,10.8,1.3,15.8,3.5c0.6,0.3,1.3,0.4,2.1,0.6
	c1.7,1.1,3.2,2.2,4.7,3.3c4,2.8,7.4,6.3,10.3,10.4c-4-0.1-8.2-0.4-12.4-0.6c-1.2-0.8-2.3-1.6-3.4-2.7c0-1.5,1-1.4,1.9-1.4
	c2.5,0,5,0,7.6,0c-0.9-2.9-4.4-5.2-7.5-5.2c-145.5,0-291,0-436.5,0c-0.4,0-0.9,0-1.3,0c-2.4,0.2-5.5,2.8-6.1,5.2c2.6,0,5.1,0,7.6,0
	c1.1,0,1.9,0.2,1.8,1.5C45.9,237.3,45,238,43.9,238.8z"/>
<path class="st29" d="M55,254.5c-0.1,0.1-0.1,0.2-0.3,0.3c-2,1.4-4.3,1.3-6.5,1.1c-2.2-0.1-4.2-0.1-5,2.4c0.2-1.6,0.6-3.1,1-4.7
	c1.9-3.6,4.1-6.8,7.5-9.2c3.5-2.4,7.2-3.9,11.8-3.7c1.1,0.2,2,0.3,2.9,0.3c60.6,0,121.1,0,181.7,0c70.4,0,140.8,0,211.3,0
	c0.9,0,1.8-0.2,2.7-0.4c9.5-0.4,19.7,7.6,20.8,18c0.5,4.7,0.3,9.4,0.4,14.2c-1.1-0.3-1.4-1-1.2-2.2c0.2-1.5,0.1-3.1,0.1-4.6
	c0-2.7,0-5.5,0-8.2c0-1.4-0.9-2-2.3-2c-2.5,0-4.9-0.2-7.5-0.3c-0.6-0.4-1.1-0.9-1.6-1.5c-0.5-0.9-0.8-1.6-1.4-2.1
	c-2.6-2-5.7-2.7-8.9-2.7c-43,0-85.9,0-128.9,0c-88.6,0-177.3,0-265.9,0.1c-2.3,0-4.7,0.9-7,1.6c-0.5,0.1-0.9,0.9-1.3,1.4
	c0,0,0,0-0.1,0C55.7,252.5,55,253.2,55,254.5z"/>
<path class="st28" d="M44.1,253.7c-0.2,1.5-0.6,3-1,4.7c0,0.5,0,0.9-0.1,1.6c-0.2,1.6-0.2,2.8-0.3,4.1c-0.5-0.7-1.2-1.4-1.4-2.1
	c-0.2-1.1-0.1-2.3,0-3.5c0.3-2.6,0.3-2.5-2.3-2.6c-0.9,0-1.7,0-2.6-0.3C38.9,254.9,41.8,255.9,44.1,253.7z"/>
<path class="st29" d="M42.7,264.3c0.1-1.5,0.1-2.7,0.3-4.1c1.2,2.2,0.9,4.7,0.8,7.1c-0.1,1.4,0,2.8-0.1,4.2c0,0.5-0.5,1-0.8,1.6
	c-0.1-1.6-0.1-3.2-0.1-5C42.7,266.7,42.7,265.6,42.7,264.3z"/>
<path class="st33" d="M46.9,236.5c-0.1-1.2-0.9-1.4-1.9-1.4c-2.5,0-5,0-7.6,0c0.5-2.4,3.7-5,6.1-5.2c0.4,0,0.9,0,1.3,0
	c145.5,0,291,0,436.5,0c3,0,6.6,2.3,7.5,5.2c-2.6,0-5.1,0-7.6,0c-0.9,0-1.8-0.1-1.9,1.3c-2.9-1.2-5.6-2.7-8.6-3.7
	c-2.5-0.8-5.3-1.3-8-1.3c-132.6-0.1-265.2,0-397.8-0.1c-6.3,0-11.8,1.7-17,4.8C47.5,236.3,47.3,236.4,46.9,236.5z"/>
<path class="st34" d="M461.9,240.6c-0.8,0.2-1.7,0.5-2.6,0.5c-70.4,0-140.8,0-211.3,0c-60.6,0-121.1,0-181.7,0
	c-0.9,0-1.7-0.1-2.7-0.3c0.8-0.2,1.7-0.5,2.6-0.5c72.8,0,145.5,0,218.3,0c58.2,0,116.4,0,174.6,0
	C460.1,240.3,460.9,240.4,461.9,240.6z"/>
<path class="st27" d="M57.4,252.2c0.3-0.4,0.7-1.2,1.2-1.3c2.3-0.6,4.6-1.6,7-1.6c88.6-0.1,177.3-0.1,265.9-0.1c43,0,85.9,0,128.9,0
	c3.2,0,6.3,0.7,8.9,2.7c0.6,0.5,0.9,1.2,1.4,2c-3.1-2.8-6.7-3.6-10.9-3.6c-131,0.1-261.9,0.1-392.9,0
	C63.6,250.3,60.4,250.6,57.4,252.2z"/>
<path class="st27" d="M55.1,254.4c-0.1-1.2,0.6-1.9,2-2.2C56.6,252.9,55.9,253.6,55.1,254.4z"/>
</svg>
