<?xml version="1.0" encoding="utf-8"?>
<!-- Generator: Adobe Illustrator 28.1.0, SVG Export Plug-In . SVG Version: 6.00 Build 0)  -->
<svg version="1.1" id="Layer_1" xmlns="http://www.w3.org/2000/svg" xmlns:xlink="http://www.w3.org/1999/xlink" x="0px" y="0px"
	 viewBox="0 0 471.4 483.7" style="enable-background:new 0 0 471.4 483.7;" xml:space="preserve">
<style type="text/css">
	.st0{fill:#57D1FE;}
	.st1{fill:#48C8FE;}
	.st2{fill:#66DAFE;}
	.st3{fill:#DAA6FF;}
	.st4{fill:#79E6FE;}
	.st5{fill:#6DDEFE;}
	.st6{fill:#85EDFF;}
	.st7{fill:#8DF3FF;}
	.st8{fill:#32B4F3;}
	.st9{fill:#3CBBF4;}
	.st10{fill:#31B3F3;}
	.st11{fill:#28AEF2;}
	.st12{fill:#A8B2FA;}
	.st13{fill:#14A0EF;}
	.st14{fill:#109EEF;}
	.st15{fill:#DDADFF;}
	.st16{fill:#23AAF1;}
	.st17{fill:#0093ED;}
	.st18{fill:#CDA9FD;}
	.st19{fill:#B9A3FA;}
	.st20{fill:#73E2FE;}
	.st21{fill:#38A2F0;}
	.st22{fill:#CCA5FD;}
	.st23{fill:#4AA6F1;}
	.st24{fill:#19A3F0;}
	.st25{fill:#80ADF7;}
	.st26{fill:#82A1F8;}
	.st27{fill:#9CBAF9;}
	.st28{fill:#5DA9F3;}
	.st29{fill:#A3B6FA;}
	.st30{fill:#6DACF5;}
	.st31{fill:#99A3F4;}
	.st32{fill:#A6A5F7;}
	.st33{fill:#7BE7FE;}
	.st34{fill:#84ECFF;}
	.st35{fill:#A7A0F7;}
	.st36{fill:#5CACF3;}
	.st37{fill:#6CB0F5;}
	.st38{fill:#A9B1FA;}
	.st39{fill:#999FF5;}
	.st40{fill:#AEACFB;}
</style>
<path class="st0" d="M0.1,448.7c0-12.9,0-25.8,0.1-38.9c157.1-0.2,313.9-0.2,470.8,0c0,12.3,0,24.4,0,36.4c0,2.4,0,2.5-2.4,2.5
	C312.4,448.7,156.2,448.7,0.1,448.7z"/>
<path class="st1" d="M0,448.9c156.2-0.2,312.4-0.2,468.5-0.2c2.4,0,2.4,0,2.4-2.5c0-12.1,0-24.2,0-36.6c0-10.4,0-20.4,0.1-30.5
	c0.1,0,0.2,0,0.2,0c0,0.6,0.1,1.2,0.1,1.9c0,26.4,0.1,52.7,0,79.1c0,5.8-2.3,10.9-6.2,15.2c-3.2,3.5-7,6.2-11.7,7.3
	c-2.1,0.5-4.3,1.1-6.4,1.1c-140.9,0.1-281.7,0.1-422.6,0c-5.8,0-11.1-2-15.6-5.8c-5.8-5-8.9-11.2-8.8-18.9C0,455.6,0,452.3,0,448.9z
	"/>
<path class="st2" d="M471,379.1c0,10.1,0,20.1,0,30.3c-156.9,0.2-313.7,0.2-470.8,0.2c-0.2-9.6-0.2-19.1,0-28.8
	c69.3-0.2,138.4-0.2,207.5-0.2c0.6,0,1.1,0.1,1.7,0c0.6-0.1,1.1-0.5,1.7-0.7c7.7,5.3,15.3,10.5,22.9,15.7c1.1,0.8,1.9,0.8,3.1,0
	c9.2-6.4,18.4-12.7,27.7-19c2.5-1.7,5.1-3.3,7.7-4.9c0.8,0.3,1.5,0.6,2.2,0.6c65.5,0,130.9,0,196.4,0.2C471,374.9,471,377,471,379.1
	z"/>
<path class="st3" d="M261.9,0c0.7,0,1.4,0,2,0c47.8,0,95.6,0,143.4,0c6.4,0,10.9,3.7,12.6,9.9c0.1,0.4,0.1,0.9,0.1,1.3
	c0,12.1,0,24.3-0.2,36.6c-1.4,0.2-2.6,0.2-3.7,0.2c-1.4,0-2,0.7-2,2c-0.1,3.7-0.3,7.4-0.3,11c0,12.1,0.1,24.3-0.1,36.4
	c0,4.1-0.7,8.2-1.2,12.2c-5-3.6-9.9-7.2-14.9-10.8c-5.5-4.1-10.9-8.1-16.4-12.1c-8.8-6.5-17.6-13-26.4-19.5
	c-7.6-5.6-15.3-11.2-22.9-16.8c-11.2-8.3-22.3-16.6-33.5-24.8c-8.2-6-16.3-12-24.5-17.9c-0.8-0.6-2-1-3-1.1c-4.5-0.1-9-0.1-13.6,0
	c-0.6,0-1.2,0.2-1.9,0.3c-1.3-0.3-2.4-0.5-3.6-0.8c-0.4-0.4-0.7-0.8-1-0.9c-4.6-0.9-9.3-2.1-14-2.6c-5.2-0.6-10.5,0.1-15.6,1.5
	c-1.8,0.5-3.4,1.4-5.3,2.2c-1.3,0.2-2.4,0.5-3.7,0.6c-4.7-0.2-9.2-0.2-13.8-0.3c-0.7,0-1.4-0.2-2.1-0.5c2.2-1.5,4.3-3,6.4-4.4
	c0.7-0.5,1.2-1.1,1.7-1.7c0.4,0,0.8,0,1.5-0.1c10.6,0,21,0,31.3,0C245.6,0,253.8,0,261.9,0z"/>
<path class="st3" d="M204.5,0c-0.4,0.6-0.9,1.3-1.6,1.7c-2.1,1.5-4.2,2.9-6.5,4.5c-0.7,0.4-1.3,0.7-1.8,1.1
	c-9.3,6.9-18.6,13.9-28,20.8c-9.9,7.3-19.8,14.5-29.7,21.8c-12.1,8.9-24.2,17.9-36.4,26.8c-8.1,6-16.3,11.9-24.4,17.9
	c-2.4,1.8-4.6,3.7-7.1,5.5c-3.2,2.2-6.2,4.4-9.3,6.6c-1.6,1.1-3.4,2.1-5.1,3c-0.1-0.8-0.3-1.5-0.4-2.2c-0.2-5-0.3-10-0.4-15
	c-0.1-3.7,0.2-7.4-0.1-11.1c-0.2-3.9-0.4-7.8,0-11.7c0-0.4,0-0.7,0-1.1c0-1.5-0.6-2.5-2.4-2.3c-1.2,0.1-2.4,0-3.5,0
	c0-3-0.1-5.9-0.1-8.9c0-15,0.1-30-0.1-45C47.9,7.1,52.4,0.9,58.2,0.4C59.5,0.3,60.7,0,62,0C109.4,0,156.9,0,204.5,0z"/>
<path class="st4" d="M0.1,356.8c0-13.2,0-26.3,0.1-39.6c38.5-0.2,76.8-0.2,115-0.2c0.9,0,1.8-0.5,2.9-0.7c8.1,5.5,16.1,10.9,24,16.4
	c11.3,7.8,22.6,15.6,33.8,23.5c-0.9,0.3-1.7,0.6-2.5,0.6C115.6,356.8,57.8,356.8,0.1,356.8z"/>
<path class="st5" d="M0,357c57.8-0.2,115.6-0.2,173.4-0.2c0.8,0,1.6-0.3,2.6-0.6c2.1,1.2,4.1,2.3,5.9,3.6
	c7.1,4.8,14.1,9.6,21.1,14.5c2.6,1.8,5.2,3.7,7.9,5.6c-0.5,0.3-1,0.6-1.6,0.7c-0.5,0.1-1.1,0-1.7,0c-69.1,0-138.2,0-207.5,0
	C0.1,372.8,0,365,0,357z"/>
<path class="st6" d="M118,316.2c-0.9,0.3-1.8,0.7-2.7,0.7c-38.3,0-76.6,0-115,0c-0.2-12.4-0.2-24.8,0-37.4
	c19.6-0.2,39.1-0.2,58.5-0.2c0.8,0,1.6,0.1,2.4-0.1c0.5-0.1,1-0.7,1.5-1c0.7,0.4,1.4,0.8,2,1.3c15.7,10.7,31.4,21.4,47,32.2
	C113.8,313.2,115.9,314.7,118,316.2z"/>
<path class="st7" d="M62.5,278.3c-0.5,0.4-0.9,1-1.4,1.1c-0.8,0.2-1.6,0.1-2.4,0.1c-19.4,0-38.9,0-58.5,0c-0.2-14.5-0.2-29-0.1-43.7
	c3.9,2.3,7.6,4.8,11.4,7.4c6.1,4.2,12.2,8.4,18.3,12.6c1.8,1.2,3.5,2.3,5.3,3.6c4.4,3,8.6,5.9,13,8.8c2.1,1.5,4.2,2.9,6.3,4.3
	C57.2,274.5,59.8,276.4,62.5,278.3z"/>
<path class="st8" d="M34.6,172.6c1.5-1.2,3.1-2.4,4.8-3.5c0.3,0.7,0.4,1.4,0.4,2.1c0,5.5,0,10.9-0.1,16.4c-0.4,0.5-0.8,1-0.9,1.4
	c-0.1,1.4-0.5,2.4-2.2,2.4c-0.3,0-0.9,0.7-1,1.2c-0.4,2.4-0.9,4.7-1,7.1c-0.2,4,0,8-0.1,12.1c0,1.6-0.3,3.3-2.2,3.3
	c-2.3,0-2.4,1.5-2.6,3c-0.1,1.5,0,3,0,4.5c-0.1,2.2-0.6,2.7-2.8,3.1c-0.7,0.1-1.6,0.8-1.9,1.4c-0.8,1.8-2.1,2.3-4,2.3
	c-7-0.1-14,0-21,0c0-6.7,0-13.4,0.1-20.3c7.3-0.2,14.3-0.2,21.4-0.1c1.8,0,2.7-0.4,3.1-2.3c0.3-1.3,0.5-3.3,2.7-3.3
	c2,0.1,2.4-1.1,2.4-2.7c0-1.8,0-3.6,0-5.4c0.1-2.1,0.8-2.9,2.8-3.1c1.4-0.1,2.1-0.8,2.1-2.3C34.6,184,34.6,178.3,34.6,172.6z"/>
<path class="st9" d="M436.4,172.3c5.3,3.9,10.6,7.7,15.9,11.6c3.2,2.3,6.4,4.5,9.4,7c5,4,8.4,9,9.2,15.5c0.2,1.5,0.3,3,0.2,4.7
	c-1,0.3-1.9,0.5-2.7,0.5c-6.1,0-12.1,0-18.2,0c-3.1,0-3.1,0-4-3.1c-0.3-1.2-0.7-2.5-2.3-2.5c-1.4,0.1-2-0.6-2.2-1.9
	c-0.3-2.5-0.6-5-1.1-7.5c-0.1-0.6-0.8-1.7-1.1-1.7c-1.5,0.2-2.3-1-3.3-1.8c0-0.4,0-0.7,0.1-1.1c0-1.1-0.1-2.1-0.1-3
	C436.4,183.6,436.4,178,436.4,172.3z"/>
<path class="st9" d="M34.5,172.6c0.1,5.7,0.1,11.4,0.2,17.1c0,1.5-0.7,2.1-2.1,2.3c-2,0.2-2.7,1-2.8,3.1c-0.1,1.8,0,3.6,0,5.4
	c0,1.6-0.4,2.8-2.4,2.7c-2.2-0.1-2.3,1.9-2.7,3.3c-0.5,1.9-1.3,2.3-3.1,2.3c-7.1-0.1-14.1,0-21.4,0c-0.2-5.1,1.9-9.5,4.9-13.5
	c3.5-4.7,8.7-7.3,13.1-10.8C23.5,180.3,29,176.5,34.5,172.6z"/>
<path class="st10" d="M436.4,193.5c1,0.7,1.7,1.8,3.3,1.6c0.3,0,1,1,1.1,1.7c0.5,2.5,0.8,5,1.1,7.5c0.2,1.3,0.7,2,2.2,1.9
	c1.6-0.1,2,1.3,2.3,2.5c0.9,3.1,0.9,3.1,4,3.1c6.1,0,12.1,0,18.2,0c0.9,0,1.7-0.2,2.7-0.3c0.2,5.4,0.2,10.9,0,16.5
	c-7.4,0.2-14.7,0.2-21.9,0.2c-1.4,0-2.4-0.2-3-1.8c-0.3-0.7-1.4-1.4-2.2-1.5c-1.3-0.1-1.9-0.6-2-1.9c-0.3-2.4-0.7-4.8-1.1-7.1
	c-0.1-0.5-0.5-1.3-0.8-1.3c-2.2,0.1-2.6-1.3-3-3c0-0.2-0.4-0.4-0.7-0.7c0-0.9,0-1.7,0-2.6C436.4,203.2,436.4,198.3,436.4,193.5z"/>
<path class="st11" d="M0,229.4c7-0.2,14-0.2,21-0.1c1.9,0,3.1-0.5,4-2.3c0.3-0.6,1.2-1.3,1.9-1.4c2.2-0.4,2.7-0.9,2.8-3.1
	c0.1-1.5-0.1-3,0-4.5c0.1-1.5,0.3-3,2.6-3c1.9,0,2.2-1.7,2.2-3.3c0-4-0.1-8,0.1-12.1c0.1-2.4,0.6-4.7,1-7.1c0.1-0.4,0.6-1.2,1-1.2
	c1.7,0,2.1-1,2.2-2.4c0-0.5,0.5-0.9,0.9-1.3c0.1,3.2,0.1,6.4,0.1,9.6c0,3.2,0,6.1-0.1,9.2c-0.8,1-1.4,2.1-2.9,2
	c-0.3,0-0.9,0.7-1,1.1c-0.4,3.6-0.9,7.2-1.1,10.8c-0.2,2.5,0,5.1,0,7.6c0,2.3-0.7,3-2.9,3.4c-0.5,0.1-1.2,0.7-1.4,1.2
	c-0.4,1-0.5,2-0.6,3.1c-0.3,2.5-0.6,2.8-3.1,3.2c-0.6,0.1-1.4,0.7-1.7,1.3c-0.7,1.5-1.7,2.1-3.3,2c-2.5-0.1-4.9-0.1-7.4,0
	c-0.9,0-1.8,0.5-2.8,0.8c-3.7-2.5-7.4-4.9-11.3-7.4C0.1,233.5,0,231.5,0,229.4z"/>
<path class="st12" d="M420,160c0,0.1,0,0.1,0.1,0.5c0,25.7,0,51.1,0,76.6c0,0.9,0,1.7-0.2,2.6c-1,0.5-1.9,1-2.8,1.5
	c-1.1,0.6-2.2,1.2-3.3,1.7c0-20.4,0-40.6,0-61c0-8.6,0-17.1,0.2-25.5c0.8,0.3,1.4,0.6,2,1C417.3,158.1,418.6,159.1,420,160z"/>
<path class="st13" d="M421.5,161.4c1.7,1.2,3.4,2.3,5.1,3.8c0.1,9.6,0.1,18.9,0.1,28.2c0,4.2,0,8.3,0,12.5c0,2.1,0.9,3.1,2.9,3.2
	c1.4,0.1,2,0.6,1.9,2.1c-0.1,5.4,0,10.8,0,16.4c0,5.6,0,11.1,0,16.5c0,1.5,0.5,2.4,2.1,2.3c1.6-0.1,2.2,0.7,2.4,2.2
	c0.3,3.4,0.7,6.7,1,10.1c-1.9,1.3-3.7,2.5-5.5,3.6c0-3.1,0-6.1,0-9.1c0-2.2-0.6-2.7-2.7-3.1c-0.5-0.1-1.2-0.7-1.4-1.2
	c-0.4-1.1-0.7-2.3-0.7-3.4c0.1-11.7,0.1-23.4-1.5-35c-0.1-0.5-0.5-1.4-0.7-1.5c-1.4-0.1-1.9-0.9-2-2.2c0-0.4-0.6-0.7-0.9-1.2
	C421.5,190.7,421.5,176.1,421.5,161.4z"/>
<path class="st14" d="M48,268c-4.3-2.9-8.5-5.8-12.9-8.9c0.5-1,1.1-2.3,1.8-2.3c2-0.2,2.4-1.4,2.5-2.9c0.2-2.8,0.3-5.5,0.4-8.3
	c0.1-2.5-0.1-5,0.1-7.4c0.1-1.5,0.2-3.4,2.2-3.8c2.4-0.5,2.6-0.6,2.6-3.1c0-11.5,0-23,0-34.7c0-10.6,0-21.1,0-31.5
	c1-0.8,2-1.6,3.2-2.4c0.2,0.1,0.2,0.2,0.2,0.4c0,25.2,0,50.2,0,75.2c0,0.4,0,0.9,0,1.5c0,2,0,3.9,0,5.9c0,4.1,0,8.1,0,12.3
	c0,2,0,3.9,0,6C48,265.4,48,266.7,48,268z"/>
<path class="st11" d="M436.4,211c0.2,0.2,0.6,0.3,0.7,0.5c0.3,1.7,0.8,3.1,3,3c0.2,0,0.7,0.8,0.8,1.3c0.4,2.4,0.8,4.7,1.1,7.1
	c0.2,1.2,0.7,1.8,2,1.9c0.8,0.1,2,0.8,2.2,1.5c0.6,1.6,1.6,1.8,3,1.8c7.3,0,14.5,0,21.9,0c0.2,2.4,0.2,4.7,0.1,7.3
	c-0.3,0.3-0.5,0.4-0.7,0.6c-2.1,1.4-4.1,2.7-6.1,4c-2,1.3-4,2.5-6.1,3.7c-2.9-0.2-5.7-0.3-8.5-0.3c-1.6,0-2.7-0.4-3.5-1.9
	c-0.3-0.6-1.2-1.4-1.7-1.4c-2.3,0.2-2.6-1.4-3-3c-0.2-0.9-0.3-1.8-0.4-2.7c-0.3-1.3-0.8-2.1-2.3-2.2c-0.5,0-1.1-0.7-1.6-1.1
	c-0.3-0.3-0.6-0.7-0.9-1.2c0-0.7,0-1.2,0-1.9C436.4,222.1,436.4,216.5,436.4,211z"/>
<path class="st15" d="M412.6,109.8c0.4-4.1,1-8.2,1.1-12.3c0.1-12.1,0-24.3,0.1-36.4c0-3.7,0.3-7.4,0.3-11c0-1.4,0.6-2.1,2-2
	c1.2,0,2.4,0,3.7,0c0.2,0.5,0.2,1,0.2,1.5c0,25.6,0,51.1-0.2,76.8c-0.7-0.2-1.3-0.5-1.9-0.9c-1.4-0.9-2.9-1.8-4.3-2.8
	c0-0.3,0-0.4,0-0.8c0-3.2,0.1-6.2,0-9.2C413.6,111.7,413,110.7,412.6,109.8z"/>
<path class="st15" d="M48,66.4c1.2-0.2,2.4-0.1,3.6-0.2c1.7-0.1,2.3,0.8,2.4,2.3c0,0.4,0,0.7,0,1.1c-0.4,3.9-0.3,7.8,0,11.7
	c0.2,3.7,0,7.4,0.1,11.1c0.1,5,0.2,10,0.4,15c0,0.7,0.2,1.3,0.3,2.3c-0.1,1-0.3,1.8-0.3,2.5c0,3.3,0,6.5,0,9.9c0,0.3,0,0.4-0.2,0.6
	c-0.6,0.3-1.1,0.5-1.5,0.8c-1.5,1-3,2-4.6,3c0-8.5-0.1-17.1-0.1-25.6C48,89.5,48,78,48,66.4z"/>
<path class="st16" d="M436.4,210.8c0,5.8,0,11.3-0.1,17.1c-1.7-0.1-3.2-0.3-4.7-0.5c0-5.4,0-10.8,0-16.2c0-1.4-0.5-2-1.9-2.1
	c-2-0.1-2.9-1.1-2.9-3.2c0-4.2,0-8.3,0-12.5c0-9.3,0-18.6,0-28.1c1.6,1,3.2,2.1,4.8,3.6c0,7.8,0,15.2,0,22.8c0,4.9,0,9.7,0,14.4
	c0,1.3,0.4,1.9,1.8,1.8c1,0,2.1,0.2,3.1,0.3C436.4,209.1,436.4,209.9,436.4,210.8z"/>
<path class="st17" d="M421.5,161.3c0,14.8,0,29.4,0,44.4c0.4,21.2-0.9,42.1,0.7,63c-0.8,0.6-1.5,1-2.2,1.3c0-2.2,0-4.3,0-6.5
	c0-2,0-3.9,0-5.9c0-2.2,0-4.2,0-6.3c0-2,0-3.9,0-6c0-2,0-3.9,0-5.8c0-0.9,0.1-1.7,0.1-2.6c0-25.4,0-50.9,0.1-76.5
	C420.6,160.6,421,160.9,421.5,161.3z"/>
<path class="st18" d="M413.7,122.8c1.4,0.9,2.9,1.8,4.3,2.7c0.6,0.3,1.1,0.7,1.8,1.1c0.1,7.6,0.2,15.2,0,22.9c-1.1-0.4-2-1-2.9-1.6
	c-1.1-0.7-2.1-1.3-3.2-2.1c0-0.3,0-0.4,0-0.8c0-3.9,0-7.6,0-11.5C413.7,129.7,413.7,126.3,413.7,122.8z"/>
<path class="st16" d="M44.5,165.2c0.1,10.4,0.1,20.8,0,31.4c-1.7,0.3-3.2,0.4-4.7,0.5c0-3.1,0-6.2,0-9.5c0-5.6,0-11.1,0-16.5
	c0-0.7-0.1-1.3-0.3-2.1C41.1,167.7,42.7,166.5,44.5,165.2z"/>
<path class="st18" d="M48,126.7c1.5-1.2,3.1-2.2,4.6-3.1c0.4-0.3,0.9-0.5,1.6-0.6c0,3.7-0.1,7.1-0.2,10.8c0.1,0.8,0.3,1.5,0.3,2.1
	c0,3.1,0,6.1,0,9.3c0,0.3,0,0.4-0.2,0.6c-0.7,0.4-1.3,0.7-1.8,1.1c-1.4,0.9-2.8,1.8-4.3,2.7C48,142,48,134.4,48,126.7z"/>
<path class="st10" d="M431.6,191.6c0-7.5,0-14.9,0-22.6c1.5,0.9,3.1,2.1,4.7,3.2c0.1,5.7,0.1,11.3,0.1,16.9c0,1,0.1,2-0.1,3
	C434.6,192,433.1,191.8,431.6,191.6z"/>
<path class="st19" d="M48,149.7c1.4-1.1,2.9-1.9,4.3-2.8c0.6-0.4,1.1-0.7,1.8-0.9c0.2,4,0.2,7.9,0.2,11.9c0,0.4,0,0.7-0.2,1
	c-0.7,0.2-1.3,0.4-1.8,0.7c-1.5,1.1-2.9,2.3-4.3,3.4c0-0.1,0-0.1-0.1-0.3C48,158.4,48,154.1,48,149.7z"/>
<path class="st19" d="M413.8,145.8c1.1,0.7,2.1,1.3,3.2,2c0.9,0.6,1.9,1.2,2.9,1.8c0.1,3.4,0.2,6.7,0.2,10.3
	c-1.4-0.7-2.7-1.7-4.1-2.6c-0.6-0.4-1.3-0.7-2.1-1.1c-0.2-0.4-0.2-0.7-0.2-1.1C413.7,151.8,413.8,148.8,413.8,145.8z"/>
<path class="st0" d="M471.1,379.1c-0.1-2.1-0.1-4.2-0.1-6.7c0-9.5,0-18.7,0-28.1c0-9.6,0-19,0-28.6c0-6.4,0-12.6,0.1-18.8
	c0.1,0,0.2,0,0.2,0c0,0.4,0.1,0.9,0.1,1.3c0,26.9,0,53.7,0,80.8C471.3,379.1,471.2,379.1,471.1,379.1z"/>
<path class="st5" d="M471.4,296.7c0,0.2-0.2,0.2-0.3,0c-0.1-4.5-0.1-8.9-0.1-13.4c0-15.2,0-30.3,0-45.4c0-0.7-0.3-1.4-0.4-2.1
	c0.2-0.1,0.3-0.2,0.6-0.4c0.1,7.2,0.2,14.5,0.2,21.7C471.4,270.3,471.4,283.4,471.4,296.7z"/>
<path class="st17" d="M261.9-0.2C253.8,0,245.6,0,237.5,0c-10.3,0-20.7,0-31.2,0c0.2-0.1,0.5-0.3,0.8-0.3
	C225.3-0.3,243.5-0.3,261.9-0.2z"/>
<path class="st20" d="M471,344.5c0,9.2,0,18.4,0,27.7c-65.5,0.2-130.9,0.2-196.4,0.2c-0.7,0-1.4-0.4-2.1-0.7
	c8-5.7,16-11.2,24.1-16.7c5.7-3.9,11.4-7.7,17.1-11.4c0.7,0.4,1.4,1,2.1,1C367.5,344.5,419.3,344.5,471,344.5z"/>
<path class="st21" d="M313.6,343.4c-5.7,3.8-11.4,7.7-17,11.5c-8.1,5.5-16.1,11-24.2,16.7c-2.6,1.8-5.2,3.4-7.7,5.1
	c-9.2,6.3-18.5,12.6-27.7,19c-1.1,0.8-1.9,0.8-3.1,0c-7.6-5.3-15.2-10.5-22.9-15.7c-2.7-1.9-5.3-3.8-8-5.6
	c-7-4.8-14.1-9.7-21.1-14.5c-1.9-1.3-3.8-2.5-5.9-3.7c-11.4-7.9-22.7-15.7-34-23.5c-8-5.5-15.9-10.9-24-16.4
	c-2.2-1.5-4.3-3.1-6.5-4.5c-15.7-10.7-31.3-21.4-47-32.2c-0.6-0.4-1.2-0.8-2-1.3c-2.8-1.9-5.5-3.8-8.3-6c-0.1-1.6-0.1-2.9-0.1-4.5
	c0.7,0.4,1,0.5,1.2,0.7c3.9,2.7,7.8,5.4,11.8,8.1c8,5.4,15.9,10.9,23.9,16.3c9.2,6.3,18.4,12.6,27.6,18.9
	c8.5,5.8,17.1,11.6,25.6,17.5c15,10.2,29.9,20.5,44.8,30.8c6.6,4.5,13.1,9.1,19.8,13.5c3.7,2.5,7.5,4.9,11.5,6.8
	c6.1,2.9,12.7,3.3,19.4,2.3c6-0.9,11.1-3.4,16-6.9c9.3-6.5,18.7-12.8,28-19.2c15-10.3,30-20.5,45.1-30.8
	c8.6-5.9,17.2-11.7,25.7-17.5c10.2-7,20.3-13.9,30.4-20.9c7-4.8,14.1-9.7,21.1-14.5c2.4-1.6,4.8-3.2,7.5-5c0,2.6,0,4.7-0.1,6.9
	c-3.9,2.7-7.7,5.4-11.6,8.1c-13.1,8.9-26,17.7-38.9,26.6c-2.5,1.7-5,3.6-7.7,5.4c-11.7,7.9-23.2,15.8-34.7,23.6
	C318.4,340,316,341.7,313.6,343.4z"/>
<path class="st19" d="M54,133.6c0.1-3.5,0.2-7,0.3-10.6c0-0.3,0-0.5,0.1-0.8c7.5-5.5,14.8-10.9,22.2-16.3c2.2-1.6,4.2-3.3,6.5-5
	c7.4-5.3,14.6-10.5,21.8-15.8c10.2-7.5,20.3-15,30.4-22.4c12.4-9.1,24.8-18.2,37.2-27.3c9.3-6.8,18.4-13.7,27.8-20.4
	c3.9-2.8,8.1-5.2,12.1-7.8c1.1-0.2,2.3-0.5,3.7-0.7c12.1,0,23.9,0,35.7,0c1.1,0.2,2.3,0.5,3.7,0.8c2.9,1.6,5.7,2.8,8.1,4.6
	c10.4,7.5,20.7,15.2,31.1,22.8c13.1,9.7,26.2,19.4,39.4,29.1c12.1,9,24.2,17.9,36.4,26.9c4.6,3.4,9.2,6.7,13.9,10.1
	c6.4,4.8,12.6,9.4,19,14c3.4,2.5,6.9,5,10.4,7.4c0,0.2,0,0.3,0,0.6c0,3.6,0,7.1-0.1,10.7c-12.2-8.7-24.3-17.6-36.4-26.4
	c-3.2-2.3-6.4-4.6-9.7-7c-1-0.9-2-1.6-3-2.4c-7.3-5.4-14.6-10.8-21.9-16.2c-6.2-4.5-12.4-9-18.5-13.6c-9.9-7.3-19.8-14.7-29.8-22.1
	C284.2,38.3,274,31,264,23.5c-7.6-5.7-15.7-10.3-25.4-11.3c-7.7-0.8-14.9,0.4-21.9,3.4c-7.4,3.2-13.4,8.6-19.8,13.3
	c-8.9,6.4-17.6,13-26.4,19.5c-12.4,9.2-24.9,18.3-37.3,27.4c-8.7,6.4-17.3,12.7-26,19.1c-2.8,2.1-5.5,4.2-8.3,6.3
	c-0.2,0.1-0.4,0.1-0.5,0.2c-13,9.6-26.1,19.3-39.1,28.9C57.6,131.5,55.7,132.5,54,133.6z"/>
<path class="st22" d="M212.3,7c-3.9,2.7-8.1,5.1-12,7.9c-9.3,6.7-18.5,13.6-27.8,20.4c-12.4,9.1-24.8,18.2-37.2,27.3
	c-10.1,7.5-20.3,15-30.4,22.4c-7.2,5.3-14.5,10.5-22,15.8c-3.7-0.1-7.1-0.2-10.5-0.3c-1.1,0-2.2-0.2-3.3-0.4c2.3-1.8,4.6-3.7,7-5.5
	c8.1-6,16.2-11.9,24.4-17.9c12.1-8.9,24.2-17.9,36.4-26.8c9.9-7.3,19.8-14.5,29.7-21.8c9.3-6.9,18.6-13.8,28-20.8
	c0.5-0.4,1.1-0.6,1.7-1c0.8,0.1,1.5,0.3,2.2,0.3C203.1,6.8,207.7,6.8,212.3,7z"/>
<path class="st22" d="M384.3,100.5c-4.6-3.3-9.2-6.6-13.8-10c-12.1-8.9-24.3-17.9-36.4-26.9c-13.1-9.7-26.2-19.4-39.4-29.1
	c-10.3-7.6-20.7-15.3-31.1-22.8c-2.4-1.8-5.3-3-8-4.6c0.5-0.2,1.1-0.4,1.7-0.5c4.5,0,9.1-0.1,13.6,0c1,0,2.2,0.5,3,1.1
	c8.2,5.9,16.4,11.9,24.5,17.9c11.2,8.3,22.3,16.5,33.5,24.8c7.6,5.6,15.3,11.2,22.9,16.8c8.8,6.5,17.6,13,26.4,19.5
	c5.4,4,10.9,8,16.3,12.2c-0.7,0.4-1.4,0.7-2.1,0.7c-3,0.1-6,0-9.1,0.1C385.7,99.8,385,100.2,384.3,100.5z"/>
<path class="st18" d="M384.4,100.6c0.6-0.4,1.3-0.8,2.1-0.8c3-0.1,6,0,9.1-0.1c0.7,0,1.4-0.3,2.1-0.6c5,3.4,9.9,7,14.9,10.6
	c0.5,1,1.1,2,1.2,3c0.1,3,0,6,0,9.2c-3.5-2.3-6.9-4.7-10.4-7.3C397,110,390.8,105.3,384.4,100.6z"/>
<path class="st22" d="M251.9,6.2c-11.8,0.1-23.5,0.1-35.5,0.1c1.5-0.7,3.2-1.7,4.9-2.2c5.1-1.3,10.4-2.1,15.6-1.5
	c4.7,0.5,9.3,1.7,14,2.6C251.2,5.4,251.5,5.8,251.9,6.2z"/>
<path class="st18" d="M69.1,100.1c1.2,0.1,2.3,0.3,3.4,0.3c3.4,0.1,6.8,0.2,10.3,0.4c-2,1.7-4,3.4-6.2,5
	c-7.3,5.4-14.7,10.8-22.2,16.2c-0.1-3.2-0.2-6.5-0.1-9.8c0-0.7,0.2-1.5,0.3-2.3c1.7-1.2,3.5-2.1,5.1-3.3
	C62.9,104.5,65.9,102.3,69.1,100.1z"/>
<path class="st23" d="M413.7,274.6c0-2.1,0-4.3,0-6.9c-2.8,1.8-5.2,3.4-7.5,5c-7.1,4.8-14.1,9.6-21.1,14.5
	c-10.2,7-20.3,14-30.4,20.9c-8.6,5.9-17.2,11.7-25.7,17.5c-15,10.3-30.1,20.5-45.1,30.8c-9.3,6.4-18.7,12.7-28,19.2
	c-4.9,3.4-10.1,5.9-16,6.9c-6.7,1-13.2,0.6-19.4-2.3c-4-1.9-7.8-4.4-11.5-6.8c-6.7-4.4-13.2-9-19.8-13.5
	c-14.9-10.3-29.9-20.5-44.8-30.8c-8.5-5.8-17.1-11.6-25.6-17.5c-9.2-6.3-18.4-12.6-27.6-18.9c-8-5.4-15.9-10.9-23.9-16.3
	c-3.9-2.7-7.9-5.4-11.8-8.1c-0.2-0.2-0.5-0.3-1.2-0.7c0,1.6,0,2.9,0,4.4c-2.1-1.2-4.1-2.6-6.2-4.1c-0.1-1.4,0-2.7,0.1-4.2
	c2,0.9,3.9,2,6,3.3c0.1-1.9,0.2-3.5,0.2-5.4c0.9,0.6,1.4,0.9,2,1.3c12.1,8.3,24.3,16.6,36.4,24.9c6.5,4.4,12.9,8.9,19.4,13.3
	c3.2,2.2,6.5,4.3,9.8,6.5c6.4,4.5,12.7,8.8,19,13.2c11.6,8,23.3,15.9,34.9,23.9c13.4,9.2,26.9,18.4,40.3,27.5
	c10.6,7.2,24.7,7.2,35.3,0c7.3-4.9,14.5-9.9,21.8-14.9c11.9-8.2,23.9-16.3,35.9-24.5c11.1-7.6,22.2-15.1,33.3-22.7
	c1.6-1.1,3.1-2.3,4.7-3.4c10.8-7.3,21.6-14.6,32.3-21.9c9.4-6.4,18.9-12.9,28.3-19.4c1.8-1.2,3.7-2.4,5.8-3.8c0.1,2,0.2,3.6,0.3,5.6
	c1.1-0.7,1.9-1.2,2.6-1.6c1.2-0.7,2.3-1.3,3.5-2c0,2,0,4.1,0,6.4C417.8,271.8,415.8,273.2,413.7,274.6z"/>
<path class="st16" d="M11.5,243.1c0.8-0.4,1.8-0.8,2.7-0.9c2.5-0.1,5-0.1,7.4,0c1.7,0.1,2.6-0.5,3.3-2c0.3-0.6,1.1-1.2,1.7-1.3
	c2.5-0.4,2.8-0.7,3.1-3.2c0.1-1,0.2-2.1,0.6-3.1c0.2-0.5,0.9-1.1,1.4-1.2c2.2-0.5,2.8-1.1,2.9-3.4c0-2.5-0.1-5.1,0-7.6
	c0.2-3.6,0.7-7.2,1.1-10.8c0.1-0.4,0.7-1.1,1-1.1c1.5,0.1,2.1-1,2.9-1.8c0.1,8.2,0.1,16.3,0.1,24.4c0,1.2-0.2,2.3-0.5,3.5
	c-0.2,1-0.8,1.6-2.1,1.7c-0.7,0.1-1.5,0.9-1.8,1.6c-0.4,0.9-0.3,1.9-0.4,2.9c-0.3,3-0.4,6-0.9,9c-0.1,0.7-1,1.9-1.5,1.9
	c-2.2-0.1-2.6,1.1-2.6,2.8c0,0.4-0.2,0.7-0.3,1.1C23.7,251.5,17.7,247.3,11.5,243.1z"/>
<path class="st24" d="M29.8,255.7c0-0.5,0.2-0.8,0.2-1.2c0-1.8,0.4-2.9,2.6-2.8c0.5,0,1.4-1.2,1.5-1.9c0.4-3,0.6-6,0.9-9
	c0.1-1,0-2,0.4-2.9c0.3-0.7,1.2-1.5,1.8-1.6c1.3-0.1,1.8-0.7,2.1-1.7c0.3-1.1,0.5-2.3,0.5-3.5c0-8.1,0-16.2,0-24.5
	c0-3.2,0-6.1,0-9.3c1.5-0.3,3-0.4,4.7-0.5c0.2,11.5,0.2,23,0.2,34.5c0,2.5-0.2,2.6-2.6,3.1c-2,0.4-2,2.3-2.2,3.8
	c-0.2,2.5,0,4.9-0.1,7.4c-0.1,2.8-0.2,5.5-0.4,8.3c-0.1,1.5-0.5,2.7-2.5,2.9c-0.7,0.1-1.3,1.4-1.9,2.2
	C33.3,258.1,31.6,257,29.8,255.7z"/>
<path class="st11" d="M431.6,191.8c1.5,0,3.1,0.2,4.7,0.5c0.1,0.3,0.1,0.6,0.1,1c0,5,0,9.8,0,14.8c-1,0.1-2.1-0.2-3.1-0.2
	c-1.4,0.1-1.8-0.5-1.8-1.8C431.6,201.4,431.6,196.7,431.6,191.8z"/>
<path class="st25" d="M420,245.5c0,1.9,0,3.7-0.1,5.8c-2,1.4-3.9,2.7-6.2,4.2c0-2.2,0-3.7,0-5.7c-0.9,0.5-1.4,0.7-1.9,1.1
	c-4.3,2.9-8.6,5.9-12.9,8.8c-11.8,8-23.6,16.1-35.4,24.1c-1.3,0.9-2.5,2-3.9,3c-0.7,0.3-1.2,0.6-1.8,0.9c-3.7,2.5-7.4,5.1-11.2,7.7
	c-9,6.2-18,12.3-26.9,18.5c-15,10.2-29.9,20.5-44.9,30.6c-4.3,2.9-8.9,5.6-13.3,8.3c-5.9,3.6-11.3,8-17.7,10.8
	c-3.4,1.5-6.9,2.6-10.6,2.4c-6.8-0.5-12.6-3.8-18.1-7.5c-4.5-3-8.9-6-13.4-8.9c-3.3-2.1-6.8-4-10-6.2
	c-15.1-10.2-30.2-20.6-45.2-30.9c-6.5-4.4-12.9-8.9-19.4-13.3c-5.7-3.9-11.5-7.7-17.3-11.7c-18.4-12.6-36.7-25.2-55.4-38
	c0,2.4,0,4.2-0.1,6.2c-0.1,1.8-0.1,3.5-0.1,5.6c-0.9-0.5-1.6-0.9-2.3-1.3c-1.3-0.7-2.5-1.4-3.8-2.1c0-4-0.1-7.9,0.1-12.1
	c1.9,0.9,3.6,2,5.8,3.4c0-2.5,0-4.5,0-6.7c0.1-1.3,0.3-2.4,0.3-3.5c0-18.8,0-37.5,0.2-56.3c26.4,0,52.6,0,78.8,0
	c1.1,0,2.2,0.2,3.2,0.5c-0.8,0.9-1.6,1.7-2.4,2.5c-3.6,3.6-5.4,7.9-5.4,12.9c0,7.5,0,14.9,0,22.6c0,0.8,0,1.4,0,2
	c-0.1,5.4,1.8,10,5.7,13.8c3.8,3.6,8.4,5.2,13.5,5.2c17.6,0.1,35.2,0,52.8,0c2.4,0,2.4,0,2.4,2.5c0,12.6,0,25.1,0,37.9
	c0,5.7,0,11.2,0,16.7c0,0.7,0.1,1.5,0.2,2.2c1.9,8.7,8.8,14.8,18.1,15c9.2,0.2,18.3,0.1,27.5-0.4c8.4-0.4,16-8.9,16-17.2
	c0-6.5,0-13,0-19.7c0-11.6,0-23.1,0-34.5c0-2.5,0-2.5,2.6-2.5c17.4,0,34.8,0,52.2,0c1.7,0,3.5-0.2,5.1-0.6
	c8.6-1.8,15.2-9.9,14.5-19.3c0-8.1,0-16,0-24c0-4.9-1.7-9-5.2-12.5c-1.2-1.2-2.5-2.4-3.6-3.6c0.9-0.2,1.7-0.3,2.5-0.3
	c26.9,0,53.8,0,80.7,0c0,20.2,0,40.4,0,61c0.2,2.1,0.4,3.9,0.6,6.1C416.4,247.8,418.2,246.7,420,245.5z"/>
<path class="st26" d="M136.6,183.1c-1.1-0.1-2.2-0.4-3.3-0.4c-26.2,0-52.4,0-78.8-0.2c-0.2-8-0.2-15.8-0.2-23.7c0-0.3,0-0.5,0.2-1
	c0.6-0.4,1-0.6,1.4-0.9c11.5-8.5,23-16.9,34.5-25.4c9.2-6.8,18.5-13.6,27.7-20.4c2.4-1.8,4.6-3.7,6.9-5.5c0,0,0,0,0.1,0
	c0.4-0.3,0.7-0.5,1-0.7c0,0,0,0,0.1,0c1.3-0.9,2.4-1.7,3.7-2.6c5.1-3.8,10.2-7.4,15.2-11.1c6.7-4.9,13.4-9.8,20-14.7
	c9.8-7.2,19.5-14.5,29.3-21.7c8.7-6.4,17.3-12.8,26-19.1c7.4-5.4,15.6-7,24.2-3.3c4.2,1.8,8,4.7,11.7,7.4
	c12.7,9.2,25.3,18.6,37.9,27.9c11.6,8.6,23.3,17.2,34.9,25.7c3.1,2.3,6.2,4.4,9.4,6.7c5.1,3.8,10.1,7.5,15.1,11.2
	c19.1,14.1,38.3,28.3,57.4,42.4c0.8,0.6,1.7,0.9,2.5,1.4c0,0.3,0,0.5,0.1,0.9c0,8.6,0,17,0,25.7c-26.9,0.2-53.8,0.2-80.7,0.2
	c-0.8,0-1.6,0.2-2.6,0.3c-0.7-0.1-1.1-0.2-1.6-0.4c-3.4-0.6-6.6-1.7-9.9-1.7c-17.3-0.2-34.6-0.1-51.9,0c-1.6,0-2.1-0.4-2.1-2.1
	c0.1-9.5,0-19,0-28.6c0-8.4,0-16.5,0-24.7c0-11-8-19-19-19c-7.9,0-15.7,0-23.6,0c-1.5,0-3,0.2-4.4,0.4c-8,1.4-14.9,9.5-14.8,17.8
	c0.2,10.4,0,20.8,0,31.4c0,7.5,0,14.9,0,22.3c0,2.4,0,2.5-2.4,2.5c-17.9,0-35.8-0.1-53.7,0.1c-2.6,0-5.1,1.1-7.7,1.7
	C138.4,182.1,137.5,182.7,136.6,183.1z"/>
<path class="st27" d="M420,245.4c-1.8,1.3-3.6,2.4-5.7,3.7c-0.2-2.2-0.4-4-0.6-5.9c1.1-0.8,2.2-1.4,3.3-2c0.9-0.5,1.8-1,2.8-1.5
	C420,241.5,420,243.3,420,245.4z"/>
<path class="st7" d="M413.7,274.7c2.1-1.5,4.2-2.9,6.3-4.3c0.8-0.6,1.5-1,2.4-1.6c3.2-2.2,6.2-4.3,9.2-6.4c1.8-1.2,3.6-2.5,5.6-3.8
	c3.2-2.2,6.3-4.3,9.4-6.4c3-2,6-4,8.8-6.1c1-0.7,2-1.6,3-2.4c2-1.3,4-2.5,6-3.8c2-1.3,4-2.6,6.1-4c0.2,0.6,0.5,1.4,0.5,2.1
	c0,15.1,0,30.1-0.2,45.4c-22.3,0.2-44.3,0.2-66.4,0.1c-0.7,0-1.5-0.5-2.2-0.7C406,280.1,409.8,277.4,413.7,274.7z"/>
<path class="st14" d="M431.6,262.2c-3,2.3-6,4.3-9.2,6.5c-1.8-20.8-0.5-41.7-0.9-62.7c0.3,0.2,0.9,0.5,0.9,0.8
	c0.1,1.3,0.5,2.1,2,2.2c0.3,0,0.7,0.9,0.7,1.5c1.6,11.6,1.6,23.3,1.5,35c0,1.1,0.3,2.3,0.7,3.4c0.2,0.5,0.8,1.1,1.4,1.2
	c2.1,0.4,2.7,0.9,2.7,3.1C431.6,256.1,431.6,259,431.6,262.2z"/>
<path class="st24" d="M446.5,252.2c-3,2.1-6,4.2-9.2,6.3c-0.5-3.3-0.9-6.7-1.2-10c-0.1-1.5-0.8-2.3-2.4-2.2
	c-1.6,0.1-2.1-0.8-2.1-2.3c0-5.4,0-10.9,0-16.5c1.5,0.1,3,0.3,4.7,0.5c0.1,0.5,0.1,1.1,0.1,1.9c0,2.4-0.2,4.4,0,6.4
	c0.2,2.2,0.7,4.3,1.2,6.5c0.1,0.3,0.7,0.8,1.1,0.8c1.9-0.2,2.3,0.9,2.6,2.4c0.1,0.8,0.3,1.6,0.5,2.3c0.2,1.1,0.8,1.8,2,1.6
	C445.4,249.8,446.2,250.8,446.5,252.2z"/>
<path class="st12" d="M54.1,158.8c0.2,7.8,0.2,15.7,0.2,23.7c0,18.9,0,37.7,0,56.5c0,1.1-0.2,2.2-0.5,3.5c-2-0.8-3.9-1.8-5.8-2.8
	c0-0.4-0.1-0.9-0.1-1.3c0-25,0-50,0-75.2c1.5-1.3,2.9-2.5,4.3-3.6C52.8,159.2,53.5,159.1,54.1,158.8z"/>
<path class="st28" d="M48.1,258c1.3,0.5,2.6,1.2,3.8,2c0.7,0.4,1.3,0.8,2.3,1.3c0-2,0-3.7,0.2-5.5c7.3,4.8,14.4,9.7,21.4,14.5
	c6.6,4.5,13.1,9,19.7,13.5c2.5,1.7,5,3.3,7.6,5c5,3.5,9.9,6.9,14.8,10.3c3.7,2.6,7.5,5.2,11.1,7.9c-0.9,0.2-1.7,0.2-2.5,0.3
	c-1.5,0.1-3,0.2-4.5,0.4c-3.2-2.1-6.5-4.2-9.7-6.4c-6.5-4.4-12.9-8.9-19.4-13.3c-12.1-8.3-24.3-16.6-36.4-24.9
	c-0.5-0.4-1.1-0.7-2-1.3c-0.1,1.9-0.2,3.5-0.2,5.4c-2.2-1.3-4-2.4-6-3.5C48.1,261.9,48,260,48.1,258z"/>
<path class="st29" d="M48.1,239.8c1.9,0.8,3.8,1.8,5.8,2.8c0.1,2,0.1,4,0.1,6.6c-2.2-1.4-3.9-2.5-5.8-3.6
	C48,243.7,48,241.8,48.1,239.8z"/>
<path class="st16" d="M446.6,252.2c-0.4-1.4-1.2-2.3-2.8-2.2c-1.3,0.1-1.8-0.5-2-1.6c-0.2-0.8-0.4-1.6-0.5-2.3
	c-0.2-1.5-0.7-2.6-2.6-2.4c-0.3,0-1-0.4-1.1-0.8c-0.5-2.1-1-4.3-1.2-6.5c-0.2-2,0-4.1,0-6.3c0.3,0.2,0.6,0.6,0.9,0.9
	c0.5,0.4,1,1.1,1.6,1.1c1.5,0.1,2.1,1,2.3,2.2c0.2,0.9,0.2,1.8,0.4,2.7c0.3,1.6,0.7,3.2,3,3c0.6,0,1.4,0.7,1.7,1.4
	c0.7,1.5,1.9,1.9,3.5,1.9c2.8,0,5.6,0.1,8.5,0.3c-0.9,0.9-1.8,1.8-2.9,2.5C452.5,248.1,449.6,250.1,446.6,252.2z"/>
<path class="st28" d="M420,263.6c-1.2,0.8-2.3,1.5-3.5,2.2c-0.8,0.5-1.5,0.9-2.6,1.6c-0.1-2-0.2-3.6-0.3-5.6c-2.1,1.4-4,2.6-5.8,3.8
	c-9.4,6.4-18.9,12.9-28.3,19.4c-10.7,7.3-21.4,14.6-32.4,21.9c-2.7-0.1-5-0.2-7.3-0.5c0.4-0.4,0.7-0.7,1-1
	c6.3-4.3,12.6-8.6,18.9-12.9c2.2-1.5,4.3-3.1,6.5-4.7c1-0.6,1.9-1.2,2.7-1.8c14.3-9.8,28.6-19.5,42.8-29.3c0.5-0.3,1-0.6,1.8-1
	c0.1,1.9,0.2,3.5,0.3,5.3c2.2-1.2,4.2-2.3,6.1-3.4C420,259.7,420,261.6,420,263.6z"/>
<path class="st30" d="M420,257.6c-2,1.3-3.9,2.3-6.1,3.6c-0.1-1.8-0.2-3.4-0.3-5.3c-0.8,0.4-1.3,0.7-1.8,1
	c-14.3,9.8-28.6,19.5-42.8,29.3c-0.9,0.6-1.7,1.2-2.8,1.6c-0.9-0.3-1.5-0.5-2.2-0.6c-1.4-0.2-2.8-0.3-4.2-0.4c1.2-1,2.4-2.1,3.8-3
	c11.8-8.1,23.6-16.1,35.4-24.1c4.3-2.9,8.6-5.9,12.9-8.8c0.5-0.3,1-0.6,1.9-1.1c0,2,0,3.5,0,5.7c2.3-1.5,4.2-2.8,6.2-4
	C420,253.5,420,255.5,420,257.6z"/>
<path class="st31" d="M413.7,155c-0.9-0.3-1.8-0.6-2.6-1.2c-19.1-14.1-38.3-28.2-57.4-42.4c-5-3.7-10-7.4-15-11.3
	c3.3-0.3,6.6-0.3,9.8-0.4c0.8,0,1.5-0.2,2.4-0.3c0.8,0.4,1.4,0.7,2.2,1.2c5.1,3.9,10.1,7.7,15.2,11.4c11.9,8.8,23.9,17.5,35.8,26.3
	c3.2,2.3,6.4,4.6,9.6,6.8c0,0.2,0,0.3,0,0.6C413.8,148.8,413.7,151.8,413.7,155z"/>
<path class="st32" d="M413.7,144.9c-3.2-2.1-6.4-4.3-9.6-6.7c-11.9-8.7-23.9-17.5-35.8-26.3c-5.1-3.7-10.1-7.5-15-11.4
	c4.2-0.2,8.4-0.3,12.5-0.4c0.6,0,1.2-0.1,1.8-0.1c3.2,2.3,6.4,4.5,9.6,6.8c12.1,8.9,24.2,17.7,36.4,26.6
	C413.7,137.3,413.7,141,413.7,144.9z"/>
<path class="st31" d="M125,105.7c-2.3,1.8-4.6,3.7-7,5.5c-9.2,6.8-18.5,13.6-27.7,20.4c-11.5,8.5-23,16.9-34.5,25.4
	c-0.4,0.3-0.8,0.5-1.4,0.8c-0.1-3.8-0.1-7.7-0.2-11.7c0-0.3,0-0.5,0.2-0.8c1.6-1.2,3.1-2.3,4.6-3.4c11-8.1,22.1-16.2,33.1-24.3
	c1.8-1.3,3.8-2.5,5.7-3.5c0.4,0.5,0.8,1.3,1.3,1.3c3.3,0.1,6.7,0.1,10,0c0.4,0,0.9-0.2,1.2-0.4c2.7-2,5.3-4.3,8.1-6.1
	C120.5,107.5,122.8,106.7,125,105.7z"/>
<path class="st32" d="M97.9,113.8c-1.9,1.2-3.8,2.4-5.7,3.7c-11.1,8.1-22.1,16.2-33.1,24.3c-1.5,1.1-3,2.2-4.6,3.3
	c-0.1-3.1-0.1-6.1-0.2-9.2c0-0.7-0.2-1.3-0.3-2.1c1.7-1.2,3.6-2.2,5.2-3.5c13.1-9.6,26.1-19.3,39.1-28.9c0.1-0.1,0.2-0.1,0.6-0.2
	c2.2,0,4.1-0.1,6,0c2.8,0.1,5.6,0.2,8.4,0.5c-0.7,0.6-1.3,1.1-1.9,1.6c-2.4,1.9-4.9,3.8-7.5,5.8c-1.3,0.9-2.4,1.7-3.6,2.6
	c0,0,0,0-0.1,0.1C99.4,112.4,98.6,113.1,97.9,113.8C97.9,113.8,97.9,113.8,97.9,113.8z"/>
<path class="st33" d="M313.6,343.5c2.4-1.8,4.7-3.5,7.1-5.2c11.5-7.9,23.1-15.7,34.8-23.5c1.2,0.4,2.1,1,3,1c37.5,0,74.9,0,112.4,0
	c0,9.4,0,18.9,0,28.5c-51.7,0.2-103.5,0.2-155.2,0.1C315.1,344.5,314.4,344,313.6,343.5z"/>
<path class="st34" d="M471,315.7c-37.5,0.2-74.9,0.2-112.4,0.1c-0.9,0-1.9-0.6-2.9-1c2.4-1.9,4.9-3.7,7.4-5.4
	c12.9-8.8,25.9-17.7,38.9-26.6c0.9,0.2,1.6,0.7,2.3,0.7c22.1,0,44.2,0,66.4,0c0.2,4.4,0.2,8.7,0.2,13.2
	C471,303.1,471,309.3,471,315.7z"/>
<path class="st35" d="M113.5,101.6c-2.8-0.1-5.6-0.3-8.4-0.4c-1.9-0.1-3.8,0-5.9,0c2.6-2.1,5.2-4.3,8-6.3c8.6-6.4,17.3-12.7,26-19.1
	c12.4-9.1,24.9-18.3,37.3-27.4c8.8-6.5,17.5-13.1,26.4-19.5c6.5-4.6,12.4-10.1,19.8-13.3c7-3,14.2-4.2,21.9-3.4
	c9.8,1,17.8,5.5,25.4,11.3c10,7.5,20.2,14.9,30.3,22.3c9.9,7.3,19.8,14.7,29.8,22.1c6.2,4.6,12.4,9.1,18.5,13.6
	c7.3,5.4,14.6,10.8,21.9,16.2c1,0.7,2,1.5,3,2.4c-0.5,0.1-1.1,0.2-1.7,0.2c-4.2,0.1-8.3,0.1-12.6,0.2c-0.8-0.3-1.5-0.7-2.3-1.2
	c-0.5-0.4-0.8-0.7-1.1-1c-6.4-4.7-12.8-9.5-19.2-14.2c-11-8.1-22.1-16.3-33.1-24.4c-13.5-9.9-27-19.8-40.4-29.8
	c-6.2-4.7-12.9-8.1-20.8-8.6c-8.1-0.5-15.5,1.7-22,6.4c-5.7,4.1-11.4,8.3-17.1,12.5c-13.1,9.7-26.2,19.4-39.4,29.1
	c-11.6,8.6-23.3,17.2-34.9,25.7C119.8,97.2,116.6,99.4,113.5,101.6z"/>
<path class="st36" d="M339.7,306.6c2.4,0.1,4.7,0.3,7.3,0.4c-1.4,1.1-2.8,2.3-4.4,3.4c-11.1,7.6-22.2,15.1-33.3,22.7
	c-12,8.2-23.9,16.3-35.9,24.5c-7.3,5-14.5,10-21.8,14.9c-10.6,7.1-24.7,7.1-35.3,0c-13.5-9.1-26.9-18.3-40.3-27.5
	c-11.6-8-23.3-15.9-34.9-23.9c-6.3-4.3-12.6-8.7-19-13.2c1.4-0.2,2.9-0.4,4.4-0.5c0.8-0.1,1.6-0.1,2.6-0.3
	c5.9,3.7,11.5,7.6,17.1,11.4c8.3,5.7,16.5,11.4,24.8,17c16.1,11,32.1,22.1,48.3,32.9c9,6,20.4,5.9,29.4,0.1c4.7-3,9.3-6.3,13.9-9.5
	c9.9-6.8,19.8-13.5,29.7-20.3c13.2-9,26.4-18,39.5-27C334.5,309.9,337.1,308.2,339.7,306.6z"/>
<path class="st37" d="M339.7,306.5c-2.6,1.8-5.3,3.4-7.8,5.2c-13.2,9-26.4,18-39.5,27c-9.9,6.8-19.8,13.5-29.7,20.3
	c-4.6,3.2-9.2,6.5-13.9,9.5c-9.1,5.8-20.5,5.9-29.4-0.1c-16.2-10.8-32.2-21.9-48.3-32.9c-8.3-5.6-16.5-11.3-24.8-17
	c-5.6-3.8-11.2-7.7-17-11.5c-3.9-2.6-7.6-5.2-11.3-7.8c-4.9-3.4-9.8-6.8-14.8-10.4c0.7-0.4,1.3-0.6,2-0.7c1.5-0.2,3-0.3,4.6-0.4
	c5.7,3.9,11.5,7.7,17.2,11.6c6.5,4.4,13,8.9,19.4,13.3c15.1,10.3,30.1,20.6,45.2,30.9c3.3,2.2,6.7,4.1,10,6.2
	c4.5,2.9,8.9,6,13.4,8.9c5.6,3.7,11.3,7,18.1,7.5c3.7,0.2,7.2-0.9,10.6-2.4c6.4-2.8,11.8-7.2,17.7-10.8c4.4-2.8,9-5.4,13.3-8.3
	c15-10.2,30-20.4,44.9-30.6c9-6.1,18-12.3,26.9-18.5c3.7-2.6,7.4-5.1,11.2-7.7c0.5-0.3,1.1-0.6,1.8-0.9c1.5,0.1,2.9,0.2,4.3,0.4
	c0.7,0.1,1.4,0.3,2.1,0.6c-2.1,1.7-4.2,3.3-6.4,4.8c-6.3,4.3-12.6,8.6-18.9,12.9C340.4,305.7,340.1,306.1,339.7,306.5z"/>
<path class="st38" d="M136.5,183.2c1-0.5,1.8-1,2.8-1.3c2.5-0.7,5.1-1.7,7.7-1.7c17.9-0.2,35.8-0.1,53.7-0.1c2.4,0,2.4,0,2.4-2.5
	c0-7.4,0-14.8,0.2-22.3c2.1-0.2,3.9-0.2,5.8,0c0,9.7,0,19.3,0.1,28.8c0,1.8-0.5,2.3-2.3,2.3c-19.5-0.1-39.1,0-58.6,0
	c-1.2,0-2.5,0-3.7,0.3c-6.1,1.4-9.8,6.2-9.9,12.6c-0.1,7.3-0.1,14.5-0.3,21.8c-2,0-3.9,0-5.8,0c0-7.5,0-14.9,0-22.4
	c0-5.1,1.8-9.4,5.4-12.9C134.9,184.9,135.7,184.1,136.5,183.2z"/>
<path class="st29" d="M128.7,221.2c1.9-0.2,3.8-0.2,5.8,0c0.2,0.7,0.2,1.2,0.2,1.7c-0.2,8.3,6.9,13.3,13.4,13.2
	c19.5-0.3,38.9-0.1,58.4-0.1c0.8,0,1.6,0,2.4,0c0.1,0.5,0.2,0.8,0.2,1.1c0,15.1,0,30.3-0.2,45.4c-2,0-3.9,0-5.8,0
	c0-12.6,0-25.1,0-37.7c0-2.5,0-2.5-2.4-2.5c-17.6,0-35.2,0-52.8,0c-5.1,0-9.7-1.6-13.5-5.2c-3.9-3.7-5.9-8.3-5.7-13.8
	C128.7,222.6,128.7,222,128.7,221.2z"/>
<path class="st29" d="M339.3,222.5c0.7,9.3-5.9,17.3-14.5,19.1c-1.7,0.4-3.4,0.6-5.1,0.6c-17.4,0-34.8,0-52.2,0
	c-2.6,0-2.6,0-2.6,2.5c0,11.5,0,22.9-0.2,34.5c-2,0.2-3.9,0.2-5.8,0c0-14.5,0-28.9,0-43.4c1.1,0,1.9,0,2.7,0c19.8,0,39.5,0,59.3,0
	c4.9,0,8.7-2.3,10.9-6.8c1-2,1.1-4.4,1.7-6.6C335.6,222.5,337.4,222.5,339.3,222.5z"/>
<path class="st27" d="M258.9,279.4c1.9,0,3.7,0,5.8,0c0.2,6.5,0.2,13,0.2,19.5c0,8.4-7.6,16.8-16,17.2c-9.1,0.4-18.3,0.6-27.5,0.4
	c-9.3-0.2-16.2-6.3-18.1-15c-0.2-0.7-0.2-1.5-0.2-2.2c0-5.5,0-11,0-16.7c1.9-0.2,3.7-0.2,5.8,0c0.2,5.1,0.2,10.1,0.2,15
	c-0.1,7.8,6.9,13,12.8,12.8c8-0.3,16.1-0.1,24.1-0.1c0.8,0,1.6,0,2.4-0.2c6.5-1.5,10.2-6.1,10.3-12.9
	C258.9,291.3,258.9,285.4,258.9,279.4z"/>
<path class="st12" d="M339.3,222.3c-1.9,0.2-3.8,0.2-5.8,0c-0.2-7.5-0.2-14.8-0.2-22.1c0-1.5-0.1-3.1-0.5-4.6
	c-1.4-5.6-6.2-9.2-12.1-9.2c-19.8,0-39.5,0-59.3,0c-0.8,0-1.5-0.1-2.4-0.1c0-1.1,0-2,0.2-2.8c21.8,0,43.4,0,65,0
	c0.6,0,1.2,0.1,1.7,0c1.1-0.4,2.1-0.9,3.2-1.4c0.4,0.1,0.8,0.2,1.3,0.4c1.4,1.2,2.7,2.3,3.9,3.5c3.5,3.4,5.2,7.6,5.2,12.5
	C339.3,206.3,339.3,214.2,339.3,222.3z"/>
<path class="st30" d="M109.7,287.5c-1.4,0.2-3,0.3-4.5,0.5c-0.7,0.1-1.4,0.3-2.1,0.6c-2.6-1.5-5.1-3.1-7.6-4.8
	c-6.6-4.5-13.1-9-19.7-13.5c-7.1-4.9-14.2-9.7-21.4-14.6c-0.1-1.9-0.1-3.8-0.1-6.1C73,262.3,91.3,274.9,109.7,287.5z"/>
<path class="st39" d="M113.4,101.7c3.2-2.3,6.3-4.5,9.4-6.7c11.7-8.6,23.3-17.2,34.9-25.7c13.1-9.7,26.2-19.4,39.4-29.1
	c5.7-4.2,11.3-8.4,17.1-12.5c6.6-4.7,14-6.9,22-6.4c7.9,0.5,14.6,3.9,20.8,8.6c13.4,10,27,19.9,40.4,29.8
	c11,8.1,22.1,16.3,33.1,24.4c6.4,4.7,12.8,9.5,19.2,14.2c0.3,0.3,0.6,0.6,1,1c-0.7,0.2-1.5,0.4-2.2,0.5c-3.2,0.1-6.5,0.1-9.9,0.3
	c-3.2-2.1-6.4-4.3-9.5-6.5c-11.6-8.6-23.3-17.2-34.9-25.7c-12.6-9.3-25.2-18.7-37.9-27.9c-3.7-2.7-7.5-5.6-11.7-7.4
	c-8.5-3.7-16.7-2.1-24.2,3.3c-8.7,6.3-17.4,12.7-26,19.1c-9.8,7.2-19.6,14.5-29.3,21.7c-6.7,4.9-13.4,9.8-20,14.7
	c-5,3.7-10.1,7.4-15.3,11.1c-2.1,0-3.1,1.1-3.7,2.7c0,0,0,0-0.1,0c-0.4,0.3-0.7,0.5-1,0.7c0,0,0,0,0,0c-2.2,1-4.5,1.8-6.6,3.1
	c-2.8,1.8-5.4,4.1-8.1,6.1c-0.3,0.2-0.8,0.4-1.2,0.4c-3.3,0-6.7,0.1-10,0c-0.4,0-0.8-0.7-1.3-1.3c0-0.2,0-0.2,0.2-0.2
	c1.9,0.2,2.7-0.4,2.4-2.2c0,0,0,0,0.2,0c1-0.3,1.9-0.4,2.6-0.8c0.6-0.3,1.8-0.6,0.9-1.8c2.4-1.9,4.9-3.8,7.3-5.7
	C112.1,102.8,112.7,102.3,113.4,101.7z"/>
<path class="st40" d="M209.1,155.1c-1.9,0-3.8,0-5.8,0c-0.2-10.4-0.1-20.8-0.2-31.2c-0.1-8.4,6.8-16.4,14.8-17.8
	c1.5-0.3,2.9-0.4,4.4-0.4c7.9,0,15.7,0,23.6,0c10.9,0,19,8,19,19c0,8.2,0,16.4-0.2,24.7c-2.1,0.2-3.9,0.2-5.8,0
	c0-8.2,0-16.2-0.1-24.2c-0.1-8.2-5.2-13.3-13.4-13.3c-7.9,0-15.9-0.1-23.8,0.1c-2.1,0.1-4.4,0.7-6.3,1.7c-4.6,2.5-6.2,6.8-6.2,11.9
	C209.2,135.4,209.1,145.3,209.1,155.1z"/>
<path class="st38" d="M258.9,149.6c1.9,0,3.8,0,5.8,0c0.2,9.5,0.2,19,0.1,28.5c0,1.6,0.5,2.1,2.1,2.1c17.3-0.1,34.6-0.1,51.9,0
	c3.3,0,6.5,1.1,9.9,1.7c-0.9,0.5-2,1.1-3,1.5c-0.5,0.2-1.1,0-1.7,0c-21.6,0-43.2,0-65-0.2C258.9,171.9,258.9,160.7,258.9,149.6z"/>
<path class="st31" d="M126.3,104.9c0.5-1.5,1.4-2.7,3.4-2.6C128.7,103.2,127.5,104,126.3,104.9z"/>
<path class="st31" d="M125.1,105.7c0.2-0.2,0.5-0.5,0.9-0.7C125.8,105.2,125.5,105.4,125.1,105.7z"/>
<path class="st31" d="M104,109c1,1.2-0.2,1.5-0.8,1.8c-0.8,0.4-1.7,0.5-2.6,0.8C101.6,110.8,102.8,109.9,104,109z"/>
<path class="st31" d="M100.3,111.7c0.4,1.7-0.5,2.4-2.3,2.2C98.6,113.1,99.4,112.4,100.3,111.7z"/>
<path class="st17" d="M258.9,149.4c0,11.3,0,22.5,0,33.9c0,1,0,1.9,0,3c0.8,0,1.6,0.1,2.4,0.1c19.8,0,39.5,0,59.3,0
	c6,0,10.8,3.6,12.1,9.2c0.4,1.5,0.5,3.1,0.5,4.6c0.1,7.3,0,14.6,0.1,22.1c-0.5,2.4-0.6,4.8-1.5,6.8c-2.1,4.4-6,6.7-10.9,6.8
	c-19.8,0.1-39.5,0-59.3,0c-0.8,0-1.6,0-2.7,0c0,14.5,0,28.8,0,43.4c0,6.1,0,12.1-0.1,18c-0.1,6.7-3.8,11.3-10.3,12.9
	c-0.8,0.2-1.6,0.2-2.4,0.2c-8,0-16.1-0.2-24.1,0.1c-5.9,0.2-12.9-4.9-12.8-12.8c0-5,0-9.9,0-15c0-15.3,0-30.4,0-45.6
	c0-0.3-0.1-0.6-0.2-1.1c-0.8,0-1.6,0-2.4,0c-19.5,0-38.9-0.2-58.4,0.1c-6.5,0.1-13.6-4.9-13.4-13.2c0-0.5,0-1,0-1.7
	c0-7.4,0-14.7,0.1-21.9c0.1-6.5,3.8-11.3,9.9-12.6c1.2-0.3,2.5-0.2,3.7-0.3c19.5,0,39.1,0,58.6,0c1.8,0,2.3-0.5,2.3-2.3
	c-0.1-9.5,0-19.1-0.1-28.8c0-10,0-19.9,0-29.7c0-5,1.6-9.4,6.2-11.9c1.9-1,4.2-1.6,6.3-1.7c7.9-0.2,15.9-0.1,23.8-0.1
	c8.1,0,13.3,5.1,13.4,13.3C258.9,133.2,258.9,141.2,258.9,149.4z"/>
</svg>
