<?xml version="1.0" encoding="utf-8"?>
<!-- Generator: Adobe Illustrator 28.1.0, SVG Export Plug-In . SVG Version: 6.00 Build 0)  -->
<svg version="1.1" id="Layer_1" xmlns="http://www.w3.org/2000/svg" xmlns:xlink="http://www.w3.org/1999/xlink" x="0px" y="0px"
	 viewBox="0 0 397.4 520.1" style="enable-background:new 0 0 397.4 520.1;" xml:space="preserve">
<style type="text/css">
	.st0{fill:#DBA6FF;}
	.st1{fill:#73E2FE;}
	.st2{fill:#7EE9FE;}
	.st3{fill:#68DCFE;}
	.st4{fill:#CBA1FF;}
	.st5{fill:#32BBFD;}
	.st6{fill:#44C6FE;}
	.st7{fill:#21AEFC;}
	.st8{fill:#DFB3FF;}
	.st9{fill:#51CEFE;}
	.st10{fill:#2497FE;}
	.st11{fill:#60D7FE;}
	.st12{fill:#28B5FD;}
	.st13{fill:#1EADFC;}
	.st14{fill:#57D2FE;}
	.st15{fill:#64D9FE;}
	.st16{fill:#3EC2FD;}
	.st17{fill:#5CD4FE;}
	.st18{fill:#37BEFD;}
	.st19{fill:#49C9FE;}
	.st20{fill:#ABA9FF;}
	.st21{fill:#1EA2FD;}
	.st22{fill:#B4A5FE;}
	.st23{fill:#E0B6FF;}
	.st24{fill:#B69AFF;}
	.st25{fill:#959DFF;}
	.st26{fill:#938EFD;}
	.st27{fill:#A294FF;}
</style>
<path class="st0" d="M397.3,315.1c0,4.4,0.1,8.8,0,13.2c-0.1,4.5-0.3,9.1-0.8,13.6c-0.6,5.7-1.2,11.5-2.2,17.1
	c-1.5,8.2-3.1,16.4-5.2,24.5c-2.7,10.4-6.6,20.4-11.2,30.1c-5.1,11-11.2,21.5-18.6,31.1c-3.9,5.1-8,9.9-12.1,14.8
	c-5.3,6.2-11.4,11.7-17.6,17c-7.4,6.2-15.3,11.8-23.6,16.7c-9.9,5.8-20.1,11-31.1,14.6c-8.4,2.8-16.9,5.4-25.4,7.7
	c-4.9,1.3-10,2-15.1,2.7c-5.4,0.8-10.9,1.2-16.3,1.9c-10.5,1.3-21,0.7-31.5,0.7c-5.7,0-11.3-0.7-16.9-1.5
	c-10.9-1.4-21.6-3.5-32.2-6.5c-9.1-2.6-17.9-5.7-26.5-9.5c-10.9-4.9-21.4-10.6-31.2-17.5c-5-3.5-9.8-7.4-14.4-11.4
	c-4.9-4.3-9.7-8.7-14.2-13.5c-6.7-7.1-12.9-14.7-18-22.9c-4.6-7.4-9.2-14.8-12.9-22.7c-4-8.5-7.5-17.3-10.4-26.3
	c-2.6-8-4.3-16.2-6.1-24.4c-1-4.5-1.5-9.1-1.9-13.7c-0.6-6.6-1.1-13.3-1.5-19.9c-0.3-5.3-0.3-10.6-0.2-16.1c1.6,0,3,0.2,4.4,0.1
	c0.5,0,1.2-0.8,1.3-1.3c0.3-2.1,0.4-4.3,0.4-6.5c0-20.6,0-41.1,0-61.7c0-9.7,0-19.5,0-29.2c0-1.5,0.2-2.9,0.3-4.4
	c0.1-1.6-0.1-3.3,0.2-4.9c1.8-8.6,9.4-14.7,18.1-14.5c0,14.4,0,28.7,0,43c0,1.8,0.1,3.7,0.4,5.5c1.6,9.4,5.9,17.2,13.3,23.3
	c6.6,5.4,14.1,8.3,22.7,8.4c7.4,0,14.9,0,22.3,0c3,0,6.1,0.1,9.1-0.4c12-1.8,20.9-8.3,26.9-18.7c3.3-5.7,4.7-11.9,4.7-18.5
	c-0.1-14.3,0-28.5,0.2-42.8c49.7,0,99.2,0,148.6,0.2c0,14.9,0,29.6,0,44.3c0,1.8,0.3,3.7,0.6,5.5c1.5,8.1,5.2,14.9,11.2,20.5
	c6.7,6.3,14.7,9.8,23.9,9.9c9.3,0.1,18.6,0,27.9,0c1.7,0,3.5-0.1,5.2-0.4c10-2,18-7.2,23.9-15.6c4.5-6.5,6.6-13.7,6.6-21.5
	c0.1-14.3,0-28.5,0.2-42.8c8,0,15.6,5.5,17.3,13.1c0.9,3.7,1,7.7,1.1,11.5c0.1,11.8,0,23.6,0,35.4c0,17.3,0,34.7,0,52
	c0,3.1,0.3,6.2,0.3,9.2c0,1.1,0.6,1.5,1.6,1.5C394.4,315.1,395.9,315.1,397.3,315.1 M221.2,351.6c1.2-1.1,2.5-2.2,3.6-3.4
	c8.6-8.3,11.6-18.7,10.6-30.2c-0.7-7.3-3.6-13.8-8.4-19.4c-7-8.1-15.9-12.5-26.5-13.3c-4.3-0.3-8.6,0.5-12.7,1.8
	c-7.9,2.3-14,7.1-18.9,13.5c-3.9,5.1-6.3,11.1-6.8,17.5c-0.3,4,0.1,8.1,0.7,12.1c1,6.4,4.2,11.9,8.6,16.8c3.6,4,7.8,7.1,12.7,9.3
	c0.4,0.2,1,0.9,0.9,1.3c-0.8,5.2-1.7,10.3-2.6,15.5c-1.3,7.8-2.8,15.5-4.1,23.3c-1.4,8.3-2.7,16.6-4,25c16.3,0,32.7,0,49,0
	c-0.4-2.6-0.8-5.1-1.2-7.6c-0.7-4.1-1.4-8.3-2.1-12.4c-0.7-4-1.3-8.1-2-12.1c-0.8-4.8-1.7-9.6-2.5-14.4c-0.9-5-1.7-10-2.6-15
	c-0.6-3-0.6-2.9,2.2-4.5C217.1,354.4,219,353,221.2,351.6z"/>
<path class="st1" d="M95.2,42.8c4-3.6,8-7.3,12.1-10.8c2.9-2.5,6.1-4.7,9.4-6.9c1.2,0.2,2.1,0.6,3.1,0.6c52.9,0,105.8,0,158.7,0
	c1,0,2.1-0.2,3.1-0.4c2.3,1.6,4.8,2.9,7,4.7c5,4.2,9.9,8.6,14.8,13.1c-1.4,0.4-2.6,0.8-3.9,0.8c-67,0-134,0-201,0
	c-0.6,0-1.2,0.1-1.7,0C96.3,43.6,95.8,43.1,95.2,42.8z"/>
<path class="st2" d="M281.6,25.2c-1,0.2-2,0.5-3.1,0.5c-52.9,0-105.8,0-158.7,0c-0.9,0-1.9-0.3-2.9-0.6c9.5-6.8,19.9-12,30.8-16.1
	c8.2-3.1,16.7-5.3,25.3-6.9c4.5-0.9,9.2-1.3,13.8-1.5c6.3-0.3,12.7-0.6,19.1-0.3c5.6,0.2,11.1,1.1,16.7,1.8C232,3,241.1,5.7,250.1,9
	c7.4,2.7,14.6,5.8,21.3,10C274.8,21,278.2,23,281.6,25.2z"/>
<path class="st3" d="M95.1,42.8c0.7,0.3,1.2,0.8,1.8,1.1c0.5,0.2,1.1,0,1.7,0c67,0,134,0,201,0c1.3,0,2.5-0.4,3.9-0.7
	c4.3,4.7,8.5,9.5,12.6,14.5c-0.9,0.4-1.7,0.8-2.5,0.8c-3.9,0.1-7.8,0-11.7,0c-19.9,0-39.8,0-59.7,0c-0.8,0-1.5,0.4-2.4,0.6
	c-3-1.2-5.8-2.5-8.7-3.6c-8.4-3.2-17.2-4.9-26.1-5.5c-7.5-0.5-15-0.3-22.4,1.1c-5.9,1.2-11.7,3-17.8,4.5c-1.3-0.1-2.3-0.2-3.4-0.2
	c-24.8,0-49.6,0-74.4,0c-0.9,0-1.8-0.2-2.7-0.4c1.4-1.8,2.8-3.8,4.3-5.5C90.7,47.2,92.9,45.1,95.1,42.8z"/>
<path class="st4" d="M124.3,192.4c0,14.3,0,28.5,0,42.8c0,6.6-1.4,12.8-4.7,18.5c-6,10.4-14.9,16.9-26.9,18.7c-3,0.4-6,0.4-9.1,0.4
	c-7.4,0-14.9,0-22.3,0c-8.6,0-16.1-3-22.7-8.4c-7.4-6.1-11.7-14-13.3-23.3c-0.3-1.8-0.4-3.7-0.4-5.5c0-14.3,0-28.5,0.1-43
	c0.8-0.4,1.5-0.7,2.2-0.9c1.3-0.2,3.1,0.1,3.7-0.7c0.7-0.9,0.2-2.6,0.3-4c0-0.3,0-0.6,0-0.9c2,0,4,0,6.2,0.1c0.2,2.2,0.2,4.1,0,6.1
	c-1.4,0-2.7,0.1-3.9,0c-1.8-0.2-2.3,0.5-2.3,2.3c0.1,13.9,0,27.8,0.1,41.7c0,2.3,0.3,4.7,0.9,7c3.8,14.2,15.9,23.4,30.6,23.5
	c8.1,0.1,16.1,0,24.2,0c1.8,0,3.6-0.2,5.3-0.5c7.5-1.3,13.6-4.8,18.6-10.7c4.1-4.9,6.9-10.5,7-16.8c0.3-14.9,0.1-29.9,0.1-44.8
	c0-1.1-0.4-1.6-1.5-1.5c-1.5,0.1-3,0-4.5-0.2c0-2.1,0-4.1,0.2-6.1c2,0,3.9,0,5.8,0.2c0,1.6,0,3,0.2,4.3c0.1,1,0.6,1.9,1.9,1.8
	C121.4,192.3,122.9,192.4,124.3,192.4z"/>
<path class="st5" d="M49.9,144c0.3-3.3,0.6-6.6,1-9.9c0.5-4.1,1.2-8.1,1.9-12.2c0.1-0.9,0.3-1.8,0.7-2.7c1.2,0.1,2.1,0.3,3,0.3
	c15.8,0,31.7,0,47.5,0.2c-2.5,7.9-3.7,15.9-4.6,24.1c-0.9,0.1-1.7,0.3-2.5,0.3C81.3,144,65.6,144,49.9,144z"/>
<path class="st6" d="M104.1,119.4c-15.8,0-31.7,0-47.5,0c-0.9,0-1.8-0.2-2.9-0.3c0.7-3.4,1.4-6.7,2.3-10c1.1-3.7,2.4-7.4,3.9-11.1
	c1.1,0.2,2,0.6,2.9,0.6c16.9,0,33.8,0,50.7,0.2c-0.2,0.4-0.5,0.7-0.7,1C109.1,106,106.3,112.6,104.1,119.4z"/>
<path class="st7" d="M49.9,144.2C65.6,144,81.3,144,97,144c0.8,0,1.6-0.2,2.6-0.2c0.2,7.3,0.1,14.5,0,21.7c-1-0.1-1.9-0.3-2.7-0.3
	c-15.6,0-31.2,0-46.9,0C49.9,158.2,49.9,151.3,49.9,144.2z"/>
<path class="st8" d="M397.3,315c-1.5,0.2-2.9,0.2-4.3,0.2c-1.1,0-1.6-0.4-1.6-1.5c-0.1-3.1-0.3-6.2-0.3-9.2c0-17.3,0-34.7,0-52
	c0-11.8,0.1-23.6,0-35.4c0-3.8-0.2-7.8-1.1-11.5c-1.7-7.5-9.3-13.1-17.5-13.1c-2.3,0-4.3,0-6.3-0.2c0-2.1,0-4.1,0-6.1
	c4.6,0,9.3-0.6,13.9,0.9c9.3,3.1,14.8,9.8,17,19.2c0.4,1.6,0.4,3.3,0.4,4.9C397.4,245.7,397.3,280.2,397.3,315z"/>
<path class="st8" d="M31.1,186.1c0.2,0.3,0.2,0.6,0.2,1c0,1.4,0.4,3.1-0.3,4c-0.6,0.7-2.4,0.4-3.7,0.7c-0.7,0.1-1.4,0.5-2.2,0.7
	c-8.8,0-16.5,6.1-18.2,14.7c-0.3,1.6-0.1,3.3-0.2,4.9c-0.1,1.5-0.3,2.9-0.3,4.4c0,9.7,0,19.5,0,29.2c0,20.6,0,41.1,0,61.7
	c0,2.2-0.2,4.3-0.4,6.5c-0.1,0.5-0.8,1.3-1.3,1.3c-1.4,0.1-2.8-0.1-4.4-0.3C0,314.1,0,313.4,0,312.7c0-33.8,0-67.7,0-101.5
	c0-6.2,1.9-11.7,5.9-16.5c4.1-5,9.3-7.7,15.5-8.6C24.5,185.7,27.7,186,31.1,186.1z"/>
<path class="st9" d="M113.4,98.6c-16.9,0-33.8,0-50.7,0c-0.9,0-1.7-0.4-2.8-0.7c0.9-2.7,1.9-5.4,3-8.1c0.9-2.2,2-4.2,3.2-6.4
	c1.2,0.1,2.1,0.3,3,0.3c18.2,0,36.5,0,54.7,0.2C120.4,88.9,116.9,93.7,113.4,98.6z"/>
<path class="st10" d="M49.9,186c0-4.8,0-9.7,0.2-14.6c15.7-0.2,31.2-0.2,46.7-0.2c1,0,1.9,0.2,3,0.5c0,4.9,0,9.6-0.1,14.3
	C82.9,186,66.4,186,49.9,186z"/>
<path class="st10" d="M347.4,171.2c0,4.8,0,9.7-0.1,14.7c-16.7,0.2-33.2,0.2-49.7,0c0-4.1,0-8.1,0.2-12.1c0.4-2.7,2.2-2.6,4.2-2.6
	C317.2,171.2,332.3,171.2,347.4,171.2z"/>
<path class="st11" d="M240,59.1c0.8-0.2,1.5-0.7,2.3-0.7c19.9,0,39.8,0,59.7,0c3.9,0,7.8,0,11.7,0c0.8,0,1.6-0.3,2.6-0.6
	c2.1,2.5,4.1,5.2,6,7.8c0.5,0.7,1,1.5,1.4,2.4c-1.1,0.3-2.1,0.5-3.1,0.5c-20.6,0-41.2,0-61.9,0c-0.8,0-1.5,0.3-2.4,0.4
	c-1.2-0.8-2.2-1.6-3.4-2.3C248.6,64.1,244.3,61.6,240,59.1z"/>
<path class="st12" d="M347.4,139.9c0,4.2,0,8.5-0.1,12.8c-16.7,0.2-33.1,0.2-49.6,0c-0.3-4.5-0.5-8.9-0.6-13.2
	c1,0.1,1.9,0.3,2.7,0.3C315.7,139.9,331.6,139.9,347.4,139.9z"/>
<path class="st13" d="M297.7,152.9c16.5,0,32.9,0,49.6,0c0.2,4.2,0.2,8.5,0,12.8c-16.7,0.2-33.1,0.2-49.6,0
	C297.7,161.4,297.7,157.1,297.7,152.9z"/>
<path class="st9" d="M333,84.5c1.5,3.4,3,6.8,4.3,10.3c-1,0.3-2,0.5-2.9,0.5c-17.9,0-35.7,0-53.7,0c-2.6-3.5-5.2-6.9-7.6-10.4
	c0.8-0.2,1.6-0.3,2.3-0.3C294.7,84.5,313.8,84.5,333,84.5z"/>
<path class="st14" d="M333,84.3c-19.2,0.1-38.3,0.1-57.5,0.2c-0.7,0-1.5,0.1-2.4,0.2c-3.3-3.1-6.3-6.3-9.2-9.5
	c1.6,0.1,3,0.3,4.4,0.3c18.6,0,37.2,0,55.7,0c1.3,0,2.5-0.5,3.8-0.7C329.5,77.9,331.3,81,333,84.3z"/>
<path class="st5" d="M347.5,139.7c-15.9,0.2-31.8,0.2-47.6,0.1c-0.9,0-1.7-0.2-2.7-0.5c-0.8-3.6-1.4-6.9-1.8-10.3
	c17.1,0,34.1,0,51,0C346.7,132.6,347.1,136.1,347.5,139.7z"/>
<path class="st14" d="M123.9,83.7c-18.2,0-36.5,0-54.7,0c-0.9,0-1.8-0.2-2.9-0.3c1.5-3.2,3.1-6.3,4.9-9.4c1,0.3,1.8,0.8,2.7,0.8
	c19.6,0,39.3,0,58.9,0.2C129.8,77.9,126.9,80.8,123.9,83.7z"/>
<path class="st15" d="M84.3,55.1c1,0.1,1.9,0.3,2.8,0.3c24.8,0,49.6,0,74.4,0c1.1,0,2.1,0.1,3.2,0.2c-4.6,2.2-9.3,4.4-14.1,6.4
	c-3.9,0-7.6,0-11.4,0c-18.2,0-36.4,0-54.7,0c-1.8,0-3.6-0.2-5.3-0.4C80.9,59.6,82.5,57.4,84.3,55.1z"/>
<path class="st16" d="M342.7,110.9c0.7,3,1.5,6,2,9.2c-17.4,0.2-34.7,0.2-52,0.1c-0.2-0.4-0.2-0.7-0.3-1c-1-2.6-1.9-5.3-2.7-7.9
	c16.9,0,33.7,0,50.4,0C340.9,111.2,341.8,111,342.7,110.9z"/>
<path class="st17" d="M327.8,74.6c-1.2,0.4-2.5,0.9-3.8,0.9c-18.6,0-37.2,0-55.7,0c-1.4,0-2.8-0.2-4.5-0.4c-2.7-2.1-5.1-4.2-7.5-6.2
	c0.8-0.1,1.5-0.4,2.3-0.4c20.6,0,41.2,0,61.9,0c1,0,2-0.2,3.1-0.3C325.1,70.2,326.4,72.4,327.8,74.6z"/>
<path class="st18" d="M292.8,120.2c17.2,0,34.5,0,51.9,0c0.7,2.9,1.2,5.7,1.7,8.8c-17,0.2-33.9,0.2-51.1,0
	C294.3,125.9,293.5,123.1,292.8,120.2z"/>
<path class="st19" d="M280.9,95.3c17.9,0,35.7,0,53.6,0c0.9,0,1.8-0.2,2.9-0.3c1.1,2.7,2.1,5.5,2.9,8.4c-18.3,0.2-36.4,0.2-54.7,0.1
	C283.9,100.7,282.4,98,280.9,95.3z"/>
<path class="st11" d="M79.1,61.8c1.9,0.1,3.7,0.3,5.5,0.3c18.2,0,36.4,0,54.7,0c3.8,0,7.5-0.1,11.3,0.1c-0.5,0.5-1,0.7-1.5,1.1
	c-2.8,1.7-5.6,3.5-8.4,5.1c-1,0-1.9,0.1-2.8,0.1c-20,0-40,0-60,0c-0.9,0-1.7-0.5-2.6-0.7C76.4,65.8,77.7,63.8,79.1,61.8z"/>
<path class="st6" d="M285.7,103.5c18.1,0,36.3,0,54.6,0c0.9,2.4,1.6,4.7,2.4,7.3c-0.9,0.3-1.8,0.5-2.7,0.5c-16.7,0-33.5,0-50.5,0
	C288,108.6,286.9,106,285.7,103.5z"/>
<path class="st17" d="M75,67.8c1,0.2,1.8,0.7,2.7,0.7c20,0,40,0,60,0c0.9,0,1.8-0.1,2.8,0.1c-2.5,2.2-5.1,4.3-7.6,6.3
	c-19.6,0-39.3,0-58.9,0c-0.8,0-1.7-0.5-2.6-0.9C72.5,71.8,73.7,69.8,75,67.8z"/>
<path class="st20" d="M297.6,186c16.5,0,33,0,49.7,0c2.2,0,4.2,0,6.3,0.2c0.2,2.2,0.2,4.1,0,6.1c-2.2,0-4.2,0-6.3,0
	c-16.7,0-33.2,0-49.7,0c0,0,0,0,0-0.2C297.6,190,297.6,188,297.6,186C297.6,186,297.6,186,297.6,186z"/>
<path class="st20" d="M49.7,186c16.7,0,33.2,0,49.9,0c0.2,0,0.2,0,0.2,0.2c0,2.2,0,4.1-0.2,6.1c-16.7,0-33.2,0-49.9,0
	c-2.2,0-4.2,0-6.1-0.2c0-2.1,0-4.1,0-6.1C45.5,186.1,47.5,186.1,49.7,186z"/>
<path class="st21" d="M99.7,171.5c-1-0.1-1.9-0.4-2.9-0.4c-15.5,0-31,0-46.6,0c-0.2-1.9-0.2-3.7-0.2-5.8c15.7-0.2,31.3-0.2,46.9-0.2
	c0.9,0,1.7,0.2,2.7,0.5C99.7,167.8,99.7,169.7,99.7,171.5z"/>
<path class="st21" d="M297.7,165.9c16.5,0,32.9,0,49.6,0c0.2,1.6,0.2,3.2,0.2,5c-15.1,0.2-30.3,0.2-45.4,0.1c-2,0-3.9-0.2-4.3,2.4
	C297.7,170.9,297.7,168.4,297.7,165.9z"/>
<path class="st4" d="M365.9,186.1c0.2,2,0.2,4,0.2,6.1c0,0.2,0,0.2-0.2,0.2c-2.2,0-4.1,0-6.1-0.2c0-2.1,0-4.1,0-6.1
	C361.8,186.1,363.8,186.1,365.9,186.1z"/>
<path class="st22" d="M359.6,186.1c0.2,2,0.2,4,0.2,6.1c0,0.2,0,0.2-0.2,0.2c-2,0-3.9,0-5.8,0c0,0,0,0,0,0c0-2,0-3.9,0-6.1
	C355.7,186.1,357.6,186.1,359.6,186.1z"/>
<path class="st22" d="M43.4,186.1c0.2,2,0.2,4,0.2,6.1c0,0.2,0,0.2-0.2,0.2c-2,0-3.9,0-5.8,0c0,0,0,0,0,0c0-2,0-3.9,0-6.1
	C39.4,186.1,41.3,186.1,43.4,186.1z"/>
<path class="st4" d="M366.1,192.4c2,0,4,0,6.1,0c0.2,14.3,0.2,28.5,0.1,42.8c0,7.8-2.1,15-6.6,21.5c-5.9,8.5-13.9,13.6-23.9,15.6
	c-1.7,0.3-3.4,0.4-5.2,0.4c-9.3,0-18.6,0.1-27.9,0c-9.3-0.1-17.2-3.7-23.9-9.9c-6-5.6-9.8-12.4-11.2-20.5c-0.3-1.8-0.6-3.7-0.6-5.5
	c0-14.7,0-29.4,0.1-44.3c5.8-0.3,6.3,1.2,6.1-6.2c0-0.1,0-0.1,0.2-0.2c2,0,3.9,0,5.8,0.2c0,2.1,0,4.1-0.2,6.1c-1.3,0-2.4,0.1-3.5,0
	c-1.8-0.2-2.3,0.5-2.3,2.3c0.1,13.9,0,27.9,0.1,41.8c0,1.4,0.1,2.8,0.3,4.2c1.2,8.9,6.2,15.6,13.2,20.9c5,3.8,11.1,4.9,17.1,5.1
	c8.3,0.3,16.6,0.1,24.9,0c1.8,0,3.7-0.3,5.5-0.6c7-1.2,12.9-4.6,17.6-9.8c4.9-5.4,7.8-11.9,7.9-19.1
	C366.3,222.3,366.1,207.3,366.1,192.4C366.1,192.4,366.1,192.4,366.1,192.4z"/>
<path class="st23" d="M279.4,186.1c0,0.1,0,0.1,0,0.2c0.1,7.4-0.3,6-6.1,6.1c-49.7,0-99.2,0-148.8,0c-1.6,0-3-0.1-4.4,0
	c-1.3,0.1-1.8-0.8-1.9-1.8c-0.2-1.4-0.1-2.8,0-4.4c51.8-0.2,103.4-0.2,155-0.2C275.2,186,277.3,186.1,279.4,186.1z"/>
<path class="st24" d="M112,192.4c1.5,0,3,0.1,4.5,0c1.1,0,1.5,0.4,1.5,1.5c0,14.9,0.2,29.9-0.1,44.8c-0.1,6.3-2.9,11.9-7,16.8
	c-4.9,5.8-11.1,9.4-18.6,10.7c-1.8,0.3-3.6,0.5-5.3,0.5c-8.1,0.1-16.1,0.1-24.2,0c-14.7-0.1-26.8-9.4-30.6-23.5
	c-0.6-2.2-0.9-4.6-0.9-7c-0.1-13.9,0-27.8-0.1-41.7c0-1.8,0.5-2.5,2.3-2.3c1.2,0.1,2.5,0,3.9,0c0.2,0,0.2,0,0.2,0.2
	c0,15,0,29.8,0,44.6c0,0.6,0,1.2,0,1.9c1.7,12.3,12.3,21.5,24.8,21.5c8.3,0,16.6,0,24.9,0c1.3,0,2.6-0.1,3.9-0.4
	c13.5-2.4,20.5-13.2,20.8-24.8C112.2,221,112,206.7,112,192.4C112,192.4,112,192.4,112,192.4z"/>
<path class="st22" d="M99.7,186.2c4-0.2,7.9-0.2,12.1-0.1c0.2,2,0.2,4,0.2,6.1c0,0.2,0,0.2-0.2,0.2c-2.2,0-4.2,0-6.3,0
	c-2,0-3.9,0-5.8,0c0,0,0,0,0,0C99.7,190.4,99.7,188.4,99.7,186.2z"/>
<path class="st25" d="M297.6,192.4c16.5,0,33,0,49.7,0.2c0.2,14.5,0.2,28.8,0.2,43.1c0,0.8,0,1.6-0.2,2.4
	c-1.4,6.1-6.3,10.1-12.7,10.1c-7.8,0-15.5,0.1-23.2-0.1c-2.1,0-4.4-0.4-6.3-1.2c-4-1.8-6.7-5-7-9.4c-0.4-6.7-0.4-13.4-0.4-20
	C297.6,209.1,297.6,200.7,297.6,192.4z"/>
<path class="st26" d="M297.6,192.4c0,8.4,0,16.7,0,25.1c0.1,6.7,0,13.4,0.4,20c0.3,4.4,3,7.6,7,9.4c1.9,0.9,4.2,1.2,6.3,1.2
	c7.7,0.1,15.5,0.1,23.2,0.1c6.4,0,11.3-3.9,12.7-10.1c0.2-0.8,0.2-1.6,0.2-2.4c0-14.3,0-28.6,0-43.1c2-0.2,4-0.2,6.1-0.2
	c0.2,0,0.2,0,0.2,0.2c0,12.2,0,24.2,0,36.2c0,3.1-0.1,6.3-0.4,9.4c-0.6,8.2-8.9,15.9-17.2,15.9c-8.8,0-17.6,0-26.4,0
	c-9.8,0-18.1-8.1-18.2-18.2c-0.1-14.5,0-29,0.2-43.5C293.9,192.4,295.8,192.4,297.6,192.4C297.6,192.3,297.6,192.4,297.6,192.4z"/>
<path class="st22" d="M297.6,192.2c-1.9,0.2-3.7,0.2-6,0.2c-2.3,0-4.3,0-6.3,0c0,0,0,0,0,0c0-2,0-3.9,0-6.1c4-0.2,7.9-0.2,12.1-0.2
	C297.6,188,297.6,190,297.6,192.2z"/>
<path class="st25" d="M49.9,192.4c16.5,0,33,0,49.7,0c0.2,0,0.2,0,0.2,0.2c-0.1,14.6-0.3,29-0.4,43.5c0,6.6-5.4,12.1-12,12.1
	c-8.4,0.1-16.7,0.1-25.1,0c-7-0.1-12.4-5.6-12.4-12.6C49.9,221.1,49.9,206.8,49.9,192.4z"/>
<path class="st26" d="M49.7,192.4c0.2,14.4,0.2,28.8,0.2,43.2c0,7,5.4,12.6,12.4,12.6c8.4,0.1,16.7,0.1,25.1,0
	c6.6-0.1,12-5.6,12-12.1c0.1-14.4,0.2-28.9,0.4-43.5c1.9-0.2,3.7-0.2,5.8,0c0.2,14.2,0.2,28.3,0.2,42.4c0,1.5-0.2,3.1-0.4,4.6
	c-1.5,8.1-9.5,14.8-17.9,14.6c-8.7-0.2-17.5,0-26.2,0c-0.8,0-1.6-0.1-2.4-0.2c-9.2-2-15.1-9.4-15.2-19.3c0-14.1,0-28.1,0-42.2
	c0,0,0,0,0,0C45.5,192.4,47.5,192.4,49.7,192.4z"/>
<path class="st24" d="M365.9,192.4c0.2,14.9,0.3,29.9,0.1,44.8c-0.1,7.3-3,13.7-7.9,19.1c-4.8,5.3-10.6,8.6-17.6,9.8
	c-1.8,0.3-3.7,0.6-5.5,0.6c-8.3,0.1-16.6,0.2-24.9,0c-6.1-0.2-12.1-1.3-17.1-5.1c-7-5.3-11.9-12-13.2-20.9c-0.2-1.4-0.3-2.8-0.3-4.2
	c0-13.9,0-27.9-0.1-41.8c0-1.8,0.5-2.5,2.3-2.3c1.1,0.1,2.2,0,3.5,0c0.2,0,0.2,0,0.2,0.2c0,14.1,0,27.9,0,41.8
	c0,1.8,0.1,3.7,0.4,5.5c1.9,11.6,12.5,20.6,24.2,20.6c8.7,0,17.5,0,26.2,0c0.7,0,1.4,0,2-0.1c6.6-1.1,12.3-4,16.4-9.5
	c3.1-4,5-8.5,5.1-13.7c0-14.9,0-29.9,0-44.8c0,0,0,0,0,0C361.8,192.4,363.8,192.4,365.9,192.4z"/>
<path class="st27" d="M359.6,192.4c0.2,14.9,0.2,29.9,0.2,44.8c0,5.1-2,9.6-5.1,13.7c-4.1,5.5-9.8,8.4-16.4,9.5
	c-0.7,0.1-1.4,0.1-2,0.1c-8.7,0-17.5,0-26.2,0c-11.8,0-22.3-8.9-24.2-20.6c-0.3-1.8-0.4-3.7-0.4-5.5c0-13.9,0-27.8,0-41.8
	c2-0.2,4-0.2,6.1-0.2c0.2,14.5,0.1,29,0.2,43.5c0,10.1,8.4,18.3,18.2,18.2c8.8,0,17.6,0,26.4,0c8.2,0,16.5-7.7,17.2-15.9
	c0.2-3.1,0.4-6.3,0.4-9.4c0-12,0-24,0-36.2C355.7,192.4,357.6,192.4,359.6,192.4z"/>
<path class="st27" d="M43.4,192.4c0.2,14.1,0.1,28.1,0.2,42.2c0,9.9,6,17.4,15.2,19.3c0.8,0.2,1.6,0.2,2.4,0.2
	c8.7,0,17.5-0.1,26.2,0c8.4,0.2,16.4-6.6,17.9-14.6c0.3-1.5,0.4-3.1,0.4-4.6c0-14.1,0-28.1,0-42.4c2-0.2,4-0.2,6.1-0.2
	c0.2,14.3,0.4,28.6,0.1,42.9c-0.3,11.6-7.3,22.4-20.8,24.8c-1.3,0.2-2.6,0.3-3.9,0.4c-8.3,0-16.6,0-24.9,0c-12.5,0-23-9.1-24.8-21.5
	c-0.1-0.6,0-1.2,0-1.9c0-14.8,0-29.6,0-44.6C39.5,192.4,41.3,192.4,43.4,192.4z"/>
</svg>
