<?xml version="1.0" encoding="utf-8"?>
<!-- Generator: Adobe Illustrator 28.1.0, SVG Export Plug-In . SVG Version: 6.00 Build 0)  -->
<svg version="1.1" id="Layer_1" xmlns="http://www.w3.org/2000/svg" xmlns:xlink="http://www.w3.org/1999/xlink" x="0px" y="0px"
	 viewBox="0 0 499 488.5" style="enable-background:new 0 0 499 488.5;" xml:space="preserve">
<style type="text/css">
	.st0{fill:#FF31CE;}
	.st1{fill:#FF67E2;}
	.st2{fill:#FF61E0;}
	.st3{fill:#FF65E1;}
	.st4{fill:#FF6CE4;}
	.st5{fill:#FF72E6;}
	.st6{fill:#FFD238;}
	.st7{fill:#FFDD56;}
	.st8{fill:#FFDB4E;}
	.st9{fill:#FFCB23;}
	.st10{fill:#FFCE2C;}
	.st11{fill:#FFD743;}
	.st12{fill:#F822CD;}
	.st13{fill:#FBA479;}
	.st14{fill:#FFC515;}
	.st15{fill:#FA8885;}
	.st16{fill:#FCC05B;}
	.st17{fill:#FFDA4A;}
	.st18{fill:#FFDF6B;}
	.st19{fill:#FB48D9;}
	.st20{fill:#FA7E6B;}
	.st21{fill:#FCAD27;}
	.st22{fill:#FFD43C;}
	.st23{fill:#FFD135;}
	.st24{fill:#FA785D;}
	.st25{fill:#FCB135;}
	.st26{fill:#FCB642;}
	.st27{fill:#FB9451;}
	.st28{fill:#FCBB4F;}
	.st29{fill:#FB995C;}
	.st30{fill:#FA8175;}
	.st31{fill:#FFC30F;}
	.st32{fill:#FA72A1;}
	.st33{fill:#FA758C;}
	.st34{fill:#FB8B98;}
	.st35{fill:#FA6180;}
	.st36{fill:#FA6B75;}
	.st37{fill:#FB9046;}
	.st38{fill:#FFC81B;}
	.st39{fill:#FA707F;}
	.st40{fill:#FA709D;}
	.st41{fill:#FA6D96;}
	.st42{fill:#FA6588;}
	.st43{fill:#FA698F;}
</style>
<path class="st0" d="M129.5,448.7c-7.7,7.8-15.5,15.5-23.2,23.3c-4.3,4.4-9.2,7.9-14.7,10.6c-5.4,2.7-11.1,4.5-17.2,5.1
	c-2.3,0.2-4.6,0.7-6.9,0.7c-8.8-0.1-17.4-1.8-25.3-5.7c-5.8-2.8-11.2-6.4-15.7-11.1c-5.3-5.7-9.4-12.2-12.2-19.5
	c-3.1-8-4.1-16.2-3.5-24.6c0.8-10,4.1-19.2,10-27.4c1.7-2.3,3.5-4.6,5.5-6.6c7.8-7.9,15.7-15.7,23.7-23.5c0.8,0.6,1.5,1.2,2.1,1.8
	c25.1,25,50.1,50.1,75.2,75.1C127.9,447.7,128.7,448.2,129.5,448.7z"/>
<path class="st1" d="M275.6,61.4c1.7-2.7,3.2-5.7,5.2-8.2c3.9-4.8,8-9.4,12.3-14c2.1,2.1,3.8,4.2,5.8,6.2
	c9.1,9.1,18.3,18.1,27.5,27.1c6.5,6.4,12.9,12.9,19.3,19.3c0.4,0.4,0.7,0.8,1.1,1.3c-2.2,2.4-3.6,5.2-3.6,8.4c0,1.9,0.4,4.1,1.4,5.7
	c3.2,5.4,6.6,10.8,10.3,15.8c2.8,3.8,6.2,7.3,9.5,10.7c7.4,7.6,15.7,14,25,19.1c2,1.1,4.1,2,6.2,2.6c4.1,1.2,7.5-0.6,10.8-3.2
	c1.4,1.2,2.5,2.5,3.6,3.7c16.2,16.1,32.3,32.1,48.5,48.2c0.6,0.6,1,1.4,1.5,2.1c-6.5,6.6-13.7,12.4-21.9,17c-1-0.1-2.1-0.4-2.6,0
	c-1.5,1.3-2.5,0.9-3.8-0.4c-14.8-14.7-29.6-29.4-44.4-44.1c-20.1-20-40.3-40-60.4-60c-17-17-34-34-51-51c-0.9-0.9-1.2-1.6-0.5-2.8
	C275.8,63.9,275.5,62.5,275.6,61.4z"/>
<path class="st2" d="M261.6,127.6c-0.3-5.5-1-11-0.7-16.5c0.3-6.3,1.4-12.6,2.4-18.9c0.4-2.8,1.3-5.6,2.2-8.3
	c1.7,1.7,3.1,3.4,4.6,4.9c20.8,20.7,41.6,41.4,62.4,62c20.9,20.8,41.7,41.5,62.7,62.3c6.9,6.8,13.8,13.5,20.7,20.2
	c-5.3,1.2-10.6,2.6-15.9,3.7c-6.9,1.4-13.9,1.2-20.9,1.1c-1.6,0-3.3-0.2-5.2-0.5c-0.7-0.6-1.2-1.1-1.7-1.6
	c-33.6-33.6-67.1-67.1-100.7-100.7c-2.6-2.6-5.4-5-8.2-7.5C263,127.5,262.2,127.7,261.6,127.6z"/>
<path class="st3" d="M416.1,233.3c-7.1-6.7-14-13.4-20.9-20.2c-20.9-20.7-41.8-41.5-62.7-62.3c-20.8-20.7-41.6-41.3-62.4-62
	c-1.6-1.6-3-3.3-4.5-5c0.9-3,1.7-6.1,3-8.9c2.1-4.6,4.5-9,6.9-13.5c0,1.1,0.3,2.5-0.3,3.4c-0.7,1.3-0.4,1.9,0.5,2.8
	c17,17,34,34,51,51c20.1,20,40.2,40,60.4,60c14.8,14.7,29.7,29.4,44.4,44.1c1.3,1.3,2.3,1.6,3.8,0.4c0.5-0.4,1.6-0.1,2.5,0
	c-0.7,0.7-1.4,1.4-2.3,1.8C429.3,228.1,423,231.3,416.1,233.3z"/>
<path class="st4" d="M346.8,93c-0.5-0.4-0.8-0.8-1.2-1.2c-6.4-6.4-12.8-12.9-19.3-19.3c-9.1-9.1-18.3-18.1-27.5-27.1
	c-2-1.9-3.7-4.1-5.7-6.2c4.3-3.9,8.6-7.9,13.2-11.5c7.4-5.7,15.5-10.4,23.9-14.4c1.6-0.8,3.3-1.4,5.1-2c0.8,1,1.3,1.9,2,2.6
	c14.8,14.7,29.5,29.5,44.3,44.2c-2.7,2.7-5.4,5.5-8.1,8.2C364.7,75.2,355.8,84.1,346.8,93z"/>
<path class="st4" d="M459.9,206.1c-0.6-0.6-1-1.4-1.6-2C442.2,188,426,172,409.8,155.9c-1.2-1.2-2.3-2.4-3.5-3.7
	c2.7-2.9,5.4-5.7,8.2-8.5c8.8-8.8,17.6-17.6,26.6-26.4c0.7,0.9,1.1,1.8,1.8,2.5c5.5,5.4,11.1,10.8,16.5,16.2
	c8.6,8.5,17,17.1,25.6,25.5c0.7,0.7,2,0.9,3,1.4c-0.7,1.7-1.2,3.5-2.1,5.1c-3.8,6.9-7.5,13.9-11.8,20.4c-3.4,5.1-7.6,9.7-11.5,14.5
	C461.9,204.1,460.9,205.1,459.9,206.1z"/>
<path class="st5" d="M381.8,58c-14.9-14.7-29.7-29.4-44.4-44.1c-0.7-0.7-1.2-1.7-1.8-2.7c4.1-1.7,8.3-3.5,12.5-4.9
	c6.9-2.3,13.9-4.1,21.2-4.9c3.8-0.4,7.6-0.8,11.4-1.1c2.8-0.2,5.7-0.5,8.5-0.3c6.5,0.4,13.1,0.5,19.4,2.6c6.6,2.2,10.3,9.6,8.9,16.1
	c-0.7,3.4-2.4,6-4.7,8.4C402.5,37.4,392.2,47.7,381.8,58z"/>
<path class="st5" d="M488.3,162.9c-1.1-0.4-2.4-0.6-3.1-1.3c-8.6-8.5-17.1-17-25.6-25.5c-5.5-5.4-11.1-10.8-16.5-16.2
	c-0.7-0.7-1.1-1.6-1.7-2.5c4.5-4.7,9.1-9.4,13.7-14c6-6,12-12,18-18c2.8-2.8,6.4-4.3,10.3-4.1c6.7,0.2,12.4,4.5,13.9,11.7
	c1.8,8.6,2.2,17.3,1.7,26c-0.4,7.2-1.5,14.3-3.1,21.3C493.9,147.9,491.3,155.4,488.3,162.9z"/>
<path class="st6" d="M345.3,377.7c-1.2,1.6-2.2,3.3-3.6,4.8c-3.3,3.4-7,6.3-11.3,8.2c-3.4,1.5-7,2.5-10.7,3
	c-8.4,1.1-16.2-0.5-23.4-4.6c-3.1-1.8-5.9-4.2-8.9-6.3c-0.7-0.5-1.2-1.1-2.1-1.5c0.9,1.9,1.8,3.8,2.5,5.7c1.5,3.7,2.5,7.5,2.4,11.5
	c-0.1,2.6-0.2,5.2-0.5,8.1c-0.5,0.5-0.7,1-1.1,1.2c-0.4,0.3-1.1,0.5-1.5,0.4c-2.7-1.5-3.4-3.2-3-6.5c0.1-0.4,0.1-0.9,0.1-1.3
	c-0.5-8-3.3-15-8.8-20.9c-1.5-1.7-2.5-3.4-2.5-5.8c0-1.1-0.7-2.3-1.3-3.2c-1.1-1.5-2.5-2.7-3.7-4.2c3.3-3.4,6.6-6.7,9.8-10
	c0.5-0.5,0.8-1.2,1.4-1.8c4.9-4.7,9.6-9.3,14.4-13.9c1.1-1.1,2.2-2.1,3.5-3.1c0.7,0.5,1.4,1,2,1.5c12.5,12.5,25,24.9,37.4,37.4
	c0.9,0.9,1.5,1.2,2.9,0.8C341.2,376.7,343.4,376.3,345.3,377.7 M284.6,380.8c0.1,0,0.3-0.1,0.4-0.1
	C284.9,380.6,284.8,380.6,284.6,380.8z"/>
<path class="st7" d="M392.9,277.5c1.4,1.7,3.1,3.2,4.3,5c4.2,6,6.4,12.6,6.9,20c0.3,5.2-0.5,10.2-2.3,15.2c-1.7,0.8-2.8,0.7-3.9-0.6
	c-1.1-1.3-2.2-1-2.9,0.7c-1.2,2.5-2.7,4.8-4.8,6.7c-2.2,1.9-2.6,2-4.6,0c-11.7-11.7-23.4-23.4-35-35.1c-1.2-1.3-2.3-2.5-4.1-0.8
	c0,0-0.3-0.1-0.4-0.3c3.7-3.8,7.4-7.4,11-11.2c1.2-1.3,2.5-1.4,4.2-1.2c5.2,0.7,10.4,1.4,15.6,1.7
	C382.1,277.8,387.5,277.5,392.9,277.5z"/>
<path class="st8" d="M346,288.3c0.2,0.1,0.4,0.2,0.5,0.2c1.8-1.7,2.9-0.4,4.1,0.8c11.7,11.7,23.3,23.4,35,35.1c2,2,2.4,1.9,4.6,0
	c2.1-1.9,3.6-4.1,4.8-6.7c0.8-1.7,1.8-2,2.9-0.7c1.1,1.3,2.2,1.5,3.8,0.7c-1.6,3.1-3,6.5-5.1,9.4c-4.6,6.2-10.7,10.3-18.1,12.6
	c-2.1,0.7-4.3,1-6.7,1.3c-1.4-1.5-2.7-2.7-3.8-4.1c-1.2-1.4-2.9-1.7-4.6-2.1c-2.8-0.6-5.6-1.3-8.3-2.2c-3.5-1.2-5.7-4.1-8.2-6.7
	c-5.7-6-11.7-11.8-17.5-17.6c-0.6-0.6-1.3-0.9-1.9-1.5c2.6-2.7,5.2-5.3,7.7-7.9C338.7,295.4,342.4,291.9,346,288.3z"/>
<path class="st9" d="M264.9,436c-2,0.5-3.9,1.2-5.9,1.5c-8.3,1.3-16.3-0.3-23.6-4.2c-3.8-2.1-7.1-5.2-10.7-7.8
	c-0.2-0.1-0.4-0.3-0.9-0.3c0.2,0.5,0.5,1.1,0.7,1.6c3,5.3,4.4,11.2,4.4,17.2c0,6.8-1.5,13.4-5.1,19.4c-0.2,0.3-0.3,0.5-0.7,0.9
	c-3.4-0.4-4.5-2.2-3.6-5.1c0.8-2.8,1.6-5.5,2.2-8.4c2.1-10.3-0.5-19.3-7.4-27.1c-0.8-0.8-0.7-1.3,0-2.2c0.7-0.8,1-2,1.5-3.1
	c8.1-8.2,16.2-16.3,24.3-24.4c0.8-0.8,1.6-1.5,2.6-2.3c1,0.5,2,0.9,2.7,1.6c5.7,5.6,11.3,11.3,17,16.9c3.3,3.3,6.7,6.6,10,10
	c0.5,0.5,1,1.6,0.8,2.2c-0.4,1.1-1.2,2.2-2.1,3c-5.2,4.5-11.5,6-18.1,6.4c-1.2,0.1-2.5-0.5-3.8-0.7c-7.9-1.1-14.5-4.6-20-10.4
	c-1.9-2-3.8-4.1-5.8-6c-0.3-0.3-1.3-0.6-1.5-0.4c-1.5,1.3-2.8,2.7-4.2,4c0.1,0.2,0.1,0.4,0.2,0.6c1.2,0.1,2.5,0.3,3.7,0.2
	c2.4-0.2,4.2,0.6,5.8,2.4c2.9,3.1,5.9,6.1,9,8.9c0.9,0.9,2.3,1.6,3.5,1.7c6.8,0.4,13.6,0.6,20.3,0.8c0.4,0,0.9,0,1.3,0.2
	C262.8,433.8,264.7,433.8,264.9,436 M223.2,424.4c0.1,0.1,0.2,0.3,0.4,0.4C223.5,424.6,223.5,424.4,223.2,424.4z"/>
<path class="st10" d="M265,436c-0.3-2.2-2.2-2.2-3.7-2.8c-0.4-0.2-0.8-0.1-1.3-0.2c-6.8-0.3-13.6-0.4-20.3-0.8
	c-1.2-0.1-2.6-0.8-3.5-1.7c-3.1-2.9-6.1-5.9-9-8.9c-1.6-1.7-3.4-2.5-5.8-2.4c-1.2,0.1-2.5-0.1-3.7-0.2c-0.1-0.2-0.1-0.4-0.2-0.6
	c1.4-1.4,2.7-2.8,4.2-4c0.2-0.2,1.2,0.1,1.5,0.4c2,2,3.8,4,5.8,6c5.5,5.8,12.1,9.3,20,10.4c1.3,0.2,2.5,0.8,3.8,0.7
	c6.6-0.5,13-1.9,18.1-6.4c0.9-0.8,1.7-1.9,2.1-3c0.2-0.5-0.3-1.6-0.8-2.2c-3.3-3.4-6.6-6.7-10-10c-5.7-5.7-11.3-11.3-17-16.9
	c-0.7-0.7-1.7-1.1-2.7-1.7c0.3-0.5,0.6-1,1-1.5c6.5-6.4,12.8-12.7,19.2-19c1.6-1.6,3.3-3.2,4.9-4.8c1.3,1.3,2.7,2.6,3.8,4.1
	c0.7,0.9,1.3,2.1,1.3,3.2c0,2.3,0.9,4.1,2.5,5.8c5.4,5.9,8.3,12.9,8.8,20.9c0,0.4,0,0.9-0.1,1.3c-0.5,3.2,0.3,4.9,3,6.5
	c0.3,0.2,1-0.1,1.5-0.4c0.4-0.2,0.6-0.7,1-1.1c-0.2,4.6-1.9,8.8-4.2,12.7c-1.6,2.7-3.5,5.3-5.7,7.5C275.6,431.1,270.8,434.2,265,436
	z"/>
<path class="st11" d="M345.4,377.6c-2-1.3-4.2-0.9-6.1-0.4c-1.3,0.4-2,0.1-2.9-0.8c-12.5-12.5-24.9-25-37.4-37.4
	c-0.6-0.6-1.2-1-1.9-1.6c2.2-2.4,4.4-4.7,6.7-7c3.8-3.7,7.6-7.4,11.5-11.1c0.8,0.6,1.6,1.1,2.3,1.8c8,7.9,15.8,15.9,23.9,23.8
	c2.8,2.7,3.8,5.9,3.9,9.6c0,1.5,0.2,3.1,0.3,4.6c0.1,1.4,0.9,1.9,2.2,1.9c1.2,0,2.4,0.2,3.7,0.4c-0.5,4.9-2,9.4-4.4,13.7
	C346.6,375.8,346,376.7,345.4,377.6z"/>
<path class="st12" d="M129.6,448.7c-0.9-0.5-1.7-0.9-2.3-1.6c-25.1-25-50.1-50.1-75.2-75.1c-0.6-0.6-1.3-1.2-2-1.9
	c-0.1-0.1,0-0.1,0-0.2c0.2-0.2,0.3-0.3,0.4-0.5c2.1-2.1,4.2-4.3,6.5-6.5c0.7,0.4,1.3,0.9,1.8,1.5c22.4,22.4,44.8,44.8,67.2,67.2
	c0.5,0.5,1.1,1,1.7,1.6c1.5,1.6,2.9,3,4.3,4.5c1.6,1.6,3.1,3.3,4.6,5c-0.4,0.1-0.9,0.1-1.2,0.4C133.5,444.8,131.6,446.7,129.6,448.7
	z"/>
<path class="st13" d="M372.8,257.1c3.3,3.2,6.6,6.5,9.9,10c-1,0.3-1.9,0.4-2.9,0.4c-7.5,0.3-14.8-1-22-2.4c-1.8-0.3-3,0-4.3,1.3
	c-14.5,14.6-29.1,29.2-43.7,43.7c-0.6,0.6-1.2,1.1-1.9,1.5c-2.3-2.3-4.4-4.4-6.6-6.7c3.8-4,7.6-7.9,11.4-11.8c4-4.1,8-8.2,12.2-12.3
	c0.7-0.5,1.3-0.9,1.8-1.4c8.1-8,16.1-16.1,24.1-24.2c1.2-1.2,2.2-1.4,3.7-1c2.3,0.6,4.6,1,6.9,1.5c0.1-0.2,0.1-0.3,0.2-0.5
	c-3.9-3.9-7.8-7.9-11.7-11.8c0.1-0.2,0.2-0.3,0.4-0.5c0.9,0.2,1.8,0.4,2.6,0.6c2.6,0.6,5.2,1.1,7.8,1.6c0,0,0,0,0,0.1
	c0.1,0.1,0.2,0.2,0.3,0.3c0,0,0,0,0,0.1c0.1,0.1,0.2,0.2,0.4,0.3c0,0,0,0,0,0.1c0.1,0.1,0.2,0.2,0.3,0.3c0,0,0,0,0,0.1
	c0.1,0.1,0.2,0.2,0.3,0.3c0,0,0,0,0,0.1c0.1,0.1,0.2,0.2,0.3,0.3c0,0,0,0,0,0.1c0.1,0.1,0.2,0.2,0.3,0.3c0,0,0,0,0,0.1
	c0.1,0.1,0.2,0.2,0.3,0.3c0,0,0,0,0,0.1c0.1,0.1,0.2,0.2,0.3,0.3c0,0,0,0,0,0.1c0.1,0.1,0.2,0.2,0.3,0.3c0,0,0,0,0,0.1
	c0.1,0.1,0.2,0.2,0.3,0.3c0,0,0,0,0,0.1c0.1,0.1,0.2,0.2,0.3,0.3c0,0,0,0,0,0.1c0.1,0.1,0.2,0.2,0.3,0.3c0,0,0,0,0,0.1
	c0.1,0.1,0.2,0.2,0.3,0.3c0,0,0,0,0,0.1c0.1,0.1,0.2,0.2,0.3,0.3c0,0,0,0,0,0.1c0.1,0.1,0.2,0.2,0.3,0.3c0,0,0,0,0,0.1
	c0.1,0.1,0.2,0.2,0.3,0.3c0,0,0,0,0,0.1c0.1,0.1,0.2,0.2,0.3,0.3c0,0,0,0,0,0.1c0.1,0.1,0.2,0.2,0.3,0.3c0,0,0,0,0,0.1
	c0.1,0.1,0.2,0.2,0.3,0.3c0,0,0,0,0,0.1c0.1,0.1,0.2,0.2,0.3,0.3c0,0,0,0,0,0.1c0.1,0.1,0.2,0.2,0.3,0.3c0,0,0,0,0,0.1
	c0.1,0.1,0.2,0.2,0.3,0.3c0,0,0,0,0,0.1c0.1,0.1,0.2,0.2,0.3,0.3c0,0,0,0,0,0.1c0.1,0.1,0.2,0.2,0.4,0.3c0,0,0,0,0,0.1
	c0.1,0.1,0.2,0.2,0.4,0.3c0,0,0,0,0,0.1c0.1,0.1,0.2,0.2,0.4,0.3c0,0,0,0,0,0.1c0.1,0.1,0.2,0.2,0.4,0.3c0,0,0,0,0,0.1
	c0.1,0.1,0.2,0.2,0.4,0.3c0,0,0,0,0,0.1c0.1,0.1,0.2,0.2,0.3,0.3c0,0,0,0,0,0.1c0.1,0.1,0.2,0.2,0.4,0.3c0,0,0,0,0,0.1
	c0.1,0.1,0.2,0.2,0.3,0.3c0,0,0,0,0,0.1C372.6,256.9,372.7,257,372.8,257.1z"/>
<path class="st13" d="M231.8,122.4c2.4,1.6,4.8,3.1,7.1,4.8c4.5,3.4,8.9,6.9,13.3,10.3c0.9,0.7,1.7,1.4,2.4,2.3
	c-0.2,0.7-0.5,1.3-0.4,1.7c0.5,2.2,1.1,4.4,1.7,6.7c0.1,0.4,0.1,0.7,0.1,1.4c-4.2-3.6-8.1-7-12-10.4c-0.2,0.1-0.3,0.2-0.5,0.4
	c0.4,1.7,0.6,3.3,1.2,5c0.5,1.6,0.1,2.6-1.1,3.7c-16,16-32,32-48,47.9c-0.5,0.5-1,0.9-1.6,1.3c-1.2-1.1-2.4-2.2-3.4-3.3
	c-1.1-1.2-2.1-2.5-3.1-3.8c0.6-0.7,1.2-1.3,1.7-1.8c14.6-14.6,29.2-29.3,43.9-43.9c0.8-0.8,1.1-1.6,0.9-2.8
	c-0.7-3.9-1.3-7.8-1.9-11.8c-0.1-0.7-0.2-1.2-0.2-1.8C231.9,126.3,231.8,124.4,231.8,122.4z"/>
<path class="st14" d="M215.7,418.5c-0.5,1-0.7,2.2-1.4,3c-0.7,0.9-0.8,1.3,0,2.2c6.9,7.8,9.5,16.8,7.4,27.1
	c-0.6,2.8-1.4,5.6-2.2,8.4c-0.9,2.9,0.2,4.7,3.5,5.1c-3.2,5.3-7.6,9.6-13.1,12.7c-4.6,2.7-9.6,4-14.9,4.4c-12,0.9-22-3.1-30.6-11.5
	c1.5-1.7,2.9-3.1,4.4-4.4c0.2,0.3,0.3,0.4,0.4,0.5c7.8,6.9,16.8,10.4,27.4,8.9c4.9-0.7,9.3-2.5,13.1-5.6c2.2-1.8,4.1-3.8,5.9-6
	c1.6-2,1.4-3.1-0.4-4.9c-6-6-11.9-11.9-17.9-17.8c-0.6-0.6-1.7-0.9-2.5-1.4c4-4,7.9-7.9,11.7-11.9c0.5-0.5,0.8-1.2,1.3-1.8
	C210.7,423.2,213.2,420.9,215.7,418.5z"/>
<path class="st15" d="M194.2,197.6c0.5-0.5,1-0.9,1.5-1.4c16-16,32-32,48-47.9c1.2-1.2,1.6-2.2,1.1-3.7c-0.5-1.6-0.8-3.3-1.2-5
	c0.2-0.1,0.3-0.2,0.5-0.4c3.9,3.4,7.8,6.8,12,10.4c-0.1-0.7,0-1.1-0.1-1.4c-0.6-2.2-1.2-4.4-1.7-6.7c-0.1-0.5,0.2-1.1,0.4-1.6
	c0.3,0,0.3,0,0.5,0.3c0.2,0.3,0.3,0.3,0.4,0.4c0,0,0,0,0,0.1c0.2,0.1,0.3,0.2,0.4,0.3c3.5,3.2,7,6.4,10.6,9.7c0.4,0.6,0.6,1,0.8,1.5
	c-1.4,1.6-2.7,3-4.2,4.4c-0.1,0-0.3,0-0.3-0.1c-1.7-1.8-3.5-3.4-5-5.2c-1.2-1.5-2-1.3-3.3,0c-19.5,19.6-39.1,39.2-58.7,58.7
	c-0.6,0.6-1.2,1.1-1.8,1.5c-0.3-0.8-0.6-1.6-1-2.2c-1.6-1.8-3.3-3.4-4.9-5.3C190.2,201.8,192.2,199.7,194.2,197.6z"/>
<path class="st16" d="M308,311.8c0.6-0.5,1.2-1.1,1.8-1.6c14.6-14.6,29.2-29.1,43.7-43.7c1.3-1.3,2.5-1.6,4.3-1.3
	c7.3,1.4,14.6,2.6,22,2.4c1,0,2-0.1,3-0.3c3.4,3.3,6.7,6.7,10.1,10.2c-5.4,0.1-10.7,0.4-16.1,0.1c-5.2-0.3-10.4-1-15.6-1.7
	c-1.6-0.2-2.9-0.1-4.2,1.2c-3.6,3.8-7.3,7.4-11,11.2c-3.7,3.7-7.3,7.2-10.9,10.7c-2.6,2.6-5.1,5.2-7.8,7.9c-0.7,0.7-1.3,1.2-1.8,1.7
	c-3.5,3.4-7,6.8-10.6,10.2c-1.4-1.2-2.7-2.4-4.1-3.6c-1.1-0.9-2.2-1.8-3.2-2.8C307.8,312.2,307.9,312,308,311.8z"/>
<path class="st17" d="M315.1,318.9c3.5-3.4,7-6.8,10.4-10.3c0.5-0.5,1.1-1,1.7-1.6c0.8,0.4,1.5,0.8,2,1.3
	c5.9,5.8,11.8,11.6,17.5,17.6c2.5,2.6,4.7,5.5,8.2,6.7c2.7,0.9,5.5,1.6,8.3,2.2c1.7,0.4,3.4,0.7,4.6,2.1c1.1,1.4,2.4,2.6,3.6,4.1
	c-2.7,0.3-5.4,0.7-8,0.5c-4.2-0.4-8.3-1.3-12.1-3.3c-1.9-1-3.7-2.1-5.5-3.1c-0.2-0.1-0.5-0.2-1.2-0.5c1.2,2.2,2.3,4,3.2,5.9
	c2.1,4.3,3.5,8.9,3.5,13.7c0,2.2,0,4.5,0,6.9c-1.3,0-2.5-0.2-3.7-0.2c-1.3,0-2.1-0.4-2.2-1.9c-0.1-1.5-0.3-3.1-0.3-4.6
	c-0.1-3.7-1.1-6.9-3.9-9.6c-8.1-7.8-15.9-15.8-23.9-23.8c-0.6-0.6-1.4-1.2-2.3-1.9C315.1,319,315.1,318.9,315.1,318.9 M344.2,334.4
	c0.2,0,0.4,0.1,0.6,0.1C344.7,334.4,344.5,334.2,344.2,334.4z"/>
<path class="st18" d="M231.7,122.3c0.1,2.1,0.1,4,0.2,6c0,0.5,0.1,1.1,0.1,1.7c-3.5-2.1-6.9-4.3-10.4-6.6c-2.5-1.5-5-3-7.4-4.4
	c-11-6.4-22.6-11.6-34.8-15.6c-3.4-1.1-7-1.8-10.7-2.7c-9.3-2.3-18.7-3.5-28.3-3.6c-6.5,0.4-12.9,0.5-19.2,1.2
	c-4,0.4-7.9,1.6-12.1,2.5c-0.5,0-0.9,0-1.4-0.1c-0.6-0.7-1.1-1.2-1.7-1.8c-1-1-2.3-1.9-2-3.6c4.8-1,9.6-2.1,14.5-3
	c8.7-1.7,17.5-1.8,26.2-1.4c5.4,0.2,10.9,1.1,16.3,1.8c8.1,1,16,3.2,23.8,5.8c10.6,3.5,20.7,8.2,30.4,13.7
	C220.8,115.3,226.2,118.8,231.7,122.3z"/>
<path class="st19" d="M261.6,127.8c0.6-0.1,1.4-0.2,1.8,0.1c2.8,2.4,5.6,4.8,8.2,7.5c33.6,33.5,67.1,67.1,100.7,100.7
	c0.5,0.5,0.9,1,1.5,1.6c-3.5-0.4-7.1-0.9-10.6-1.6c0.4-0.2,0.8-0.3,1.4-0.5c-0.7-0.7-1.2-1.3-1.7-1.8
	c-30.9-30.9-61.8-61.8-92.7-92.6c-2-2-4-3.8-6.1-5.7c-0.3-0.2-0.8-0.2-1.2-0.3c-0.4-1.9-0.7-3.8-1.1-5.6
	C261.8,128.9,261.7,128.4,261.6,127.8z"/>
<path class="st20" d="M127.6,433c-0.6-0.5-1.1-1-1.7-1.5c-22.4-22.4-44.8-44.8-67.2-67.2c-0.5-0.5-1.1-1-1.7-1.6
	c-2.5-2.4-4.8-4.8-7.1-7.4c0.6-0.5,1.3-0.7,1.8-1.1c1-0.9,2-1.8,3.1-2.7c2.4,2.2,4.6,4.5,7,6.8c0.6,0.6,1.1,1.2,1.6,1.7
	c24,24,48,48,72,72c0.5,0.5,1,1.1,1.3,1.7c-2.3-0.3-4.3-0.6-6.4-0.9C129.4,432.9,128.5,433,127.6,433z"/>
<path class="st0" d="M263,135.3c0.4-0.1,0.9-0.1,1.2,0.1c2.1,1.9,4.1,3.7,6.1,5.7c30.9,30.9,61.8,61.8,92.7,92.6
	c0.5,0.5,1,1.1,1.7,1.8c-0.6,0.2-1,0.3-1.5,0.4c-2.1-0.4-4.1-0.8-6.3-1.2c-0.3-0.2-0.4-0.2-0.5-0.3c0,0,0,0,0-0.1
	c-0.4-0.6-0.7-1.1-1.1-1.6c-29.1-29.1-58.2-58.2-87.3-87.2c-0.9-0.9-2.1-1.5-3.1-2.2c0,0,0,0,0-0.1c-0.1-0.3-0.2-0.5-0.3-0.6
	C264,140.1,263.5,137.8,263,135.3z"/>
<path class="st21" d="M207.9,425.6c-0.4,0.6-0.7,1.3-1.2,1.8c-3.9,3.9-7.8,7.9-11.8,11.9c-7.6,7.6-15.1,15-22.5,22.5
	c-1.2,1.2-2.3,2.4-3.5,3.6c-1.5,1.4-2.9,2.9-4.4,4.4c-2.5-2.1-4.9-4.4-7.3-6.9c0-0.3,0-0.4,0.1-0.5c1.5-1.4,2.8-2.7,4.3-4.1
	c0.6-0.6,1.2-1.1,1.7-1.6c12-12,24-24,36-35.9c0.5-0.5,1.1-1,1.8-1.5c0.7,0.5,1.3,0.9,1.8,1.4C204.5,422.3,206.2,424,207.9,425.6z"
	/>
<path class="st12" d="M264.8,143.4c1,0.6,2.2,1.2,3.1,2c29.1,29.1,58.2,58.2,87.3,87.2c0.4,0.4,0.7,1,1.1,1.6
	c-2.4-0.5-4.7-1.1-7.3-1.8c-0.1,0-0.1,0-0.2-0.1c-0.3-0.1-0.5-0.2-0.8-0.2c-0.5-0.3-0.9-0.5-1.4-0.9c-0.5-0.5-0.8-0.9-1.2-1.3
	c-25.2-25.2-50.4-50.4-75.6-75.6c-0.8-0.8-1.6-1.5-2.4-2.3c-0.2-0.4-0.4-0.9-0.7-1.4C266.1,148.3,265.5,145.9,264.8,143.4z"/>
<path class="st15" d="M346.7,231.4c0.4,0.2,0.8,0.5,1.4,0.9c0.4,0.2,0.6,0.2,0.8,0.2c0,0,0,0,0,0c0.2,0.4,0.4,1,0.7,1.3
	c3.7,3.7,7.4,7.4,11.1,11.2c-2.5-0.4-5.1-1-7.7-1.5c-0.9-0.2-1.8-0.4-2.6-0.6c-0.1,0.2-0.2,0.3-0.4,0.5c3.9,3.9,7.8,7.9,11.7,11.8
	c-0.1,0.2-0.1,0.3-0.2,0.5c-2.3-0.5-4.7-0.8-6.9-1.5c-1.6-0.4-2.6-0.2-3.7,1c-8,8.1-16.1,16.1-24.1,24.2c-0.5,0.5-1.1,0.9-1.9,1.3
	c-2.4-2.2-4.6-4.4-6.7-6.7c9.7-9.8,19.3-19.5,29-29.1c0.4-0.4,1-0.8,1.2-1.4c0.2-0.6,0.2-1.5-0.1-1.9c-1.9-2-3.9-3.9-5.9-5.9
	c0-0.1,0-0.3,0.1-0.3C343.9,234.1,345.3,232.7,346.7,231.4z"/>
<path class="st7" d="M104,95.3c-0.2,1.8,1.2,2.6,2.2,3.6c0.5,0.6,1.1,1.1,1.6,1.9c-6.5,2.4-13,4.6-19.4,6.9
	c-1.9,0.7-3.6,1.8-5.5,2.8c-7.9,3.5-15,8-21.9,13c-0.1,0-0.3,0-0.4-0.1c-1.6-1.4-3.9-2.1-3.7-4.8c3.9-2.7,7.8-5.6,11.9-8.1
	c10-6.1,20.6-10.9,31.9-14.3C101.7,96,102.8,95.6,104,95.3z"/>
<path class="st22" d="M-0.3,231.4c0.3-4.9,0.7-9.7,1-14.6c0.5-7.7,2.3-15.2,4.1-22.6c0.4-1.5,0.8-2.9,1.4-4.3
	c1.9,1.2,3.6,2.4,5.3,3.7c0,0.5,0,0.9-0.1,1.4c-0.6,2.1-1.3,4-1.6,6c-1.2,7.8-2.3,15.5-3.5,23.5c0,7.5,0,14.8-0.1,22.1
	c-0.5-0.2-1-0.3-1.3-0.5c-2.5-1.9-5.1-3.6-4.6-7.5c0.3-1.8,0.1-3.7,0-5.5C0.3,232.6-0.1,232-0.3,231.4z"/>
<path class="st8" d="M56.7,118.7c-0.1,2.6,2.2,3.4,3.7,4.9c-3.8,3.4-7.7,6.5-11.5,9.7c-2.7,2.3-5.2,4.9-7.8,7.4
	c-1.2,1.3-2.5,2.4-3.5,3.7c-3.8,5-7.6,10.1-11.5,15.2c-0.9-0.3-1.8-0.6-2.5-1.1c-0.9-0.7-1.7-1.5-2.6-2.3c1.9-3,3.8-6,5.8-8.9
	c4.5-6.4,10-11.8,15.6-17.1C47,126.2,51.9,122.6,56.7,118.7z"/>
<path class="st23" d="M-0.4,231.6c0.3,0.4,0.6,1,0.7,1.5c0.1,1.8,0.2,3.7,0,5.5c-0.5,3.8,2,5.6,4.6,7.5c0.3,0.2,0.8,0.3,1.4,0.6
	c0.4,1.4,0.6,2.7,0.8,4.2c1.4,7.9,2.4,15.7,4.2,23.4c1.5,6.3,3.9,12.3,5.7,18.5c-0.7-0.1-1.5-0.1-1.9-0.4c-1.7-1.5-3.2-3.2-4.8-4.8
	c-0.8-0.9-1.6-1.7-2.5-2.6c0,0,0,0,0-0.1c-0.1-0.2-0.2-0.2-0.3-0.3C5,276.9,2.9,269,1.8,260.9c-0.7-5.7-1.4-11.3-1.8-17
	C-0.3,239.9-0.3,235.8-0.4,231.6z"/>
<path class="st10" d="M7.8,285.2c0.8,0.7,1.6,1.6,2.5,2.4c1.6,1.6,3.2,3.3,4.8,4.8c0.4,0.4,1.2,0.3,2,0.5c4,9.5,8.5,18.6,13.9,27.2
	c1.6,2.6,3.2,5.1,4.8,7.8c-1.4,1.7-2.7,3.2-4.1,4.7c-5.8-8-10.9-16.5-15-25.5C13.3,300.1,10.7,292.6,7.8,285.2z"/>
<path class="st11" d="M21,156.3c1,0.7,1.8,1.6,2.7,2.3c0.7,0.5,1.6,0.7,2.5,1.2c-1.5,3-3.1,5.9-4.7,8.9c-1.3,2.5-2.6,4.9-3.6,7.5
	c-2.2,5.8-4.3,11.6-6.4,17.4c-1.7-1.2-3.4-2.3-5.2-3.6c0.8-2.8,1.3-5.6,2.4-8.2c2.8-6.5,5.8-12.9,8.8-19.4
	C18.4,160.2,19.7,158.3,21,156.3z"/>
<path class="st24" d="M127.7,433.2c0.8-0.1,1.7-0.3,2.6-0.2c2.1,0.2,4.2,0.6,6.5,0.9c1.4,1.1,2.6,2.2,3.8,3.4
	c2.3,2.4,4.4,4.7,6.6,7.1c-0.9,1.1-1.8,2.1-2.7,3.1c-0.4,0.5-0.6,1.2-0.9,1.9c0,0-0.1,0.1-0.1,0.1c-2.3-2.3-4.6-4.5-6.9-6.8
	c-1.5-1.7-3-3.4-4.6-5.1C130.6,436.1,129.2,434.7,127.7,433.2z"/>
<path class="st25" d="M161.4,458.4c-1.4,1.3-2.7,2.7-4.3,4c-0.4,0-0.5,0-0.6,0c-2-2-4.1-4-6.1-6.2c0-0.3,0-0.4,0.1-0.6
	c1.3-1.5,2.6-2.9,4-4.3c0.1,0,0.3,0,0.3,0.1C157,453.8,159.2,456.1,161.4,458.4z"/>
<path class="st26" d="M43.9,348.7c-2.1-2.5-4.2-5.1-6.3-7.9c1.3-1.8,2.7-3.3,4.1-4.9c0.1,0,0.3,0,0.3,0.1c1.4,1.8,2.7,3.6,4,5.2
	c0.6,0.8,1.5,1.4,2.2,2.2c0,0.3,0,0.4-0.1,0.6C46.6,345.7,45.3,347.2,43.9,348.7z"/>
<path class="st27" d="M43.9,348.8c1.3-1.6,2.7-3.1,4.3-4.6c2.3,2.2,4.4,4.4,6.4,6.7c0,0.3,0,0.5,0,0.6c-1,0.9-1.9,1.8-3,2.7
	c-0.5,0.4-1.1,0.7-1.8,1c-0.1,0-0.1,0-0.2-0.1c-0.1-0.2-0.2-0.3-0.3-0.3c0,0,0,0,0-0.1c-0.1-0.2-0.2-0.3-0.3-0.3c0,0,0,0,0-0.1
	c-0.1-0.2-0.2-0.2-0.3-0.3c0,0,0,0,0-0.1c-0.1-0.2-0.2-0.3-0.3-0.4C46.9,352.1,45.4,350.5,43.9,348.8z"/>
<path class="st25" d="M41.6,336c-1.4,1.5-2.7,3.1-4.1,4.7c-2-2.5-3.9-5.2-5.9-7.9c1.3-1.7,2.7-3.2,4.2-4.9c0.3-0.1,0.5-0.1,0.6,0
	c0.3,0.7,0.5,1.4,0.9,1.9C38.7,331.9,40.2,333.9,41.6,336z"/>
<path class="st12" d="M264.5,142.6c0.1,0.1,0.2,0.3,0.3,0.5C264.7,143.1,264.6,142.9,264.5,142.6z"/>
<path class="st20" d="M49.5,355c0.1-0.1,0.2,0,0.3,0.2C49.7,355.3,49.6,355.2,49.5,355z"/>
<path class="st24" d="M156.6,462.5c0-0.1,0.2-0.1,0.4-0.1c0.1,0.1,0.1,0.2,0.1,0.4C156.9,462.9,156.7,462.7,156.6,462.5z"/>
<path class="st24" d="M146.9,452.8c-0.1-0.1-0.2-0.1-0.3-0.3c0-0.1,0.1-0.2,0.1-0.1C146.9,452.5,147,452.6,146.9,452.8
	C146.9,452.8,146.9,452.8,146.9,452.8z"/>
<path class="st24" d="M150.4,455.8c0,0.1,0,0.2-0.1,0.4c-0.2,0-0.3,0-0.4-0.3c0-0.1,0.1-0.2,0.2-0.2
	C150.3,455.7,150.3,455.7,150.4,455.8z"/>
<path class="st24" d="M149.9,455.7c-0.1,0-0.2-0.1-0.3-0.3c0-0.1,0.1-0.2,0.1-0.1c0.2,0.1,0.2,0.2,0.3,0.3
	C150,455.6,149.9,455.7,149.9,455.7z"/>
<path class="st24" d="M149.5,455.4c-0.1,0-0.2-0.1-0.3-0.3c0-0.1,0.1-0.2,0.1-0.1C149.5,455.1,149.6,455.2,149.5,455.4
	C149.6,455.3,149.6,455.4,149.5,455.4z"/>
<path class="st24" d="M149.1,455c-0.1,0-0.2-0.1-0.3-0.3c0-0.1,0.1-0.2,0.1-0.1C149.1,454.7,149.2,454.8,149.1,455
	C149.2,454.9,149.2,455,149.1,455z"/>
<path class="st24" d="M148.8,454.6c-0.1,0-0.2-0.1-0.3-0.3c0-0.1,0.1-0.2,0.1-0.1C148.7,454.4,148.8,454.4,148.8,454.6
	C148.9,454.6,148.8,454.6,148.8,454.6z"/>
<path class="st24" d="M148.4,454.3c-0.1,0-0.2-0.1-0.3-0.3c0-0.1,0.1-0.2,0.1-0.1C148.4,454,148.4,454.1,148.4,454.3
	C148.5,454.2,148.4,454.2,148.4,454.3z"/>
<path class="st24" d="M148,453.9c-0.1,0-0.2-0.1-0.3-0.3c0-0.1,0.1-0.2,0.1-0.1C148,453.6,148.1,453.7,148,453.9
	C148.1,453.8,148.1,453.9,148,453.9z"/>
<path class="st24" d="M147.7,453.5c-0.1,0-0.2-0.1-0.3-0.3c0-0.1,0.1-0.2,0.1-0.1C147.6,453.2,147.7,453.3,147.7,453.5
	C147.8,453.4,147.7,453.5,147.7,453.5z"/>
<path class="st24" d="M147.3,453.2c-0.1,0-0.2-0.1-0.4-0.2c0-0.1,0-0.2,0.1-0.1C147.3,452.9,147.3,453,147.3,453.2
	C147.4,453.1,147.3,453.1,147.3,453.2z"/>
<path class="st0" d="M50.4,369.5c0,0.1-0.1,0.2-0.2,0.4C50.2,369.8,50.2,369.7,50.4,369.5z"/>
<path class="st24" d="M146.5,452.4c-0.1,0-0.2-0.1-0.3-0.3c0-0.1,0.1-0.2,0.1-0.1C146.5,452.1,146.6,452.2,146.5,452.4
	C146.6,452.3,146.6,452.4,146.5,452.4z"/>
<path class="st24" d="M146.2,452c-0.1,0-0.2-0.1-0.3-0.3c0-0.1,0.1-0.2,0.1-0.1C146.1,451.7,146.2,451.8,146.2,452
	C146.3,452,146.2,452,146.2,452z"/>
<path class="st24" d="M145.8,451.7c-0.1,0-0.2-0.1-0.3-0.3c0-0.1,0.1-0.2,0.1-0.1C145.8,451.4,145.8,451.5,145.8,451.7
	C145.9,451.6,145.8,451.6,145.8,451.7z"/>
<path class="st24" d="M145.4,451.3c-0.1,0-0.2-0.1-0.3-0.3c0-0.1,0.1-0.2,0.1-0.1C145.4,451,145.5,451.1,145.4,451.3
	C145.5,451.2,145.5,451.3,145.4,451.3z"/>
<path class="st24" d="M145.1,450.9c-0.1,0-0.2-0.1-0.3-0.3c0-0.1,0.1-0.2,0.1-0.1C145,450.6,145.1,450.7,145.1,450.9
	C145.1,450.8,145.1,450.9,145.1,450.9z"/>
<path class="st24" d="M144.7,450.6c-0.1,0-0.2-0.1-0.3-0.3c0-0.1,0.1-0.2,0.1-0.1C144.7,450.3,144.7,450.4,144.7,450.6
	C144.8,450.5,144.7,450.5,144.7,450.6z"/>
<path class="st24" d="M144.3,450.2c-0.1,0-0.2-0.1-0.3-0.3c0-0.1,0.1-0.2,0.1-0.1C144.3,449.9,144.4,450,144.3,450.2
	C144.4,450.1,144.3,450.2,144.3,450.2z"/>
<path class="st24" d="M143.9,449.8c-0.2,0-0.3,0-0.4-0.2c0-0.1,0.1-0.2,0.2-0.1C143.9,449.5,144,449.6,143.9,449.8
	C144,449.7,144,449.8,143.9,449.8z"/>
<path class="st15" d="M363.4,247.7c-0.1,0-0.2,0-0.3-0.2C363.2,247.5,363.3,247.5,363.4,247.7z"/>
<path class="st15" d="M366.8,251c-0.1,0-0.2,0-0.3-0.2C366.5,250.8,366.7,250.9,366.8,251z"/>
<path class="st15" d="M366.4,250.7c-0.1,0-0.2,0-0.3-0.2C366.2,250.4,366.3,250.5,366.4,250.7z"/>
<path class="st15" d="M366.1,250.3c-0.1,0-0.2,0-0.3-0.2C365.8,250.1,365.9,250.1,366.1,250.3z"/>
<path class="st15" d="M365.7,249.9c-0.1,0-0.2,0-0.3-0.2C365.4,249.7,365.5,249.8,365.7,249.9z"/>
<path class="st15" d="M365.3,249.5c-0.1,0-0.2,0-0.3-0.2C365.1,249.3,365.2,249.4,365.3,249.5z"/>
<path class="st15" d="M364.9,249.2c-0.1,0-0.2,0-0.3-0.2C364.7,248.9,364.8,249,364.9,249.2z"/>
<path class="st15" d="M364.6,248.8c-0.1,0-0.2,0-0.3-0.2C364.3,248.6,364.4,248.6,364.6,248.8z"/>
<path class="st15" d="M364.2,248.4c-0.1,0-0.2,0-0.3-0.2C363.9,248.2,364.1,248.3,364.2,248.4z"/>
<path class="st15" d="M363.8,248.1c-0.1,0-0.2,0-0.3-0.2C363.6,247.8,363.7,247.9,363.8,248.1z"/>
<path class="st15" d="M367.2,251.4c-0.1,0-0.2,0-0.3-0.2C366.9,251.2,367,251.2,367.2,251.4z"/>
<path class="st15" d="M363.1,247.3c-0.1,0-0.2,0-0.3-0.2C362.8,247.1,362.9,247.2,363.1,247.3z"/>
<path class="st15" d="M362.7,246.9c-0.1,0-0.2,0-0.3-0.2C362.5,246.7,362.6,246.8,362.7,246.9z"/>
<path class="st15" d="M362.3,246.6c-0.1,0-0.2,0-0.3-0.2C362.1,246.3,362.2,246.4,362.3,246.6z"/>
<path class="st15" d="M362,246.2c-0.1,0-0.2,0-0.3-0.2C361.7,246,361.8,246,362,246.2z"/>
<path class="st15" d="M361.6,245.8c-0.1,0-0.2,0-0.3-0.2C361.3,245.6,361.5,245.7,361.6,245.8z"/>
<path class="st15" d="M361.2,245.5c-0.1,0-0.2,0-0.3-0.2C361,245.2,361.1,245.3,361.2,245.5z"/>
<path class="st12" d="M356.4,234.5c0.1-0.1,0.2,0,0.3,0.1C356.6,234.7,356.5,234.6,356.4,234.5z"/>
<path class="st13" d="M256,140.9c-0.1,0-0.2,0-0.3-0.2C255.7,140.7,255.8,140.7,256,140.9z"/>
<path class="st13" d="M255.6,140.5c-0.1,0-0.2-0.1-0.3-0.2C255.3,140.3,255.4,140.3,255.6,140.5z"/>
<path class="st15" d="M370.5,254.8c-0.1,0-0.2,0-0.3-0.2C370.3,254.5,370.4,254.6,370.5,254.8z"/>
<path class="st20" d="M48.7,354.3c0.1-0.1,0.2,0,0.3,0.2C48.9,354.6,48.8,354.5,48.7,354.3z"/>
<path class="st20" d="M48.4,353.8c0.1,0,0.2,0.1,0.3,0.2C48.6,354.1,48.5,354,48.4,353.8z"/>
<path class="st10" d="M7.5,284.7c0.1,0,0.2,0.1,0.3,0.2C7.6,285,7.5,284.9,7.5,284.7z"/>
<path class="st15" d="M372.8,257c-0.1,0-0.2,0-0.3-0.2C372.5,256.8,372.6,256.8,372.8,257z"/>
<path class="st15" d="M372.4,256.6c-0.1,0-0.2,0-0.3-0.2C372.1,256.4,372.2,256.4,372.4,256.6z"/>
<path class="st15" d="M372,256.2c-0.1,0-0.2,0-0.3-0.2C371.8,256,371.9,256.1,372,256.2z"/>
<path class="st15" d="M371.6,255.9c-0.1,0-0.2,0-0.3-0.2C371.4,255.6,371.5,255.7,371.6,255.9z"/>
<path class="st15" d="M371.3,255.5c-0.1,0-0.2,0-0.3-0.2C371,255.3,371.1,255.3,371.3,255.5z"/>
<path class="st15" d="M370.9,255.1c-0.1,0-0.2,0-0.3-0.2C370.6,254.9,370.8,255,370.9,255.1z"/>
<path class="st20" d="M49.1,354.7c0.1-0.1,0.2,0,0.3,0.2C49.3,354.9,49.2,354.8,49.1,354.7z"/>
<path class="st15" d="M370.1,254.4c-0.1,0-0.2,0-0.3-0.2C369.9,254.2,370,254.2,370.1,254.4z"/>
<path class="st15" d="M369.8,254c-0.1,0-0.2,0-0.3-0.2C369.5,253.8,369.6,253.8,369.8,254z"/>
<path class="st15" d="M369.4,253.6c-0.1,0-0.2,0-0.3-0.2C369.2,253.4,369.3,253.5,369.4,253.6z"/>
<path class="st15" d="M369,253.3c-0.1,0-0.2,0-0.3-0.2C368.8,253,368.9,253.1,369,253.3z"/>
<path class="st15" d="M368.7,252.9c-0.1,0-0.2,0-0.3-0.2C368.4,252.7,368.5,252.7,368.7,252.9z"/>
<path class="st15" d="M368.3,252.5c-0.1,0-0.2,0-0.3-0.2C368,252.3,368.1,252.4,368.3,252.5z"/>
<path class="st15" d="M367.9,252.1c-0.1,0-0.2,0-0.3-0.2C367.7,251.9,367.8,252,367.9,252.1z"/>
<path class="st15" d="M367.5,251.8c-0.1,0-0.2,0-0.3-0.2C367.3,251.6,367.4,251.6,367.5,251.8z"/>
<path class="st26" d="M267.9,366.4c-1.7,1.7-3.4,3.3-5,4.9c-6.4,6.3-12.7,12.6-19.3,18.9c-2.4-2.2-4.5-4.4-6.7-6.7
	c0.4-0.6,0.8-1.2,1.3-1.7c10.9-10.9,21.8-21.8,32.6-32.6c0.4-0.4,0.9-0.8,1.5-1.2c2.3,2.3,4.4,4.5,6.6,6.7c-0.4,0.6-0.8,1.3-1.3,1.8
	C274.5,359.7,271.2,363,267.9,366.4z"/>
<path class="st28" d="M279.1,354.6c-2.3-2.2-4.4-4.4-6.7-6.7c0.2-0.4,0.3-0.6,0.6-0.9c11.2-11.2,22.3-22.3,33.5-33.5
	c0.3-0.3,0.8-0.6,1.1-1c1.1,0.9,2.2,1.8,3.2,2.7c1.3,1.2,2.6,2.4,4.1,3.6c0.1,0,0.1,0.2,0.1,0.3c-3.8,3.8-7.6,7.5-11.3,11.3
	c-2.3,2.3-4.5,4.6-6.8,7c-1.2,1.2-2.3,2.2-3.4,3.3C288.7,345.2,284,349.9,279.1,354.6z"/>
<path d="M284.6,380.7c0.1-0.1,0.3,0,0.5,0C284.9,380.7,284.8,380.8,284.6,380.7z"/>
<path class="st25" d="M236.9,383.5c2.2,2.2,4.3,4.4,6.6,6.7c-0.2,0.5-0.6,0.9-1,1.4c-0.9,0.9-1.7,1.6-2.5,2.4
	c-8.1,8.1-16.1,16.2-24.3,24.4c-2.6,2.4-5.1,4.7-7.8,7.1c-1.8-1.6-3.5-3.2-5.2-4.9c-0.5-0.5-1.1-0.9-1.8-1.5c-0.1-0.1-0.1-0.3,0-0.4
	c11.7-11.7,23.3-23.2,34.9-34.8c0.1-0.1,0.2-0.3,0.4-0.5C236.6,383.6,236.8,383.6,236.9,383.5z"/>
<path d="M223.3,424.3c0.2,0.1,0.2,0.3,0.2,0.5C223.5,424.7,223.3,424.6,223.3,424.3z"/>
<path class="st29" d="M237,383.4c-0.2,0.1-0.3,0.2-0.8,0.2c-0.7,0.1-1.3,0-1.5,0.3c-1.5,1.9-2.5,0.8-3.7-0.4c-1.4-1.4-3-2.7-4.4-4.1
	c7.4-7.5,14.7-14.8,22-22.2c1.2-1.2,2.4-2.5,3.7-3.8c10.1-10,20-19.9,30-29.8c1.4-1.4,3-2.7,4.5-4.2c4.9-4.8,9.7-9.5,14.5-14.3
	c2.2,2.2,4.4,4.4,6.6,6.6c0,0.3-0.1,0.5-0.3,0.7c-0.4,0.4-0.8,0.7-1.2,1c-11.2,11.2-22.3,22.3-33.5,33.5c-0.2,0.2-0.4,0.5-0.7,0.8
	c-0.5,0.5-1,0.9-1.4,1.3c-10.9,10.9-21.8,21.8-32.6,32.6C237.8,382.2,237.4,382.8,237,383.4z"/>
<path class="st30" d="M301.3,305c-4.9,4.9-9.7,9.7-14.5,14.4c-1.5,1.4-3,2.7-4.5,4.2c-10,9.9-19.9,19.9-30,29.7
	c-0.3-0.8-0.4-1.6-0.8-2.1c-1.7-1.8-3.5-3.5-5.2-5.3c0.6-0.6,1.1-1.2,1.6-1.7c11.1-11.1,22.2-22.2,33.3-33.3c0.5-0.5,1-1.1,1.6-1.7
	c0.6-0.6,1.2-1.1,1.7-1.6c10.6-10.6,21.2-21.2,31.9-31.8c0.5-0.5,1.1-1,1.7-1.5c2.2,2.2,4.4,4.3,6.6,6.6c-4,4.2-8,8.3-12,12.4
	C308.9,297,305.1,300.9,301.3,305z"/>
<path class="st29" d="M194.1,197.5c-1.9,2.2-3.9,4.3-6,6.7c-0.9,0.8-1.6,1.3-2.3,1.9c-12.4,12.4-24.8,24.8-37.2,37.2
	c-0.5,0.5-0.9,1-1.5,1.6c-6.3,6.2-12.4,12.3-18.6,18.5c-1.9,1.9-3.9,3.8-5.9,5.6c-1.1-1-2.2-2-3.1-3c-1.2-1.3-2.3-2.7-3.4-4.1
	c0.6-0.6,1.1-1.2,1.6-1.7c10.6-10.6,21.2-21.2,31.9-31.9c0.5-0.5,1-1.1,1.6-1.7c10-9.9,19.8-19.8,29.7-29.6c0.1-0.1,0.2-0.3,0.4-0.5
	c2.1-2,4.2-4,6.2-5.9c1.1,1.2,2.1,2.5,3.2,3.7C191.7,195.3,192.9,196.4,194.1,197.5z"/>
<path class="st16" d="M187.5,190.4c-2.1,2.1-4.1,4-6.3,5.9c-1.2-1.1-2.3-2.2-3.3-3.3c-1-1.2-2-2.4-3-3.7c3.6-3.8,7.2-7.4,10.8-11.1
	c4.4-4.4,8.6-8.7,13-13c5.6-5.6,11.1-11.1,16.7-16.7c2.4-2.3,4.7-4.6,7-6.8c1-0.9,1.1-1.9,0.9-3.2c-0.7-4.9-1.2-9.9-1.7-14.9
	c3.4,2.2,6.8,4.4,10.3,6.6c0.7,4,1.3,7.9,2,11.7c0.2,1.2,0,1.9-0.9,2.8c-14.7,14.6-29.3,29.2-43.9,43.9
	C188.7,189.1,188.1,189.7,187.5,190.4z"/>
<path class="st31" d="M168.9,465.5c1.1-1.3,2.2-2.6,3.4-3.7c7.5-7.4,14.9-14.9,22.5-22.4c1,0.3,2,0.6,2.6,1.2
	c6,5.9,11.9,11.9,17.9,17.8c1.8,1.8,2.1,3,0.4,4.9c-1.8,2.2-3.7,4.2-5.9,6c-3.8,3.1-8.3,4.9-13.1,5.6c-10.6,1.4-19.5-2-27.4-8.9
	C169.2,466,169.1,465.8,168.9,465.5z"/>
<path class="st32" d="M342.2,235.5c0,0,0,0.2-0.1,0.3C340,238,338,240,336,242c-3.9,3.8-7.7,7.6-11.7,11.4c-1.5,0.6-2.4-0.1-3.3-1
	c-24.9-24.9-49.8-49.8-74.7-74.8c-0.6-0.6-1.2-1.1-1.7-1.7c0.9-1.1,1.7-2.1,2.6-3.1c4-4.1,8.1-8.1,12.1-12.2c1.3-1.3,2.6-2.7,3.8-4
	c0,0,0.2,0,0.3,0.1c0.4,0.4,0.7,0.8,1,1.1c25.5,25.5,51.1,51.1,76.6,76.6C341.4,234.8,341.8,235.2,342.2,235.5z"/>
<path class="st33" d="M262.9,156.5c-1.2,1.4-2.5,2.8-3.8,4.1c-4,4.1-8.1,8.1-12.1,12.2c-0.9,0.9-1.7,2-2.7,3.1
	c-2.6,2.4-5,4.6-7.3,6.9c-5.2,5.2-10.4,10.4-15.6,15.6c-0.5,0.5-0.8,1.2-1.4,1.8c-3.9,3.7-7.7,7.3-11.3,10.9
	c-3.6,3.6-7.1,7.3-10.7,11c-0.3,0.3-0.8,0.5-1.3,0.6c-2.3-2.3-4.4-4.4-6.6-6.7c1.4-1.5,2.7-2.9,4-4.4c0.6-0.5,1.2-1,1.8-1.6
	c19.6-19.6,39.1-39.1,58.7-58.7c1.3-1.3,2.1-1.5,3.3,0C259.5,153.2,261.2,154.7,262.9,156.5z"/>
<path class="st34" d="M342.3,235.5c-0.5-0.3-1-0.6-1.4-1c-25.5-25.5-51.1-51.1-76.6-76.6c-0.3-0.3-0.6-0.6-0.9-1.1
	c1.3-1.5,2.7-2.9,4-4.5c0.8,0.6,1.6,1.4,2.4,2.2c25.2,25.2,50.4,50.4,75.6,75.6c0.4,0.4,0.8,0.8,1.2,1.3
	C345.3,232.7,343.9,234.1,342.3,235.5z"/>
<path class="st30" d="M194.2,211.6c-1.3,1.6-2.7,3-4.1,4.6c-0.7,0.7-1.3,1.2-1.8,1.7c-11,11-22,22-33,33c-0.5,0.5-1.1,1-1.7,1.4
	c-0.6-0.8-1-1.5-1.6-2.1c-1.5-1.8-3.1-3.5-4.6-5.2c0.4-0.5,0.9-1,1.3-1.5c12.4-12.4,24.8-24.8,37.2-37.2c0.6-0.6,1.4-1.2,2.3-1.8
	c1.8,1.7,3.5,3.3,5,5.1C193.6,209.9,193.8,210.7,194.2,211.6z"/>
<path d="M344.3,334.2c0.2,0,0.4,0.1,0.5,0.2C344.6,334.4,344.4,334.4,344.3,334.2z"/>
<path class="st11" d="M185.6,178.2c-3.6,3.6-7.1,7.3-10.8,11.1c-2.5,2.4-4.7,4.6-7,6.6c-0.6-0.8-1.1-1.5-1.7-2.1
	c-27.2-27.2-54.4-54.4-81.5-81.6c-0.6-0.6-1.1-1.2-1.6-1.8c1.8-0.9,3.5-2.1,5.4-2.8c6.4-2.3,12.9-4.5,19.5-6.8
	c0.5-0.1,0.9-0.1,1.5,0c0.7,0.8,1.2,1.5,1.8,2.1c24.2,24.2,48.5,48.5,72.7,72.7C184.4,176.5,185,177.4,185.6,178.2z"/>
<path class="st17" d="M185.7,178.2c-0.7-0.8-1.3-1.7-2-2.4c-24.2-24.2-48.5-48.5-72.7-72.7c-0.6-0.6-1.1-1.3-1.7-2.1
	c3.9-1,7.9-2.2,11.9-2.6c6.3-0.7,12.7-0.8,19.2-1.1c0.7,0.9,1.1,1.7,1.7,2.3c19.4,19.5,38.9,38.9,58.4,58.4c1.9,1.9,1.8,2,0,4
	c-0.8,0.9-1.3,2.1-1.9,3.2C194.4,169.5,190.1,173.8,185.7,178.2z"/>
<path class="st8" d="M198.7,165.1c0.5-1,1-2.2,1.8-3.1c1.8-2,1.9-2.1,0-4c-19.5-19.5-38.9-38.9-58.4-58.4c-0.6-0.6-1.1-1.5-1.6-2.3
	c9.5,0,18.8,1.1,28.2,3.6c0.6,0.8,1.1,1.5,1.6,2.1c14.5,14.5,29,29,43.5,43.5c0.6,0.6,1,1.4,1.5,2
	C209.9,154,204.4,159.5,198.7,165.1z"/>
<path class="st7" d="M215.5,148.4c-0.6-0.6-1-1.4-1.6-2c-14.5-14.5-29-29-43.5-43.5c-0.6-0.6-1-1.2-1.5-2c3.5,0.7,7.1,1.4,10.5,2.5
	c12.1,3.9,23.7,9.1,34.8,15.6c2.5,1.4,4.9,2.9,7.4,4.4c0.6,5.1,1.1,10,1.8,15c0.2,1.3,0,2.2-0.9,3.2
	C220.1,143.8,217.9,146.1,215.5,148.4z"/>
<path class="st35" d="M140.6,437.2c-1.2-1.1-2.3-2.2-3.6-3.3c-0.6-0.6-1.1-1.2-1.6-1.7c-24-24-48-48-72-72c-0.5-0.5-1-1.1-1.5-1.8
	c0.6-0.7,1.1-1.2,1.7-1.7c11.9-11.9,23.7-23.7,35.6-35.6c0.5-0.5,1.1-1,1.7-1.4c0.6,0.6,1.1,1.2,1.6,1.7
	c24.9,24.9,49.8,49.8,74.7,74.7c0.7,0.7,1.4,1.5,2.1,2.4c-0.3,0.3-0.5,0.6-0.7,0.8c-12.3,12.3-24.6,24.6-36.8,36.8
	C141.4,436.6,141,436.9,140.6,437.2z"/>
<path class="st36" d="M100.8,319.6c-0.6,0.5-1.1,1-1.7,1.5c-11.9,11.9-23.7,23.7-35.6,35.6c-0.5,0.5-1.1,1-1.7,1.6
	c-2.4-2.2-4.6-4.4-7-6.6c-0.1-0.2-0.1-0.4,0-0.7c0.6-0.6,1.2-0.9,1.7-1.4c10.2-10.1,20.3-20.3,30.4-30.4c0.4-0.4,0.8-0.9,1.3-1.5
	c0.6-0.6,1.2-1.1,1.7-1.6c18.6-18.6,37.3-37.3,55.9-55.9c0.6-0.6,1.2-1.1,1.8-1.5c0.9,1.4,1.7,2.8,2.8,3.9c3.1,3.3,3.1,2.4,0.1,5.6
	c-0.7,0.7-0.9,1.7-1.5,2.7c-2.3,2.3-4.4,4.4-6.7,6.7c-0.5,0.6-0.9,1.1-1.4,1.6c-10.8,10.8-21.6,21.6-32.4,32.4
	c-0.5,0.5-1.1,0.8-1.5,1.3C104.9,315.2,102.8,317.4,100.8,319.6z"/>
<path class="st37" d="M200.9,418.9c0,0,0,0.2,0,0.3c-0.6,0.6-1.1,1-1.7,1.6c-12,12-24,24-36,35.9c-0.5,0.5-1.1,1-1.7,1.6
	c-2.3-2.2-4.5-4.5-6.7-7c0.2-0.5,0.4-0.7,0.6-0.9c12.4-12.4,24.8-24.8,37.2-37.2c0.3-0.3,0.8-0.6,1.2-0.9
	C196.3,414.6,198.6,416.8,200.9,418.9z"/>
<path d="M348.9,232.4c-0.2,0.1-0.4,0.1-0.7-0.1C348.4,232.3,348.6,232.3,348.9,232.4z"/>
<path class="st33" d="M324.4,253.4c3.9-3.8,7.7-7.6,11.6-11.4c2-2,4-4,6.2-6c2.1,1.9,4.1,3.8,6,5.8c0.3,0.4,0.3,1.3,0.1,1.9
	c-0.2,0.5-0.8,0.9-1.2,1.4c-9.6,9.7-19.3,19.3-29,29.1c-0.6,0.6-1.2,1.1-1.7,1.6c-10.6,10.6-21.2,21.2-31.9,31.8
	c-0.5,0.5-1.1,1-1.8,1.5c-0.8-0.5-1.3-1-1.8-1.5c-1.9-1.6-3.7-3.1-5.5-4.8c7.1-7.2,14.1-14.2,21.2-21.3c1.1-1.1,2.2-2.3,3.4-3.6
	c7.1-7,14-13.9,21-20.9C322.1,255.8,323.2,254.6,324.4,253.4z"/>
<path class="st23" d="M41.3,140.6c2.6-2.5,5.1-5,7.7-7.4c3.7-3.3,7.6-6.4,11.5-9.6c0.1-0.1,0.2-0.1,0.4,0c1.2,1.2,2.4,2.4,3.5,3.5
	c7.9,7.9,15.8,15.8,23.7,23.7c4.9,4.9,9.7,9.7,14.6,14.6c4,4,8,8,12,12c2.8,2.9,5.5,5.8,8.4,8.6c4.9,4.8,9.8,9.6,14.6,14.4
	c0.5,0.5,0.9,1,1.4,1.5c2,2,4.1,4.1,6.1,6.1c1.7,1.8,3.4,3.7,5.1,5.6c-1.9,2-3.7,3.9-5.6,5.9c-0.6,0.6-1.2,1.1-1.7,1.6
	c-3.5,3.4-7,6.8-10.6,10.2c-0.7-0.6-1.3-1.2-1.9-1.7c-29.1-29.1-58.3-58.3-87.4-87.4C42.5,141.7,41.9,141.2,41.3,140.6z"/>
<path class="st22" d="M150.3,213.6c-1.7-1.8-3.4-3.7-5.1-5.5c-2-2.1-4.1-4.1-6.1-6.1c-0.5-0.5-0.9-1-1.4-1.5
	c-4.9-4.8-9.8-9.6-14.6-14.4c-2.8-2.8-5.6-5.8-8.4-8.6c-4-4-8-8-12-12c-4.9-4.9-9.7-9.7-14.6-14.6c-7.9-7.9-15.8-15.8-23.7-23.7
	c-1.1-1.1-2.3-2.3-3.4-3.5c6.8-5.1,13.9-9.6,21.8-13.1c0.7,0.6,1.2,1.2,1.7,1.8c27.2,27.2,54.4,54.4,81.5,81.6
	c0.6,0.6,1.1,1.3,1.6,2.2c-1.9,2.1-3.7,4-5.5,5.8C158.2,205.8,154.2,209.7,150.3,213.6z"/>
<path class="st9" d="M11.5,193.6c2.1-5.9,4.2-11.8,6.4-17.5c1-2.5,2.3-4.9,3.7-7.4c1,0.6,1.8,1.1,2.5,1.8c27.5,27.5,55,55,82.5,82.5
	c0.7,0.7,1.3,1.5,1.9,2.3c-2.3,2.4-4.6,4.7-6.8,7c-3.8,3.7-7.6,7.5-11.4,11.1c-0.2-0.3-0.4-0.5-0.5-0.7
	c-25.6-25.6-51.2-51.2-76.8-76.8c-0.4-0.4-1-0.7-1.5-1C11.5,194.6,11.5,194.2,11.5,193.6z"/>
<path class="st38" d="M11.4,195.1c0.6,0.2,1.2,0.5,1.6,0.9c25.6,25.6,51.2,51.2,76.8,76.8c0.2,0.2,0.3,0.4,0.5,0.8
	c-1.2,1.4-2.3,2.6-3.5,3.8c-4.4,4.4-8.8,8.9-13.2,13.3c-0.1,0-0.3,0-0.3-0.1c-0.5-0.7-0.8-1.3-1.3-1.7
	c-21.1-21.1-42.2-42.3-63.4-63.4c-0.5-0.5-1.5-0.7-2.2-1c1.2-7.8,2.3-15.5,3.5-23.3C10.1,199.1,10.8,197.1,11.4,195.1z"/>
<path class="st14" d="M6.3,224.5c0.8,0.2,1.7,0.3,2.3,0.8c21.2,21.1,42.3,42.2,63.4,63.4c0.5,0.5,0.8,1.1,1.2,1.9
	c-4.3,4.5-8.6,8.8-13,12.9c-0.5-0.7-0.9-1.4-1.4-1.9C42.2,285,25.6,268.4,9,251.9c-0.5-0.5-1.3-0.8-2-1.1c-0.2-1.3-0.4-2.6-0.6-4
	C6.3,239.3,6.3,232,6.3,224.5z"/>
<path class="st10" d="M108.6,255.2c-0.7-0.7-1.3-1.5-2-2.2c-27.5-27.5-55-55-82.5-82.5c-0.7-0.7-1.5-1.2-2.4-1.9
	c1.5-3,3-5.9,4.7-8.9c3.8-5.2,7.6-10.3,11.4-15.3c1-1.3,2.2-2.4,3.5-3.7c0.7,0.5,1.3,1,1.9,1.6c29.1,29.1,58.3,58.3,87.4,87.4
	c0.6,0.6,1.2,1.1,1.8,1.8c-6,6.3-12.1,12.3-18.1,18.4c-1.7,1.8-3.4,3.5-5.2,5.3C108.8,255.2,108.6,255.2,108.6,255.2z"/>
<path class="st31" d="M7,250.9c0.7,0.2,1.5,0.4,2,0.9c16.6,16.6,33.2,33.1,49.8,49.7c0.5,0.5,0.9,1.2,1.3,2
	c-7.2,7.4-14.4,14.7-21.6,21.9c-0.7,0.7-1.4,1.5-2.1,2.3c-0.2,0-0.3,0-0.6,0c-1.7-2.6-3.3-5.1-4.9-7.7c-5.3-8.6-9.9-17.7-13.8-27.2
	c-2.1-6.2-4.5-12.3-5.9-18.6C9.4,266.7,8.4,258.9,7,250.9z"/>
<path class="st36" d="M140.7,437.3c0.3-0.4,0.7-0.7,1.1-1.1c12.3-12.3,24.6-24.6,36.8-36.8c0.2-0.2,0.4-0.5,0.8-0.9
	c0.7-0.7,1.3-1.2,1.8-1.7c11-11,22-22,33-33c0.5-0.5,1.1-1,1.8-1.5c1.9,0.4,2.8-0.9,3.9-2c2.1-2.1,2.1-2.1,4.3,0
	c1.3,1.2,2.2,3.1,4.3,3.2c-6,6.1-11.9,12-17.9,18c-1.7,1.8-3.4,3.6-5.3,5.4c-0.3,0.3-0.6,0.5-0.8,0.7c-18.5,18.5-37,37-55.5,55.4
	c-0.3,0.3-0.6,0.8-1.1,1.1c-0.3,0-0.4,0-0.6,0C145.1,441.9,142.9,439.7,140.7,437.3z"/>
<path class="st37" d="M147.3,444.3c0.2-0.1,0.3-0.1,0.7,0c0.6,0.7,1,1.3,1.5,1.8c1.6,1.7,3.3,3.4,4.9,5.1c-1.3,1.4-2.6,2.8-3.9,4.3
	c-0.1,0.1-0.2,0.1-0.4,0c-0.2-0.1-0.2-0.2-0.4-0.3c-0.1-0.2-0.2-0.2-0.4-0.4c-0.1-0.2-0.2-0.3-0.4-0.4c-0.1-0.2-0.2-0.3-0.4-0.4
	c-0.1-0.2-0.2-0.3-0.4-0.4c-0.1-0.2-0.2-0.3-0.4-0.4c-0.1-0.2-0.2-0.3-0.4-0.4c-0.1-0.2-0.2-0.3-0.4-0.4c-0.1-0.2-0.2-0.3-0.4-0.4
	c-0.1-0.2-0.2-0.3-0.4-0.4c-0.1-0.2-0.2-0.3-0.4-0.4c-0.1-0.2-0.2-0.3-0.4-0.4c-0.1-0.2-0.2-0.3-0.4-0.4c-0.1-0.2-0.2-0.3-0.4-0.4
	c-0.1-0.2-0.2-0.3-0.4-0.4c-0.1-0.2-0.2-0.3-0.4-0.4c-0.1-0.2-0.2-0.2-0.3-0.4c0.2-0.7,0.4-1.4,0.8-1.9
	C145.4,446.4,146.4,445.5,147.3,444.3z"/>
<path class="st24" d="M154.5,451.3c-1.7-1.7-3.4-3.4-5-5.1c-0.5-0.5-0.9-1.1-1.4-1.8c0.3-0.5,0.6-0.9,0.9-1.3
	c18.5-18.5,37-37,55.5-55.4c0.2-0.2,0.5-0.4,0.9-0.6c2.2,2.3,4.3,4.6,6.3,7c-2.8,2.8-5.5,5.6-8.2,8.3c-3.2,3.3-6.4,6.5-9.6,9.8
	c-0.4,0.3-0.8,0.6-1.1,1c-12.4,12.4-24.8,24.8-37.2,37.2c-0.2,0.2-0.4,0.5-0.7,0.8C154.7,451.3,154.5,451.3,154.5,451.3z"/>
<path class="st37" d="M48.3,343.4c-0.7-0.7-1.6-1.3-2.2-2.1c-1.4-1.7-2.7-3.4-4-5.3c0.5-0.8,1-1.3,1.5-1.8
	c11.6-11.6,23.2-23.2,34.8-34.8c0.5-0.5,1-1.1,1.6-1.6c0.1,0,0.3,0,0.3,0.1c2.2,2.4,4.5,4.7,6.6,7c-0.2,0.4-0.3,0.7-0.5,1
	c-0.7,0.5-1.4,1-2,1.6c-11.5,11.5-23,23-34.4,34.4C49.5,342.4,48.9,342.9,48.3,343.4z"/>
<path class="st24" d="M48.3,343.5c0.6-0.6,1.2-1.1,1.8-1.7c11.5-11.5,23-23,34.4-34.4c0.6-0.6,1.2-1,2.1-1.5
	c1.6,1.4,3.1,2.8,4.5,4.2c1.7,1.7,1.6,1.6,0.1,3.4c-1.1,1.3-2,2.8-3,4.2c-0.4,0.5-0.8,1-1.2,1.4c-10.1,10.1-20.3,20.3-30.4,30.4
	c-0.5,0.5-1,0.8-1.7,1.3c-2.2-2.2-4.3-4.4-6.4-6.6C48.3,344,48.3,343.8,48.3,343.5z"/>
<path class="st21" d="M80,297.7c-0.5,0.6-1,1.1-1.5,1.6c-11.6,11.6-23.2,23.2-34.8,34.8c-0.5,0.5-1,1.1-1.6,1.7
	c-0.1,0.1-0.2,0.1-0.3,0.1c-1.5-2-3-4.1-4.4-6.1c-0.4-0.5-0.6-1.2-0.9-1.9c0.7-0.9,1.4-1.7,2.1-2.4c7.2-7.2,14.4-14.5,21.6-21.8
	c4.4-4.4,8.7-8.6,13-13c0.1-0.1,0.2-0.1,0.4,0C75.8,293.1,77.9,295.4,80,297.7z"/>
<path class="st27" d="M193.9,412.3c3.1-3.3,6.3-6.6,9.5-9.9c2.7-2.7,5.4-5.5,8.3-8.4c1.1-1,1.9-1.9,2.8-2.7c4-3.9,8-7.9,12-11.8
	c1.5,1.3,3.1,2.6,4.5,4c1.2,1.2,2.2,2.3,3.7,0.4c0.2-0.3,0.8-0.2,1.4-0.3c0,0.2,0,0.3-0.2,0.5c-11.6,11.6-23.2,23.2-34.9,34.8
	C198.6,416.8,196.3,414.6,193.9,412.3z"/>
<path class="st20" d="M226.6,379.4c-4.1,4-8.1,8-12.1,11.9c-0.9,0.9-1.8,1.7-2.8,2.6c-2.2-2.2-4.2-4.5-6.4-6.9
	c1.7-1.9,3.4-3.7,5.1-5.4c5.9-6,11.9-11.9,18-18.1c2.2-2.2,4.2-4.1,6.2-6.1c3.9-3.8,7.7-7.6,11.6-11.4c1.8,1.7,3.6,3.4,5.3,5.2
	c0.4,0.5,0.5,1.3,0.7,2.1c-1.2,1.4-2.4,2.7-3.6,3.9C241.3,364.6,234,371.9,226.6,379.4z"/>
<path class="st39" d="M246.3,345.9c-3.9,3.9-7.8,7.7-11.6,11.5c-2,2-4,4-6.2,6c-2.3,0-3.2-1.8-4.5-3c-2.2-2.1-2.1-2.1-4.3,0
	c-1,1-1.9,2.3-3.8,1.9c1.7-2,3.5-3.9,5.5-5.9c0.3-0.3,0.6-0.5,0.8-0.7c11.9-11.9,23.8-23.8,35.7-35.7c0.3-0.3,0.6-0.8,1.1-1.2
	c1.3-1.2,2.5-2.4,3.7-3.6c4.2-4.1,8.4-8.3,12.6-12.4c1.9,1.6,3.7,3.1,5.6,4.7c0.6,0.5,1.1,1,1.7,1.6c-0.4,0.6-0.8,1.2-1.4,1.7
	c-11.1,11.1-22.2,22.2-33.3,33.3C247.4,344.7,246.9,345.3,246.3,345.9z"/>
<path class="st20" d="M88.2,317.7c0.9-1.4,1.7-2.9,2.9-4.2c1.6-1.8,1.7-1.7-0.1-3.4c-1.4-1.4-2.8-2.8-4.3-4.2c0-0.4,0.1-0.7,0.4-1.1
	c10.1-10.1,20.1-20.1,30.1-30c1.9-1.9,3.7-3.8,5.6-5.7c1.9-1.9,3.9-3.8,5.8-5.7c6.2-6.1,12.3-12.3,18.6-18.5
	c1.7,1.7,3.2,3.4,4.7,5.2c0.6,0.6,1,1.4,1.5,2.2c-1.9,2.2-3.9,4.3-5.8,6.3c-0.6,0.5-1.2,1-1.8,1.6c-18.6,18.6-37.3,37.3-55.9,55.9
	C89.4,316.6,88.9,317.1,88.2,317.7z"/>
<path class="st27" d="M122.6,268.9c-1.7,2-3.6,3.9-5.4,5.8c-10,10-20,19.9-30.1,29.9c-2.3-2.2-4.5-4.5-6.7-7c0.5-0.8,1-1.3,1.6-1.9
	c10.6-10.6,21.2-21.2,31.9-31.9c0.5-0.5,1-1.1,1.6-1.7c0.3-0.1,0.5-0.2,0.6-0.3c1.1,1.3,2.3,2.7,3.5,4
	C120.5,267,121.5,267.9,122.6,268.9z"/>
<path class="st26" d="M116.1,261.8c-0.2,0.2-0.4,0.3-0.8,0.4c-1.5-1.4-2.8-2.8-4.1-4.2c-0.8-0.9-1.5-1.9-2.3-2.8
	c1.7-1.8,3.4-3.6,5.1-5.3c6-6.1,12.1-12.2,18.2-18.4c3.5-3.5,7-6.9,10.5-10.4c0.5-0.5,1.1-1,1.7-1.5c0.3,0.5,0.4,0.9,0.6,1.2
	c1.9,1.9,3.9,3.8,5.8,5.7c-0.5,0.5-1,1.1-1.5,1.6c-10.6,10.6-21.2,21.2-31.9,31.9C117.2,260.6,116.7,261.2,116.1,261.8z"/>
<path class="st28" d="M151.1,226.5c-2.1-1.8-4-3.7-5.9-5.6c-0.3-0.3-0.3-0.8-0.5-1.3c1.8-2,3.6-4,5.5-6c4-4,8-7.9,12-11.8
	c1.8-1.8,3.6-3.7,5.5-5.7c2.3-2.3,4.6-4.5,7-6.8c1.1,1.1,2.1,2.4,3.1,3.5c1,1.1,2.1,2.2,3.2,3.4c0,0.3-0.1,0.4-0.3,0.6
	C171,206.8,161.1,216.6,151.1,226.5z"/>
<path class="st40" d="M324.2,253.4c-1,1.2-2.1,2.4-3.3,3.6c-7,6.9-13.9,13.9-21.1,20.9c-1.1-0.6-2-1.1-2.7-1.8
	c-24.7-24.6-49.3-49.3-74-73.9c-0.8-0.8-1.9-1.3-2.9-2c0.4-0.6,0.7-1.3,1.2-1.8c5.2-5.2,10.4-10.4,15.6-15.6
	c2.3-2.3,4.8-4.5,7.2-6.8c0.7,0.5,1.3,1,1.9,1.5c24.9,24.9,49.8,49.8,74.7,74.8C321.9,253.3,322.7,254,324.2,253.4z"/>
<path class="st41" d="M220.1,200.2c1.1,0.6,2.2,1.1,3,1.9c24.7,24.6,49.3,49.3,74,73.9c0.7,0.7,1.7,1.2,2.6,1.8
	c-1,1.2-2.1,2.4-3.2,3.5c-7,7.1-14.1,14.1-21.2,21.3c-4.2,4.2-8.4,8.4-12.6,12.5c-1.2,1.2-2.4,2.3-3.8,3.6c-0.9-0.3-1.8-0.5-2.3-1
	c-2.2-2.2-4.3-4.6-6.6-6.8c-4.8-4.8-9.7-9.4-14.5-14.2c-18.2-18.2-36.5-36.4-54.7-54.7c-0.5-0.5-0.8-1.2-1.2-1.9
	c3.8-3.9,7.6-7.7,11.4-11.5c1.9-1.9,3.8-3.9,5.7-5.8c0.4-0.2,0.9-0.4,1.2-0.7c3.6-3.7,7.1-7.4,10.7-11
	C212.4,207.4,216.2,203.8,220.1,200.2z"/>
<path class="st39" d="M196.7,222.8c-1.8,2-3.7,4-5.6,5.9c-3.8,3.8-7.5,7.6-11.5,11.6c-3.5,3.6-6.9,7.1-10.3,10.5c-5,5-10,10-15,15
	c-1.7,1.7-3.5,3.4-5.2,5c0.4-0.9,0.7-1.9,1.4-2.6c3-3.2,3-2.3-0.1-5.6c-1.1-1.1-1.9-2.5-2.8-3.9c1.9-2.2,3.9-4.2,5.9-6.3
	c0.6-0.6,1.2-1.1,1.7-1.6c11-11,22-22,33-33c0.5-0.5,1.1-1,1.7-1.6C192.2,218.3,194.4,220.5,196.7,222.8z"/>
<path class="st42" d="M221.3,356.4c-1.8,1.9-3.6,3.8-5.5,5.8c-0.6,0.6-1.2,1.1-1.7,1.6c-11,11-22,22-33,33c-0.5,0.5-1.1,1-1.7,1.6
	c-0.8-0.7-1.5-1.5-2.2-2.3c-24.9-24.9-49.8-49.8-74.7-74.7c-0.5-0.5-1-1.1-1.6-1.7c2-2.3,4-4.5,6.1-6.7c0.5-0.5,1.1-0.8,1.5-1.3
	c10.8-10.8,21.6-21.6,32.4-32.4c0.5-0.5,0.9-1,1.5-1.5c0.9,0.7,1.8,1.4,2.5,2.1c25,25,50,49.9,74.9,74.9
	C220.4,355.3,220.8,355.9,221.3,356.4z"/>
<path class="st43" d="M221.4,356.4c-0.6-0.5-1.1-1.1-1.6-1.6c-25-25-49.9-50-74.9-74.9c-0.7-0.7-1.6-1.4-2.4-2.2
	c2.1-2.3,4.3-4.5,6.5-6.7c1.8-1.7,3.6-3.4,5.3-5.1c5-5,10-10,15-15c3.4-3.4,6.7-6.9,10.2-10.4c0.5,0.5,0.8,1.2,1.4,1.7
	c18.2,18.2,36.4,36.5,54.7,54.7c4.8,4.8,9.7,9.5,14.5,14.2c2.2,2.2,4.3,4.6,6.6,6.8c0.5,0.5,1.4,0.7,2.2,1.1
	c-0.2,0.4-0.5,0.8-0.8,1.1c-11.9,11.9-23.8,23.8-35.7,35.7C222,355.9,221.8,356.1,221.4,356.4z"/>
<path class="st25" d="M108.9,255.2c0.8,0.9,1.6,1.9,2.4,2.8c1.3,1.4,2.6,2.8,4,4.2c-0.4,0.6-0.9,1.2-1.4,1.7
	c-10.6,10.6-21.2,21.2-31.9,31.9c-0.5,0.5-1,1.1-1.6,1.7c-0.1,0.1-0.2,0.1-0.3,0.1c-2.2-2.3-4.2-4.6-6.4-7c4.3-4.6,8.7-9,13.1-13.4
	c1.2-1.2,2.3-2.4,3.6-3.7c3.8-3.8,7.6-7.5,11.4-11.3c2.3-2.3,4.5-4.6,6.8-7C108.6,255.2,108.8,255.2,108.9,255.2z"/>
</svg>
