<?xml version="1.0" encoding="utf-8"?>
<!-- Generator: Adobe Illustrator 28.1.0, SVG Export Plug-In . SVG Version: 6.00 Build 0)  -->
<svg version="1.1" id="Layer_1" xmlns="http://www.w3.org/2000/svg" xmlns:xlink="http://www.w3.org/1999/xlink" x="0px" y="0px"
	 viewBox="0 0 397.4 520.9" style="enable-background:new 0 0 397.4 520.9;" xml:space="preserve">
<style type="text/css">
	.st0{fill:#DBA6FF;}
	.st1{fill:#29B6FD;}
	.st2{fill:#47C7FD;}
	.st3{fill:#3CC1FD;}
	.st4{fill:#33BCFD;}
	.st5{fill:#DCAAFF;}
	.st6{fill:#4DCBFD;}
	.st7{fill:#E2B8FF;}
	.st8{fill:#C9A3FD;}
	.st9{fill:#52CEFD;}
	.st10{fill:#DFB1FF;}
	.st11{fill:#AAAFFC;}
	.st12{fill:#3EB9F8;}
	.st13{fill:#1A9BF4;}
	.st14{fill:#22A3F5;}
	.st15{fill:#31ABF5;}
	.st16{fill:#97ADFA;}
	.st17{fill:#BDC0FB;}
	.st18{fill:#CBA4FD;}
	.st19{fill:#86A3FA;}
	.st20{fill:#DAA6FF;}
	.st21{fill:#ADA0FA;}
	.st22{fill:#B2A0FB;}
	.st23{fill:#899BF7;}
	.st24{fill:#989CF9;}
	.st25{fill:#769FF9;}
	.st26{fill:#8099F7;}
	.st27{fill:#909CF9;}
	.st28{fill:#9D9DF9;}
	.st29{fill:#A0BCFB;}
	.st30{fill:#AFBCFA;}
</style>
<path class="st0" d="M353.5,296.2c-1.6,0.5-3.1,1.4-4.7,1.4c-7.9,0.1-15.9,0.1-23.8,0.1c-0.6,0-1.2,0-2,0c0,4.1,0,8,0,12
	c0,7.5-5.6,13-12.8,13c-16.7-0.1-33.3,0-50-0.1c-2.1,0-4.2-1.2-6.2-2.1c0.8-0.3,1.6-0.4,2.3-0.4c4.5,0,8.9,0,13.4,0
	c0.6,0,1.3-0.1,2.3-0.2c-1.4-1.6-2.3-3-4.5-2.8c-2.1,0.2-4.2,0.1-6.3,0c-3.7-0.1-6.3-2.3-6.9-6c-0.2-1.1-0.3-2.2-0.3-3.3
	c0-1.1-0.4-1.5-1.5-1.5c-0.8,0-1.6-0.1-2.5-0.2c0-0.2,0-0.5,0-0.7c0.8-0.1,1.6-0.2,2.4-0.2c1.3,0.1,1.9-0.4,1.9-1.8
	c0-3.3,0.2-6.5,0.4-9.8c0.1-1.7-0.4-2.2-2.2-2.2c-9.4,0.1-18.7,0-28.1,0c-4.7,0-7-2.4-7-7.1c0-11.3,0-22.5,0.2-33.8
	c6.9,0,13.5,0,20.2,0c5.3,0,10.3-1,15.2-2.7c10-3.5,18.3-9.5,24.6-18c6.8-9.1,10.3-19.3,10.4-30.7c0.1-5.7,0-11.4,0-17.3
	c0-1,0-1.9,0-3c0-1.9,0-3.7,0-5.6c0-0.8,0-1.4,0-2.2c0-2,0-3.9,0-5.9c0-0.5,0-0.9,0-1.5c0-2.2,0-4.2,0-6.3c0-0.4,0-0.7,0-1.2
	c0-2.4,0-4.7,0-7.1c0-6.7,0-13.3,0-19.9c0-3.1-0.1-6.3-0.4-9.4c-0.6-7.5-2.6-14.6-6.3-21.1c-4.3-7.7-10.1-13.9-17.5-18.6
	c-9.1-5.8-19.2-8.3-30-8.2c-5.5,0-11,0-16.6,0c0,0,0,0,0-0.2c0-7.2,0-14.3,0-21.4c0-4.3,2.5-6.7,6.7-6.7c5.4,0,10.8-0.1,16.2,0
	c1.6,0,2.1-0.4,2.1-2.1c-0.1-9.6,0-19.2,0-28.8c0-3.9,2.4-6.3,6.4-6.3c24.5,0,49,0,73.5,0c4.4,0,6.8,2.4,6.8,6.9
	c0,9.4,0,18.8,0,28.3c0,1.5,0.4,2.1,2,2c5.6-0.1,11.2,0,16.7,0c2.9,0,5.6,2.2,5.9,5.1c0.3,2.9,0.4,5.9,0.4,8.8c0,12,0,24,0,36
	c0,27.6,0,55.2,0,82.8c0,1.2-0.3,2.5-0.3,3.7c0.1,4.4,0.2,8.8,0.3,13.3c0,1.5,0,2.8,0,4.2c0,7.9,0,15.8,0,23.7c0,2.1,0,4.2,0,6.2
	c0.4,19.4-0.8,38.7,0.7,58.1c0,0.6-0.3,1.2-0.5,1.7c-0.4,0.7-1,1.3-1.3,2c-0.7,1.5-2,1.8-3.4,2.2c-4,0.9-8,0.1-12,0.3
	c-0.6,0-1.1,0-1.7-0.1c-2.7-0.1-5.4-0.9-7.9,0.6c-0.2,0.1-0.6,0.2-0.9,0.2c-2.7-0.3-5.4-0.6-8-0.8c-0.7-0.1-1.4,0.3-2.1,0.5
	c0.4,1,0.9,1.7,0.8,2.3c-0.4,1.6,0.3,2.7,1.4,3.5c0.6,0.4,1.5,0.9,2.1,0.7c0.4-0.1,0.7-1.1,1-1.8c-0.1-0.2-0.2-0.4-0.3-0.6
	c4.1-0.5,8.2-1,12.2-1.5c0.2-0.4,0.2-1.2,0.6-1.5c1.8-1.1,4.9-0.4,6.4,1.2c0.6,0.6,1.5,1.2,2.3,1.2c2,0.1,4.1-0.2,6.1-0.2
	C350.8,295.6,352.4,294.7,353.5,296.2z"/>
<path class="st1" d="M50.2,284.3c1.5,22,9.9,41,24.9,57.2c-0.6,0.8-1.2,1.4-1.8,2.1c-3.1,3.8-6.1,7.5-9.1,11.3
	c-0.8,1.1-1.5,0.9-2.5,0.3c-0.4-0.2-1.4,0-1.7,0.3c-1.4,1.5-2.6,3.1-3.9,4.7c-4.8,6.1-9.6,12.2-14.4,18.3c-3-3.4-6.2-6.6-9-10.1
	c-3.9-4.9-7.7-10-11.1-15.2c-7.1-11-12.6-22.8-15.9-35.5c-1.7-6.6-3.1-13.4-4.4-20.1c-0.6-3.2-0.6-6.6-0.8-9.9
	c-0.2-4.2-0.6-8.4-0.3-12.6c0.5-6.7,1.1-13.5,2.2-20.1c1.1-6.3,2.9-12.4,4.4-18.6c0.1-0.4,0.1-0.7,0.3-1.1c0.6,1.1,0.7,2.3,1.4,3.1
	c2.1,2.7,4.4,5.3,6.7,7.9c3.3,3.8,6.5,7.6,9.8,11.4c4,4.7,8.1,9.5,12.1,14.2c3.2,3.8,6.5,7.6,9.7,11.4
	C47.6,284.6,48.6,285.5,50.2,284.3z"/>
<path class="st2" d="M196.1,210.9c-8.7,0-17.5,0.4-26.2,0c-9.1-0.5-17.4-3.8-24.8-9.1c-5-3.6-9.2-8-12.6-13.2
	c-0.7-1.1-1.5-1.7-2.8-1.4c-4.1,0.9-8.1,1.7-12.4,2.5c-2.5-0.2-3.3-2.2-4.5-3.6c-5.6-6.5-11.2-13-16.7-19.6
	c-4.7-5.5-9.2-11.1-13.9-16.6c8.9-4.4,18.4-7.6,28-9.8c4.6-1.1,9.4-1.6,14.2-2.3c0.5,0.8,0.8,1.6,1.3,2.2c4.7,5.5,9.4,11,14.1,16.4
	c3.9,4.5,7.8,9.1,11.7,13.6c4.7,5.5,9.3,11,14,16.5c4.9,5.8,9.8,11.6,14.8,17.3c1.5,1.7,3.1,3.4,4.9,5.5c0.8-8.9,1.5-17.3,2.2-25.7
	c0.2-0.1,0.4-0.1,0.6-0.2c0.4,0.4,0.8,0.8,1.3,1.2c0.4,0.3,0.9,0.6,1.2,0.4c0.3-0.1,0.6-0.7,0.7-1.1c0.1-0.5,0-1,0-1.5
	c0-13.3,0-26.7,0-40.2c0-1,0-1.9,0.1-2.9c0.4-1.7,0.6-3.3,0.9-4.9c1.3,0.8,2.6,1.6,3.8,2.5C196.1,161.9,196.1,186.4,196.1,210.9z"/>
<path class="st3" d="M207.3,372.2c5.8,0,11.6-0.1,17.4-0.1c15.5,0,31.1,0,46.8,0.2c0.5,0.9,0.8,1.6,1.3,2.2c1.7,2,3.5,4,5.2,6
	c5.4,6.4,10.7,12.7,16.2,19.1c5.5,6.4,11,12.7,16.4,19.1c0.8,0.9,1.1,2.1,1.6,3.2c-3.2,0-6.3,0.1-9.5,0.1c-19.8,0-39.6,0-59.6-0.2
	c-1.3-1.6-2.4-3.1-3.5-4.6c-9.7-13.2-19.3-26.4-29-39.6C209.4,375.8,208.4,374,207.3,372.2z"/>
<path class="st4" d="M50.2,284.1c-1.7,1.4-2.6,0.5-3.6-0.8c-3.2-3.9-6.4-7.6-9.7-11.4c-4-4.7-8-9.5-12.1-14.2
	c-3.2-3.8-6.5-7.6-9.8-11.4c-2.2-2.6-4.6-5.2-6.7-7.9c-0.6-0.8-0.8-2-1.2-3.2c1.4-4.2,2.7-8.4,4.5-12.4c3.7-8.6,8.1-17,13.7-24.6
	c2.7-3.7,5.5-7.4,8.4-11c1.7-2.2,3.7-4.2,5.7-6.2c-0.2,2,0.9,3.2,2,4.5c2.5,2.9,5.1,5.9,7.6,8.8c4,4.7,7.9,9.4,11.9,14.1
	c3.4,4,6.8,7.9,10.2,11.9c-5,6.4-9.4,13.3-12.8,20.7c-3,6.7-5.1,13.6-6.6,20.7C50.2,269.1,50.2,276.5,50.2,284.1z"/>
<path class="st3" d="M71.2,220.3c-3.5-3.9-6.9-7.9-10.3-11.9c-4-4.7-7.9-9.4-11.9-14.1c-2.5-3-5.1-5.9-7.6-8.8
	c-1.1-1.3-2.2-2.5-1.9-4.6c5.5-6.1,11.6-11.4,18.1-16.2c7.7-5.7,15.8-10.6,24.5-14.8c4.8,5.5,9.4,11.1,14,16.6
	c5.5,6.6,11.1,13.1,16.7,19.6c1.2,1.4,2,3.4,4.4,3.6c-4.2,1.8-8.7,3.2-12.9,5.1c-7,3.1-13.4,7.1-19.3,11.9
	c-3.8,3.1-7.1,6.7-10.8,10.2c-0.5,0.4-0.8,0.8-1.1,1.2C72.4,218.8,71.9,219.5,71.2,220.3z"/>
<path class="st5" d="M397.3,503.8c0.2,3.8,0.2,7.5-1.8,11c-2.2,3.8-5.5,6.1-9.8,6.1c-111.3,0.1-222.5,0-333.8,0
	c-13.5,0-26.9,0-40.4,0c-5,0-10.5-4.4-11.1-9.8c-0.4-3.2-0.4-6.5-0.4-9.8C0,495,0,488.6,0.2,482c1.5-0.3,2.7-0.4,4-0.4
	c0.7,0,1.4-0.1,2.2,0c0.2,0.8,0.3,1.5,0.3,2.1c0,8.3,0,16.6,0,24.9c0,3.1,2,5.5,5.1,5.9c1.7,0.3,3.4,0.4,5.2,0.4
	c4.8-0.1,9.6-0.3,14.5-0.3c5.6,0,11.2,0.3,16.8,0.3c4.4,0,8.7-0.3,13.1-0.3c5,0,10,0.3,15,0.3c5.6,0.1,11.1,0,16.7,0
	c1.8,0,3.7-0.2,5.5-0.3c1,0,2.1-0.1,3.1,0c3.8,0.3,7.6-0.9,11.4,0.2c0.6,0.2,1.2,0.1,1.8,0.1c2.8-0.1,5.6-0.3,8.3-0.3
	c3.2,0,6.4,0.3,9.6,0.3c5.1,0,10.1-0.3,15.2-0.3c2.9,0,5.8,0.3,8.7,0.3c5.3,0,10.6-0.3,15.9-0.3c2,0,4.1,0.3,6.1,0.3
	c4.3,0,8.6-0.3,12.9-0.3c3.3,0,6.6,0.3,9.9,0.3c4.5,0,9.1-0.3,13.6-0.3c3.8,0,7.5,0.3,11.3,0.3c5.4,0.1,10.7,0,16.1,0
	c0.6,0,1.2,0.2,1.7,0c2.1-0.9,4.2-0.3,6.3,0c0.9,0.1,1.9,0.2,2.8,0c6-1.1,12.2,0.6,18.2-0.7c4.5,1.5,9.1,0,13.6,0.3
	c2.6,0.2,5.3,0,7.9,0c1.3,0,2.7-0.1,4-0.1c4.8,0.1,9.6,0.2,14.4,0.4c0.1,0,0.1,0,0.2,0c3-0.2,6-0.8,8.9-0.4c3,0.4,6,0.4,9,0.3
	c3.7-0.1,7.4,0.3,11.1,0.3c4.2,0,8.4-0.3,12.7-0.3c4,0,7.9,0.3,11.9,0.3c1.9,0,3.8-0.3,5.7-0.3c1.2,0,2.5,0.3,3.7,0.3
	c3.1-0.1,6.3-0.5,9.4-0.5c3.9,0,6.9-2.7,6.8-6.5c-0.2-4.5-0.6-8.9-0.1-13.3c0.2,1.1,0.4,2.3,0.4,3.3c0,1.9,0,3.5,1.8,4.8
	C394.4,503.8,395.8,503.8,397.3,503.8z"/>
<path class="st2" d="M312.3,421.9c-0.7-1.1-1.1-2.3-1.8-3.2c-5.4-6.4-11-12.7-16.4-19.1c-5.4-6.3-10.8-12.7-16.2-19.1
	c-1.7-2-3.5-4-5.2-6c-0.5-0.6-0.8-1.4-1.1-2.2c10.3-0.2,20.5-0.2,30.8-0.2c7.5,0,15,0,22.6,0.2c2.5,2.9,4.8,5.8,7.2,8.5
	c4.7,5.5,9.5,11,14.3,16.6c5.4,6.3,10.7,12.7,16.2,19.1c1.2,1.4,2.2,3.3,4.6,3c-2,1.9-4.5,2.5-7.1,2.5
	C344.2,422,328.4,422,312.3,421.9z"/>
<path class="st6" d="M191.3,142.6c0,13.3,0,26.7,0,40c0,0.5,0.1,1,0,1.5c-0.1,0.4-0.4,1-0.7,1.1c-0.3,0.1-0.9-0.2-1.2-0.4
	c-0.5-0.3-0.9-0.8-1.3-1.2c-0.2,0.1-0.4,0.1-0.6,0.2c-0.7,8.4-1.4,16.8-2.2,25.7c-1.8-2-3.4-3.7-4.9-5.5
	c-4.9-5.8-9.9-11.5-14.8-17.3c-4.7-5.5-9.3-11-14-16.5c-3.9-4.6-7.8-9.1-11.7-13.6c-4.7-5.5-9.4-10.9-14.1-16.4
	c-0.5-0.6-0.7-1.4-1.1-2.2c1.6-0.4,3.2-0.5,4.7-0.9c0.7-0.1,1.5-0.5,1.9-1c2.5-3.2,4.6-6.8,7.4-9.7c2.6-2.7,5.8-4.7,8.9-6.9
	c0.4,0.6,0.7,1.2,1,1.7c2.2,2.7,4.5,5.3,6.7,7.9c4.7,5.5,9.3,11,14,16.5c4.3,5,8.6,10,12.9,15c0.9,1.1,1.9,2.1,3.2,3.4
	c0.3-1.4,0.6-2.2,0.6-3c0.3-5.6,0.5-11.2,0.8-16.8c0.1-1.1,0.5-2.1,0.7-2.8C189,141.7,190.1,142.1,191.3,142.6z"/>
<path class="st7" d="M353.8,193.1c-0.1-4.4-0.3-8.8-0.3-13.2c0-1.2,0.3-2.5,0.3-3.7c0-27.6,0-55.2,0-82.8c0-12,0-24,0-36
	c0-2.9-0.1-5.9-0.4-8.8c-0.3-2.9-2.9-5.1-5.9-5.1c-5.6,0-11.2-0.1-16.7,0c-1.6,0-2-0.5-2-2c0.1-9.4,0-18.8,0-28.3
	c0-4.5-2.4-6.9-6.8-6.9c-24.5,0-49,0-73.5,0c-4,0-6.4,2.4-6.4,6.3c0,9.6,0,19.2,0,28.8c0,1.7-0.5,2.1-2.1,2.1
	c-5.4-0.1-10.8,0-16.2,0c-4.2,0-6.6,2.5-6.7,6.7c0,7.1,0,14.1-0.2,21.4c-2.1,0.2-4.1,0.2-6.1,0.2c0-8-0.4-16,0-24
	c0.3-5.5,5.4-10.5,11.1-10.6c4.4-0.1,8.8,0,13.2,0c0.1,0,0.2,0,0.6-0.1c0-0.5,0-1.1,0-1.7c0-8.1,0-16.1,0-24.2
	c0-5.8,5.7-11.2,11.2-11.2c25.4,0,50.8,0.1,76.2-0.1c4.7,0,9.6,3.6,11.1,7.7c0.5,1.4,0.8,3,0.8,4.6c0.1,8.2,0,16.5,0,24.9
	c4.3,0,8.6,0.1,12.8,0c3.3-0.1,6,1.2,8.3,3.5c2.6,2.5,3.8,5.7,3.8,9.3c0,45.9,0,91.9,0,137.8c0,1.8,0,3.6-0.2,5.6
	C357.8,193.4,355.8,193.3,353.8,193.1z"/>
<path class="st8" d="M227.4,441.7c2.2,3.1,4.4,6.3,6.5,9.5c-2.5,0.1-4.8,0.1-7.4,0.1c0.4,0.7,0.6,0.9,0.7,1.1c2.1,3,4.1,6,6,9
	c-24.3,0-48.4,0-72.5,0c-11.1,0-22.3,0.4-33.3-1.1c-6.6-0.9-13.2-1.7-19.7-3c-9.8-1.9-19.5-4.6-28.8-8.6c-8.5-3.6-16.8-7.6-25-11.8
	c-5.1-2.6-9.8-6-14.7-9.1c0.2-0.4,0.4-0.7,0.6-1c1.7-2.5,3.3-4.9,5.1-7.4c0.1,0,0.3,0,0.3,0.1c0.5,0.5,1,0.9,1.5,1.3
	c3.4,2.2,6.7,4.4,10.2,6.4c8.6,5.2,17.7,9.3,27.1,12.9c8.7,3.3,17.7,5.8,26.9,7.7c4.1,0.8,8.3,1.4,12.6,2.1
	c5.1,0.5,10.1,1.4,15.1,1.4c28.7,0.1,57.4,0.1,86.1,0.1c0.5,0,1-0.1,1.8-0.2c-2.3-3.4-4.5-6.4-6.5-9.5
	C222.4,441.7,224.9,441.7,227.4,441.7z"/>
<path class="st9" d="M191.3,142.4c-1.1-0.2-2.2-0.7-3.7-1.2c-0.2,0.6-0.6,1.7-0.7,2.8c-0.3,5.6-0.5,11.2-0.8,16.8
	c0,0.8-0.3,1.7-0.6,3c-1.3-1.4-2.3-2.3-3.2-3.4c-4.3-5-8.6-10-12.9-15c-4.7-5.5-9.3-11-14-16.5c-2.2-2.6-4.5-5.3-6.7-7.9
	c-0.4-0.5-0.6-1.1-0.9-1.7c5.4-3.8,11.6-5.9,18-7.1c2.7-0.5,5.5-0.4,8.3-0.4c5.6-0.1,11.3,0,17.1,0.2c0.2,9.4,0.2,18.5,0.2,27.7
	C191.3,140.5,191.3,141.3,191.3,142.4z"/>
<path class="st6" d="M367.4,419.4c-2.5,0.3-3.5-1.6-4.7-3c-5.4-6.3-10.8-12.7-16.2-19.1c-4.7-5.5-9.5-11-14.3-16.6
	c-2.4-2.8-4.7-5.6-7-8.5c12.3-0.1,24.5-0.3,36.8-0.1c3.9,0.1,8.2,3.4,9.6,7.9c0.5,1.5,0.7,3.1,0.8,4.6c0.1,8.4,0.1,16.9,0,25.3
	C372.3,413.8,370.7,417.1,367.4,419.4z"/>
<path class="st10" d="M233.3,461.4c-2.1-3-4.1-6-6.2-9c-0.1-0.2-0.3-0.4-0.7-1.1c2.6,0,4.9,0,7.4,0c2,2.4,3.9,4.8,5.8,7.3
	c2.8,3.9,5.6,7.8,8.4,11.7c0.3,0.4,0.9,0.6,1.4,0.8c0.3,0.1,0.7,0,1.1,0c40.7,0,81.4,0,122.1,0c4.5,0,8.8,1.3,12.7,3.7
	c6.3,3.9,10.2,9.5,11.6,16.7c0.5,2.7,0.3,5.5,0.3,8.4c-1.3,0.2-2.3,0.2-3.4,0.2c0,0.3-0.1,0.6-0.1,0.9c1.2,0.3,2.4,0.6,3.6,0.9
	c0,0.5,0,1,0,1.7c-1.6,0.2-2.9,0.1-4.4-0.9c-1.8-1.3-1.8-3-1.8-4.8c0-1.1-0.2-2.2-0.4-3.5c-1-7.7-4.9-12.9-11.9-15.4
	c-3.2-1.1-6.8-1.5-10.2-1.5c-10.5-0.1-20.9,0.2-31.4,0.3c-3.3,0-6.5-0.3-9.8-0.3c-16.2,0.1-32.3,0.2-48.6,0.3c-1.3,0-2.4,0-3.8,0.1
	c-0.9-0.1-1.7-0.3-2.5-0.3c-3.2,0.1-6.4,0.2-9.7,0.3c-1,0-1.9,0-3,0.1c-2-0.1-3.9-0.2-6-0.4c-1,0-1.9,0-3,0c-1.6,0-3-0.1-4.4,0
	c-1.3,0.1-2-0.4-2.7-1.5c-1.6-2.5-3.3-4.8-5-7.2C237,466.3,235.1,463.8,233.3,461.4z"/>
<path class="st10" d="M353.8,193.3c2,0,4,0.1,6.1,0.2c0.2,0.6,0.2,1.2,0.2,1.8c0,29.9,0,59.7,0,89.6c0,1.3-0.4,2.6-0.8,4
	c-0.3,0.6-0.5,1.1-0.6,1.6c-0.5,1-1.1,1.9-1.9,2.9c-0.7,0.6-1.1,1.1-1.5,1.6c-0.5,0.4-1.1,0.7-1.7,1.1c-1.2-1.6-2.8-0.6-4.2-0.7
	c-2-0.1-4.1,0.3-6.1,0.2c-0.8,0-1.8-0.6-2.3-1.2c-1.5-1.6-4.6-2.3-6.4-1.2c-0.4,0.2-0.4,1-0.6,1.5c-4,0.5-8.1,1-12.2,1.5
	c0.1,0.2,0.2,0.4,0.3,0.6c-0.3,0.6-0.6,1.7-1,1.8c-0.6,0.1-1.5-0.3-2.1-0.7c-1.2-0.8-1.9-1.9-1.4-3.5c0.1-0.6-0.4-1.3-0.8-2.3
	c0.7-0.2,1.4-0.5,2.1-0.5c2.7,0.2,5.4,0.6,8,0.8c0.3,0,0.6,0,0.9-0.2c2.5-1.5,5.2-0.7,7.9-0.6c0.6,0,1.1,0.1,1.7,0.1
	c4-0.2,8,0.6,12-0.3c1.5-0.3,2.7-0.7,3.4-2.2c0.3-0.7,0.9-1.3,1.3-2c0.3-0.5,0.6-1.2,0.5-1.7c-1.5-19.4-0.3-38.7-0.7-58.1
	c0-2.1,0-4.2,0-6.2c0-7.9,0-15.8,0-23.7C353.8,196.1,353.8,194.8,353.8,193.3z"/>
<path class="st5" d="M217.3,250.4c0,11.3,0,22.5,0,33.8c0,4.8,2.3,7.1,7,7.1c9.4,0,18.7,0,28.1,0c1.7,0,2.3,0.5,2.2,2.2
	c-0.2,3.3-0.3,6.5-0.4,9.8c0,1.4-0.6,1.9-1.9,1.8c-0.8,0-1.6,0.1-2.4,0.2c0,0.2,0,0.5,0,0.7c0.8,0.1,1.6,0.2,2.5,0.2
	c1.1,0,1.6,0.4,1.5,1.5c0,1.1,0.1,2.2,0.3,3.3c0.6,3.7,3.2,5.9,6.9,6c2.1,0.1,4.2,0.2,6.3,0c2.2-0.2,3.1,1.2,4.5,2.8
	c-1,0.1-1.6,0.2-2.3,0.2c-4.5,0-8.9,0-13.4,0c-0.7,0-1.5,0.2-2.3,0.3c-3-1.5-4.9-3.9-5.2-7c-0.5-4.7-0.5-9.5-0.3-14.2
	c0.1-1.8-0.6-1.5-1.6-1.5c-7.5,0-15-0.3-22.5,0.1c-6.1,0.3-12-4-13-9.6c-0.1-0.5-0.3-1-0.3-1.6c0-15.3,0-30.6,0.2-46.1
	c2.2-0.4,4.1-0.7,6.1-0.8c0,0.4,0,0.7,0,1.1C217.3,244.2,217.3,247.3,217.3,250.4z"/>
<path class="st11" d="M211,101.6c0-3.1,0-6.2,0.1-9.5c2.2-0.2,4.1-0.2,6.1,0c0,3.3,0,6.4,0,9.7c0,3.4,0,6.6,0,10
	c0,33.2,0,66.2-0.2,99.2c-2,0-3.9,0-5.9,0c-0.2,0-0.2,0-0.3,0c0,0,0,0,0-0.2c0-32.9,0-65.6,0-98.3c0-0.3,0-0.6-0.1-0.9
	c0,0,0-0.2,0.1-0.4C211.1,107.9,211.1,104.8,211,101.6z"/>
<path class="st4" d="M207.1,372.1c1.3,1.8,2.4,3.7,3.6,5.4c9.6,13.2,19.3,26.4,29,39.6c1.1,1.5,2.2,3,3.3,4.6
	c-3.8,0.1-7.7,0.2-11.7,0c-4-5.5-7.8-11-11.6-16.3c-6.3-8.8-12.7-17.7-19-26.5c-1.6-2.2-3-4.5-4.5-6.8
	C199.7,372.1,203.3,372.1,207.1,372.1z"/>
<path class="st12" d="M196.3,211c-0.2-24.6-0.2-49.1-0.2-74c0-8.6,0-16.9,0-25.2c1.6,0,3.2,0,5,0.1c0.2,33.2,0.2,66.1,0.2,99.1
	C199.7,211,198.1,211,196.3,211z"/>
<path class="st13" d="M57,391.6c-1.6-1.2-3.3-2.4-4.9-3.7c-1-0.7-1.8-1.6-2.7-2.6c1.9-2.7,3.8-5.1,5.6-7.6
	c6.4-8.9,12.8-17.7,19.1-26.7c1.5-2.1,2.7-4.3,4.1-6.5c2.5,2.1,5.1,4.2,7.7,6.4c-0.1,0.5-0.3,1-0.6,1.4c-6.4,9-12.8,17.9-19.2,26.9
	c-2.8,4-5.6,8-8.5,12.1C57.3,391.4,57.1,391.5,57,391.6z"/>
<path class="st10" d="M44.7,419.4c-1.7,2.5-3.3,4.9-5,7.4c-0.2,0.3-0.4,0.6-0.7,1.1c-6.1,8.6-12.1,16.9-18.1,25.3
	c-3.2,4.4-6.4,8.8-9.5,13.2c-1.8,2.5-3.4,5.1-5.1,7.8c0,1,0,1.9,0.1,3c0,1.5,0,2.9,0,4.3c-0.7,0-1.4,0.1-2.1,0.1
	c-1.3,0.1-2.6,0.2-4,0.3c-0.2-3.2-0.5-6.5-0.1-9.6c0.2-1.6,1.4-3.1,2.3-4.5c3.5-4.9,7-9.8,10.5-14.6c5.6-7.8,11.2-15.7,16.8-23.5
	c3.1-4.4,6.2-8.7,9.3-13.1c0.2-0.2,0.3-0.5,0.6-0.7C41.5,417,43.1,418.2,44.7,419.4z"/>
<path class="st14" d="M210.8,111.7c0.2,0.3,0.2,0.6,0.2,0.9c0,32.7,0,65.4-0.1,98.3c-1.5,0.2-3,0.2-4.7,0
	c-0.2-33.2-0.2-66.1-0.2-99.1C207.6,111.7,209.1,111.7,210.8,111.7z"/>
<path class="st15" d="M206,111.7c0.2,33,0.2,65.9,0.2,99.1c-1.5,0.2-3,0.2-4.7,0.2c-0.2-33-0.2-65.9-0.2-99.1
	C202.8,111.7,204.3,111.7,206,111.7z"/>
<path class="st16" d="M170.1,361.7c2.5,3.4,4.9,6.8,7.5,10.4c4.2,6,8.3,11.7,12.4,17.5c7.6,10.7,15.2,21.4,22.7,32
	c-2.4,0.2-4.6,0.5-6.9,0.7c-0.3-0.3-0.5-0.5-0.7-0.8c-0.2-0.4-0.4-0.8-0.6-1.1c-9.4-13.1-18.7-26.2-28.1-39.4c-2.2-3-4.4-6-6.6-9.1
	c-1.5-2.1-2.9-4-4.3-6c-0.9-1.3-1.6-2.6-2.2-3.9C165.6,361.9,167.8,361.8,170.1,361.7z"/>
<path class="st8" d="M97.2,335.3c1.9-2.7,3.8-5.4,5.9-8.1c1.5,1,2.8,2.1,4.2,3c0.3,0.2,1.1,0.2,1.4,0c2.3-2.1,4.5-4.3,6.9-6.4
	c0.4,0,0.7,0,1,0.1c0.3,0.4,0.5,0.9,0.9,1c2.8,1.3,5.6,3,8.6,3.8c4.9,1.4,10,2.4,15.2,3.5c0.1,0,0.3,0,0.3,0.1
	c0.5,0.7,1,1.3,1.4,1.9c1.8,2.7,3.5,5.3,5.1,8c-5.9,0.1-11.6-0.5-17.2-1.7c-7.6-1.7-14.6-4.7-21.1-8.8c-1.1-0.7-1.7-0.6-2.4,0.5
	c-1.5,2.1-3,4.2-4.6,6.4c-0.6-0.2-1-0.4-1.4-0.6C99.8,337.1,98.5,336.2,97.2,335.3z"/>
<path class="st14" d="M78.1,344.4c-1.3,2.3-2.6,4.5-4.1,6.6c-6.3,8.9-12.7,17.8-19.1,26.7c-1.8,2.5-3.7,5-5.6,7.5
	c-2.6-2.1-5.1-4.3-7.6-6.6c4.7-6.2,9.5-12.3,14.3-18.4c1.3-1.6,2.5-3.2,3.9-4.7c0.3-0.4,1.4-0.6,1.7-0.3c1,0.7,1.6,0.8,2.5-0.3
	c3-3.8,6.1-7.6,9.1-11.3c0.5-0.7,1.1-1.3,1.8-1.9C76.2,342.5,77.1,343.4,78.1,344.4z"/>
<path class="st16" d="M57.6,391.3c2.8-4,5.6-8,8.4-12c6.4-9,12.8-17.9,19.2-26.9c0.3-0.4,0.5-0.9,0.8-1.4c2-2.9,4-5.7,6.2-8.4
	c0.2,0.6,0.2,1.3,0.5,1.5c1.3,1,2.7,1.9,4.1,2.9c0,0.1,0,0.3-0.1,0.3c-1.9,2.6-3.7,5.2-5.6,7.8c-8,11.1-15.8,22.1-23.7,33.1
	c-1.6,2.3-3.4,4.5-5.3,6.7C60.5,393.6,59.1,392.4,57.6,391.3z"/>
<path class="st14" d="M183.8,372.2c2,0,4,0,6.2,0.1c0.3,0.5,0.4,0.9,0.6,1.2c10.5,14.6,21,29.3,31.5,43.9c1,1.4,1.8,3,2.7,4.5
	c-2,0-4,0-6.2-0.1c-0.6-1-0.8-1.9-1.3-2.6c-2.6-3.6-5.2-7.2-7.8-10.8c-6.1-8.4-12.1-16.8-18.1-25.2
	C188.8,379.5,186.3,375.8,183.8,372.2z"/>
<path class="st15" d="M224.9,421.9c-1.1-1.5-1.9-3.1-2.9-4.6c-10.5-14.7-21-29.3-31.5-43.9c-0.2-0.3-0.3-0.7-0.4-1.1
	c1.9-0.1,3.7-0.2,5.8-0.2c1.7,2.3,3.1,4.6,4.6,6.8c6.3,8.9,12.7,17.7,19,26.5c3.8,5.4,7.6,10.8,11.5,16.3
	C229.1,421.9,227.1,421.9,224.9,421.9z"/>
<path class="st13" d="M183.6,372.1c2.7,3.7,5.1,7.4,7.7,11c6,8.4,12.1,16.8,18.1,25.2c2.6,3.6,5.2,7.2,7.8,10.8
	c0.5,0.7,0.8,1.6,1.2,2.6c-1.5,0.2-3,0.2-4.8,0.2c-0.5-0.1-0.7-0.2-0.9-0.4c-7.6-10.7-15.2-21.4-22.8-32
	c-4.1-5.7-8.2-11.5-12.3-17.3C179.5,372.1,181.5,372.1,183.6,372.1z"/>
<path class="st7" d="M141.4,332.3c0,0-0.2,0-0.3-0.1c-3.2-5.4-7.4-9.1-13.6-10.1c-3.8-0.6-7.6-0.5-11.1,1.7c-0.3,0-0.6,0-1.1-0.1
	c-2-1.3-3.9-2.5-5.7-3.6c8.5-6.4,21.9-5.7,29.7,0.4c4,3.1,6.5,7.3,9.3,11.5C146.2,332.2,143.8,332.2,141.4,332.3z"/>
<path class="st8" d="M211.4,211c1.9,0,3.7,0,5.8,0c0.2,0,0.2,0,0.2,0.2c0,3.3,0,6.4,0,9.7c0,3.4,0,6.6,0,10c0,3,0,5.9,0,8.8
	c-2,0.2-4,0.5-6.1,0.7c-0.2-6.5-0.2-12.9-0.1-19.7C211.3,217.3,211.3,214.1,211.4,211z"/>
<path class="st11" d="M212.6,421.6c0.4,0.1,0.6,0.2,0.9,0.4c1.7,2.4,3.3,4.8,5,7.2c2.9,4.1,5.9,8.2,8.9,12.4
	c-2.4,0.1-4.9,0.1-7.7,0.1c-0.3,0-0.5,0-0.5-0.1c-2.4-3.4-4.7-6.7-7.1-10c-2.1-3.1-4.2-6.2-6.3-9.2
	C208,422.1,210.2,421.8,212.6,421.6z"/>
<path class="st11" d="M57.5,391.3c1.5,1.1,3,2.3,4.5,3.6c0.1,0.3,0.1,0.5,0,0.7c-1.9,2.6-3.7,5.2-5.6,7.8c-0.8,1-1.4,2-2.1,2.9
	c-1.2,1.6-2.5,3.2-3.8,4.8c-1.2-0.7-2.2-1.4-3.2-1.9c-0.7-0.4-1.5-0.4-2.3-0.7c2-2.9,3.9-5.7,5.9-8.6c1.9-2.8,4-5.5,6-8.3
	C57.1,391.5,57.3,391.4,57.5,391.3z"/>
<path class="st6" d="M195.9,111.7c0.2,8.3,0.2,16.6,0.2,25.1c-1.3-0.6-2.5-1.4-3.8-2.2c-0.2,1.6-0.5,3.3-0.9,4.9
	c-0.1-9.1-0.1-18.3-0.1-27.6C192.8,111.7,194.3,111.7,195.9,111.7z"/>
<path class="st10" d="M141.5,332.4c2.3-0.2,4.8-0.2,7.3-0.4c2.6,3.3,5,6.7,7.3,10.2c-2.5,0.1-4.9,0.1-7.4,0.1c-0.3,0-0.4,0-0.6,0
	c-1.8-2.7-3.5-5.3-5.3-8C142.4,333.7,142,333.1,141.5,332.4z"/>
<path class="st17" d="M148.8,342.3c2.4,0,4.7,0,7.3,0c2.4,3,4.6,6,6.8,9.3c-0.5,0.4-1.1,0.7-1.7,0.7c-1.8,0.1-3.6,0-5.4,0
	c-0.1,0-0.3,0-0.3-0.1c-0.3-0.5-0.6-0.9-0.9-1.3C152.7,348,150.8,345.2,148.8,342.3z"/>
<path class="st11" d="M155.9,352.4c1.8,0,3.6,0,5.3,0c0.6,0,1.1-0.3,1.7-0.6c2.4,3.1,4.7,6.4,7.1,9.8c-2.2,0.3-4.5,0.4-7,0.5
	c-0.3,0-0.4,0-0.5-0.1C160.3,358.7,158.1,355.5,155.9,352.4z"/>
<path class="st10" d="M109.6,320c1.9,1.1,3.8,2.3,5.6,3.6c-2.1,2.3-4.4,4.4-6.6,6.5c-0.3,0.2-1.1,0.2-1.4,0c-1.4-0.9-2.6-2-4-3.1
	C105.2,324.7,107.4,322.4,109.6,320z"/>
<path class="st11" d="M96.7,346.8c-1.4-0.9-2.8-1.8-4.1-2.8c-0.3-0.3-0.3-0.9-0.4-1.6c1.6-2.4,3.2-4.6,4.9-7c1.4,0.8,2.7,1.7,4,2.5
	c0.4,0.3,0.9,0.4,1.4,0.7c0.1,0.2,0.1,0.2,0,0.3C100.6,341.7,98.7,344.2,96.7,346.8z"/>
<path class="st10" d="M211,72c2-0.2,4-0.2,6.1-0.2c0.2,0,0.2,0,0.2,0.2c0,3.4,0,6.6-0.2,9.9c-2.1,0-4.1,0-6.1,0
	C211,78.7,211,75.4,211,72z"/>
<path class="st8" d="M211,82.1c2-0.2,4-0.2,6.1-0.2c0.2,0,0.2,0,0.2,0.2c0,3.4,0,6.6,0,9.9c0,0,0,0,0,0c-2,0-3.9,0-6.1,0
	C211,88.7,211,85.5,211,82.1z"/>
<path class="st18" d="M44.9,408.6c0.9,0.2,1.7,0.3,2.4,0.6c1.1,0.6,2.1,1.3,3.2,2.1c0.1,0.3,0.1,0.5,0,0.7c-1.9,2.5-3.7,4.9-5.5,7.4
	c0,0-0.2,0-0.3,0c-1.7-1.2-3.2-2.4-4.9-3.7C41.5,413.3,43.1,411,44.9,408.6z"/>
<path class="st5" d="M397.3,501.8c-1.2-0.2-2.5-0.5-3.7-0.8c0-0.3,0.1-0.6,0.1-0.9c1.1,0,2.1,0,3.4,0
	C397.3,500.6,397.3,501.1,397.3,501.8z"/>
<path class="st19" d="M211.3,211c0,3.1,0,6.3-0.1,9.5c-0.1-3-0.1-6.1-0.2-9.4C211,211,211.1,211,211.3,211z"/>
<path class="st19" d="M211,101.8c0.1,3,0.1,6.1,0.1,9.4C211,108.2,211,105.1,211,101.8z"/>
<path class="st0" d="M358.8,290.6c0-0.4,0.1-0.9,0.4-1.4C359.2,289.6,359.1,290.1,358.8,290.6z"/>
<path class="st0" d="M355.5,295.1c0.3-0.5,0.7-1,1.3-1.5C356.4,294.1,356,294.6,355.5,295.1z"/>
<path class="st4" d="M73.1,218.1c0.2-0.3,0.5-0.7,0.9-1.1C73.8,217.3,73.5,217.7,73.1,218.1z"/>
<path class="st8" d="M217.3,81.9c0-3.2,0-6.5,0-9.9c5.5-0.2,11-0.1,16.6-0.2c10.8-0.1,20.9,2.5,30,8.2c7.4,4.7,13.2,10.9,17.5,18.6
	c3.7,6.6,5.7,13.6,6.3,21.1c0.2,3.1,0.3,6.2,0.4,9.4c0.1,6.6,0,13.1-0.1,19.9c-2.4-1.7-4.7-3.6-7.1-5.3c-0.8-0.6-1.9-0.8-2.8-1.4
	c0-3.5,0-6.9,0-10.4c0.2-6.4,0-12.6-1.4-18.6c-2.3-9.7-7.8-17.2-15.6-23.2c-6.7-5.2-14.5-7.8-22.8-8.2
	C231.2,81.7,224.2,81.9,217.3,81.9C217.3,81.9,217.3,81.9,217.3,81.9z"/>
<path class="st18" d="M217.5,250.4c-0.2-3.1-0.2-6.2,0-9.5c7.4-0.3,14.5-0.4,21.7-0.6c5-0.1,9.7-1.5,14.3-3.6
	c6.1-2.7,11.2-6.8,15.3-12c5.4-6.8,8.4-14.5,9.3-23.1c1.4,0.8,2.7,1.6,3.9,2.4c1.4,1,2.7,2.1,4,3.2c0.1-0.1,0.2-0.3,0.4-0.4
	c-0.1-0.3-0.2-0.7-0.4-1c-2.7-2.4-5.3-4.8-8-7.4c0-1.8,0-3.4,0.1-5.1c0.2-0.1,0.3-0.3,0.4-0.4c-0.2-0.1-0.4-0.2-0.5-0.5
	c0-5.6,0-11.1,0.1-16.6c1,0.1,2,0.1,2.7,0.5c1.1,0.7,2,1.8,3.1,2.6c1.3,1,2.8,1.9,4.2,2.9c0,5.7,0,11.4,0,17.1
	c-0.1,11.4-3.6,21.6-10.4,30.7c-6.3,8.5-14.6,14.5-24.6,18c-4.9,1.7-10,2.7-15.2,2.7C231,250.4,224.3,250.4,217.5,250.4z"/>
<path class="st18" d="M278,142.6c0.9,0.4,2,0.6,2.8,1.2c2.4,1.7,4.7,3.6,7.1,5.5c0.1,2.3,0.1,4.5,0,6.9c-2-1.3-3.8-2.8-5.6-4.2
	c-1.4-1.1-2.9-2-4.3-3.2C278,146.5,278,144.5,278,142.6z"/>
<path class="st18" d="M288,157.4c0,2,0,4-0.1,6.1c-1-0.4-1.8-1-2.7-1.7c-2.4-1.9-4.8-3.7-7.3-5.8c0-1.9,0-3.7,0.1-5.4
	c1.9,1.2,3.7,2.3,5.4,3.5C285,155.3,286.5,156.4,288,157.4z"/>
<path class="st18" d="M288,165.2c0,1.9,0,3.7-0.1,5.8c-0.6,0-1.2,0-1.6-0.4c-1.8-1.4-3.5-2.9-5.2-4.4c-1.1-0.9-2.1-1.9-3.1-3.1
	c0-1.7,0-3.2,0.1-4.7c0.6,0.2,1.2,0.2,1.6,0.5c1.5,1.1,2.8,2.3,4.3,3.4C285.3,163.5,286.7,164.3,288,165.2z"/>
<path class="st18" d="M288,173.4c0,1.7,0,3.5-0.1,5.4c-2.2-1.4-4.2-2.9-6.2-4.5c-1.3-1-2.5-2.1-3.7-3.3c0-1.3,0-2.4,0.1-3.6
	c1.2-0.6,2-0.1,2.9,0.6C283.3,170,285.7,171.7,288,173.4z"/>
<path class="st8" d="M278,171.2c1.2,1,2.4,2.1,3.7,3.1c2,1.6,4,3.1,6.2,4.7c0.1,0.9,0.1,1.8,0.1,2.8c-1.4-0.8-2.8-1.7-4.2-2.7
	c-1.1-0.8-2-1.9-3.1-2.6c-0.7-0.4-1.7-0.3-2.7-0.7C278,174.2,278,172.7,278,171.2z"/>
<path class="st8" d="M288,173.3c-2.3-1.6-4.7-3.3-7-5.2c-0.9-0.8-1.7-1.2-2.9-0.8c-0.1-1.4-0.1-2.7-0.1-3.9c1,1,2,2,3.1,2.9
	c1.7,1.5,3.4,3,5.2,4.4c0.4,0.3,1,0.4,1.6,0.5C288,171.8,288,172.5,288,173.3z"/>
<path class="st8" d="M288,165.1c-1.3-0.8-2.7-1.6-4-2.6c-1.5-1.1-2.8-2.3-4.3-3.4c-0.4-0.3-1-0.4-1.6-0.7c-0.1-0.8-0.1-1.4-0.1-2.1
	c2.4,1.9,4.8,3.7,7.2,5.6c0.8,0.6,1.7,1.2,2.6,1.8C288,164.2,288,164.6,288,165.1z"/>
<path class="st8" d="M288,157.3c-1.5-0.9-3-2-4.5-3c-1.7-1.2-3.5-2.4-5.4-3.7c-0.1-0.7-0.1-1.2-0.1-1.7c1.4,1,2.9,2,4.3,3
	c1.9,1.4,3.7,2.9,5.6,4.4C288,156.6,288,156.9,288,157.3z"/>
<path class="st20" d="M6.4,481.6c-0.1-1.5-0.1-2.9,0-4.5c0-1.2,0-2.1-0.1-3c1.7-2.6,3.3-5.2,5-7.7c3.1-4.4,6.3-8.8,9.5-13.2
	c6-8.4,12-16.7,18.1-25.2c5,2.9,9.7,6.3,14.8,8.9c8.2,4.2,16.5,8.2,25,11.8c9.2,3.9,18.9,6.6,28.8,8.6c6.5,1.3,13.1,2.1,19.7,3
	c11.1,1.5,22.2,1.1,33.3,1.1c24.1,0,48.2,0,72.5,0c2,2.4,3.9,4.9,5.7,7.3c1.7,2.4,3.4,4.8,5,7.2c0.7,1.1,1.5,1.5,2.7,1.5
	c1.4-0.1,2.8,0,4.5,0.1c1.3,1,2.3,1.6,3.1-0.1c1.9,0.1,3.8,0.2,5.9,0.5c1.2,0,2.1,0,3-0.1c3.2-0.1,6.4-0.3,9.6-0.4
	c0.8,0,1.6,0.2,2.6,0.4c1.4,0.1,2.6,0,3.8-0.1c16.2-0.1,32.3-0.3,48.5-0.4c3.3,0,6.5,0.3,9.8,0.3c10.5-0.1,20.9-0.4,31.4-0.3
	c3.4,0,7,0.4,10.2,1.5c7,2.5,10.9,7.7,11.8,15.4c-0.5,4.6,0,9.1,0.2,13.5c0.1,3.8-2.9,6.5-6.8,6.5c-3.1,0-6.3,0.4-9.4,0.5
	c-1.2,0-2.5-0.3-3.7-0.3c-1.9,0-3.8,0.3-5.7,0.3c-4,0-7.9-0.3-11.9-0.3c-4.2,0-8.4,0.3-12.7,0.3c-3.7,0-7.4-0.4-11.1-0.3
	c-3,0.1-6,0.1-9-0.3c-2.9-0.4-5.9,0.3-8.9,0.4c-0.1,0-0.1,0.1-0.2,0c-4.8-0.1-9.6-0.3-14.4-0.4c-1.3,0-2.7,0.1-4,0.1
	c-2.6,0-5.3,0.2-7.9,0c-4.5-0.3-9.1,1.2-13.6-0.3c-6,1.3-12.2-0.5-18.2,0.7c-0.9,0.2-1.9,0.2-2.8,0c-2.1-0.3-4.2-0.9-6.3,0
	c-0.5,0.2-1.1,0-1.7,0c-5.4,0-10.7,0-16.1,0c-3.8,0-7.5-0.3-11.3-0.3c-4.5,0-9.1,0.3-13.6,0.3c-3.3,0-6.6-0.3-9.9-0.3
	c-4.3,0-8.6,0.2-12.9,0.3c-2,0-4.1-0.3-6.1-0.3c-5.3,0.1-10.6,0.3-15.9,0.3c-2.9,0-5.8-0.3-8.7-0.3c-5.1,0-10.1,0.3-15.2,0.3
	c-3.2,0-6.4-0.3-9.6-0.3c-2.8,0-5.6,0.2-8.3,0.3c-0.6,0-1.3,0.1-1.8-0.1c-3.8-1-7.6,0.1-11.4-0.2c-1-0.1-2.1,0-3.1,0
	c-1.8,0.1-3.7,0.2-5.5,0.3c-5.6,0-11.1,0.1-16.7,0c-5-0.1-10-0.3-15-0.3c-4.4,0-8.7,0.3-13.1,0.3c-5.6,0-11.2-0.3-16.8-0.3
	c-4.8,0-9.6,0.3-14.5,0.3c-1.7,0-3.5-0.2-5.2-0.4c-3-0.5-5.1-2.9-5.1-5.9c0-8.3,0-16.6,0-24.9C6.7,483.1,6.6,482.4,6.4,481.6z"/>
<path class="st21" d="M219.2,441.7c0,0,0.2,0,0.3,0c2.2,3.1,4.4,6.2,6.8,9.5c-0.8,0.1-1.3,0.2-1.8,0.2c-28.7,0-57.4,0.1-86.1-0.1
	c-5,0-9.9-0.9-15.1-1.5c-0.9-0.7-1.7-1.1-2.4-1.8c-0.3-0.3-0.3-1-0.2-1.4c4.5,0.2,8.8-0.1,12.8-1.8c2.2-1,4.2-2.2,6.5-3.4
	C166.5,441.4,192.9,441.6,219.2,441.7z"/>
<path class="st22" d="M120.6,446.5c0.1,0.5,0.1,1.1,0.4,1.4c0.6,0.6,1.4,1.1,2.2,1.8c-4.1-0.6-8.3-1.1-12.4-2
	c-9.2-1.9-18.1-4.4-26.9-7.7c-9.4-3.6-18.5-7.7-27.1-12.9c-3.4-2.1-6.8-4.3-10.2-6.4c-0.5-0.3-1-0.8-1.5-1.3c1.7-2.6,3.5-5,5.5-7.5
	c4.8,2.7,9.3,5.5,13.9,8.2c11.8,6.7,24.3,11.8,37.4,15.4c0.5,0.1,1-0.1,1.6-0.1c2.1,3.2,4.7,5.8,8,7.5
	C114.4,444.4,117.6,445.3,120.6,446.5z"/>
<path class="st5" d="M278.9,477.7c-1.1,0.2-2.2,0.2-3.5,0.2C276.5,477.7,277.7,477.6,278.9,477.7z"/>
<path class="st5" d="M254,477.4c-0.7,1.7-1.7,1.1-2.8,0.1C252,477.4,252.9,477.4,254,477.4z"/>
<path class="st5" d="M263,477.7c-0.8,0.2-1.7,0.2-2.8,0.2C261,477.7,261.9,477.6,263,477.7z"/>
<path class="st22" d="M278,148.7c0,0.7,0,1.2,0,1.9c0,1.9,0,3.6,0,5.6c0,0.8,0,1.5,0,2.2c0,1.7,0,3.2,0,4.8c0,1.4,0,2.7,0,4.1
	c0,1.3,0,2.4,0,3.7c0,1.7,0,3.2,0,4.8c0,5.6,0,11.1,0,16.9c0,0.5,0,0.6,0,0.8c0,1.6,0,3.2,0,5.2c0,1.2,0,2.1,0,3
	c-0.7,8.6-3.8,16.3-9.1,23.1c-4.2,5.2-9.3,9.3-15.3,12c-4.5,2.1-9.3,3.5-14.3,3.6c-7.2,0.2-14.4,0.3-21.7,0.4
	c-0.2-0.3-0.2-0.6-0.2-1c0-3,0-5.9,0.2-8.9c6.4-0.2,12.7-0.1,19-0.2c1.7,0,3.5-0.1,5.2-0.5c15.8-3.1,26.5-16.1,26.7-32.4
	c0.1-16.2,0-32.3,0-48.7c0-0.8,0-1.4,0-2.2c0-2.7,0-5.2,0-7.8c0-2.3,0-4.4,0-6.7c0-2.5,0-4.9,0.1-7.2c1.2,0.8,2.2,1.7,3.3,2.5
	c2.1,1.5,4.1,3,6.2,4.5c0,3.4,0,6.7,0,10.2C278,144.5,278,146.5,278,148.7z"/>
<path class="st19" d="M217.3,211c0-33,0-66,0.2-99.2c6.6-0.2,12.9-0.2,19.3-0.2c3.8,0,6.7,1.9,9,4.8c2.1,2.7,2.7,5.8,2.8,9
	c0,11.6,0,23.3,0,35.1c0,12,0.1,23.8-0.1,35.6c0,2.4-0.3,4.9-1.2,7c-2.2,5.4-6.6,7.6-12.2,7.7C229.2,211.1,223.2,211,217.3,211
	C217.3,211,217.3,211,217.3,211z"/>
<path class="st23" d="M248.6,160.4c0-11.6,0-23.3,0-34.9c0-3.3-0.6-6.4-2.8-9c-2.3-2.9-5.2-4.7-9-4.8c-6.4-0.1-12.8,0-19.3,0
	c-0.2-3.2-0.2-6.5,0-9.9c7.2-0.1,14.2-0.3,21.1,0.3c11.1,0.9,19.6,10.7,19.6,21.7c0,6.6,0,13.3,0,20.1c0,7.9,0,15.6-0.1,23.3
	c-1.8-1.2-3.5-2.4-5.1-3.6C251.5,162.5,250,161.4,248.6,160.4z"/>
<path class="st24" d="M258.2,143.7c0-6.6,0-13.3,0-19.9c0-11-8.6-20.8-19.6-21.7c-6.9-0.6-14-0.3-21.1-0.4c-0.2-3.1-0.2-6.2-0.2-9.5
	c0-0.2,0-0.2,0.2-0.2c6.5,0,12.8,0,19.1,0c9-0.1,16.5,3.6,22.6,9.9c6.1,6.2,8.7,14,8.9,22.6c-0.4,2.4-0.7,4.8-0.8,7.2
	c0,0.3,0.6,0.6,0.9,1c0,2.1,0,4.2-0.1,6.6c-1.5,2.5-1.1,4.9-0.6,7.3c0.1,0.3,0.5,0.5,0.7,0.7c0,0.6,0,1.3-0.1,2.1
	c-1,0-2.1,0.1-2.8-0.3c-1.3-0.8-2.3-1.9-3.4-2.8C260.7,145.2,259.4,144.4,258.2,143.7z"/>
<path class="st5" d="M6.3,474.2c0.2,0.8,0.2,1.7,0.2,2.8C6.3,476.1,6.2,475.2,6.3,474.2z"/>
<path class="st25" d="M62.2,395.5c0-0.2,0-0.3,0-0.6c1.7-2.3,3.5-4.5,5.2-6.8c7.9-11,15.7-22,23.8-33c5.8,3,11.2,6.4,17,9
	c11.8,5.4,24.5,7.6,37.4,7.9c8,0.2,16.1,0,24.1,0c2.2,3,4.4,5.9,6.6,8.9c9.4,13.1,18.7,26.2,28.1,39.4c0.2,0.3,0.4,0.6,0.5,1.2
	c-0.7,0.3-1.4,0.4-2.1,0.4c-7.6,0-15.2,0-22.7,0c-3,0-5.9-0.3-8.9-0.3c-3.7,0-7.4,0.3-11.1,0.3c-3.6,0.1-7.2,0-10.8-0.1
	c-0.3-4.4-1-8.5-3.3-12.2c-5.2-8.4-12.6-12.8-22.6-12.6c-6.2,0.1-11.4,2.5-15.9,6.6c-3.2,2.9-5.4,6.5-7.1,10.5
	c-10.6-3.5-20.5-7.9-29.9-13.7C67.7,398.8,64.9,397.2,62.2,395.5z"/>
<path class="st26" d="M169.6,372c-8,0.1-16,0.3-24.1,0.1c-12.9-0.3-25.6-2.5-37.4-7.9c-5.8-2.6-11.2-6-16.9-9.1
	c1.7-2.7,3.5-5.2,5.5-7.8c6.2,3.8,12.5,7.1,19.2,9.5c9,3.2,18.2,5,27.7,5.2c6.3,0.1,12.6,0,18.9,0c0,0,0.2,0,0.3,0
	c0.9,1.3,1.6,2.7,2.5,3.9C166.7,368,168.2,369.9,169.6,372z"/>
<path class="st26" d="M149.2,422c3.6,0,7.2,0,10.8,0c3.7-0.1,7.4-0.3,11.1-0.3c3,0,5.9,0.3,8.9,0.3c7.6,0.1,15.2,0,22.7,0
	c0.7,0,1.3-0.1,2.1-0.3c0.3,0.1,0.5,0.3,0.8,0.6c2.2,3.1,4.3,6.1,6.2,9.2c-20.9,0.1-41.6,0.1-62.3,0.1c-0.8,0-1.5-0.2-2.3-0.5
	C148,428,148.6,425,149.2,422C149.2,422,149.2,422,149.2,422z"/>
<path class="st21" d="M102.7,339c0-0.1,0-0.1,0-0.3c1.5-2.2,3-4.3,4.5-6.5c0.7-1,1.3-1.2,2.4-0.5c6.5,4.1,13.5,7.1,21.1,8.8
	c5.6,1.2,11.3,1.9,17.2,1.7c0.3,0,0.5,0,0.8,0c2,2.9,4,5.7,5.9,8.6c0.3,0.4,0.5,0.8,0.7,1.3c-4.1,0-8,0.1-12-0.3
	c-5.1-0.4-10.2-0.9-15.2-1.9C119,348.1,110.5,344.4,102.7,339z"/>
<path class="st0" d="M116.5,323.9c3.4-2.3,7.2-2.4,11-1.8c6.1,1,10.4,4.7,13.5,10.1c-5-1-10.1-2-15-3.4c-3-0.9-5.8-2.5-8.6-3.8
	C117,324.7,116.8,324.3,116.5,323.9z"/>
<path class="st27" d="M102.6,339.1c7.9,5.3,16.4,9,25.6,11c5,1.1,10.1,1.5,15.2,1.9c3.9,0.3,7.9,0.3,12,0.4c0.2,0,0.3,0,0.4,0
	c2.3,3.2,4.5,6.3,6.7,9.6c-6.3,0.1-12.6,0.2-18.9,0.1c-9.5-0.2-18.7-2-27.7-5.2c-6.7-2.4-13-5.7-19.1-9.6c-0.1-0.1-0.1-0.2-0.1-0.3
	C98.7,344.2,100.6,341.7,102.6,339.1z"/>
<path class="st28" d="M258.2,143.8c1.2,0.6,2.5,1.3,3.6,2.2c1.2,0.9,2.2,2,3.4,2.8c0.7,0.4,1.8,0.3,2.8,0.5
	c0.1,16.2,0.2,32.3,0.1,48.5c-0.1,16.4-10.8,29.3-26.7,32.4c-1.7,0.3-3.4,0.5-5.2,0.5c-6.3,0.1-12.5,0-18.9,0
	c-0.2-3.2-0.2-6.5,0-9.9c6.2-0.2,12.2-0.2,18.2-0.2c5.1,0,9.7-1.2,13.7-4.5c5.6-4.6,8.7-10.4,8.8-17.6c0.1-10.5,0-20.9,0-31.4
	C258.2,159.4,258.2,151.7,258.2,143.8z"/>
<path class="st27" d="M258.1,167.1c0.1,10.5,0.2,20.9,0.1,31.4c0,7.3-3.2,13.1-8.8,17.6c-4,3.3-8.6,4.5-13.7,4.5c-6,0-12,0-18.2,0
	c-0.2-3.1-0.2-6.2-0.2-9.5c5.9-0.2,11.9-0.1,17.8-0.2c5.6-0.1,10-2.4,12.2-7.7c0.9-2.2,1.2-4.7,1.2-7c0.1-11.8,0.1-23.6,0.1-35.6
	c1.5,0.9,2.9,1.9,4.4,2.9C254.6,164.7,256.3,165.9,258.1,167.1z"/>
<path class="st24" d="M147.3,431.2c0.8,0.1,1.5,0.4,2.3,0.4c20.7,0,41.4,0,62.3,0c2.5,3.3,4.8,6.5,7.2,9.9c-26.3,0-52.6-0.1-79-0.4
	c2.7-2.9,5.4-5.8,6.9-9.6C147.1,431.4,147.2,431.3,147.3,431.2z"/>
<path class="st28" d="M103.5,435.4c-0.5,0.1-1.1,0.3-1.5,0.1c-13.1-3.6-25.6-8.6-37.4-15.4c-4.6-2.6-9.1-5.5-13.8-8.2
	c-0.1-0.2-0.1-0.3-0.1-0.6c1.2-1.7,2.5-3.3,3.7-4.9c0.7-0.9,1.4-1.9,2.2-2.8c0.5,0.3,0.7,0.7,1.1,0.9c5.4,3.2,10.6,6.6,16.1,9.5
	c5,2.6,10.3,4.9,15.6,7c3.2,1.3,6.7,2.2,10.1,3.3c0.2,0.1,0.2,0.2,0.3,0.5C99.9,428.8,101.6,432.1,103.5,435.4z"/>
<path class="st23" d="M99.4,424.2c-3.4-1.1-6.8-1.9-10-3.2c-5.3-2.2-10.5-4.4-15.6-7c-5.5-2.9-10.8-6.3-16.1-9.5
	c-0.4-0.2-0.6-0.6-1-1c1.7-2.7,3.5-5.2,5.4-7.8c2.9,1.6,5.6,3.2,8.4,4.8c9.4,5.8,19.3,10.2,29.9,13.8c0.1,0.2,0.1,0.2,0.1,0.4
	C100.1,417.9,99.7,421.1,99.4,424.2z"/>
<path class="st21" d="M268.3,124.3c-0.4-8.6-3-16.3-9-22.5c-6.1-6.3-13.6-9.9-22.6-9.9c-6.3,0.1-12.6,0-19.1,0
	c-0.2-3.2-0.2-6.5-0.2-9.9c6.9-0.2,13.9-0.4,20.8-0.1c8.4,0.4,16.1,3,22.8,8.2c7.8,6,13.4,13.5,15.6,23.2c1.4,6,1.6,12.2,1.4,18.6
	c-2.1-1.3-4.2-2.8-6.2-4.4c-1.1-0.8-2.1-1.7-3.3-2.6C268.3,124.7,268.3,124.5,268.3,124.3z"/>
<path class="st8" d="M278.1,201.7c-0.1-0.9-0.1-1.8-0.1-2.8c2.7,2.2,5.4,4.6,8,7.1c0.2,0.2,0.3,0.6,0.4,1c-0.1,0.1-0.2,0.3-0.4,0.4
	c-1.3-1.1-2.6-2.2-4-3.2C280.8,203.3,279.5,202.5,278.1,201.7z"/>
<path class="st8" d="M278.1,193.5c-0.1-0.1-0.1-0.3-0.1-0.6c0.2,0,0.4,0.1,0.5,0.2C278.4,193.2,278.3,193.4,278.1,193.5z"/>
<path class="st17" d="M103.6,435.4c-1.9-3.4-3.7-6.7-3.7-10.7c6.4,1.3,12.7,3,19,4.3c9.2,1.9,18.6,2.5,28.1,2.6
	c-1.5,3.8-4.1,6.7-7,9.6c-2.2,1.2-4.2,2.5-6.4,3.5c-4,1.8-8.3,2-12.8,1.8c-3.2-1.2-6.3-2.2-9.2-3.6
	C108.3,441.2,105.7,438.6,103.6,435.4z"/>
<path class="st28" d="M268.1,124.4c0.1,0.1,0.1,0.3,0.1,0.6c0,2.5,0,4.9,0,7.4c-0.3-0.1-1-0.5-0.9-0.8
	C267.5,129.2,267.8,126.8,268.1,124.4z"/>
<path class="st28" d="M268.3,146.8c-0.3-0.1-0.7-0.2-0.7-0.5c-0.5-2.4-0.9-4.8,0.6-7.1C268.3,141.7,268.3,144.2,268.3,146.8z"/>
<path class="st29" d="M100.5,414.5c0-0.1,0-0.1,0-0.3c1.6-4.1,3.7-7.7,7-10.6c4.5-4.1,9.7-6.4,15.9-6.6c10-0.2,17.4,4.2,22.6,12.6
	c2.3,3.7,2.9,7.8,3.3,12.2c0,0.2,0,0.2-0.2,0.2c-1.9-0.1-3.6-0.2-5.4-0.4c-5.3-0.4-10.6-0.5-15.9-1.2c-6-0.8-11.9-2.2-17.8-3.4
	C106.8,416.3,103.7,415.4,100.5,414.5z"/>
<path class="st30" d="M100.5,414.7c3.2,0.7,6.3,1.6,9.5,2.3c5.9,1.2,11.8,2.6,17.8,3.4c5.2,0.7,10.6,0.8,15.9,1.2
	c1.7,0.1,3.4,0.2,5.3,0.4c-0.4,3-1,6-1.6,9.2c-0.1,0.2-0.2,0.3-0.4,0.5c-9.5,0-18.9-0.6-28.1-2.5c-6.3-1.3-12.6-2.9-19-4.5
	c-0.2-0.1-0.3-0.2-0.4-0.3C99.7,421.1,100.1,417.9,100.5,414.7z"/>
</svg>
