<?xml version="1.0" encoding="utf-8"?>
<!-- Generator: Adobe Illustrator 28.1.0, SVG Export Plug-In . SVG Version: 6.00 Build 0)  -->
<svg version="1.1" id="Layer_1" xmlns="http://www.w3.org/2000/svg" xmlns:xlink="http://www.w3.org/1999/xlink" x="0px" y="0px"
	 viewBox="0 0 558.5 422" style="enable-background:new 0 0 558.5 422;" xml:space="preserve">
<style type="text/css">
	.st0{fill:#FCE624;}
	.st1{fill:#FCDA21;}
	.st2{fill:#FDC51B;}
	.st3{fill:#FDCD1D;}
	.st4{fill:#FDBC19;}
	.st5{fill:#FCD31F;}
	.st6{fill:#F58A67;}
	.st7{fill:#FDB417;}
	.st8{fill:#F48763;}
	.st9{fill:#FDAF15;}
	.st10{fill:#FDA814;}
	.st11{fill:#FDAC15;}
	.st12{fill:#FEA613;}
	.st13{fill:#F58E6A;}
	.st14{fill:#F8A17E;}
	.st15{fill:#F79774;}
	.st16{fill:#FB904F;}
	.st17{fill:#FCA04E;}
	.st18{fill:#FA9E6D;}
	.st19{fill:#F89265;}
	.st20{fill:#FC8B3E;}
	.st21{fill:#F78D5E;}
	.st22{fill:#FDCC1D;}
	.st23{fill:#FEB918;}
	.st24{fill:#F79A79;}
	.st25{fill:#F6926F;}
	.st26{fill:#F79975;}
	.st27{fill:#F68557;}
	.st28{fill:#F48360;}
	.st29{fill:#FEA011;}
	.st30{fill:#F47F5D;}
	.st31{fill:#FCA754;}
	.st32{fill:#F9A685;}
	.st33{fill:#FB902F;}
	.st34{fill:#FA9C52;}
	.st35{fill:#F78144;}
	.st36{fill:#FA7E2F;}
	.st37{fill:#F97D37;}
	.st38{fill:#FDAD57;}
	.st39{fill:#FE9910;}
	.st40{fill:#FC8732;}
	.st41{fill:#F9884A;}
	.st42{fill:#FDAE55;}
	.st43{fill:#FD9931;}
	.st44{fill:#FB8332;}
	.st45{fill:#FA823A;}
	.st46{fill:#FB873C;}
</style>
<path class="st0" d="M0.1,226.2c0-0.7-0.1-1.4-0.1-2c0-66.5,0-133.1,0-199.6c0-9.7,6.5-19.4,15.7-22.8C18.9,0.7,21.9,0,25.2,0
	C70.1,0,115,0,159.9,0c1.4,0,2.3,0.4,3.2,1.3c15.6,15.7,31.3,31.3,46.9,47c0.9,0.9,1.7,1.2,2.9,1.2c57.4,0,114.8,0,172.3,0
	c9.7,0,19.2,6.3,22.8,15.7c1.2,3.1,1.8,6.1,1.8,9.4c0,7.3,0,14.5-0.2,21.9c-1.2,0.5-2.3,0.9-3.3,1.3c-8,2.5-15.9,5.1-23.9,7.6
	c-4.5,1.4-9,2.7-13.5,4.3c-6.1,2.1-12.5,1.3-18.8,1.9c-3.8,0.4-7.7,0.3-11.5,0.4c-6.9,0.2-13.7,0.4-20.6,0.8c-2.7,0.2-5.3,0.8-8,1.3
	c-3.3,0.6-6.5,1.8-9.8,2c-8.6,0.5-17.2,0.8-25.7,0.8c-25.7,0.1-51.3,0.1-77,0c-5,0-9.9,0.9-14.6,2.4c-9.2,2.9-17.6,7.5-24.9,13.9
	c-6.4,5.6-11.5,12.1-14.6,20c-1.7,4.3-3,8.8-4.5,13.2c-0.5,1.4-1.4,2.2-2.8,2.7c-0.8,0.3-1.7,1-2,1.7c-1.7,4.1-3.3,8.3-4.8,12.5
	c-0.6,1.7-1.6,2.7-3.3,3.2c-9.4,2.9-18.8,5.9-28.2,8.9c-14.5,4.6-29.1,9.2-43.6,13.8c-13.7,4.3-27.4,8.7-41.1,13.1
	C8.9,223.5,4.5,224.9,0.1,226.2z"/>
<path class="st1" d="M0.1,226.4c4.4-1.5,8.8-2.9,13.1-4.3c13.7-4.3,27.4-8.7,41.1-13.1c14.5-4.6,29.1-9.2,43.6-13.8
	c9.4-3,18.8-6,28.2-8.9c1.7-0.5,2.7-1.5,3.3-3.2c1.5-4.2,3.1-8.4,4.8-12.5c0.3-0.7,1.2-1.4,2-1.7c1.4-0.5,2.3-1.3,2.8-2.7
	c1.4-4.4,2.8-8.8,4.5-13.2c3.1-7.9,8.2-14.4,14.6-20c7.4-6.4,15.7-11,24.9-13.9c4.7-1.5,9.6-2.4,14.6-2.4c25.7,0.1,51.3,0.1,77,0
	c8.6,0,17.2-0.3,25.7-0.8c3.3-0.2,6.5-1.3,9.8-2c2.7-0.5,5.3-1.1,8-1.3c6.8-0.4,13.7-0.6,20.6-0.8c3.8-0.1,7.7-0.1,11.5-0.4
	c6.3-0.6,12.6,0.2,18.8-1.9c4.4-1.5,9-2.9,13.5-4.3c8-2.5,15.9-5.1,23.9-7.6c1.1-0.3,2.1-0.7,3.3-1.1c0.2,6.2,0.2,12.5,0.2,18.7
	c0,0.2-0.2,0.4-0.4,0.9c-1,0.3-1.8,0.5-2.6,0.5c-8,0-15.9-0.1-23.9,0c-22,0.4-43.9-0.7-65.9,0.6c-5.9,0.3-11.4,1.5-16.8,3.3
	c-0.5,0.2-0.8,0.6-1.4,0.9c-1.7,0-3.2,0-4.8,0c-32.1,0-64,0-95.9,0c-2.8,0-5.7,0.5-8.4,1c-9.1,1.9-17.2,5.8-24.6,11.2
	c-5.4,4-10,8.8-13.6,14.5c-4.7,7.5-5.8,16.2-8.4,24.6c-0.1,0.2-0.2,0.2-0.5,0.3c-1.2,0.5-2.2,1-3.3,1.6c-0.5,0.3-1,0.6-1.2,1
	c-0.8,1.5-1.6,2.9-2.1,4.5c-2.6,8.5-4.9,17-7.5,25.4c-0.7,2.4-1.4,5.1-4.6,5.8c-0.6,0.1-1.4,1-1.7,1.6c-1.3,3-2.6,6-3.7,9.1
	c-0.5,1.3-1.1,2.1-2.4,2.5c-4.4,1.3-8.8,2.7-13.1,4.1c-17.4,5.5-34.7,11-52.1,16.5c-13.3,4.2-26.7,8.5-40,12.7
	c-3.5,1.1-7.1,2.2-10.6,3.3C0.1,249.9,0.1,238.2,0.1,226.4z"/>
<path class="st2" d="M0.1,339.7c0-10.4,0-20.9,0.1-31.5c1-0.3,1.9-0.2,2.7-0.5c9.7-3,19.5-6.1,29.2-9.2c7.4-2.4,14.9-4.7,22.3-7.1
	c15.7-4.9,31.4-9.9,47.1-14.9c0.9-0.3,1.9-1.2,2.4-2.1c1-1.9,1.9-3.9,2.6-5.9c0.6-1.7,1.6-2.9,3.4-3.3c0.4-0.1,0.9-0.3,1.1-0.6
	c0.8-1.4,1.6-2.8,2.1-4.3c1.9-5.4,3.9-10.7,5.3-16.2c1-3.9,4.2-5.4,6.9-7.4c-1.7,6.2-3.5,12.4-5.2,18.6c-1.2,4.5-2.5,8.9-3.8,13.3
	c-0.4,0.6-0.8,1.2-1,1.8c-0.6,2.1-1.3,4.1-1.8,6.2c-0.4,1.8-1.3,3-3.1,3.6c-0.7,0.2-1.4,0.8-1.8,1.5c-0.7,1.2-1.3,2.5-1.7,3.9
	c-1.5,4.4-3.1,8.7-4.5,13.1c-0.5,1.5-1.3,2.4-2.9,2.9c-0.8,0.2-1.7,0.7-2.2,1.3c-0.9,1.4-1.9,3-2.3,4.6c-0.5,2.1-1.8,3-3.7,3.6
	c-16.6,5.2-33.2,10.5-49.8,15.7c-11.3,3.6-22.5,7.2-33.8,10.7C5.3,338.5,2.7,339,0.1,339.7z"/>
<path class="st3" d="M125.4,236.7c-2.7,2.1-5.8,3.6-6.9,7.6c-1.4,5.5-3.5,10.8-5.3,16.2c-0.5,1.5-1.3,2.9-2.1,4.3
	c-0.2,0.3-0.7,0.5-1.1,0.6c-1.8,0.4-2.8,1.6-3.4,3.3c-0.7,2-1.6,4-2.6,5.9c-0.5,0.9-1.5,1.8-2.4,2.1c-15.7,5-31.4,9.9-47.1,14.9
	c-7.4,2.3-14.9,4.7-22.3,7.1c-9.7,3.1-19.5,6.2-29.2,9.2c-0.8,0.3-1.7,0.2-2.7,0.3c-0.2-8.2-0.2-16.4,0-24.8
	c0.8-0.3,1.5-0.3,2.2-0.5c6.7-2.1,13.4-4.2,20-6.3c14.5-4.6,29.1-9.2,43.6-13.8c14.4-4.5,28.7-9.1,43.1-13.6c1.4-0.5,2.4-1.3,3-2.8
	c0.7-2,1.5-4.1,2.5-5.9c0.5-0.9,1.6-1.4,2.4-2.1c0.6-0.4,1.5-0.6,1.8-1.2c0.8-1.4,1.6-3,2.1-4.5c2.2-6.7,4.4-13.4,6.4-20.2
	c1.1-3.6,3.2-6,6.7-7.2c-0.1,0.4-0.1,0.6-0.1,0.9c-1.3,4.9-2.6,9.7-4,14.7C128.3,226.2,126.9,231.4,125.4,236.7z"/>
<path class="st4" d="M0.1,339.9c2.6-0.8,5.2-1.4,7.7-2.2c11.3-3.5,22.5-7.2,33.8-10.7c16.6-5.3,33.2-10.5,49.8-15.7
	c1.9-0.6,3.2-1.5,3.7-3.6c0.4-1.6,1.4-3.2,2.3-4.6c0.4-0.6,1.4-1.1,2.2-1.3c1.5-0.5,2.4-1.4,2.9-2.9c1.5-4.4,3-8.8,4.5-13.1
	c0.5-1.3,1-2.6,1.7-3.9c0.4-0.6,1.1-1.3,1.8-1.5c1.8-0.6,2.7-1.8,3.1-3.6c0.5-2.1,1.1-4.2,1.8-6.2c0.2-0.6,0.6-1.2,1-1.7
	c0,0.5-0.1,0.9-0.2,1.4c-1.4,5.1-2.8,10.1-4.2,15.3c-2.4,7.8-4.7,15.4-7,23c-0.5,1.8-1.5,3-3.3,3.6c-0.6,0.2-1.3,0.9-1.6,1.6
	c-1.8,4.7-3.4,9.4-5.3,14c-0.7,1.9-1.5,4.5-3,5.1c-2.5,1.1-3.5,2.9-4.6,4.9c-0.5,0.9-0.7,2-1.3,2.8c-0.8,1-1.8,2.2-2.9,2.6
	c-12.6,4.1-25.3,8-37.9,12c-13.7,4.3-27.4,8.7-41.1,13c-1.3,0.4-2.7,0.5-4,0.8C0.1,359.4,0.1,349.7,0.1,339.9z"/>
<path class="st5" d="M134,205c-3.4,1.4-5.6,3.8-6.7,7.4c-2,6.8-4.2,13.5-6.4,20.2c-0.5,1.6-1.3,3.1-2.1,4.5
	c-0.3,0.6-1.2,0.8-1.8,1.2c-0.9,0.7-1.9,1.2-2.4,2.1c-1,1.9-1.8,3.9-2.5,5.9c-0.5,1.5-1.5,2.3-3,2.8c-14.4,4.5-28.7,9.1-43.1,13.6
	c-14.5,4.6-29.1,9.2-43.6,13.8c-6.7,2.1-13.3,4.2-20,6.3c-0.6,0.2-1.3,0.2-2.1,0.4c-0.2-7.1-0.2-14.2-0.2-21.4
	c3.6-1.3,7.1-2.3,10.7-3.4c13.3-4.2,26.7-8.5,40-12.7c17.4-5.5,34.7-11,52.1-16.5c4.4-1.4,8.7-2.8,13.1-4.1c1.3-0.4,2-1.2,2.4-2.5
	c1.1-3.1,2.3-6.1,3.7-9.1c0.3-0.7,1-1.5,1.7-1.6c3.2-0.6,3.8-3.3,4.6-5.8c2.6-8.5,5-17,7.5-25.4c0.5-1.6,1.3-3,2.1-4.5
	c0.2-0.4,0.8-0.8,1.2-1c1-0.6,2.1-1,3.3-1.4c-1,4.4-2.1,8.8-3.3,13C137.5,192.8,135.7,198.9,134,205z"/>
<path class="st6" d="M545.5,139.5c3.7,1.8,6.6,4.5,8.8,7.9c2.6,4,4.4,8.4,4.1,13.3c-0.2,2.8-1.2,5.7-1.9,8.4
	c-4,15.2-8.1,30.4-12.2,45.6c-1.1,4.2-2.3,8.3-3.5,12.5c-2.8,10.5-5.6,21-8.4,31.5c-2.5,9.4-5.1,18.7-7.6,28.1
	c-0.9,3.2-1.8,6.5-2.9,9.9c-1.7,1.4-3.3,2.7-4.9,3.7c-1.8,1.2-3.7,2-5.4,3.2c-1.6,1.1-3.1,2.5-4.6,3.8c-5.6,4.7-11.2,9.3-16.8,14
	c-5.6,4.6-11.1,9.3-16.6,13.9c-7.1,5.9-14.2,11.9-21.4,17.7c-1.7,1.4-3.5,2.7-5.3,3.8c0-6.4,0-12.6,0-18.9c0-0.3,0-0.5,0.1-0.6
	c6.3-5.1,12.5-10.2,18.7-15.3c5.6-4.6,11.1-9.3,16.6-13.9c5.6-4.7,11.2-9.3,16.8-13.9c5.7-4.8,11.4-9.7,17.3-14.3
	c3.2-2.5,5.3-5.5,6-9.6c0.3-2.2,1.2-4.4,1.8-6.6c0.2-0.8,0.6-1.5,0.8-2.3c2-7.5,4-14.9,6-22.5c1.6-5.7,3.1-11.3,4.6-16.9
	c1.6-6.1,3.1-12.2,4.8-18.4c1.1-4,2.2-7.8,3.3-11.7c0.5-2,1-4.1,1.6-6.2c0.4-1.4,0.7-2.7,1.1-4c1.6-5.9,3.2-11.9,4.9-17.9
	c0.3-1.7,0.9-3.4,0.8-4.9c-0.5-5.4-3.4-9.5-7.5-13c-0.1-1.7-0.2-3.2-0.4-4.7C543.9,140.3,544.4,139.7,545.5,139.5z"/>
<path class="st7" d="M0.1,369.3c1.4-0.4,2.7-0.6,4-1c13.7-4.3,27.4-8.7,41.1-13c12.6-4,25.3-7.9,37.9-12c1.1-0.4,2.1-1.6,2.9-2.6
	c0.6-0.8,0.8-1.9,1.3-2.8c1.1-2,2.1-3.9,4.6-4.9c1.5-0.6,2.2-3.2,3-5.1c1.8-4.6,3.5-9.4,5.3-14c0.3-0.7,0.9-1.4,1.6-1.6
	c1.9-0.6,2.8-1.8,3.3-3.6c2.3-7.6,4.6-15.3,7.1-23.1c0.8-1,1.2-2.1,2-2.7c1.3-0.9,2.8-1.5,4.2-2c-0.2,1.2-0.5,2.2-0.8,3.3
	c-0.8,2.6-1.4,5.1-2.2,7.6c-1,3.3-2,6.5-3.1,9.8c-1.3,1.7-2.3,3.7-4.6,4.2c-0.3,0.1-0.6,0.6-0.8,1c-0.7,1.6-1.5,3.1-2,4.8
	c-2.2,7.6-4.4,15.2-6.6,22.9c-0.1,0.8-0.2,1.4-0.5,2.1c-0.4,0.4-0.6,0.7-0.8,1.1c-1.2,2.3-1.5,5.3-4.9,5.9c-0.6,0.1-1.2,1.2-1.5,2
	c-1.6,4.5-2.8,9.1-4.6,13.5c-0.8,2-1.2,4.7-4,5.4c-2.3,0.5-3.5,2-4.5,4.1c-0.3,0.6-1,1.3-1.7,1.5c-10,3.2-19.9,6.3-29.9,9.4
	c-13.7,4.3-27.4,8.7-41,13c-1.3,0.4-2.7,0.5-4,0.7C-0.6,385.1,0.3,377.3,0.1,369.3z"/>
<path class="st8" d="M446.9,357.2c1.8-1.3,3.6-2.6,5.3-4c7.2-5.9,14.3-11.8,21.4-17.7c5.6-4.6,11.1-9.3,16.6-13.9
	c5.6-4.7,11.2-9.3,16.8-14c1.5-1.3,3-2.6,4.6-3.8c1.7-1.2,3.7-2.1,5.4-3.2c1.6-1.1,3.1-2.4,4.8-3.6c0,0.5-0.1,1-0.3,1.8
	c-0.2,0.3-0.2,0.4-0.3,0.5c0,0.4-0.1,0.9-0.3,1.4c-0.3,0.6-0.3,1-0.4,1.5c-0.2,0.8-0.3,1.6-0.7,2.5c-1.7,1.1-3.1,2-4.5,3.1
	c-0.3-1.3-0.6-2.2-0.9-3.2c-0.2,0-0.4-0.1-0.6-0.1c-0.5,1-1.1,2-1.3,3c-1.2,4.5-2.3,9.1-3.5,13.7c-1,3.8-2.2,7.5-3.3,11.1
	c-0.1-0.9-0.1-1.8-0.1-2.9c-0.9,0.6-1.5,1-2.1,1.5c-4.1,3.4-8.1,6.9-12.2,10.3c-7.1,5.9-14.2,11.7-21.2,17.6c-7,5.8-14,11.8-21,17.6
	c-0.5,0.4-1.3,0.5-2,0.6C446.9,370.1,446.9,363.7,446.9,357.2z"/>
<path class="st9" d="M0.9,393.1c1.3-0.4,2.7-0.4,4-0.8c13.7-4.3,27.4-8.7,41-13c10-3.2,20-6.2,29.9-9.4c0.7-0.2,1.4-0.9,1.7-1.5
	c0.9-2,2.2-3.5,4.5-4.1c2.8-0.7,3.1-3.4,4-5.4c1.8-4.4,3.1-9,4.6-13.5c0.3-0.8,0.9-1.9,1.5-2c3.4-0.6,3.7-3.6,4.9-5.9
	c0.2-0.4,0.5-0.7,0.8-1c-0.3,1.3-0.6,2.5-1,3.7c-2.6,8.1-5.2,16.2-7.8,24.4c-0.4,1.4-1.3,2.1-2.6,2.6c-0.9,0.3-1.8,1-2.2,1.8
	c-1.5,3-2.8,6.2-4.2,9.3c-0.6,1.4-1.3,2.4-2.9,2.8c-1.6,0.4-3.1,1.2-3.6,2.9c-0.4,1.5-1.5,2.2-2.8,2.6c-6.8,2.2-13.7,4.4-20.5,6.6
	c-14.3,4.5-28.7,9-43,13.6c-3.1-3.8-5-8.2-5.9-13C1.1,393.5,1,393.4,0.9,393.1z"/>
<path class="st10" d="M112.4,301.4c1-3.2,2-6.5,3-9.7c0.7-2.5,1.4-5,2.3-7.7c1.3-2.2,2.6-4.1,3.5-6.3c1-2.5,1.6-5.1,2.1-7.7
	c0.6-2.8,2.7-4.1,4.7-5.4c-3.5,12.5-6.9,24.9-10.5,37.3c-2.2,7.7-4.5,15.5-6.8,23.1c-0.9,2.8-2,5.4-3.2,8.1
	c-0.3,0.6-1.1,0.9-1.6,1.4c-0.9,0.9-2.3,1.6-2.7,2.6c-1.2,3.2-2.1,6.4-3.1,9.7c-3.3,10.8-6.5,21.6-9.9,32.3
	c-0.8,2.5-1.9,5.2-5.1,6.1c-0.9,0.2-1.6,1.3-2.2,2.1c-2.1,3.3-3.9,6.8-6.1,10c-2.6,3.8-5.1,7.8-8.3,11.1c-3.9,4-8.5,7.3-12.8,10.9
	c-0.8,0.7-1.6,1.4-2.5,2.2c-0.2,0.1-0.2,0.2-0.3,0.3c-6.5,0-13,0.3-19.5,0c-5.7-0.3-11-2.2-15.8-5.3c-0.5-0.3-1-0.5-1.4-0.9
	c4.4-1.5,8.7-2.7,13-4.1c11.9-3.7,23.9-7.5,35.8-11.3c0.5-0.2,1-0.4,1.5-0.8c2.4-1.9,4.4-4.3,6.9-6.3c2-1.6,3-4.4,4.4-6.7
	c1.5-2.5,2.5-5.5,5.6-6.7c0.8-0.3,1.5-1.3,1.9-2.1c0.8-1.7,1.5-3.5,2.1-5.4c2.2-6.8,4.4-13.7,6.6-20.5c0.5-1.4,1.2-2.4,2.7-3.1
	c0.9-0.4,1.7-1.4,2.1-2.3c1.3-3.1,2.6-6.3,3.7-9.5c1.2-3.6,2.1-7.4,3.2-11.2c1.5-5.3,3-10.5,4.4-15.6
	C111,307.3,111.7,304.3,112.4,301.4z"/>
<path class="st11" d="M105.7,325.9c-1,3.7-2,7.4-3.2,11c-1.1,3.2-2.3,6.4-3.7,9.5c-0.4,0.9-1.2,1.9-2.1,2.3
	c-1.5,0.7-2.2,1.6-2.7,3.1c-2.2,6.8-4.4,13.7-6.6,20.5c-0.6,1.8-1.3,3.6-2.1,5.4c-0.4,0.8-1.1,1.8-1.9,2.1c-3.1,1.2-4.1,4.2-5.6,6.7
	c-1.4,2.3-2.4,5.1-4.4,6.7c-2.4,2-4.4,4.4-6.9,6.3c-0.4,0.3-0.9,0.6-1.5,0.8c-11.9,3.8-23.8,7.6-35.8,11.3
	c-4.3,1.4-8.6,2.6-13.1,3.9c-2.9-2.6-5.8-5.2-8.7-8.1c-0.1-0.3-0.2-0.4-0.3-0.5c0-0.1,0-0.1-0.1-0.3c14.3-4.6,28.7-9.1,43-13.6
	c6.8-2.2,13.7-4.4,20.5-6.6c1.4-0.4,2.4-1.1,2.8-2.6c0.5-1.7,2-2.5,3.6-2.9c1.6-0.4,2.3-1.4,2.9-2.8c1.3-3.1,2.7-6.2,4.2-9.3
	c0.4-0.8,1.3-1.5,2.2-1.8c1.4-0.5,2.2-1.2,2.6-2.6c2.6-8.1,5.2-16.2,7.8-24.4c0.4-1.2,0.7-2.4,1.1-3.7c0.1-0.8,0.3-1.4,0.5-2.3
	c0.5-1,0.9-1.8,1.4-2.5c0.7-0.9,1.5-1.7,2.3-2.5c0.8-0.8,1.7-1.6,2.6-2.3C105,326.6,105.4,326.3,105.7,325.9z"/>
<path class="st6" d="M505.7,332.3c1.1-3.7,2.2-7.4,3.3-11.2c1.2-4.5,2.3-9.1,3.5-13.7c0.3-1,0.9-2,1.3-3c0.2,0,0.4,0.1,0.6,0.1
	c0.3,1,0.5,1.9,0.9,3.2c1.5-1,2.9-2,4.4-3c-1.1,4.6-2.1,9.2-3.5,13.7c-2.1,6.6-3.3,13.4-5.3,20c-2.1,7.1-4,14.3-5.9,21.4
	c-1.8,6.8-3.5,13.6-5.3,20.4c-1.3,4.9-2.6,9.8-4.5,14.5c-2.6,6.3-7.4,11-12.4,15.4c-0.1-2.3-0.1-4.5-0.1-6.6
	c-1.1,0.4-1.9,0.6-2.5,0.8c1.6-1.8,3.3-3.5,4.8-5.3c2.8-3.4,5.1-7,6.2-11.3c1.7-6.3,3.4-12.5,5-18.8c1.1-4.3,2.2-8.6,3.4-13
	c1.3-4.6,2.5-9.2,3.7-13.7C504,339,504.8,335.6,505.7,332.3z"/>
<path class="st2" d="M294,121.7c1.5,0,3,0,4.8,0c37.2,0,74,0,110.8,0c0,1.5,0,3-0.1,4.7c-9.9,0.2-19.5,0.2-29.4,0.2
	c-32.7,0-65.2,0-97.6-0.1c0.6-0.4,1.2-0.8,1.8-1c2.7-0.9,5.4-1.7,8.1-2.6C293,122.7,293.5,122.1,294,121.7z"/>
<path class="st5" d="M409.6,121.5c-36.8,0.2-73.7,0.2-110.7,0.2c0.2-0.3,0.6-0.8,1.1-0.9c5.5-1.8,11-2.9,16.8-3.3
	c22-1.3,43.9-0.2,65.9-0.6c8-0.1,15.9,0,23.9,0c0.8,0,1.6-0.2,2.5-0.3C409.4,118.1,409.6,119.7,409.6,121.5z"/>
<path class="st12" d="M409.6,131.7c0,1.5,0,3,0,4.6c0,0.2-0.1,0.2-0.2,0.2c-11.7,0-23.2,0-34.9,0c-18.5,0-36.9,0-55.2-0.2
	c0.5-0.4,0.9-0.8,1.4-1c2.8-0.9,5.6-1.7,8.3-2.6c0.6-0.2,1.2-0.7,1.9-1.1c0.9,0,1.7,0,2.6,0C359,131.7,384.3,131.7,409.6,131.7z"/>
<path class="st7" d="M409.6,131.6c-25.3,0.2-50.6,0.2-76,0c0.2-0.3,0.5-0.6,0.8-0.6c2.9-0.3,5.9-0.5,8.8-0.8
	c1.9-0.2,3.8-0.3,5.6-0.9c4.2-1.4,8.5-2,12.9-2c5.5,0,10.9,0,16.4,0c0.7,0,1.4-0.5,2.1-0.7c9.7,0,19.3,0,29.2,0
	C409.6,128.1,409.6,129.8,409.6,131.6z"/>
<path class="st13" d="M480,404.4c0.7-0.3,1.5-0.5,2.6-0.9c0,2.1,0,4.3,0,6.6c-6.6,6-14.2,9.9-22.8,11.3c-4.9,0.8-10.1,0.4-15.3,0.3
	c-1-2.2-1.9-4.2-2.6-6.2c1.8,0,3.4,0,5.2,0c2,0,3.8,0,5.6,0c6.7,0.1,13-1.7,18.7-5.2C474.3,408.6,477.1,406.5,480,404.4z"/>
<path class="st14" d="M437.6,136.6c13.6,0,27.3,0,41.1,0.1c-1.3,1.6-2.8,3-4.3,4.5c0.1,0.2,0.1,0.4,0.2,0.6c1.1,0,2.2-0.1,3.2,0
	c0.6,0.1,1.2,0.7,1.6,1.1c-11,0-21.8,0-32.8,0c-3.2,0-6.1,0-9.1-0.2C437.6,140.6,437.6,138.6,437.6,136.6z"/>
<path class="st15" d="M479.6,142.9c-0.6-0.4-1.2-1-1.8-1.1c-1-0.2-2.1,0-3.2,0c-0.1-0.2-0.1-0.4-0.2-0.6c1.5-1.4,2.9-2.9,4.4-4.4
	c12.1-0.1,24.1-0.2,36.3,0c0.2,0.8,0.2,1.4,0.2,2c-0.1,1.4,0.1,2.3,1.9,2.3c0.9,0,1.7,1.1,2.4,1.7c-12.3,0-24.5,0-36.8,0
	C481.6,142.9,480.6,142.9,479.6,142.9z"/>
<path class="st16" d="M442,421.9c-0.8,0-1.5,0-2.6-0.1c-1-0.2-1.8-0.2-2.5-0.2c-11.2,0-22.4,0-33.6-0.2c0.2-2,0.5-3.9,0.9-5.8
	c5.8,0,11.4,0,17.1,0c2.4,0,4.6,0,7.1,0c2.4,0,4.7,0,7,0c0.3,0,0.5,0,0.6,0.1c0.3,0.7,0.6,1.4,1,1.8
	C438.7,419,440.4,420.4,442,421.9z"/>
<path class="st13" d="M519.8,142.9c-0.8-0.6-1.7-1.7-2.5-1.7c-1.8-0.1-2.1-0.9-1.9-2.3c0.1-0.6,0-1.2,0-2c7.1-0.2,14.2-0.5,21.3-0.1
	c2.9,0.2,5.8,1.7,8.8,2.7c-1,0.3-1.6,0.9-1.5,2c0.1,1.5,0.2,3,0.3,4.6c-1.9-0.7-3.7-1.6-5.6-2.4c-1.9-0.3-3.6-0.7-5.3-0.7
	C528.8,142.8,524.3,142.9,519.8,142.9z"/>
<path class="st17" d="M53.1,421.9c-0.1-0.1-0.1-0.2,0.3-0.3c1.2-0.2,2.3-0.3,3.4-0.4c0.2,0,0.2,0,0.4,0.1c0.8,0.1,1.5,0.2,2.2,0.2
	c41.5,0,83.1,0,124.8,0c29.9,0,59.7,0,89.7,0c7.1,0,14.1,0,21,0.1c0,0.1,0,0.2,0,0.2c-0.4,0-0.7,0.1-1.1,0.1
	C213.5,421.9,133.4,421.9,53.1,421.9z"/>
<path class="st18" d="M437.4,136.6c0.2,2,0.2,4,0.2,6.1c0,0.2,0,0.2-0.2,0.2c-3.2,0-6.1,0-9.1-0.2c0-2.1,0-4.1,0-6.1
	C431.3,136.6,434.2,136.6,437.4,136.6z"/>
<path class="st19" d="M428.1,136.6c0.2,2,0.2,4,0.2,6.1c0,0.2,0,0.2-0.2,0.2c-3.2,0-6.1,0-9.1-0.2c0-2.1,0-4.1,0-6.1
	C422,136.6,424.9,136.6,428.1,136.6z"/>
<path class="st16" d="M418.8,136.6c0.2,2,0.2,4,0.2,6.1c0,0.2,0,0.2-0.2,0.2c-3.2,0-6.1,0-9.1-0.2c0-2.1,0-4.1-0.1-6.1
	c0,0,0,0,0.1-0.1C412.7,136.5,415.7,136.6,418.8,136.6z"/>
<path class="st20" d="M294.9,421.9c-0.2,0-0.2-0.2,0-0.3c36.3-0.1,72.4-0.1,108.5-0.1c11.2,0,22.4,0,33.6,0c0.7,0,1.5,0.1,2.3,0.2
	c-0.2,0.1-0.6,0.1-1,0.1C390.6,421.9,342.8,421.9,294.9,421.9z"/>
<path class="st21" d="M442.2,421.9c-1.8-1.5-3.5-2.9-5.1-4.4c-0.5-0.4-0.7-1.1-0.9-1.8c1.8-0.1,3.4-0.1,5.1-0.1c0.2,0,0.2,0,0.3,0
	c0.8,2,1.7,4,2.6,6.1C443.6,421.9,443,421.9,442.2,421.9z"/>
<path class="st6" d="M520.7,302.1c-0.1-0.4,0-0.9,0.1-1.4C520.9,301.1,520.9,301.6,520.7,302.1z"/>
<path class="st9" d="M7.2,407.2c0.1,0,0.2,0.1,0.3,0.2C7.4,407.4,7.3,407.3,7.2,407.2z"/>
<path class="st6" d="M521.4,299.2c-0.1-0.1,0-0.2,0.1-0.3C521.6,298.9,521.5,299,521.4,299.2z"/>
<path class="st22" d="M293.8,121.7c-0.3,0.4-0.8,1-1.4,1.2c-2.7,0.9-5.4,1.7-8.1,2.6c-0.6,0.2-1.2,0.6-2,1
	c-27.7,0.1-55.2,0.1-82.7,0.2c-3,0-6,0.4-9,1c-9.8,2.1-18.4,6.5-25.9,13c-6.2,5.4-11,11.7-13.1,19.8c-0.7,2.6-1.5,5.2-2.4,7.8
	c-2.3,1.1-4.9,1.5-5.6,4.5c0,0.2-0.4,0.2-0.6,0.3c2.5-8.3,3.7-17,8.3-24.5c3.6-5.8,8.2-10.5,13.6-14.5c7.4-5.5,15.6-9.4,24.6-11.2
	c2.8-0.6,5.6-1,8.4-1C229.8,121.7,261.7,121.7,293.8,121.7z"/>
<path class="st2" d="M142.9,173.1c0.3-0.2,0.6-0.3,0.7-0.4c0.6-2.9,3.3-3.4,5.6-4.3c-0.1,1.1-0.4,2.2-0.7,3.2
	c-1.7,6.5-3.4,12.9-5.2,19.5c-2.3,8-4.4,15.8-6.6,23.8c-0.1,0.4-0.2,0.7-0.5,1c-0.5,0.5-0.8,1.1-1.2,1.6c-0.4,0.5-0.7,1.2-1.2,1.5
	c-1.2,0.7-2.5,1.2-3.8,1.8c1.3-4.9,2.6-9.7,3.9-14.6c0.1-0.2,0.1-0.5,0.1-0.9c1.7-6.3,3.5-12.4,5.2-18.6c1.2-4.3,2.3-8.6,3.4-13.1
	C142.7,173.3,142.7,173.3,142.9,173.1z"/>
<path class="st23" d="M118.4,280.6c-1.4,0.7-2.9,1.3-4.2,2.2c-0.8,0.6-1.3,1.7-2,2.6c1.3-5,2.6-10.1,4-15.2c0.1-0.4,0.2-0.8,0.3-1.4
	c1.2-4.5,2.5-8.9,3.8-13.4c0.8-1.8,1.4-3.4,2.1-5.1c0.4-0.9,0.6-2.3,1.3-2.5c2-0.7,3.6-1.8,4.7-3.5c-2.1,7.9-4.2,15.6-6.4,23.3
	c-0.5,1.5-0.9,3-1.4,4.6c-0.2,1.2-0.5,2.2-0.8,3.2c-0.2,0.3-0.2,0.5-0.3,0.8c0,0.3,0,0.5-0.1,0.7c-0.3,0.6-0.5,1.2-0.6,2
	C118.6,279.5,118.5,280,118.4,280.6z"/>
<path class="st4" d="M128.4,244.1c-1.1,1.9-2.7,2.9-4.7,3.7c-0.6,0.2-0.9,1.6-1.3,2.5c-0.7,1.6-1.3,3.2-2.1,4.9
	c1.6-6.1,3.3-12.2,5.1-18.4c1.5-5.4,2.9-10.6,4.4-16c1.3-0.7,2.6-1.2,3.8-1.9c0.5-0.3,0.8-1,1.2-1.5c0.4-0.5,0.7-1,1.2-1.4
	c-0.4,2-0.9,3.8-1.4,5.7C132.6,229.1,130.5,236.6,128.4,244.1z"/>
<path class="st24" d="M538.8,143.6c1.8,0.8,3.6,1.6,5.5,2.5c4.3,3.4,7.2,7.5,7.6,12.9c0.1,1.6-0.4,3.2-0.9,4.9c-1,0.6-1.9,1-2.7,1.6
	c-1.9,1.5-3.7,3.1-5.5,4.7c-5.6,4.7-11.2,9.3-16.8,14c-5.6,4.6-11.1,9.3-16.6,13.9c-6.3,5.3-12.7,10.5-19,15.7
	c-6.3,5.3-12.6,10.6-18.9,15.8c-6.4,5.3-12.8,10.7-19.3,16c-1.7,1.4-3.5,2.7-5.3,3.8c0-9.7,0-19.3,0.1-28.9c0.9-0.5,1.7-1,2.4-1.6
	c8.5-7.1,17-14.3,25.6-21.4c9.9-8.3,19.9-16.4,29.8-24.7c10.4-8.6,20.8-17.3,31.2-26C537.1,146,537.8,144.8,538.8,143.6z"/>
<path class="st13" d="M531,239.3c-2,7.5-4,14.9-6,22.4c-0.2,0.8-0.6,1.5-0.8,2.3c-0.6,2.2-1.5,4.3-1.8,6.6c-0.6,4.1-2.7,7-6,9.6
	c-5.9,4.6-11.5,9.5-17.3,14.3c-5.6,4.7-11.2,9.3-16.8,13.9c-5.5,4.6-11.1,9.3-16.6,13.9c-6.2,5.1-12.4,10.2-18.7,15.1
	c-0.1-9.6-0.1-19,0-28.5c0.9-0.5,1.8-0.8,2.5-1.4c4.8-4,9.6-8.1,14.5-12.1c7.1-5.9,14.2-11.7,21.2-17.6c7.1-5.9,14.1-11.8,21.2-17.7
	c6.5-5.5,13.1-10.9,19.6-16.4C527.7,242.2,529.3,240.7,531,239.3z"/>
<path class="st15" d="M545.1,186.1c-0.5,2-0.9,4.1-1.5,6.1c-1,3.9-2.1,7.7-3.4,11.7c-0.6,0.7-1.1,1.2-1.3,1.7
	c-0.6,2.3-1.1,4.7-1.7,7c-0.3,1-0.8,2-1.6,2.7c-4.4,3.8-9,7.5-13.5,11.3c-5.6,4.7-11.2,9.3-16.8,14c-5.5,4.6-11.1,9.3-16.6,13.9
	c-6.2,5.1-12.4,10.2-18.6,15.3c-6.3,5.3-12.6,10.6-18.9,15.8c-1.3,1.1-2.9,1.9-4.4,2.7c0-7.3,0-14.3,0.1-21.4
	c1.4-0.9,2.7-1.6,3.9-2.6c6.2-5.1,12.4-10.2,18.6-15.4c5.6-4.6,11.1-9.3,16.6-13.9c5.6-4.7,11.2-9.3,16.8-14
	c5.5-4.6,11.1-9.3,16.6-13.9c6.5-5.4,13-10.8,19.5-16.2C541,189.2,543.1,187.6,545.1,186.1z"/>
<path class="st25" d="M446.9,288.4c1.5-0.9,3.1-1.7,4.4-2.9c6.3-5.2,12.6-10.5,18.9-15.8c6.2-5.1,12.4-10.2,18.6-15.3
	c5.6-4.6,11.1-9.3,16.6-13.9c5.6-4.7,11.2-9.3,16.8-14c4.5-3.7,9-7.5,13.5-11.3c0.7-0.6,1.3-1.7,1.6-2.7c0.7-2.3,1.1-4.7,1.7-7
	c0.2-0.6,0.7-1.1,1.2-1.6c-1.4,6.1-3,12.2-4.6,18.3c-1.5,5.6-3,11.2-4.6,16.9c-1.7,1.6-3.3,3.1-5,4.5c-6.5,5.5-13.1,10.9-19.6,16.4
	c-7.1,5.9-14.1,11.8-21.2,17.7c-7.1,5.9-14.2,11.7-21.2,17.6c-4.8,4-9.6,8.1-14.5,12.1c-0.7,0.6-1.6,0.9-2.5,1.2
	c-0.1-6.5-0.1-12.8-0.1-19.3C446.9,288.9,446.9,288.6,446.9,288.4z"/>
<path class="st26" d="M545.2,185.9c-2.1,1.7-4.2,3.2-6.2,4.9c-6.5,5.4-13,10.8-19.5,16.2c-5.5,4.6-11.1,9.3-16.6,13.9
	c-5.6,4.7-11.2,9.3-16.8,14c-5.6,4.6-11.1,9.3-16.6,13.9c-6.2,5.1-12.3,10.3-18.6,15.4c-1.2,1-2.5,1.7-3.9,2.4
	c-0.1-5.8-0.1-11.3-0.1-16.9c1.8-1.3,3.6-2.6,5.3-4c6.4-5.3,12.9-10.6,19.3-16c6.3-5.3,12.6-10.6,18.9-15.8
	c6.3-5.3,12.7-10.5,19-15.7c5.6-4.6,11.1-9.3,16.6-13.9c5.6-4.7,11.2-9.3,16.8-14c1.9-1.5,3.7-3.1,5.5-4.7c0.8-0.6,1.7-1,2.6-1.5
	c-1.5,5.9-3.1,11.9-4.7,17.8C545.9,183.2,545.6,184.5,545.2,185.9z"/>
<path class="st27" d="M441.8,415.6c-0.2,0-0.3,0-0.5-0.2c-0.3-0.9-0.5-1.6-0.7-2.3c-1.9-6.2-3.1-12.6-3.1-19.2
	c-0.1-19.2,0-38.4,0-57.8c0-0.3,0-0.5,0.1-0.6c2.7-2,5.3-3.9,8.4-6.2c0,2.7-0.1,4.9,0,7c0,0.6,0.5,1.2,0.7,1.9c0,6.2,0,12.4,0,18.8
	c0,6.6,0,13.1,0,19.9c0,6.7,0,13,0,19.5c0,6.5,0,12.8,0,19.2C445.3,415.6,443.6,415.6,441.8,415.6z"/>
<path class="st21" d="M446.9,338.1c-0.2-0.5-0.7-1.1-0.7-1.7c-0.1-2.1,0-4.3,0-7c-3.1,2.3-5.7,4.3-8.4,6.1
	c-0.1-16.2-0.1-32.2,0-48.2c2.7-2,5.2-4,7.8-6c0.2,0.1,0.4,0.2,0.6,0.3c0,2-0.1,4.1,0,6.1c0,0.6,0.5,1.2,0.7,1.9
	c0,6.3,0,12.7,0,19.2c0,9.6,0,19,0,28.6C446.9,337.6,446.9,337.8,446.9,338.1z"/>
<path class="st9" d="M128.4,244.2c2.1-7.6,4.2-15.1,6.3-22.6c0.5-1.8,1-3.7,1.5-5.7c0.1-0.4,0.3-0.7,0.5-1.2
	c2.2-1.2,4.8-1.6,5.5-4.4c0.1-0.2,0.5-0.3,0.7-0.3c-2,7.5-4,14.8-6,22.1c-1,3.9-2,7.7-3,11.7c-2,7-3.9,13.9-5.9,20.7
	c-2.1,1.4-4.2,2.7-4.8,5.5c-0.5,2.6-1.2,5.2-2.1,7.7c-0.8,2.1-2.2,4.1-3.4,6.1c0.1-1,0.4-2,0.6-3.2c0.1-0.7,0.3-1.2,0.5-2
	c0.3-0.8,0.5-1.3,0.7-1.9c0-0.2,0-0.3,0.1-0.7c0.1-0.4,0.2-0.6,0.3-0.8c0.2-1,0.5-2,0.8-3.3c0.5-1.7,1-3.1,1.4-4.5
	C124.2,259.8,126.3,252.1,128.4,244.2z"/>
<path class="st9" d="M105.8,325.8c-0.4,0.4-0.7,0.8-1.1,1.1c-0.9,0.8-1.8,1.5-2.6,2.3c-0.8,0.8-1.6,1.6-2.3,2.5
	c-0.5,0.7-0.9,1.6-1.4,2.4c2.1-7.5,4.2-15.1,6.4-22.7c0.5-1.6,1.3-3.2,2-4.8c0.2-0.4,0.5-0.9,0.8-1c2.3-0.6,3.3-2.5,4.6-4.2
	c-0.6,2.9-1.3,5.8-2.1,8.8C108.8,315.4,107.3,320.5,105.8,325.8z"/>
<path class="st28" d="M446.9,396.3c0-6.3,0-12.7,0-19.2c0.7-0.4,1.5-0.5,2-1c7-5.8,14-11.7,21-17.6c7.1-5.9,14.2-11.7,21.2-17.6
	c4.1-3.4,8.1-6.8,12.2-10.3c0.6-0.5,1.3-0.9,2.1-1.5c0,1.2,0,2,0.1,2.9c-0.8,3.4-1.6,6.8-2.4,10.1c-1.2,4.5-2.4,9.1-3.8,13.6
	c-0.3-0.4-0.5-0.7-0.7-1.3c-0.7,0.4-1.3,0.8-1.8,1.2c-7,5.8-13.9,11.6-20.9,17.4c-8.1,6.8-16.2,13.5-24.3,20.2
	C450.3,394.6,449.2,396.5,446.9,396.3z"/>
<path class="st29" d="M128,264.7c1.9-7,3.9-13.9,6-20.9c0.5-0.3,0.9-0.4,0.9-0.6c0.7-2.6,2.9-2.7,4.9-3c-1.5,5.5-2.9,10.9-4.4,16.4
	c-5.2,18.9-10.4,37.6-15.7,56.3c-1.1,4-2.4,8.1-3.7,12.1c-2.9,0.1-4.6,1.3-5.4,4.1c-1.5,5.2-3.2,10.3-4.7,15.4
	c-2,6.8-4,13.5-5.9,20.3c-2.8,10.1-5.9,20.2-11.2,29.4c-1.9,3.2-3.7,6.4-7.7,7.6c-1,0.3-1.9,1.1-2.7,1.9c-2.6,2.5-5.1,5.3-7.8,7.7
	c-3.8,3.5-7.7,6.7-12.6,8.6c-0.6,0.2-1,0.8-1.5,1.2c-1,0.1-2,0.3-3.2,0.4c0.7-0.7,1.5-1.5,2.3-2.2c4.3-3.6,8.9-6.9,12.8-10.9
	c3.2-3.3,5.7-7.3,8.3-11.1c2.2-3.2,4-6.7,6.1-10c0.5-0.9,1.3-1.9,2.2-2.1c3.2-0.9,4.3-3.6,5.1-6.1c3.5-10.7,6.6-21.5,9.9-32.3
	c1-3.2,1.9-6.5,3.1-9.7c0.4-1.1,1.8-1.8,2.7-2.6c0.5-0.5,1.3-0.8,1.6-1.4c1.2-2.6,2.4-5.3,3.2-8.1c2.4-7.7,4.6-15.4,6.8-23.1
	C121.1,289.6,124.5,277.2,128,264.7z"/>
<path class="st30" d="M446.9,396.4c2.3,0.1,3.4-1.8,4.8-3c8.2-6.7,16.2-13.4,24.3-20.2c7-5.8,13.9-11.6,20.9-17.4
	c0.5-0.4,1.1-0.7,1.8-1.2c0.2,0.5,0.4,0.9,0.7,1.4c-1,4.4-2.1,8.7-3.2,13c-1.6,6.3-3.3,12.5-5,18.8c-1.1,4.3-3.5,7.9-6.2,11.3
	c-1.5,1.8-3.1,3.5-4.8,5.3c-2.9,2.1-5.7,4.3-8.7,6.1c-5.7,3.5-12,5.2-18.7,5.2c-1.8,0-3.6,0-5.6,0
	C446.9,409.3,446.9,402.9,446.9,396.4z"/>
<path class="st23" d="M143.3,190.9c1.7-6.4,3.4-12.9,5.2-19.3c0.3-1,0.5-2,0.8-3.2c0.8-2.8,1.6-5.3,2.3-8
	c2.2-8.1,6.9-14.4,13.1-19.8c7.5-6.6,16.2-11,25.9-13c2.9-0.6,6-1,9-1c27.5-0.1,55,0,82.7,0c32.7,0,65.2,0,97.8,0
	c-0.5,0.2-1.2,0.7-1.9,0.7c-5.5,0.1-10.9,0-16.4,0c-4.4,0-8.7,0.7-12.9,2c-1.8,0.6-3.7,0.7-5.6,0.9c-2.9,0.3-5.9,0.5-8.8,0.8
	c-0.3,0-0.6,0.3-1,0.6c-0.8,0.1-1.6,0.1-2.7,0.1c-44.5,0-88.7,0-132.9,0c-4.5,0-8.7,1-12.8,2.6c-6.3,2.3-12,5.6-17.1,10
	c-5.6,4.8-9.9,10.5-11.8,17.8c-0.8,2.9-1.6,5.8-2.6,8.8c-0.7,0.8-1.4,1.5-1.7,2.4c-1.2,4-2.5,7.9-3.2,11.9
	C148.1,188.4,146.2,190,143.3,190.9z"/>
<path class="st10" d="M153.7,170.8c0.8-2.9,1.7-5.8,2.5-8.7c1.9-7.3,6.2-13,11.8-17.8c5.1-4.4,10.8-7.6,17.1-10
	c4.1-1.5,8.4-2.6,12.8-2.6c44.2,0,88.4,0,132.7,0c-0.4,0.4-1,0.9-1.6,1.1c-2.8,0.9-5.6,1.7-8.3,2.6c-0.5,0.2-0.9,0.6-1.6,1
	c-18.1,0.2-35.9,0.2-54,0.2c-22.6,0-44.9,0-67.3,0c-1.6,0-3.2,0.3-4.8,0.6c-8.3,1.7-15.6,5.5-22,11c-5,4.3-8.6,9.6-10.3,16.2
	c-3,11.7-6.4,23.4-9.8,35.1c-2.3,0.4-4.3,1.3-5.7,2.8c1.5-5.3,2.9-10.5,4.3-15.7C150.9,181.3,152.3,176.1,153.7,170.8z"/>
<path class="st31" d="M265.3,136.6c17.9,0,35.7,0,53.8-0.1c18.5,0,36.9,0,55.4,0.2c0,2.2-0.1,4.1-0.4,6.1c-18.4,0-36.6,0-54.8,0
	c-18.6,0-37.3,0-55.9-0.2C264.1,140.6,264.7,138.6,265.3,136.6z"/>
<path class="st17" d="M374.3,142.9c0.1-2,0.3-4,0.4-6.1c11.5-0.2,23.1-0.2,34.7-0.2c0.2,2,0.2,4,0.2,6.1c0,0.2,0,0.2-0.2,0.2
	C397.7,142.9,386,142.9,374.3,142.9z"/>
<path class="st18" d="M437.6,142.9c3,0,6,0,9.1,0.2c0.2,10.4,0.2,20.5,0.2,30.9c0,13.2,0,26.2-0.1,39.3c-1.9,1.2-3.6,2.3-5.4,3.5
	c-1.2,0.8-2.5,1.6-3.8,2.3C437.6,193.5,437.6,168.2,437.6,142.9C437.6,142.9,437.6,142.9,437.6,142.9z"/>
<path class="st32" d="M446.9,173.8c0-10.2,0-20.4,0-30.7c10.8-0.2,21.6-0.2,32.6-0.2c1.2,0,2.2,0,3.4,0.1c-0.2,0.9-0.5,1.8-1,2.3
	c-2.2,2-4.6,3.9-6.9,5.8c-7.3,6.1-14.6,12.2-22,18.3C450.9,171,448.9,172.3,446.9,173.8z"/>
<path class="st14" d="M446.9,173.9c2-1.6,4.1-2.9,5.9-4.5c7.4-6.1,14.7-12.2,22-18.3c2.3-1.9,4.7-3.8,6.9-5.8
	c0.6-0.5,0.8-1.4,1.2-2.3c12.2-0.1,24.3-0.1,36.7-0.1c4.7,0,9.2-0.1,13.7,0c1.7,0,3.4,0.4,5.3,0.7c-0.8,1.1-1.6,2.4-2.7,3.3
	c-10.4,8.7-20.7,17.4-31.2,26c-9.9,8.2-19.9,16.4-29.8,24.7c-8.5,7.1-17,14.3-25.6,21.4c-0.7,0.6-1.5,1.1-2.4,1.4
	c-0.1-2.5-0.1-4.9-0.1-7.2C446.9,200.2,446.9,187.2,446.9,173.9z"/>
<path class="st33" d="M421.2,415.6c-5.6,0-11.2,0-17.1,0c-43.8,0-87.2,0-130.7,0c-0.5,0-0.9,0-1.3-0.1c1.9-1.9,3.8-3.7,5.7-5.3
	c6.3-5.3,12.6-10.5,18.9-15.7c5.5-4.5,10.9-9.1,16.4-13.6c5.6-4.7,11.2-9.3,16.8-14c5.5-4.6,11.1-9.3,16.6-13.9
	c6.3-5.3,12.7-10.5,19-15.7c6.3-5.3,12.6-10.6,18.9-15.8c7.3-6.1,14.6-12.2,21.9-18.2c1-0.8,2.2-1.4,3.4-1.9c0,12.8,0,25.5,0,38.3
	c0,17.3-0.1,34.4,0,51.5c0,9.4,3.8,17.3,10.8,23.5C420.8,414.8,421,415.2,421.2,415.6z"/>
<path class="st34" d="M273.5,415.6c43.4,0,86.8,0,130.4,0c-0.1,1.9-0.3,3.7-0.6,5.8c-36.1,0.2-72.2,0.2-108.5,0.2
	c-7.1,0-14.1,0-21.2-0.2C273.5,419.3,273.5,417.5,273.5,415.6z"/>
<path class="st35" d="M437.6,336.4c0,19.2,0,38.4,0,57.7c0,6.5,1.2,12.9,3.1,19.2c0.2,0.7,0.4,1.4,0.6,2.3c-1.6,0.1-3.2,0.1-5,0.2
	c-0.3,0-0.5,0-0.8-0.1c-5.9-8.4-7.5-17.8-7.2-27.6c0.1-4.6,0-9.3,0-14.1c0-13.8,0-27.5,0.1-41.1c2.7-1.8,5.2-3.7,8.1-5.7
	c0.1,1,0.3,1.6,0.3,2.2c0,1.8,0,3.7,0,5.5C436.9,335.3,437.3,335.8,437.6,336.4z"/>
<path class="st36" d="M421.4,415.6c-0.4-0.4-0.6-0.8-0.9-1c-7.1-6.3-10.8-14.1-10.8-23.5c-0.1-17.1,0-34.2,0.1-51.5
	c1.2-0.9,2.3-1.5,3.3-2.3c1.5-1.1,2.9-2.3,4.3-3.4c0.2,0.1,0.3,0.2,0.5,0.3c0,2.1-0.1,4.3,0.1,6.4c0,0.6,0.7,1.2,1.1,2
	c0,9.9,0,19.5,0,29.4c0,1.7,0,3.2,0,4.8c0,0.9,0,1.7,0,2.6c0,3.9,0,7.6,0,11.3c-0.1,8.4,2.4,15.9,7.6,22.6c0.6,0.8,1.1,1.6,1.7,2.4
	C426,415.6,423.8,415.6,421.4,415.6z"/>
<path class="st37" d="M428.4,415.6c-0.7-0.8-1.3-1.6-1.9-2.4c-5.2-6.6-7.7-14.2-7.6-22.6c0-3.7,0-7.4,0.1-11.3
	c1.3-0.9,2.5-1.6,3.7-2.3c1.8-1.1,2.9-3.4,5.5-3c0,4.6,0.1,9.3,0,13.9c-0.3,9.9,1.3,19.2,7.1,27.6
	C433.1,415.6,430.9,415.6,428.4,415.6z"/>
<path class="st38" d="M116.2,324.9c1.2-4,2.4-8,3.6-12.1c5.2-18.7,10.4-37.4,15.8-56.3c0.9-1.1,1.6-2,2.4-2.9c1.1,0.2,2.1,0,3.2-0.2
	c0.5-0.1,1-0.2,1.4-0.2c-1.1,4.1-2.1,8.1-3.2,12.1c-3.1,11.4-6.3,22.8-9.5,34.2c-3.9,14-7.7,27.9-11.7,41.9
	c-4.2,14.8-8.3,29.5-12.6,44.3c-3.3,11.6-9.6,21.3-19.1,29c-0.2,0.2-0.4,0.5-0.8,0.9c0.6,0,1,0.1,1.3,0.1c24,0,48,0,72,0
	c10,0,19.9,0,29.9,0.1c-0.3,0.5-0.7,0.8-1,1.2c-1.4,1.5-2.8,3.1-4.2,4.7c-41.5,0-83.1,0-124.6,0c-0.7,0-1.3-0.1-2-0.3
	c3.7-1.1,7.4-1.8,10.9-3.2c15.2-6.2,26.1-16.8,31-32.6c4.5-14.5,8.4-29.1,12.5-43.7C113.2,336.1,114.7,330.5,116.2,324.9z"/>
<path class="st39" d="M116.1,324.9c-1.4,5.6-2.9,11.2-4.4,16.8c-4.1,14.6-8,29.3-12.5,43.7c-4.9,15.9-15.8,26.4-31,32.6
	c-3.5,1.4-7.2,2.1-11,3.1c-0.2,0-0.3,0-0.4,0c0.4-0.4,0.8-1,1.4-1.3c4.9-1.9,8.8-5.2,12.6-8.6c2.7-2.5,5.2-5.2,7.8-7.7
	c0.8-0.8,1.7-1.6,2.7-1.9c4-1.2,5.8-4.4,7.7-7.6c5.3-9.2,8.4-19.3,11.2-29.4c1.9-6.8,3.9-13.6,5.9-20.3c1.5-5.2,3.3-10.3,4.7-15.4
	C111.5,326.2,113.2,325,116.1,324.9z"/>
<path class="st31" d="M184,421.6c1.2-1.6,2.6-3.1,4-4.7c0.3-0.3,0.6-0.7,1.2-1.2c27.7-0.1,55.3-0.1,82.8-0.2c0.4,0,0.8,0,1.3,0
	c0.1,1.9,0.1,3.7,0.1,5.8C243.7,421.6,214,421.6,184,421.6z"/>
<path class="st16" d="M437.4,142.9c0.2,25.3,0.2,50.6,0.2,76.3c0,7.1,0,13.8-0.2,20.5c-0.9,0.3-1.8,0.5-2.4,0.9
	c-2.3,1.6-4.5,3.3-6.7,4.8c0-3,0-5.9,0-8.9c0-31.3,0-62.4,0-93.6c0,0,0,0,0,0C431.3,142.9,434.2,142.9,437.4,142.9z"/>
<path class="st20" d="M428.1,142.9c0.2,31.1,0.2,62.3,0,93.5c-0.3-0.6-0.6-1.3-0.6-1.9c0-4.4,0-8.8,0-13.2c0-0.7-0.2-1.3-0.4-2.4
	c-2,1.6-3.5,2.9-5.2,4.1c-0.9,0.6-1.9,0.9-2.9,1.1c0-27.2,0-54.3,0-81.3c0,0,0,0,0,0C422,142.9,424.9,142.9,428.1,142.9z"/>
<path class="st40" d="M418.8,142.9c0.2,27,0.2,54.1,0.2,81.5c0,10.3,0,20.2-0.1,30.1c-1.3-0.6-2.3-0.5-3.3,0.5
	c-1.8,1.7-3.9,3.1-5.8,4.5c0-1.5,0-2.9,0.1-4.3c1.9-1.2,3.7-2.3,5.4-3.5c1.4-1,2.5-2.2,2.7-4c0.1-0.8-0.2-1.7-0.4-2.6
	c-0.7,0.3-1.6,0.5-2.2,0.9c-1.9,1.4-3.8,2.9-5.7,4.2c0-2,0-3.9,0.1-5.8c1.8-1,3.4-2,5-3.1c1.4-0.9,2.7-2.1,2.8-3.9
	c0-0.6-0.3-1.3-0.5-2c-0.5,0.2-1.1,0.3-1.5,0.7c-2,1.5-4,3.1-5.9,4.4c0-32.7,0-65.2,0-97.7c0,0,0,0,0,0
	C412.7,142.9,415.6,142.9,418.8,142.9z"/>
<path class="st7" d="M153.6,170.8c-1.3,5.2-2.7,10.5-4.1,15.7c-1.4,5.2-2.9,10.4-4.4,15.8c-0.8,2.7-1.5,5.1-2.2,7.5
	c-0.3,0.2-0.7,0.3-0.7,0.5c-0.7,2.8-3.3,3.2-5.5,4.3c2-7.8,4.2-15.7,6.5-23.7c3-0.9,4.9-2.6,5.5-5.8c0.8-4,2.1-8,3.2-11.9
	C152.2,172.4,152.9,171.6,153.6,170.8z"/>
<path class="st7" d="M122,267.6c-0.3,1.4-0.7,2.8-1.3,4.3C121,270.5,121.4,269.1,122,267.6z"/>
<path class="st7" d="M119.4,276.9c-0.1,0.5-0.3,1.1-0.5,1.7C118.9,278.1,119.1,277.5,119.4,276.9z"/>
<path class="st7" d="M119.7,275.4c0,0.2,0,0.4-0.2,0.7C119.5,275.9,119.6,275.6,119.7,275.4z"/>
<path class="st19" d="M437.6,239.6c0-6.7,0-13.4,0-20.3c1.3-1,2.5-1.8,3.8-2.6c1.8-1.2,3.5-2.3,5.4-3.5c0.1,2.4,0.1,4.7,0.1,7.3
	c0,9.7,0,19.3,0,29c0,5.8,0,11.4,0,17.1c0,7.3,0,14.3,0,21.6c0,0.5,0,0.7,0,1.2c-0.2-0.5-0.7-1.1-0.7-1.7c-0.1-2,0-4.1,0-6.1
	c-0.2-0.1-0.4-0.2-0.6-0.3c-2.6,2-5.1,4-7.8,5.9C437.6,271.1,437.6,255.4,437.6,239.6z"/>
<path class="st41" d="M437.4,239.6c0.2,15.8,0.2,31.5,0.2,47.4c0,16.2,0,32.2,0,48.4c0,0.3,0,0.5,0,0.8c-0.2-0.4-0.7-1-0.7-1.6
	c-0.1-1.8,0-3.7,0-5.5c0-0.6-0.2-1.3-0.3-2.2c-2.8,2-5.4,3.8-8.1,5.5c-0.1-9-0.1-17.8-0.1-26.8c0-20.1,0-40.1,0-60.1
	c2.2-1.7,4.4-3.4,6.7-5C435.7,240.1,436.5,239.9,437.4,239.6z"/>
<path class="st12" d="M142.9,210c0.7-2.5,1.4-4.9,2.2-7.5c1.6-1.8,3.5-2.7,5.8-3c-3.6,13.6-7.3,27-11,40.4c-2,0.4-4.3,0.5-5,3.2
	c-0.1,0.2-0.5,0.3-0.8,0.5c0.9-3.9,1.8-7.7,2.8-11.6C138.9,224.8,140.9,217.5,142.9,210z"/>
<path class="st42" d="M139.9,240.1c3.7-13.6,7.5-27,11.2-40.5c3.2-11.8,6.6-23.5,9.6-35.3c1.7-6.6,5.3-11.8,10.3-16.2
	c6.4-5.5,13.7-9.3,22-11c1.6-0.3,3.2-0.6,4.8-0.6c22.4,0,44.8,0,67.3,0c-0.4,2-1.1,4-1.9,6.1c-21.8,0.2-43.3,0.1-64.9,0.2
	c-2.5,0-5.1,0.5-7.5,1.2c-7.5,2.3-14,6.3-19.2,12.2c-2.1,2.4-3.8,5.1-4.6,8.2c-1.9,7.1-3.9,14.2-5.8,21.3
	c-4.9,17.8-9.8,35.7-14.7,53.5c-1.3,4.6-2.6,9.1-4,13.7c-0.5,0.1-1,0.2-1.4,0.3c-1,0.2-2.1,0.4-3.2,0.2c-0.7,0.9-1.5,1.8-2.3,2.8
	C136.9,251,138.4,245.6,139.9,240.1z"/>
<path class="st43" d="M142.6,253.2c1.3-4.7,2.7-9.3,4-13.9c4.9-17.8,9.8-35.7,14.7-53.5c2-7.1,3.9-14.2,5.8-21.3
	c0.8-3.1,2.5-5.8,4.6-8.2c5.2-5.9,11.7-9.9,19.2-12.2c2.4-0.7,5-1.2,7.5-1.2c21.6-0.1,43.1-0.1,64.9-0.1c18.8,0,37.4,0,56.1,0
	c18.2,0,36.4,0,54.8,0c11.8,0,23.5,0,35.4,0c0.2,32.5,0.2,65,0.2,97.8c0,1.5,0,2.6,0,3.7c0,1.9,0,3.7,0,6c0,1.8,0,3.3,0,4.8
	c0,1.4,0,2.7,0,4.5c0,14,0,27.6,0,41.3c-1.1,0.7-2.4,1.3-3.4,2.1c-7.3,6-14.6,12.1-21.9,18.2c-6.3,5.3-12.6,10.6-18.9,15.8
	c-6.3,5.3-12.7,10.5-19,15.7c-5.6,4.6-11.1,9.3-16.6,13.9c-5.6,4.7-11.2,9.3-16.8,14c-5.5,4.5-10.9,9.1-16.4,13.6
	c-6.3,5.2-12.7,10.5-18.9,15.7c-2,1.7-3.8,3.5-5.7,5.3c-27.6,0.1-55.1,0.1-82.8,0.2c-10.1,0-20.1,0-30.1,0c-24,0-48,0-72,0
	c-0.4,0-0.7,0-1.3-0.1c0.3-0.4,0.5-0.7,0.8-0.9c9.4-7.6,15.8-17.3,19.1-29c4.2-14.8,8.4-29.5,12.6-44.3c3.9-13.9,7.8-27.9,11.7-41.9
	c3.2-11.4,6.3-22.8,9.5-34.2C140.5,261.3,141.5,257.3,142.6,253.2z"/>
<path class="st44" d="M409.7,301.2c0-13.8,0-27.5,0-41.3c2-1.7,4-3.2,5.8-4.9c1.1-1,2-1.1,3.3-0.3c0.1,13,0.1,25.7,0.1,38.7
	c0,16.4,0,32.7,0,48.9c-0.4-0.6-1-1.2-1.1-1.8c-0.1-2.1-0.1-4.3-0.1-6.4c-0.2-0.1-0.3-0.2-0.5-0.3c-1.4,1.1-2.8,2.3-4.3,3.4
	c-1,0.8-2.1,1.4-3.3,2.1C409.7,326.7,409.7,314,409.7,301.2z"/>
<path class="st45" d="M419,342.5c0-16.4,0-32.7,0.1-49.1c0.9-0.6,1.8-1,2.5-1.5c1.8-1.4,3.5-2.8,5.6-4.5c0.2,1.2,0.3,1.9,0.3,2.6
	c0,4.7,0,9.4,0,14c0,0.6,0.5,1.3,0.7,1.9c0,8.8,0,17.6,0,26.6c0,13.8,0,27.5,0,41.3c-2.6-0.2-3.7,2.1-5.5,3.2
	c-1.2,0.7-2.4,1.4-3.7,2.2c-0.1-0.8-0.1-1.5,0-2.5c0.8-1.8,1.2-3.4-0.1-4.9C419,362,419,352.3,419,342.5z"/>
<path class="st37" d="M419,371.9c1.3,1.3,0.9,2.9,0.1,4.6C419,375,419,373.5,419,371.9z"/>
<path class="st46" d="M428.3,305.7c-0.2-0.5-0.7-1.1-0.7-1.7c-0.1-4.7,0-9.4,0-14c0-0.7-0.2-1.4-0.3-2.6c-2.1,1.7-3.8,3.2-5.6,4.5
	c-0.7,0.5-1.6,0.9-2.5,1.4c-0.1-12.8-0.1-25.6-0.1-38.5c0-10.1,0-20,0-30.1c1-0.6,2.1-0.9,2.9-1.5c1.7-1.2,3.3-2.5,5.2-4.1
	c0.2,1,0.4,1.7,0.4,2.4c0,4.4,0,8.8,0,13.2c0,0.7,0.3,1.4,0.6,2.1c0.1,2.9,0.1,5.8,0.1,8.8C428.3,265.6,428.3,285.5,428.3,305.7z"/>
<path class="st44" d="M409.8,255.3c-0.1-1.5-0.1-3-0.1-4.7c1.9-1.6,3.7-3.1,5.7-4.5c0.6-0.4,1.4-0.6,2.2-0.9
	c0.1,0.9,0.5,1.7,0.4,2.6c-0.2,1.8-1.2,3-2.7,4C413.5,252.9,411.7,254.1,409.8,255.3z"/>
<path class="st44" d="M409.8,244.5c-0.1-1.1-0.1-2.3-0.1-3.5c2-1.7,3.9-3.3,5.9-4.8c0.4-0.3,1-0.4,1.5-0.7c0.2,0.7,0.5,1.3,0.5,2
	c-0.1,1.8-1.4,3-2.8,3.9C413.2,242.4,411.6,243.4,409.8,244.5z"/>
</svg>
