<?xml version="1.0" encoding="utf-8"?>
<!-- Generator: Adobe Illustrator 28.1.0, SVG Export Plug-In . SVG Version: 6.00 Build 0)  -->
<svg version="1.1" id="Layer_1" xmlns="http://www.w3.org/2000/svg" xmlns:xlink="http://www.w3.org/1999/xlink" x="0px" y="0px"
	 viewBox="0 0 397.4 570.8" style="enable-background:new 0 0 397.4 570.8;" xml:space="preserve">
<style type="text/css">
	.st0{fill:#DBA6FF;}
	.st1{fill:#81EBFE;}
	.st2{fill:#E0B5FF;}
	.st3{fill:#86EEFF;}
	.st4{fill:#8FF3FF;}
	.st5{fill:#8AF1FF;}
	.st6{fill:#78E5FE;}
	.st7{fill:#61D7FE;}
	.st8{fill:#7AE7FE;}
	.st9{fill:#50CDFE;}
	.st10{fill:#CBA1FF;}
	.st11{fill:#54CFFE;}
	.st12{fill:#6FE0FE;}
	.st13{fill:#6CDEFE;}
	.st14{fill:#20AFFC;}
	.st15{fill:#44C6FE;}
	.st16{fill:#41C4FE;}
	.st17{fill:#DFB3FF;}
	.st18{fill:#35BDFD;}
	.st19{fill:#39BFFD;}
	.st20{fill:#2FB9FD;}
	.st21{fill:#2CB7FD;}
	.st22{fill:#219EFD;}
	.st23{fill:#8F98FF;}
	.st24{fill:#B69AFF;}
	.st25{fill:#A7A7FF;}
	.st26{fill:#A294FE;}
	.st27{fill:#9C97FF;}
</style>
<path class="st0" d="M397.3,358.7c0,6.6,0.1,13.1,0,19.7c-0.1,4.4-0.3,8.8-0.8,13.2c-0.8,7.2-1.9,14.3-2.9,21.4
	c-1.7,12.1-5.3,23.8-9.4,35.2c-3.3,9.1-7.3,18-12.2,26.4c-3,5.1-5.9,10.2-9.2,15c-3.3,4.9-7,9.6-10.8,14.1c-4,4.7-8.1,9.4-12.6,13.7
	c-4.6,4.4-9.5,8.6-14.6,12.4c-6.5,4.9-13.2,9.7-20.2,13.8c-6.9,4-14.2,7.4-21.6,10.6c-6,2.6-12.1,4.9-18.3,6.7
	c-7.9,2.3-16,4.3-24.1,5.9c-6.3,1.3-12.8,1.9-19.3,2.7c-3.5,0.4-7.1,0.6-10.6,0.7c-6.6,0.2-13.2,0.5-19.8,0.3
	c-6-0.2-12.1-0.8-18.1-1.4c-5.6-0.6-11.2-1.2-16.7-2.3c-6.1-1.1-12.1-2.7-18-4.2c-8.9-2.4-17.5-5.6-26-9.2
	c-11.5-4.9-22.4-11.1-32.6-18.2c-5.3-3.7-10.2-7.8-15.1-12c-3.9-3.3-7.8-6.8-11.3-10.6c-4.3-4.6-8.4-9.3-12.1-14.3
	c-5-6.8-9.9-13.8-14.3-21c-3.3-5.4-5.9-11.1-8.5-16.9c-2.6-5.8-4.9-11.8-7.1-17.8c-3.3-9.1-5.5-18.6-7.4-28.1
	c-0.9-4.5-1.4-9.1-1.9-13.7c-0.6-6.8-1.1-13.5-1.5-20.3c-0.3-5.2-0.3-10.4-0.2-15.7c1.6,0,3,0.2,4.4,0.1c0.5,0,1.3-0.8,1.3-1.3
	c0.3-2.5,0.4-5.1,0.4-7.7c0-20.6,0-41.2,0-61.8c0-11.6,0.2-23.3,0.3-34.9c0.1-6,4.6-12.7,10-15.2c4.1-1.8,8.3-2.1,12.7-2
	c0,0.8,0,1.5,0.1,2.2c2.3,12.6,4.7,25.1,6.9,37.7c1.2,7.1,2.7,14.1,6.6,20.3c4,6.5,9.1,11.9,16.1,15.3c7.1,3.4,14.6,3.6,22.2,2.4
	c8.2-1.3,16.4-3.1,24.6-4.6c9.3-1.7,16.7-6.3,22.5-13.6c6-7.5,8.6-16.2,7.8-25.7c-0.6-6.7-2.3-13.4-3.4-20.1
	c-0.8-4.7-1.6-9.4-2.2-14c79,0,157.9,0,236.8,0c2.5,0,4.9,0.2,7.4,0.4c5.4,0.5,9.5,3.3,12.7,7.5c3,3.9,3.7,8.5,3.7,13.1
	c0,29.6,0,59.2,0,88.7c0,1.7,0.3,3.4,0.5,5.1c0.1,0.9,0.2,2.2,0.8,2.5c0.8,0.4,2.1,0.2,3.1,0.1C396.1,359.4,396.7,359,397.3,358.7
	 M217.7,438.1c0-0.4,0-0.8,0-1.1c-1-5.6-2-11.2-2.9-16.7c-0.8-4.5-1.4-9-2.2-13.6c20.9-9.2,26.4-29.9,21.4-45.6
	c-4.7-14.8-17.6-24.7-32.6-25.7c-18.3-1.3-34.2,10.7-38.5,27.9c-1.9,7.6-1.6,15.2,1.4,22.4c4,9.8,10.9,16.9,20.7,20.9
	c-3.6,21.7-7.2,43.2-10.8,64.8c16.5,0,32.8,0,49.2,0c-0.5-3.4-1-6.8-1.6-10.1c-0.8-4.9-1.7-9.9-2.5-14.8
	C218.7,443.8,218.2,441.1,217.7,438.1z"/>
<path class="st1" d="M155.2,55.8c-0.2,0-0.3,0-0.7,0c-1-0.2-1.8-0.3-2.6-0.3c-24.8,0-49.7,0-74.5-0.1c-1,0-1.9-0.7-2.9-1.1
	c4.3-4.7,8.5-9.4,13-14c1.2,0.2,2.2,0.6,3.2,0.6c65.6,0,131.1,0,196.7,0c0.4,0,0.9,0.1,1.3,0c0.5-0.2,1-0.5,1.6-0.8
	c4.8,5.1,9.6,10.3,14.4,15.6c-0.8,0.5-1.6,1.1-2.4,1.1c-25,0-50,0-75,0c-1,0-1.9,0-2.9,0c-4.3-1.4-8.5-3-12.8-4.1
	c-4.1-1-8.4-1.7-12.6-2.2c-4.3-0.5-8.6-0.9-12.8-0.7c-10.1,0.3-19.9,2-29.5,5.4c-0.2,0.1-0.5,0.1-0.9,0.2
	C155.3,55.6,155.2,55.7,155.2,55.8z"/>
<path class="st2" d="M397.3,358.5c-0.7,0.4-1.3,0.8-1.9,0.9c-1,0.1-2.3,0.3-3.1-0.1c-0.6-0.3-0.6-1.6-0.8-2.5
	c-0.2-1.7-0.5-3.4-0.5-5.1c0-29.6,0-59.2,0-88.7c0-4.7-0.7-9.3-3.7-13.1c-3.2-4.2-7.3-7-12.7-7.5c-2.5-0.2-4.9-0.4-7.4-0.4
	c-78.9,0-157.7,0-237,0c-2.3,0-4.3,0-6.4,0c-0.1,0-0.3,0-0.3-0.2c-0.2-2.1-0.5-4.1-0.7-6.1c1.7,0,3.5,0,5.4,0
	c0.2,0.1,0.4,0.1,0.4,0.1l0.1-0.1c0.6,0,1.2-0.1,1.9-0.1c80.7,0,161.5-0.1,242.2,0.1c9.5,0,17,4.7,21.6,13.3c2.1,4,3,8.3,3,12.7
	c0,25.5,0,51.1,0,76.6C397.4,345,397.4,351.7,397.3,358.5z"/>
<path class="st3" d="M290.2,40.1c-0.5,0.4-1,0.7-1.5,0.9c-0.4,0.1-0.9,0-1.3,0c-65.6,0-131.1,0-196.7,0c-1,0-2-0.4-3.1-0.7
	c3.7-3.4,7.6-6.8,11.4-10.1c0.4-0.4,0.8-0.7,1.4-1c1.5,0.4,2.8,0.9,4.1,0.9c56.1,0,112.2,0,168.3,0c0.4,0,0.9,0.1,1.3,0
	c1-0.3,1.9-0.7,2.8-1.1C281.3,32.7,285.7,36.3,290.2,40.1z"/>
<path class="st4" d="M116.1,19c6.1-3,12.1-6.3,18.4-8.8c7-2.7,14.3-4.8,21.6-6.7c4.8-1.2,9.8-1.6,14.6-2.4
	c7.1-1.1,14.2-1.4,21.3-1.1c5.8,0.2,11.6,0.8,17.3,1.5c9.3,1,18.3,3.3,27.1,6.3c8.2,2.8,16.2,6.2,23.7,10.7c0.2,0.1,0.6,0.1,0.9,0.4
	c-0.9,0.4-1.7,0.8-2.5,0.8c-5.1,0.1-10.2,0-15.2,0c-41.4,0-82.8,0-124.1,0C118.2,19.7,117.1,19.3,116.1,19z"/>
<path class="st5" d="M116,19c1.2,0.2,2.2,0.7,3.2,0.7c41.4,0,82.8,0,124.1,0c5.1,0,10.2,0,15.2,0c0.8,0,1.6-0.4,2.6-0.7
	c5.3,3.2,10.4,6.4,15.7,9.8c-0.9,0.5-1.8,0.9-2.7,1.2c-0.4,0.1-0.9,0-1.3,0c-56.1,0-112.2,0-168.3,0c-1.3,0-2.6-0.6-3.9-1
	C105.6,25.7,110.7,22.4,116,19z"/>
<path class="st6" d="M224.4,57.2c0.9-0.1,1.8-0.2,2.8-0.2c25,0,50,0,75,0c0.8,0,1.6-0.6,2.5-1c3.8,5.2,7.7,10.5,11.3,15.9
	c1.5,2.3,2.7,4.8,3.8,7.3c-20.8,0.1-41.4,0.2-62,0.2c-0.6-0.5-1.3-0.9-1.9-1.4c-6.4-6.5-13.8-11.7-21.7-16
	C231.1,60.2,227.7,58.8,224.4,57.2z"/>
<path class="st7" d="M104.1,97.2c-1.5,2.7-3,5.3-4.4,8.1c-3,6.2-5.4,12.5-7.3,19.3c-15.8,0.2-31.4,0.2-47,0.1
	c-0.9,0-1.8-0.2-2.7-0.4c0.9-4.3,1.6-8.6,2.7-12.9c1.3-4.8,3-9.5,4.8-14.2c1.2,0.1,2.1,0.3,3,0.3c15.4,0,30.7,0,46.1,0
	C101,97.5,102.6,97.3,104.1,97.2z"/>
<path class="st8" d="M74.3,54.4c1.1,0.3,2.1,1,3,1c24.8,0.1,49.7,0,74.5,0.1c0.8,0,1.6,0.1,2.5,0.3c-7.6,3.2-15,6.8-21.8,11.6
	c-3.2,2.3-6.3,4.9-9.7,7.4c-4.4,0.2-8.4,0.4-12.5,0.4c-14.8,0-29.6,0-44.3,0c-1.8,0-3.6-0.2-5.3-0.4c2.1-3.5,4.1-7.1,6.4-10.6
	C69.3,60.9,71.8,57.7,74.3,54.4z"/>
<path class="st9" d="M42.7,124.4c1,0.1,1.9,0.3,2.8,0.3c15.6,0,31.2,0,46.9,0c-0.6,3.8-1.5,7.6-1.9,11.5c-0.5,5-0.6,10-1,15.2
	c-1.4,0.4-2.6,0.9-3.8,0.9c-13.6,0-27.1,0-40.7,0c-1.6,0-3.2-0.2-4.8-0.4c0.3-5.8,0.6-11.7,1.1-17.5
	C41.6,131.1,42.1,127.8,42.7,124.4z"/>
<path class="st10" d="M123.9,241.9c2,0,4,0,6.2,0c1,4.7,1.8,9.4,2.6,14c1.2,6.7,2.8,13.3,3.4,20.1c0.9,9.5-1.8,18.1-7.8,25.7
	c-5.8,7.3-13.2,11.9-22.5,13.6c-8.2,1.5-16.3,3.3-24.6,4.6c-7.5,1.2-15.1,1.1-22.2-2.4c-6.9-3.4-12-8.7-16.1-15.3
	c-3.9-6.3-5.3-13.2-6.6-20.3c-2.2-12.6-4.6-25.1-6.9-37.7c-0.1-0.7-0.1-1.4,0.1-2.2c2-0.2,3.8-0.2,5.8-0.2c-0.4-2.3-0.8-4.3-1.1-6.3
	c2,0,4,0,6.2,0c0.2,0.1,0.2,0.3,0.2,0.4c0.4,1.9,0.7,3.7,1.1,5.7c-0.8,0.1-1.3,0.1-1.8,0.1c-5.3-0.1-4.4-0.1-3.6,4.5
	c2.2,12.6,4.8,25.2,6.9,37.9c1.5,9.1,5.1,17,12.1,23.1c7,6.1,15.1,8.1,24.1,6.6c7.2-1.2,14.4-2.7,21.7-3.9
	c8.2-1.4,15.5-4.2,21.2-10.7c6.1-7,8.6-15,7.5-24c-0.8-7.1-2.5-14.1-3.8-21.1C125.2,250.1,124.6,246,123.9,241.9z"/>
<path class="st11" d="M288.8,146.6c-1.6-8.6-3-17.3-5.5-25.9c1.1,0,2,0.2,2.9,0.2c16.2,0,32.4,0,48.6,0c0.8,3.9,1.5,7.8,2.3,11.7
	c0.9,4.6,1.7,9.1,2.4,13.8c-1.2,0.3-2.2,0.5-3.3,0.5c-14.2,0-28.4,0-42.7,0C292,147,290.4,146.8,288.8,146.6z"/>
<path class="st12" d="M60.5,74.9c1.9,0.1,3.7,0.3,5.5,0.3c14.8,0,29.6,0,44.3,0c4.1,0,8.1-0.2,12.4-0.3c-1,1.1-2.2,2.1-3.3,3.2
	c-5.4,5.6-10.4,11.4-14.4,18c-0.2,0.3-0.5,0.6-0.7,1c-1.6,0.2-3.2,0.5-4.8,0.5c-15.4,0-30.7,0-46.1,0c-0.9,0-1.8-0.2-2.9-0.3
	c1-3,1.9-6.1,3.3-9C55.8,83.7,58.1,79.3,60.5,74.9z"/>
<path class="st13" d="M257.9,79.4c20.6-0.1,41.2-0.1,62-0.1c1.6,2.6,3.2,5.2,4.4,7.9c1.7,3.8,3.1,7.7,4.5,11.8
	c-1.1,0.3-2,0.5-2.9,0.5c-16.5,0-33.1,0-49.6,0c-0.8,0-1.7,0.4-2.5,0.7c-4.3-6.8-8.8-13.3-14.6-19C258.7,80.7,258.3,80.1,257.9,79.4
	z"/>
<path class="st7" d="M273.8,100.2c0.8-0.3,1.6-0.8,2.5-0.8c16.5,0,33.1,0,49.6,0c0.9,0,1.8-0.2,2.9-0.3c1.7,4.9,3.2,9.8,4.6,14.8
	c0.6,2.2,1,4.6,1.5,7c-16.2,0.2-32.5,0.2-48.7,0.1c-0.9,0-1.8-0.2-2.9-0.3c-1.9-4.3-3.6-8.6-5.4-12.9
	C276.7,105.2,275.2,102.8,273.8,100.2z"/>
<path class="st14" d="M51,223.7c-0.7-3.7-1.5-7.4-2.2-11.1c-0.8-3.9-1.5-7.8-2-11.8c2,0,3.7,0.2,5.5,0.2c13.9,0,27.7,0,41.6,0
	c1.1,0,2.2-0.5,3.4-0.7c0.7,3.6,1.5,7.3,2.2,10.9c0.8,4,1.5,7.9,2.1,12.1c-1.1,0.3-2,0.5-2.9,0.5C82.7,223.7,66.8,223.7,51,223.7z"
	/>
<path class="st15" d="M288.8,146.8c1.6,0,3.2,0.2,4.8,0.2c14.2,0,28.4,0,42.7,0c1,0,2.1-0.2,3.3-0.4c1.4,6.8,2.7,13.7,3.7,20.7
	c-15.4,0.2-30.7,0.2-45.9,0.1c-1.6,0-3.2-0.2-4.8-0.4c-0.9-5.2-1.9-10.4-2.8-15.6C289.4,150,289.1,148.5,288.8,146.8z"/>
<path class="st16" d="M40.3,152c1.6,0,3.2,0.2,4.8,0.2c13.6,0,27.1,0,40.7,0c1.2,0,2.4-0.4,3.7-0.7c0.2,6.3,1,12.6,2.4,18.8
	c0.1,0.4,0,0.9-0.1,1.6c-0.8,0.3-1.4,0.5-2.1,0.5c-16,0-32,0-47.9,0c-0.3-1.3-0.7-2.7-0.8-4C40.7,162.9,40.5,157.6,40.3,152z"/>
<path class="st17" d="M34.1,235.6c0.5,2,0.9,4,1.3,6.3c-2,0-3.8,0-5.8,0c-4.5,0-8.8,0.3-12.8,2.1c-5.4,2.4-10,9.2-10,15.2
	c-0.1,11.6-0.3,23.3-0.3,34.9c-0.1,20.6,0,41.2,0,61.8c0,2.6-0.2,5.1-0.4,7.7c0,0.5-0.8,1.3-1.3,1.3c-1.4,0.1-2.8-0.1-4.4-0.3
	c-0.2-0.6-0.2-1.3-0.2-1.9c0-34.2-0.1-68.4,0.1-102.7c0.1-11.4,7.2-20.4,18.4-23.7c2.9-0.8,6-0.6,9.3-0.8c0.2,0.1,0.4,0.1,0.4,0.1
	l0.1-0.1C30.2,235.6,32,235.6,34.1,235.6z"/>
<path class="st18" d="M41.7,172.5c16-0.2,32-0.2,48-0.2c0.7,0,1.3-0.1,2.1-0.3c0.7,2.9,1.4,6,1.9,9c0.4,2.2,0.8,4.4,1,6.8
	c-1.3,0.3-2.5,0.5-3.6,0.5c-14,0-28,0-42,0c-1.6,0-3.2-0.2-4.8-0.4C43.5,182.8,42.6,177.7,41.7,172.5z"/>
<path class="st19" d="M292.6,167.3c1.6,0,3.2,0.2,4.8,0.2c15.2,0,30.5,0,45.9,0c0.9,3.9,1.7,7.8,2.5,11.6c0.2,1.2,0.5,2.5,0.5,3.8
	c-17,0.2-33.9,0.2-50.7,0.2C294.5,177.9,293.6,172.6,292.6,167.3z"/>
<path class="st20" d="M295.5,183.3c16.9-0.1,33.7-0.1,50.7-0.1c0.6,4-0.2,7.6-3,10.6c-2,2.1-4.4,3.3-7.1,3.9
	c-5.8,1.1-11.6,2.3-17.4,3.3c-2.9,0.5-5.8,0.9-8.6,1.1c-6.6,0.6-12.2-4.5-13.1-11.2C296.6,188.3,295.9,185.9,295.5,183.3z"/>
<path class="st21" d="M44.3,188.1c1.6,0,3.2,0.2,4.8,0.2c14,0,28,0,42,0c1.2,0,2.3-0.2,3.6-0.4c0.9,4,1.6,8,2.4,12.1
	c-1.1,0.4-2.2,0.9-3.4,0.9c-13.9,0.1-27.7,0-41.6,0c-1.8,0-3.6-0.2-5.5-0.4C45.8,196.5,45.1,192.4,44.3,188.1z"/>
<path class="st22" d="M51,223.8c15.8-0.2,31.7-0.2,47.5-0.2c0.9,0,1.8-0.2,2.9-0.3c0.9,4,1.7,7.9,2.4,12.1c0,0.2,0,0.4-0.2,0.4
	c-16.9,0-33.6,0-50.3,0.1c0,0,0,0,0-0.1c-0.2-0.1-0.3-0.2-0.4-0.3c-0.5-3.2-1.1-6.4-1.6-9.6C51.1,225.3,51.1,224.7,51,223.8z"/>
<path class="st10" d="M122.7,235.6c0.4,2,0.7,4,0.7,6.1c-2,0.2-3.9,0.2-5.9,0.2c-0.1,0-0.3,0-0.3-0.2c-0.3-2-0.5-3.9-0.7-5.9
	c0-0.1,0-0.2,0-0.2C118.5,235.6,120.5,235.6,122.7,235.6z"/>
<path class="st23" d="M116.3,235.6c0.2,0,0.2,0.2,0,0.3c-4.3,0.1-8.4,0.1-12.5,0.1c0,0,0-0.1,0-0.1s0-0.1,0.1-0.2
	C108,235.6,112.1,235.6,116.3,235.6z"/>
<path class="st23" d="M52.7,235.5c0.3,0,0.4,0.1,0.4,0.3c-4.2,0.1-8.3,0.1-12.5,0.1c0,0,0-0.2,0-0.2
	C44.5,235.6,48.5,235.6,52.7,235.5z"/>
<path class="st10" d="M128.7,235.6c0.1,0,0,0.1,0,0.1s-0.2,0-0.2-0.1C128.5,235.6,128.5,235.6,128.7,235.6z"/>
<path class="st8" d="M155.3,55.8c0-0.1,0-0.2,0.2-0.3C155.5,55.6,155.5,55.7,155.3,55.8z"/>
<path class="st10" d="M28.2,235.6c0.1,0,0,0.1,0,0.1s-0.2,0-0.2-0.1C28,235.6,28.1,235.6,28.2,235.6z"/>
<path class="st24" d="M40.6,236.1c4.1-0.2,8.2-0.2,12.5-0.2c0.2,0,0.2,0,0.2,0.2c0.2,2.1,0.5,3.9,0.5,5.8c-1.9,0-3.7,0-5.6,0
	c-1.4,0-2.7,0-3.9,0c-2.2,0-2.6,0.5-2.2,2.7c2.2,11.8,4.5,23.6,6.6,35.5c1.2,7.1,2.6,14,7.5,19.6c5.6,6.3,12.5,9.4,20.8,8.2
	c7.5-1,14.8-2.7,22.2-3.9c7.7-1.2,14.6-3.7,19.4-10.3c3.5-4.7,5.7-10.1,5-15.9c-1-8.2-2.8-16.3-4.2-24.4c-0.7-3.8-1.3-7.7-2-11.5
	c1.9,0,3.7,0,5.8,0c0.2,0,0.4,0,0.4,0c0.8,4.1,1.4,8.2,2.1,12.2c1.3,7,2.9,14,3.8,21.1c1.1,9-1.4,17.1-7.5,24
	c-5.7,6.5-13,9.4-21.2,10.7c-7.2,1.2-14.4,2.7-21.7,3.9c-9,1.5-17.2-0.4-24.1-6.6c-7-6.2-10.6-14-12.1-23.1
	c-2.1-12.7-4.7-25.2-6.9-37.9c-0.8-4.6-1.7-4.5,3.6-4.5c0.5,0,1.1-0.1,1.8-0.1C41.3,239.8,41,238,40.6,236.1z"/>
<path class="st25" d="M54,241.9c-0.2-1.9-0.5-3.8-0.7-5.8c16.7-0.2,33.5-0.2,50.4-0.2c0.2,0,0.2,0.1,0.2,0.2
	c0.4,2.1,0.8,3.9,1.1,5.8c0,0,0,0-0.2,0c-16.9,0-33.7,0-50.5,0C54.1,241.9,54,241.9,54,241.9z"/>
<path class="st26" d="M117.5,241.9c0.7,3.8,1.4,7.7,2,11.5c1.4,8.1,3.3,16.2,4.2,24.4c0.7,5.8-1.5,11.2-5,15.9
	c-4.9,6.5-11.8,9.1-19.4,10.3c-7.4,1.2-14.8,2.9-22.2,3.9c-8.3,1.1-15.3-1.9-20.8-8.2c-5-5.6-6.3-12.6-7.5-19.6
	c-2.1-11.8-4.4-23.7-6.6-35.5c-0.4-2.2,0-2.7,2.2-2.7c1.2,0,2.5,0,3.9,0.2c0.2,0.8,0.1,1.4,0.3,2c2.6,14.1,5.1,28.2,7.8,42.2
	c1.9,10,10.9,17.4,22.4,15.2c6.4-1.3,12.9-2.3,19.3-3.5c5-0.9,10-1.9,13.8-5.7c4.1-4.1,6.5-9.1,5.7-14.9c-1.2-8.6-3-17.1-4.6-25.7
	c-0.6-3.3-1.1-6.6-1.5-9.9c2,0,3.9,0,5.8,0C117.2,241.9,117.4,241.9,117.5,241.9z"/>
<path class="st24" d="M117.2,241.7c-1.9,0.2-3.7,0.2-6,0.2c-2.3,0-4.3,0-6.3,0c-0.4-1.9-0.7-3.7-1.1-5.8c4.1-0.2,8.2-0.2,12.4-0.2
	C116.7,237.8,117,239.7,117.2,241.7z"/>
<path class="st27" d="M105,241.9c2,0,4,0,6.1,0c0.7,3.3,1.2,6.6,1.8,9.9c1.5,8.6,3.4,17.1,4.6,25.7c0.8,5.8-1.6,10.7-5.7,14.9
	c-3.8,3.8-8.8,4.8-13.8,5.7c-6.4,1.2-12.9,2.2-19.3,3.5c-11.4,2.3-20.4-5.1-22.4-15.2c-2.7-14.1-5.2-28.1-7.8-42.2
	c-0.1-0.6-0.1-1.2-0.1-2c1.7-0.2,3.5-0.2,5.4-0.2c0.2,0,0.3,0,0.5,0.2c1.2,6,2.2,11.9,3.3,17.8c1.5,8.4,3,16.8,4.6,25.1
	c0.6,3.1,1.8,5.9,4.4,7.9c3.6,2.8,7.5,3.3,11.9,2.4c7.2-1.5,14.4-2.7,21.7-4c4.9-0.9,10.7-4.3,11.1-11.2c0.1-2.8-0.3-5.7-0.8-8.6
	C108.7,261.7,106.8,251.8,105,241.9C105,241.9,105,241.9,105,241.9z"/>
<path class="st23" d="M104.8,241.9c2,9.9,3.9,19.8,5.6,29.7c0.5,2.8,1,5.7,0.8,8.6c-0.4,6.9-6.1,10.4-11.1,11.2
	c-7.2,1.3-14.5,2.5-21.7,4c-4.4,0.9-8.3,0.4-11.9-2.4c-2.6-2-3.8-4.8-4.4-7.9c-1.6-8.4-3.1-16.7-4.6-25.1
	c-1.1-5.9-2.1-11.8-3.2-17.8C71.1,241.9,87.9,241.9,104.8,241.9z"/>
</svg>
