<?xml version="1.0" encoding="utf-8"?>
<!-- Generator: Adobe Illustrator 28.1.0, SVG Export Plug-In . SVG Version: 6.00 Build 0)  -->
<svg version="1.1" id="Layer_1" xmlns="http://www.w3.org/2000/svg" xmlns:xlink="http://www.w3.org/1999/xlink" x="0px" y="0px"
	 viewBox="0 0 397.4 533.6" style="enable-background:new 0 0 397.4 533.6;" xml:space="preserve">
<style type="text/css">
	.st0{fill:#DBA6FF;}
	.st1{fill:#7DE8FE;}
	.st2{fill:#73E2FE;}
	.st3{fill:#6CDEFE;}
	.st4{fill:#DFB3FF;}
	.st5{fill:#54D0FE;}
	.st6{fill:#CBA1FF;}
	.st7{fill:#41C4FE;}
	.st8{fill:#64DAFE;}
	.st9{fill:#5BD4FE;}
	.st10{fill:#60D7FE;}
	.st11{fill:#4FCDFE;}
	.st12{fill:#30B9FD;}
	.st13{fill:#67DBFE;}
	.st14{fill:#1FAFFC;}
	.st15{fill:#43C5FE;}
	.st16{fill:#2495FE;}
	.st17{fill:#2AB6FD;}
	.st18{fill:#3AC0FD;}
	.st19{fill:#1BA7FC;}
	.st20{fill:#25B3FC;}
	.st21{fill:#32BBFD;}
	.st22{fill:#1BA4FD;}
	.st23{fill:#ABA9FF;}
	.st24{fill:#B4A5FE;}
	.st25{fill:#DFB2FF;}
	.st26{fill:#E0B6FF;}
	.st27{fill:#B69AFF;}
	.st28{fill:#959DFF;}
	.st29{fill:#938EFD;}
	.st30{fill:#A294FF;}
</style>
<path class="st0" d="M361,455.4c-4.6,5.6-8.9,11.4-13.7,16.7c-4.7,5.1-9.8,9.8-14.8,14.5c-6.5,6.1-13.8,11.3-21.3,16.1
	c-8.6,5.5-17.6,10.4-27.2,14.2c-6.1,2.4-12.2,5-18.5,6.9c-7.9,2.4-16,4.3-24.1,6c-6.2,1.3-12.6,1.8-18.9,2.7
	c-11.9,1.6-23.9,1.2-35.8,1c-5.7-0.1-11.3-0.7-16.9-1.5c-10.9-1.4-21.6-3.5-32.2-6.5c-14.1-3.9-27.5-9.5-40.4-16.3
	c-8.3-4.5-16.2-9.7-23.7-15.4c-7.9-6-15.3-12.6-22-20c-5.3-5.8-9.9-12-14.8-18.3c1.6-0.3,3.1-0.4,4.7-0.4c1.3,0,1.7-0.5,1-1.7
	c-1.7-2.8-3.6-5.4-5.2-8.3c-3.8-6.7-7.8-13.3-11.2-20.2c-4.5-9-8-18.5-10.8-28.2c-4.2-14.2-6.7-28.7-7.9-43.5
	c-0.6-7.1-0.7-14.3-0.8-21.5c-0.1-8.5,0-17.1,0-25.6c0-16.1,0-32.2,0-48.3c0-11,0-21.9,0-32.9c0-1.7,0.1-3.3,0.5-5
	c1.8-8.8,9.2-14.9,18.1-14.7c0,14.4,0,28.7,0,43c0,1.8,0.1,3.7,0.4,5.5c1.6,9.4,5.9,17.2,13.3,23.3c6.6,5.4,14.1,8.3,22.7,8.4
	c7.4,0,14.9,0,22.3,0c3,0,6.1,0.1,9.1-0.4c12-1.8,20.9-8.3,26.9-18.7c3.3-5.7,4.7-11.9,4.7-18.5c-0.1-14.3,0-28.5,0.2-42.8
	c49.7,0,99.2,0,148.6,0.2c0,14.9,0,29.6,0,44.3c0,1.8,0.3,3.7,0.6,5.5c1.1,6.3,3.7,11.9,7.8,16.8c7.1,8.5,16.1,13.3,27.2,13.6
	c8.9,0.2,17.9,0,26.8,0.1c8.1,0,15.3-2.4,21.7-7.3c1.4-1,2.5-2.4,3.7-3.6c1.7-1.8,3.7-3.5,5.1-5.6c4.5-6.2,6.4-13.4,6.4-20.9
	c0.1-14.3,0-28.6,0.2-43c7.4,0.2,12.6,3.6,16.1,9.8c1.9,3.4,2.3,7,2.3,10.7c0.1,14.9,0,29.8,0,44.7c0,14.4,0,28.7,0,43.1
	c0,8.5-0.2,17.1-0.4,25.6c-0.1,3.6-0.1,7.2-0.4,10.7c-0.6,6.9-1.3,13.9-2.2,20.8c-1.5,11.9-4.6,23.4-8.4,34.7
	c-4.3,12.6-9.9,24.6-16.8,36c-2.5,4.1-5.2,8.1-7.7,12.1c-0.2,0.3-0.4,0.9-0.3,1.1c0.3,0.3,0.8,0.5,1.2,0.6
	C357.6,455.1,359.3,455.2,361,455.4 M331,334.2c-0.6-0.3-1.2-0.6-1.9-1.1c-4.5-2-9.1-3.5-14.1-4c-8.3-0.9-16.2,0.4-23.9,4.2
	c-0.5,0.4-1.1,0.7-1.9,1.1c-0.2,0.1-0.5,0.1-0.7,0.3c-6.7,3.8-12,9.2-15.9,15.9c-3.2,5.6-5.3,11.5-5.5,18.3
	c-0.1,0.7-0.3,1.5-0.3,2.2c0,5.9,0.9,11.6,3.1,17c4.6,11.2,12.4,19.2,23.5,24c8,3.5,16.4,4.2,24.9,2.7c6-1,11.5-3.4,16.6-7
	c6.9-4.8,12.1-11.1,15.4-18.8c3.5-8.1,4.5-16.6,2.7-25.2c-0.8-3.7-2.6-7.3-4-11.2c-2.2-3.3-4.1-6.8-6.6-9.8
	C339.3,339.4,335.6,336.4,331,334.2 M130.2,367.4c-0.2-1.3-0.3-2.7-0.6-4c-2.2-9.8-7.1-18-14.8-24.5c-7.2-6-15.5-9.4-24.8-10
	c-8.7-0.6-16.9,1.3-24.6,5.7c-7.4,4.3-13.1,10.2-17,17.9c-3.7,7.4-5.4,15.2-4.6,23.5c0.4,4.6,1.4,9.1,3.2,13.3
	c3.8,8.7,9.8,15.5,18,20.4c9.3,5.5,19.5,7.1,30,5.3c6-1,11.6-3.4,16.6-7c6.9-4.8,12-11,15.3-18.7
	C129.9,382.4,131.2,375.2,130.2,367.4 M177.5,410.1c0.9,0.5,1.7,0.9,2.6,1.4c7.9,3.7,16.1,4.8,24.8,3.7c5.9-0.7,11.4-2.8,16.4-5.9
	c7.2-4.5,12.8-10.6,16.5-18.4c4.2-8.9,5.4-18,3.4-27.6c-2.1-9.8-7.1-18-14.8-24.5c-7.2-6-15.5-9.4-24.8-10
	c-8.8-0.6-17.1,1.3-24.7,5.8c-8.6,5.1-14.8,12.2-18.5,21.5c-2.6,6.3-3.5,12.9-2.9,19.7c0.6,6.1,2.2,11.9,5.2,17.3
	C164.6,400.3,170.2,405.9,177.5,410.1z"/>
<path class="st1" d="M115,26.3c7-5,14.4-9.3,22.3-12.9c10.4-4.8,21.1-8.6,32.4-10.5c5.3-0.9,10.6-1.7,16-2.2
	c5.9-0.5,11.9-0.9,17.8-0.7c5.9,0.2,11.7,1.1,17.6,1.8c10.1,1.2,20,3.8,29.4,7.5c7.2,2.8,14.1,6.3,21,9.8c4.2,2.1,8,4.9,11.9,7.6
	c-1.1,0.4-2.1,0.8-3.1,0.8c-54.1,0-108.3,0-162.4,0c-0.4,0-0.8,0.1-1.1,0C116.2,27.2,115.6,26.7,115,26.3z"/>
<path class="st2" d="M114.8,26.4c0.7,0.3,1.3,0.8,2,1.1c0.3,0.1,0.7,0,1.1,0c54.1,0,108.3,0,162.4,0c1,0,2-0.3,3.1-0.6
	c3.7,2.6,7.5,5.3,11,8.1c2.4,1.9,4.6,4,6.8,6.3c-0.8,0.5-1.7,1.1-2.5,1.1c-66.5,0-133,0-199.5,0c-0.9,0-1.7-0.5-2.6-0.7
	c4.2-3.7,8.4-7.5,12.7-11.1C111.1,29,113,27.8,114.8,26.4z"/>
<path class="st3" d="M96.6,41.7c1,0.2,1.8,0.7,2.7,0.7c66.5,0,133,0,199.5,0c0.8,0,1.6-0.6,2.5-1c3.3,3.3,6.6,6.8,9.9,10.5
	c-0.7,0.3-1.4,0.6-2.2,0.6c-27.5,0-54.9,0-82.4,0.1c-0.9,0-1.8,0.5-2.8,0.7c-0.8-0.1-1.4-0.3-2.1-0.4c-4.6-0.7-9.2-1.6-13.8-2.2
	c-3.3-0.4-6.6-0.7-9.9-0.7c-3,0-6.1,0.3-9.1,0.7c-3.8,0.5-7.6,1-11.3,1.8c-3.6,0.7-7.1,1.8-10.7,2.6c-0.9-0.2-1.7-0.3-2.5-0.3
	c-25.3,0-50.7,0-76,0c-1.1,0-2.2-0.2-3.3-0.4c2.6-3,5.1-6,7.8-9C94.1,44,95.3,42.9,96.6,41.7z"/>
<path class="st4" d="M361.1,455.3c-1.8-0.1-3.4-0.2-5.1-0.4c-0.4-0.1-1-0.3-1.2-0.6c-0.1-0.2,0.1-0.8,0.3-1.1c2.6-4,5.2-8,7.7-12.1
	c6.9-11.4,12.5-23.4,16.8-36c3.9-11.3,6.9-22.8,8.4-34.7c0.9-6.9,1.6-13.8,2.2-20.8c0.3-3.6,0.3-7.2,0.4-10.7
	c0.2-8.5,0.3-17.1,0.4-25.6c0.1-14.4,0-28.7,0-43.1c0-14.9,0-29.8,0-44.7c0-3.7-0.4-7.4-2.3-10.7c-3.5-6.2-8.7-9.6-16.3-9.8
	c-2.3,0-4.3,0-6.3-0.2c0-2.1,0-4.1,0-6.1c4.8,0,9.6-0.6,14.2,1c9.2,3.2,14.5,9.8,16.6,19.1c0.4,1.6,0.4,3.4,0.4,5.1
	c0,38.6,0.1,77.2,0,115.8c0,6.3-0.5,12.6-1.1,18.9c-1.2,11.8-3.1,23.5-6.4,34.8c-2.3,8.1-5.1,16-8.2,23.8c-2.6,6.5-5.8,12.8-9.1,19
	c-3.2,5.9-7,11.6-10.5,17.4C361.7,454.2,361.5,454.7,361.1,455.3z"/>
<path class="st4" d="M24.9,205c-8.9,0-16.4,6.1-18.1,14.9c-0.3,1.6-0.4,3.3-0.5,5c0,11,0,21.9,0,32.9c0,16.1,0,32.2,0,48.3
	c0,8.5-0.1,17.1,0,25.6c0.1,7.2,0.2,14.4,0.8,21.5c1.1,14.7,3.7,29.3,7.9,43.5c2.8,9.7,6.3,19.2,10.8,28.2
	c3.5,6.9,7.4,13.5,11.2,20.2c1.6,2.8,3.5,5.5,5.2,8.3c0.8,1.2,0.3,1.7-1,1.7c-1.5,0-3.1,0.1-4.7,0.3c-4.3-6.7-8.6-13.5-12.7-20.4
	c-4.6-7.9-8.1-16.3-11.1-24.9c-2.7-7.8-5-15.7-7-23.7c-1.4-5.6-2.3-11.3-3.1-17.1c-0.8-6-1.4-12-1.9-18c-0.4-6.3-0.7-12.7-0.8-19
	C0,295.9,0,259.4,0.1,222.9c0-5.8,2.1-10.9,5.7-15.4c4-5,9.3-7.7,15.5-8.8c1.6-0.3,3.2,0,5,0.1c0.3,1.8,1.5,1.8,2.6,1.7
	c1.6-0.1,2.5,0.1,2.5,2.1c0,2.2-1.1,2-2.6,2C27.5,204.6,26.2,204.8,24.9,205z"/>
<path class="st5" d="M329.3,77.7c0.4,0.5,0.8,1,1.1,1.6c3.9,7.3,7.1,14.8,9.7,22.9c0.1,0.3,0.2,0.4,0.3,0.5c0,0.1,0,0.1-0.1,0.3
	c-0.8,0.2-1.5,0.4-2.2,0.4c-17.6-0.1-35.2-0.2-52.9-0.4c-1.3-2.1-2.4-4.2-3.6-6.1c-4.2-6.8-9.3-13-14.7-18.7
	c1.1,0.1,2.1,0.3,3.1,0.3c19,0,38,0,57,0C327.7,78.4,328.5,77.9,329.3,77.7z"/>
<path class="st6" d="M24.9,205.1c1.3-0.3,2.6-0.5,3.8-0.5c1.5,0,2.6,0.1,2.6-2c0-2-0.9-2.2-2.5-2.1c-1.1,0.1-2.3,0.1-2.4-1.6
	c3.6-0.2,7.2-0.2,11,0c0.2,2.2,0.2,4.1,0,6.1c-1.4,0-2.7,0.1-3.9,0c-1.8-0.2-2.3,0.5-2.3,2.3c0.1,13.9,0,27.8,0.1,41.7
	c0,2.3,0.3,4.7,0.9,7c3.8,14.2,15.9,23.4,30.6,23.5c8.1,0.1,16.1,0,24.2,0c1.8,0,3.6-0.2,5.3-0.5c7.5-1.3,13.6-4.8,18.6-10.7
	c4.1-4.9,6.9-10.5,7-16.8c0.3-14.9,0.1-29.9,0.1-44.8c0-1.1-0.3-1.6-1.5-1.5c-1.5,0.1-3,0-4.5-0.2c0-2.1,0-4.1,0.2-6.1
	c2,0,3.9,0,5.8,0.2c0,1.6,0,3.1,0.1,4.5c0.1,0.9,0.4,1.6,1.6,1.6c1.5-0.1,3.1,0,4.6,0c0,14.3,0,28.5,0,42.8c0,6.6-1.4,12.8-4.7,18.5
	c-6,10.4-14.9,16.9-26.9,18.7c-3,0.4-6,0.4-9.1,0.4c-7.4,0-14.9,0-22.3,0c-8.6,0-16.1-3-22.7-8.4c-7.4-6.1-11.7-14-13.3-23.3
	c-0.3-1.8-0.4-3.7-0.4-5.5C24.9,233.8,24.9,219.6,24.9,205.1z"/>
<path class="st7" d="M285.3,103c17.6,0.1,35.2,0.2,52.7,0.3c0.7,0,1.3-0.2,2.2-0.3c1.4,4.5,2.8,8.9,3.9,13.5
	c0.9,3.9,1.5,7.9,2.2,11.9c0.1,0.4,0,0.7-0.2,1.3c-16.3,0.2-32.4,0.2-48.5,0.2c-0.8,0-1.5,0.3-2.4,0.3c-1.8-5.5-3.2-10.9-5.1-16.2
	C288.8,110.2,287,106.6,285.3,103z"/>
<path class="st8" d="M85.1,54.3c1.2,0.1,2.3,0.3,3.4,0.3c25.3,0,50.7,0,76,0c0.8,0,1.6,0.1,2.4,0.4c-2.5,1.2-5.2,2-7.7,3.1
	c-6.9,3.1-13.5,6.9-19.8,11.3c-20,0-39.8,0-59.7,0c-1.8,0-3.6-0.2-5.3-0.4c2.5-3.6,4.9-7.3,7.4-10.8C82.7,56.9,83.9,55.7,85.1,54.3z
	"/>
<path class="st9" d="M74.3,69.2c1.9,0.1,3.7,0.3,5.5,0.3c19.8,0,39.7,0,59.6,0.1c-2.3,2.2-4.9,4.1-7.2,6.4
	c-3.8,3.8-7.5,7.8-11.3,11.7c-1.1-0.1-2-0.3-2.9-0.3c-16.6,0-33.2,0-49.8,0c-1.1,0-2.3-0.5-3.4-0.7c2.7-5.1,5.4-10.2,8.1-15.3
	C73.2,70.6,73.7,69.9,74.3,69.2z"/>
<path class="st10" d="M329.3,77.5c-0.8,0.4-1.6,0.9-2.3,0.9c-19,0-38,0-57,0c-1,0-2-0.2-3.2-0.4c-6.1-5.7-12.4-10.6-19.2-14.9
	c0.9-0.1,1.7-0.3,2.5-0.3c7.7,0,15.4,0,23.1,0c14.6,0,29.1,0,43.7,0c1,0,2,0.1,2.4-1.2c2.3,3.4,4.7,6.8,6.9,10.2
	C327.3,73.7,328.3,75.6,329.3,77.5z"/>
<path class="st11" d="M64.6,86.7c1.2,0.2,2.4,0.7,3.5,0.7c16.6,0,33.2,0,49.8,0c0.9,0,1.8,0.2,2.8,0.5c-1.6,2.5-3.4,4.7-5,7.2
	c-2.2,3.6-4.3,7.3-6.5,11c-1.2,0.1-2.2,0.3-3.3,0.3c-16.3-0.1-32.7-0.2-49-0.4C59.5,99.6,62,93.2,64.6,86.7z"/>
<path class="st12" d="M295.4,130.2c0.8-0.1,1.5-0.4,2.3-0.4c16.1,0,32.2,0,48.5,0c1.3,6.4,1.5,12.9,1.1,19.5
	c-16.7,0.2-33.1,0.2-49.6,0c-0.4-3.9-0.7-7.7-1.2-11.4C296.2,135.3,295.8,132.8,295.4,130.2z"/>
<path class="st13" d="M319.2,61.6c-0.3,1.4-1.4,1.3-2.4,1.3c-14.6,0-29.1,0-43.7,0c-7.7,0-15.4,0-23.1,0c-0.8,0-1.6,0.2-2.6,0.3
	c-4.6-2.1-8.8-4.3-13.2-6.2c-3.3-1.4-6.8-2.5-10.2-3.7c0.9-0.3,1.8-0.8,2.7-0.8c27.5,0,54.9,0,82.4-0.1c0.8,0,1.5-0.3,2.3-0.5
	C314,55,316.6,58.2,319.2,61.6z"/>
<path class="st14" d="M49.9,173.7c0-5.1,0-10.2,0.1-15.5c16.7-0.2,33.1-0.2,49.6,0c0,5.3,0,10.4-0.2,15.5
	C82.9,173.7,66.4,173.7,49.9,173.7z"/>
<path class="st15" d="M57,106.1c16.4,0,32.7,0.1,49,0.2c1,0,2.1-0.2,3.3-0.2c-1.8,5.1-3.8,10.1-5.9,15.1c-15.8,0-31.4,0-47,0
	c-1,0-2.1-0.2-3.1-0.4c0.8-3.5,1.6-7,2.5-10.5C56,109,56.5,107.6,57,106.1z"/>
<path class="st16" d="M347.4,183.7c0,4.8,0,9.7-0.1,14.7c-16.7,0.2-33.2,0.2-49.7,0c0-5,0-9.8,0.2-14.7
	C314.5,183.7,331,183.7,347.4,183.7z"/>
<path class="st16" d="M49.9,198.6c0-4.8,0-9.7,0.2-14.6c16.7-0.2,33.1-0.2,49.6,0c0,5,0,9.8-0.1,14.7
	C82.9,198.6,66.4,198.6,49.9,198.6z"/>
<path class="st17" d="M99.7,158.1c-16.5,0-32.9,0-49.6,0c-0.2-4.5-0.2-8.9,0-13.6c1.2,0,2.3,0.2,3.3,0.2c9.5,0,19,0.1,28.6,0
	c5.9,0,11.8-0.2,17.8-0.2C99.7,149.1,99.7,153.6,99.7,158.1z"/>
<path class="st18" d="M53,120.9c1.2,0.1,2.2,0.3,3.2,0.3c15.6,0,31.2,0,47,0.2c-0.2,1.7-0.6,3.2-1,4.7c-0.5,2.3-1,4.7-1.7,7
	c-1.9,0.1-3.7,0.3-5.5,0.4c-8.7,0-17.3,0.1-26,0c-6,0-12.1-0.2-18.1-0.4c0.4-2.7,0.8-5.4,1.2-8C52.4,123.7,52.7,122.4,53,120.9z"/>
<path class="st19" d="M347.5,183.6c-16.5,0.2-33,0.2-49.6,0c-0.2-3.9-0.2-7.6,0-11.4c16.6,0,33.1,0,49.6,0
	C347.5,175.9,347.5,179.7,347.5,183.6z"/>
<path class="st20" d="M297.7,149.5c16.5,0,32.9,0,49.6,0c0.2,3.7,0.2,7.5,0,11.4c-16.7,0.2-33.1,0.2-49.6,0
	C297.7,157,297.7,153.2,297.7,149.5z"/>
<path class="st21" d="M51,133.3c6.1,0,12.1,0.2,18.2,0.2c8.7,0.1,17.3,0,26,0c1.8,0,3.6-0.2,5.5-0.2c-0.2,3.8-0.6,7.4-1,11
	c-5.9,0.1-11.8,0.3-17.8,0.4c-9.5,0.1-19,0-28.6,0c-1,0-2.1-0.2-3.3-0.3C50.3,140.7,50.6,137.1,51,133.3z"/>
<path class="st14" d="M297.7,161.1c16.5,0,32.9,0,49.6,0c0.2,3.6,0.2,7.2,0.2,11c-16.5,0.2-33,0.2-49.6,0
	C297.7,168.3,297.7,164.7,297.7,161.1z"/>
<path class="st22" d="M99.7,183.7c-16.5,0-32.9,0-49.6,0c-0.2-3.2-0.2-6.5-0.2-9.9c16.5-0.2,33-0.2,49.6,0
	C99.7,177.3,99.7,180.5,99.7,183.7z"/>
<path class="st23" d="M49.7,198.6c16.7,0,33.2,0,49.9,0c0.2,0,0.2,0,0.2,0.2c0,2.2,0,4.1-0.2,6.1c-16.7,0-33.2,0-49.9,0
	c-2.2,0-4.2,0-6.1-0.2c0-2.1,0-4.1,0-6.1C45.5,198.7,47.5,198.6,49.7,198.6z"/>
<path class="st23" d="M297.7,198.6c16.5,0,33,0,49.7,0c2.2,0,4.2,0,6.3,0.2c0.2,2.2,0.2,4.1,0,6.1c-2.2,0-4.2,0-6.3,0
	c-16.7,0-33.2,0-49.7,0c0,0,0,0,0-0.2C297.6,202.6,297.6,200.6,297.7,198.6C297.6,198.6,297.7,198.6,297.7,198.6z"/>
<path class="st6" d="M353.9,204.9c0-2,0-3.9,0-6.1c4-0.2,8-0.2,12.1-0.2c0.2,2,0.2,4,0.2,6.1c0,0.2,0,0.2-0.2,0.2
	c-2.2,0-4.2,0-6.3,0C357.6,204.9,355.7,204.9,353.9,204.9C353.8,204.9,353.9,204.9,353.9,204.9z"/>
<path class="st24" d="M43.4,198.7c0.2,2,0.2,4,0.2,6.1c0,0.2,0,0.2-0.2,0.2c-2,0-3.9,0-5.8,0c0,0,0,0,0,0c0-2,0-3.9,0-6.1
	C39.5,198.7,41.3,198.7,43.4,198.7z"/>
<path class="st7" d="M340.4,102.5c-0.1,0-0.2,0-0.3-0.2C340.2,102.3,340.3,102.4,340.4,102.5z"/>
<path class="st25" d="M130.2,367.5c1,7.7-0.3,14.8-3.2,21.7c-3.3,7.7-8.4,13.8-15.3,18.7c-5.1,3.6-10.6,6-16.6,7
	c-10.6,1.8-20.7,0.3-30-5.3c-8.2-4.9-14.2-11.7-18-20.4c-1.8-4.2-2.8-8.6-3.2-13.3c-0.8-8.3,0.8-16.1,4.6-23.5
	c3.9-7.7,9.6-13.6,17-17.9c7.6-4.4,15.8-6.3,24.6-5.7c9.3,0.6,17.6,4,24.8,10c7.7,6.5,12.6,14.7,14.8,24.5
	C129.9,364.7,130,366,130.2,367.5 M89.4,335.2c-2,0.1-4,0.2-6,0.4c-5.7,0.4-10.9,2.2-15.7,5.3c-5.9,3.8-10.6,8.7-13.7,15
	c-2.8,5.8-4,11.8-3.7,18.3c0.2,4.7,1.3,9.2,3.2,13.4c2.7,6,6.8,10.8,12,14.7c5.4,4,11.6,6.3,18.3,6.9c7.8,0.7,15.3-0.9,22.1-5
	c5.3-3.2,9.7-7.4,12.9-12.7c2.3-3.8,4-7.8,4.7-12.1c0.8-4.8,0.9-9.7-0.1-14.6c-1.2-5.8-3.6-11-7.4-15.6c-5-6.1-11.1-10.3-18.7-12.5
	C94.7,336,92.2,335.7,89.4,335.2z"/>
<path class="st25" d="M177.4,410.1c-7.2-4.1-12.8-9.8-16.7-16.9c-3-5.3-4.6-11.1-5.2-17.3c-0.6-6.9,0.4-13.4,2.9-19.7
	c3.7-9.3,9.9-16.4,18.5-21.5c7.6-4.5,15.9-6.4,24.7-5.8c9.3,0.6,17.6,4,24.8,10c7.7,6.5,12.7,14.6,14.8,24.5
	c2,9.5,0.8,18.7-3.4,27.6c-3.7,7.8-9.3,13.8-16.5,18.4c-5,3.1-10.5,5.1-16.4,5.9c-8.6,1.1-16.9,0-24.8-3.7
	C179.2,411.1,178.4,410.6,177.4,410.1 M162.6,364.4c-1.1,5-1.2,10-0.2,14.9c0.8,3.5,1.9,7.1,3.6,10.3c2.5,4.9,6.1,8.9,10.5,12.3
	c5.6,4.3,11.8,6.7,18.7,7.3c7.7,0.7,15.2-0.8,21.9-4.8c6.1-3.6,10.9-8.5,14.3-14.8c3.3-6.1,4.4-12.7,4.1-19.6
	c-0.2-5.1-1.6-9.9-3.8-14.4c-2.5-5.1-6.2-9.3-10.7-12.7c-6.1-4.7-13.1-7.2-20.7-7.5c-3.4-0.2-6.8,0.4-10.1,1.1
	c-9.2,2-16.2,7.2-21.7,14.7C165.6,355,163.8,359.4,162.6,364.4z"/>
<path class="st6" d="M366.1,204.9c2,0,4,0,6.1,0c0.2,14.3,0.3,28.6,0.1,43c-0.1,7.6-2,14.7-6.4,20.9c-1.5,2-3.4,3.7-5.1,5.6
	c-1.2,1.2-2.3,2.6-3.7,3.6c-6.4,4.9-13.7,7.3-21.7,7.3c-8.9,0-17.9,0.2-26.8-0.1c-11.1-0.3-20.1-5.1-27.2-13.6
	c-4.1-4.9-6.7-10.5-7.8-16.8c-0.3-1.8-0.6-3.7-0.6-5.5c0-14.7,0-29.4,0.1-44.3c1.6-0.2,3-0.2,4.4-0.2c1.2,0.1,1.6-0.6,1.6-1.6
	c0.1-1.6,0.1-3.1,0.3-4.8c2,0,3.9,0,5.8,0.2c0,2.1,0,4.1-0.2,6.1c-1.3,0-2.4,0.1-3.5,0c-1.8-0.2-2.3,0.5-2.3,2.3
	c0.1,14.2,0,28.4,0.1,42.6c0,1.8,0.3,3.6,0.6,5.3c1.6,7.3,5.5,13.2,11.3,17.8c1.7,1.4,3.5,2.8,5.5,3.6c4.9,1.9,10,3,15.4,2.9
	c7.4-0.1,14.7,0,22.1,0c5.5,0,10.8-1.1,15.5-3.7c3.1-1.7,5.8-4.2,8.2-6.8c5.1-5.3,7.8-11.8,7.9-19.1
	C366.3,234.8,366.1,219.9,366.1,204.9C366.1,205,366.1,205,366.1,204.9z"/>
<path class="st26" d="M279.4,198.7c0,1.6,0,3.2-0.1,4.7c-0.1,0.9-0.5,1.6-1.6,1.6c-1.4-0.1-2.8,0-4.4,0c-49.7,0-99.2,0-148.8,0
	c-1.7,0-3.3-0.1-4.8,0c-1.2,0.1-1.5-0.7-1.6-1.6c-0.1-1.5-0.1-2.9,0.1-4.6c51.8-0.2,103.4-0.2,155-0.2
	C275.2,198.6,277.3,198.7,279.4,198.7z"/>
<path class="st25" d="M349,353c1.3,3.6,3.1,7.2,3.9,10.9c1.8,8.6,0.8,17.1-2.7,25.2c-3.3,7.7-8.4,14-15.4,18.8
	c-5.1,3.5-10.6,5.9-16.6,7c-8.5,1.5-16.9,0.8-24.9-2.7c-11.1-4.8-18.9-12.9-23.5-24c-2.2-5.4-3.1-11.2-3.1-17c0-0.7,0.2-1.5,0.5-2.3
	c2.1-0.1,4.1-0.2,6.1,0c0,0.8,0,1.4-0.2,2.1c-1.7,0.2-3.2,0.4-4.7,0.6c0,0.2,0,0.4,0,0.5c0.9,0,1.7-0.1,2.6,0
	c0.8,0.1,1.5,0.5,2.3,0.9c-0.4,6,1.4,11.5,4,16.5c2.2,4.4,5.5,8.2,9.4,11.4c5.9,4.8,12.6,7.6,20,8.3c7.9,0.7,15.4-0.9,22.3-5.1
	c5.3-3.2,9.5-7.3,12.8-12.5c2.3-3.7,4-7.8,4.7-12.1c0.8-4.8,1.2-9.8-0.2-14.6c-1.1-3.9-2.8-7.6-4-11.4
	C344.7,353.7,346.9,354.2,349,353z"/>
<path class="st4" d="M273.4,368.7c-2,0-4,0-6.1,0c0-6.5,2.2-12.5,5.4-18.1c3.8-6.7,9.1-12,15.9-15.9c0.2-0.1,0.5-0.2,0.9-0.2
	c1.3,0.3,1.9-0.1,1.9-1.2c7.5-3.8,15.3-5,23.6-4.2c5,0.5,9.6,2,14.2,4.2c0.3,1.5,0.9,1.8,1.9,1.1c4.4,2,8.2,4.9,11.2,8.6
	c2.5,3,4.4,6.5,6.6,9.9c-2.1,1.3-4.2,0.8-6.7,0.5c-3.8-6-8.7-10.7-14.9-13.9c-6.5-3.4-13.4-4.9-20.8-4c-5.7,0.7-10.9,2.2-15.7,5.3
	C280.7,347.3,274.9,356.7,273.4,368.7z"/>
<path class="st25" d="M331.1,334.3c-1,0.8-1.6,0.5-1.8-0.9C329.9,333.6,330.4,333.9,331.1,334.3z"/>
<path class="st25" d="M291.2,333.3c0.1,1.1-0.5,1.5-1.6,1.2C290,334.1,290.5,333.7,291.2,333.3z"/>
<path class="st27" d="M112,204.9c1.5,0,3,0.1,4.5,0c1.1,0,1.5,0.4,1.5,1.5c0,14.9,0.2,29.9-0.1,44.8c-0.1,6.3-2.9,11.9-7,16.8
	c-4.9,5.8-11.1,9.4-18.6,10.7c-1.8,0.3-3.6,0.5-5.3,0.5c-8.1,0.1-16.1,0.1-24.2,0c-14.7-0.1-26.8-9.4-30.6-23.5
	c-0.6-2.2-0.9-4.6-0.9-7c-0.1-13.9,0-27.8-0.1-41.7c0-1.8,0.5-2.5,2.3-2.3c1.2,0.1,2.5,0,3.9,0c0.2,0,0.2,0,0.2,0.2
	c0,15,0,29.8,0,44.6c0,0.6,0,1.2,0,1.9c1.7,12.3,12.3,21.5,24.8,21.5c8.6,0,17.1,0,25.7,0c0.6,0,1.1,0,1.7,0
	c14.4-2.2,21.9-12.8,22.2-25.3C112.3,233.5,112,219.2,112,204.9C112,205,112,204.9,112,204.9z"/>
<path class="st24" d="M99.8,198.8c4-0.2,7.9-0.2,12.1-0.2c0.2,2,0.2,4,0.2,6.1c0,0.2,0,0.2-0.2,0.2c-2.2,0-4.2,0-6.3,0
	c-2,0-3.9,0-5.8,0c0,0,0,0,0,0C99.7,202.9,99.7,201,99.8,198.8z"/>
<path class="st28" d="M49.9,205c16.5,0,33,0,49.7,0c0.2,0,0.2,0,0.2,0.2c-0.1,14.6-0.3,29-0.4,43.4c0,6.6-5.3,12.1-11.9,12.2
	c-8.4,0.1-16.8,0.1-25.3,0c-6.9-0.1-12.3-5.6-12.3-12.5C49.9,233.8,49.9,219.4,49.9,205z"/>
<path class="st29" d="M49.7,205c0.2,14.4,0.2,28.9,0.2,43.3c0,6.9,5.4,12.4,12.3,12.5c8.4,0.1,16.8,0.1,25.3,0
	c6.6-0.1,11.9-5.6,11.9-12.2c0.1-14.4,0.2-28.8,0.4-43.4c1.9-0.2,3.7-0.2,5.8,0c0.2,14.2,0.2,28.3,0.2,42.4c0,1.5-0.2,3.1-0.4,4.6
	c-1.5,8.1-9.5,14.8-17.9,14.6c-8.7-0.2-17.5,0-26.2,0c-0.8,0-1.6,0-2.4-0.2c-9.2-2-15.1-9.4-15.2-19.3c0-14.1,0-28.1,0-42.2
	c0,0,0,0,0,0C45.5,205,47.5,205,49.7,205z"/>
<path class="st28" d="M297.7,205c16.5,0,33,0,49.7,0.2c0.2,14.5,0.2,28.8,0.2,43.1c0,0.8,0,1.6-0.2,2.4c-1.4,6.1-6.3,10.1-12.7,10.1
	c-7.8,0-15.5,0.1-23.3-0.1c-2.1,0-4.4-0.4-6.3-1.2c-4-1.8-6.7-5-7-9.4c-0.4-6.7-0.4-13.4-0.4-20C297.6,221.7,297.7,213.3,297.7,205z
	"/>
<path class="st29" d="M297.7,204.9c0,8.4,0,16.7,0,25.1c0,6.7,0,13.4,0.4,20c0.3,4.4,3,7.6,7,9.4c1.9,0.9,4.2,1.2,6.3,1.2
	c7.7,0.1,15.5,0.1,23.3,0.1c6.4,0,11.3-3.9,12.7-10.1c0.2-0.8,0.2-1.6,0.2-2.4c0-14.3,0-28.6,0-43.1c2-0.2,4-0.2,6.2-0.2
	c0.2,0,0.2,0,0.2,0.2c0,12.2,0,24.2,0,36.3c0,3.1-0.1,6.3-0.4,9.4c-0.6,8.2-8.9,15.9-17.2,15.9c-8.8,0-17.6,0-26.4,0
	c-9.8,0-18.1-8.1-18.2-18.2c-0.1-14.5,0-29,0.2-43.5C293.9,204.9,295.8,204.9,297.7,204.9C297.7,204.9,297.7,204.9,297.7,204.9z"/>
<path class="st24" d="M297.7,204.8c-1.9,0.2-3.7,0.2-6,0.2c-2.3,0-4.3,0-6.3,0c0,0,0,0,0,0c0-2,0-3.9,0-6.1c4-0.2,7.9-0.2,12.1-0.2
	C297.6,200.6,297.6,202.6,297.7,204.8z"/>
<path class="st27" d="M365.9,205c0.2,14.9,0.3,29.9,0.1,44.8c-0.1,7.3-2.8,13.8-7.9,19.1c-2.5,2.5-5.2,5.1-8.2,6.8
	c-4.7,2.7-10.1,3.7-15.5,3.7c-7.4,0-14.7-0.1-22.1,0c-5.3,0.1-10.5-1-15.4-2.9c-2-0.8-3.8-2.3-5.5-3.6c-5.8-4.6-9.8-10.4-11.3-17.8
	c-0.4-1.7-0.6-3.5-0.6-5.3c-0.1-14.2,0-28.4-0.1-42.6c0-1.8,0.5-2.5,2.3-2.3c1.1,0.1,2.2,0,3.5,0c0.2,0,0.2,0,0.2,0.2
	c0,14.1,0,27.9,0,41.8c0,1.8,0.1,3.7,0.4,5.5c1.9,11.6,12.5,20.6,24.2,20.6c7.9,0,15.7-0.1,23.6,0c6.5,0.1,12.3-1.6,17.3-5.8
	c5.4-4.6,8.7-10.5,8.8-17.7c0.1-14.9,0-29.7,0-44.6C361.8,205,363.8,205,365.9,205z"/>
<path class="st30" d="M359.6,204.9c0.2,14.9,0.3,29.7,0.1,44.6c-0.1,7.2-3.3,13-8.8,17.7c-5,4.3-10.8,5.9-17.3,5.8
	c-7.9-0.1-15.7,0-23.6,0c-11.8,0-22.3-8.9-24.2-20.6c-0.3-1.8-0.4-3.7-0.4-5.5c0-13.9,0-27.8,0-41.8c2-0.2,4-0.2,6.1-0.2
	c0.2,14.5,0.1,29,0.2,43.5c0,10.1,8.4,18.3,18.2,18.2c8.8,0,17.6,0,26.4,0c8.2,0,16.5-7.7,17.2-15.9c0.2-3.1,0.4-6.3,0.4-9.4
	c0-12,0-24.1,0-36.3C355.7,204.9,357.6,204.9,359.6,204.9z"/>
<path class="st30" d="M43.4,205c0.2,14.1,0.1,28.1,0.2,42.2c0,9.9,6,17.4,15.2,19.3c0.8,0.2,1.6,0.2,2.4,0.2c8.7,0,17.5-0.1,26.2,0
	c8.4,0.2,16.4-6.6,17.9-14.6c0.3-1.5,0.4-3.1,0.4-4.6c0-14.1,0-28.1,0-42.4c2-0.2,4-0.2,6.1-0.2c0.2,14.3,0.4,28.5,0.1,42.8
	c-0.3,12.4-7.8,23.1-22.2,25.3c-0.5,0.1-1.1,0-1.7,0c-8.6,0-17.1,0-25.7,0c-12.5,0-23-9.1-24.8-21.5c-0.1-0.6,0-1.2,0-1.9
	c0-14.8,0-29.6,0-44.6C39.5,205,41.3,205,43.4,205z"/>
<path class="st26" d="M273.3,370.9c0.2,0.5,0.2,1,0.2,1.7c-0.8-0.1-1.5-0.4-2.3-0.6c-0.8-0.1-1.7,0-2.6,0c0-0.2,0-0.4,0-0.5
	C270.1,371.3,271.6,371.1,273.3,370.9z"/>
</svg>
