<?xml version="1.0" encoding="utf-8"?>
<!-- Generator: Adobe Illustrator 28.1.0, SVG Export Plug-In . SVG Version: 6.00 Build 0)  -->
<svg version="1.1" id="Layer_1" xmlns="http://www.w3.org/2000/svg" xmlns:xlink="http://www.w3.org/1999/xlink" x="0px" y="0px"
	 viewBox="0 0 533.5 484.1" style="enable-background:new 0 0 533.5 484.1;" xml:space="preserve">
<style type="text/css">
	.st0{fill:#F5815C;}
	.st1{fill:#FCD520;}
	.st2{fill:#FDC51B;}
	.st3{fill:#FDB718;}
	.st4{fill:#FCDF22;}
	.st5{fill:#FDA814;}
	.st6{fill:#F9B29D;}
	.st7{fill:#F7A78E;}
	.st8{fill:#F59E84;}
	.st9{fill:#FCE624;}
	.st10{fill:#FE9945;}
	.st11{fill:#FE9145;}
	.st12{fill:#FDAD31;}
	.st13{fill:#FDB492;}
	.st14{fill:#F9BAA6;}
	.st15{fill:#F58A68;}
	.st16{fill:#F9C4B3;}
	.st17{fill:#FDC12A;}
	.st18{fill:#F9BDAB;}
	.st19{fill:#FBCFBF;}
	.st20{fill:#FEA73B;}
	.st21{fill:#FDA724;}
	.st22{fill:#FAC9BA;}
	.st23{fill:#FE9838;}
	.st24{fill:#FCB99C;}
	.st25{fill:#F5977B;}
	.st26{fill:#F58C6C;}
	.st27{fill:#FD9A2C;}
	.st28{fill:#F59274;}
	.st29{fill:#F8AB94;}
	.st30{fill:#F69B80;}
	.st31{fill:#F48665;}
	.st32{fill:#FAA385;}
	.st33{fill:#F6A189;}
	.st34{fill:#F8A284;}
	.st35{fill:#FCA37A;}
	.st36{fill:#FDA780;}
	.st37{fill:#FCA27E;}
	.st38{fill:#FDAA84;}
	.st39{fill:#FC9D74;}
	.st40{fill:#FB9F7B;}
</style>
<path class="st0" d="M116.9,429.3c-3.8,2.6-7.6,5.2-11.5,7.8c-3.4,2.2-6.7,4.6-10.2,6.5c-4.7,2.6-10.8,1.4-14.6-2.4
	c-12.5-12.5-25-25-37.5-37.5c-2.5-2.5-4-5.5-4.3-9c-0.2-2.7,0.5-5.3,2.1-7.6c6-9,12-18,18.1-27c0.7-1,0.7-1.9,0.2-3
	c-3.2-6.6-6.6-13.2-9.5-20c-2.2-5.1-3.8-10.5-5.4-15.9c-0.6-1.9-1.6-2.5-3.3-2.8c-10-2-19.9-4.1-29.9-6c-4.1-0.8-7.5-2.6-9.5-6.3
	c-0.8-1.5-1.4-3.3-1.4-5c-0.1-18.4,0-36.8-0.1-55.2c0-3.7,1.1-6.8,4-9.2c-0.2,2.2,1,3.6,2.3,5c0.4-0.3,0.8-0.5,1.1-0.8
	c1.5-1.7,3.3-2.6,5.6-1.8c0.5,0.2,1.1,0,1.7-0.1c10.8-2.2,21.5-4.4,32.3-6.5c1.4-0.3,1.8-0.9,2.2-2.1c1-3.3,2-6.6,3.1-9.9
	c0.7,0.5,1.3,0.9,1.8,1.4c69.2,69.2,138.3,138.3,207.5,207.5c0.6,0.6,1,1.4,1.4,2.1c-0.9,0.4-1.7,0.7-2.7,1
	c-2.7,0.7-5.3,1.4-7.8,2.3c-0.6,0.2-1.2,1-1.3,1.7c-1.3,6.4-2.6,12.8-3.9,19.2c-1.1,5.6-2.2,11.1-3.4,16.8c-1.6,3.8-3,4.7-7.2,4.7
	c-12.2,0-24.4,0-36.8,0c-5.4,0-10.7,0-16,0c-3.5,0-5.4-1.4-6.2-4.9c-1.4-6.5-2.8-13-4.1-19.6c-1.1-5.3-2-10.5-3.1-15.8
	c-0.2-1.2-0.6-2-2.1-2.4c-9.8-2.7-19.6-5.9-28.7-10.4c-4.7-2.3-9.2-4.8-13.8-7.1c-0.6-0.3-1.6-0.4-2-0.1c-3.1,2.1-6.1,4.3-9.1,6.6
	c-0.4,0.3-0.7,1.3-0.5,1.8C115.1,426.8,116.1,428.1,116.9,429.3z"/>
<path class="st1" d="M266.4,57.2c0.8-1.1,1.6-2.2,2.5-3.2c1.1,1.7,2.2,3.2,2.9,4.9c1.1,2.4,2.7,3.2,5.3,3.2c46.6,0,93.2,0,139.8,0
	c28.2,0,56.4,0,84.6,0c1.4,0,2.5,0,2.3-1.9c0.9,3.3,0.4,6.5-1.2,9.4c-3.2,5.5-6.5,10.9-9.8,16.3c-1,1.7,0.3,3,0.8,4.3
	c1.8,4.2,3.9,8.4,5.8,12.6c0.2,0.4,0.3,0.8,0.5,1.4c-0.8,0.5-1.7,0.9-2.5,0.9c-38.2,0-76.4,0-114.6,0.1c-4.3,0-7.5-1.5-10.4-4.2
	c-5.3-4.9-9.7-10.7-15.8-14.8c-2.2-1.5-4.4-1.5-6.9-1.3c-0.6-0.2-1.1-0.4-1.5-0.6c-4.6-2.8-9.6-3.9-14.8-4.2
	c-8.2-0.5-15.4,2.8-22.5,6.4c-1,0.5-2.2,0.7-3.3,1c-1.7,0.6-3.6,0.9-5.1,1.8c-1.7,0.9-3.2,2.3-4.8,3.5c-1.6,1.1-3.2,1.4-5,0.5
	c-1.5-0.8-3-1.4-4.6-2c-3.2-1.2-6-3.5-9.6-3.6c-0.6,0-1.1-0.8-1.7-1.3c-1.2-2-2.5-4-3.7-6.3c-0.1-0.3-0.2-0.4-0.3-0.4c0,0,0,0,0-0.2
	c-0.8-4.2-1.4-8.3-2.5-12.2C269.2,64.1,267.7,60.7,266.4,57.2z"/>
<path class="st2" d="M349.8,85.2c2.4-0.2,4.5-0.2,6.7,1.2c6.1,4.1,10.5,9.9,15.8,14.8c3,2.7,6.1,4.2,10.4,4.2
	c38.2-0.2,76.4-0.1,114.6-0.1c0.9,0,1.8-0.5,2.7-0.9c1.1,2.9,2.3,6,3.4,9.1c0.1,0.2,0.1,0.5,0.2,0.7c0.3,1.9,1.4,2.7,3.3,3.1
	c6.2,1.4,12.4,3,18.6,4.8c4.2,1.2,7.5,5.6,7.8,10c0,8.3,0,16.2-0.2,24.2c-18.3,0-36.4,0-54.5,0c-22.6,0-45.2,0-67.9,0
	c-2.7,0-3.2-0.5-3.2-3.3c-0.1-2.1-0.1-4.2-0.4-6.3c-0.5-3.7-1.4-4.6-4.4-4.7c-0.5-1.3-0.8-2.7-1.6-3.7c-2.9-3.9-5.6-7.9-8.9-11.5
	c-3.9-4.4-8.3-8.4-12.5-12.6c-6.4-6.4-12.8-12.8-19.3-19.3c-1.3-1.3-2.6-2.6-3.9-3.9c-0.6-0.7-1.1-1.5-1.8-2.1
	C353.1,87.5,351.4,86.4,349.8,85.2z"/>
<path class="st3" d="M402.6,142.1c3,0,4,0.9,4.4,4.6c0.3,2.1,0.3,4.2,0.4,6.3c0.1,2.7,0.5,3.3,3.2,3.3c22.6,0,45.2,0,67.9,0
	c18.1,0,36.2,0,54.5,0.2c0.2,3.3,0.2,6.4,0.2,9.5c0.1,4-4.2,9.2-9.1,10.4c-6.2,1.5-12.3,3-18.5,4.5c-1,0.3-1.5,0.9-1.7,1.9
	c-2.3,8.4-5.6,16.3-9.8,24.1c-1.8,0.2-3.3,0.4-4.9,0.4c-24.7,0-49.5,0-74.2,0c-3.8,0-7.5-0.4-11.3-0.7c-3.7-0.3-7.2-0.8-8.4-5.2
	c-0.2-0.6-1.5-1-2.3-1.5c-0.6-0.4-1.3-0.7-1.7-1.3c-0.7-0.7-1.2-1.6-1.9-2.5c-0.7-1.9-1.1-3.8-2.1-5.4c-0.8-1.4-0.9-2.5-0.1-3.8
	c3.5-5.5,6.9-10.9,10.4-16.4c3.7-5.6,5.7-11.8,5.5-18.5c-0.1-2.6-0.5-5.3-0.7-8C402.6,143.2,402.6,142.6,402.6,142.1z"/>
<path class="st4" d="M503.8,60.2c0.3,1.8-0.9,1.9-2.3,1.9c-28.2,0-56.4,0-84.6,0c-46.6,0-93.2,0-139.8,0c-2.6,0-4.2-0.8-5.3-3.2
	c-0.8-1.7-1.9-3.2-2.8-4.9c7.4-7.6,14.6-15.1,22.2-22.3c3.6-3.4,8.4-3.1,12.6-1.1c4.4,2.1,8.5,4.8,12.7,7.3c1.7,1,3.4,2.1,5.2,2.9
	c0.5,0.3,1.4,0.2,1.9-0.1c5.3-2.5,10.6-5,15.9-7.5c0.2-0.1,0.5-0.1,0.9,0c0.9,0.4,1.7,0.9,2.5,0.9c28,0,55.9,0,83.9,0
	c0.5,0,1,0.1,1.5-0.1c0.4-0.1,0.6-0.6,0.8-1c3.6,1.6,7.2,3.2,10.7,4.9c1.8,0.9,3.5,2,5.3,2.8c0.6,0.3,1.7,0.2,2.3-0.2
	c6-3.4,11.9-7,17.9-10.3c4.3-2.4,10.4-1.2,13.8,2.2c2.4,2.4,4.7,5,7.2,7.5c4.7,4.7,9.5,9.3,14.4,14.2c0.2,0.3,0.3,0.4,0.4,0.4
	c0,0,0,0,0,0.1c0.1,0.2,0.2,0.2,0.3,0.3c0,0,0,0,0.1,0.1c0.1,0.2,0.2,0.2,0.3,0.3c0,0,0,0,0.1,0.1c0.1,0.2,0.1,0.2,0.2,0.3
	c0,0.1,0,0.1,0.1,0.3c0.1,0.3,0.2,0.3,0.3,0.4c0,0,0,0,0,0.1c0.1,0.3,0.2,0.5,0.4,0.6c0,0,0,0,0,0.1c0.1,0.2,0.2,0.2,0.3,0.3
	c0,0.1,0,0.1,0.1,0.4c0.1,0.4,0.2,0.6,0.3,0.7c0,0,0.1,0.2,0.1,0.4C503.5,59.7,503.7,59.9,503.8,60.2
	C503.8,60.2,503.8,60.2,503.8,60.2z"/>
<path class="st5" d="M389.6,196c0.6,0.8,1.1,1.7,1.8,2.4c0.5,0.5,1.1,0.9,1.7,1.3c0.8,0.5,2.1,0.8,2.3,1.5c1.2,4.4,4.7,4.9,8.4,5.2
	c3.8,0.3,7.5,0.7,11.3,0.7c24.7,0.1,49.5,0,74.2,0c1.5,0,3.1-0.2,4.8-0.3c-0.1,0.6-0.2,1.2-0.6,1.6c-1.5,1.7-0.8,3.2,0.2,4.8
	c3.1,5.1,6.2,10.2,9.1,15.4c2.8,4.9,1.6,11.4-2.5,15.4c-6.9,6.8-13.8,13.7-20.7,20.6c-4.4,4.4-11.2,5.1-16.4,1.8
	c-5.3-3.4-10.8-6.4-16.4-9.8c-0.4-0.7-1-1.3-1-1.8c-0.1-1.4-0.1-2.8-2.1-2.9c-0.2,0-0.5-0.4-0.5-0.7c-0.3-1.5-0.8-3-0.8-4.5
	c0.1-2.2,0.3-4.2-0.3-6.4c-1.4-4.8-2.6-9.5-5.7-13.6c-4.7-6.1-10.2-11-17.9-12.8c-7.3-1.7-14.6-3.1-21.9-4.6
	c-2.6-0.5-2.9-0.8-3.3-3.4c-0.1-0.8-0.4-1.7-0.7-2.5C391.6,201.1,390.6,198.6,389.6,196z"/>
<path class="st6" d="M83,103c2.4-1.8,5.2-2.3,8.1-2c4.6,0.5,7.9,3.7,11.5,6c5.4,3.4,10.6,7,15.9,10.6c1.7,1.1,3.5,2.2,5.1,3.4
	c1,0.7,1.7,0.8,2.8,0.2c4.6-2.4,9.2-4.6,14-6.8c1,1.4,1.8,2.8,2.9,3.8c0.6,0.5,1.8,0.8,2.6,0.6c2.8-0.9,5.6-1.9,8.3-3.1
	c3-1.3,5.3-0.6,7.5,1.6c11,11,22,22,33,33c0.5,0.5,1,1,1.8,1.7c0.7-1.6,1.6-2.8,1.7-4.2c0.3-6,0.3-12,0.4-18.1
	c0.4-4.9,1.3-9.6,3.5-14c0.2-0.3,0.2-0.5,0.3-0.9c0.2-0.7,0.5-1.2,0.9-1.7c0.7,0.3,1.3,0.6,1.8,1c1.3,1.2,2.4,2.5,3.7,3.6
	c0.6,0.5,1.5,0.7,2.2,1.1c0,0.2,0,0.2-0.1,0.4c-0.7,1.7-1.3,3.2-1.8,4.8c-1.7,5.8-1.6,11.8-1.5,18c0,5.4,0,10.6-0.1,15.8
	c-0.7-0.4-1.2-0.8-1.7-1.3c-1.7-1.7-3.4-3.4-5.2-5.1c-0.4-0.3-1-0.4-1.5-0.6c-0.2,0.4-0.5,0.9-0.5,1.3c0,5.2-0.1,10.5,0,15.7
	c0.2,6.5,1.8,12.6,4.9,18.4c1.4,2.7,3,5.2,4.6,7.8c0.7,1.1,1.5,2.1,2.4,3c2.4,2.4,4.6,5,7.3,6.9c3.1,2.2,6.6,3.7,10,5.5
	c3.7,2,4.5,4.1,2.9,7.5c-0.5,1-1,0.9-1.7,0.4c-0.5-0.4-0.9-0.8-1.3-1.3c-30-30-59.9-59.9-89.9-89.9c-2-2-2.6-2.2-4.7-1.1
	c-2,1-4,2-5.8,3.2c-1.6,1.1-3,1-4.6-0.1c-3.4-2.3-6.8-4.6-10.2-6.8c-1.7-1.1-3.6-2.2-5.4-3.4c-4.5-3.1-8.9-6.2-13.4-9
	c-1.3-0.8-3-0.9-4.5-1.3c-1-0.3-2.2-0.5-3-1.2C85,105.4,84,104.1,83,103z"/>
<path class="st7" d="M82.9,103c1.2,1.1,2.1,2.4,3.3,3.3c0.8,0.6,2,0.9,3,1.2c1.5,0.5,3.2,0.5,4.5,1.3c4.5,2.8,8.9,5.9,13.5,9.1
	c1.3,1.5,2.4,2.9,3.7,4.1c38.2,38.3,76.5,76.5,114.8,114.7c0.6,0.6,1.4,1.1,2.3,1.8c0.1,0.2,0.2,0.3,0.2,0.5
	c0.5,7.4,2.7,14.3,6.5,20.6c1.2,2,2.4,4,3.5,6c-1-0.7-2-1.2-2.8-2c-49.7-49.6-99.3-99.3-149-148.9c-0.7-0.7-1.5-1.4-2.3-1.9
	c-0.4-0.2-1.2-0.3-1.5-0.1c-2.2,1.9-4.4,3.9-6.7,6c-0.3,0.4-0.5,0.7-0.8,1.1c-1.2,1-2.2,2-3.3,3c-2.1,1.7-4.1,3.4-6,5.1
	c-1.1,1-1.8,1.4-2.8,0c-0.7-1-1.6-2-2.3-3c7.2-7.3,14.5-14.6,21.7-21.8C82.5,103.1,82.6,103.1,82.9,103z"/>
<path class="st8" d="M60.5,125c0.9,0.9,1.7,1.9,2.5,2.9c1,1.4,1.7,1,2.8,0c1.9-1.8,3.9-3.4,6.1-5.1c1.1,0.5,2.1,0.8,2.8,1.5
	c43.1,43,86.1,86.1,129.1,129.1c52.6,52.6,105.2,105.1,157.8,157.8c-1.5,1.5-3,2.9-4.5,4.3c-0.5-0.6-1-1.1-1.5-1.6
	C260.8,318.9,165.9,224,71,129.1c-0.6-0.6-1.1-1.2-1.8-1.5c-0.6-0.2-1.6-0.2-2,0.1c-2.5,2.2-4.8,4.6-7.3,7c-2.6,2.5-5.2,4.9-7.8,7.4
	c-1.4-1.5-2.7-3-4-4.5C52.1,133.4,56.3,129.2,60.5,125z"/>
<path class="st9" d="M428.9,33.1c-0.2,0.4-0.4,0.9-0.8,1c-0.4,0.2-1,0.1-1.5,0.1c-28,0-55.9,0-83.9,0c-0.8,0-1.6-0.5-2.3-0.9
	c0-0.2,0-0.1,0.1-0.2c0.3-0.1,0.5-0.2,0.6-0.4c0,0,0,0,0.1,0c0.3-0.1,0.5-0.2,0.6-0.3c0.1,0,0.1,0,0.4-0.1c0.4-0.1,0.6-0.2,0.7-0.3
	c0.1,0,0.1,0,0.4-0.1c0.4-0.1,0.6-0.2,0.7-0.3c0.1,0,0.1,0,0.4-0.1c0.4-0.1,0.6-0.2,0.7-0.3c0.1,0,0.1,0,0.4-0.1
	c0.4-0.1,0.6-0.2,0.7-0.3c0.1,0,0.1,0,0.4-0.1c0.4-0.1,0.6-0.2,0.7-0.3c0.1,0,0.1,0,0.4-0.1c0.5-0.1,0.8-0.2,1.1-0.3
	c0,0,0.2-0.1,0.4-0.1c0.4-0.1,0.6-0.2,0.7-0.3c0,0,0.2-0.1,0.4-0.1c0.5-0.1,0.8-0.2,1.1-0.3c0.2-0.2,0.5-0.4,0.9-0.8
	c0.2-0.5,0.2-0.8,0.3-1.1c0-0.1,0-0.1,0.1-0.4c0.2-0.5,0.2-0.8,0.2-1.1c0-0.1,0-0.1,0.1-0.4c0.2-0.5,0.2-0.8,0.2-1.1
	c1.1-4.5,2.3-9,3.3-13.5c0.7-3.1,1.8-6,4.4-7.9c1.6-1.2,3.6-1.8,5.7-2.7c12,0,23.7,0,35.4,0c4.7,0.6,7.6,3.5,9.1,7.7
	c1.4,3.9,2.1,8,3.1,12.3c0.1,0.4,0.2,0.6,0.3,0.8c0,0.1,0,0.1,0.1,0.4c0.1,0.6,0.3,1,0.4,1.4c0,0,0,0,0,0.1c0.1,0.4,0.2,0.7,0.3,1
	c0,0.1,0,0.1,0.1,0.4c0.1,0.5,0.2,0.8,0.3,1.1c0,0.1,0,0.1,0.1,0.4c0.1,0.5,0.2,0.8,0.3,1.1c0,0.1,0,0.1,0.1,0.4
	c0.1,0.5,0.2,0.8,0.3,1.1c0.2,0.2,0.4,0.5,0.8,0.9c0.5,0.2,0.8,0.2,1.1,0.3c0.1,0,0.1,0,0.4,0.1c0.4,0.1,0.6,0.2,0.8,0.2
	c0.1,0,0.1,0,0.4,0.1c0.5,0.1,0.8,0.2,1.1,0.2c0,0,0,0,0.1,0.1c0.4,0.2,0.7,0.2,1,0.3c0.1,0,0.1,0,0.4,0.1c0.4,0.1,0.6,0.2,0.8,0.2
	c0.1,0,0.1,0,0.4,0.1c0.4,0.1,0.6,0.2,0.8,0.2c0.1,0,0.1,0,0.4,0.1c0.4,0.1,0.6,0.2,0.7,0.2c0.1,0,0.1,0,0.4,0.1
	c0.4,0.1,0.5,0.2,0.7,0.2c0.1,0,0.1,0,0.4,0.1c0.2,0.2,0.3,0.2,0.4,0.2c0.1,0,0.1,0,0.4,0.1c0.4,0.1,0.6,0.2,0.8,0.2
	C428.6,33.1,428.8,33.1,428.9,33.1z"/>
<path class="st10" d="M266.9,108.6c0.8-1.9,1.6-3.8,2.6-5.9c0.2-0.4,0.2-0.6,0.3-0.8c0,0,0-0.2,0.2-0.2c0.5,0,0.9,0,1.3,0.1
	c7.7,3.3,15.4,6.5,23,9.9c1.5,0.7,2.5,0.7,3.9-0.2c7.4-5,14.9-10,22.4-15c8.1-5.3,18.9-4.6,25.5,2c13.4,13.3,26.7,26.5,39.9,40
	c4.1,4.2,5.7,9.7,4.7,15.6c-0.5,2.9-1.7,5.7-2.7,8.7c-5,7.4-9.8,14.8-14.7,22c-1.3,1.9-2.3,3.6-1,5.8c-0.7-0.1-1.2-0.3-1.8-0.3
	c-3.2-0.4-4.1-2.3-2.3-5c5.1-7.8,10.2-15.6,15.4-23.4c2.9-4.4,4.1-9.1,2.6-14.2c-0.9-3.2-2.7-5.6-5.2-7.9
	c-5.4-5-10.5-10.4-15.7-15.6c-0.7-0.7-1.5-1.4-2.4-1.7c-1.3-0.4-2.7-1.1-3.9,0.4c-6.1-6-12.1-12-18.1-18c-3.9-3.8-9.7-4.9-14.4-2.2
	c-4.7,2.7-9.1,6-13.7,9.1c-5,3.2-9.9,6.4-14.7,9.6c-1.1,0.7-1.9,0.7-3,0.1c-5.6-2.8-11.2-5.7-17-8.2c-3.6-1.6-7.5-2.8-11.3-4.2
	C266.8,108.8,266.9,108.6,266.9,108.6z"/>
<path class="st11" d="M359.1,122.8c1.1-1.5,2.6-0.8,3.8-0.4c0.9,0.3,1.7,1,2.4,1.7c5.2,5.2,10.3,10.6,15.7,15.6
	c2.5,2.3,4.3,4.8,5.2,7.9c1.4,5.2,0.2,9.9-2.6,14.2c-5.1,7.8-10.2,15.6-15.4,23.4c-1.8,2.7-0.9,4.6,2.3,5c0.5,0.1,1.1,0.2,1.9,0.4
	c0.6,0.7,1.1,1.2,1.3,1.8c3.9,8.4,7.6,16.8,10.2,25.7c0.4,1.3,1.2,1.9,2.4,2.2c9.3,1.9,18.5,3.8,27.8,5.6
	c8.4,1.7,15.6,10.3,15.6,18.9c0,6.6,0,13.1,0,19.7c0,0-0.2,0.1-0.4,0.1c-0.4,0.1-0.6,0.2-0.7,0.3c-2.1,0.8-4.3,1.5-6.6,2.2
	c-0.3-0.8-0.4-1.5-0.4-2.1c0-6.1-0.2-12.3,0.1-18.4c0.3-6.1-4-11.7-10.3-12.9c-10.3-2-20.6-4.2-30.9-6.2c-1.8-0.4-2.7-1.2-3.2-2.9
	c-3.5-12.4-8.4-24.2-14.6-35.4c-0.7-1.3-0.7-2.3,0.1-3.5c2.3-3.4,4.5-6.8,6.8-10.3c3.8-5.7,7.6-11.2,11.2-16.9
	c3.2-5,2.4-11.1-1.8-15.3c-3.8-3.9-7.7-7.7-11.5-11.6C364.7,128.5,361.9,125.6,359.1,122.8z"/>
<path class="st12" d="M271.2,98.5c0.7-1.6,1.3-3.1,2.3-4.8c6.9,2.7,13.5,5.4,20.1,8.2c1.4,0.6,2.4,0.7,3.8-0.2
	c5.9-4,11.9-7.8,17.8-11.8c5.8-3.9,12-5.7,19-5.2c7.1,0.5,13.2,3.2,18.2,8.1c3,2.9,5.8,6.1,8.8,9c6.2,6.2,12.5,12.3,18.7,18.4
	c1.2,1.2,2.2,2.7,3.5,3.8c5.9,5.1,11.3,10.5,14.3,18.1c0.5,2.8,1.3,5.3,1.4,8c0.3,6.5-1.5,12.6-5.1,18.1
	c-4.1,6.2-8.1,12.4-12.3,18.5c-0.7,1.1-0.8,1.9-0.2,3.1c1.1,2.3,2.1,4.6,3,6.9c-1.8-0.2-3.5-0.3-4.3-2.3c-0.1-0.3-0.8-0.5-1.3-0.8
	c-0.8-1.4-1.4-2.8-2.2-4.2c-0.7-1.1-0.5-2,0.2-3c4.2-6.2,8.2-12.4,12.3-18.6c0.5-0.8,0.9-1.6,1.5-2.5c2.9-4.1,4.4-8.6,4.3-13.5
	c0-6.8-2.4-12.8-7.2-17.7c-12.6-12.6-25.3-25.2-37.8-37.9c-8.5-8.7-22.1-10-32.3-3.1c-6.6,4.5-13.4,8.9-20.1,13.4
	c-1.3,0.9-2.3,0.9-3.7,0.2c-6.6-2.9-13.3-5.7-20-8.5C273.2,98,272.1,98.5,271.2,98.5z"/>
<path class="st13" d="M369.5,175.2c-2.2,3.4-4.4,6.9-6.7,10.3c-0.8,1.2-0.9,2.2-0.1,3.5c6.2,11.2,11.2,23,14.6,35.4
	c0.5,1.8,1.3,2.6,3.2,2.9c10.3,2,20.6,4.2,30.9,6.2c6.2,1.2,10.5,6.8,10.3,12.9c-0.3,6.1-0.1,12.3-0.1,18.4c0,0.7,0.1,1.3,0.2,2.1
	c0.1,5.7,0.1,11.3,0,16.9c-0.1-5.4-0.1-10.8-0.1-16.6c-2.5,0.9-5.1,0.4-5.5,3.5c0,0.1-0.4,0.3-0.6,0.2c-0.1-8.7-0.3-17.1-0.3-25.6
	c0-3.2-2.6-5.3-5.7-5.8c-3.1-0.6-6.2-1.2-9.3-1.8c-8.5-1.7-17-3.5-25.6-5.2c-1.2-0.2-1.7-0.6-2.1-1.8c-2.2-6.9-4.3-14-7-20.7
	c-2.4-6.1-5.6-11.8-8.5-17.8c-0.6-1.3-1.2-2.5-1.9-3.6c-0.9-1.4-0.6-2.4,0.4-3.7c1.8-2.4,3.4-5,5.1-7.6c1.5-2.2,3.1-4.5,4.6-6.5
	C365.7,173.3,367.2,174.8,369.5,175.2z"/>
<path class="st14" d="M198.7,129.8c-0.1,6-0.2,12-0.4,18c-0.1,1.3-1,2.6-1.7,4.2c-0.8-0.7-1.3-1.2-1.8-1.7c-11-11-22-22-33-33
	c-2.2-2.2-4.5-2.9-7.5-1.6c-2.7,1.2-5.5,2.2-8.3,3.1c-0.8,0.2-2,0-2.6-0.6c-1.1-1-1.8-2.4-2.7-3.8c4.6-2,9.2-3.8,13.9-5.7
	c0.7-0.3,1.5-0.5,2.4-0.6c0.9,1.4,1.6,2.6,2.3,3.8c0.6,1.1,1.5,1.4,2.6,1c1.7-0.5,3.4-1,5.2-1.4c2-0.4,3.9-0.7,3.9-3.4
	c0-0.3,0.3-0.5,0.4-0.8c1-2.1,1-2.1,2.7-0.5c7.4,7.4,14.7,14.7,22.1,22.1C196.9,129.7,197.6,130.4,198.7,129.8z"/>
<path class="st15" d="M117,429.3c-1-1.3-1.9-2.5-2.6-3.9c-0.2-0.4,0.1-1.5,0.5-1.8c3-2.3,6-4.5,9.1-6.6c0.5-0.3,1.5-0.2,2,0.1
	c4.6,2.3,9.2,4.8,13.8,7.1c9.2,4.5,18.9,7.7,28.7,10.4c1.5,0.4,1.9,1.2,2.1,2.4c1,5.3,2,10.5,3.1,15.8c1.3,6.5,2.7,13.1,4.1,19.6
	c0.8,3.5,2.6,4.9,6.2,4.9c5.3,0,10.5,0,16,0.1c0.3,1.2,0.2,2.3,0.6,3.2c0.6,1.2,1.7,2.2,2.5,3.3c-6.7,0-13.4,0.3-20.1,0
	c-6.3-0.3-10.7-4.8-11.9-11c-1.2-6-2.4-12-3.5-17.9c-0.9-4.5-1.8-9-2.8-13.5c-0.1-0.6-0.8-1.3-1.4-1.5c-6.6-2.4-13.3-4.4-19.7-7
	c-6-2.4-11.7-5.5-17.5-8.3c-0.6-0.3-1.6-0.4-2.1,0C121.7,426.1,119.4,427.7,117,429.3z"/>
<path class="st16" d="M167.1,94.4c0.7-3.5,1.3-7.1,2-10.6c0.7-3.7,1.5-7.4,2.4-11.2c1.1,0.8,1.9,1.6,2.8,2.4
	c0.8,0.7,1.7,1.2,2.6,1.8c0.2-1,0.5-1.9,0.6-2.9c0.3-1.8,1.1-3,2.8-3.8c1.7-0.7,2.5,0.4,3.5,1.4c8.7,8.7,17.3,17.3,26,26
	c0.7,0.7,1.5,1.2,2.3,1.9c-0.1,0.3-0.2,0.5-0.4,0.7c-1.2,1.4-2.5,2.7-3.5,4.2c-1.6,2.4-3.1,4.8-4.8,7.3c-0.9-0.4-1.8-0.7-2.4-1.3
	c-7.6-7.5-15.1-15.1-22.7-22.7c-0.5-0.5-1.2-0.9-2.1-1.7c-1.5,5.1-2.8,9.8-4.2,14.4c-0.3,0.2-0.6,0.5-0.9,0.7
	c-0.2-0.6-0.4-1.2-0.7-1.7C169.3,97.7,168.2,96.1,167.1,94.4z"/>
<path class="st17" d="M397.8,142.1c-3-7.4-8.4-12.8-14.3-17.9c-1.3-1.1-2.3-2.6-3.5-3.8c-6.2-6.1-12.5-12.2-18.7-18.4
	c-3-3-5.8-6.1-8.8-9c-5.1-4.9-11.1-7.6-18.2-8.1c-7-0.5-13.3,1.3-19,5.2c-5.9,4-11.9,7.8-17.8,11.8c-1.3,0.9-2.3,0.8-3.8,0.2
	c-6.6-2.8-13.2-5.5-20-8.3c1-2.3,2.1-4.5,3.2-6.9c0.5,0.3,1.1,1.1,1.6,1.1c3.6,0.1,6.4,2.4,9.6,3.6c1.6,0.6,3.1,1.2,4.6,2
	c1.8,0.9,3.5,0.7,5-0.5c1.6-1.2,3-2.6,4.8-3.5c1.6-0.9,3.4-1.2,5.1-1.8c1.1-0.4,2.2-0.5,3.3-1c7.1-3.5,14.3-6.9,22.5-6.4
	c5.2,0.3,10.3,1.4,14.8,4.2c0.4,0.3,0.9,0.4,1.5,0.6c1.8,1.2,3.5,2.4,5,3.6c0.7,0.6,1.1,1.4,1.8,2.1c1.3,1.3,2.6,2.6,3.9,3.9
	c6.4,6.4,12.8,12.8,19.3,19.3c4.2,4.2,8.6,8.2,12.5,12.6c3.2,3.6,6,7.6,8.9,11.5c0.7,1,1.1,2.4,1.6,3.7c0,0.7,0,1.2-0.1,1.9
	C401.2,142.4,399.6,141.8,397.8,142.1z"/>
<path class="st18" d="M166.9,94.5c1.2,1.5,2.4,3.1,3.5,4.8c0.3,0.5,0.5,1.2,0.7,1.7c0.3-0.2,0.6-0.5,0.9-0.7
	c1.3-4.7,2.7-9.3,4.2-14.4c1,0.8,1.6,1.2,2.1,1.7c7.6,7.6,15.1,15.1,22.7,22.7c0.6,0.6,1.5,0.9,2.4,1.4c0,0.5-0.1,1-0.2,1.4
	c-0.2,0.5-0.5,1.1-0.8,1.8c-0.2,0.4-0.2,0.6-0.3,0.8c-2,4.4-3,9-3.4,14c-1.1,0.7-1.8,0.1-2.5-0.7c-7.3-7.4-14.7-14.7-22.1-22.1
	c-1.7-1.7-1.7-1.7-2.7,0.5c-0.1,0.3-0.4,0.5-0.4,0.8c0,2.7-1.9,3-3.9,3.4c-1.7,0.3-3.5,0.9-5.2,1.4c-1.2,0.3-2,0.1-2.6-1
	c-0.7-1.2-1.4-2.5-2.2-3.8c1.9-0.8,3.8-1.6,5.7-2c1.3-0.3,2-0.6,2.2-2.1C165.4,100.8,166.2,97.7,166.9,94.5z"/>
<path class="st19" d="M180.1,62.5c0.8-0.1,1.5-0.4,2.3-0.4c18.5,0,36.9,0,55.6,0.2c0.3,1.5,0.4,2.9,0.5,4.2c0.1,1.3-0.2,2-1.7,1.9
	c-2.4-0.1-4.8,0-7.2,0c-1.3,0-1.7,0.6-1.4,1.7c1,3.9,2,7.9,3.2,11.8c0.3,1.1,0.5,2-0.3,3c-0.4,0.9-0.6,2-1.2,2.3
	c-2,1.2-4.1,2.1-6.3,3.1c-6.8-6.7-13.5-13.3-20.1-20c-1.3-1.3-2.7-1.9-4.6-1.9c-4.5-0.1-9.1-0.4-13.6-0.7
	C182.8,67.5,180.4,64.9,180.1,62.5z"/>
<path class="st20" d="M271.2,98.6c0.9-0.1,2-0.5,2.7-0.2c6.7,2.7,13.4,5.5,20,8.5c1.4,0.6,2.4,0.7,3.7-0.2
	c6.7-4.5,13.4-8.8,20.1-13.4c10.1-6.9,23.8-5.5,32.3,3.1c12.5,12.8,25.2,25.3,37.8,37.9c4.9,4.9,7.2,10.9,7.2,17.7
	c0,4.9-1.4,9.4-4.4,13.4c-0.4-1.5-1.4-2.2-2.6-2.8c0.9-2.9,2.2-5.7,2.6-8.6c0.9-5.9-0.6-11.3-4.7-15.6c-13.2-13.4-26.6-26.7-39.9-40
	c-6.6-6.6-17.4-7.3-25.5-2c-7.5,4.9-15,9.9-22.4,15c-1.4,0.9-2.4,0.9-3.9,0.2c-7.6-3.4-15.3-6.6-23-9.9c-0.3-0.1-0.7-0.1-1.2-0.2
	c-0.1-0.1-0.1-0.2,0.1-0.4C270.6,100.2,270.9,99.4,271.2,98.6C271.2,98.5,271.2,98.6,271.2,98.6z"/>
<path class="st21" d="M397.8,142.2c1.9-0.4,3.4,0.2,4.7,1.7c0.4,2.7,0.8,5.3,0.8,7.9c0.1,6.7-1.9,12.9-5.5,18.5
	c-3.5,5.4-7,10.9-10.4,16.4c-0.8,1.3-0.7,2.4,0.1,3.8c0.9,1.6,1.3,3.5,2.1,5.4c1.1,2.6,2.1,5.1,3.1,7.7c0.3,0.8,0.6,1.6,0.7,2.5
	c0.4,2.6,0.7,2.8,3.3,3.4c7.3,1.5,14.6,2.9,21.9,4.6c7.7,1.8,13.2,6.7,17.9,12.8c3.1,4,4.3,8.8,5.7,13.6c0.7,2.3,0.4,4.2,0.3,6.4
	c-0.1,1.5,0.5,3,0.8,4.5c0.1,0.3,0.3,0.7,0.5,0.7c2,0.1,2,1.4,2.1,2.9c0,0.5,0.6,1,0.9,1.7c-1,0.6-2.1,1-3.2,1.6
	c-1.8,0.9-3.6,1.7-5.4,2.5c0-0.5,0.1-0.9,0.1-1.2c-0.1-5.7,0-11.5-0.4-17.2c-0.8-10.9-10.1-21.7-20.9-24.2
	c-7.9-1.8-15.8-3.3-23.7-4.9c-1.6-0.3-2.5-0.9-3.1-2.6c-1.6-4.7-3.6-9.2-5.5-13.8c-1-2.3-2-4.7-3.1-6.9c-0.6-1.1-0.5-2,0.2-3.1
	c4.1-6.2,8.2-12.4,12.3-18.5c3.6-5.5,5.4-11.5,5.1-18.1C399,147.6,398.3,145,397.8,142.2z"/>
<path class="st22" d="M180,62.5c0.3,2.4,2.8,5,5.2,5.2c4.5,0.3,9.1,0.6,13.6,0.7c1.9,0,3.3,0.7,4.6,1.9c6.7,6.7,13.3,13.3,20,20.1
	c-3.8,3.1-7.6,6-11.3,8.9c-0.8-0.6-1.6-1.1-2.3-1.8c-8.7-8.6-17.3-17.3-26-26c-0.9-0.9-1.7-2.1-3.5-1.4c-1.7,0.7-2.6,2-2.8,3.8
	c-0.1,1-0.4,1.9-0.6,2.9c-0.9-0.6-1.8-1.2-2.6-1.8c-0.9-0.7-1.7-1.6-2.6-2.5c0.4-4.8,3.2-7.8,7.6-9.7c0.3-0.1,0.4-0.2,0.5-0.3
	C179.8,62.5,179.9,62.5,180,62.5z"/>
<path class="st23" d="M388,162.6c1.3,0.5,2.3,1.3,2.6,2.8c-0.3,0.9-0.8,1.7-1.3,2.4c-4.1,6.2-8.2,12.5-12.3,18.6
	c-0.7,1.1-0.8,1.9-0.2,3c0.8,1.3,1.4,2.7,2.3,4.3c2.8,7.2,5.5,14.1,8.2,21.1c0.3,0.7,1.1,1.4,1.8,1.5c8.6,1.8,17.3,3.6,25.9,5.3
	c4.9,1,8.9,3.8,12.3,7.2c5,4.8,6.8,11.2,6.9,18c0.1,4.5,0,8.9,0,13.4c0,0.8-0.2,1.6-0.3,2.4c0,0,0,0-0.1,0c-0.2,0.1-0.2,0.2-0.3,0.3
	c0,0-0.2,0.1-0.4,0.1c-0.5,0.1-0.8,0.3-1.1,0.4c-0.7,0.3-1.3,0.7-2.1,1c-0.1-6.6-0.1-13.1-0.1-19.7c0-8.6-7.2-17.3-15.6-18.9
	c-9.3-1.8-18.5-3.8-27.8-5.6c-1.3-0.3-2.1-0.9-2.4-2.2c-2.5-8.9-6.3-17.3-10.2-25.7c-0.3-0.6-0.7-1.1-1.2-1.8
	c-1.6-2.3-0.6-4,0.7-5.9C378.2,177.4,383,170,388,162.6z"/>
<path class="st24" d="M415.6,271.2c0.2-0.1,0.6-0.2,0.6-0.4c0.4-3.1,3-2.6,5.5-3.5c0,5.8,0,11.2,0.1,16.8c0.1,5.6,0.4,11.2,0.1,16.6
	c-0.4,6.3-4.3,10.5-10.8,11.8c-7.2,1.4-14.4,2.9-21.6,4.3c-3.4,0.7-6.7,1.3-10.1,2c-0.5,0.1-1.1,0.4-1.2,0.8
	c-0.5,1.3-0.8,2.8-1.3,4.4c-0.2,0.3-0.2,0.4-0.3,0.5c0,0.2,0,0.3-0.1,0.6c-0.2,0.3-0.2,0.4-0.3,0.5c0,0,0,0-0.2,0
	c-2.2,0-4.2,0-6.2-0.2c0.9-3.1,1.7-6.1,2.6-9.3c0.4-1.4,0.5-2.6,2.4-2.9c11.7-2.2,23.4-4.6,35-7c2.6-0.5,4.7-1.8,5.3-4.6
	c0.3-1.6,0.4-3.3,0.4-5c0.1-4.5,0.1-9,0-13.6c0-1.9-0.4-3.9-0.7-6C415.1,275,415.4,273.1,415.6,271.2z"/>
<path class="st18" d="M369.8,325.5c2,0,4,0,6.2,0c-1.1,3.8-2.1,7.7-3.7,11.3c-3,6.9-6.4,13.7-9.7,20.5c-0.5,1.1-0.4,1.7,0.2,2.7
	c6.2,9.2,12.3,18.3,18.3,27.6c3,4.7,2,11.1-1.7,15c-0.8,0.8-1.6,1.6-2.5,2.3c-0.8-0.9-1.4-1.8-2-2.7c-0.6-0.8-1.2-1.6-1.8-2.5
	c0.3-0.3,0.4-0.6,0.7-0.8c3.1-2.6,3.2-6.2,0.8-9.4c-1.4-1.9-2.7-4-4-6c-1.6-2.4-3.3-4.7-5-7.2c-3.5-5.4-6.9-10.7-10.3-15.9
	c-0.7-1.1-0.8-1.9-0.2-3c2.7-5.2,5.6-10.3,8-15.7c2.4-5.3,4.2-10.8,6.4-16.2C369.7,325.5,369.8,325.5,369.8,325.5z"/>
<path class="st25" d="M51.7,203.5c2.3-4.7,4.6-9.4,7-14.1c0.8-1.5,1-2.6,0-4.1c-5.8-8.5-11.4-17.1-17.2-25.6
	c-3.5-5.1-3.5-10.1-0.3-15.1c1.1,1.3,2,2.6,3.1,3.8c0.3,0.3,1,0.3,1.5,0.7c-0.8,2.8-0.3,5.2,1.3,7.5c3.2,4.5,6.1,9.2,9.1,13.7
	c2.3,3.6,4.7,7.1,7.1,10.7c1.1,1.7,2.2,3.2,3.3,4.8c0.6,0.8,0.6,1.5,0,2.5c-2.5,4.5-4.8,9.2-7.2,13.9c-0.8,1.9-1.5,3.7-2.3,5.5
	c-0.8-0.2-1.7-0.3-2.1-0.7C53.8,205.8,52.8,204.6,51.7,203.5z"/>
<path class="st24" d="M266.8,108.5c0.1,0.1,0,0.3,0,0.5c-0.6,2-1.3,3.8-2,5.5c-4.5-1.2-8.9-2.5-13.3-3.9c-0.8-4.1-1.6-8-2.4-12
	c-0.2,0-0.3,0-0.5-0.1c-0.3,0.6-0.5,1.3-0.9,1.9c-0.5,0.7-0.9,1.6-1.6,1.9c-2.5,1.2-5.1,2.1-7.8,3.1c-2.5-2.4-4.9-4.7-7.3-7.1
	c1.6-0.9,3-1.8,4.5-2.3c2.4-0.8,3.6-2.5,4.4-4.7c0.4-0.7,0.9-1.4,1.1-2.1c0.6-2.1,1.6-4.4,1.4-6.4c-0.4-2.9-1.8-5.7-2.6-8.6
	c-0.5-1.8-0.8-3.7-1.2-5.8c3,0.5,4.5,2,5,4.4c1.2,5.2,2.2,10.4,3.3,15.6c0.6,2.6,1.1,5.2,1.7,7.8c0.2,0,0.5,0.1,0.7,0.1
	c1.3-3,2.6-6,3.9-9c0.9,4.1,1.8,8.2,2.7,12.3c0.3,1.5,0.4,3,0.8,4.4c0.2,0.7,0.9,1.4,1.5,1.6C261.1,106.8,263.9,107.5,266.8,108.5z"
	/>
<path class="st16" d="M253.4,87.3c-1.3,3.2-2.6,6.2-3.9,9.1c-0.2,0-0.5-0.1-0.7-0.1c-0.6-2.6-1.1-5.2-1.7-7.8
	c-1.1-5.2-2.1-10.4-3.3-15.6c-0.5-2.4-2-3.9-5-4.4c0.4,2.1,0.7,4,1.2,5.8c0.8,2.9,2.3,5.7,2.6,8.6c0.3,2.1-0.8,4.3-1.4,6.4
	c-0.2,0.7-0.7,1.3-1.2,2.1c-2.1-1.6-3.9-3.2-5.8-4.8c-0.9-0.7-2-1.2-3.1-1.8c0.8-0.9,0.6-1.8,0.3-2.9c-1.2-3.9-2.2-7.8-3.2-11.8
	c-0.3-1.1,0.1-1.8,1.4-1.7c2.4,0.1,4.8-0.1,7.2,0c1.5,0.1,1.8-0.6,1.7-1.9c-0.2-1.3-0.2-2.7-0.4-4.2c5.9-0.8,11.1,4.2,12.3,10.1
	C251.4,77.3,252.4,82.2,253.4,87.3z"/>
<path class="st26" d="M51.6,203.5c1.2,1.1,2.3,2.3,3.5,3.4c0.5,0.4,1.3,0.5,2.1,0.8c-0.2,0.6-0.7,1-0.9,1.5
	c-1.4,3.8-2.8,7.6-4.1,11.5c-1,3.3-2,6.6-3,9.9c-0.3,1.2-0.8,1.8-2.2,2.1c-10.8,2.1-21.5,4.3-32.3,6.5c-0.5,0.1-1.2,0.2-1.7,0.1
	c-2.4-0.8-4.1,0.1-5.6,1.8c-0.3,0.3-0.7,0.5-1.1,0.8c-1.3-1.5-2.5-2.9-2.2-5.1c0.2-0.4,0.4-0.6,0.7-0.8c0.5-0.2,0.8-0.5,1.1-0.8
	c0.4-0.2,0.8-0.5,1.4-0.6c1.4,1,1.8,0.4,2-0.8c10.2-2.1,20.3-4.5,30.5-6.2c3.1-0.5,4-2,4.8-4.5c2.1-6.2,4.3-12.3,6.5-18.4
	C51.3,204.3,51.4,203.9,51.6,203.5z"/>
<path class="st27" d="M434,262.6c0-0.8,0.2-1.6,0.2-2.3c0-4.5,0.1-8.9,0-13.4c-0.1-6.8-2-13.2-6.9-18c-3.4-3.3-7.4-6.2-12.3-7.2
	c-8.7-1.7-17.3-3.5-25.9-5.3c-0.7-0.1-1.5-0.9-1.8-1.5c-2.8-6.9-5.4-13.9-8.1-21c0.4,0.1,1,0.2,1.2,0.6c0.7,2,2.4,2.1,4.3,2.3
	c2,4.6,4,9.1,5.6,13.8c0.6,1.7,1.5,2.3,3.1,2.6c7.9,1.6,15.9,3.1,23.7,4.9c10.7,2.5,20.1,13.3,20.9,24.2c0.4,5.7,0.3,11.5,0.4,17.2
	c0,0.4-0.1,0.7-0.3,1.2c-0.1,0.1-0.1,0.1-0.2,0.2c-0.3,0.1-0.5,0.2-0.6,0.4c0,0,0,0-0.1,0c-0.3,0.1-0.4,0.2-0.6,0.4c0,0,0,0-0.1,0
	c-0.2,0.1-0.2,0.2-0.3,0.2c-0.1,0-0.1,0-0.4,0.1c-0.5,0.1-0.8,0.3-1.1,0.4C434.4,262.4,434.3,262.5,434,262.6z"/>
<path class="st7" d="M341.2,440.9c-3.5,4.4-11.2,5.4-16,2.1c-6-4.1-12.1-7.9-18.1-11.9c-3.2-2.1-6.2-4.3-9.4-6.3
	c-0.5-0.3-1.6-0.4-2.2-0.1c-2.8,1.3-5.5,2.8-8.4,4.1c-1.2-1.9-2.2-3.6-3.1-5.5c4-2.1,7.9-4.3,11.9-6.3c0.5-0.3,1.5-0.3,2,0
	c1.8,1,3.5,2.2,5.3,3.4c7.7,5.2,15.4,10.1,22.8,15.3c3.3,2.3,6.4,3.5,10.3,1.3C338,438.6,338.8,440.8,341.2,440.9z"/>
<path class="st28" d="M203.3,484c-1-1.1-2.1-2.1-2.7-3.3c-0.5-0.9-0.3-2-0.5-3.2c12.2-0.1,24.5-0.1,36.7-0.1c4.1,0,5.5-0.9,7.3-4.7
	c1.5,1.9,2.8,3.9,4.1,5.9c-2.3,3.9-6,5.4-10.2,5.5C226.5,484.1,215,484,203.3,484z"/>
<path class="st25" d="M248.3,478.4c-1.4-1.9-2.7-3.9-4.1-5.9c1-5.6,2-11.2,3.1-16.7c1.3-6.4,2.5-12.8,3.9-19.2
	c0.1-0.6,0.7-1.5,1.3-1.7c2.5-0.9,5.1-1.5,7.8-2.1c0.4,0.8,0.7,1.5,1,2.1c0.7,1.2,1.4,2.3,2.1,3.4c-1.8,0.6-3.6,1.1-5.4,1.8
	c-0.5,0.2-1.2,0.8-1.3,1.3c-2.2,10.3-4.2,20.6-6.4,31C250,474.5,249.1,476.4,248.3,478.4z"/>
<path class="st29" d="M341.4,440.8c-2.6,0-3.4-2.2-4.9-3.7c1-1.5,2.2-2.7,3.4-4.1c3.1-3.1,6.2-6.2,9.3-9.3c1.6-1.6,3.1-3.1,4.7-4.6
	c1.1-1,2.2-1.9,3.4-2.8c1.2,1.8,2.2,3.5,3.3,5.2c-5.1,5.2-10.2,10.3-15.3,15.5C344,438.3,342.7,439.5,341.4,440.8z"/>
<path class="st30" d="M263.6,438.3c-0.8-1.1-1.6-2.2-2.2-3.4c-0.4-0.6-0.6-1.3-0.9-2.1c0.8-0.4,1.6-0.7,2.7-1.1
	c0.9-0.3,1.6-0.4,2.2-0.7c5.5-2.2,10.9-4.3,16.5-6.6c0.8-0.4,1.5-0.7,2.1-1c1,1.8,2,3.5,3,5.4c-4.7,2.3-9.4,4.5-14.2,6.4
	C269.8,436.4,266.8,437.3,263.6,438.3z"/>
<path class="st6" d="M360.7,421.5c-1.2-1.7-2.2-3.4-3.4-5.3c-0.1-0.3-0.1-0.5-0.1-0.7c1.4-1.4,2.9-2.8,4.5-4.4
	c0.8-0.9,1.5-1.6,2.3-2.3c0.7-0.6,1.2-1.2,1.9-1.9c2.1-2.1,4.2-4.2,6.3-6.3c0.4-0.3,0.7-0.5,1-0.7c0.6,0.8,1.2,1.6,1.8,2.4
	c0.6,0.9,1.2,1.7,1.9,2.7C371.6,410.6,366.2,416,360.7,421.5z"/>
<path class="st17" d="M266.3,57.3c1.4,3.4,3,6.8,3.9,10.3c1.1,4,1.7,8,2.5,12.2c-2.3-3.7-4.7-7.4-6.8-11.4
	C264.1,64.8,264.3,61,266.3,57.3z"/>
<path class="st30" d="M45.8,148.8c-0.5-0.2-1.2-0.2-1.5-0.5c-1.1-1.2-2-2.5-3-3.9c2.1-2.3,4.3-4.5,6.6-6.8c1.4,1.5,2.7,3,4,4.6
	c-0.4,0.7-0.8,1.2-1.4,1.8C48.9,145.6,47.3,147.2,45.8,148.8z"/>
<path class="st2" d="M402.2,0.2c-11.6,0.1-23.3,0.1-35.2,0.1c0.1-0.1,0.3-0.3,0.6-0.3C379.1,0,390.6,0,402.2,0.2z"/>
<path class="st5" d="M533.3,165.9c-0.1-3-0.1-6.2-0.2-9.5c0-8.1,0-16.1,0-24.2c0.1,0.1,0.3,0.3,0.3,0.6
	C533.5,143.8,533.5,154.8,533.3,165.9z"/>
<path class="st0" d="M9.2,233.7c0,1.2-0.4,1.8-1.7,0.8C8,234.1,8.5,233.9,9.2,233.7z"/>
<path class="st12" d="M271.1,98.6c-0.2,0.8-0.5,1.6-0.9,2.5C270.4,100.3,270.7,99.5,271.1,98.6z"/>
<path class="st0" d="M5.8,235.1c-0.2,0.3-0.5,0.5-0.9,0.7C5.1,235.6,5.4,235.4,5.8,235.1z"/>
<path class="st4" d="M415.2,22.9c-0.1-0.3-0.2-0.7-0.4-1.2C415,22,415.1,22.4,415.2,22.9z"/>
<path class="st21" d="M434.7,262.3c0.2-0.1,0.4-0.2,0.9-0.4C435.4,262,435.1,262.1,434.7,262.3z"/>
<path class="st4" d="M422.3,30.7c-0.3,0.1-0.6,0-1-0.2C421.5,30.5,421.9,30.6,422.3,30.7z"/>
<path class="st4" d="M348.9,30.2c-0.2,0.1-0.5,0.2-0.9,0.3C348.2,30.4,348.5,30.2,348.9,30.2z"/>
<path class="st4" d="M418.5,29.6c-0.3,0.1-0.6,0-1-0.1C417.8,29.5,418.2,29.5,418.5,29.6z"/>
<path class="st4" d="M415.6,24c-0.1-0.2-0.2-0.5-0.3-0.9C415.4,23.3,415.5,23.6,415.6,24z"/>
<path class="st4" d="M351.5,29.4c-0.2,0.1-0.5,0.2-0.9,0.3C350.8,29.6,351.1,29.5,351.5,29.4z"/>
<path class="st1" d="M503.8,60.1c-0.1-0.2-0.2-0.5-0.4-0.9C503.5,59.4,503.7,59.7,503.8,60.1z"/>
<path class="st4" d="M421.1,30.3c-0.3,0.1-0.6,0-1-0.1C420.4,30.2,420.8,30.2,421.1,30.3z"/>
<path class="st27" d="M432.1,263.4c0.2-0.1,0.5-0.2,0.9-0.4C432.8,263.1,432.5,263.3,432.1,263.4z"/>
<path class="st4" d="M416.7,28.5c-0.1-0.2-0.2-0.5-0.3-0.9C416.5,27.8,416.6,28.1,416.7,28.5z"/>
<path class="st4" d="M352.6,27.5c0.1,0.3,0,0.6-0.1,1C352.5,28.3,352.5,27.9,352.6,27.5z"/>
<path class="st4" d="M416.3,27c-0.1-0.2-0.2-0.5-0.3-0.9C416.1,26.3,416.2,26.6,416.3,27z"/>
<path class="st4" d="M353,26.1c0.1,0.3,0,0.6-0.1,1C352.8,26.8,352.8,26.4,353,26.1z"/>
<path class="st4" d="M415.9,25.5c-0.1-0.2-0.2-0.5-0.3-0.9C415.7,24.8,415.8,25.1,415.9,25.5z"/>
<path class="st4" d="M353.3,24.6c0.1,0.3,0,0.6-0.1,1C353.2,25.3,353.2,25,353.3,24.6z"/>
<path class="st21" d="M436.6,261.5c0.1-0.1,0.2-0.2,0.5-0.3C437,261.3,436.9,261.4,436.6,261.5z"/>
<path class="st20" d="M269.6,101.9c0.1,0.2,0,0.4-0.1,0.7C269.5,102.4,269.5,102.2,269.6,101.9z"/>
<path class="st4" d="M414.8,21.1c-0.1-0.1-0.2-0.3-0.3-0.5C414.6,20.6,414.7,20.8,414.8,21.1z"/>
<path class="st4" d="M428.6,33c-0.2,0.1-0.4,0-0.6-0.1C428.1,32.8,428.3,32.8,428.6,33z"/>
<path class="st4" d="M341.1,32.7c-0.1,0.1-0.2,0.2-0.5,0.3C340.6,33,340.8,32.8,341.1,32.7z"/>
<path class="st23" d="M428.7,264.8c0.1-0.1,0.3-0.2,0.5-0.3C429.2,264.6,429,264.7,428.7,264.8z"/>
<path class="st1" d="M502.7,57.1c-0.1-0.1-0.2-0.2-0.3-0.5C502.4,56.7,502.5,56.9,502.7,57.1z"/>
<path class="st1" d="M503.4,58.6c-0.1-0.1-0.2-0.2-0.3-0.5C503.2,58.2,503.3,58.4,503.4,58.6z"/>
<path class="st4" d="M341.8,32.4c-0.1,0.1-0.2,0.2-0.5,0.3C341.4,32.6,341.5,32.5,341.8,32.4z"/>
<path class="st4" d="M426.7,32.2c-0.1,0.1-0.3,0-0.6-0.1C426.3,32.1,426.5,32.1,426.7,32.2z"/>
<path class="st4" d="M346.3,30.9c-0.1,0.1-0.2,0.2-0.5,0.3C345.8,31.1,346,31,346.3,30.9z"/>
<path class="st21" d="M437.3,261.2c0.1-0.1,0.2-0.2,0.5-0.3C437.8,260.9,437.6,261,437.3,261.2z"/>
<path class="st4" d="M342.9,32c-0.1,0.1-0.2,0.2-0.5,0.3C342.5,32.2,342.7,32.1,342.9,32z"/>
<path class="st4" d="M425.6,31.9c-0.2,0.1-0.3,0-0.6-0.1C425.1,31.7,425.4,31.7,425.6,31.9z"/>
<path class="st4" d="M344.1,31.7c-0.1,0.1-0.2,0.2-0.5,0.3C343.6,31.8,343.8,31.7,344.1,31.7z"/>
<path class="st4" d="M424.5,31.5c-0.2,0.1-0.4,0-0.6-0.1C424,31.3,424.2,31.4,424.5,31.5z"/>
<path class="st4" d="M350,29.8c-0.1,0.1-0.3,0.2-0.5,0.3C349.5,30,349.7,29.9,350,29.8z"/>
<path class="st4" d="M419.7,30c-0.2,0.1-0.4,0-0.6-0.1C419.2,29.8,419.4,29.9,419.7,30z"/>
<path class="st4" d="M345.2,31.3c-0.1,0.1-0.3,0.2-0.5,0.3C344.7,31.5,344.9,31.4,345.2,31.3z"/>
<path class="st4" d="M347.4,30.5c-0.1,0.1-0.2,0.2-0.5,0.3C346.9,30.7,347.1,30.6,347.4,30.5z"/>
<path class="st4" d="M423.4,31.1c-0.2,0.1-0.3,0-0.6-0.1C422.9,31,423.1,31,423.4,31.1z"/>
<path class="st19" d="M179.6,62.5c0,0.1,0,0.2-0.2,0.3C179.4,62.7,179.5,62.6,179.6,62.5z"/>
<path class="st1" d="M503,57.5c-0.1,0-0.2,0-0.3-0.2C502.8,57.3,502.9,57.4,503,57.5z"/>
<path class="st17" d="M272.8,80.1c0.1-0.1,0.2,0,0.3,0.2C273,80.3,272.9,80.2,272.8,80.1z"/>
<path class="st18" d="M376.3,325.5c-0.1-0.1,0-0.2,0.1-0.3C376.5,325.3,376.4,325.4,376.3,325.5z"/>
<path class="st18" d="M376.7,324.4c-0.1-0.1,0-0.2,0.1-0.3C376.8,324.1,376.8,324.3,376.7,324.4z"/>
<path class="st27" d="M433.6,263c0-0.1,0-0.2,0.2-0.3C433.8,262.8,433.7,262.9,433.6,263z"/>
<path class="st21" d="M436.2,261.8c0-0.1,0-0.2,0.2-0.3C436.4,261.7,436.4,261.8,436.2,261.8z"/>
<path class="st1" d="M501.5,55.3c-0.1,0.1-0.2,0-0.3-0.2C501.3,55,501.4,55.1,501.5,55.3z"/>
<path class="st4" d="M427.5,32.6c-0.1,0.1-0.2,0-0.3-0.1C427.3,32.5,427.4,32.5,427.5,32.6z"/>
<path class="st1" d="M500.8,54.6c-0.1,0.1-0.2,0-0.3-0.2C500.6,54.3,500.7,54.4,500.8,54.6z"/>
<path class="st1" d="M502.3,56.4c-0.1,0.1-0.2,0-0.3-0.2C502,56.2,502.1,56.3,502.3,56.4z"/>
<path class="st1" d="M501.2,54.9c-0.1,0.1-0.2,0-0.3-0.2C500.9,54.7,501,54.8,501.2,54.9z"/>
<path class="st1" d="M501.9,55.7c-0.1,0-0.2,0-0.3-0.2C501.7,55.4,501.8,55.5,501.9,55.7z"/>
<path class="st31" d="M281.7,424.5c-5.5,2.2-10.9,4.4-16.4,6.5c-0.6,0.2-1.3,0.4-2.1,0.6c-0.6-0.7-1.1-1.4-1.6-2
	C192.4,360.3,123.3,291.2,54.1,222c-0.5-0.5-1.1-0.9-1.8-1.4c1.2-3.8,2.6-7.7,4-11.5c0.2-0.5,0.6-0.9,1-1.5c0.7-1.9,1.4-3.7,2.3-5.5
	c1,0.6,1.9,1.2,2.6,1.9c72.6,72.6,145.1,145.1,217.7,217.7c0.4,0.4,0.8,0.7,1,1.1C281.2,423.3,281.4,423.9,281.7,424.5z"/>
<path class="st29" d="M227.7,238.5c-0.7-0.5-1.5-1-2.2-1.6c-38.3-38.2-76.5-76.5-114.8-114.7c-1.2-1.2-2.4-2.6-3.6-4
	c1.8,1,3.6,2,5.3,3.2c3.4,2.2,6.8,4.5,10.2,6.8c1.6,1.1,3,1.2,4.6,0.1c1.9-1.2,3.8-2.2,5.8-3.2c2.1-1.1,2.7-0.9,4.7,1.1
	c30,30,59.9,59.9,89.9,89.9c0.4,0.4,0.8,0.9,1.3,1.3c0.7,0.5,1.2,0.6,1.7-0.4c1.6-3.3,0.8-5.5-2.9-7.5c-3.3-1.8-6.9-3.3-10-5.5
	c-2.7-1.9-4.9-4.5-7.3-6.9c-0.9-0.9-1.7-1.9-2.4-3c-1.6-2.6-3.2-5.1-4.6-7.8c-3.1-5.7-4.7-11.9-4.9-18.4c-0.1-5.2,0-10.5,0-15.7
	c0-0.4,0.3-0.9,0.5-1.3c0.5,0.2,1.1,0.2,1.5,0.6c1.8,1.7,3.4,3.4,5.2,5.1c0.5,0.5,1,0.8,1.7,1.4c-0.3,9.2,0.9,17.9,5.8,25.7
	c1.8,2.9,3.7,5.8,6.2,8c4.6,4.2,10,7.5,15.8,9.9c2.4,1,3.8,2.7,4.9,4.8c0.4,0.8,0.8,1.7,1.1,2.5c1.1,3,2.2,5.9,0.3,9.1
	c-0.6,0.9-0.6,2.1-1,3.2c-0.6,1.8-1.2,3.7-1.9,5.7c-0.7-0.6-1.1-0.9-1.4-1.2c-1.7-1.7-3.3-3.3-5-5c-1.5-1.5-2-1.3-2.6,0.6
	c-0.5,1.4-0.8,2.8-1.2,4.4C228.2,230,228,234.2,227.7,238.5z"/>
<path class="st32" d="M228.5,225.4c0.4-1.4,0.8-2.9,1.2-4.3c0.6-1.9,1.1-2.1,2.6-0.6c1.7,1.6,3.3,3.3,5,5c0.3,0.3,0.7,0.6,1.4,1.2
	c0.7-2.1,1.3-3.9,1.9-5.7c0.3-1.1,0.4-2.3,1-3.2c1.9-3.1,0.8-6.1-0.3-9.1c-0.3-0.9-0.7-1.7-1.1-2.5c-1.1-2.1-2.5-3.8-4.9-4.8
	c-5.8-2.4-11.2-5.7-15.8-9.9c-2.5-2.2-4.4-5.2-6.2-8c-4.9-7.8-6.1-16.5-5.7-25.6c0-5.4,0-10.6,0.1-16c0.5-1,0.9-1.8,1.6-3
	c1.7,1.9,3.3,3.6,5,5.3c0.5,0.5,1.3,0.8,2,1.2c0.2-0.7,0.6-1.4,0.6-2.1c0-7.3-0.3-14.7,3.1-21.7c1.4-2,2.7-3.9,4.2-5.8
	c1.9-1,3.1-0.3,4.2,1.1c0.4,0.5,0.9,0.8,1.3,1.3c1.2,1.5,2.3,1.5,3.8,0.3c1.5-1.1,3.1-2.1,4.8-2.8c4.4-1.7,8.9-3.2,13.4-4.8
	c4.4,1.2,8.7,2.5,13.3,3.8c0.1,0.2,0.1,0.2,0.1,0.4c-0.4,0.7-0.7,1.5-1.2,1.7c-4.9,1.3-9.9,2.5-14.9,3.8c-4.2,1.1-8.5,1.9-11.2,6
	c-0.1,0.2-0.2,0.2-0.5,0.3c-2.3,0.2-3.1-1.7-4.3-2.8c-2.2-2-3.1-1.9-4.5,0.8c-1.6,3.1-2.2,6.4-2.3,9.8c-0.1,4.6,0,9.1,0,13.7
	c0,1.1,0,2.3,0,3.5c0,0.5,0,0.9-0.1,1.4c-0.3,1.3-0.6,2.4-1,4.1c-2.5-2.4-4.6-4.5-7.1-6.9c-0.2,1.2-0.3,1.7-0.4,2.2
	c-0.2,2.5-0.1,5.1-0.4,7.6c-0.7,6.3,0.3,12.3,3.9,17.6c2.4,3.6,4.9,7.4,8.9,9.5c4.6,2.5,9.4,4.6,14.2,6.8c1.6,0.7,3.1,1.4,3.7,3.4
	c0.5,1.6,1.4,3.2,2.1,4.9c1.2,3.1,2.5,6.1,3.6,9.1c0.3,0.8,0.4,1.9,0.1,2.6c-1.2,3.4-2.6,6.7-3.9,10c-0.7,1.8-1.4,3.6-2.1,5.4
	c-0.5,1.4-0.8,2.8-1.3,4.4c-0.5-0.3-0.8-0.5-1-0.7c-1.5-1.5-3.1-3.1-4.6-4.6c-0.4-0.3-1.1-0.8-1.4-0.6c-0.4,0.2-0.8,0.9-0.9,1.4
	c-0.3,1.1-0.3,2.2-0.6,3.3c-0.7-0.4-1.4-0.7-1.9-1.2c-1.8-1.7-3.5-3.6-5.4-5.3C230.1,225.9,229.2,225.8,228.5,225.4z"/>
<path class="st29" d="M219.9,121.6c-3.3,6.9-3,14.2-3,21.6c0,0.7-0.4,1.4-0.6,2.1c-0.7-0.4-1.4-0.7-2-1.2c-1.7-1.7-3.3-3.5-5-5.3
	c-0.7,1.3-1.1,2-1.6,2.8c-0.2-6-0.3-12,1.4-17.8c0.5-1.6,1.1-3.1,1.9-4.8c1,0.3,1.8,0.6,2.4,1.1c1.4,1.3,2.7,2.7,3.9,3.8
	C218.3,123.1,219.1,122.4,219.9,121.6z"/>
<path class="st13" d="M220,121.5c-0.8,0.8-1.6,1.6-2.7,2.5c-1.1-1.1-2.4-2.5-3.9-3.8c-0.6-0.5-1.4-0.8-2.3-1.2
	c-0.1-0.1-0.1-0.1-0.1-0.4c1.4-2.7,2.8-5.1,4.3-7.5c1.2-1.8,2.6-3.4,4-5.2c0.7-0.4,1.2-0.7,1.8-1c1.4,1.2,2.8,2.2,3.9,3.4
	c1.2,1.3,2.4,2,4.1,1.8c-1.8,1.9-3.5,3.7-5.2,5.5C222.7,117.6,221.4,119.5,220,121.5z"/>
<path class="st14" d="M219.2,106c-1.3,1.7-2.7,3.3-3.8,5.1c-1.5,2.4-2.9,4.8-4.3,7.4c-0.8-0.2-1.7-0.3-2.2-0.8
	c-1.3-1.1-2.4-2.4-3.7-3.6c-0.5-0.4-1.1-0.7-1.8-1c0-0.4,0.1-0.8,0.2-1.4c1.5-2.6,3-5,4.6-7.4c1-1.5,2.2-2.8,3.6-4.2
	c0.9,0.3,1.7,0.5,2.3,1C215.8,102.7,217.5,104.4,219.2,106z"/>
<path class="st14" d="M202.2,115.7c0-0.2,0-0.4,0.2-0.7C202.4,115.2,202.3,115.4,202.2,115.7z"/>
<path class="st33" d="M372.1,400.7c-2,2.1-4.1,4.1-6.3,6.2c-0.8-0.5-1.3-1-1.8-1.5c-94.8-94.8-189.7-189.7-284.5-284.5
	c-0.4-0.4-0.7-0.9-1.2-1.2c-0.7-0.4-1.5-0.7-2.3-1c2.2-2,4.3-4,6.6-5.9c0.3-0.2,1.1-0.2,1.5,0.1c0.8,0.5,1.6,1.2,2.3,1.9
	c49.7,49.6,99.3,99.3,149,148.9c0.8,0.8,1.8,1.3,2.9,2.1c1.8,1.8,3.4,3.5,5.1,5.1c6.4,6.4,12.7,12.8,19.1,19.1c1.3,1.3,2.7,2.6,4,4
	c1.6,2.1,3.1,4.2,4.9,6c33,33.1,66.1,66.1,99.1,99.2C370.9,399.7,371.5,400.2,372.1,400.7z"/>
<path class="st33" d="M363.9,408.9c-0.7,0.7-1.3,1.4-2.1,2.2c-52.7-52.5-105.3-105-157.9-157.6c-43.1-43-86.1-86.1-129.1-129.1
	c-0.7-0.7-1.7-1.1-2.7-1.6c0.9-1,1.9-2,3.2-2.9c0.8,0.7,1.4,1.5,2.1,2.1c95,95,190,190,284.9,284.9
	C362.8,407.5,363.3,408.2,363.9,408.9z"/>
<path class="st8" d="M364,408.8c-0.7-0.6-1.2-1.3-1.8-1.9c-95-95-190-190-284.9-284.9c-0.7-0.7-1.2-1.4-1.9-2.1
	c0.1-0.4,0.3-0.7,0.5-1.1c0.9,0.3,1.7,0.6,2.4,1c0.5,0.3,0.8,0.8,1.2,1.2c94.8,94.8,189.7,189.7,284.5,284.5c0.5,0.5,1.1,1,1.7,1.6
	C365.2,407.6,364.7,408.2,364,408.8z"/>
<path class="st34" d="M266.4,293.9c-1.4-1.3-2.8-2.6-4.1-3.9c-6.4-6.4-12.8-12.7-19.1-19.1c-1.6-1.7-3.3-3.3-5-5.1
	c-1.3-2.1-2.5-4.1-3.7-6.1c-3.8-6.3-6-13.2-6.5-20.6c0-0.1-0.1-0.2-0.2-0.5c0.2-4.3,0.4-8.6,0.7-13c0.8,0.2,1.7,0.3,2.2,0.8
	c1.9,1.7,3.6,3.6,5.4,5.3c0.5,0.5,1.2,0.8,1.9,1.3c0.3,3.5,0,6.8,0.6,10.1c1.4,7.7,4.7,14.6,10.5,20.3c6.6,6.4,13.1,13,19.6,19.6
	c3.6,3.7,7.6,6.8,12.3,9.2c0.4,0.7,0.7,1.4,1.2,1.9c2.7,2.7,5.4,5.4,8,8.1c0.8,0.8,1.3,1.9,1.8,2.8c-5.3-0.4-10.2-1.8-14.7-4.3
	C273.5,298.7,270,296.2,266.4,293.9z"/>
<path class="st25" d="M50.6,144c0.5-0.5,0.9-1.1,1.4-1.8c2.6-2.5,5.1-5,7.8-7.4c0.8,0.6,1.5,1.2,2.1,1.8
	c95.2,95.2,190.3,190.3,285.5,285.5c0.5,0.5,1,1.1,1.5,1.7c-3,3.1-6.1,6.1-9.3,9.2c-0.8-0.6-1.5-1.2-2.1-1.8
	C242.4,336,147.3,240.8,52.1,145.6C51.6,145.1,51.1,144.5,50.6,144z"/>
<path class="st30" d="M349.1,423.7c-0.6-0.5-1.1-1.1-1.6-1.6C252.4,326.9,157.2,231.7,62,136.6c-0.6-0.6-1.3-1.2-2-1.8
	c2.3-2.4,4.7-4.8,7.1-7c0.4-0.4,1.4-0.3,2-0.1c0.7,0.3,1.3,1,1.8,1.5c94.9,94.9,189.8,189.8,284.7,284.7c0.5,0.5,0.9,1,1.5,1.6
	c0.1,0.3,0,0.4,0,0.7c-1.1,1.1-2.3,2-3.3,2.9C352.3,420.6,350.8,422.1,349.1,423.7z"/>
<path class="st24" d="M369.6,175.2c-2.5-0.4-3.9-1.8-4.2-4.4c0-0.4,0-0.6,0.1-0.8c3.4-5,6.7-9.9,9.9-14.9c1.8-2.9,1.4-5.4-1-7.8
	c-12.4-12.4-24.9-24.9-37.3-37.3c-3.2-3.2-5.8-3.4-9.6-0.9c-3.2,2.1-6.5,4.2-9.9,6.3c-2.4,0.4-4.5-1.3-4.7-3.8c4.5-3,8.9-6.3,13.6-9
	c4.6-2.7,10.5-1.6,14.4,2.2c6,6,12,12,18.1,18c2.9,2.9,5.7,5.8,8.6,8.7c3.8,3.9,7.7,7.7,11.5,11.6c4.2,4.2,5,10.3,1.8,15.3
	C377.3,163.9,373.5,169.5,369.6,175.2z"/>
<path class="st13" d="M312.8,111.6c0.4,2.5,2.4,4.2,4.8,3.9c-1.5,1.3-3.1,2.4-4.8,3.6c-4.8,3.1-9.5,6.1-14.1,9.2
	c-1.1,0.8-2.3,1.1-3.5,0.4c-1.4-0.7-2.6-1.6-4-2.3c-2.6-1.4-5.1-2.7-7.8-4.1c-3.2-1.4-6.1-3-9.2-4.2c-3-1.2-6.2-2.1-9.2-3.2
	c0-0.1,0-0.1,0-0.3c0.6-1.9,1.2-3.6,1.9-5.6c3.8,1.2,7.6,2.3,11.3,3.9c5.7,2.6,11.4,5.4,17,8.2c1.1,0.6,1.9,0.6,3-0.1
	C302.9,117.9,307.8,114.8,312.8,111.6z"/>
<path class="st35" d="M264.9,115.1c3.1,0.9,6.2,1.8,9.2,3c3.1,1.2,6.1,2.8,9.3,4.3c1.1,1.2,2.1,2.1,3.1,3.1
	c9.1,9.1,18.1,18.2,27.2,27.1c1.2,1.1,2.9,2,4.4,2.3c3.6,0.7,6.5,2.2,9.1,4.9c7.6,8,15.6,15.6,23.3,23.5c1.6,1.6,2.6,3.8,4,5.7
	c0.8,1.1,1.7,2.1,2.6,3.1c2.9,5.9,6,11.7,8.5,17.7c2.7,6.8,4.7,13.8,7,20.7c0.4,1.2,0.8,1.6,2.1,1.8c8.5,1.6,17.1,3.5,25.6,5.2
	c3.1,0.6,6.2,1.3,9.3,1.8c3,0.5,5.7,2.6,5.7,5.8c0,8.5,0.2,17,0.3,25.6c-0.2,2.1-0.5,3.9-0.8,6.1c-0.9,3.4-1.6,6.6-2.6,9.7
	c-0.5,1.8-1.4,3.5-2.3,5.1c-0.9-0.7-1.7-1.2-2.4-1.9c-23.7-23.7-47.3-47.3-71-71c-20.3-20.3-40.7-40.7-61-61
	c-1.6-1.6-3.3-2.6-5.6-3.1c-1.2-0.2-2.5-1-3.5-1.9c-8.6-8.4-17.1-17-25.5-25.5c-0.9-1-1.8-1.6-3.2-1.1c2.6-4,6.9-4.9,11.1-5.9
	c5-1.3,9.9-2.5,14.9-3.8C264.2,116.6,264.5,115.8,264.9,115.1z"/>
<path class="st36" d="M357.2,192.2c-0.8-0.9-1.8-1.9-2.6-3c-1.4-1.9-2.4-4.1-4-5.7c-7.7-7.9-15.7-15.5-23.3-23.5
	c-2.6-2.7-5.5-4.2-9.1-4.9c-1.6-0.3-3.3-1.2-4.4-2.3c-9.1-9-18.2-18.1-27.2-27.1c-1-1-2-2-3-3.1c2.6,1.2,5.1,2.5,7.7,3.9
	c1.4,0.7,2.6,1.6,4,2.3c1.2,0.6,2.3,0.4,3.5-0.4c4.6-3.1,9.3-6.1,14.2-9.1c1.1,0.8,2.1,1.4,2.9,2.3c10.7,10.6,21.3,21.3,32,31.9
	c1.1,1.1,2.6,2.3,4,2.5c3.2,0.3,5,2.5,7,4.5c1.5,1.4,2.9,2.9,4.3,4.3c1.6,1.5,3.2,2.9,2.3,5.5c0,0.2,0,0.3,0,0.6
	c-1.5,2.3-3.1,4.6-4.6,6.8c-1.7,2.5-3.2,5.1-5.1,7.6c-1,1.3-1.3,2.3-0.4,3.7C356,189.7,356.6,190.9,357.2,192.2z"/>
<path class="st18" d="M219.3,106c-1.8-1.6-3.5-3.3-5.3-4.9c-0.5-0.5-1.3-0.7-2.2-1c0-0.2,0-0.4,0.2-0.6c3.8-3,7.6-5.9,11.5-8.9
	c2.2-1.1,4.3-2,6.3-3.2c0.6-0.4,0.8-1.4,1.2-2.3c1,0.4,2.2,0.9,3.1,1.7c1.9,1.6,3.7,3.2,5.7,4.9c-0.6,2.2-1.8,3.9-4.2,4.7
	c-1.6,0.5-3,1.5-4.7,2.3c-3.5,2.2-6.7,4.3-10,6.4C220.5,105.2,219.9,105.6,219.3,106z"/>
<path class="st32" d="M292.1,305.1c-0.6-1-1.2-2-1.9-2.8c-2.6-2.8-5.4-5.4-8-8.1c-0.5-0.5-0.8-1.2-1-1.9c7.5,2.9,15.1,4.2,23,2.4
	c0.6-0.1,1.4-0.7,1.6-1.2c0.2-0.5-0.2-1.4-0.5-1.9c-0.6-0.8-1.5-1.5-2.2-2.3c-0.6-0.6-1.6-1.2-0.6-2.3c1-1,1.9-0.9,2.9,0.1
	c1.4,1.4,2.8,2.8,4.2,4.2c0.5,0.5,1.2,0.8,1.8,1.1c0.1-0.2,0.3-0.3,0.4-0.5c-0.4-0.5-0.7-1-1.1-1.4c-1.2-1.2-2.4-2.3-3.5-3.6
	c-0.3-0.3-0.4-1.3-0.2-1.5c1.4-1,2.9-1.9,4.4-2.6c2.3-1.1,4.6-2.1,7.1-2.8c1.3-0.4,2.8-0.4,4,0c3.2,1,6.2,2.3,9.4,3.6
	c1.7,0.8,3.3,1.4,4.8,2.2c0.8,0.4,1.6,1.1,2,1.8c1.2,2.5,2.2,5.1,3.2,7.7c2.4,5.8,5.4,11.1,10.7,15c6.1,4.4,12.7,6.4,20.1,5.9
	c-0.9,3-1.7,6-2.6,9.1c0,0.1-0.2,0.2-0.4,0.2c-2.1-0.1-4-0.1-5.8-0.4c-7.9-1.2-14.8-4.7-20.7-10c-5.5-4.9-8.4-11.5-11.5-18
	c-0.4-0.9-1.1-2-1.9-2.4c-3.1-1.5-6.3-2.7-9.5-4c-0.4-0.2-1-0.1-1.4,0c-2.7,0.8-5.3,1.7-7.9,2.6c-1.1,0.4-2.2,1-3.5,1.6
	c2.2,2.2,4.3,4.1,6.2,6.1c1.2,1.2,1,2-0.6,2.5c-5.5,1.7-11.1,2.3-16.9,2.1C294.4,305.4,293.3,305.2,292.1,305.1z"/>
<path class="st37" d="M372.5,316.1c-7.5,0.7-14.1-1.4-20.2-5.8c-5.3-3.9-8.3-9.2-10.7-15c-1.1-2.6-2-5.2-3.2-7.7
	c-0.4-0.8-1.2-1.4-2-1.8c-1.5-0.8-3.1-1.4-4.7-2.3c1.1-1.4-0.1-2-0.7-2.6c-3.3-3.4-6.8-6.8-10.1-10.2c-0.4-0.4-0.5-1.1-0.7-1.7
	c0.7-0.1,1.5-0.6,2.1-0.3c7.2,2.7,14.3,5.5,21.4,8.3c0.7,0.3,1.5,1,1.7,1.7c1.7,5,3.4,10,5,15c1.9,5.9,5.7,9.9,11.4,12.1
	c3.2,1.2,6.5,1.6,10,1.2c4.5-0.5,9-0.6,13.5-0.8c0.7,0,1.5,0.2,2.2,0.2c1.1,0.1,2.2,0.1,3.2,0.1c1.3-0.1,2.6-0.2,3.9-0.3
	c0.6-0.1,1.3-0.1,2.4-0.2c-0.6-0.8-1-1.3-1.4-1.7c-1.4-1.5-2.9-2.9-4.3-4.4c-0.5-0.5-0.7-1.2-0.8-1.9c4-0.1,7.9,0,11.6-0.5
	c3.4-0.4,6.2-2.4,7.9-5.5c0.7-1.7,1.7-3.4,2.2-5.2c0.9-3.1,1.7-6.3,2.6-9.6c0.3,1.8,0.7,3.8,0.8,5.7c0.1,4.5,0.1,9,0,13.6
	c0,1.7-0.1,3.4-0.4,5c-0.6,2.8-2.7,4.1-5.3,4.6c-11.7,2.4-23.3,4.8-35,7C373,313.5,372.9,314.7,372.5,316.1z"/>
<path class="st29" d="M295.8,305.8c5.7,0.2,11.3-0.5,16.8-2.2c1.6-0.5,1.9-1.2,0.6-2.5c-1.9-2-4-3.9-6.2-6.1
	c1.4-0.6,2.4-1.2,3.5-1.6c2.6-0.9,5.3-1.8,7.9-2.6c0.4-0.1,1-0.2,1.4,0c3.2,1.3,6.4,2.5,9.5,4c0.8,0.4,1.5,1.5,1.9,2.4
	c3.1,6.5,6,13.1,11.5,18c5.9,5.3,12.8,8.9,20.7,10c1.8,0.3,3.7,0.3,5.7,0.4c-1.9,5.4-3.8,10.9-6.2,16.2c-2.4,5.3-5.2,10.5-8,15.7
	c-0.6,1.2-0.5,2,0.2,3c3.5,5.2,6.9,10.5,10.2,15.9c-0.6-0.3-1.1-0.6-1.6-1c-22.5-22.5-45-45-67.5-67.4c-0.3-0.3-0.7-0.6-0.9-1
	C295.6,306.6,295.8,306.2,295.8,305.8z"/>
<path class="st7" d="M295.7,305.7c0.1,0.5-0.1,0.9,0,1.2c0.2,0.4,0.6,0.7,0.9,1c22.5,22.5,45,45,67.5,67.4c0.4,0.4,1,0.7,1.6,1.1
	c1.8,2.4,3.5,4.7,5.1,7.1c1.4,2,2.6,4.1,4,6c2.3,3.2,2.3,6.8-0.8,9.4c-0.2,0.2-0.4,0.5-0.7,0.8c-0.4,0.3-0.7,0.5-1.1,0.8
	c-0.7-0.4-1.2-0.9-1.8-1.4c-33.1-33-66.1-66.1-99.1-99.2c-1.8-1.8-3.4-4-4.9-6c3.7,2.2,7.2,4.7,10.9,6.8c4.5,2.5,9.4,3.8,14.7,4.3
	C293.3,305.2,294.4,305.4,295.7,305.7z"/>
<path class="st28" d="M50.5,144c0.6,0.5,1.1,1.1,1.6,1.6c95.2,95.2,190.3,190.3,285.5,285.5c0.6,0.6,1.3,1.2,2,1.8
	c-1,1.4-2.1,2.6-3.3,4c-3.8,2.4-6.9,1.2-10.2-1.1c-7.5-5.2-15.2-10.2-22.9-15.5c-0.7-1.1-1.3-2.1-2-2.9
	C223.2,339.4,145,261.2,66.9,183.1c-0.4-0.4-0.7-0.8-1.1-1c-0.8-0.5-1.7-0.9-2.6-1.3c-2.4-3.5-4.7-7.1-7.1-10.6
	c-3-4.6-5.9-9.2-9.1-13.7c-1.6-2.3-2.1-4.7-1.3-7.5C47.3,147.2,48.9,145.6,50.5,144z"/>
<path class="st26" d="M63.3,180.9c0.8,0.3,1.7,0.7,2.5,1.2c0.4,0.2,0.7,0.7,1.1,1c78.1,78.1,156.2,156.2,234.3,234.4
	c0.8,0.8,1.3,1.8,2,2.8c-1.7-1-3.4-2.2-5.3-3.2c-0.5-0.3-1.5-0.3-2,0c-4,2-7.9,4.1-11.9,6.3c-0.8,0.4-1.5,0.7-2.3,1.1
	c-0.4-0.5-0.5-1.1-0.8-1.6c-0.3-0.4-0.7-0.7-1-1.1c-72.6-72.6-145.1-145.1-217.7-217.7c-0.7-0.7-1.6-1.3-2.5-2
	c2.3-4.7,4.6-9.3,7.1-13.9c0.5-1,0.5-1.7,0-2.5C65.6,184.1,64.5,182.6,63.3,180.9z"/>
<path class="st38" d="M224.1,115.7c1.6-1.8,3.3-3.6,5.1-5.5c3.2-1.6,6.2-3.1,9.2-4.6c2.6-1,5.2-2,7.7-3.2c0.7-0.3,1.1-1.2,1.6-1.9
	c0.4-0.6,0.6-1.2,0.9-1.9c0.2,0,0.3,0,0.5,0.1c0.8,3.9,1.6,7.9,2.4,12c-4.5,1.7-9,3.3-13.4,5c-1.7,0.7-3.3,1.7-4.8,2.8
	c-1.5,1.1-2.6,1.1-3.8-0.3c-0.4-0.5-0.9-0.8-1.3-1.3C227.3,115.4,226,114.7,224.1,115.7z"/>
<path class="st6" d="M238.4,105.6c-2.9,1.5-5.9,3-9.1,4.5c-1.9,0.3-3.1-0.4-4.3-1.7c-1.1-1.2-2.5-2.2-3.9-3.4
	c3.2-2.2,6.4-4.3,9.8-6.4C233.5,100.9,235.9,103.2,238.4,105.6z"/>
<path class="st39" d="M409.9,292c-1.6,3.2-4.3,5.1-7.8,5.5c-3.8,0.5-7.6,0.3-11.8,0.5c-7,0-13.7,0-20.4,0c-6.4,0-11.3-3.8-12.8-10
	c-1.5-5.9-2.9-11.8-4.4-17.6c-0.2-0.8-0.9-1.7-1.5-2c-3.2-1.2-6.7-1.9-9.8-3.3c-5.7-2.4-11.3-5-16.9-7.7c-1.2-0.6-2.1-0.7-3.2,0
	c-2.2,1.4-4.5,2.8-6.7,4.2c-1.8,1.2-1.8,1.5-0.3,3c0.9,0.9,1.9,1.8,2.8,2.8c0.9,0.9,0.8,1.8-0.4,2.4c-5.8,2.6-11.1,6.6-17.6,7.4
	c-0.3,0-0.6,0.3-1.2,0.7c1.4,1.4,2.8,2.7,4,4c0.7,0.8,1.3,1.8,2,2.7c-1.2,0.3-2.5,1.1-3.6,0.9c-4-0.5-7.9-1.4-11.8-2.2
	c-5.2-1-9.5-3.5-13.2-7.3c-5.9-6.2-12-12.2-18.1-18.2c-2.7-2.7-5.1-5.6-6.5-9.2c-2.1-5.5-3.5-11.1-2.1-17c0.2-0.7,0.7-1.8,1-1.8
	c0.7,0,1.6,0.4,2.2,0.9c1.2,1.1,2.3,2.3,3.7,3.6c0.6-1.6,0.9-2.7,1.5-3.8c2.3-4.5,4.6-9,6.9-13.6c0.9-1.8,1.6-2,3-0.6
	c1.2,1.2,2.4,2.4,4,4c2.2-3.4,4.3-6.4,6.2-9.5c0.2-0.3,0-0.8-0.2-1.2c-4.8-8.7-8.7-17.8-11.4-27.4c-0.2-0.7-1-1.5-1.7-1.7
	c-5.6-1.5-11.1-3-16.7-4.2c-7.1-1.5-11.1-6.2-11.1-13.4c0-6.4,0-12.9,0-19.5c0-1.6,0-3,0-4.4c0-4.3-0.5-8.6,1.9-12.5
	c0.1-0.1,0.2-0.1,0.3-0.3c1.4-0.5,2.3,0.1,3.2,1c8.5,8.5,17,17,25.5,25.5c0.9,0.9,2.2,1.7,3.5,1.9c2.3,0.4,4,1.5,5.6,3.1
	c20.3,20.3,40.7,40.7,61,61c23.7,23.7,47.3,47.3,71,71C408.2,290.7,409,291.3,409.9,292z"/>
<path class="st40" d="M235.5,144c0,6.4,0,12.9,0,19.3c0,7.2,4,11.9,11.1,13.4c5.6,1.2,11.2,2.7,16.7,4.2c0.7,0.2,1.5,1,1.7,1.7
	c2.7,9.6,6.6,18.7,11.4,27.4c0.2,0.3,0.4,0.9,0.2,1.2c-2,3.1-4,6.1-6.2,9.5c-1.6-1.6-2.8-2.8-4-4c-1.4-1.4-2.1-1.1-3,0.6
	c-2.3,4.5-4.6,9-6.9,13.6c-0.5,1.1-0.9,2.3-1.5,3.8c-1.4-1.4-2.5-2.6-3.7-3.6c-0.6-0.5-1.5-0.9-2.2-0.9c-0.3,0-0.8,1.1-1,1.8
	c-1.4,5.9,0.1,11.5,2.1,17c1.3,3.6,3.8,6.5,6.5,9.2c6.1,6,12.2,12,18.1,18.2c3.7,3.9,8.1,6.3,13.2,7.3c3.9,0.8,7.8,1.6,11.8,2.2
	c1.1,0.2,2.4-0.6,3.6-0.9c-0.6-0.9-1.2-1.9-2-2.7c-1.2-1.4-2.6-2.6-4-4c0.6-0.3,0.9-0.6,1.2-0.7c6.6-0.9,11.8-4.8,17.6-7.4
	c1.2-0.6,1.3-1.4,0.4-2.4c-0.9-0.9-1.8-1.8-2.8-2.8c-1.5-1.5-1.5-1.8,0.3-3c2.2-1.4,4.5-2.8,6.7-4.2c1.1-0.7,2-0.6,3.2,0
	c5.6,2.7,11.2,5.3,16.9,7.7c3.2,1.3,6.6,2.1,9.8,3.3c0.7,0.2,1.3,1.2,1.5,2c1.5,5.9,3,11.8,4.4,17.6c1.6,6.2,6.4,10,12.8,10
	c6.7,0,13.4,0,20.3,0c0.5,0.6,0.7,1.4,1.2,1.9c1.4,1.5,2.9,2.9,4.3,4.4c0.4,0.4,0.7,0.9,1.4,1.7c-1.1,0.1-1.7,0.1-2.4,0.2
	c-1.3,0.1-2.6,0.3-3.9,0.3c-1.1,0-2.2,0-3.2-0.1c-0.7,0-1.5-0.3-2.2-0.2c-4.5,0.2-9,0.3-13.5,0.8c-3.5,0.4-6.8,0-10-1.2
	c-5.7-2.1-9.5-6.2-11.4-12.1c-1.6-5-3.3-10-5-15c-0.2-0.7-1-1.4-1.7-1.7c-7.1-2.8-14.3-5.6-21.4-8.3c-0.6-0.2-1.4,0.2-2.1,0.3
	c0.2,0.6,0.3,1.3,0.7,1.7c3.3,3.4,6.7,6.8,10.1,10.2c0.6,0.6,1.8,1.2,0.6,2.5c-3.2-1.1-6.3-2.4-9.4-3.4c-1.2-0.4-2.8-0.3-4,0
	c-2.4,0.7-4.8,1.7-7.1,2.8c-1.5,0.7-3,1.6-4.4,2.6c-0.2,0.1,0,1.1,0.2,1.5c1.1,1.3,2.3,2.4,3.5,3.6c0.4,0.4,0.7,0.9,1.1,1.4
	c-0.1,0.2-0.3,0.3-0.4,0.5c-0.6-0.4-1.3-0.7-1.8-1.1c-1.4-1.4-2.8-2.8-4.2-4.2c-0.9-0.9-1.9-1.1-2.9-0.1c-1,1.1,0,1.6,0.6,2.3
	c0.7,0.8,1.6,1.4,2.2,2.3c0.4,0.5,0.7,1.4,0.5,1.9c-0.2,0.5-1,1.1-1.6,1.2c-7.9,1.8-15.4,0.4-23-2.6c-4.8-2.3-8.8-5.4-12.4-9.1
	c-6.5-6.6-13-13.1-19.6-19.6c-5.8-5.6-9-12.5-10.5-20.3c-0.6-3.2-0.3-6.6-0.4-10.1c0.1-1.3,0.2-2.4,0.5-3.5c0.1-0.5,0.5-1.2,0.9-1.4
	c0.3-0.1,1,0.3,1.4,0.6c1.6,1.5,3.1,3.1,4.6,4.6c0.2,0.2,0.5,0.3,1,0.7c0.5-1.6,0.8-3,1.3-4.4c0.6-1.8,1.4-3.6,2.1-5.4
	c1.3-3.3,2.7-6.7,3.9-10c0.3-0.8,0.2-1.8-0.1-2.6c-1.1-3-2.4-6-3.5-9.1c0.9,0.3,1.7,0.5,2.3,1.1c3.3,3.2,6.5,6.5,9.8,9.7
	c0.4,0.4,1.4,1,1.6,0.8c0.5-0.4,0.9-1.2,1-1.9c0.1-0.6-0.1-1.4-0.3-2c-2.7-6.8-5.4-13.7-8.2-20.5c-0.3-0.8-1.2-1.6-2-1.9
	c-5.3-2-10.8-3.7-16.1-5.7c-5.1-1.9-8.8-5.5-10.7-10.6c-1.9-5.2-1.7-10.5-1.2-15.9c0.1-0.8-0.2-1.5-0.3-2.3c0-0.4,0-0.8,0.1-1.4
	c0.9-2.5,1.2-4.9,0.7-7.3c-0.1-0.7,0.5-1.5,0.7-2.3c0.6,0.4,1.3,0.7,1.8,1.1c1.5,1.4,2.9,2.9,4.2,4.2
	C234.4,146.2,235,145.1,235.5,144z"/>
<path class="st37" d="M226.1,153.4c0.2,0.7,0.4,1.4,0.4,2.2c-0.5,5.4-0.7,10.7,1.2,15.9c1.9,5.2,5.6,8.7,10.7,10.6
	c5.3,2,10.7,3.7,16.1,5.7c0.8,0.3,1.6,1.1,2,1.9c2.8,6.8,5.5,13.6,8.2,20.5c0.2,0.6,0.4,1.3,0.3,2c-0.1,0.7-0.5,1.4-1,1.9
	c-0.2,0.2-1.2-0.4-1.6-0.8c-3.3-3.2-6.5-6.5-9.8-9.7c-0.6-0.6-1.4-0.8-2.3-1.2c-0.9-1.6-1.8-3.1-2.3-4.7c-0.6-1.9-2.1-2.6-3.7-3.4
	c-4.8-2.2-9.6-4.4-14.2-6.8c-4-2.1-6.5-5.9-8.9-9.5c-3.6-5.3-4.6-11.3-3.9-17.6c0.3-2.5,0.3-5,0.4-7.6c0-0.5,0.2-1,0.4-2.2
	c2.5,2.4,4.6,4.5,7.1,6.9C225.5,155.8,225.8,154.6,226.1,153.4z"/>
<path class="st37" d="M235.5,143.8c-0.5,1.3-1.1,2.4-1.8,3.8c-1.3-1.3-2.7-2.8-4.2-4.2c-0.5-0.5-1.2-0.8-1.8-1.1
	c-0.3,0.8-0.9,1.6-0.7,2.3c0.5,2.4,0.2,4.8-0.7,7.2c-0.1-1-0.1-2.2-0.1-3.3c0-4.6-0.1-9.1,0-13.7c0.1-3.4,0.7-6.8,2.3-9.8
	c1.4-2.7,2.3-2.8,4.5-0.8c1.2,1.1,2,3,4.3,2.8c-2.2,3.9-1.7,8.3-1.7,12.5C235.5,140.8,235.5,142.2,235.5,143.8z"/>
<path class="st38" d="M365.5,169.9c0.8-2.5-0.8-3.9-2.4-5.4c-1.5-1.4-2.9-2.9-4.3-4.3c-2-2-3.7-4.2-7-4.5c-1.4-0.1-2.9-1.4-4-2.5
	c-10.7-10.6-21.3-21.3-32-31.9c-0.8-0.8-1.8-1.5-2.8-2.3c1.5-1.3,3.1-2.4,4.7-3.7c3.3-2.2,6.6-4.3,9.8-6.4c3.8-2.5,6.4-2.3,9.6,0.9
	c12.4,12.4,24.9,24.9,37.3,37.3c2.4,2.4,2.9,5,1,7.8C372.2,160.1,368.9,164.9,365.5,169.9z"/>
</svg>
