<?xml version="1.0" encoding="utf-8"?>
<!-- Generator: Adobe Illustrator 28.1.0, SVG Export Plug-In . SVG Version: 6.00 Build 0)  -->
<svg version="1.1" id="Layer_1" xmlns="http://www.w3.org/2000/svg" xmlns:xlink="http://www.w3.org/1999/xlink" x="0px" y="0px"
	 viewBox="0 0 496.4 521" style="enable-background:new 0 0 496.4 521;" xml:space="preserve">
<style type="text/css">
	.st0{fill:#A64EFF;}
	.st1{fill:#AB59FF;}
	.st2{fill:#A246FF;}
	.st3{fill:#5FADFF;}
	.st4{fill:#88C5FF;}
	.st5{fill:#A44AFF;}
	.st6{fill:#A954FF;}
	.st7{fill:#A244FF;}
	.st8{fill:#70B7FF;}
	.st9{fill:#91CAFE;}
	.st10{fill:#83C2FF;}
	.st11{fill:#9F40FF;}
	.st12{fill:#8D2CF6;}
	.st13{fill:#7D81FE;}
	.st14{fill:#8D80FD;}
	.st15{fill:#9636FA;}
	.st16{fill:#9740F8;}
	.st17{fill:#8A93FF;}
	.st18{fill:#41A2FF;}
	.st19{fill:#4C92FF;}
	.st20{fill:#597EFF;}
	.st21{fill:#656FFF;}
	.st22{fill:#48A9FE;}
	.st23{fill:#5790FE;}
	.st24{fill:#735DFD;}
	.st25{fill:#6D66FF;}
	.st26{fill:#7B52FD;}
	.st27{fill:#7265FE;}
	.st28{fill:#795BFE;}
	.st29{fill:#6776FE;}
</style>
<path class="st0" d="M224.3,158.3c4-2.1,7.9-4.3,11.9-6.4c8.2-4.4,16.5-8.8,24.8-13.1c0,1.1-0.2,2-0.2,2.9c0,16.9,0,33.7,0,50.6
	c0,0.9,0.5,1.7,0.7,2.6c-4.1,2.3-8.2,4.6-12.3,6.8c-7.7,4.2-15.5,8.3-23.4,12.4c-1.2-0.2-2.2-0.3-3.3-0.4c0,0-0.1-0.3-0.1-0.6
	c0-16.8,0-33.6,0-50.4c0-0.7,0.5-1.6,1-2C224.5,159.9,224.7,159.3,224.3,158.3z"/>
<path class="st1" d="M287.2,340.2c4.2,2.2,8.4,4.3,12.5,6.5c4.3,2.3,8.6,4.6,12.9,7c7.1,3.9,14.3,7.7,21.5,11.9
	c-1,1.5-1.9,2.8-2.9,4c-6.7,8.3-12.3,17.3-16.1,27.3c-1.6,4.1-2.7,8.4-4,12.7c-4-2.1-7.9-4.1-11.9-6.2c-4-2.1-7.9-4.2-11.9-6.5
	c-0.2-1.2-0.4-2.1-0.4-3c0-17.1,0-34.1,0-51.2C286.9,341.8,287.1,341,287.2,340.2z"/>
<path class="st1" d="M334.1,155.7c-2.7,1.5-5.4,3.1-8.1,4.6c-10.8,5.9-21.6,11.7-32.5,17.6c-0.4,0.2-0.8,0.4-1.4,0.5
	c-0.7,0-1.2,0-1.6,0.2c-2.6,1.3-2.9,1.1-2.9-1.8c0-13.9-0.1-27.9,0-41.8c0-3.9-1.1-8,1.3-11.6c7.3-3.9,14.5-7.7,22-11.5
	c0.2,0.4,0.2,0.8,0.2,1.1c3.6,13,9.3,24.9,17.5,35.6C330.5,150.9,332.3,153.3,334.1,155.7z"/>
<path class="st2" d="M224.2,158.3c0.5,0.9,0.3,1.6-0.6,2.3c-0.5,0.4-1,1.3-1,2c-0.1,16.8,0,33.6,0,50.4c0,0.3,0.1,0.6,0.1,0.6
	c1.2,0.1,2.2,0.2,3.2,0.4c-5,2.9-10,5.6-15,8.3c-6.4,3.5-12.8,6.9-19.4,10.3c-0.4-1.4-0.8-2.6-0.8-3.9c-0.1-17.4,0-34.8-0.1-52.2
	c4.2-2.3,8.4-4.5,12.6-6.8C210,165.9,217.1,162.2,224.2,158.3z"/>
<path class="st3" d="M496,427.6c0.1,0.6,0.3,1.1,0.3,1.7c-0.1,4.7,0,9.4-0.4,14.1c-0.8,8.1-2.8,16-5.9,23.6
	c-3.3,8.1-7.7,15.7-13.3,22.4c-6.3,7.5-13.5,13.9-21.9,19.1c-6,3.7-12.3,6.6-19,8.7c-4.6,1.5-9.5,2.5-14.3,3.1
	c-6.3,0.7-12.7,1-19,0.7c-5.3-0.3-10.8-1.2-15.9-2.7c-5.8-1.7-11.4-4-16.9-6.6c-5.9-2.7-11.2-6.4-16.2-10.7
	c-1.8-1.6-3.8-3.1-5.5-4.8c-8.7-9-15.7-19.2-20.1-31c-2.3-6.2-4.1-12.5-4.8-19.1c-0.3-2.9-0.5-5.8-0.6-8.9c2.2,0.8,4.2,1.8,6.2,2.9
	c0.1,0.3,0.2,0.5,0.3,0.8c0.5,3.8,1,7.4,1.6,11.1c0.1,0.2,0.2,0.2,0.3,0.3c0,0,0,0,0,0.2c1.2,4.1,2.5,8.1,3.8,12.2
	c0.1,0.2,0.2,0.2,0.3,0.3c0,0,0,0,0,0.1c0.5,1.4,0.9,2.7,1.5,3.9c4.9,9.9,11.3,18.7,19.7,26c6.5,5.6,13.7,10.1,21.6,13.5
	c8.4,3.6,17.2,5.7,26.2,6.2c11.4,0.7,22.4-1,33.2-4.9c11.2-4.1,21.1-10.5,29.3-19.1c4.2-4.4,7.9-9.3,11.2-14.5
	c8-12.6,11.7-26.5,12-41.3c0-2.5-0.2-5.1-0.2-7.6C491.9,428.6,493.9,427.9,496,427.6z"/>
<path class="st4" d="M326.4,60.8c2.7-8.4,6.4-16.2,11.5-23.4c2.4-3.4,5.2-6.4,7.9-9.6c4.5-5.4,10-9.6,15.7-13.5
	c8.2-5.6,17.3-9.4,26.9-11.9c9.2-2.4,18.7-2.8,28.1-2.2c9.9,0.7,19.3,3.2,28.4,7.3c7,3.1,13.5,7,19.3,11.9
	c4.7,3.9,8.7,8.6,12.9,13.1c5.3,5.8,8.9,12.6,12.1,19.7c2.7,6,4.4,12.3,5.7,18.7c1.3,6.7,1.7,13.4,1.4,20.1
	c-0.4,7.9-1.6,15.6-4.6,23.2c-2.3,0.3-4.4,0.4-6.5,0.4c0-0.3,0-0.4,0.1-0.5c4.6-13,6-26.4,3.7-40c-3.5-20.6-13.4-37.3-29.7-50.4
	c-12.9-10.4-27.9-16-44.4-17.2c-10.3-0.7-20.4,0.5-30.2,3.7c-19.1,6.4-33.9,18.1-44.4,35.3c-2,3.4-3.4,7.1-5.1,10.7c0,0,0,0-0.1,0.1
	c-0.2,0.1-0.2,0.2-0.4,0.4c-0.2,0.1-0.2,0.2-0.4,0.3c-0.9,0.4-1.6,0.7-2.3,1C330.1,59,328.2,59.9,326.4,60.8z"/>
<path class="st5" d="M236.6,369.6c-7.5-4-14.9-8.1-22.4-12.1c-1.6-0.9-3.3-1.8-5-2.9c-0.4-1.4-1-1.6-2-0.9c-0.2-0.1-0.4-0.1-0.6-0.4
	c0.1-1,0.3-1.7,0.3-2.4c0-13.6,0-27.2,0-40.8c0-3.4,0-6.8,0-10.2c0-1.1,0.1-2,1.5-2c0,0,0,0,0,0.1c0.5,0.3,1,0.4,1.5,0.6
	c4.2,2.2,8.4,4.3,12.6,6.6c4.6,2.4,9.1,4.9,13.7,7.6c-0.1,1.2-0.3,2.2-0.3,3.2c0,15.7,0,31.3,0,47
	C235.9,365.1,236.4,367.3,236.6,369.6z"/>
<path class="st6" d="M288.8,123.5c-2.2,3.6-1.1,7.7-1.2,11.5c-0.1,13.9-0.1,27.9,0,41.8c0,2.9,0.4,3.1,2.9,1.8
	c0.4-0.2,0.9-0.2,1.5-0.2c-3.9,2.3-7.8,4.5-11.8,6.7c-6.1,3.3-12.2,6.5-18.5,9.7c-0.4-0.8-0.9-1.7-0.9-2.6c0-16.9,0-33.7,0-50.6
	c0-0.9,0.2-1.8,0.3-2.9C270.3,133.5,279.5,128.5,288.8,123.5z"/>
<path class="st0" d="M236.7,369.6c-0.4-2.3-0.8-4.5-0.8-6.8c-0.1-15.6,0-31.3,0-47c0-1,0.2-2,0.3-3.1c6.9,3.5,13.7,7.2,20.5,10.9
	c1.8,1,3.6,1.9,5.4,3.1c-0.1,1.1-0.3,2-0.3,2.8c0,17.8,0,35.6,0,53.4c-4.3-2.2-8.6-4.4-12.8-6.7C245,374.2,240.9,371.9,236.7,369.6z
	"/>
<path class="st6" d="M262,383.2c-0.1-17.9-0.1-35.7,0-53.5c0-0.9,0.2-1.7,0.3-2.7c4.5,2.2,9,4.5,13.5,6.8c3.8,2,7.6,4.1,11.5,6.3
	c-0.1,0.9-0.3,1.7-0.3,2.5c0,17.1,0,34.1,0,51.2c0,0.9,0.2,1.8,0.3,2.9c-6.1-3.1-12.3-6.3-18.4-9.6
	C266.5,385.8,264.3,384.6,262,383.2z"/>
<path class="st7" d="M208.3,297.7c-1.4,0.1-1.5,1-1.5,2.1c0,3.4,0,6.8,0,10.2c0,13.6,0,27.2,0,40.8c0,0.7-0.1,1.5-0.3,2.3
	c-3.8-1.8-7.5-3.7-11.1-5.6c-4.8-2.6-9.7-5.2-14.5-8c0-1.5-0.1-2.8-0.1-4.1c0-6.5-0.1-13,0-19.5c0-1.8,0.5-3.7,1.1-5.4
	c2.7-7.6,5.4-15.1,8.2-22.7C196.2,291.1,202.2,294.3,208.3,297.7z"/>
<path class="st8" d="M496,427.5c-2,0.4-4.1,1.1-6.2-0.3c-0.9-7.3-2.3-14.2-4.8-20.9c-3.6-9.7-8.8-18.4-15.8-26
	c-5.9-6.5-12.7-12-20.4-16.3c-6-3.4-12.4-6-19.1-7.7c-9.2-2.3-18.5-3.3-27.9-2.2c-2.7,0.3-5.4,0.9-8.3,1.4
	c-4.3,1.1-8.4,2.3-12.6,3.4c-3.4,1.6-6.7,3.2-10.1,4.7c-0.5,0.1-0.9,0.3-1.4,0.3c-1.9-1.3-3.7-2.4-5.6-3.6c0.9-0.6,1.7-1.3,2.6-1.8
	c8.4-4.6,17.3-8,26.8-9.7c7.1-1.3,14.2-1.8,21.4-1.4c6.4,0.3,12.7,1.5,18.9,3.3c9.5,2.8,18.3,7,26.3,12.7c6.3,4.5,12,9.8,16.9,16
	c4.6,5.7,8.5,11.9,11.6,18.5c2.7,5.8,4.8,11.8,6,18.1C495.1,419.6,495.4,423.5,496,427.5z"/>
<path class="st9" d="M1.4,275.9c-0.4-1.8-0.7-3.5-1-5.5c0-0.4,0-0.6,0-0.8c-0.1-3.1-0.4-6.3-0.4-9.4c-0.1-6.4,0.8-12.6,2.1-18.8
	c1.6-7.3,4.2-14.3,7.6-20.9c2.8-5.5,6.3-10.5,10.2-15.3c6.1-7.5,13.3-13.8,21.5-18.7c5.2-3.1,11-5.5,16.6-7.8c6-2.5,12.4-3.8,19-4.3
	c4.2-0.3,8.4-0.8,12.7-0.7c6.8,0.2,13.5,1.1,20.1,3.1c0.5,0.1,0.9,0.2,1.3,0.5c-2.2,1.2-4.3,2.3-6.4,3.5c-0.4,0.2-0.6,0.7-1,1.1
	c-0.5,0-0.9,0-1.4-0.1c-9.8-1.9-19.5-2-29.2-0.3c-16,2.8-29.9,9.9-41.7,21c-9,8.5-15.7,18.7-19.9,30.3c-2.6,7.1-4.4,14.4-4.7,22.1
	c-0.1,4.3,0,8.6-0.2,13c-0.7,0.1-1.4,0.4-2,0.3c-1.8-0.1-2.4,0.8-2.3,2.5c0.1,1.3,0.1,2.6,0,3.9C2.1,274.9,1.7,275.4,1.4,275.9z"/>
<path class="st10" d="M485.1,114.8c2.1-0.1,4.2-0.2,6.5-0.4c-1.4,6.1-4.3,11.7-7.4,17.1c-4.1,6.9-9,13.1-14.9,18.6
	c-4.9,4.6-10.2,8.6-16,12c-7.8,4.6-16.1,7.8-24.9,9.8c-3.7,0.8-7.5,1.3-11.3,1.6c-3.8,0.3-7.6,0.5-11.4,0.4
	c-6.8-0.2-13.5-1.2-20-3.3c-4.1-1.3-8-2.8-12-4.4c2.2-1.4,4.4-2.6,6.7-3.9c0.3,0,0.5,0,0.8,0.1c4.2,1.2,8.3,2.3,12.6,3.4
	c7.2,1.5,14.3,2.3,21.5,1.4c5.2-0.7,10.4-1.3,15.5-2.6c9.4-2.3,17.9-6.6,25.7-12.2c9.3-6.7,17-15,22.6-25
	C481.3,123.3,483.1,119,485.1,114.8z"/>
<path class="st11" d="M190.3,176.6c0.1,17.3,0.1,34.7,0.2,52.1c0,1.3,0.4,2.5,0.7,3.9c-1.9,1.2-3.8,2.3-5.8,3.2
	c-1.6-6.8-4-13-6.9-19.1c-3.5-7.4-8-14.3-13.1-20.8c-1.1-1.4-1.9-3-2.8-4.4C171.8,186.5,181,181.6,190.3,176.6z"/>
<path class="st10" d="M122.4,339.9c-4.8,1.7-9.6,3.8-14.5,5.1c-5,1.2-10.3,1.9-15.4,2.3c-4.6,0.4-9.2,0.4-13.8,0
	c-8.6-0.8-17-2.9-25-6.2c-6.9-2.9-13.5-6.5-19.4-11.1c-4.3-3.4-8.1-7.5-12-11.4c1.2-0.2,2.4-0.4,3.5-0.1c1.8,0.4,2.9,0,3.3-1.6
	c2.6,2.3,5,4.6,7.6,6.7c8,6.5,17,11.1,26.9,14.2c9.8,3.1,19.8,3.8,30,3.2c2.9-0.2,5.8-0.9,8.9-1.4c4.4-1.1,8.6-2.3,13-3.4
	C117.9,337.4,120.2,338.6,122.4,339.9z"/>
<path class="st12" d="M148.4,198.9c2.9-1.5,5.8-3,8.8-4.4c1.2,1.3,2.3,2.4,3.2,3.6c4.3,5.5,8.5,11.1,11.4,17.6
	c3.2,7.5,6.3,15,8.6,22.9c-2.6,1.5-5.3,3-8.1,4.5c-0.3,0-0.4,0-0.4-0.1c-3.1-14.9-9.6-28-19.6-39.4
	C151,202.1,149.7,200.5,148.4,198.9z"/>
<path class="st12" d="M172.3,278.1c1.7,0.9,3.4,1.8,5.2,3c2.3,2.1,1.9,4.3,1,6.6c-1.1,2.9-2,5.9-3.1,8.7c-1.2,3-2.9,5.8-3.7,8.9
	c-0.8,3.4-2.6,6.1-4.5,8.8c-3.1,4.4-6.5,8.5-9.8,12.8c-2.9-1.5-5.8-3-8.8-4.7c-0.1-0.3-0.1-0.4,0-0.7c12.2-12.2,19.9-26.7,23.4-43.5
	C172.1,278.1,172.2,278.1,172.3,278.1z"/>
<path class="st11" d="M190,287.8c-2.6,7.6-5.4,15.2-8.1,22.8c-0.6,1.7-1,3.6-1.1,5.4c-0.1,6.5-0.1,13,0,19.5c0,1.3,0.1,2.6,0,3.9
	c-6.2-3.2-12.4-6.4-18.6-9.9c2-2.9,4.2-5.4,6-8.2c3.1-4.7,6.1-9.5,8.8-14.3c3.8-6.8,6.5-14.1,8.1-21.8
	C186.8,286.1,188.3,286.9,190,287.8z"/>
<path class="st13" d="M328.9,440c-2-1-4-2-6.1-3c-0.5-6.8,0-13.5,1.4-20.4c0.3-0.8,0.5-1.3,0.6-1.8c3.1-13.7,9.2-25.8,18.3-36.5
	c1.6-1.9,3.2-3.7,4.8-5.6c0.1,0,0.1,0,0.3,0c1.9,1.2,3.6,2.2,5.2,3.4c-12.1,12.4-20.2,26.8-23.4,43.9c-0.4,3.4-0.7,6.6-1.1,10.1
	C328.9,433.5,328.9,436.7,328.9,440z"/>
<path class="st14" d="M148.3,198.9c1.4,1.6,2.6,3.2,4,4.7c10,11.3,16.4,24.5,19.6,39.5c0,0.3,0,0.4,0,0.5c0,0,0,0-0.1,0
	c-0.7,0.3-1.3,0.5-2,0.8c-1.2,0.5-2.3,1-3.6,1.5c-0.2,0-0.2,0-0.3-0.2c-0.1-0.6-0.1-1.1-0.2-1.6c-2.1-9.8-5.8-19-11.4-27.4
	c-3.4-5.1-7.1-9.9-11.9-14.1c-2.5-2.1-4.9-4.2-7.4-6.3c0-0.1,0-0.3,0.1-0.3c2.2-1,4.2-2,6.3-2.9
	C143.7,194.9,145.9,196.8,148.3,198.9z"/>
<path class="st4" d="M29,316.8c-0.3,1.6-1.4,2.1-3.2,1.6c-1.1-0.3-2.3-0.1-3.6,0c-0.1,0.1-0.2,0.1-0.3-0.1c-0.2-0.2-0.3-0.3-0.4-0.4
	c-1.9-2.4-4-4.7-5.8-7.2c-5.4-7.7-9.5-16-12.1-25c-0.9-3.1-1.5-6.3-2.2-9.6c0.2-0.6,0.7-1.1,0.7-1.6c0.1-1.3,0.1-2.6,0-3.9
	c-0.1-1.7,0.5-2.6,2.3-2.5c0.6,0,1.2-0.2,2-0.2c0.3,0.9,0.4,1.7,0.5,2.5c0.9,9,3.6,17.5,7.5,25.6C18.3,303.7,23.2,310.6,29,316.8z"
	/>
<path class="st14" d="M348.2,148.7c-0.1,0-0.1,0-0.3-0.2c-1.8-2-3.5-3.9-5.1-5.8c-7.7-9.1-13.2-19.4-16.6-30.9
	c-0.7-2.4-1.4-4.9-2.1-7.3c0-0.1-0.1-0.2,0.2-0.4c2-0.8,3.9-1.6,5.8-2.2c0.1,0.3,0.2,0.5,0.2,0.7c2,9.9,5.4,19.3,11.2,27.7
	c3.7,5.3,7.9,10.1,11.8,15.1C351.6,146.5,349.9,147.6,348.2,148.7z"/>
<path class="st15" d="M185.2,285.2c-1.5,7.7-4.2,15-8,21.8c-2.8,4.9-5.7,9.7-8.8,14.3c-1.8,2.8-4,5.3-6.1,8
	c-1.6-0.7-3.2-1.5-4.8-2.4c3.2-4.4,6.7-8.5,9.8-12.9c1.9-2.7,3.7-5.4,4.5-8.8c0.8-3.1,2.5-5.9,3.7-8.9c1.1-2.9,2-5.8,3.1-8.7
	c0.9-2.3,1.2-4.5-1-6.5C180,282.4,182.5,283.8,185.2,285.2z"/>
<path class="st15" d="M180.6,238.6c-2.4-7.8-5.4-15.4-8.7-22.9c-2.8-6.6-7-12.1-11.4-17.6c-1-1.2-2-2.3-3.1-3.6c1.6-1.1,3.3-2,5-3
	c1.1,1.5,1.9,3.1,3,4.4c5.1,6.5,9.6,13.4,13.1,20.8c2.9,6.1,5.3,12.4,6.7,19.1C183.7,236.9,182.2,237.7,180.6,238.6z"/>
<path class="st5" d="M334.2,155.7c-2-2.4-3.8-4.8-5.6-7.2c-8.3-10.7-13.9-22.6-17.5-35.6c-0.1-0.3-0.1-0.6-0.1-1.1
	c1.4-1,2.8-1.8,4.3-2.5c2.5,10.7,6.7,20.5,12.6,29.5c3.3,5,7.3,9.5,11,14.2C337.4,154,335.9,154.8,334.2,155.7z"/>
<path class="st5" d="M311.1,409.6c1.3-4.4,2.4-8.7,3.9-12.8c3.8-10,9.4-19,16.1-27.3c1-1.2,2-2.5,3-3.9c1.6,0.7,3.2,1.4,4.7,2.5
	c-2.1,2.7-4.3,5.1-6.3,7.6c-5.3,6.7-9.5,14.1-12.6,22c-1.8,4.6-3,9.5-4.5,14.3C314,411.2,312.6,410.5,311.1,409.6z"/>
<path class="st16" d="M315.6,412c1.4-4.8,2.5-9.7,4.4-14.4c3.2-7.9,7.3-15.3,12.6-22c2-2.5,4.2-4.9,6.3-7.4c1.6,0.7,3.2,1.5,4.7,2.4
	c-0.7,0.7-1.5,1.2-2,1.8c-4.8,5.5-9.1,11.3-12.6,17.7c-4.2,7.7-7.3,15.7-9.1,24.3C318.5,413.6,317.1,412.8,315.6,412z"/>
<path class="st16" d="M339.1,153.1c-3.8-4.7-7.8-9.2-11.1-14.2c-5.9-9-10.2-18.8-12.5-29.5c1.4-0.9,2.8-1.7,4.3-2.3
	c1.6,7.1,4.1,13.8,7.2,20.2c3.3,6.8,7.4,13.1,12.4,18.9c1.3,1.6,3,2.9,4.5,4.3C342.3,151.4,340.7,152.2,339.1,153.1z"/>
<path class="st12" d="M343.9,150.5c-1.6-1.4-3.3-2.7-4.6-4.3c-4.9-5.8-9.1-12.1-12.4-18.9c-3.1-6.4-5.5-13.1-7-20.3
	c1.3-0.9,2.6-1.7,4.1-2.5c0.8,2.3,1.5,4.8,2.2,7.2c3.4,11.4,8.9,21.7,16.6,30.9c1.6,1.9,3.3,3.8,5,5.8
	C346.6,149.2,345.3,149.8,343.9,150.5z"/>
<path class="st12" d="M320,414.4c1.7-8.7,4.8-16.7,9-24.4c3.5-6.4,7.8-12.2,12.6-17.7c0.6-0.6,1.3-1.1,2.1-1.7
	c1.4,0.6,2.7,1.2,4,1.8c-1.5,1.9-3.1,3.8-4.7,5.7c-9.1,10.7-15.2,22.9-18.3,36.5c-0.1,0.5-0.3,1.1-0.6,1.7
	C322.7,415.9,321.4,415.2,320,414.4z"/>
<path class="st17" d="M148.4,321.6c0,0.2,0,0.3,0,0.6c-4.6,3.8-9.1,7.8-13.9,11.2c-3.7,2.5-7.8,4.3-11.9,6.5
	c-2.4-1.2-4.7-2.5-7.1-3.8c-0.1-0.1-0.1-0.3,0-0.3c3.5-1.6,6.9-3.2,10.4-4.8c3.2-2,6.2-4,9.3-6c2.5-2,4.9-4,7.4-5.9
	C144.7,319.9,146.5,320.8,148.4,321.6z"/>
<path class="st17" d="M348.3,148.8c1.6-1.2,3.3-2.3,5.2-3.4c0.4,0,0.5,0,0.8,0.1c2.5,2.1,4.9,4.2,7.4,6.3c3.1,2,6.2,3.9,9.3,5.9
	c3.1,1.6,6.2,3.1,9.2,4.6c-2.2,1.2-4.3,2.5-6.6,3.8c-3.4-1.7-6.8-3.3-10-5.2C357.9,157.7,352.9,153.5,348.3,148.8z"/>
<path class="st17" d="M166.3,245.7c1.2-0.5,2.3-1,3.5-1.5c0.6-0.3,1.2-0.5,2-0.7c0.7,3.5,1.6,6.9,1.9,10.5c0.3,4.4,0.2,8.9,0,13.4
	c-0.1,3-0.7,5.9-1.1,8.8c-0.1,0.4-0.5,0.8-0.7,1.4c0,0.2,0,0.2-0.2,0.2c-1.9-0.8-3.6-1.5-5.4-2.4c0.4-4.6,1-9,1-13.4
	C167.3,256.5,166.7,251.1,166.3,245.7z"/>
<path class="st17" d="M330,101.7c-1.8,0.8-3.7,1.5-5.7,2.3c-0.2,0-0.1,0-0.1-0.1c0.1-0.2,0-0.3-0.1-0.4c-0.4-2.1-1-4.2-1.1-6.4
	c-0.3-4.4-0.4-8.8-0.4-13.2c0-3.6,0.5-7.2,1-10.8c0.8-0.4,1.3-0.7,1.9-0.9c1.6-0.7,3.2-1.4,4.9-2c-0.4,3.5-0.8,6.9-1.2,10.4
	c-0.1,3.6-0.2,7.1-0.3,10.8c0.4,3.3,0.7,6.4,1.1,9.6C330,101.4,330,101.6,330,101.7z"/>
<path class="st17" d="M141.4,192.8c-2,1.1-4,2-6.3,3c-0.7-0.3-1.1-0.6-1.6-0.9c-2.6-1.5-5.1-3.1-7.8-4.7c-3.5-1.6-6.9-3.2-10.3-4.8
	c0-0.1,0-0.3,0.1-0.3c2.4-1.3,4.7-2.5,7-3.8c5.3,1.8,9.8,4.9,14.4,8C138.4,190.3,139.8,191.5,141.4,192.8z"/>
<path class="st17" d="M353.4,376c-1.7-1.1-3.4-2.1-5.2-3.3c4.4-5,9.6-8.9,15.4-12.4c2,1.1,3.8,2.3,5.6,3.7c-2.6,2-5.2,3.8-7.9,5.6
	c-2.5,2.1-4.9,4.2-7.4,6.3C353.8,375.9,353.6,375.9,353.4,376z"/>
<path class="st10" d="M330.4,70.1c-1.6,0.7-3.2,1.4-4.9,2.1c-0.6,0.2-1.1,0.5-1.8,0.8c0.8-4,1.6-8,2.6-12.1c1.9-1,3.8-1.9,5.7-2.8
	c0.7-0.3,1.5-0.7,2.3-0.9c-1,4-2.1,7.8-3.2,11.7c0,0,0,0-0.1,0.1c-0.2,0.1-0.2,0.2-0.3,0.4C330.6,69.7,330.5,69.9,330.4,70.1z"/>
<path class="st4" d="M122.4,181.2c-2.2,1.4-4.5,2.6-7,3.9c-4-1.1-7.8-2.3-11.5-3.4c0.3-0.4,0.5-0.9,0.9-1.1c2.1-1.1,4.2-2.2,6.5-3.3
	c2.8,0.8,5.4,1.6,8,2.5C120.2,180.2,121.3,180.7,122.4,181.2z"/>
<path class="st7" d="M207.3,353.8c0.9-0.8,1.6-0.6,1.8,0.8C208.5,354.4,207.9,354.2,207.3,353.8z"/>
<path class="st7" d="M209.8,298.4c-0.4,0-0.9-0.2-1.4-0.5C208.8,298,209.3,298.1,209.8,298.4z"/>
<path class="st4" d="M0.4,269.7c0.1,0.1,0.1,0.3,0.1,0.6C0.4,270.1,0.4,270,0.4,269.7z"/>
<path class="st10" d="M21.6,318c0.1,0,0.2,0.1,0.4,0.3C21.9,318.3,21.7,318.2,21.6,318z"/>
<path class="st17" d="M172.2,278c0,0.1-0.1,0.1-0.3,0c-0.1-0.1-0.1-0.2-0.1-0.3c0,0,0,0,0,0C172,277.8,172.1,277.8,172.2,278z"/>
<path class="st17" d="M172,243.5c-0.1,0-0.1-0.1-0.1-0.3c0.1-0.1,0.1-0.1,0.3-0.1C172.2,243.3,172.2,243.4,172,243.5z"/>
<path class="st14" d="M324.1,103.7c0.1,0,0.1,0.1,0.1,0.3C324.1,104,324,103.9,324.1,103.7z"/>
<path class="st18" d="M393.6,355.5c2.7-0.5,5.4-1.1,8.2-1.4c9.4-1.1,18.8,0,27.9,2.2c6.7,1.7,13,4.3,19.1,7.7
	c7.7,4.3,14.5,9.8,20.4,16.3c6.9,7.6,12.2,16.4,15.8,26c2.5,6.7,4,13.6,4.7,20.9c0.1,2.7,0.4,5.2,0.3,7.7c-0.3,14.9-4,28.8-12,41.3
	c-3.3,5.1-7,10.1-11.2,14.5c-8.3,8.5-18.1,14.9-29.3,19.1c-10.7,3.9-21.8,5.6-33.2,4.9c-9-0.6-17.8-2.6-26.2-6.2
	c-7.9-3.4-15.1-7.9-21.6-13.5c-8.4-7.3-14.9-16-19.7-26c-0.6-1.2-1-2.5-1.4-3.9c0.6,0.1,1.2,0.3,1.7,0.6c5.2,2.8,10.3,5.7,15.5,8.5
	c9.5,5.1,19,10.1,28.5,15.2c8,4.4,16.5,6.9,25.6,7.6c8.2,0.6,16.3-0.7,24-3.8c8.7-3.5,16.2-8.8,22.6-15.7c5.8-6.2,10.2-13.2,13.5-21
	c4.4-10.4,6-21.1,4.6-32.3c-0.9-7.1-3.1-13.8-6.7-20.1c-4.9-8.6-11.6-15.6-20-20.8c-7.3-4.5-15-8.4-22.6-12.5
	c-5.6-3.1-11.2-6.1-16.8-9.1C401.4,359.5,397.5,357.5,393.6,355.5z"/>
<path class="st19" d="M393.4,355.5c4.1,2,8,4,11.8,6.1c5.6,3,11.2,6.1,16.8,9.1c7.5,4.1,15.3,8,22.6,12.5c8.3,5.2,15,12.2,20,20.8
	c3.6,6.3,5.8,13,6.7,20.1c1.4,11.2-0.3,21.9-4.6,32.3c-3.3,7.8-7.7,14.7-13.5,21c-6.4,6.9-13.9,12.2-22.6,15.7
	c-7.7,3.1-15.7,4.3-24,3.8c-9.1-0.6-17.6-3.2-25.6-7.6c-9.5-5.1-19-10.1-28.5-15.2c-5.2-2.8-10.3-5.6-15.5-8.5
	c-0.5-0.3-1-0.5-1.7-0.7c-0.1,0-0.1,0-0.2-0.1c-0.1-0.2-0.2-0.2-0.3-0.3c-1.2-4-2.5-8-3.6-12.1c1,0.2,1.8,0.6,2.7,1
	c8.2,4.4,16.5,8.8,24.7,13.3c5.9,3.2,11.7,6.4,17.6,9.5c6.4,3.4,12.6,7.2,19.6,9.2c9.8,2.8,19.5,3,29.2-0.3
	c8.3-2.8,15.6-7.3,21.3-14c3.2-3.7,6.4-7.6,8.8-11.9c6.1-11,8.7-22.8,6.6-35.4c-1.6-9.4-5.7-17.5-12.1-24.4
	c-5.1-5.5-11.3-9.5-17.9-13c-12.8-6.7-25.4-13.6-38.1-20.5c-4.2-2.3-8.4-4.7-12.6-7C385.1,357.7,389.2,356.6,393.4,355.5z"/>
<path class="st20" d="M380.8,358.9c4.3,2.3,8.5,4.7,12.8,7c12.7,6.9,25.3,13.8,38.1,20.5c6.6,3.5,12.8,7.5,17.9,13
	c6.4,6.9,10.5,15,12.1,24.4c2.1,12.6-0.5,24.4-6.6,35.4c-2.4,4.3-5.6,8.1-8.8,11.9c-5.7,6.7-13,11.2-21.3,14
	c-9.7,3.3-19.4,3.1-29.2,0.3c-7-2-13.2-5.8-19.6-9.2c-5.9-3.1-11.7-6.4-17.6-9.5c-8.2-4.4-16.5-8.9-24.7-13.3
	c-0.8-0.4-1.7-0.8-2.7-1.2c-0.1,0-0.1,0-0.2-0.1c-0.1-0.2-0.2-0.2-0.3-0.3c-0.5-3.6-1-7.2-1.4-11c3.3,1.5,6.5,3,9.6,4.7
	c10.9,5.8,21.7,11.7,32.5,17.5c5.3,2.8,10.6,5.6,15.9,8.5c8,4.5,16.5,7.1,25.9,6.3c7.3-0.6,13.9-3,19.8-7.2
	c7.4-5.3,12.9-12.2,16.4-20.6c3.1-7.5,4.5-15.3,3.3-23.4c-1.9-13-9.1-22.5-20.1-29.1c-10.3-6.1-20.9-11.5-31.5-17.1
	c-9-4.8-18-9.6-27-14.5c-1.2-0.6-2.1-1.6-3.2-2.3C374.2,362.1,377.4,360.5,380.8,358.9z"/>
<path class="st21" d="M370.8,363.6c1.2,0.8,2.2,1.7,3.3,2.3c9,4.9,18,9.6,27,14.5c10.5,5.7,21.2,11.1,31.5,17.1
	c11,6.5,18.2,16.1,20.1,29.1c1.2,8.1-0.2,15.9-3.3,23.4c-3.5,8.5-9.1,15.3-16.4,20.6c-5.9,4.3-12.5,6.6-19.8,7.2
	c-9.4,0.8-17.8-1.8-25.9-6.3c-5.2-2.9-10.6-5.7-15.9-8.5c-10.8-5.8-21.7-11.7-32.5-17.5c-3.1-1.7-6.3-3.2-9.6-4.8
	c-0.2-0.2-0.3-0.4-0.5-0.7c0-3.3,0-6.6,0.1-10c0.8,0.1,1.4,0.4,2,0.7c8.7,4.6,17.4,9.3,26,13.9c4.9,2.6,9.8,5.3,14.7,7.9
	c8.6,4.6,17.1,9.3,25.8,13.6c5.3,2.6,11.2,2.9,17.1,2.1c7.4-1.1,13.5-4.7,18.5-10.1c7.5-8,11.3-17.4,10.3-28.5
	c-0.9-9.7-5.4-17.4-13.5-22.6c-7.2-4.6-14.9-8.6-22.5-12.7c-12.2-6.6-24.6-13.2-36.8-19.8c-3-1.6-6-3.4-9-5.1
	c2.6-1.8,5.1-3.6,7.8-5.5C369.8,363.9,370.3,363.8,370.8,363.6z"/>
<path class="st18" d="M334.9,464.6c0.1,0,0.2,0.1,0.3,0.2C335.1,464.8,335,464.7,334.9,464.6z"/>
<path class="st19" d="M330.8,451.9c0.1,0,0.2,0.1,0.3,0.2C331,452.2,330.9,452.1,330.8,451.9z"/>
<path class="st18" d="M485.2,114.6c-2.1,4.4-3.9,8.7-6.2,12.8c-5.6,10-13.3,18.3-22.6,25c-7.8,5.6-16.3,9.9-25.7,12.2
	c-5.1,1.3-10.3,1.9-15.5,2.6c-7.2,1-14.3,0.1-21.3-1.4c0.3-0.2,0.5-0.3,0.7-0.4c13.4-7.3,26.8-14.7,40.4-21.8
	c8.1-4.2,15.5-9.1,21.8-15.8c6.1-6.6,10.4-14.2,12.8-22.7c1.7-6,2.2-12.2,2-18.5c-0.3-9.1-2.7-17.7-6.6-25.9
	c-4.3-9.1-10.4-16.8-18.1-23.3c-6.3-5.3-13.4-9.1-21.3-11.3c-7.3-2-14.8-2.6-22.4-1.5c-7.8,1.1-15,3.5-21.9,7.1
	c-7.3,3.9-14.5,7.8-21.7,11.7c-6.1,3.3-12.2,6.6-18.3,9.9c-2,1-4,2-6,2.9c1.7-3.6,3.1-7.3,5.1-10.7c10.4-17.2,25.3-29,44.4-35.3
	c9.8-3.3,20-4.5,30.2-3.7c16.5,1.2,31.4,6.8,44.4,17.2c16.2,13,26.2,29.8,29.7,50.4c2.3,13.7,1,27-3.7,40
	C485.2,114.2,485.2,114.4,485.2,114.6z"/>
<path class="st19" d="M335.2,56.3c2-1,4-1.9,6-3c6.1-3.3,12.2-6.6,18.3-9.9c7.2-3.9,14.5-7.8,21.7-11.7c6.9-3.6,14.2-6,21.9-7.1
	c7.6-1.1,15-0.5,22.4,1.5c7.9,2.2,15,6,21.3,11.3c7.7,6.5,13.8,14.2,18.1,23.3c3.9,8.2,6.3,16.7,6.6,25.9c0.2,6.3-0.3,12.5-2,18.5
	c-2.4,8.6-6.7,16.2-12.8,22.7c-6.3,6.7-13.7,11.6-21.8,15.8c-13.5,7.1-26.9,14.5-40.4,21.8c-0.2,0.1-0.5,0.2-0.8,0.3
	c-4.2-1.1-8.4-2.2-12.5-3.4c1.9-1.2,3.8-2.2,5.7-3.3c12.6-6.8,25.3-13.6,37.9-20.5c5.7-3.1,11.5-6.4,16.9-10
	c6.5-4.3,11.4-10.2,15.1-17c5-9.3,6.1-19.2,4.9-29.5c-1-8.4-3.9-16.1-8.4-23.2c-4.8-7.6-10.9-13.9-18.7-18.5
	c-6.3-3.8-13.2-6.1-20.5-6.6c-10-0.8-19.5,1.4-28.3,6.1c-6.2,3.2-12.3,6.6-18.5,9.9c-9.4,5-18.7,10.1-28.1,15.1
	c-2.7,1.5-5.5,2.7-8.3,4.1c1.1-3.9,2.2-7.7,3.4-11.7c0.1-0.2,0.2-0.3,0.4-0.5C335.1,56.5,335.1,56.5,335.2,56.3
	C335.2,56.3,335.2,56.3,335.2,56.3z"/>
<path class="st18" d="M335.1,56.4c0,0.1,0,0.2-0.2,0.3C334.9,56.6,334.9,56.5,335.1,56.4z"/>
<path class="st22" d="M29.1,316.8c-6-6.3-10.8-13.2-14.6-20.8c-4-8.1-6.6-16.6-7.5-25.6c-0.1-0.8-0.2-1.6-0.4-2.5
	c0-4.5-0.1-8.8,0-13.1c0.3-7.6,2.1-14.9,4.7-22.1c4.3-11.6,10.9-21.8,19.9-30.3c11.8-11.1,25.6-18.2,41.7-21
	c9.7-1.7,19.4-1.6,29.1,0.4c-4,2.4-8,4.5-12.1,6.7c-10.5,5.7-21,11.5-31.5,17c-11.4,6-20.4,14.4-26.4,25.8c-6.9,13.2-9,27.2-6,41.8
	c3.9,18.7,14.4,32.8,31.1,42c11.9,6.6,24,12.9,36,19.4c3,1.6,6,3.4,9,5.1c-2.9,0.5-5.8,1.2-8.7,1.4c-10.2,0.6-20.2-0.1-30-3.2
	c-9.8-3.1-18.9-7.7-26.9-14.2C34.1,321.4,31.7,319.1,29.1,316.8z"/>
<path class="st23" d="M102.5,339.5c-3.2-1.7-6.2-3.4-9.2-5.1c-12-6.5-24.1-12.7-36-19.4c-16.7-9.3-27.2-23.3-31.1-42
	c-3-14.6-0.9-28.6,6-41.8c6-11.4,15-19.8,26.4-25.8c10.6-5.6,21-11.4,31.5-17c4-2.2,8.1-4.4,12.2-6.6c0.5-0.1,0.9-0.1,1.4-0.1
	c3.9,1.1,7.7,2.2,11.5,3.4c0.1,0,0.2,0.2,0,0.3c-2.1,1.2-4.2,2.3-6.2,3.4c-14.5,7.8-28.9,15.6-43.4,23.3c-7.7,4.1-14.8,9-20.3,15.9
	c-7,8.8-10.5,19-11.2,30.1c-0.4,7.4,0.9,14.5,3.5,21.5c4.1,11.1,11.4,19.7,21.4,25.8c6.4,3.9,13.2,7.2,19.8,10.7
	c12.2,6.6,24.3,13.1,36.4,19.7c0,0,0,0.2,0,0.3C111.1,337.3,106.9,338.4,102.5,339.5z"/>
<path class="st20" d="M331.1,69c2.8-1.4,5.6-2.7,8.3-4.1c9.4-5,18.7-10.1,28.1-15.1c6.2-3.3,12.3-6.7,18.5-9.9
	c8.9-4.6,18.3-6.8,28.3-6.1c7.3,0.6,14.1,2.8,20.5,6.6c7.8,4.6,13.9,10.9,18.7,18.5c4.5,7.1,7.4,14.8,8.4,23.2
	c1.2,10.3,0.1,20.2-4.9,29.5c-3.7,6.9-8.6,12.8-15.1,17c-5.5,3.6-11.2,6.8-16.9,10c-12.6,6.9-25.3,13.7-37.9,20.5
	c-1.9,1-3.8,2.1-5.8,3.2c-0.3,0.1-0.4,0.1-0.7,0.1c-3.2-1.5-6.2-3.1-9.3-4.8c1.3-1.1,2.6-2,4-2.8c7.3-3.9,14.6-7.8,21.9-11.7
	c10.5-5.7,21-11.4,31.5-17c6.1-3.2,11.5-7.2,15.8-12.6c7.7-9.6,9.9-20.6,7.8-32.5c-2-11.4-7.5-20.8-16.3-28.3
	c-6.8-5.8-14.8-9.1-23.6-9.6c-8.4-0.5-16.3,1.9-23.7,5.9c-11.1,5.9-22.1,11.9-33.2,17.9c-5.4,2.9-10.9,6-16.3,8.9
	c-3.2,1.7-6.5,3.3-9.8,4.9c0.4-3.4,0.8-6.7,1.1-10.3c0.1-0.3,0.2-0.5,0.4-0.9C331,69.2,331.1,69.1,331.1,69
	C331.1,69,331.1,69,331.1,69z"/>
<path class="st14" d="M171.7,277.7c0.1,0.1,0.1,0.1,0.2,0.3c-3.4,16.9-11.2,31.3-23.3,43.5c-2-0.8-3.9-1.7-5.9-2.6
	c-0.1-0.1-0.1-0.3,0-0.4c9.4-8.8,16.1-19.3,20.3-31.3c1.3-3.8,2.1-7.8,3.2-11.8c0.2,0,0.2,0,0.3,0
	C168.1,276.2,169.8,277,171.7,277.7z"/>
<path class="st24" d="M353.4,376.1c0.2-0.1,0.4-0.1,0.7,0c4,2.2,7.7,4.3,11.5,6.4c6.9,3.7,13.7,7.4,20.6,11.1
	c10.9,5.9,21.8,11.8,32.7,17.6c3.9,2.1,7.6,4.4,10.3,8.1c4,5.4,5.7,11.6,4.8,18.2c-1,7.9-5.1,14.1-12,18.2c-6.9,4.1-14.2,4.9-21.7,2
	c-3.9-1.5-7.6-3.8-11.4-5.8c-6.9-3.6-13.7-7.3-20.6-11c-8.5-4.6-17.1-9.1-25.6-13.8c-4.3-2.3-8.5-4.8-12.8-7.1
	C333.2,402.8,341.2,388.4,353.4,376.1z"/>
<path class="st25" d="M330,420c4.3,2.2,8.5,4.7,12.8,7c8.5,4.6,17.1,9.2,25.6,13.8c6.8,3.7,13.7,7.4,20.6,11c3.8,2,7.4,4.3,11.4,5.8
	c7.5,2.9,14.8,2.2,21.7-2c6.9-4.1,11-10.3,12-18.2c0.9-6.6-0.8-12.8-4.8-18.2c-2.7-3.6-6.4-6-10.3-8.1
	c-10.9-5.8-21.8-11.7-32.7-17.6c-6.9-3.7-13.7-7.4-20.6-11.1c-3.8-2.1-7.6-4.2-11.4-6.4c2.3-2.2,4.7-4.3,7.2-6.4
	c3.1,1.7,6.1,3.4,9.2,5.1c12.3,6.6,24.6,13.1,36.8,19.8c7.6,4.1,15.2,8,22.5,12.7c8.1,5.2,12.6,12.9,13.5,22.6
	c1,11.1-2.8,20.5-10.3,28.5c-5.1,5.4-11.2,9-18.5,10.1c-5.9,0.8-11.7,0.5-17.1-2.1c-8.7-4.3-17.2-9-25.8-13.6
	c-4.9-2.6-9.8-5.3-14.7-7.9c-8.7-4.7-17.4-9.3-26-13.9c-0.6-0.3-1.2-0.6-2-0.9C329.3,426.6,329.6,423.4,330,420z"/>
<path class="st26" d="M165.9,275.5c-1,3.9-1.7,7.9-3.1,11.8c-4.1,12-10.8,22.5-20.4,31.3c-8.6-4.5-16.9-9-25.2-13.5
	c-12.5-6.7-25-13.3-37.5-20.1c-4-2.1-7.9-4.2-11.1-7.6c-7.8-8.1-8.8-22.3-1.9-31.3c3-4,7-6.7,11.4-9c11-5.8,21.9-11.8,32.9-17.7
	c5.6-3,11.1-6.1,16.6-9c5-2.7,10-5.2,14.9-7.9c4.7,4,8.5,8.8,11.8,13.9c5.6,8.4,9.3,17.6,11.4,27.4c0.1,0.5,0.1,1,0.2,1.7
	c-0.8,0.8-1.4,1.5-2.2,1.9c-5.8,3.1-11.6,6.2-17.3,9.3c-2.1,1.2-4.2,2.4-6.7,3.8c1.3,0.8,2.2,1.4,3.1,1.9
	c7.1,3.8,14.3,7.6,21.4,11.5C164.9,274.3,165.4,275,165.9,275.5z"/>
<path class="st27" d="M125.8,190.3c2.6,1.5,5.1,3,7.7,4.6c0.5,0.3,0.9,0.6,1.5,1c0.1,0.1,0.1,0.2,0,0.3c-3.4,1.8-6.7,3.6-10,5.3
	c-8.2,4.3-16.4,8.7-24.6,13.1c-9.2,4.9-18.4,9.9-27.6,14.9c-4.4,2.4-8.4,5.1-11.7,8.9c-5.3,6.1-7.8,13.3-8.2,21.2
	c-0.3,6.9,1.4,13.4,5.2,19.2c3,4.7,6.7,8.9,11.8,11.5c4.9,2.5,9.8,5,14.6,7.6c4.9,2.6,9.6,5.3,14.5,7.9c9.2,5,18.5,10,27.8,15
	c2.7,1.5,5.5,2.8,8.3,4.2c-3,2-6,3.9-9.3,5.8c-6.6-3.5-12.9-7-19.3-10.4c-12.8-6.8-25.5-13.7-38.3-20.5c-5.8-3.1-11-6.9-15.1-12
	c-6.2-7.7-9.2-16.5-9.5-26.2c-0.2-6.6,1.2-13,3.9-19.1c3.4-7.8,8.8-13.7,15.7-18.3c3.8-2.5,8-4.5,12-6.6
	c13.7-7.4,27.5-14.7,41.2-22.1C119.5,193.8,122.6,192,125.8,190.3z"/>
<path class="st28" d="M135.2,325c-2.9-1.4-5.7-2.7-8.4-4.1c-9.3-5-18.5-10-27.8-15c-4.8-2.6-9.6-5.4-14.5-7.9
	c-4.8-2.6-9.7-5.1-14.6-7.6c-5.2-2.6-8.8-6.8-11.8-11.5c-3.8-5.8-5.5-12.3-5.2-19.2c0.3-7.9,2.8-15.1,8.2-21.2
	c3.3-3.8,7.4-6.6,11.7-8.9c9.2-5,18.4-10,27.6-14.9c8.2-4.4,16.4-8.7,24.6-13.1c3.3-1.7,6.6-3.5,10-5.2c2.6,2,5,4.1,7.5,6.2
	c-4.9,2.7-9.9,5.3-14.9,8c-5.6,3-11.1,6-16.6,9c-10.9,5.9-21.8,11.9-32.9,17.7c-4.4,2.3-8.3,5-11.4,9c-6.9,9-5.9,23.2,1.9,31.3
	c3.2,3.3,7.2,5.5,11.1,7.6c12.5,6.7,25,13.4,37.5,20.1c8.3,4.5,16.7,9,25.1,13.5c0.1,0,0.1,0.2,0.1,0.3
	C140.1,321,137.7,323,135.2,325z"/>
<path class="st24" d="M166,275.5c-0.7-0.5-1.1-1.2-1.8-1.6c-7.1-3.9-14.3-7.7-21.4-11.5c-1-0.5-1.9-1.1-3.1-1.9
	c2.4-1.4,4.5-2.6,6.7-3.8c5.8-3.1,11.6-6.1,17.3-9.3c0.8-0.4,1.5-1.1,2.2-1.7c0.1-0.1,0.2-0.1,0.3-0.1c0.5,5.4,1.1,10.8,1.1,16.2
	c0,4.4-0.7,8.8-1,13.4C166.3,275.5,166.2,275.5,166,275.5z"/>
<path class="st24" d="M330.1,101.9c-0.1-0.3,0-0.5,0.1-0.8c0.9-0.4,1.7-0.6,2.4-1c6.5-3.5,13-7.1,19.5-10.7
	c10.3-5.6,20.7-11.2,31-16.8c4.7-2.5,9.6-4.8,14.3-7.4c5.1-2.8,10.5-3.7,16.3-2.7c12.1,2,21.1,13,20.5,25.2
	c-0.4,9.2-4.5,16.3-12.6,20.9c-3.3,1.9-6.8,3.6-10.1,5.5c-10.8,5.8-21.6,11.6-32.3,17.5c-6.7,3.6-13.4,7.2-20.1,10.8
	c-1.7,0.9-3.2,2-4.9,3c-0.2,0-0.3,0-0.6,0c-4.1-5-8.4-9.8-12.1-15.1c-5.8-8.3-9.2-17.7-11.2-27.7
	C330.3,102.3,330.2,102.2,330.1,101.9z"/>
<path class="st29" d="M125.7,190.2c-3.1,1.9-6.2,3.6-9.3,5.3c-13.7,7.4-27.5,14.7-41.2,22.1c-4,2.2-8.2,4.1-12,6.6
	c-6.9,4.6-12.3,10.5-15.7,18.3c-2.7,6.1-4.1,12.5-3.9,19.1c0.4,9.7,3.3,18.5,9.5,26.2c4.2,5.2,9.3,9,15.1,12
	c12.8,6.8,25.6,13.6,38.3,20.5c6.4,3.4,12.7,6.9,19.2,10.5c-3.3,1.7-6.7,3.3-10.2,4.9c-12.3-6.6-24.4-13.1-36.6-19.7
	c-6.6-3.6-13.4-6.8-19.8-10.7c-10-6.1-17.3-14.7-21.4-25.8c-2.6-6.9-3.9-14.1-3.5-21.5c0.7-11.1,4.1-21.3,11.2-30.1
	c5.5-6.9,12.5-11.8,20.3-15.9c14.5-7.7,28.9-15.5,43.4-23.3c2-1.1,4-2.2,6.2-3.3C118.8,187,122.2,188.5,125.7,190.2z"/>
<path class="st21" d="M329.2,80.7c3.3-1.8,6.6-3.4,9.8-5.1c5.5-2.9,10.9-5.9,16.3-8.9c11.1-6,22.1-11.9,33.2-17.9
	c7.4-4,15.2-6.4,23.7-5.9c8.9,0.5,16.8,3.8,23.6,9.6c8.9,7.5,14.4,17,16.3,28.3c2.1,11.9-0.2,22.9-7.8,32.5
	c-4.3,5.4-9.8,9.4-15.8,12.6c-10.5,5.6-21,11.4-31.5,17c-7.3,3.9-14.6,7.8-21.9,11.7c-1.4,0.8-2.7,1.7-4.1,2.7
	c-3.1-1.8-6.1-3.7-9.2-5.8c7.5-4.3,14.9-8.4,22.4-12.4c13.6-7.3,27.3-14.6,40.9-22c4.4-2.4,8.4-5.2,11.6-9.1
	c6.5-8.1,8.2-17.2,6.2-27.1c-1.8-8.7-6.2-16-13.2-21.6c-7.3-5.8-15.5-8.1-24.8-6.6c-6.5,1-12,4.3-17.6,7.3
	c-10.8,5.8-21.5,11.6-32.2,17.4c-5.7,3.1-11.4,6.2-17.1,9.3c-2.9,1.6-6,3-8.9,4.5C329,87.8,329.1,84.3,329.2,80.7z"/>
<path class="st25" d="M328.9,91.5c3-1.7,6-3.1,9-4.7c5.7-3.1,11.4-6.2,17.1-9.3c10.7-5.8,21.4-11.6,32.2-17.4
	c5.6-3,11.1-6.2,17.6-7.3c9.3-1.5,17.5,0.8,24.8,6.6c7,5.6,11.4,12.9,13.2,21.6c2,9.9,0.3,19-6.2,27.1c-3.2,3.9-7.2,6.8-11.6,9.1
	c-13.6,7.4-27.3,14.6-40.9,22c-7.5,4-14.9,8.1-22.4,12.3c-2.5-1.9-5-4-7.5-6.1c1.6-1.1,3.1-2.2,4.8-3.1c6.7-3.6,13.4-7.2,20.1-10.8
	c10.8-5.8,21.6-11.6,32.3-17.5c3.4-1.8,6.8-3.6,10.1-5.5c8-4.6,12.1-11.7,12.6-20.9c0.6-12.2-8.4-23.1-20.5-25.2
	c-5.7-1-11.1-0.1-16.3,2.7c-4.7,2.6-9.6,4.9-14.3,7.4c-10.4,5.6-20.7,11.2-31,16.8c-6.5,3.5-13,7.1-19.5,10.7
	c-0.7,0.4-1.5,0.6-2.4,0.9C329.6,97.9,329.3,94.8,328.9,91.5z"/>
<path class="st19" d="M331,69c0,0.1,0,0.2-0.2,0.3C330.8,69.2,330.9,69.1,331,69z"/>
</svg>
