<?xml version="1.0" encoding="utf-8"?>
<!-- Generator: Adobe Illustrator 28.1.0, SVG Export Plug-In . SVG Version: 6.00 Build 0)  -->
<svg version="1.1" id="Layer_1" xmlns="http://www.w3.org/2000/svg" xmlns:xlink="http://www.w3.org/1999/xlink" x="0px" y="0px"
	 viewBox="0 0 516.9 489.4" style="enable-background:new 0 0 516.9 489.4;" xml:space="preserve">
<style type="text/css">
	.st0{fill:#DCA5FF;}
	.st1{fill:#009CFC;}
	.st2{fill:#5CD4FE;}
	.st3{fill:#36BEFD;}
	.st4{fill:#54D0FE;}
	.st5{fill:#41C4FE;}
	.st6{fill:#E1B7FF;}
	.st7{fill:#61D7FE;}
	.st8{fill:#48C8FE;}
	.st9{fill:#4ECCFE;}
	.st10{fill:#6BDDFE;}
	.st11{fill:#099CF8;}
	.st12{fill:#DEAFFF;}
	.st13{fill:#0E94F3;}
	.st14{fill:#66DAFE;}
	.st15{fill:#E0B5FF;}
	.st16{fill:#AC9FFB;}
	.st17{fill:#2CB5FB;}
	.st18{fill:#1D9DF4;}
	.st19{fill:#A09DF9;}
	.st20{fill:#C1A1FC;}
	.st21{fill:#C7A3FD;}
	.st22{fill:#DAA6FF;}
	.st23{fill:#92A5FA;}
	.st24{fill:#929CF8;}
	.st25{fill:#819AF8;}
	.st26{fill:#6E9DF8;}
	.st27{fill:#699CF8;}
	.st28{fill:#7698F7;}
	.st29{fill:#869AF7;}
</style>
<path class="st0" d="M369.1,5.3c4.3-1.1,8.5-2.5,12.8-3.2c5.7-0.9,11.4-1.5,17.2-1.9c4.8-0.3,9.7-0.3,14.5,0c4.4,0.3,8.8,1,13,2.2
	c5.4,1.6,8.8,6.8,9.1,12.4c0.3,4.7-1.5,8.6-4.8,11.9c-22,21.9-43.9,43.9-65.9,65.9c-2.4,2.4-3.9,5.4-3.9,8.7c0,2.4,0.8,5,2,7
	c3.2,5.3,6.5,10.7,10.4,15.5c4.3,5.2,9.3,9.8,14,14.5c4.9,4.9,10.7,8.6,16.4,12.4c1.9,1.2,3.8,2.3,5.7,3.4c5,2.7,10.8,1.4,14.6-2.4
	c22.3-22.3,44.5-44.6,66.8-66.8c5.1-5.1,13.2-5.4,18.9-0.8c3.4,2.7,4.8,6.3,5.5,10.5c1.1,6.7,1.7,13.4,1.4,20.1
	c-0.3,6-1.1,12-1.8,18c-0.9,7.1-2.9,14-5.2,20.7c-3.7,10.8-8.5,20.9-14.7,30.6c-4.5,7-9.5,13.5-15.2,19.6
	c-7.5,8.2-16.1,14.9-25.7,20.5c-8.6,5.1-17.8,8.7-27.4,11.1c-5.1,1.2-10.4,1.8-15.6,2.3c-5,0.4-10,0.6-15,0.4
	c-9-0.5-17.9-2.2-26.5-4.8c-1.6-0.5-3.3-1.1-5.2-1.7c-0.9,0.9-1.9,2-3.2,3.1c-2-1.1-3.8-2.2-5.7-3.4c-0.4-0.5-0.8-0.9-1.2-1.3
	c-4.6-4.3-9.3-8.5-13.7-13c-5.4-5.6-9.6-12-13-19.1c-1.8-3.7-3.5-7.5-5.4-11.2c-6.5-12.2-15.5-22.1-27.2-29.4
	c-1.3-0.8-2.8-1.2-4.2-1.9c0-0.3,0-0.4,0.1-0.7c0.1-1.9,0.6-3.8,0-5.4c-3-8.8-5-17.9-5.6-27.1c-0.5-8.1-0.4-16.2,1.1-24.2
	c2-10.6,5.4-20.8,10.7-30.3c7.2-12.9,16.8-23.7,28.4-32.9c6.6-5.3,13.9-9.8,21.3-13.8c5.3-2.9,11-4.9,16.6-7.2
	C369.1,11.3,369.2,11.4,369.1,5.3z"/>
<path class="st1" d="M352,272.6c8,3.9,15.7,8.4,22.3,14.3c4.2,3.7,8.3,7.5,12.3,11.5c25.2,25.2,50.4,50.4,75.6,75.6
	c6.3,6.4,10.8,14,14,22.3c2.2,5.6,3.6,11.4,4.1,17.4c0.7,7.1,0.5,14.1-1,21.2c-1.4,7-3.8,13.6-7.4,19.8c-2.1,3.7-4.8,7.1-7.4,10.5
	c-4.5,5.7-10.1,10.2-16.2,14.1c-5.4,3.4-11.3,5.9-17.4,7.6c-4.6,1.3-9.4,1.8-14.1,2.3c-6.5,0.6-12.8-0.2-19.1-1.5
	c-6-1.2-11.8-3.2-17.1-6.2c-4.3-2.4-8.3-5.3-12.1-8.3c-3-2.4-5.7-5.3-8.5-8c-26.7-26.6-53.4-53.2-79.9-80
	c-5.3-5.4-9.9-11.5-13.5-18.2c-1-1.9-2.1-3.8-3.1-5.8c0.6-0.5,1.1-0.8,1.6-1.3c28.6-28.6,57.2-57.1,85.7-85.7
	C351.3,273.7,351.6,273.1,352,272.6z"/>
<path class="st2" d="M56.2,124.5c-2.9-0.9-4.8-3-6.5-5.3c-4-5.4-8.1-10.8-12.1-16.2c-0.3-0.4-0.6-0.9-0.9-1.5
	c0.7-0.7,1.5-1.2,2.1-1.8c17.5-17.4,34.9-34.9,52.3-52.3c0.6-0.6,1.1-1.5,1.7-2.2c3.9,2.9,7.8,5.7,11.7,8.6c3.2,2.4,6.5,4.9,9.6,7.4
	c0.9,0.7,1.5,1.9,2.2,3.1c-0.6,1-1,1.8-1.7,2.4c-18.7,18.7-37.4,37.4-56.1,56.1C57.7,123.5,56.9,123.9,56.2,124.5z"/>
<path class="st3" d="M173.8,226.4c-5.6-5.5-11.2-11.1-16.7-16.6c-4.1-4.1-8.1-8.1-12.2-12.4c1.4-1.4,2.8-2.5,4.1-3.7
	c12.7-12.7,25.5-25.5,38.2-38.1c0.7-0.7,1.8-0.9,2.6-1.4c5.1,5.1,10.2,10.1,15.3,15.2c4.3,4.3,8.6,8.6,12.8,13
	c-0.5,0.4-1,0.6-1.3,0.9c-4.1,4.1-8.1,8.3-12.3,12.4c-10.1,9.9-20.2,19.8-30.3,29.8C173.9,225.6,173.9,226.1,173.8,226.4z"/>
<path class="st4" d="M56.2,124.6c0.7-0.7,1.5-1.1,2.2-1.8c18.7-18.7,37.4-37.4,56.1-56.1c0.6-0.6,1.1-1.5,1.8-2.3
	c3.4,5.7,6.7,11.6,10,17.4c1.9,3.4,3.9,6.9,5.9,10.6c-0.6,1-1.1,1.8-1.8,2.4c-13.9,14-27.9,27.9-41.9,41.9c-1.5,1.5-3.1,2.8-4.7,4.2
	c-8.4-5-16.7-9.9-25.1-14.9C57.9,125.5,57.1,125.1,56.2,124.6z"/>
<path class="st5" d="M189.8,154.1c-0.8,0.6-1.9,0.8-2.6,1.5c-12.8,12.7-25.5,25.4-38.2,38.1c-1.3,1.3-2.7,2.3-4.1,3.6
	c-7.8-7.6-15.5-15.3-23.3-23c0,0-0.1-0.1-0.1-0.3c0.6-0.7,1.3-1.2,1.8-1.8c13.3-13.2,26.5-26.5,39.8-39.7c1.1-1,1.6-2.1,1.5-3.6
	c6,6,12.1,12,18.1,18C185,149.2,187.4,151.6,189.8,154.1z"/>
<path class="st6" d="M81.9,487.9c-6,0.3-11.8-1.3-17.3-3.4c-7.7-2.9-14.6-7.2-20.3-13.2c-5.3-5.6-9.3-12.1-12-19.4
	c-3-7.9-4.1-16-3.5-24.3c0.7-10,4.1-19.2,9.9-27.5c1.6-2.3,3.5-4.6,5.5-6.6c33.1-33.1,66.2-66.2,99.5-99.3c1.2,2,2.1,3.9,3,5.9
	c0,0.1,0,0.3-0.1,0.3c-2.7,2.5-5.3,4.8-7.7,7.3c-3.7,3.8-7.4,7.7-11.1,11.4c-8,8.1-16.1,16.1-24.2,24.2
	c-6.2,6.1-12.5,12.2-18.6,18.3c-4.7,4.7-9.2,9.5-13.9,14.2c-5.6,5.7-11.2,11.4-17,16.9c-4.5,4.3-8.8,8.7-12,14
	c-4.6,7.4-7,15.5-6.9,24.3c0,4.3,0.6,8.6,1.4,12.8c1.7,8.4,6,15.7,11.6,22c4.2,4.8,9.5,8.2,15.2,11c5.8,2.8,11.8,4.3,18.1,4.9
	C81.7,483.9,81.8,485.9,81.9,487.9z"/>
<path class="st7" d="M92.7,45c-0.5,0.9-1,1.7-1.6,2.3C73.6,64.8,56.2,82.3,38.7,99.7c-0.6,0.6-1.3,1.1-2.1,1.6
	c-4.4-5.7-8.7-11.4-13-17.4c0.9-0.9,1.8-1.4,2.5-2.1C41.9,66,57.8,50.2,73.6,34.3c0.6-0.6,1.1-1.5,1.7-2.2c2.2,1.5,4.3,3,6.5,4.5
	C85.3,39.4,89,42.2,92.7,45z"/>
<path class="st8" d="M164.5,128.8c0.2,1.6-0.4,2.6-1.4,3.7c-13.3,13.2-26.5,26.5-39.8,39.7c-0.6,0.6-1.2,1.1-1.9,1.7
	c-5.9-5.6-11.7-11.4-17.5-17.4c0.4-0.9,0.8-1.7,1.4-2.3c13.2-13.3,26.5-26.5,39.7-39.8c0.8-0.8,1.1-2.2,1.7-3.3
	C152.6,116.9,158.5,122.8,164.5,128.8z"/>
<path class="st9" d="M146.6,110.9c-0.5,1.2-0.8,2.6-1.6,3.4c-13.2,13.3-26.5,26.5-39.7,39.8c-0.6,0.6-0.9,1.4-1.4,2.2
	c-1.9-1.7-4-3.4-5.7-5.5c-3.1-3.7-7.3-5.7-11.3-8.2c-1-0.6-2-1.1-3.1-1.7c1.5-1.5,3.1-2.8,4.6-4.3c14-13.9,27.9-27.9,41.9-41.9
	c0.6-0.6,1.2-1.4,1.8-2.3c1.3,2,2.4,4.2,3.8,6.2c1.4,2.1,3,4.1,4.7,6C142.4,106.8,144.5,108.8,146.6,110.9z"/>
<path class="st10" d="M13.4,70.5C9,64.6,4.5,58.7,0,52.6c0.3-0.4,0.7-0.8,1-1.2C14.9,37.6,28.8,23.7,42.7,9.8c1-1,1.8-1.2,2.9-0.3
	c5.1,3.9,10.3,7.8,15.5,11.7c0.5,0.4,1,0.7,1.4,1.3c-0.6,0.7-1.2,1.2-1.7,1.7C46.1,38.8,31.5,53.4,16.8,68
	C15.8,69,14.5,69.7,13.4,70.5z"/>
<path class="st11" d="M351.9,272.5c-0.3,0.6-0.6,1.2-1,1.7c-28.6,28.6-57.1,57.2-85.7,85.7c-0.4,0.4-1,0.7-1.6,1.1
	c-2-2.7-3.8-5.5-5.7-8.5c0.6-0.9,1-1.6,1.6-2.2c27.1-27.1,54.2-54.2,81.3-81.4c0.6-0.6,1-1.4,1.5-2
	C345.5,268.8,348.6,270.6,351.9,272.5z"/>
<path class="st12" d="M368.9,5.4c0.2,6,0.2,5.9-5.4,8.2c-5.6,2.3-11.3,4.3-16.6,7.2c-7.4,4-14.6,8.5-21.3,13.8
	c-11.5,9.2-21.2,20-28.4,32.9c-5.3,9.5-8.7,19.7-10.7,30.3c-1.5,8-1.6,16.2-1.1,24.2c0.6,9.3,2.6,18.3,5.6,27.1
	c0.5,1.6,0.1,3.5-0.1,5.4c-2-0.7-3.8-1.4-5.6-2.2c-1.3-4.5-2.7-9-3.7-13.6c-1-4.3-1.7-8.8-2.1-13.2c-0.5-4.7-0.9-9.4-0.7-14.1
	c0.2-6.5,1-13,2.4-19.5c2-9.4,5.3-18.4,10-26.8c3.1-5.5,6.7-10.7,10.5-15.7c3.2-4.3,6.9-8.3,10.8-12c7.1-6.7,14.7-12.7,23.2-17.5
	c5.4-3,10.8-6,16.4-8.5C357.4,9.1,363.2,7.4,368.9,5.4z"/>
<path class="st13" d="M342.3,266.8c-0.4,0.8-0.8,1.6-1.4,2.2c-27.1,27.1-54.2,54.2-81.3,81.4c-0.6,0.6-1.1,1.3-1.7,2.1
	c-2-2.6-4-5.2-6-8.1c0-0.4,0-0.5,0.2-0.7c0.3-0.3,0.6-0.5,0.8-0.7c26.8-26.8,53.5-53.6,80.3-80.3c0.3-0.3,0.7-0.7,1.1-1.1
	c0.3,0,0.4-0.1,0.6-0.1C337.3,263.1,339.8,264.9,342.3,266.8z"/>
<path class="st14" d="M13.4,70.6c1.1-0.9,2.4-1.6,3.4-2.6c14.7-14.6,29.3-29.3,43.9-43.9c0.5-0.5,1.1-1,1.7-1.6
	c3.7,2.6,7.2,5.2,10.8,7.9c0.6,0.5,1.2,1,1.9,1.6c-0.5,0.9-1,1.7-1.6,2.3C57.8,50.2,41.9,66,26.1,81.8c-0.7,0.7-1.6,1.3-2.6,2
	C20.1,79.5,16.8,75.1,13.4,70.6z"/>
<path class="st15" d="M225.1,370.8c-7.4,7.5-14.8,14.9-22.3,22.4c-26.2,26.2-52.5,52.5-78.7,78.7c-6.3,6.3-13.7,10.8-22.1,13.6
	c-2.4,0.8-5,1.2-7.7,1.6c0.3-0.6,0.7-1.2,1.3-1.4c2.1-0.7,4.2-1.2,6.3-1.8c-1.4-2.6-2.1-2.9-4.5-2.3c-1.5,0.4-3,0.7-4.3-0.4
	c10.6-2.1,19.6-6.8,27.1-14.6c8.7-9,17.6-17.7,26.4-26.5c3.7-3.7,7.6-7.3,11.3-11c4.3-4.4,8.6-8.8,12.9-13.2c2.9-2.9,6-5.7,8.9-8.6
	c6.8-6.8,13.4-13.7,20.2-20.5c4.9-5,10-9.8,15-14.7c2.1-2.1,4.2-4.1,6.5-6.1C222.8,367.6,224,369.2,225.1,370.8z"/>
<path class="st16" d="M160,277.7c2.9-2.9,5.8-5.9,8.9-8.8c0.2,3,0.1,5.9,0,8.9c-1.7,1.7-3.3,3.3-5,4.9c-1,1-2.4,1.9-1.8,3.5
	c0.8,2.2,1.6,4.4,2.8,6.5c3.1,5.8,7,11.1,12.2,15.2c3.4,2.7,6.9,5.4,10.6,7.7c4.2,2.6,8.8,4.6,13,7.1c11.3,6.7,21.2,15.1,29.9,25
	c1.3,1.4,2.6,2.8,4,4.4c2.1-2.2,4.1-4.3,6.2-6.4c0.3,0,0.4,0,0.7,0.1c1.1,1.8,2.2,3.5,3.3,5.2c-2,2.1-4.1,4.2-6.3,6.2
	c-1.4-1.7-2.7-3.3-4.3-5.3c-1.2,1.4-1.9,2.4-2.9,3.3c-1.2,1.1-2.5,2.1-3.8,3.1c-3.9-4.1-7.5-8.4-11.6-12.1
	c-4.8-4.4-9.7-8.7-15.1-12.3c-6.2-4.1-13-7.3-19.4-11.2c-9.7-5.9-17.8-13.5-23.8-23.2c-1.3-2.2-2.5-4.4-3.7-6.7c0-0.3,0-0.5,0.1-0.7
	c2.3-2.2,4.4-4.3,6.5-6.5c0.4-0.4,0.8-1,0.7-1.4C161,282.1,160.5,279.9,160,277.7z"/>
<path class="st17" d="M173.8,226.6c0.1-0.5,0-0.9,0.3-1.1c10.1-9.9,20.2-19.8,30.3-29.8c4.1-4.1,8.2-8.3,12.3-12.4
	c0.3-0.3,0.8-0.5,1.4-0.8c4.1,3.9,8,7.8,11.8,11.8c-0.7,0.6-1.4,1.1-1.9,1.6c-13.5,13.5-27,27-40.6,40.5c-0.6,0.6-1.4,1-2,1.5
	C181.5,234.2,177.7,230.4,173.8,226.6z"/>
<path class="st18" d="M185.3,238c0.6-0.6,1.4-1,2-1.6c13.5-13.5,27-27,40.6-40.5c0.6-0.6,1.2-1,2-1.5c2.3,2.1,4.4,4.2,6.7,6.4
	c0.1,0.3,0.1,0.5-0.1,0.7c-10.6,10.6-21.1,21.1-31.7,31.6c-4,4-8,8.1-12.1,12.1c-0.1,0-0.3,0-0.3,0
	C190.1,242.9,187.7,240.5,185.3,238z"/>
<path class="st19" d="M192.3,245.3c0.1-0.1,0.3-0.1,0.4,0.1c-0.3,0.7-0.7,1.3-1.1,1.8c-2.5,2.5-5,5-7.5,7.5
	c-4.2,4.1-6.6,9.1-7.3,15.1c0,0.3,0,0.4-0.2,0.6c-1.7,1.6-3.3,3.2-4.9,4.8c-0.8,0.9-1.6,1.7-2.5,2.6c-0.1,0-0.3,0-0.3,0
	c0.1-2.9,0.1-5.8,0.1-8.9C176.7,261,184.4,253.2,192.3,245.3z"/>
<path class="st19" d="M236.6,201.4c0-0.1,0-0.3,0.1-0.6c7.9-7.9,15.7-15.7,23.8-23.5c2.9,0.1,5.6,0.2,8.2,0.4c-1,1-1.9,1.9-2.8,2.9
	c-1.3,1.4-2.6,2.9-4,4.4c-0.4,0.1-0.7,0.3-1.1,0.4c-4.5,0.3-8.4,1.9-11.6,4.6c-3.7,3.1-7,6.7-10.6,10.1
	C238,200.7,237.2,201,236.6,201.4z"/>
<path class="st16" d="M268.7,177.7c-2.7-0.1-5.3-0.1-8.1-0.3c2.8-3.1,5.7-6,8.8-8.9c2.6,0.5,5.1,0.9,7.5,1.5c0,0.1,0,0.3-0.1,0.3
	c-2.5,2.5-4.9,4.9-7.5,7.4C269,177.6,268.8,177.7,268.7,177.7z"/>
<path class="st20" d="M276.8,169.8c-2.4-0.4-4.8-0.9-7.4-1.4c2.5-2.8,5.2-5.5,8.1-8.2c2.3,0.8,4.3,1.7,6.3,2.6
	C281.5,165.2,279.2,167.5,276.8,169.8z"/>
<path class="st21" d="M159.9,277.8c0.6,2.2,1.2,4.3,1.6,6.6c0.1,0.4-0.3,1-0.7,1.4c-2.1,2.2-4.3,4.3-6.6,6.4c-0.5-0.6-0.7-1.3-1-1.9
	c-0.6-1.3-1.1-2.6-1.7-3.9C154.2,283.5,157,280.6,159.9,277.8z"/>
<path class="st22" d="M283.9,162.7c-2-0.8-4.1-1.6-6.2-2.5c2.4-2.6,4.9-5.2,7.6-7.8c1.9,0.7,3.7,1.4,5.6,2.2
	c0.1,0.2,0.1,0.3,0.1,0.7c-1.5,1.8-3,3.4-4.4,5c-0.7,0.8-1.3,1.6-2,2.4C284.2,162.7,284.1,162.7,283.9,162.7z"/>
<path class="st12" d="M151.3,286.3c0.7,1.3,1.2,2.6,1.8,3.9c0.3,0.6,0.5,1.2,0.9,1.9c0.1,0.3,0.1,0.4-0.1,0.7
	c-0.7,0.6-1.3,1-1.8,1.5c-1.8,1.9-3.7,3.8-5.5,5.7c-0.9-1.9-1.9-3.9-2.9-5.9C146.1,291.5,148.7,288.9,151.3,286.3z"/>
<path class="st22" d="M355.7,231.2c1.8,1.1,3.6,2.2,5.5,3.3c-2,2.2-4.2,4.4-6.6,6.6c-0.6-0.2-0.9-0.4-1.3-0.7
	c-1.4-0.9-2.8-1.8-4.3-2.8c0-0.3,0-0.4,0.1-0.6c0.6-0.4,1.2-0.8,1.7-1.3C352.5,234.4,354.1,232.8,355.7,231.2z"/>
<path class="st20" d="M349.1,237.9c1.4,0.9,2.8,1.8,4.3,2.6c0.4,0.2,0.7,0.5,1.2,0.7c-2,2.2-4.2,4.4-6.6,6.6
	c-1.9-1.1-3.6-2.2-5.2-3.4C344.9,242.2,347,240.1,349.1,237.9z"/>
<path class="st20" d="M227.7,358.5c1.2-1.1,2.5-2.1,3.7-3.2c0.9-0.9,1.7-1.9,2.9-3.3c1.6,2,2.8,3.6,4.2,5.3
	c-2.1,2.3-4.3,4.5-6.6,6.6c-1.5-1.6-2.8-3.2-4.2-4.8C227.7,358.8,227.7,358.6,227.7,358.5z"/>
<path class="st12" d="M227.7,359.2c1.3,1.5,2.7,3.1,4.1,4.8c-2.1,2.3-4.3,4.5-6.5,6.8c-1.3-1.5-2.5-3.1-3.7-4.9
	c-0.1-0.3-0.1-0.5,0-0.7C223.7,363.1,225.7,361.2,227.7,359.2z"/>
<path class="st16" d="M342.7,244.6c1.7,1.1,3.3,2.2,5.1,3.3c-2,2.2-4.2,4.4-6.6,6.6c-1.9-1.1-3.6-2.2-5.2-3.4c0-0.3,0-0.5,0.2-0.6
	c0.6-0.5,1.2-0.9,1.6-1.3c1.5-1.5,3-3.1,4.6-4.6C342.6,244.6,342.6,244.6,342.7,244.6z"/>
<path class="st19" d="M245,351c-1.2-1.6-2.3-3.3-3.4-5.2c1.9-2.4,3.9-4.5,6-6.6c0.3,0,0.4,0,0.6,0.1c1.3,1.5,2.5,3,3.8,4.4
	c0,0.2-0.1,0.3-0.2,0.6C249.5,346.5,247.3,348.7,245,351z"/>
<path class="st19" d="M336,251.3c1.7,1.1,3.3,2.2,5.1,3.3c-2,2.2-4.1,4.3-6.2,6.5c-0.2,0.1-0.4,0.2-0.7,0.1
	c-1.6-1.4-3.1-2.7-4.5-4.1C331.9,255.1,333.9,253.2,336,251.3z"/>
<path class="st15" d="M82.1,487.9c-0.3-2-0.4-4-0.3-6.1c2.4-0.2,4.6-0.2,6.9,0c0.2,0.6,0.5,1.1,0.7,1.5c0.7,1.4,1.5,2.9,2.3,4.3
	C88.5,487.7,85.3,487.8,82.1,487.9z"/>
<path class="st6" d="M91.7,487.6c-0.9-1.4-1.7-2.9-2.4-4.3c-0.2-0.5-0.5-0.9-0.6-1.6c1.5-0.3,2.9-0.4,4.3-0.5c1.4,1,2.9,0.7,4.4,0.3
	c2.4-0.6,3.1-0.3,4.5,2.3c-2.1,0.6-4.2,1.1-6.3,1.8c-0.6,0.2-1,0.8-1.5,1.4c0,0.1,0,0.1-0.1,0.2c-0.2,0.1-0.3,0.2-0.3,0.3
	C93.2,487.5,92.5,487.5,91.7,487.6z"/>
<path class="st15" d="M93.9,487.5c0-0.1,0-0.2,0.2-0.3C94.1,487.3,94.1,487.4,93.9,487.5z"/>
<path class="st20" d="M355.7,231.1c-1.6,1.7-3.2,3.2-4.8,4.8c-0.5,0.5-1,0.8-1.8,1.2c-2.4-1.8-4.7-3.4-6.7-5.3
	c-3.9-3.9-7.8-8-11.4-12.2c-4.7-5.3-8.5-11.3-11.4-17.7c-3.7-8.4-7.9-16.4-14.1-23.4c-5.9-6.7-12.7-12.1-20.8-15.7
	c0.6-0.8,1.2-1.6,1.9-2.4c1.4-1.6,2.9-3.2,4.4-4.9c1.5,0.5,3,0.9,4.2,1.7c11.7,7.3,20.7,17.3,27.2,29.4c2,3.6,3.6,7.4,5.4,11.2
	c3.3,7,7.6,13.5,13,19.1c4.4,4.5,9.1,8.7,13.7,13C354.9,230.2,355.2,230.6,355.7,231.1z"/>
<path class="st22" d="M93.2,481.1c-1.5,0.2-2.9,0.3-4.4,0.5c-2.4,0-4.6,0-7.1,0c-6.5-0.4-12.6-1.9-18.3-4.7c-5.7-2.8-11-6.2-15.2-11
	c-5.7-6.4-9.9-13.6-11.6-22c-0.9-4.2-1.4-8.5-1.4-12.8c-0.1-8.7,2.4-16.8,6.9-24.3c3.3-5.3,7.5-9.7,12-14c5.8-5.5,11.4-11.2,17-16.9
	c4.7-4.7,9.2-9.5,13.9-14.2c6.2-6.2,12.5-12.2,18.6-18.3c8.1-8,16.1-16.1,24.2-24.2c3.7-3.8,7.3-7.7,11.1-11.4
	c2.5-2.5,5.1-4.8,7.9-7.2c3.6,4.7,6.5,9.6,10.3,13.9c6.8,7.8,15,14.1,24.3,18.9c3.8,2,7.7,3.9,11.4,6.2c9,5.5,16.8,12.6,24,20.3
	c1.7,1.7,3.2,3.6,4.8,5.4c0,0.2,0,0.3,0,0.6c-2.1,2.2-4.2,4.2-6.4,6.3c-5,4.9-10.1,9.7-15,14.7c-6.8,6.8-13.4,13.7-20.2,20.5
	c-2.9,2.9-6,5.7-8.9,8.6c-4.3,4.4-8.6,8.9-12.9,13.2c-3.7,3.7-7.6,7.3-11.3,11c-8.8,8.8-17.8,17.5-26.4,26.5
	C112.8,474.3,103.8,479,93.2,481.1z"/>
<path class="st21" d="M221.5,365.1c-1.7-1.7-3.3-3.6-4.9-5.3c-7.3-7.6-15-14.7-24-20.3c-3.7-2.3-7.6-4.2-11.4-6.2
	c-9.3-4.8-17.5-11-24.3-18.9c-3.7-4.3-6.7-9.3-10.2-14c-0.1-0.1-0.1-0.2-0.1-0.3c1.8-2,3.6-3.9,5.5-5.7c0.5-0.5,1.1-0.9,1.8-1.4
	c1.4,2.2,2.5,4.4,3.8,6.6c5.9,9.8,14,17.4,23.8,23.2c6.4,3.9,13.2,7.1,19.4,11.2c5.4,3.6,10.3,7.9,15.1,12.3
	c4.1,3.7,7.7,8,11.6,12.1c0.1,0.2,0.1,0.4,0.1,0.7C225.7,361.2,223.7,363.1,221.5,365.1z"/>
<path class="st23" d="M329.7,257.3c1.5,1.3,2.9,2.6,4.4,4c-0.3,0.5-0.6,0.9-0.9,1.2c-26.8,26.8-53.5,53.6-80.3,80.3
	c-0.2,0.2-0.5,0.4-0.8,0.7c-1.4-1.4-2.6-2.8-3.8-4.4c6.7-7,13.4-13.7,20.1-20.4c0.5-0.6,0.9-1.3,1.5-1.9c0.7-0.6,1.3-1.3,1.9-1.9
	c10-9.9,20-19.7,30-29.6c8.9-8.8,17.7-17.7,26.5-26.5c0.4-0.4,0.7-1,1.1-1.5C329.5,257.3,329.7,257.3,329.7,257.3z"/>
<path class="st24" d="M168.9,277.8c0.1-0.1,0.3-0.1,0.4,0.1c0.2,0.7,0.2,1.3,0.3,1.8c1.7,7.5,5.7,13.7,11,19
	c4.1,4.2,8.9,7.5,14,10.2c4.6,2.5,9.3,4.9,13.8,7.6c10.4,6.4,19.5,14.6,27.9,23.4c1.7,1.8,3,3.8,4.5,5.8c-2,2.1-4,4.2-6.1,6.4
	c-1.5-1.6-2.8-3-4-4.4c-8.7-9.9-18.6-18.3-29.9-25c-4.2-2.5-8.8-4.5-13-7.1c-3.7-2.3-7.2-5-10.6-7.7c-5.2-4.1-9.1-9.4-12.2-15.2
	c-1.1-2.1-2-4.3-2.8-6.5c-0.6-1.7,0.8-2.6,1.8-3.5C165.5,281.1,167.1,279.5,168.9,277.8z"/>
<path class="st25" d="M240.9,345.8c-1.6-1.9-3-4-4.7-5.8c-8.4-8.9-17.5-17-27.9-23.4c-4.5-2.8-9.2-5.1-13.8-7.6
	c-5.2-2.8-9.9-6.1-14-10.2c-5.2-5.4-9.3-11.5-11-19c-0.1-0.5-0.2-1.1-0.2-1.8c0.8-1,1.6-1.9,2.4-2.8c1.6-1.6,3.2-3.2,4.9-4.6
	c-0.1,4.6,0.8,8.9,3,12.8c2.9,5.1,7.2,9.1,11.7,12.5c4.4,3.4,9.7,5.6,14.5,8.6c5.6,3.4,11.2,6.8,16.5,10.6
	c7.8,5.6,14.6,12.4,21.2,19.3c1.4,1.5,2.6,3.2,4,4.9c-2,2.1-3.9,4.3-5.9,6.5C241.3,345.8,241.2,345.8,240.9,345.8z"/>
<path class="st23" d="M236.5,201.5c0.8-0.5,1.5-0.8,2-1.4c3.5-3.4,6.9-6.9,10.6-10.1c3.2-2.8,7.1-4.3,11.6-4.5
	c-6.1,6.3-12.3,12.6-18.5,18.8c-0.5,0.6-0.9,1.3-1.5,1.9c-0.7,0.5-1.4,1-2,1.6c-20,20.1-39.9,40.1-59.8,60.2c-0.6,0.6-1.3,1-2,1.6
	c0.7-5.9,3.1-10.9,7.3-15c2.5-2.5,5-5,7.5-7.5c0.5-0.5,0.8-1.1,1.2-1.8c4-4.2,8-8.2,12.1-12.3C215.3,222.6,225.9,212.1,236.5,201.5z
	"/>
<path class="st26" d="M176.8,269.7c0.7-0.6,1.4-1.1,2-1.7c20-20,39.9-40.1,59.8-60.2c0.6-0.6,1.2-1,2.1-1.5c1,0.7,1.7,1.4,2.4,2.1
	c2,2,2,4.1,0,6.1c-1.2,1.2-2.5,2.5-3.7,3.7c-1.7,1.8-1.7,2.2,0,4c3.2,3.2,6.3,6.3,9.5,9.5c1,0.9,1.5,2,0.6,3.1
	c-0.9,1.2-2,2.3-3.1,3.4c-0.9,0.9-1.8,0.8-2.7-0.1c-1-1-2-2.1-3.1-2.9c-0.4-0.3-1.7-0.3-1.9,0c-0.3,0.6-0.3,1.4-0.2,2.2
	c0.1,0.4,0.6,0.7,1,1.1c4.7,4.8,9.4,9.7,14.1,14.5c1.1,1.1,1.2,2,0.1,3.2c-1.4,1.4-2.7,2.9-4,4.4c-1.6,1.7-1.6,2.2,0,3.8
	c3,3,6,6.1,9.1,9.1c1.2,1.2,1.2,2.2,0,3.3c-1,0.9-2,1.6-2.9,2.6c-3.8,4.1-2.9,3.7-0.3,6.9c0.9,1.1,1,2,0,3.1
	c-1.5,1.4-2.9,2.9-4.3,4.3c-2,2-2,2.2,0,4.3c5.9,6,11.8,12,17.7,18.1c0.3,0.3,0.5,0.7,0.8,1c-0.5,0.6-0.9,1.3-1.4,1.9
	c-6.7,6.7-13.4,13.5-20.1,20.3c-0.2,0.1-0.4,0.1-0.7,0.1c-1.4-1.6-2.6-3.4-4.1-4.9c-6.6-6.9-13.4-13.7-21.2-19.3
	c-5.3-3.8-10.9-7.2-16.5-10.6c-4.8-2.9-10.1-5.2-14.5-8.6c-4.5-3.5-8.8-7.4-11.7-12.5c-2.2-3.9-3.1-8.2-2.9-12.8
	C176.8,270.1,176.8,270,176.8,269.7z"/>
<path class="st27" d="M269.9,316.8c-0.4-0.3-0.6-0.7-0.9-1c-5.9-6-11.8-12-17.7-18.1c-2.1-2.1-2.1-2.3,0-4.3
	c1.4-1.4,2.9-2.9,4.3-4.3c1-1,1-1.9,0-3.1c-2.7-3.2-3.6-2.8,0.3-6.9c0.9-0.9,1.9-1.7,2.9-2.6c1.2-1.1,1.2-2.1,0-3.3
	c-3.1-3-6.1-6-9.1-9.1c-1.6-1.7-1.6-2.2,0-3.8c1.4-1.4,2.6-2.9,4-4.4c1.1-1.1,1-2.1-0.1-3.2c-4.7-4.8-9.4-9.7-14.1-14.5
	c-0.3-0.4-0.9-0.7-1-1.1c-0.1-0.7-0.2-1.6,0.2-2.2c0.2-0.3,1.4-0.3,1.9,0c1.1,0.8,2.1,1.9,3.1,2.9c0.9,0.9,1.8,1.1,2.7,0.1
	c1.1-1.1,2.2-2.2,3.1-3.4c0.8-1.1,0.3-2.2-0.6-3.1c-3.2-3.1-6.3-6.3-9.5-9.5c-1.7-1.8-1.7-2.2,0-4c1.2-1.2,2.5-2.5,3.7-3.7
	c2-2,2-4.1,0-6.1c-0.7-0.7-1.4-1.4-2.3-2.1c0.4-0.7,0.8-1.4,1.3-2c6.2-6.2,12.4-12.5,18.7-18.8c0.3-0.2,0.6-0.4,1.2-0.5
	c4.8,0.2,9.2,0.8,13.1,3.2c6.7,4.1,11.6,9.9,15.3,16.8c2.7,5.2,5,10.7,7.8,15.8c7.9,14.2,18.7,26.1,31.2,36.4
	c-0.3,0.5-0.6,1.1-1,1.5c-8.8,8.9-17.6,17.7-26.5,26.5c-10,9.9-20,19.7-30,29.6C271.2,315.5,270.6,316.1,269.9,316.8z"/>
<path class="st28" d="M329.4,257.3c-12.6-10.3-23.4-22.2-31.3-36.4c-2.8-5.1-5.1-10.6-7.8-15.8c-3.6-6.9-8.6-12.7-15.3-16.8
	c-3.9-2.4-8.3-3-13-3.2c1.1-1.5,2.4-3,3.7-4.4c0.9-1,1.8-1.9,2.8-2.9c0.2-0.1,0.4-0.1,0.8-0.1c1.8,0.4,3.3,0.7,4.7,1.2
	c10.7,3.6,18.3,11,23.5,20.7c4.8,8.7,8.3,18.1,14.3,26.2c6.1,8.4,13.2,15.9,20.9,22.7c1,0.8,2.1,1.5,3.1,2.2c0,0.2,0,0.3,0,0.6
	c-2.1,2-4.1,4-6.3,6C329.7,257.3,329.5,257.3,329.4,257.3z"/>
<path class="st19" d="M284.5,162.7c8.3,3.6,15.1,9,21,15.7c6.1,7,10.3,15,14.1,23.4c2.9,6.5,6.7,12.4,11.4,17.7
	c3.7,4.2,7.5,8.2,11.4,12.2c1.9,2,4.3,3.5,6.5,5.3c0.1,0.2,0.1,0.4,0.1,0.7c-2.1,2.3-4.2,4.4-6.3,6.7c-0.1,0.1-0.1,0.1-0.3,0
	c-0.5-0.6-0.8-1.1-1.3-1.5c-2.6-2.3-5.5-4.4-7.9-7c-4-4.2-8.2-8.5-11.6-13.2c-3.9-5.3-7.6-10.9-10.3-16.9
	c-4.4-9.4-9.1-18.3-16.9-25.5c-5.1-4.7-10.9-8.3-17.6-10.3c0,0,0-0.2,0-0.3c2.3-2.4,4.6-4.7,7-7.1
	C284.1,162.7,284.2,162.7,284.5,162.7z"/>
<path class="st29" d="M276.7,170.3c6.8,1.9,12.6,5.5,17.7,10.2c7.7,7.1,12.5,16.1,16.9,25.5c2.8,5.9,6.5,11.5,10.3,16.9
	c3.4,4.7,7.6,9,11.6,13.2c2.4,2.5,5.3,4.6,7.9,7c0.4,0.4,0.8,0.9,1.2,1.5c-1.5,1.7-3,3.2-4.5,4.7c-0.5,0.5-1,0.9-1.6,1.3
	c-1.2-0.7-2.3-1.4-3.2-2.2c-7.7-6.9-14.8-14.4-20.9-22.7c-5.9-8.1-9.5-17.4-14.3-26.2c-5.3-9.6-12.8-17.1-23.5-20.7
	c-1.5-0.5-3-0.8-4.6-1.2C271.8,175.2,274.2,172.8,276.7,170.3z"/>
</svg>
