<?xml version="1.0" encoding="utf-8"?>
<!-- Generator: Adobe Illustrator 28.1.0, SVG Export Plug-In . SVG Version: 6.00 Build 0)  -->
<svg version="1.1" id="Layer_1" xmlns="http://www.w3.org/2000/svg" xmlns:xlink="http://www.w3.org/1999/xlink" x="0px" y="0px"
	 viewBox="0 0 496.3 496.4" style="enable-background:new 0 0 496.3 496.4;" xml:space="preserve">
<style type="text/css">
	.st0{fill:#962BFF;}
	.st1{fill:#B97AFF;}
	.st2{fill:#67BFF2;}
	.st3{fill:#B269FF;}
	.st4{fill:#B26AFF;}
	.st5{fill:#AB59FF;}
	.st6{fill:#A44AFF;}
	.st7{fill:#9D3AFF;}
	.st8{fill:#8B79FD;}
	.st9{fill:#A54CFF;}
	.st10{fill:#9C37FF;}
	.st11{fill:#A040FF;}
	.st12{fill:#9D3BFF;}
	.st13{fill:#B36EFF;}
	.st14{fill:#7CC2F9;}
	.st15{fill:#848FFC;}
	.st16{fill:#801DF2;}
	.st17{fill:#9E3CFF;}
	.st18{fill:#B166FF;}
	.st19{fill:#B672FF;}
	.st20{fill:#4BABFE;}
	.st21{fill:#47A8FE;}
	.st22{fill:#49AAFE;}
	.st23{fill:#4BAAFE;}
	.st24{fill:#47A7FE;}
	.st25{fill:#7D59FF;}
	.st26{fill:#745DFE;}
	.st27{fill:#7065FE;}
	.st28{fill:#AE61FF;}
	.st29{fill:#5591FE;}
	.st30{fill:#6576FE;}
	.st31{fill:#6E67FE;}
	.st32{fill:#A853FF;}
	.st33{fill:#A449FF;}
	.st34{fill:#AD5EFF;}
	.st35{fill:#578EFE;}
</style>
<path class="st0" d="M429.3,388.1c-0.1,0.5-0.3,0.9-0.3,1.4c-0.3,4.9-0.5,9.8-0.8,14.7c-0.3,5.6-0.7,11.2-1.1,16.9
	c-0.4,5.5-0.7,11-1.1,16.5c-0.4,5.7-0.7,11.4-1.1,17.1c-0.2,3.5-0.3,7.1-0.8,10.6c-0.6,5-0.2,10.1-2.1,14.9
	c-2.1,5.3-5.4,9.6-10.3,12.5c-4.3,2.6-9,3.7-14,3.7c-99.9,0-199.9,0-299.8,0c-9.1,0-16.1-3.9-21.1-11.4c-2.3-3.5-3.6-7.3-3.8-11.6
	c-0.3-5.7-0.7-11.4-1.1-17.1c-0.2-3.6-0.5-7.2-0.7-10.8c-0.4-5.7-0.7-11.4-1.1-17.1c-0.4-5.5-0.7-11-1.1-16.5
	c-0.4-5.7-0.7-11.4-1.1-17.1c-0.1-1.2-0.2-2.3-0.2-3.6c1.2,0.1,2.3,0.5,3.4,0.5c21.9,0,43.8,0,65.6,0.2c0,14.3,0,28.4,0,42.6
	c0,8.1,8.3,14,16,11.5c5.4-1.8,8.9-6.3,8.9-12.2c0-17.3-0.2-34.7-0.3-52c0-0.5,0.2-1.1,0.5-1.6c24.8,0,49.5,0,74.2,0.2
	c0,18.2,0,36.1,0,54.1c0,3.4,1.3,6.2,3.5,8.5c3.2,3.4,9,4.5,13.1,2.8c5.2-2.1,7.9-6.2,7.9-11.6c0-16.2,0-32.5,0.2-48.7
	c1.4,0.1,2.6,0.4,3.8,0.4c23.5,0,46.9,0,70.4,0.2c0,15.7,0,31.3,0,46.9c0,1.9,0.3,3.9,0.9,5.6c2.1,5.8,8,9,14,7.9
	c5.8-1.1,10-6.3,10-12.4c0-15.2,0-30.4,0.2-45.6c20.3,0,40.5,0,60.6,0C423.5,388.4,426.4,388.2,429.3,388.1z"/>
<path class="st1" d="M442.7,182.7c-0.3,5.5-0.7,11-1,16.4c-0.1,2-0.3,4-0.4,6c-0.3,4.9-0.5,9.8-0.8,14.7c-0.1,1-0.2,2-0.5,3.2
	c-1.1,0.3-2,0.5-2.9,0.5c-25.7,0-51.5,0-77.2-0.2c-0.3-7.4-6-12.8-13.2-12.5c-3.1,0.2-5.6,1.6-8.1,3.3c-0.8-0.3-1.6-0.7-2.4-0.7
	c-24.9,0-49.7,0-74.6,0c-1.7,0-3.4,0.2-5.3,0.3c-0.4-0.3-0.7-0.5-1-0.7c-4.1-2.7-8.3-3.1-12.6-0.8c-4.4,2.3-6.8,6-6.8,11.1
	c0,1.7-0.1,3.3-0.2,5c-24.8,0-49.5,0-74.1-0.1c-0.1-2.5,0-4.9-0.4-7.2c-0.8-5.1-4.7-8.8-10-9.9c-4.6-0.9-9.7,1.3-12.4,5.3
	c-2,2.9-2.2,6.1-2.3,9.4c-25.3,0-50.4,0-75.5,0c-1.5,0-3.1-0.2-4.6-0.4c-0.3-4.8-0.5-9.7-0.8-14.5c-0.3-5.7-0.7-11.4-1.1-17
	c-0.3-3.6-0.7-7.3-0.9-11.1C183.3,182.7,313,182.7,442.7,182.7z"/>
<path class="st2" d="M0.1,65.5C-0.4,60,0.4,54.7,3.2,49.8c3.8-6.7,9.6-10.6,17-12.2c1.7-0.3,3.4-0.4,5.1-0.4c52.8,0,105.5,0,158.3,0
	c0.7,0,1.5,0,2.5,0c0-4.1,0.1-8.1,0-12.1c-0.1-3,0.4-5.9,1.5-8.7c3.4-8.9,9.8-14.2,19.1-16c1.4-0.3,2.8-0.4,4.2-0.4
	c25.2,0,50.3,0,75.5,0c5.7,0,10.7,2.1,15.1,5.8c4.3,3.6,7,8.1,8.3,13.5c0.3,1.4,0.6,2.9,0.6,4.3c0.1,4.5,0,8.9,0,13.6
	c0.8,0,1.5,0,2.2,0c53.3,0,106.6,0,160,0c5.6,0,10.5,2.1,14.8,5.7c4.4,3.6,7.1,8.2,8.4,13.7c0.4,1.6,0.4,3.3,0.4,5
	c-0.4-0.1-0.8-0.4-0.9-0.6c-0.2-1.9-1.5-2-2.8-1.7c-0.9,0.2-1.6,0.7-2.5,1.1c-0.1,0-0.3,0-0.3-0.2c-0.1-0.8-0.3-1.4-0.4-2.2
	c0-0.4,0-0.7-0.1-1.1c-0.5-0.9-0.9-1.7-1.4-2.6c-0.1-0.3-0.2-0.5-0.4-0.8c-1-2.6-2.5-4.5-4.9-5.9c-1.5-0.9-3-1.7-4.5-2.6
	c-2.5-0.5-4.9-1-7.5-1.4c-24.7,0-49.3,0-74,0c-7.9,0-15.6,0-23.4,0c-21.8,0-43.3,0-65.1,0c-0.7,0-1.2-0.1-1.7,0
	c-1.8,0.2-2.4-0.5-2.3-2.3c0.1-1.8,0-3.7,0-5.7c0-3.8,0.1-7.4,0-11c-0.2-4.7-1.8-8.8-5-12.3c-3.9-4.2-8.9-6-14.5-6
	c-24,0-48,0-71.9,0c-1.4,0-2.7,0.1-4.1,0.3c-9.4,1.4-16.1,9.1-16.1,18.6c0,5.8,0,11.6,0,17.6c-0.7,0.3-1.4,0.6-2.1,0.6
	c-6.8,0-13.7,0-20.7,0c-13.2,0-26.2,0-39.4,0c-34.3,0-68.4,0-102.6,0c-1.9,0-3.9,0.1-5.7,0.4c-4.9,0.9-9,3.1-11.8,7.5
	c-0.5,0.9-1,1.7-1.5,2.6c-1.7,2.8-2,5.8-2.1,9c0,0.7,0,1.2-0.2,1.7C4,65,2,65.2,0.1,65.5z"/>
<path class="st3" d="M56.2,225.6c1.6,0,3.1,0.2,4.6,0.2c25.1,0,50.2,0,75.5,0.2c0.2,14.4,0.2,28.7,0,43c-24.6,0-49,0-73.4,0
	c-1.2,0-2.5-0.5-3.7-0.7c-0.4-6.2-0.8-12.4-1.2-18.5c-0.2-3.6-0.5-7.2-0.7-10.8c-0.3-3.8-0.5-7.7-0.8-11.5
	C56.5,226.8,56.3,226.3,56.2,225.6z"/>
<path class="st4" d="M359.8,223.6c25.7,0,51.5,0,77.2,0c0.9,0,1.8-0.2,2.9-0.3c-0.2,5-0.5,9.9-0.9,14.9c-0.1,2-0.3,4-0.4,6
	c-0.3,4.8-0.5,9.7-0.8,14.5c-0.1,2.4-0.4,4.7-0.9,7.2c-1.1,0.3-1.9,0.5-2.8,0.5c-24.8,0-49.6,0-74.4-0.2
	C359.8,251.9,359.8,237.7,359.8,223.6z"/>
<path class="st5" d="M359.8,266.4c24.8,0,49.6,0,74.4,0c0.9,0,1.7-0.2,2.7-0.3c-0.2,5.6-0.5,11.2-0.9,16.8c-0.1,2-0.3,4-0.4,6
	c-0.3,4.9-0.5,9.8-0.8,14.7c-0.1,1.3-0.2,2.5-0.5,4c-1.1,0.3-2,0.5-2.9,0.5c-23.9,0-47.8,0-71.6-0.2
	C359.8,293.9,359.8,280.2,359.8,266.4z"/>
<path class="st6" d="M359.8,308.1c23.9,0,47.8,0,71.6,0c0.9,0,1.8-0.2,2.9-0.3c-0.2,4.7-0.5,9.5-0.9,14.2c-0.1,2-0.3,4-0.4,6
	c-0.3,4.9-0.5,9.8-0.8,14.7c-0.1,1.6-0.2,3.3-0.5,5.1c-1.1,0.4-2,0.9-3,0.9c-23,0-46,0-69-0.2C359.8,334.9,359.8,321.5,359.8,308.1z
	"/>
<path class="st7" d="M359.8,348.6c23,0,46,0,69,0c0.9,0,1.9-0.4,3-0.7c-0.2,4.3-0.6,8.7-0.9,13.1c-0.2,2-0.3,4-0.4,6
	c-0.3,4.9-0.5,9.8-0.8,14.7c-0.1,2-0.3,4-0.4,6.2c-2.9,0.3-5.8,0.5-8.7,0.5c-20.1,0-40.3,0-60.6-0.2
	C359.8,374.9,359.8,361.8,359.8,348.6z"/>
<path class="st5" d="M59.2,268.4c1.3,0.1,2.5,0.5,3.8,0.5c24.4,0,48.8,0,73.4,0.2c0.2,12.3,0.2,24.5,0,36.7c-24,0-47.9,0-71.8,0
	c-0.9,0-1.8-0.2-2.7-0.4c-0.1-0.7-0.4-1.4-0.4-2.1c-0.4-6.7-0.7-13.4-1.1-20.2c-0.2-3.6-0.5-7.2-0.7-10.8
	C59.4,271.1,59.3,269.9,59.2,268.4z"/>
<path class="st8" d="M453.5,161.4c-2.9,0-5.7,0-8.9,0.1c-0.5,0-0.6,0-1,0c-0.7,0-1.2,0-1.7,0c-129.2,0-258.5,0-387.7,0
	c-0.6,0-1.2,0-2,0c-0.3,0-0.5,0-0.6,0c-2.9,0-5.7,0-8.7-0.2c-0.3-2.2-0.4-4.1-0.4-6.1c3,0,5.9,0,8.9,0c74.6,0,149.1,0,223.5,0
	c56.7,0,113.3,0,170.1,0c3,0,5.9,0,8.8,0.2C453.8,157.5,453.7,159.4,453.5,161.4z"/>
<path class="st9" d="M61.8,305.6c0.9,0,1.9,0.2,2.8,0.2c23.9,0,47.7,0,71.8,0.2c0.2,10.8,0.2,21.5,0,32.2c-24.2,0-48.3,0-72.4,0
	c-0.1-0.5-0.3-1-0.3-1.5c-0.3-4.8-0.5-9.7-0.8-14.5C62.5,316.8,62.1,311.3,61.8,305.6z"/>
<path class="st10" d="M136.5,391.8c-21.9,0-43.8,0-65.6,0c-1.1,0-2.1-0.4-3.4-0.7c-0.5-6.2-0.9-12.3-1.3-18.5
	c-0.2-2.7-0.5-5.3-0.5-8.1c1.2,0,2.1,0.2,3.1,0.2c22.6,0,45.2,0,67.8,0.2C136.5,373.9,136.5,382.8,136.5,391.8z"/>
<path class="st11" d="M136.5,364.6c-22.6,0-45.2,0-67.7,0c-1,0-2-0.2-3.1-0.3c-0.4-4.7-0.7-9.3-1-14c-0.2-3.9-0.5-7.8-0.8-11.9
	c24.1-0.2,48.1-0.2,72.4,0C136.5,347.2,136.5,355.9,136.5,364.6z"/>
<path class="st12" d="M52.5,161.5c0.6,0,1.2,0,1.9,0c129.2,0,258.5,0,387.7,0c0.5,0,1,0,1.7,0.2c0.3,0.6,0.4,1,0.6,1.4
	c0,0.4,0,0.8-0.1,1.4c-0.2,0.7-0.2,1.1-0.4,1.5c-1.3-0.3-2.5-0.7-3.7-0.7c-127.9,0-255.7,0-383.6,0c-1.3,0-2.6,0.5-3.9,0.6
	c-0.1-0.5-0.2-0.9-0.3-1.4c0-0.4,0-0.8,0-1.4C52.3,162.4,52.4,161.9,52.5,161.5z"/>
<path class="st13" d="M442.7,182.6c-129.7,0.1-259.4,0.1-389.3,0.1c-0.2-0.1-0.2-0.1-0.1-0.4c0-1.2,0-2.3,0.1-3.3
	c112.8,0,225.4,0,337.9,0c17.2,0,34.5,0,51.7,0.2c0,0.8,0,1.5,0,2.1c0,0,0,0.1-0.1,0.2c-0.1,0.4-0.2,0.6-0.2,0.8
	C442.8,182.3,442.7,182.5,442.7,182.6z"/>
<path class="st14" d="M490,60.3c0.8-0.4,1.6-0.9,2.5-1.1c1.3-0.2,2.7-0.1,2.8,1.7c0,0.3,0.5,0.5,0.8,0.8c0.1,7,0.2,14,0.2,21
	c0,18.3,0,36.6,0,54.8c0,5.6-2.2,10.6-5.7,14.9c-3.6,4.4-8.2,7-13.6,8.3c-1.5,0.4-3,0.4-4.7,0.4c0-2.2,0.1-4.1,0.4-6.1
	c3.6-0.5,6.8-1.4,9.6-3.7c5.1-3.6,7.6-8.5,7.6-14.5c0.1-22,0-43.9,0.1-66.1c0-0.9,0-1.7,0-2.6c0-2,0-3.9,0-5.9
	C490,61.6,490,60.9,490,60.3z"/>
<path class="st14" d="M0.1,65.7c2-0.4,4-0.7,6.1-0.8c0.2,0.8,0.2,1.4,0.2,2.2c0,0.5,0,0.9,0,1.5c0,1.5,0,2.9,0,4.4
	c0,0.7,0,1.2,0,1.9c0,1,0,1.9,0,3c0,2,0,3.9,0,5.9c0,0.4,0,0.7,0,1.1c0,0.9,0,1.7,0,2.6c0,0.4,0,0.7,0,1.1c0,2.7,0,5.2,0,7.8
	c0,0.7,0,1.2,0,1.9c0,0.9,0,1.7,0,2.6c0,11.6,0,23.1,0,34.5c0,1.5,0.1,3,0.4,4.4c1,4.8,3.2,8.8,7.5,11.6c2.9,2.3,6.2,3.1,9.6,3.8
	c0.1,2.1,0.2,4.1,0.4,6.1c-5.7,0.1-10.6-2-15-5.5c-5.2-4.1-7.8-9.6-9.1-16c-0.1-0.4,0-0.9,0-1.3C0,114.4,0,90.1,0.1,65.7z"/>
<path class="st15" d="M24.4,161.4c-0.3-2-0.4-4-0.5-6.1c0-0.2,0-0.2,0.2-0.2c3.2,0,6.1,0,9.3,0c3.2,0,6.1,0,9.1,0c0,0,0,0,0,0
	c0.1,2,0.2,3.9,0.4,6.1C36.7,161.4,30.6,161.5,24.4,161.4z"/>
<path class="st15" d="M472.5,155.2c-0.1,2-0.3,3.9-0.4,6.1c-3.1,0.2-6.2,0.2-9.6,0.2c-0.3-0.1-0.4-0.1-0.5,0c-2.7,0-5.5,0-8.4,0
	c-0.1-2,0.1-4,0.2-6.1c0-0.2,0-0.2,0.2-0.2c3.2,0,6.1,0,9.3,0C466.5,155.1,469.5,155.1,472.5,155.2
	C472.5,155.1,472.5,155.2,472.5,155.2z"/>
<path class="st0" d="M443.2,181.2c-0.1-0.6-0.1-1.2-0.1-2.2c0-1.3,0-2.3,0-3.5c0.1-1.3,0.2-2.4,0.4-3.7c0-1.2,0-2.2,0.1-3.3
	c0.2-0.9,0.2-1.7,0.3-2.5c0.1-0.4,0.1-0.8,0.2-1.4c-0.2,4.9-0.4,9.9-0.6,14.9C443.5,180,443.4,180.5,443.2,181.2z"/>
<path class="st0" d="M53.3,179c0.1,1,0.1,2.1,0.1,3.2c-0.2-2.1-0.4-4.4-0.5-6.8c0-0.2,0.1-0.2,0.1-0.2c0.1,0.1,0.2,0.2,0.2,0.5
	C53.2,177,53.2,178,53.3,179z"/>
<path class="st0" d="M52.8,175.3c-0.1-1.9-0.3-3.7-0.3-5.8c0.2-0.2,0.2-0.2,0.3,0c0,1,0,1.9,0,3C52.9,173.5,52.9,174.3,52.8,175.3
	C52.9,175.2,52.9,175.2,52.8,175.3z"/>
<path class="st0" d="M52.1,164.6c0.1,0.2,0.2,0.7,0.3,1.3c0,0.9,0,1.6,0,2.3c-0.1,0.2-0.2,0.2-0.3,0.3
	C52.1,167.3,52.1,166,52.1,164.6z"/>
<path class="st0" d="M52.3,161.5c0.1,0.4,0,0.9-0.2,1.4c-0.2-0.3-0.3-0.7-0.4-1.2C51.9,161.5,52,161.5,52.3,161.5z"/>
<path class="st0" d="M444.4,162.9c-0.3-0.3-0.4-0.8-0.5-1.3c0.2-0.1,0.3-0.1,0.6-0.1C444.6,162,444.6,162.4,444.4,162.9z"/>
<path class="st12" d="M52.1,168.6c0.1-0.2,0.2-0.2,0.4-0.3c0.2,0.1,0.3,0.1,0.3,0.4c0,0.3,0,0.5,0,0.6c-0.1,0-0.1,0-0.3,0
	c-0.1,0-0.1,0-0.1-0.1c-0.1-0.2-0.2-0.3-0.3-0.3C52.1,168.8,52.1,168.8,52.1,168.6z"/>
<path class="st0" d="M442.9,182.3c-0.1-0.2,0-0.4,0.1-0.7C443,181.7,443,182,442.9,182.3z"/>
<path class="st8" d="M462.2,161.4c0-0.1,0.1-0.1,0.2-0.1C462.5,161.4,462.3,161.5,462.2,161.4z"/>
<path class="st0" d="M52.1,169c0.1,0,0.2,0.1,0.3,0.2C52.3,169.3,52.2,169.2,52.1,169z"/>
<path class="st16" d="M359.8,348.4c0,13.3,0,26.5,0,39.8c0,15.4,0,30.5,0,45.7c0,6.1-4.2,11.3-10,12.4c-6,1.1-11.9-2.1-14-7.9
	c-0.6-1.8-0.9-3.7-0.9-5.6c-0.1-15.6,0-31.1,0-47c0-13.1,0-25.9,0-38.9c0-9.5,0-18.8,0-28.3c0-8.9,0-17.6,0-26.4
	c0-10.2,0-20.3,0-30.5c0-8.6,0-17.1,0-25.7c0-3.6,0.1-7.1,0-10.6c-0.1-4.2,0.9-7.9,3.7-11.1c2.4-1.8,4.9-3.3,8-3.4
	c7.2-0.4,12.9,5,13.2,12.5c0,14.3,0,28.5,0,42.8c0,13.9,0,27.7,0,41.7C359.8,321.5,359.8,334.9,359.8,348.4z"/>
<path class="st16" d="M136.5,364.8c0-8.9,0-17.6,0-26.4c0-10.8,0-21.5,0-32.4c0-12.3,0-24.5,0-36.8c0-14.4,0-28.7,0-43.2
	c-0.1-3.5,0.2-6.7,2.2-9.6c2.8-4,7.9-6.2,12.4-5.3c5.3,1.1,9.2,4.8,10,9.9c0.4,2.3,0.3,4.7,0.4,7.4c0,17.5,0,34.6,0,51.9
	c0,16.2,0,32.2,0,48.4c0,17.3,0,34.4,0,51.5c-0.1,0.5-0.3,1.1-0.3,1.6c0.1,17.3,0.3,34.7,0.3,52c0,5.9-3.4,10.4-8.9,12.2
	c-7.7,2.5-16-3.5-16-11.5c0-14.1,0-28.3,0-42.6C136.5,382.8,136.5,373.9,136.5,364.8z"/>
<path class="st16" d="M235.7,228.4c0-1.7,0.1-3.3,0.1-5c0-5.1,2.4-8.8,6.8-11.1c4.3-2.2,8.6-1.8,12.6,0.8c0.3,0.2,0.6,0.4,1.1,0.8
	c3,3,4.3,6.3,4.2,10.4c-0.1,4,0,7.9,0,12.1c0,8.6,0,17.1,0,25.7c0,10.2,0,20.3,0,30.5c0,8.9,0,17.6,0,26.4c0,9.5,0,18.8,0,28.3
	c0,12.8,0,25.5,0,38.1c0,16.2,0,32.5,0,48.7c0,5.4-2.8,9.5-7.9,11.6c-4.1,1.7-9.9,0.6-13.1-2.8c-2.2-2.3-3.5-5.1-3.5-8.5
	c0-18,0-36,0-54.3c0-8.3,0-16.2,0-24.1c0-9.2,0-18.4,0-27.8c0-14.5,0-28.7,0-43c0-1.7-0.1-3.5-0.1-5.4c0-16.9,0.1-33.7,0.1-50.4
	C235.9,229.1,235.8,228.8,235.7,228.4z"/>
<path class="st11" d="M235.8,328.5c0,9.2,0.1,18.4,0.1,27.6c0,7.9,0,15.8,0,23.9c-24.7,0.2-49.4,0.2-74.2,0.2
	c-0.2-17.1-0.2-34.2,0-51.5C186.5,328.5,211.2,328.5,235.8,328.5z"/>
<path class="st17" d="M260.6,385.4c-0.2-12.7-0.2-25.3,0-38.1c24.9-0.2,49.5-0.2,74.2-0.2c0,12.8,0,25.6,0,38.5
	c-23.5,0.2-46.9,0.2-70.4,0.2C263.2,385.8,262,385.6,260.6,385.4z"/>
<path class="st18" d="M235.6,228.4c0.2,0.4,0.3,0.7,0.3,1.1c0,16.8,0,33.5-0.2,50.4c-24.8,0.2-49.5,0.2-74.1,0.2
	c0-17.1,0-34.2,0-51.5C186.1,228.4,210.8,228.4,235.6,228.4z"/>
<path class="st19" d="M260.6,236.2c0-4-0.2-7.9-0.1-11.9c0.1-4-1.2-7.4-4.1-10.3c1.7-0.2,3.4-0.5,5.1-0.5c24.9,0,49.7,0,74.6,0
	c0.8,0,1.6,0.3,2.4,0.7c-2.7,3.3-3.8,7.1-3.7,11.3c0.1,3.5,0,6.9-0.2,10.6C309.9,236.3,285.2,236.2,260.6,236.2z"/>
<path class="st20" d="M192.4,42.8c0-5.8,0-11.7,0-17.5c0-9.5,6.7-17.2,16.1-18.6c1.3-0.2,2.7-0.3,4.1-0.3c24,0,48,0,71.9,0
	c5.6,0,10.6,1.7,14.5,6c3.2,3.5,4.8,7.6,5,12.3c0.1,3.6,0,7.2-0.1,11c-4.4,0.4-8.5,0.7-12.7,0.9c-4.3,0.3-8.5,0.5-12.8,0.8
	c-6.8,0.5-13.5,1-20.3,1.4c-5.8,0.4-11.6,0.7-17.4,1.1c-8.2,0.5-16.4,1-24.6,1.5c-5.1,0.3-10.1,0.5-15.2,0.8
	C198,42.2,195.2,42.6,192.4,42.8z"/>
<path class="st21" d="M6.4,83.7c0-1.9,0-3.7,0.1-5.8c2.7-0.4,5.2-0.7,7.7-0.9c8.1-0.5,16.1-1,24.2-1.5c5.9-0.4,11.8-0.7,17.7-1.1
	c8-0.5,16-1,24-1.5c6-0.4,12-0.7,17.9-1.1c8-0.5,16-1,24-1.5c5.9-0.4,11.8-0.7,17.7-1.1c8.1-0.5,16.1-1,24.2-1.5
	c7.9-0.5,15.9-1,23.8-1.5c6-0.4,12.1-0.7,18.1-1.1c6-0.4,12-0.7,17.9-1.1c7.9-0.5,15.9-1,23.8-1.5c8.1-0.5,16.1-1,24.2-1.5
	c5.9-0.4,11.8-0.7,17.7-1.1c8.1-0.5,16.3-1,24.4-1.5c5.9-0.4,11.7-0.7,17.6-1.1c8-0.5,16-1,24-1.5c6-0.4,12.1-0.7,18.1-1.1
	c7.9-0.5,15.9-1,23.8-1.5c7.9-0.5,15.9-1,23.8-1.5c6-0.4,12.1-0.7,18.1-1.1c8-0.5,16-1,24-1.5c5.1-0.3,10.2-0.5,15.4-0.8
	c1.2-0.1,2.3-0.5,3.4-0.7c2.3,1.3,3.9,3.2,4.7,5.9c-2.2,0.4-4.3,0.7-6.4,0.8c-5.9,0.4-11.8,0.8-17.7,1.1c-7.2,0.4-14.4,0.8-21.7,1.1
	c-2.2,0.1-4.3,0.2-6.5,0.4c-6.7,0.5-13.4,1-20.1,1.5c-5.9,0.4-11.8,0.7-17.7,1.1c-8.1,0.5-16.1,1-24.2,1.5
	c-5.9,0.4-11.7,0.7-17.6,1.1c-8.1,0.5-16.3,1-24.4,1.5c-5.9,0.4-11.8,0.7-17.7,1.1c-7.9,0.5-15.9,1-23.8,1.5
	c-8.1,0.5-16.1,1-24.2,1.5c-5.9,0.4-11.8,0.7-17.7,1.1c-6.1,0.4-12.2,0.7-18.3,1.1c-7.9,0.5-15.9,1-23.8,1.5
	c-5.9,0.4-11.8,0.7-17.7,1.1c-8.1,0.5-16.3,1-24.4,1.5c-5.9,0.4-11.7,0.7-17.6,1.1c-8,0.5-16,1-24,1.5c-6,0.4-12.1,0.7-18.1,1.1
	c-7.9,0.5-15.9,1-23.8,1.5c-8.1,0.5-16.1,1-24.2,1.5c-7.1,0.4-14.2,0.8-21.3,1.1c-2.2,0.1-4.4,0.3-6.7,0.4
	C20.4,82.8,13.4,83.2,6.4,83.7z"/>
<path class="st22" d="M192.3,42.9c2.9-0.4,5.7-0.7,8.5-0.9c5.1-0.3,10.1-0.5,15.2-0.8c8.2-0.5,16.4-1,24.6-1.5
	c5.8-0.4,11.6-0.7,17.4-1.1c6.8-0.5,13.5-1,20.3-1.4c4.3-0.3,8.5-0.5,12.8-0.8c4.2-0.3,8.4-0.5,12.7-0.7c0.2,1.9,0.3,3.7,0.1,5.6
	c-0.1,1.8,0.5,2.5,2.3,2.3c0.5-0.1,1,0,1.6,0.1c-2.1,0.4-4.2,0.8-6.4,0.9c-8,0.5-16,1-24,1.5c-6,0.4-12.1,0.7-18.1,1.1
	c-8,0.5-15.9,1-23.9,1.5c-5.9,0.4-11.8,0.7-17.7,1.1c-6,0.4-12,0.7-17.9,1.1c-8.1,0.5-16.1,1-24.2,1.5c-5.9,0.4-11.8,0.7-17.7,1.1
	c-8.1,0.5-16.3,1-24.4,1.5c-5.9,0.4-11.7,0.7-17.6,1.1c-8.1,0.5-16.1,1-24.2,1.5c-5.9,0.4-11.8,0.7-17.7,1.1
	c-8.1,0.5-16.1,1-24.2,1.5c-5.1,0.3-10.2,0.5-15.4,0.8c-2.3,0.1-4.6,0.3-6.8,0.4c-7,0.5-14,1-21.1,1.4c0.1-3.1,0.4-6,2.3-8.8
	c2.3-0.2,4.3-0.3,6.4-0.5c6-0.4,12.1-0.8,18.1-1.1c7.1-0.4,14.2-0.8,21.3-1.1c2.2-0.1,4.4-0.3,6.7-0.4c7.5-0.5,14.9-1,22.4-1.4
	c4.6-0.3,9.1-0.5,13.7-0.8c7.5-0.5,14.9-1,22.4-1.4c4.4-0.3,8.9-0.5,13.3-0.8c7.6-0.5,15.3-1,22.9-1.5c4.3-0.3,8.5-0.5,12.8-0.8
	c0.4,0,0.8-0.5,1.2-0.7c6.8,0,13.7,0,20.5,0C190.9,43.5,191.6,43.2,192.3,42.9z"/>
<path class="st22" d="M6.4,72.9c0-1.4,0-2.7,0.2-4.3c4.3-0.4,8.4-0.7,12.6-0.9c5.9-0.4,11.8-0.7,17.7-1.1c8.1-0.5,16.3-1,24.4-1.5
	c5.9-0.4,11.7-0.7,17.6-1.1c8-0.5,16-1,24-1.5c6-0.4,12.1-0.7,18.1-1.1c8-0.5,15.9-1,23.9-1.5c6-0.4,12.1-0.7,18.1-1.1
	c6-0.4,12-0.7,17.9-1.1c8-0.5,15.9-1,23.9-1.5c6-0.4,12.1-0.7,18.1-1.1c8-0.5,16-1,24-1.5c5.9-0.4,11.7-0.7,17.6-1.1
	c8.1-0.5,16.3-1,24.4-1.5c5.9-0.4,11.8-0.7,17.7-1.1c8-0.5,15.9-1,23.9-1.5c8.1-0.5,16.1-1,24.2-1.5c5.9-0.4,11.8-0.8,17.7-1.1
	c7.2-0.4,14.4-0.7,21.7-1.2c0.9-0.1,1.7-0.7,2.5-1.1c24.6,0,49.1,0,73.8,0.1c-0.3,0.3-0.6,0.5-1,0.6c-3.9,0.3-7.9,0.5-11.8,0.8
	c-8.1,0.5-16.2,1-24.2,1.5c-5.9,0.4-11.8,0.7-17.8,1.1c-8,0.5-15.9,1-23.9,1.5c-8.1,0.5-16.2,1-24.2,1.5c-5.9,0.4-11.8,0.7-17.8,1.1
	c-8,0.5-16,1-24,1.5c-6,0.4-12,0.7-17.9,1.1c-8,0.5-16,1-24,1.5c-6,0.4-12.1,0.7-18.1,1.1c-8,0.5-15.9,1-23.9,1.5
	c-5.9,0.4-11.8,0.7-17.8,1.1c-6.1,0.4-12.2,0.7-18.3,1.1c-8,0.5-15.9,1-23.9,1.5c-5.9,0.4-11.8,0.7-17.8,1.1
	c-8.1,0.5-16.3,1-24.4,1.5c-5.9,0.4-11.7,0.7-17.6,1.1c-8,0.5-16,1-24,1.5C92,67.7,86,68.1,80,68.5c-8,0.5-15.9,1-23.9,1.5
	c-7.2,0.4-14.4,0.8-21.7,1.1c-2.2,0.1-4.4,0.3-6.7,0.4C20.6,72,13.5,72.5,6.4,72.9z"/>
<path class="st23" d="M6.4,63c7-0.6,14-1.1,21.1-1.6c2.3-0.2,4.6-0.3,6.8-0.4c5.1-0.3,10.2-0.5,15.4-0.8c8.1-0.5,16.1-1,24.2-1.5
	c5.9-0.4,11.8-0.7,17.7-1.1c8.1-0.5,16.1-1,24.2-1.5c5.9-0.4,11.7-0.7,17.6-1.1c8.1-0.5,16.3-1,24.4-1.5c5.9-0.4,11.8-0.7,17.7-1.1
	c8.1-0.5,16.1-1,24.2-1.5c6-0.4,12-0.7,17.9-1.1c5.9-0.4,11.8-0.7,17.7-1.1c7.9-0.5,15.9-1,23.9-1.5c6-0.4,12.1-0.7,18.1-1.1
	c8-0.5,16-1,24-1.5c2.2-0.1,4.3-0.5,6.6-0.9c21.6-0.1,43.2-0.1,64.9,0c-2,0.4-4.2,0.8-6.4,0.9c-8,0.5-16,1-24,1.5
	c-6,0.4-12.1,0.7-18.1,1.1c-8,0.5-15.9,1-23.9,1.5c-5.9,0.4-11.8,0.7-17.8,1.1c-8.1,0.5-16.3,1-24.4,1.5c-5.9,0.4-11.7,0.7-17.6,1.1
	c-8,0.5-16,1-24,1.5c-6,0.4-12.1,0.7-18.1,1.1c-8,0.5-15.9,1-23.9,1.5c-8.1,0.5-16.2,1-24.2,1.5c-5.9,0.4-11.8,0.8-17.8,1.1
	c-7.1,0.4-14.2,0.8-21.3,1.1c-2.2,0.1-4.4,0.3-6.7,0.4c-7.5,0.5-15,1-22.6,1.4c-4.5,0.3-9,0.5-13.5,0.8c-6.8,0.5-13.5,1-20.3,1.4
	c-5.8,0.4-11.6,0.7-17.4,1.1c-8.3,0.5-16.5,1-24.8,1.5c0-0.6,0-1.3,0-2.1C6.3,64.2,6.3,63.7,6.4,63z"/>
<path class="st22" d="M482.5,47.5c-1.1,0.4-2.2,0.8-3.4,0.8c-5.1,0.3-10.2,0.5-15.4,0.8c-8,0.5-16,1-24,1.5
	c-6,0.4-12.1,0.7-18.1,1.1c-7.9,0.5-15.9,1-23.8,1.5c-7.9,0.5-15.9,1-23.8,1.5c-6,0.4-12.1,0.7-18.1,1.1c-8,0.5-16,1-24,1.5
	c-5.9,0.4-11.7,0.7-17.6,1.1c-8.1,0.5-16.3,1-24.4,1.5c-5.9,0.4-11.8,0.7-17.7,1.1c-8.1,0.5-16.1,1-24.2,1.5
	c-7.9,0.5-15.9,1-23.8,1.5c-6,0.4-12,0.7-17.9,1.1c-6,0.4-12.1,0.7-18.1,1.1c-7.9,0.5-15.9,1-23.8,1.5c-8.1,0.5-16.1,1-24.2,1.5
	c-5.9,0.4-11.8,0.7-17.7,1.1c-8,0.5-16,1-24,1.5c-6,0.4-12,0.7-17.9,1.1c-8,0.5-16,1-24,1.5c-5.9,0.4-11.8,0.7-17.7,1.1
	c-8.1,0.5-16.1,1-24.2,1.5c-2.5,0.2-5,0.4-7.7,0.7c-0.2-0.9-0.2-1.7,0-2.8c6.3-0.5,12.4-0.9,18.5-1.3c6.2-0.4,12.5-0.8,18.7-1.1
	c5.9-0.4,11.8-0.7,17.7-1.1c7.9-0.5,15.9-1,23.8-1.5c6.1-0.4,12.2-0.7,18.3-1.1c5.9-0.4,11.8-0.7,17.7-1.1c7.9-0.5,15.9-1,23.8-1.5
	c8.1-0.5,16.1-1,24.2-1.5c5.9-0.4,11.8-0.7,17.7-1.1c8.1-0.5,16.3-1,24.4-1.5c5.9-0.4,11.7-0.7,17.6-1.1c8-0.5,16-1,24-1.5
	c6-0.4,12.1-0.7,18.1-1.1c7.9-0.5,15.9-1,23.8-1.5c5.9-0.4,11.8-0.7,17.7-1.1c8.1-0.5,16.3-1,24.4-1.5c5.9-0.4,11.7-0.7,17.6-1.1
	c8-0.5,16-1,24-1.5c7.2-0.4,14.4-0.8,21.7-1.1c2.2-0.1,4.4-0.3,6.7-0.4c7.1-0.5,14.2-1,21.2-1.4c4.9-0.3,9.7-0.5,14.6-0.8
	c7.6-0.5,15.3-1,22.9-1.5c3.6-0.2,7.1-0.5,10.7-0.8c0.5,0,0.9-0.5,1.4-0.7C479.5,45.8,481,46.6,482.5,47.5z"/>
<path class="st23" d="M6.4,87.4c0-0.8,0-1.5,0.1-2.4c1-0.3,1.7-0.5,2.5-0.5c5.9-0.4,11.8-0.8,17.8-1.1c8-0.5,15.9-1,23.9-1.5
	c8.1-0.5,16.2-1,24.2-1.5c5.9-0.4,11.8-0.7,17.8-1.1c8-0.5,16-1,24-1.5c6-0.4,12-0.7,17.9-1.1c8-0.5,16-1,24-1.5
	c6-0.4,12.1-0.7,18.1-1.1c8-0.5,15.9-1,23.9-1.5c5.9-0.4,11.8-0.7,17.8-1.1c8.1-0.5,16.3-1,24.4-1.5c5.9-0.4,11.7-0.7,17.6-1.1
	c8-0.5,16-1,24-1.5c6-0.4,12.1-0.7,18.1-1.1c8-0.5,15.9-1,23.9-1.5c5.9-0.4,11.8-0.7,17.8-1.1c6.1-0.4,12.2-0.7,18.3-1.1
	c8-0.5,15.9-1,23.9-1.5c7.2-0.4,14.4-0.8,21.7-1.1c2.2-0.1,4.4-0.3,6.7-0.4c7-0.5,13.9-1,20.9-1.4c4.9-0.3,9.8-0.5,14.6-0.8
	c6.9-0.4,13.8-1,20.7-1.4c5.1-0.3,10.1-0.5,15.2-0.8c0.6,0,1.2-0.5,1.8-0.7c0.4,0.8,0.9,1.6,1.2,2.5c-1.2,0.4-2.3,0.7-3.4,0.8
	c-6,0.4-12.1,0.8-18.1,1.1c-6,0.4-12.1,0.7-18.1,1.1c-8,0.5-15.9,1-23.9,1.5c-6.1,0.4-12.2,0.7-18.3,1.1c-5.9,0.4-11.8,0.7-17.8,1.1
	c-8,0.5-15.9,1-23.9,1.5c-6,0.4-12.1,0.7-18.1,1.1c-8,0.5-16,1-24,1.5c-5.9,0.4-11.7,0.7-17.6,1.1c-8.1,0.5-16.3,1-24.4,1.5
	c-5.9,0.4-11.8,0.7-17.8,1.1c-8,0.5-15.9,1-23.9,1.5c-8.1,0.5-16.2,1-24.2,1.5c-5.9,0.4-11.8,0.7-17.8,1.1c-8,0.5-15.9,1-23.9,1.5
	c-8.1,0.5-16.2,1-24.2,1.5c-5.9,0.4-11.8,0.7-17.8,1.1c-6.1,0.4-12.2,0.7-18.3,1.1c-5.9,0.4-11.8,0.7-17.8,1.1c-8,0.5-16,1-24,1.5
	c-6,0.4-12,0.7-17.9,1.1c-8,0.5-16,1-24,1.5c-5.1,0.3-10.2,0.5-15.4,0.8C11.9,86.9,9.1,87.2,6.4,87.4z"/>
<path class="st21" d="M6.4,96.4c0-2.5,0-5,0.2-7.6c4.1-0.4,7.9-0.7,11.8-0.9c5.9-0.4,11.8-0.7,17.8-1.1c6.1-0.4,12.2-0.7,18.3-1.1
	c5.9-0.4,11.8-0.7,17.8-1.1c8-0.5,16-1,24-1.5c6-0.4,12-0.7,17.9-1.1c8-0.5,16-1,24-1.5c6-0.4,12.1-0.7,18.1-1.1
	c8-0.5,15.9-1,23.9-1.5c5.9-0.4,11.8-0.7,17.8-1.1c8.1-0.5,16.3-1,24.4-1.5c5.9-0.4,11.7-0.7,17.6-1.1c8.1-0.5,16.2-1,24.2-1.5
	c5.9-0.4,11.8-0.7,17.8-1.1c8.1-0.5,16.1-1,24.2-1.5c6-0.4,12-0.7,17.9-1.1c8-0.5,16-1,24-1.5c5.9-0.4,11.7-0.7,17.6-1.1
	c8.2-0.5,16.4-1,24.6-1.5c5.8-0.4,11.6-0.7,17.4-1.1c8.1-0.5,16.1-1,24.2-1.5c5.2-0.3,10.4-0.5,15.6-0.8c2.2-0.1,4.4-0.3,6.7-0.4
	c6.9-0.5,13.8-1,20.7-1.4c4.4-0.3,8.8-0.5,13.1-0.8c0.5,0,0.9-0.5,1.4-0.7c0.1,0.6,0.3,1.3,0.2,2.1c-1.6,0.4-3,0.7-4.4,0.8
	c-2.9,0.1-5.9,0.1-8.8,0.2c-3.8,0.2-7.6,0.4-11.3,0.7c-1.3,0.1-2.5,0.5-3.8,0.6c-3,0.2-6.1,0.1-9.2,0.3c-2.9,0.2-5.8,0.7-8.8,0.9
	c-3.8,0.3-7.6,0.5-11.3,0.7c-0.4,0-0.7,0-1.1,0c-3.1,0.1-6.1,0.2-9.2,0.4c-2.7,0.2-5.5,0.7-8.2,0.8c-2.9,0.2-5.9,0-8.8,0.2
	c-3.9,0.2-7.8,0.4-11.7,0.7c-1.2,0.1-2.4,0.6-3.6,0.6c-3,0.1-6,0-9,0.1c-3.8,0.2-7.6,0.4-11.3,0.7c-1.3,0.1-2.5,0.5-3.8,0.6
	c-3,0.1-6,0.1-9,0.3c-2.8,0.2-5.6,0.7-8.4,0.9c-4,0.3-7.9,0.5-11.9,0.8c-0.4,0-0.7-0.1-1.1-0.1c-1.3,0-2.6,0.1-3.9,0.2
	c-0.7,0-1.5,0.1-2.2,0.2c-3.1,0.2-6.2,0.3-9.3,0.5c-2.7,0.2-5.4,0.6-8,0.7c-2.9,0.2-5.9,0.1-8.8,0.2c-1.2,0-2.3,0.4-3.5,0.5
	c-3.1,0.2-6.1,0.2-9.2,0.4c-2.7,0.2-5.5,0.6-8.2,0.8c-4,0.3-7.9,0.5-11.9,0.7c-0.3,0-0.6-0.1-0.9,0c-3.1,0.1-6.1,0.2-9.2,0.4
	c-2.7,0.2-5.5,0.6-8.2,0.8c-3.8,0.3-7.6,0.5-11.3,0.7c-0.4,0-0.7,0-1.1,0c-3.1,0.1-6.2,0.2-9.3,0.4c-2.7,0.2-5.5,0.6-8.2,0.8
	c-3.8,0.3-7.7,0.4-11.5,0.7c-0.4,0-0.7-0.1-1.1,0c-3.1,0.1-6.2,0.2-9.3,0.5c-2.7,0.2-5.4,0.6-8,0.7c-2.9,0.2-5.9,0.1-8.8,0.2
	c-1.2,0-2.3,0.4-3.5,0.5c-3.2,0.2-6.4,0.2-9.5,0.5c-2.8,0.2-5.6,0.6-8.4,0.7c-2.9,0.2-5.9,0-8.8,0.2c-3.8,0.2-7.6,0.4-11.3,0.7
	c-1.3,0.1-2.5,0.5-3.8,0.6c-3,0.1-6,0.1-9,0.3c-2.8,0.2-5.6,0.7-8.4,0.9c-4,0.3-7.9,0.5-11.9,0.8c-0.3,0-0.6-0.1-0.9,0
	c-3.1,0.1-6.2,0.1-9.3,0.3c-2.7,0.2-5.5,0.7-8.2,0.8c-2.9,0.2-5.8,0.1-8.7,0.2c-0.9,0-2.1,0-2.4,1.4c-5.5,0-10.9,0-16.2-0.1
	c-1.1-1.4-2.1-1.1-3.1,0.1c-1.2,0-2.2,0-3.2,0c-0.3,0.1-0.5,0.3-0.8,0.4c-0.5,0-0.9,0-1.4,0c-0.3,0.1-0.5,0.3-0.8,0.4
	C47.2,89,41.7,90.9,36.8,94c-0.4,0.3-0.9,0.3-1.5,0.5c-2.8,0.1-5.4,0.2-8.1,0.4C20.2,95.4,13.3,95.9,6.4,96.4z"/>
<path class="st24" d="M478,44.9c-0.4,0.3-0.8,0.8-1.3,0.8c-3.6,0.3-7.1,0.5-10.7,0.8c-7.6,0.5-15.3,1-22.9,1.5
	c-4.9,0.3-9.7,0.5-14.6,0.8c-7.1,0.4-14.2,1-21.2,1.4c-2.2,0.1-4.4,0.3-6.7,0.4c-7.2,0.4-14.4,0.7-21.7,1.1c-8,0.5-16,1-24,1.5
	c-5.9,0.4-11.7,0.7-17.6,1.1c-8.1,0.5-16.3,1-24.4,1.5c-5.9,0.4-11.8,0.7-17.7,1.1c-7.9,0.5-15.9,1-23.8,1.5
	c-6,0.4-12.1,0.7-18.1,1.1c-8,0.5-16,1-24,1.5c-5.9,0.4-11.7,0.7-17.6,1.1c-8.1,0.5-16.3,1-24.4,1.5c-5.9,0.4-11.8,0.7-17.7,1.1
	c-8.1,0.5-16.1,1-24.2,1.5c-8,0.5-15.9,1-23.8,1.5c-5.9,0.4-11.8,0.7-17.7,1.1c-6.1,0.4-12.2,0.7-18.3,1.1c-8,0.5-15.9,1-23.8,1.5
	c-5.9,0.4-11.8,0.7-17.7,1.1c-6.2,0.4-12.5,0.8-18.7,1.1c-6.1,0.4-12.2,0.7-18.5,1.1c-0.2-0.5-0.2-1-0.2-1.7
	c7.2-0.6,14.3-1.1,21.4-1.6c2.2-0.1,4.4-0.3,6.7-0.4c7.2-0.4,14.4-0.7,21.7-1.1c8-0.5,15.9-1,23.9-1.5c6-0.4,12.1-0.7,18.1-1.1
	c8-0.5,16-1,24-1.5c5.9-0.4,11.7-0.7,17.6-1.1c8.1-0.5,16.3-1,24.4-1.5c5.9-0.4,11.8-0.7,17.8-1.1c8-0.5,15.9-1,23.9-1.5
	c6.1-0.4,12.2-0.7,18.3-1.1c5.9-0.4,11.8-0.7,17.8-1.1c8-0.5,15.9-1,23.9-1.5c6-0.4,12.1-0.7,18.1-1.1c8-0.5,16-1,24-1.5
	c6-0.4,12-0.7,17.9-1.1c8-0.5,16-1,24-1.5c5.9-0.4,11.8-0.7,17.8-1.1c8.1-0.5,16.2-1,24.2-1.5c8-0.5,15.9-1,23.9-1.5
	c5.9-0.4,11.8-0.7,17.8-1.1c8.1-0.5,16.2-1,24.2-1.5c3.9-0.2,7.9-0.5,11.8-0.8c0.4,0,0.8-0.3,1.2-0.6C473.1,44,475.5,44.4,478,44.9z
	"/>
<path class="st22" d="M78.9,87c0.1-1.4,1.3-1.4,2.2-1.4c2.9-0.1,5.8,0,8.7-0.2c2.7-0.2,5.5-0.6,8.2-0.8c3.1-0.2,6.2-0.2,9.3-0.3
	c0.3,0,0.6,0.1,0.9,0c4-0.2,7.9-0.5,11.9-0.8c2.8-0.2,5.6-0.7,8.4-0.9c3-0.2,6-0.1,9-0.3c1.3-0.1,2.5-0.5,3.8-0.6
	c3.8-0.3,7.5-0.6,11.3-0.7c2.9-0.1,5.9,0,8.8-0.2c2.8-0.1,5.6-0.5,8.4-0.7c3.2-0.2,6.4-0.3,9.5-0.5c1.2-0.1,2.3-0.5,3.5-0.5
	c2.9-0.1,5.9,0,8.8-0.2c2.7-0.1,5.4-0.6,8-0.7c3.1-0.2,6.2-0.3,9.3-0.5c0.4,0,0.7,0.1,1.1,0c3.8-0.2,7.7-0.4,11.5-0.7
	c2.7-0.2,5.5-0.6,8.2-0.8c3.1-0.2,6.2-0.3,9.3-0.4c0.4,0,0.7,0,1.1,0c3.8-0.2,7.6-0.4,11.3-0.7c2.7-0.2,5.5-0.6,8.2-0.8
	c3-0.2,6.1-0.3,9.2-0.4c0.3,0,0.6,0.1,0.9,0c4-0.2,7.9-0.4,11.9-0.7c2.7-0.2,5.5-0.7,8.2-0.8c3-0.2,6.1-0.2,9.2-0.4
	c1.2-0.1,2.3-0.5,3.5-0.5c2.9-0.1,5.9,0,8.8-0.2c2.7-0.1,5.4-0.5,8-0.7c3.1-0.2,6.2-0.3,9.3-0.5c0.7,0,1.5-0.1,2.2-0.2
	c1.3-0.1,2.6-0.1,3.9-0.2c0.4,0,0.7,0.1,1.1,0.1c4-0.2,7.9-0.5,11.9-0.8c2.8-0.2,5.6-0.7,8.4-0.9c3-0.2,6-0.1,9-0.3
	c1.3-0.1,2.5-0.5,3.8-0.6c3.8-0.3,7.5-0.6,11.3-0.7c3-0.1,6,0,9-0.1c1.2,0,2.4-0.5,3.6-0.6c3.9-0.3,7.8-0.6,11.7-0.7
	c2.9-0.1,5.9,0,8.8-0.2c2.7-0.2,5.5-0.6,8.2-0.8c3-0.2,6.1-0.3,9.2-0.4c0.4,0,0.7,0,1.1,0c3.8-0.2,7.6-0.4,11.3-0.7
	c2.9-0.2,5.8-0.7,8.8-0.9c3-0.2,6.1-0.1,9.2-0.3c1.3-0.1,2.5-0.5,3.8-0.6c3.8-0.3,7.5-0.6,11.3-0.7c2.9-0.1,5.9-0.1,8.8-0.2
	c1.4-0.1,2.8-0.4,4.4-0.6c0.2,0,0.3,0,0.4,0c0.1,0.6,0.1,1.3-0.1,2.1c-1.3,0-2.5-0.2-3.7-0.2c-4.7,0.3-9.4,0.7-14,1.1
	c-6.1,0.4-12.2,0.8-18.3,1.1c-7.9,0.5-15.9,1-23.8,1.5c-5.9,0.4-11.8,0.7-17.7,1.1c-8.1,0.5-16.3,1-24.4,1.5
	c-5.9,0.4-11.7,0.7-17.6,1.1c-8,0.5-16,1-24,1.5c-6,0.4-12.1,0.7-18.1,1.1c-7.9,0.5-15.9,1-23.8,1.5c-7.9,0.5-15.9,1-23.8,1.5
	c-6,0.4-12.1,0.7-18.1,1.1c-8,0.5-16,1-24,1.5c-6,0.4-12,0.7-17.9,1.1c-8,0.5-16,1-24,1.5c-5.9,0.4-11.8,0.7-17.7,1.1
	c-6.1,0.4-12.2,0.7-18.3,1.1c-5.9,0.4-11.8,0.7-17.7,1.1c-6,0.4-12,0.8-17.9,1.1c-7.2,0.4-14.4,0.7-21.6,1.2c-0.7,0-1.4,0.7-2.3,1.1
	C93.3,87.1,86.1,87,78.9,87z"/>
<path class="st20" d="M6.3,67.1c8.3-0.7,16.5-1.2,24.8-1.7c5.8-0.4,11.6-0.7,17.4-1.1c6.8-0.5,13.5-1,20.3-1.4
	c4.5-0.3,9-0.5,13.5-0.8c7.5-0.5,15-1,22.6-1.4c2.2-0.1,4.4-0.3,6.7-0.4c7.1-0.4,14.2-0.7,21.3-1.1c5.9-0.3,11.8-0.7,17.8-1.1
	c8.1-0.5,16.2-1,24.2-1.5c8-0.5,15.9-1,23.9-1.5c6-0.4,12.1-0.7,18.1-1.1c8-0.5,16-1,24-1.5c5.9-0.4,11.7-0.7,17.6-1.1
	c8.1-0.5,16.3-1,24.4-1.5c5.9-0.4,11.8-0.7,17.8-1.1c8-0.5,15.9-1,23.9-1.5c6-0.4,12.1-0.7,18.1-1.1c8-0.5,16-1,24-1.5
	c2.2-0.1,4.3-0.5,6.6-0.9c7.8-0.1,15.4-0.1,23.3-0.1c-0.7,0.4-1.5,1-2.4,1.1c-7.2,0.5-14.4,0.8-21.7,1.2c-5.9,0.3-11.8,0.7-17.7,1.1
	c-8.1,0.5-16.1,1-24.2,1.5c-8,0.5-15.9,1-23.9,1.5c-5.9,0.4-11.8,0.7-17.7,1.1c-8.1,0.5-16.3,1-24.4,1.5c-5.9,0.4-11.7,0.7-17.6,1.1
	c-8,0.5-16,1-24,1.5c-6,0.4-12.1,0.7-18.1,1.1c-8,0.5-15.9,1-23.9,1.5c-6,0.4-12,0.7-17.9,1.1c-6,0.4-12.1,0.7-18.1,1.1
	c-8,0.5-15.9,1-23.9,1.5c-6,0.4-12.1,0.7-18.1,1.1c-8,0.5-16,1-24,1.5c-5.9,0.4-11.7,0.7-17.6,1.1c-8.1,0.5-16.3,1-24.4,1.5
	C30.9,67,25,67.4,19.1,67.7C15,68,10.8,68.2,6.5,68.5C6.3,68.1,6.3,67.7,6.3,67.1z"/>
<path class="st24" d="M489.3,57.9c-0.5,0.4-0.9,0.8-1.4,0.9c-4.4,0.3-8.8,0.5-13.1,0.8c-6.9,0.5-13.8,1-20.7,1.4
	c-2.2,0.2-4.4,0.3-6.7,0.4c-5.2,0.3-10.4,0.5-15.6,0.8c-8.1,0.5-16.2,1-24.2,1.5c-5.8,0.4-11.6,0.7-17.4,1.1
	c-8.2,0.5-16.4,1-24.6,1.5c-5.9,0.4-11.7,0.7-17.6,1.1c-8,0.5-16,1-24,1.5c-6,0.4-12,0.7-17.9,1.1c-8.1,0.5-16.1,1-24.2,1.5
	c-5.9,0.4-11.8,0.7-17.8,1.1c-8.1,0.5-16.2,1-24.2,1.5c-5.9,0.4-11.7,0.7-17.6,1.1c-8.1,0.5-16.3,1-24.4,1.5
	c-5.9,0.4-11.8,0.7-17.8,1.1c-8,0.5-15.9,1-23.9,1.5c-6,0.4-12.1,0.7-18.1,1.1c-8,0.5-16,1-24,1.5c-6,0.4-12,0.7-17.9,1.1
	c-8,0.5-16,1-24,1.5c-5.9,0.4-11.8,0.7-17.8,1.1c-6.1,0.4-12.2,0.7-18.3,1.1c-5.9,0.4-11.8,0.7-17.8,1.1c-3.9,0.2-7.8,0.5-11.8,0.7
	c-0.2-0.3-0.2-0.6-0.2-1c2.8-0.4,5.5-0.7,8.3-0.9c5.1-0.3,10.2-0.5,15.4-0.8c8-0.5,16-1,24-1.5c6-0.4,12-0.7,17.9-1.1
	c8-0.5,16-1,24-1.5c5.9-0.4,11.8-0.7,17.8-1.1c6.1-0.4,12.2-0.7,18.3-1.1c5.9-0.4,11.8-0.7,17.8-1.1c8.1-0.5,16.2-1,24.2-1.5
	c8-0.5,15.9-1,23.9-1.5c5.9-0.4,11.8-0.7,17.8-1.1c8.1-0.5,16.2-1,24.2-1.5c8-0.5,15.9-1,23.9-1.5c5.9-0.4,11.8-0.7,17.8-1.1
	c8.1-0.5,16.3-1,24.4-1.5c5.9-0.4,11.7-0.7,17.6-1.1c8-0.5,16-1,24-1.5c6-0.4,12.1-0.7,18.1-1.1c8-0.5,15.9-1,23.9-1.5
	c5.9-0.4,11.8-0.7,17.8-1.1c6.1-0.4,12.2-0.7,18.3-1.1c8-0.5,15.9-1,23.9-1.5c6-0.4,12.1-0.7,18.1-1.1c6-0.4,12.1-0.7,18.1-1.1
	c1.1-0.1,2.2-0.5,3.4-0.7C489.2,57.2,489.2,57.5,489.3,57.9z"/>
<path class="st22" d="M487.8,54.2c-0.6,0.4-1.2,0.8-1.8,0.9c-5.1,0.3-10.1,0.5-15.2,0.8c-6.9,0.4-13.8,1-20.7,1.4
	c-4.9,0.3-9.8,0.5-14.6,0.8c-7,0.4-13.9,1-20.9,1.4c-2.2,0.2-4.4,0.3-6.7,0.4c-7.2,0.4-14.4,0.7-21.7,1.1c-8,0.5-15.9,1-23.9,1.5
	c-6.1,0.4-12.2,0.7-18.3,1.1c-5.9,0.4-11.8,0.7-17.8,1.1c-8,0.5-15.9,1-23.9,1.5c-6,0.4-12.1,0.7-18.1,1.1c-8,0.5-16,1-24,1.5
	c-5.9,0.4-11.7,0.7-17.6,1.1c-8.1,0.5-16.3,1-24.4,1.5c-5.9,0.4-11.8,0.7-17.8,1.1c-8,0.5-15.9,1-23.9,1.5c-6,0.4-12.1,0.7-18.1,1.1
	c-8,0.5-16,1-24,1.5c-6,0.4-12,0.7-17.9,1.1c-8,0.5-16,1-24,1.5c-5.9,0.4-11.8,0.7-17.8,1.1c-8.1,0.5-16.2,1-24.2,1.5
	c-8,0.5-15.9,1-23.9,1.5c-5.9,0.4-11.8,0.7-17.8,1.1c-0.8,0.1-1.6,0.2-2.5,0.4c-0.2-0.3-0.2-0.6-0.2-1c7-0.6,14-1.1,21.1-1.6
	c2.2-0.2,4.4-0.3,6.7-0.4c7.1-0.4,14.2-0.7,21.3-1.1c8.1-0.5,16.1-1,24.2-1.5c7.9-0.5,15.9-1,23.8-1.5c6-0.4,12.1-0.7,18.1-1.1
	c8-0.5,16-1,24-1.5c5.9-0.4,11.7-0.7,17.6-1.1c8.1-0.5,16.3-1,24.4-1.5c5.9-0.4,11.8-0.7,17.7-1.1c7.9-0.5,15.9-1,23.8-1.5
	c6.1-0.4,12.2-0.7,18.3-1.1c5.9-0.4,11.8-0.7,17.7-1.1c8.1-0.5,16.1-1,24.2-1.5c7.9-0.5,15.9-1,23.8-1.5c5.9-0.4,11.8-0.7,17.7-1.1
	c8.1-0.5,16.3-1,24.4-1.5c5.9-0.4,11.7-0.7,17.6-1.1c8.1-0.5,16.1-1,24.2-1.5c5.9-0.4,11.8-0.7,17.7-1.1c6.7-0.5,13.4-1,20.1-1.5
	c2.2-0.2,4.3-0.3,6.5-0.4c7.2-0.4,14.4-0.7,21.7-1.1c5.9-0.3,11.8-0.7,17.7-1.1c2.1-0.1,4.2-0.4,6.4-0.7
	C487.5,53.7,487.6,53.9,487.8,54.2z"/>
<path class="st23" d="M10,51.3c2.7-4.3,6.9-6.5,11.7-7.4c1.9-0.3,3.8-0.4,5.7-0.4c34.1,0,68.3,0,102.5,0.1c-0.3,0.3-0.6,0.6-1,0.6
	c-5.8,0.4-11.6,0.8-17.4,1.1c-8,0.5-15.9,1-23.9,1.5c-5.2,0.3-10.4,0.5-15.6,0.8c-2.3,0.1-4.6,0.3-6.8,0.4c-7,0.5-13.9,1-20.9,1.4
	c-4.9,0.3-9.7,0.5-14.6,0.8C23.2,50.6,16.6,51,10,51.3z"/>
<path class="st20" d="M10,51.4c6.7-0.4,13.3-0.8,19.9-1.2c4.9-0.3,9.8-0.5,14.6-0.8c7-0.4,13.9-1,20.9-1.4c2.3-0.2,4.6-0.3,6.8-0.4
	c5.2-0.3,10.4-0.5,15.6-0.8c8-0.5,15.9-1,23.9-1.5c5.8-0.4,11.6-0.7,17.4-1.1c0.4,0,0.8-0.3,1.2-0.6c13.1-0.1,26.1-0.1,39.3-0.1
	c-0.2,0.2-0.6,0.7-1,0.7c-4.3,0.3-8.5,0.5-12.8,0.8c-7.6,0.5-15.3,1-22.9,1.5c-4.4,0.3-8.9,0.5-13.3,0.8c-7.5,0.5-14.9,1-22.4,1.4
	c-4.6,0.3-9.1,0.5-13.7,0.8c-7.5,0.5-14.9,1-22.4,1.4c-2.2,0.1-4.4,0.3-6.7,0.4c-7.1,0.4-14.2,0.7-21.3,1.1
	c-6,0.3-12.1,0.7-18.1,1.1c-2,0.1-4.1,0.2-6.3,0.4C9,53.1,9.4,52.3,10,51.4z"/>
<path class="st25" d="M445,155.1c-56.7,0-113.3,0-170,0c-74.4,0-148.9,0-223.5-0.2c-0.4-6.2-0.5-12.2-0.9-18.1
	c-0.5-6.9,5.1-12.9,12.9-12.9c122.8,0,245.5,0,368.3,0c1.8,0,3.7,0.3,5.5,0.8c3.3,0.8,5.5,3.2,7.4,6c0.4,2.1,1.1,4,1,5.9
	C445.6,142.8,445.2,149,445,155.1z"/>
<path class="st26" d="M444.6,130.6c-1.9-2.7-4.1-5-7.4-5.9c-1.8-0.5-3.6-0.8-5.5-0.8c-122.8,0-245.5,0-368.3,0
	c-7.8,0-13.3,6-12.9,12.9c0.4,6,0.5,12,0.8,18.1c-2.9,0.2-5.7,0.2-8.8,0.2c-0.2,0-0.2,0-0.2-0.2c-0.4-5.1-0.8-10-1-14.9
	c-0.1-2.2,0-4.5,0.2-6.7c0.4-3.8,2.2-7,4.3-10.3c0.3-0.2,0.4-0.3,0.5-0.4c4.1-5.2,9.5-7.7,16.1-7.7c39.2,0,78.4,0,117.7,0
	c28,0,55.7,0,83.7,0c24.5,0,48.8,0,73.3,0c1.8,0,3.4,0,5.2,0c15.2,0,30.2,0,45.4,0c15.8,0,31.5,0,47.1,0c4.3,0,8.2,1.4,11.5,4.6
	c0.7,1,1.4,1.9,2.1,2.9c1.3,2.1,2.6,4.1,4.1,6.5c-2.2,0.2-3.9,0.3-5.5,0.6C446.3,129.7,445.5,130.2,444.6,130.6z"/>
<path class="st27" d="M444.6,130.7c0.8-0.5,1.6-1.1,2.5-1.2c1.6-0.3,3.3-0.3,5.5-0.6c-1.5-2.4-2.8-4.5-4.1-6.5
	c-0.6-1-1.4-1.8-1.9-2.8c5.6,4.5,8.6,10.4,8.4,17.6c-0.1,6-0.7,12-1.1,17.9c0,0,0,0,0,0c-2.9,0-5.7,0-8.8,0
	c0.1-6.2,0.4-12.3,0.5-18.5C445.7,134.7,445,132.8,444.6,130.7z"/>
<path class="st11" d="M52.8,168.5c-0.1-0.1-0.1-0.2-0.3-0.3c-0.1-0.7-0.1-1.3-0.1-2.1c1.3-0.4,2.6-0.9,3.9-0.9
	c127.9,0,255.7,0,383.6,0c1.2,0,2.4,0.4,3.7,0.7c0.1,0.8,0,1.6-0.3,2.5C313.1,168.5,182.9,168.5,52.8,168.5z"/>
<path class="st28" d="M53.4,179c-0.2-1-0.2-2,0-3.2c130-0.2,259.9-0.2,389.7-0.2c0,1,0,2,0,3.2c-17.3,0.2-34.5,0.2-51.7,0.2
	C278.8,179,166.2,179,53.4,179z"/>
<path class="st24" d="M490,71.1c0,22,0.1,43.9,0,65.9c0,5.9-2.6,10.9-7.6,14.3c-0.1-1.5,0-2.8,0-4.2c0.1-5.5,0.7-11,0-16.4
	c-1.2-9-4.4-17.3-10.2-24.5c-2.7-3.4-5.4-6.8-8.8-9.4c-7.6-5.9-16.3-9.5-25.9-9.5c-48.7-0.2-97.4-0.1-146.3-0.1
	c-15.4,0-30.7,0-45.9-0.2c0.7-0.4,1.3-0.9,2-0.9c6-0.4,12.1-0.8,18.1-1.1c7.9-0.5,15.9-1,23.8-1.5c5.9-0.4,11.8-0.7,17.7-1.1
	c6.1-0.4,12.2-0.7,18.3-1.1c7.9-0.5,15.9-1,23.8-1.5c5.9-0.4,11.8-0.7,17.7-1.1c6.1-0.4,12.2-0.7,18.3-1.1c7.9-0.5,15.9-1,23.8-1.5
	c5.9-0.4,11.8-0.7,17.7-1.1c6.1-0.4,12.2-0.8,18.3-1.1c7.1-0.4,14.2-0.8,21.3-1.1c2.2-0.1,4.4-0.3,6.7-0.4
	C478.6,71.8,484.3,71.4,490,71.1z"/>
<path class="st29" d="M291.3,87.1c48.7,0,97.4-0.1,146.1,0.1c9.6,0,18.3,3.6,25.9,9.5c3.4,2.7,6.1,6.1,8.8,9.4
	c5.8,7.2,9,15.5,10.2,24.5c0.7,5.4,0.1,10.9,0,16.4c0,1.4-0.1,2.7-0.1,4.3c-2.7,2.4-6,3.3-9.5,3.9c-0.1,0-0.2,0-0.2-0.2
	c0.4-5.2,0.9-10.3,1.1-15.3c0.4-12.6-3.7-23.4-12.7-32.4c-7.3-7.3-16-10.8-26.2-10.9c-4.4,0-8.8,0-13.1,0c-44.7,0-89.4,0-134,0
	c-18,0-35.9,0-53.9,0c-20.8,0-41.7,0-62.5-0.2c0.7-0.5,1.4-1.2,2.1-1.3c4-0.3,8-0.6,12-0.8c5.9-0.4,11.8-0.7,17.7-1.1
	c8.1-0.5,16.1-1,24.2-1.5c7.1-0.4,14.2-0.8,21.3-1.1c2.3-0.1,4.6-0.3,6.8-0.4c7.4-0.5,14.8-1,22.2-1.4c4.2-0.3,8.5-0.5,12.7-0.8
	C290.6,87.7,290.9,87.3,291.3,87.1z"/>
<path class="st24" d="M100.8,87c0.7-0.4,1.4-1,2.1-1c7.2-0.4,14.4-0.8,21.6-1.2c6-0.3,12-0.7,17.9-1.1c5.9-0.4,11.8-0.7,17.7-1.1
	c6.1-0.4,12.2-0.7,18.3-1.1c5.9-0.4,11.8-0.7,17.7-1.1c8-0.5,16-1,24-1.5c6-0.4,12-0.7,17.9-1.1c8-0.5,16-1,24-1.5
	c6-0.4,12.1-0.7,18.1-1.1c7.9-0.5,15.9-1,23.8-1.5c7.9-0.5,15.9-1,23.8-1.5c6-0.4,12.1-0.7,18.1-1.1c8-0.5,16-1,24-1.5
	c5.9-0.4,11.7-0.7,17.6-1.1c8.1-0.5,16.3-1,24.4-1.5c5.9-0.4,11.8-0.7,17.7-1.1c7.9-0.5,15.9-1,23.8-1.5c6.1-0.4,12.2-0.7,18.3-1.1
	c4.7-0.3,9.3-0.8,14-1.1c1.2-0.1,2.3,0.2,3.6,0.3c0.2,1.9,0.2,3.7,0,5.8c-3.1,0.4-5.9,0.7-8.8,0.9c-8.1,0.5-16.1,1-24.2,1.5
	c-5.9,0.4-11.8,0.7-17.7,1.1c-8.1,0.5-16.3,1-24.4,1.5c-5.9,0.4-11.7,0.7-17.6,1.1c-8,0.5-16,1-24,1.5c-6,0.4-12.1,0.7-18.1,1.1
	c-8,0.5-16,1-24,1.5c-5.9,0.4-11.7,0.7-17.6,1.1c-8.1,0.5-16.3,1-24.4,1.5c-5.9,0.4-11.8,0.8-17.7,1.1c-7.2,0.4-14.4,0.8-21.6,1.1
	c-2.2,0.1-4.4,0.3-6.7,0.4c-7.5,0.5-14.9,1-22.4,1.4c-4.2,0.3-8.4,0.5-12.6,0.8c-0.4,0-0.8,0.5-1.3,0.8c-0.9,0.1-1.7,0.3-2.5,0.3
	c-7.4,0-14.8,0-22.4,0C154.7,87.1,127.8,87.1,100.8,87z"/>
<path class="st22" d="M206.9,86.7c0.4-0.2,0.7-0.7,1.1-0.7c4.2-0.3,8.4-0.5,12.6-0.8c7.5-0.5,14.9-1,22.4-1.4
	c2.2-0.1,4.4-0.3,6.7-0.4c7.2-0.4,14.4-0.7,21.6-1.1c5.9-0.3,11.8-0.7,17.7-1.1c8.1-0.5,16.3-1,24.4-1.5c5.9-0.4,11.7-0.7,17.6-1.1
	c8-0.5,16-1,24-1.5c6-0.4,12.1-0.7,18.1-1.1c8-0.5,16-1,24-1.5c5.9-0.4,11.7-0.7,17.6-1.1c8.1-0.5,16.3-1,24.4-1.5
	c5.9-0.4,11.8-0.7,17.7-1.1c8.1-0.5,16.1-1,24.2-1.5c2.9-0.2,5.8-0.5,8.8-0.7c0.2,0.8,0.2,1.5,0.2,2.4c-5.7,0.5-11.3,0.9-17,1.2
	c-2.2,0.1-4.4,0.3-6.7,0.4c-7.1,0.4-14.2,0.7-21.3,1.1c-6.1,0.3-12.2,0.7-18.3,1.1c-5.9,0.4-11.8,0.7-17.7,1.1
	c-7.9,0.5-15.9,1-23.8,1.5c-6.1,0.4-12.2,0.7-18.3,1.1c-5.9,0.4-11.8,0.7-17.7,1.1c-7.9,0.5-15.9,1-23.8,1.5
	c-6.1,0.4-12.2,0.7-18.3,1.1c-5.9,0.4-11.8,0.7-17.7,1.1c-7.9,0.5-15.9,1-23.8,1.5c-6,0.4-12.1,0.7-18.1,1.1c-0.7,0-1.3,0.5-2.2,0.9
	c-7.8,0.1-15.4,0.1-23.1,0.1C216.8,86.9,211.8,86.8,206.9,86.7z"/>
<path class="st24" d="M14.1,151.5c-4.2-2.7-6.4-6.7-7.4-11.5c-0.3-1.4-0.4-2.9-0.4-4.4c0-11.4,0-22.9,0.2-34.5
	c4.4-0.4,8.7-0.7,12.9-0.9c3.2-0.1,6.4,0,9.5,0.1c-1.1,1.3-2.2,2.4-3.4,3.7c-8.3,10.5-12.5,22.3-12.2,35.6
	C13.5,143.5,13.9,147.5,14.1,151.5z"/>
<path class="st29" d="M14.2,151.6c-0.3-4.1-0.7-8.1-0.8-12.1c-0.3-13.3,3.8-25.1,12.2-35.5c0.7,0.2,1.3,0.5,1.9,0.4
	c2.6-0.2,5.2-0.4,7.9-0.6c0.9-0.1,1.9-0.2,2.1,1.2c-1.8,1.8-3.6,3.4-5.1,5.3c-6.1,7.6-9.6,16.3-9.6,26.1c0,6.2,0.7,12.4,1.1,18.7
	c0,0,0,0,0,0C20.4,154.6,17.1,153.9,14.2,151.6z"/>
<path class="st21" d="M29,100.1c-3.2,0-6.4-0.1-9.6,0c-4.2,0.2-8.5,0.5-12.9,0.7c-0.2-0.8-0.2-1.5,0-2.4c2.7-0.3,5.2-0.4,7.7-0.6
	c5.1-0.3,10.2-0.7,15.3-1c0.8-0.1,1.7,0.2,2.5,0.5C30.9,98.3,30,99.2,29,100.1z"/>
<path class="st24" d="M32,97.1c-0.8-0.1-1.7-0.4-2.5-0.4c-5.1,0.3-10.2,0.7-15.3,1c-2.5,0.2-5,0.3-7.7,0.4c-0.2-0.5-0.2-1-0.2-1.7
	c6.9-0.6,13.8-1.1,20.8-1.6c2.6-0.2,5.3-0.3,8-0.3C34.2,95.5,33.1,96.3,32,97.1z"/>
<path class="st30" d="M24,155.1c-0.6-6.2-1.3-12.5-1.2-18.7c0.1-9.8,3.5-18.5,9.6-26.1c1.5-1.9,3.3-3.5,5.2-5.4
	c4.5-3.7,9.4-6.2,14.9-7.4c2.9-0.7,5.9-1,9.1-1.5c2.3,0.1,4.4,0.3,6.4,0.3c9.5,0,18.9,0,28.5,0c25,0,49.8,0,74.6,0
	c20.8,0,41.7,0,62.5,0c18,0,35.9,0,53.9,0c44.7,0,89.4,0,134,0c4.4,0,8.8,0,13.1,0c10.2,0.1,18.9,3.6,26.2,10.9
	c9,9,13.1,19.8,12.7,32.4c-0.2,5.1-0.7,10.1-1.1,15.3c-3,0.2-6,0.2-9.1,0c0.2-5.1,0.6-10,0.9-14.9c0.1-2.2,0.1-4.3-0.2-6.5
	c-0.8-6.7-3.4-12.6-7.8-17.7c-5.4-6.3-12.2-10.1-20.3-10.1c-47.3-0.2-94.7-0.1-142.2-0.1c-77.7,0-155.3,0-232.9,0
	c-0.8,0-1.6,0-2.4,0.1c-7.5,1.1-13.8,4.4-18.6,10.2c-1.5,1.7-2.5,3.8-3.8,5.8c-2.6,4.5-4,9.3-3.9,14.4c0.1,6.3,0.7,12.7,1.1,19
	C30.2,155.1,27.2,155.1,24,155.1z"/>
<path class="st31" d="M33.3,155.1c-0.5-6.3-1.1-12.7-1.2-19c-0.1-5.1,1.3-9.9,4-14.3c2.3,0.1,4.4,0.3,6.5,0.3c1.2,0,2.5-0.4,3.2,1
	c-2,3.2-3.8,6.4-4.2,10.2c-0.2,2.2-0.3,4.4-0.2,6.7c0.3,4.9,0.7,9.8,1,14.9C39.5,155.1,36.5,155.1,33.3,155.1z"/>
<path class="st31" d="M293.9,105.7c47.3,0,94.7-0.1,142,0.1c8.2,0,14.9,3.8,20.3,10.1c4.4,5.2,7,11,7.8,17.7
	c0.3,2.1,0.3,4.3,0.2,6.5c-0.3,4.9-0.7,9.8-1,14.9c-3,0.2-6,0.2-9.1,0.2c0.2-6,0.8-12,0.9-17.9c0.2-7.2-2.8-13.1-8.4-17.7
	c-3.3-3.1-7.3-4.5-11.6-4.5c-15.7-0.1-31.3,0-47.2-0.2c-0.7-0.3-1.2-0.6-1.7-0.6c-14,0-28.1,0-42.1,0c-0.6,0-1.1,0.5-1.7,0.7
	c-1.6,0-3.2,0-5.1-0.1c-0.7-0.3-1.2-0.6-1.7-0.6c-6.1-0.2-12.1-0.4-18.2-0.4c-17.3,0.1-34.5,0.2-51.8,0.4c-0.6,0-1.1,0.5-1.7,0.7
	c-27.8,0-55.6,0-83.6-0.1c-0.3-0.4-0.5-0.8-0.7-1.2c4.1-0.3,8.1-0.7,12.1-0.9c6.1-0.4,12.2-0.7,18.3-1.1c5.9-0.4,11.8-0.7,17.7-1.1
	c8-0.5,16-1,24-1.5c6-0.4,12.1-0.8,18.1-1.1c7.1-0.4,14.3-0.7,21.4-1.2C292.1,106.7,293,106,293.9,105.7z"/>
<path class="st32" d="M443.1,175.5c-129.9,0.2-259.7,0.2-389.7,0.2c-0.2-0.1-0.3-0.2-0.4-0.4c-0.1-0.9-0.1-1.8,0-2.8
	c0.9-0.3,1.7-0.5,2.5-0.5c129.3,0,258.6,0,388,0C443.4,173,443.2,174.2,443.1,175.5z"/>
<path class="st33" d="M443.5,171.7c-129.3,0.2-258.6,0.2-388,0.2c-0.8,0-1.6,0.2-2.5,0.3c-0.2-0.9-0.2-1.7-0.2-2.8
	c0-0.3,0-0.5,0-0.8c130.1-0.1,260.2-0.1,390.5-0.1C443.5,169.6,443.5,170.6,443.5,171.7z"/>
<path class="st34" d="M260.6,292.4c0-10.1,0-20.1,0.2-30.3c24.8-0.2,49.5-0.2,74.1-0.2c0,10.1,0,20.1-0.2,30.3
	C309.9,292.4,285.2,292.4,260.6,292.4z"/>
<path class="st33" d="M334.9,347c-24.7,0.2-49.3,0.2-74.2,0.2c-0.2-9.3-0.2-18.6,0-28.1c24.8-0.2,49.5-0.2,74.2-0.2
	C334.9,328.2,334.9,337.5,334.9,347z"/>
<path class="st32" d="M334.9,318.7c-24.7,0.2-49.3,0.2-74.2,0.2c-0.2-8.7-0.2-17.4-0.2-26.2c24.7-0.2,49.3-0.2,74.2-0.2
	C334.9,301.1,334.9,309.8,334.9,318.7z"/>
<path class="st3" d="M334.9,261.8c-24.7,0.2-49.3,0.2-74.1,0.2c-0.2-8.4-0.2-16.9-0.2-25.5c24.7-0.2,49.3-0.2,74.1-0.2
	C334.9,244.7,334.9,253.1,334.9,261.8z"/>
<path class="st32" d="M161.5,280.3c24.7-0.2,49.3-0.2,74.1-0.2c0.2,1.7,0.3,3.4,0.3,5.2c0,14.3,0,28.6,0,43
	c-24.7,0.2-49.3,0.2-74.2,0.2C161.5,312.5,161.5,296.5,161.5,280.3z"/>
<path class="st35" d="M61.4,96c-3,0.5-6,0.8-8.9,1.5c-5.4,1.3-10.3,3.7-14.8,7.3c-0.3-1.3-1.4-1.1-2.3-1c-2.6,0.2-5.2,0.5-7.9,0.6
	c-0.6,0-1.1-0.3-1.8-0.5c1-1.3,2.1-2.5,3.2-3.7c1-1,2-1.9,3-3c1.1-0.9,2.2-1.7,3.3-2.6c0.5-0.3,1-0.3,1.4-0.6
	c5-3.2,10.4-5.1,16.4-6.2c0.4-0.1,0.6-0.2,0.8-0.4c0.4,0,0.8,0,1.4,0c0.4-0.1,0.6-0.2,0.8-0.3c1,0,2,0,3.3,0c1.2,0,2.1,0,3,0
	c5.3,0,10.7,0,16.2,0c7.4,0,14.6,0,21.9,0c27.1,0,54,0,81.1,0.2c-2.1,0.4-4.3,0.8-6.6,1c-5.9,0.4-11.8,0.8-17.7,1.1
	c-6,0.4-11.9,0.7-17.9,1.1c-6.1,0.4-12.2,0.7-18.3,1.1c-5.9,0.4-11.8,0.7-17.7,1.1c-6,0.4-11.9,0.8-17.9,1.1
	c-7.2,0.4-14.4,0.7-21.6,1.2C63.1,95,62.2,95.6,61.4,96z"/>
<path class="st24" d="M62.5,86.9c-0.8,0.1-1.7,0.1-2.8,0.1C60.4,85.8,61.4,85.6,62.5,86.9z"/>
<path class="st24" d="M56.1,87c-0.1,0.2-0.3,0.3-0.6,0.4C55.7,87.3,55.9,87.1,56.1,87z"/>
<path class="st24" d="M53.9,87.4c-0.1,0.2-0.3,0.3-0.6,0.4C53.4,87.6,53.6,87.5,53.9,87.4z"/>
<path class="st27" d="M293.8,105.7c-0.7,0.4-1.6,1-2.6,1.1c-7.1,0.5-14.3,0.8-21.4,1.2c-6,0.3-12.1,0.7-18.1,1.1c-8,0.5-16,1-24,1.5
	c-5.9,0.4-11.8,0.7-17.7,1.1c-6.1,0.4-12.2,0.7-18.3,1.1c-4,0.3-8,0.6-12.1,0.9c0.2,0.4,0.3,0.7,0.5,1.2
	c-39.1,0.1-78.3,0.1-117.5,0.1c-6.6,0-12,2.5-16.1,7.7c-0.1,0.1-0.3,0.2-0.5,0.4c-0.9-1.3-2.1-1-3.3-0.9c-2.1,0-4.2-0.2-6.4-0.4
	c1.1-2,2.2-4.1,3.6-5.8c4.9-5.8,11.2-9.1,18.6-10.2c0.8-0.1,1.6-0.1,2.4-0.1C138.4,105.7,216,105.7,293.8,105.7z"/>
<path class="st27" d="M264,115c0.4-0.2,1-0.7,1.5-0.7c17.3-0.2,34.5-0.3,51.8-0.4c6.1,0,12.1,0.2,18.2,0.4c0.5,0,1,0.3,1.6,0.6
	C312.8,115,288.5,115,264,115z"/>
<path class="st27" d="M342.5,115c0.4-0.2,1-0.7,1.5-0.7c14,0,28.1,0,42.1,0c0.5,0,1,0.3,1.6,0.6C372.7,115,357.7,115,342.5,115z"/>
<path class="st35" d="M171.2,96.2c-24.8,0.1-49.6,0.1-74.6,0c0.4-0.4,0.9-0.9,1.4-0.9c7.9-0.5,15.9-1,23.8-1.5
	c5.9-0.4,11.8-0.7,17.7-1.1c6.1-0.4,12.2-0.8,18.3-1.1c7.1-0.4,14.2-0.8,21.3-1.1c2.2-0.1,4.4-0.3,6.7-0.4c7.4-0.5,14.9-1,22.3-1.4
	c4.3-0.3,8.6-0.5,12.9-0.8c0.4,0,0.8-0.5,1.1-0.7c7.6,0,15.1,0,22.9,0c15.4,0,30.7,0,46.1,0c-0.2,0.2-0.6,0.7-1,0.7
	c-4.2,0.3-8.5,0.5-12.7,0.8c-7.4,0.5-14.8,1-22.2,1.4c-2.3,0.1-4.6,0.3-6.8,0.4c-7.1,0.4-14.2,0.7-21.3,1.1
	c-8.1,0.5-16.1,1-24.2,1.5c-5.9,0.4-11.8,0.7-17.7,1.1c-4,0.2-8,0.5-12,0.8C172.5,95,171.9,95.7,171.2,96.2z"/>
<path class="st29" d="M222,87.1c-0.2,0.2-0.6,0.7-1,0.7c-4.3,0.3-8.6,0.5-12.9,0.8c-7.4,0.5-14.9,1-22.3,1.4
	c-2.2,0.1-4.4,0.3-6.7,0.4c-7.1,0.4-14.2,0.7-21.3,1.1c-6.1,0.3-12.2,0.7-18.3,1.1c-5.9,0.4-11.8,0.7-17.7,1.1
	c-7.9,0.5-15.9,1-23.8,1.5c-0.5,0-1,0.5-1.5,0.9c-9.5,0.1-18.9,0.2-28.4,0.1c-2.1,0-4.2-0.2-6.4-0.3c0.7-0.4,1.5-1,2.4-1.1
	c7.2-0.5,14.4-0.8,21.6-1.2c6-0.3,11.9-0.7,17.9-1.1c5.9-0.4,11.8-0.7,17.7-1.1c6.1-0.4,12.2-0.7,18.3-1.1c6-0.4,11.9-0.7,17.9-1.1
	c5.9-0.4,11.8-0.7,17.7-1.1c2.2-0.2,4.5-0.5,6.7-1c7.5-0.1,14.9-0.1,22.3-0.1c0.8,0,1.6-0.1,2.5-0.3C211.8,86.8,216.8,86.9,222,87.1
	z"/>
</svg>
