<?xml version="1.0" encoding="utf-8"?>
<!-- Generator: Adobe Illustrator 28.1.0, SVG Export Plug-In . SVG Version: 6.00 Build 0)  -->
<svg version="1.1" id="Layer_1" xmlns="http://www.w3.org/2000/svg" xmlns:xlink="http://www.w3.org/1999/xlink" x="0px" y="0px"
	 viewBox="0 0 471.8 527.7" style="enable-background:new 0 0 471.8 527.7;" xml:space="preserve">
<style type="text/css">
	.st0{fill:#FDCF1E;}
	.st1{fill:#FCDD21;}
	.st2{fill:#FDC01A;}
	.st3{fill:#FDAE15;}
	.st4{fill:#FDA112;}
	.st5{fill:#FB957A;}
	.st6{fill:#FCC11D;}
	.st7{fill:#FDB519;}
	.st8{fill:#FEA917;}
	.st9{fill:#FAD722;}
	.st10{fill:#FBCB1F;}
	.st11{fill:#FDCAB3;}
	.st12{fill:#FAB393;}
	.st13{fill:#FB9F85;}
	.st14{fill:#FDD7C0;}
	.st15{fill:#FCBE9F;}
	.st16{fill:#FEDFC9;}
	.st17{fill:#F9A888;}
	.st18{fill:#F9AA8A;}
	.st19{fill:#FDC1A9;}
	.st20{fill:#FCB88B;}
	.st21{fill:#FE8209;}
	.st22{fill:#FBCE20;}
	.st23{fill:#F7905E;}
	.st24{fill:#F58C6A;}
	.st25{fill:#F5906E;}
	.st26{fill:#FEBC77;}
	.st27{fill:#FEB570;}
	.st28{fill:#F8A07F;}
	.st29{fill:#F69877;}
	.st30{fill:#F59371;}
	.st31{fill:#FDAE71;}
	.st32{fill:#FDA454;}
	.st33{fill:#FDA95E;}
	.st34{fill:#F98F4D;}
	.st35{fill:#F89666;}
	.st36{fill:#FA9554;}
	.st37{fill:#FC9C3E;}
	.st38{fill:#FBB285;}
	.st39{fill:#FBAD7F;}
	.st40{fill:#FAAA7C;}
	.st41{fill:#F9A273;}
	.st42{fill:#FCA668;}
	.st43{fill:#FC9E4C;}
	.st44{fill:#FB923C;}
	.st45{fill:#FB9644;}
	.st46{fill:#FB9542;}
	.st47{fill:#FB9B59;}
	.st48{fill:#FC9737;}
	.st49{fill:#FB9F60;}
	.st50{fill:#FC9237;}
	.st51{fill:#FC9434;}
</style>
<path class="st0" d="M52.1,371c-0.1-1.3-0.3-2.5-0.4-3.8c-0.2-1.7-1.8-1.2-2.6-1.3c-10.1-1.2-19.2-5-27.3-11.2
	c-7.1-5.4-12.5-12.1-16.3-20c-2.4-5-4.2-10.3-4.7-15.8c-0.3-3.3-0.6-6.7-0.7-10.1c0-2,0.4-4,0.8-6.1c1.3,0,2.4,0.2,3.5,0.2
	c31.7,0,63.4,0,95.2,0c9.7,0,19.4-0.2,29.1-0.2c-3.6,5.6-5,11.4-4.1,18c1.7,11.5,12.2,20.9,23.7,21c8.5,0.1,15.4-3.2,20.6-9.9
	c4.3-5.6,5.9-12.1,4.5-18.9c-0.7-3.5-2.5-6.8-3.6-10.2c2.5,0.1,4.8,0.3,7.2,0.3c35.1,0,70.1,0,105.2,0c6.7,0,13.4-0.2,20-0.2
	c-0.2,0.4-0.3,0.7-0.4,1c-6.5,9.9-4.5,24.3,5.3,32.3c10.8,8.9,28,6.8,35.8-4.7c6.4-9.5,6.2-19.1,0.4-28.7c3.8,0.1,7.4,0.4,11.1,0.4
	c37.3,0,74.6,0,111.9,0c1.6,0,3.2-0.2,4.8-0.4c0.7,3.9,1.2,7.8,0.5,11.8c-0.6,3.4-0.8,6.9-1.6,10.2c-1.7,7.3-5,13.8-9.5,19.7
	c-5.6,7.3-12.6,13-21,16.8c-5.3,2.4-10.8,4.1-16.6,4.7c-1.6,0.2-3.2,0.4-2.8,2.7c0.1,0.7-0.2,1.4-0.5,2.3
	C296.9,371,174.5,371,52.1,371z"/>
<path class="st1" d="M128.7,302.6c-9.7,0.1-19.4,0.3-29.1,0.4c-31.7,0-63.4,0-95.2,0c-1.1,0-2.2-0.2-3.5-0.4
	c0.8-3.9,1.5-7.9,2.7-11.7c1.9-5.7,5.1-10.7,8.7-15.4c3.5-4.5,7.8-8.1,12.7-11.1c-0.5,2.4-0.4,2.6,1.9,2.5c3-0.1,6-0.5,9-0.7
	c3.4-0.3,6.9-0.5,10.3-0.8c5.5-0.5,11-1.2,16.5-1.8c5-0.5,10.1-0.9,15.1-1.6c7.8-1,15.5-2.1,23.2-3.3c10-1.6,20-3,29.9-5
	c15.9-3.3,31.8-6.8,47.5-10.7c11.5-2.8,23-6,34.3-9.7c10.4-3.4,21.2-5.9,31.1-10.9c3.3-1.7,7-2.5,10.5-3.8c2.1-0.8,4.2-1.6,6.2-2.4
	c0-0.2-0.1-0.4-0.1-0.6c-1.8,0-3.6,0-5.5,0c0.1-0.7,0.2-1.1,0.3-1.6c2-0.8,3.9-1.7,5.8-2.3c4.5-1.3,9-2.9,13.6-3.5
	c5.8-0.7,11.8-0.4,17.4,1.8c3.2,1.2,6.2,2.9,9.3,4.6c-0.5,0.4-1,0.8-1.6,0.9c-0.8,0.2-1.6,0.2-2.4,0.2c0,0.2-0.1,0.3-0.1,0.5
	c0.4,0.3,0.9,0.8,1.3,1c1,0.6,2.1,1.1,3.1,1.7c3.9,2.3,7.7,4.9,11.7,7c7.9,4,15.8,7.9,23.9,11.4c16.9,7.4,34.5,12.9,52.3,17.6
	c18.2,4.8,36.7,8.3,55.3,11.5c2.3,0.4,2.3,0.4,2.4-1.9c3.7,2.6,7.5,5.2,10.2,9c2.8,3.8,5.9,7.5,8.1,11.7c2.1,4,3.2,8.5,4.7,12.8
	c0.5,1.4,0.5,2.8,0.7,4.4c-1.6,0.3-3.2,0.5-4.8,0.5c-37.3,0-74.6,0-111.9,0c-3.6,0-7.3-0.2-11.2-0.5c-0.6-0.5-1-0.9-1.3-1.4
	c-6.9-8.7-19.5-11.5-29.6-6.8c-4.1,1.9-7.2,4.9-10.1,8.3c-6.7,0.1-13.4,0.3-20,0.3c-35.1,0-70.1,0-105.2,0c-2.3,0-4.7-0.2-7.3-0.4
	c-0.5-0.3-0.7-0.5-0.9-0.7c-6.2-7.8-14.4-10.8-24.2-9.3C137.9,293.6,132.7,297.2,128.7,302.6z"/>
<path class="st2" d="M52.1,371.2c122.4-0.2,244.8-0.2,367.3-0.2c-1.2,8.6-3.1,17-5.7,25.3c-2.6,8.6-5.8,17-9.7,25.1
	c-1.2,2.5-2.5,5.1-4.1,7.7c-1.7,0.3-3.2,0.8-4.6,0.8c-31.7,0-63.3,0-95,0c-2.7,0-2.7,0-2.3-2.7c1.4-1.7,2.5-3.4,2-5.7
	c-0.7-3.5-3.1-5.4-6.7-5.4c-38.3,0-76.7,0-115,0c-0.3,0-0.6,0-0.9,0c-2.6,0.2-4.8,2.1-5.6,4.7c-0.9,2.9,0.6,4.9,2.3,7
	c0.2,2.2-1.1,2.1-2.5,2.1c-31.9,0-63.8,0-95.8,0c-0.5,0-1,0-1.5,0c-1.2-0.1-1.6,0.5-1.5,1.5c-2.7-5.4-5.6-10.6-8-16.2
	c-2.6-6.1-4.9-12.3-6.8-18.6c-2.1-7.2-3.6-14.6-5.3-21.9C52.5,373.6,52.3,372.4,52.1,371.2z"/>
<path class="st3" d="M298,427.2c-0.4,2.6-0.4,2.6,2.3,2.6c31.7,0,63.3,0,95,0c1.5,0,2.9-0.5,4.5-0.7c-2.2,4.1-4.4,8.4-7,12.4
	c-3.6,5.5-7.4,10.9-11.4,16.2c-2.3,3.1-5,5.9-7.5,8.7c-1.6,1.8-3.2,3.7-5,5.4c-4.9,4.6-9.9,9.2-15.1,13.8c-1.5,0-2.8,0.1-4.1,0.1
	c-75.9,0-151.8,0-227.7,0c-1.5,0-2.9-0.1-4.4-0.2c-6-5.6-12.3-10.8-17.8-16.8c-5.8-6.2-11-12.9-16-19.7c-4-5.5-7.3-11.5-10.9-17.4
	c-0.1-1.2,0.3-1.8,1.5-1.7c0.5,0,1,0,1.5,0c31.9,0,63.8,0,95.8,0c1.4,0,2.7,0.1,2.6-2c2,1.6,3.8,3.4,5.7,5
	c6.5,5.4,13.6,9.9,21.4,13.2c9.9,4.3,20.3,6.8,31,7.1c5.6,0.2,11.4-0.3,17-1.1c11.9-1.6,23-5.8,33-12.5
	C287.8,435.9,292.8,431.4,298,427.2z"/>
<path class="st4" d="M117.6,485.5c1.4,0,2.9,0.1,4.4,0.1c75.9,0,151.8,0,227.7,0c1.3,0,2.5-0.1,4,0c-5.3,4.1-10.7,8.3-16.3,12.1
	c-9,6.1-18.6,11-28.6,15.3c-10.4,4.6-21.2,7.9-32.3,10.5c-5.4,1.3-11,1.8-16.5,2.8c-9.8,1.6-19.7,1.7-29.6,1.4
	c-6.2-0.2-12.5-0.7-18.6-1.5c-6.4-0.8-12.8-2-19.1-3.3c-10.2-2.2-20.1-5.6-29.7-9.7c-10.9-4.7-21.4-10.2-31.2-17
	c-4.6-3.2-8.9-6.7-13.6-10.2c-0.3-0.2-0.4-0.3-0.5-0.3C117.8,485.6,117.7,485.6,117.6,485.5z"/>
<path class="st5" d="M91.5,30.2c3.5-2.3,6.8-4.8,10.4-6.8c7.7-4,15.4-8,23.4-11.5c8.1-3.5,16.6-6,25.4-7.4c6.5-1,13-1.6,19.6-2.2
	c3.5-0.3,7-0.6,10.5-0.4c9.2,0.5,18.4,1.6,27.3,4.2c7,2.1,13.7,4.6,20.1,8c2.3,1.2,4.4,2.7,6.7,3.9c0.5,0.3,1.5,0.3,2,0
	c8.3-5.3,17-9.7,26.3-12.7c6.1-1.9,12.5-3,18.9-4.3c6.4-1.3,13-1.4,19.4-1.1c5.6,0.3,11.2,1.3,16.8,2.1c9.3,1.3,18.1,4.5,26.8,8
	c6.8,2.8,13.3,6.2,19.8,9.7c4.5,2.4,8.7,5.4,13.1,8.1c1.9,1.2,3.7,2.5,5.5,3.8c-1,0.1-2,0.1-2.9,0.1c-2.3,0.1-4.6,0.2-7.1,0.4
	c-1.5-0.8-2.9-1.6-4.2-2.4c-5-2.8-10-5.6-15-8.5c-3.8-1.7-7.5-3.5-11.3-5c-4.8-1.9-9.6-3.9-14.6-5.3c-6.1-1.6-12.3-2.6-18.5-3.8
	c-7.2-1.3-14.5-1.2-21.7-0.6c-9.3,0.7-18.3,2.7-26.9,6.2c-4.3,1.8-8.4,3.9-12.7,6c-3.7,2.2-7.4,4.2-10.9,6.5c-1.2,0.8-2.1,0.7-3.3,0
	c-3.7-2.3-7.6-4.3-11.4-6.6c-2.9-1.4-5.6-2.8-8.5-3.9c-9.3-3.6-18.9-5.8-28.8-6.3c-10.1-0.5-20.3-0.3-30.3,1.5
	c-9.4,1.7-18.6,4-27.4,7.8c-3.3,1.4-6.5,2.9-9.9,4.4c-3.2,1.6-6.3,3.1-9.3,4.7c-2.4,1.3-4.9,2.6-7.4,3.8c-1.5-0.1-2.9-0.2-4.3-0.3
	C95,30.5,93.2,30.4,91.5,30.2z"/>
<path class="st6" d="M421.8,246.8c0,1.6,0,3.2-0.1,5c-10-2.2-20-4.2-29.7-7c-11.6-3.2-22.9-7-34.4-10.6c-2.6-0.8-5.3-1.8-8-2.8
	c-7.4-3.2-14.7-6.1-21.9-9.5c-7.2-3.3-14.2-7-21.2-10.7c-5.7-3.1-11.3-6.3-17.8-7.6c-7.6-1.6-15.1-1.5-22.5,1.1
	c-7.5,2.6-15,5.5-22.5,8.1c-12,4-24,7.9-36,11.7c-7.8,2.4-15.7,4.5-23.7,6.8c-6,1.5-11.8,3-17.6,4.3c-11.3,2.6-22.6,5.1-33.9,7.5
	c-4.3,0.9-8.6,1.5-12.9,2.2c-8.2,1.4-16.4,2.7-24.6,4.1c-3.3,0.6-6.7,1.3-10,1.7c-4.2,0.6-8.4,0.9-12.6,1.3
	c-7.4,0.8-14.8,1.7-22.1,2.6c-0.1-1.6-0.2-3.3-0.1-5.1c1.3-0.3,2.4-0.4,3.5-0.5c7.8-0.9,15.6-1.7,23.3-2.6c8.2-1,16.4-2,24.5-3.4
	c14.3-2.5,28.5-5.2,42.7-8.1c20-4.1,39.8-8.8,59.3-14.8c4.9-1.5,9.8-2.8,14.7-4.4c15-5.2,30-10.5,45.1-15.7
	c7.4-2.6,14.9-3.2,22.7-2.3c6,0.7,11.6,2.6,16.9,5.4c4.3,2.2,8.3,4.9,12.7,7c9.5,4.6,19,9.3,28.8,13.2c11.5,4.6,23.3,8.7,35.1,12.5
	c7.7,2.5,15.7,4.5,23.6,6.4C409.1,244.1,415.5,245.4,421.8,246.8z"/>
<path class="st7" d="M421.8,246.6c-6.4-1.2-12.7-2.5-19-4c-7.9-2-15.9-3.9-23.6-6.4c-11.8-3.9-23.6-7.9-35.1-12.5
	c-9.8-3.9-19.3-8.7-28.8-13.2c-4.3-2.1-8.4-4.8-12.7-7c-5.3-2.7-10.9-4.6-16.9-5.4c-7.7-0.9-15.3-0.3-22.7,2.3
	c-15,5.3-30,10.6-45.1,15.7c-4.8,1.7-9.8,2.9-14.7,4.4c-19.5,6-39.3,10.7-59.3,14.8c-14.2,2.9-28.5,5.6-42.7,8.1
	c-8.1,1.4-16.3,2.4-24.5,3.4c-7.8,1-15.5,1.8-23.3,2.6c-1.1,0.1-2.2,0.2-3.5,0.4c-0.2-1.5-0.2-3,0-4.7c4.2-0.6,8.3-0.9,12.3-1.4
	c6.4-0.7,12.7-1.4,19.1-2.2c1.9-0.2,3.9-0.4,5.8-0.7c3.1-0.5,6.3-1,9.4-1.6c9.6-1.7,19.2-3.3,28.8-5.1c4.5-0.8,9-2.1,13.5-3.1
	c6.4-1.4,12.9-2.5,19.4-3.9c4-0.9,7.9-2.1,11.9-3.2c5-1.3,10-2.6,15-4c6.4-1.7,12.7-3.3,19.1-5.2c7-2,14.1-4.1,21-6.4
	c7.3-2.4,14.5-5.2,21.8-7.7c6.5-2.3,12.9-4.6,19.4-6.7c6.6-2.1,13.4-2.1,20.2-1.2c7.5,1,14.2,4.1,20.8,7.5c4.7,2.4,9.1,5.3,13.8,7.5
	c10.8,5,21.7,9.8,32.6,14.3c14.3,5.9,29.2,10.3,44.2,14.1c7.8,2,15.8,3.7,23.6,5.5C421.8,243.4,421.8,244.9,421.8,246.6z"/>
<path class="st8" d="M421.8,241.8c-7.9-1.7-15.8-3.4-23.7-5.3c-15-3.8-29.8-8.2-44.2-14.1c-11-4.5-21.8-9.4-32.6-14.3
	c-4.8-2.2-9.2-5.1-13.8-7.5c-6.6-3.4-13.4-6.5-20.8-7.5c-6.8-0.9-13.6-1-20.2,1.2c-6.5,2.1-13,4.4-19.4,6.7
	c-7.3,2.6-14.5,5.3-21.8,7.7c-6.9,2.3-14,4.4-21,6.4c-6.3,1.8-12.7,3.5-19.1,5.2c-5,1.3-10,2.6-15,4c-4,1.1-7.9,2.3-11.9,3.2
	c-6.4,1.4-12.9,2.6-19.4,3.9c-4.5,1-9,2.2-13.5,3.1c-9.6,1.8-19.2,3.4-28.8,5.1c-3.1,0.5-6.3,1.1-9.4,1.6c-1.9,0.3-3.9,0.4-5.8,0.7
	c-6.4,0.7-12.7,1.5-19.1,2.2c-4,0.4-8.1,0.8-12.3,1.2c-0.2-1.4-0.2-2.7-0.2-4.4c0-0.3,0-0.4,0-0.4c0,0,0,0,0.2,0
	c2.4-0.2,4.7-0.2,7-0.4c8.2-0.9,16.4-1.9,24.6-2.9c7.7-1,15.4-2.2,23-3.4c6.7-1,13.4-2.1,20.1-3.4c5.1-1,10.3-2.1,15.4-3.3
	c7.6-1.7,15.1-3.5,22.7-5.2c3.4-0.8,6.9-1.5,10.3-2.4c5.3-1.4,10.5-3,15.8-4.5c3.3-0.9,6.5-1.9,9.9-2.9c3.7-1.1,7.3-2.1,10.9-3.3
	c10-3.3,20-6.4,29.9-10.1c14.9-5.5,29.7-11.4,44.5-17.2c1.3-0.5,2.3-0.5,3.5,0.4c3,2.3,6.1,4.5,9.2,6.5c6,3.8,12.1,7.4,18.3,11.2
	c0.5,0.3,0.9,0.5,1.5,0.8c0.8,0.5,1.5,0.9,2.3,1.4c1.4,0.6,2.7,1.1,3.9,1.7c2.2,1.2,4.3,2.6,6.6,3.7c5.4,2.6,10.9,5.3,16.4,7.6
	c7.1,3,14.2,6.1,21.5,8.4c12.2,3.8,24.5,7.2,36.8,10.5c5.8,1.6,11.8,2.7,17.7,4.1c0,0,0,0.1,0,0.1
	C421.9,238.9,421.9,240.2,421.8,241.8z"/>
<path class="st9" d="M255.2,214c-0.1,0.4-0.1,0.8-0.2,1.5c1.9,0,3.7,0,5.5,0c0,0.2,0.1,0.4,0.1,0.6c-2.1,0.8-4.1,1.6-6.2,2.4
	c-3.5,1.3-7.2,2.2-10.5,3.8c-9.9,5-20.6,7.6-31.1,10.9c-11.3,3.6-22.7,6.8-34.3,9.7c-15.8,3.9-31.6,7.4-47.5,10.7
	c-9.9,2-19.9,3.5-29.9,5c-7.7,1.2-15.5,2.3-23.2,3.3c-5,0.6-10,1-15.1,1.6c-5.5,0.6-11,1.2-16.5,1.8c-3.4,0.3-6.9,0.5-10.3,0.8
	c-3,0.2-6,0.6-9,0.7c-2.3,0.1-2.3-0.1-1.7-2.5c0-0.3,0.1-0.4,0.4-0.5c0.3-0.1,0.4-0.2,0.4-0.3c0,0,0.2-0.1,0.3-0.1
	c0.3-0.1,0.4-0.2,0.4-0.3c0.2-0.1,0.3-0.3,0.7-0.4c0.3-0.1,0.4-0.2,0.4-0.3c0,0,0.2-0.1,0.3-0.1c0.3-0.1,0.4-0.2,0.4-0.3
	c0,0,0.2-0.1,0.3-0.1c0.3-0.1,0.4-0.2,0.4-0.3c0.7-0.3,1.3-0.5,2.1-0.7c0.4,0.3,0.7,0.6,0.9,0.6c3.1-0.2,6.2-0.5,9.3-0.8
	c2.9-0.3,5.8-0.7,8.7-1c1.3-0.1,2.6-0.3,4-0.4c2.9-0.2,5.8-0.4,8.7-0.7c3-0.3,6.1-0.8,9.1-1.2c2.5-0.3,5-0.6,7.4-1.1
	c2-0.3,4-0.9,6-1.2c3.1-0.4,6.2-0.4,9.2-0.9c8.8-1.4,17.7-2.7,26.4-4.4c15.1-2.9,30.1-6.2,45.3-9.3c6.4-1.6,12.8-3.1,19-4.9
	c11.8-3.3,23.6-6.6,35.3-10.3C232.3,222,243.7,217.9,255.2,214z"/>
<path class="st9" d="M447.2,264.6c-0.1,2.3-0.1,2.3-2.4,1.9c-18.5-3.2-37-6.8-55.3-11.5c-17.8-4.7-35.4-10.2-52.3-17.6
	c-8.1-3.5-16-7.4-23.9-11.4c-4-2-7.8-4.6-11.7-7c-1-0.6-2.1-1.1-3.1-1.7c-0.5-0.3-0.9-0.7-1.3-1c0-0.2,0.1-0.3,0.1-0.5
	c0.8-0.1,1.6-0.1,2.4-0.2c0.6-0.1,1.1-0.5,1.7-0.9c4.8,2.4,9.4,5,14.2,7.3c7.3,3.5,14.7,7.1,22.2,10.2c9,3.7,18.3,6.9,27.5,10.3
	c8.8,2.6,17.5,5.5,26.3,7.7c13.9,3.4,27.9,6.3,41.9,9.3c0.9,0.2,1.9,0,2.8,0c1.4,0.5,2.8,1,4.4,1.6c0.3,0.2,0.4,0.2,0.5,0.3
	c0,0,0.2,0,0.3,0.1c0.2,0.2,0.3,0.2,0.4,0.3c0,0,0.2,0,0.3,0.1c0.2,0.2,0.3,0.2,0.4,0.3c0,0,0.2,0,0.3,0.1c0.2,0.2,0.3,0.2,0.4,0.3
	c0,0,0.2,0,0.3,0.1c0.2,0.2,0.3,0.2,0.4,0.3c0.2,0.1,0.3,0.2,0.7,0.5c0.2,0.2,0.3,0.2,0.5,0.3c0,0,0.2,0,0.3,0.1
	c0.2,0.2,0.3,0.2,0.4,0.3c0.2,0.1,0.3,0.2,0.7,0.5C447,264.5,447.1,264.6,447.2,264.6C447.2,264.6,447.2,264.6,447.2,264.6z"/>
<path class="st10" d="M166.3,240.8c-15,3.1-30.1,6.3-45.1,9.3c-8.8,1.7-17.6,3-26.4,4.4c-3,0.5-6.1,0.5-9.2,0.9c-2,0.2-4,0.8-6,1.2
	c-2.5,0.4-4.9,0.7-7.4,1.1c-3,0.4-6,0.9-9.1,1.2c-2.9,0.3-5.8,0.5-8.7,0.7c-1.3,0.1-2.7,0.2-4,0.4c-2.9,0.3-5.8,0.7-8.7,1
	c-3.1,0.3-6.2,0.6-9.3,0.8c-0.2,0-0.5-0.3-0.8-0.6c2.2-1.2,4.4-2.6,6.8-3.2c3.8-1.1,7.8-1.7,11.7-2.7c7.4-1,14.8-1.9,22.2-2.7
	c4.2-0.5,8.4-0.8,12.6-1.3c3.4-0.4,6.7-1.2,10-1.7c8.2-1.4,16.4-2.7,24.6-4.1c4.3-0.7,8.7-1.3,12.9-2.2c11.3-2.4,22.6-5,33.9-7.5
	c5.8-1.3,11.6-2.9,17.6-4.2c0.7,0.4,1.3,0.9,1.9,0.9c2.2,0.1,4.3,0,6.5,0c0,0.2,0,0.4,0,0.6c-0.9,0.3-1.8,0.7-2.7,0.9
	c-6.9,1.8-13.7,3.5-20.6,5.4C168.1,239.4,167.2,240.2,166.3,240.8z"/>
<path class="st10" d="M436.3,259.3c-0.9,0.1-1.8,0.3-2.7,0.1c-14-3.1-28-5.9-41.9-9.3c-8.8-2.1-17.4-5.1-26.3-7.8
	c-1.3-0.8-2.5-1.4-3.7-1.9c0-0.2,0.1-0.4,0.1-0.6c2.2,0,4.4,0,6.6,0c0-0.2,0.1-0.4,0.1-0.6c-0.7-0.3-1.3-0.6-2-0.8
	c-5.2-1.8-10.3-3.7-15.5-5.6c-0.5-0.2-0.9-0.8-1.4-1.2c2.6,0.9,5.2,1.8,7.9,2.7c11.5,3.6,22.8,7.4,34.4,10.6
	c9.8,2.7,19.7,4.8,29.7,7.1c0.1,1.1,0.1,2.1,0.1,2.8C426.8,256.3,431.5,257.7,436.3,259.3z"/>
<path class="st11" d="M3,188c0.5-3.5,0.8-7,1.5-10.4c1.2-6.4,2.6-12.7,4.1-19c1-4.1,2.2-8.2,3.5-12.5c2.3,0,4.4,0.1,6.5,0.4
	c-0.4,1.5-0.7,2.9-1.2,4.4c-0.8,2.9-1.5,5.7-2.2,8.6c-1,4.1-2.1,8-2.8,12c-1,5.3-1.8,10.5-2.6,15.9c-0.1,0.3-0.2,0.5-0.5,0.6
	C7,188,5,188,3,188z"/>
<path class="st12" d="M24.9,111.6c2.6-5.3,4.9-10.8,7.9-16c3.7-6.4,7.8-12.6,11.8-18.8c0.4-0.6,0.8-1.2,1.5-1.8c2.7-0.1,5,0,7.4,0.1
	c-2.1,3.1-4.3,6-6.2,9.1c-3.4,5.4-6.7,10.8-9.8,16.3c-1.8,3.2-3.2,6.5-4.9,9.9c-0.4,0.5-0.7,1-1.2,1.4
	C29.2,111.7,27,111.6,24.9,111.6z"/>
<path class="st13" d="M91.3,30.2c1.9,0.1,3.6,0.3,5.4,0.4c1.4,0.1,2.8,0.2,4.3,0.4c-0.6,0.7-1.3,1.1-2,1.6c-2.5,1.8-5,3.6-7.6,5.4
	c-3.9,3-7.6,5.9-11.5,9c-3.6,3.2-7.2,6.4-10.8,9.5c-2-0.2-3.8-0.4-5.7-0.5c-0.6,0-1.2-0.1-1.7-0.1C70.4,46.1,80.4,37.7,91.3,30.2z"
	/>
<path class="st14" d="M466.8,176.5c0.8,4.6,1.6,9.1,2.2,13.7c0.5,3.7,0.8,7.5,1.2,11.2c0.3,3.2,0.5,6.4,0.6,9.8
	c-2.2,0.2-4.1,0.2-6.1,0c-0.3-3.7-0.5-7.3-0.8-10.8c-0.2-2.1-0.7-4.1-1-6.3c-0.2-2.4-0.4-4.6-0.7-6.8c-0.5-3.6-1.1-7.3-1.4-11
	C462.8,176.4,464.8,176.4,466.8,176.5z"/>
<path class="st15" d="M437.9,95c1.1,1.9,2.4,3.7,3.3,5.7c3.9,8.3,7.6,16.6,11.3,25.1c-2.2,0.3-4.3,0.4-6.5,0.4
	c-1-2.4-1.9-4.7-2.9-6.9c-2.8-5.8-5.7-11.5-8.5-17.3c-1.1-2.2-2.2-4.2-3.3-6.3c0.7-0.3,1.3-0.6,1.9-0.6
	C434.8,94.9,436.3,95,437.9,95z"/>
<path class="st16" d="M464.7,211.4c2,0,4,0,6.1,0c0.4,6.4,0.7,12.7,1,19c0.3,7-4.5,12.8-12.6,11.5c-0.1-2.3-0.1-4.3,0.1-6.3
	c3.9,0.4,5.6-0.7,6.1-4.3c0.1-0.6,0.1-1.2,0.1-1.8C465.1,223.5,464.9,217.5,464.7,211.4z"/>
<path class="st17" d="M424.1,73c0,0,0.1,0.2-0.1,0.3c-2,0-3.8-0.2-5.6-0.2c-0.6,0-1.1,0.7-1.8,1c-5.3-6.1-10.5-12.2-15.8-18.2
	c-2-2.3-4.3-4.4-6.3-6.6c0.4,0,0.5,0,0.7,0c3.1,0.1,6.5-0.7,9.1,2c0.2,0.2,0.8,0.2,1.2,0.3c4,4.4,8,8.7,11.9,13.2
	c2.2,2.5,4.2,5.2,6.3,8C423.9,72.9,423.9,73,424.1,73z"/>
<path class="st14" d="M3,188.1c2-0.2,4-0.2,6.2,0c0.1,0.6,0.1,0.9,0.1,1.3C8.6,195.7,8,202,7.4,208.4c-0.3,2.9-0.5,5.8-0.9,8.7
	c-2.2,0.1-4.3-0.5-6.1,1.1c0.3-5.2,0.7-10.5,1.1-15.7c0.2-2.7,0.5-5.5,0.8-8.2C2.4,192.3,2.7,190.3,3,188.1z"/>
<path class="st16" d="M0.4,218.3c1.8-1.8,3.9-1.2,6.1-1.1c0.2,5,0.2,9.8,0.2,14.6c0,2.6,1.6,4.2,4.1,4.2c0.6,0,1.2,0,1.8,0.2
	c0,2.1,0,4.1,0,6.1c-3.7,0.4-7.1-0.2-9.8-3.2C1,237,0,234.6,0,231.9C0,227.4,0.2,222.9,0.4,218.3z"/>
<path class="st13" d="M405.5,51.3c-0.4,0-0.9,0.1-1.2-0.1c-2.6-2.7-5.9-1.8-9.1-2c-0.2,0-0.4,0-0.9,0c-1-0.5-1.6-1-2.3-1.6
	c-2.8-2.4-5.5-4.7-8.3-7c-1.1-0.9-2.4-1.7-3.6-2.7c-0.4-0.4-0.8-0.8-1.2-1.1c-1.8-1.5-3.7-2.9-5.5-4.4c2.3-0.1,4.6-0.3,7-0.4
	c0.9,0,1.9,0,3,0C391.5,37.7,398.7,44.2,405.5,51.3z"/>
<path class="st12" d="M416.7,74.1c0.6-0.4,1.1-1.1,1.7-1.1c1.8,0,3.7,0.2,5.7,0.3c3.4,4.8,6.7,9.6,9.9,14.5c1.4,2.2,2.7,4.6,4,7
	c-1.6,0.1-3.1,0.1-4.7,0.2c-0.6,0-1.2,0.3-2,0.5c-4.8-6.8-9.5-13.7-14.2-20.7C416.9,74.5,416.8,74.3,416.7,74.1z"/>
<path class="st18" d="M61.6,55.9c0.7,0,1.3,0,1.8,0.1c1.8,0.1,3.7,0.3,5.6,0.6c-2.4,2.9-4.8,5.5-7.2,8.3c-1.7,2-3.3,4.1-5,6.3
	c-1.2,1.3-2.2,2.5-3.2,3.7c-2.4,0-4.8,0-7.3,0c4-5.2,8.2-10.5,12.5-15.7C59.6,58.1,60.5,57,61.6,55.9z"/>
<path class="st19" d="M446.1,126.2c2.1-0.1,4.2-0.2,6.4-0.4c2.4,6.3,4.5,12.6,6.7,18.9c0.1,0.4,0.2,0.8,0.1,1.4
	c-2.2,0.2-4.2,0.2-6.2,0.1c-0.1-0.3-0.2-0.5-0.4-0.8c-0.4-1.3-0.7-2.5-1.1-3.7C449.8,136.6,447.9,131.4,446.1,126.2z"/>
<path class="st11" d="M466.9,176.3c-2,0.1-4,0.1-6.2,0c-0.7-2.5-1.2-4.9-1.7-7.3c-0.8-3.7-1.6-7.4-2.3-11.3c2-0.3,4-0.5,5.9-0.6
	c1.2,5.3,2.5,10.6,3.7,16C466.4,174.1,466.6,175.1,466.9,176.3z"/>
<path class="st15" d="M24.8,111.7c2.2,0,4.3,0,6.6,0.2c-2.3,6-4.8,11.9-7.4,17.7c-2.3-0.1-4.4-0.2-6.5-0.3
	C19.9,123.4,22.3,117.6,24.8,111.7z"/>
<path class="st19" d="M17.5,129.3c2.1,0,4.2,0.1,6.5,0.3c-0.1,0.9-0.4,1.5-0.6,2.3c-1.4,4.3-2.7,8.6-4.1,13c-0.3,0.5-0.5,1-0.7,1.4
	c-2.1-0.1-4.2-0.3-6.4-0.4c1.4-4.8,3-9.6,4.6-14.5C16.9,130.8,17.2,130.2,17.5,129.3z"/>
<path class="st11" d="M45.8,240.5c-0.6,0.1-1.1,0.3-1.7,0.4c-2.7,0.2-5.3,0.2-8,0.4c-4.6,0.2-9.2,0.5-14,0.5
	c-0.2-2.2-0.2-4.1-0.1-6.1c0.2,0,0.2,0,0.5,0c3-0.1,5.9-0.2,8.7-0.2c0,1.5,0.1,2.8,0,4c-0.1,1.4,0.5,1.9,1.8,1.7
	c2.5-0.3,5-0.5,7.6-0.7C42.5,240.4,44.2,240.5,45.8,240.5z"/>
<path class="st14" d="M459.1,235.6c0,2,0,4,0,6.2c-4.1-0.1-8.1-0.4-12.1-0.8c2.8-0.2,2.8-0.2,2.8-2.8c0-1.1,0-2.2,0.2-3.3
	c3,0.2,5.9,0.5,8.9,0.7C459,235.6,459,235.6,459.1,235.6z"/>
<path class="st20" d="M430.4,238.6c-2.7-0.4-5.5-0.7-8.3-1.1c-0.2,0-0.2,0-0.2-0.2c-0.1-2.3-0.2-4.4-0.2-6.5c3.2,0.5,6.1,1,9.2,1.5
	c0,0.1,0,0.3,0,0.4c0.1,1.4,0.3,2.6,0.3,3.7C431.1,237.2,430.6,237.9,430.4,238.6z"/>
<path class="st15" d="M430.4,238.7c0.2-0.8,0.6-1.5,0.6-2.2c0-1.2-0.2-2.4-0.1-3.7c3.2,0.2,6.1,0.6,9.1,1.2c0.1,2.2,0.2,4.2,0.3,6.2
	C437.1,239.7,433.8,239.3,430.4,238.7z"/>
<path class="st11" d="M440.5,240.3c-0.2-2.1-0.3-4.1-0.4-6.3c0-0.2,0-0.2,0.1-0.2c3.2,0.4,6.1,0.7,9.2,1.1c0.2,0,0.2,0,0.3,0
	c0,1.1,0,2.2,0,3.3c0,2.6,0,2.6-2.9,2.7C444.7,240.7,442.6,240.5,440.5,240.3z"/>
<path class="st14" d="M21.9,235.6c0,2,0,3.9,0,6.1c-3,0.3-6,0.5-9.1,0.6c-0.2-2-0.2-4-0.1-6.1c0.2-0.2,0.2-0.2,0.5-0.2
	C16.2,235.9,19.1,235.8,21.9,235.6z"/>
<path class="st20" d="M45.9,240.5c-1.7,0-3.4,0-5.2-0.2c-0.2-1.9-0.2-3.7-0.1-5.5c0.2-0.1,0.2-0.2,0.5-0.3c3-0.1,5.9-0.3,8.8-0.2
	c0,2.1,0,4,0.1,5.9c0,0,0,0-0.2,0c-1.3,0.1-2.4,0.2-3.6,0.3C46.1,240.4,46,240.4,45.9,240.5z"/>
<path class="st19" d="M462.5,156.9c-1.9,0.3-3.9,0.5-6,0.7c-0.7-2-1.3-4.1-1.7-6.1c2.1-0.1,4.1-0.2,6.1-0.4
	C461.4,153,461.9,154.9,462.5,156.9z"/>
<path class="st11" d="M460.9,151c-2,0.3-4,0.4-6.1,0.4c-0.7-1.8-1.2-3.4-1.6-5.1c2,0,4,0,6.2,0c0.2,0,0.1,0,0.2,0.1
	c0.1,0.2,0.2,0.3,0.3,0.3C460.1,148.1,460.5,149.5,460.9,151z"/>
<path class="st11" d="M46.3,240.4c1-0.1,2.1-0.2,3.4-0.3c0.2,0.1,0.2,0.1,0.1,0.3C48.7,240.5,47.6,240.4,46.3,240.4z"/>
<path class="st19" d="M459.8,146.6c-0.1,0-0.2,0-0.3-0.2C459.6,146.4,459.7,146.4,459.8,146.6z"/>
<path class="st3" d="M117.9,485.7c0.1,0,0.2,0,0.4,0.2C118.2,485.9,118,485.8,117.9,485.7z"/>
<path class="st1" d="M447.2,264.5c-0.1,0.1-0.2,0-0.3-0.1C446.9,264.4,447,264.4,447.2,264.5z"/>
<path class="st1" d="M446.1,263.8c-0.1,0.1-0.2,0-0.3-0.1C445.8,263.6,445.9,263.6,446.1,263.8z"/>
<path class="st1" d="M25.9,263.6c0,0.1,0,0.2-0.2,0.3C25.7,263.8,25.7,263.7,25.9,263.6z"/>
<path class="st1" d="M445.3,263.4c-0.1,0.1-0.2,0-0.3-0.1C445.1,263.2,445.2,263.3,445.3,263.4z"/>
<path class="st1" d="M26.7,263.2c0,0.1,0,0.2-0.2,0.3C26.4,263.4,26.5,263.3,26.7,263.2z"/>
<path class="st1" d="M444.2,262.7c-0.1,0.1-0.2,0-0.3-0.1C443.9,262.5,444.1,262.5,444.2,262.7z"/>
<path class="st1" d="M27.8,262.4c0,0.1,0,0.2-0.2,0.3C27.5,262.6,27.6,262.5,27.8,262.4z"/>
<path class="st1" d="M443.5,262.3c-0.1,0.1-0.2,0-0.3-0.1C443.2,262.1,443.3,262.2,443.5,262.3z"/>
<path class="st1" d="M28.5,262.1c0,0.1,0,0.2-0.2,0.3C28.3,262.3,28.3,262.2,28.5,262.1z"/>
<path class="st1" d="M442.7,261.9c-0.1,0.1-0.2,0-0.3-0.1C442.5,261.8,442.6,261.8,442.7,261.9z"/>
<path class="st1" d="M29.3,261.7c0,0.1,0,0.2-0.2,0.3C29,261.9,29.1,261.8,29.3,261.7z"/>
<path class="st1" d="M442,261.5c-0.1,0.1-0.2,0-0.3-0.1C441.7,261.4,441.8,261.4,442,261.5z"/>
<path class="st1" d="M441.2,261.2c-0.1,0.1-0.2,0-0.3-0.1C441,261,441.1,261,441.2,261.2z"/>
<path class="st12" d="M424.1,72.9c-0.1,0-0.2,0-0.3-0.2C423.9,72.7,424,72.7,424.1,72.9z"/>
<path class="st21" d="M302.1,302.7c2.9-3.5,6-6.5,10.1-8.4c10.1-4.7,22.6-1.9,29.6,6.8c0.3,0.4,0.7,0.8,1.2,1.4
	c6,9.7,6.2,19.4-0.2,28.8c-7.9,11.6-25,13.6-35.8,4.7c-9.8-8-11.8-22.5-5.3-32.3C301.8,303.4,301.9,303.1,302.1,302.7z"/>
<path class="st21" d="M128.6,302.7c4.1-5.5,9.2-9.1,15.9-10.2c9.8-1.5,17.9,1.5,24.2,9.3c0.2,0.2,0.4,0.5,0.7,0.8
	c1.4,3.5,3.2,6.7,3.9,10.2c1.4,6.9-0.2,13.3-4.5,18.9c-5.1,6.7-12.1,10-20.6,9.9c-11.6-0.1-22.1-9.5-23.7-21
	C123.6,314.1,125.1,308.3,128.6,302.7z"/>
<path class="st22" d="M349.6,231.4c0.5,0.5,0.9,1.1,1.5,1.3c5.1,1.9,10.3,3.7,15.5,5.6c0.7,0.2,1.3,0.5,2,0.8c0,0.2-0.1,0.4-0.1,0.6
	c-2.2,0-4.4,0-6.6,0c0,0.2-0.1,0.4-0.1,0.6c1.2,0.6,2.4,1.2,3.6,1.9c-9.1-3.3-18.3-6.4-27.4-10.1c-7.5-3.1-14.9-6.6-22.2-10.2
	c-4.8-2.3-9.4-5-14.2-7.5c-3.2-1.5-6.2-3.2-9.4-4.4c-5.6-2.2-11.6-2.4-17.4-1.8c-4.6,0.5-9.1,2.2-13.6,3.5c-2,0.6-3.8,1.4-5.8,2.3
	c-11.6,4-23,8.1-34.6,11.7c-11.7,3.7-23.5,7-35.3,10.3c-6.2,1.8-12.6,3.2-19,4.9c0.8-0.6,1.7-1.4,2.7-1.7c6.8-1.9,13.7-3.6,20.6-5.4
	c0.9-0.2,1.8-0.6,2.7-0.9c0-0.2,0-0.4,0-0.6c-2.2,0-4.3,0.1-6.5,0c-0.6,0-1.2-0.5-1.8-0.9c7.8-2.4,15.7-4.5,23.5-7
	c12-3.8,24.1-7.6,36-11.7c7.6-2.5,15-5.5,22.5-8.1c7.4-2.5,14.8-2.7,22.5-1.1c6.5,1.4,12.1,4.6,17.8,7.6c7,3.7,14,7.4,21.2,10.7
	C334.9,225.3,342.2,228.2,349.6,231.4z"/>
<path class="st21" d="M298,427.1c-5.3,4.3-10.2,8.8-15.7,12.5c-10,6.7-21.1,10.9-33,12.5c-5.6,0.7-11.3,1.2-17,1.1
	c-10.8-0.3-21.1-2.8-31-7.1c-7.8-3.4-14.8-7.9-21.4-13.2c-2-1.6-3.7-3.4-5.7-5.2c-1.8-2-3.3-4-2.4-6.9c0.8-2.5,3-4.5,5.6-4.7
	c0.3,0,0.6,0,0.9,0c38.3,0,76.7,0,115,0c3.7,0,6,1.9,6.7,5.4C300.5,423.6,299.5,425.4,298,427.1z"/>
<path class="st23" d="M222.8,19.1c3.8,2.2,7.6,4.2,11.4,6.5c1.2,0.8,2,0.8,3.3,0c3.5-2.3,7.2-4.3,11-6.4c1.7,0.3,3.2,0.5,4.6,0.6
	c4.1,0.4,8.2,0.7,12.3,1.3c4.8,0.7,9.6,1.6,14.5,2.5c0.4,0.1,0.6,0.2,0.9,0.2c13.1,2.5,25.8,6.4,38.2,11.5c3.2,1.3,6.4,2.6,9.6,4
	c4.6,2.4,9.2,4.7,13.8,7c2.7,1.4,5.4,2.9,8.2,4.5c2,1.4,4,2.7,5.9,4.1c-0.9,0.4-1.8,0.9-2.7,0.9c-3.9,0.1-7.8,0-11.9,0
	c-1-0.4-1.9-0.7-2.9-1.2c-5.4-2.7-10.6-5.4-15.9-7.9c-9.8-4.6-20-8.2-30.5-11c-10.7-2.9-21.5-5.1-32.5-6c-6.3-0.5-12.6-1.1-19-1.4
	c-4.4-0.2-8.9,0-13.3,0.3c-8,0.6-16.1,1.2-24.1,2.2c-11.2,1.4-22.1,4-32.8,7.7c-8.5,3-16.8,6.5-25.4,9.7c-4.3-0.2-8.5-0.2-12.7-0.3
	c-1.5-0.1-2.9-0.5-4.3-0.8c2.5-1.5,5-3,7.5-4.3c2.4-1.3,4.9-2.5,7.5-3.8c10.5-4.4,20.9-8.6,31.8-11.5c5.1-1.3,10.2-2.5,15.4-3.7
	c3-0.6,5.8-1.2,8.7-1.6c5.4-0.8,10.7-1.4,16.1-2.1C217.9,19.9,220.4,19.5,222.8,19.1z"/>
<path class="st24" d="M279.8,23.5c-4.8-0.8-9.6-1.8-14.4-2.4c-4.1-0.6-8.2-0.8-12.3-1.3c-1.5-0.2-2.9-0.4-4.5-0.6
	c4.1-2.1,8.2-4.3,12.4-6c8.6-3.5,17.7-5.5,26.9-6.2c7.2-0.5,14.5-0.7,21.7,0.6c6.2,1.1,12.4,2.2,18.5,3.8c5,1.3,9.8,3.4,14.6,5.3
	c3.8,1.5,7.5,3.3,11.2,5.1c-0.8,0.4-1.6,0.7-2.4,0.7c-17.5,0-34.9,0-52.4,0c-5.5,0-11-0.1-16.5,0.1
	C281.7,22.5,280.7,23.2,279.8,23.5z"/>
<path class="st25" d="M279.9,23.6c0.8-0.4,1.8-1.1,2.7-1.1c5.5-0.1,11-0.1,16.5-0.1c17.5,0,34.9,0,52.4,0c0.8,0,1.6-0.3,2.5-0.6
	c5.1,2.7,10.1,5.5,15.1,8.3c1.4,0.8,2.7,1.6,4.2,2.4c2,1.5,3.8,2.9,5.6,4.4c0.4,0.3,0.7,0.6,1,1.1c-0.9,0.3-1.7,0.4-2.5,0.4
	c-15.5,0-31,0-46.5,0c-0.8,0-1.7,0.5-2.5,0.7c-3.2-1.3-6.4-2.6-9.6-3.9c-12.4-5.1-25.1-8.9-38.2-11.5
	C280.5,23.8,280.3,23.7,279.9,23.6z"/>
<path class="st24" d="M222.7,19c-2.4,0.5-4.9,0.9-7.3,1.2c-5.4,0.7-10.8,1.3-16.1,2.1c-2.9,0.4-5.7,1-8.7,1.5
	c-1-0.4-1.8-0.9-2.6-0.9c-22.5,0-44.9,0-67.4-0.1c-0.9,0-1.8-0.2-2.7-0.4c3.3-1.5,6.5-3,9.8-4.4c8.8-3.7,18-6,27.4-7.8
	c10-1.8,20.2-2,30.3-1.5c9.9,0.5,19.6,2.7,28.8,6.3C217.1,16.2,219.9,17.6,222.7,19z"/>
<path class="st25" d="M117.8,22.4c1,0.1,1.9,0.3,2.9,0.3c22.5,0,44.9,0,67.4,0.1c0.8,0,1.6,0.5,2.4,0.9c-5.1,1.4-10.2,2.5-15.3,3.8
	c-10.9,2.9-21.3,7.1-31.9,11.4c-1-0.3-1.8-0.6-2.7-0.6c-15.6,0-31.2,0-46.8,0c-0.8,0-1.5-0.2-2.3-0.4c2.5-1.8,5-3.6,7.4-5.4
	c0.7-0.5,1.4-1,2.2-1.6c2.5-1.4,4.9-2.7,7.4-4C111.5,25.6,114.6,24,117.8,22.4z"/>
<path class="st26" d="M50,240.1c-0.2-1.9-0.2-3.8-0.2-5.9c0.1-0.3,0.2-0.4,0.5-0.5c1.3-0.1,2.4-0.2,3.5-0.3c7.5-0.8,15-1.3,22.4-2.3
	c9.9-1.3,19.8-2.8,29.6-4.4c18.9-2.9,37.5-6.9,56-11.4c6.5-1.6,13.1-3.3,19.6-4.8c0.7,0.3,1.3,0.6,1.9,0.6c4.4,0,8.9,0,13.3,0.1
	c0.6,0,1.2,0.4,1.9,0.7c-3.2,1-6.5,1.9-9.7,2.9c-5.3,1.5-10.5,3.1-15.8,4.5c-3.4,0.9-6.9,1.6-10.3,2.4c-7.6,1.7-15.1,3.5-22.7,5.2
	c-5.1,1.2-10.2,2.3-15.4,3.3c-6.7,1.2-13.4,2.3-20.1,3.4c-7.7,1.2-15.3,2.3-23,3.4c-8.2,1.1-16.4,2-24.6,2.9
	C54.8,239.9,52.5,239.9,50,240.1z"/>
<path class="st27" d="M198.8,211.7c-0.8-0.2-1.4-0.6-2-0.7c-4.4-0.1-8.9,0-13.3-0.1c-0.6,0-1.2-0.3-1.8-0.6c0.7-0.4,1.2-0.6,1.8-0.8
	c11.5-3.4,23.1-6.7,34.5-10.3c22.8-7.3,45.2-15.9,67.2-25.3c1.3-0.5,2.1-0.3,3.2,0.4c6.8,4.7,13.5,9.4,20.4,13.9
	c5.4,3.5,11.1,6.5,16.6,9.8c-0.4,0.2-0.7,0.3-1,0.3c-2.5-0.1-5-0.3-7.6-0.3c-0.6,0-1.2,0.7-1.8,1.1c-6.1-3.7-12.2-7.3-18.2-11.1
	c-3.2-2-6.2-4.3-9.2-6.5c-1.2-0.9-2.2-0.9-3.5-0.4c-14.8,5.8-29.6,11.7-44.5,17.2c-9.9,3.7-19.9,6.8-29.9,10.1
	C206.1,209.6,202.5,210.6,198.8,211.7z"/>
<path class="st26" d="M315.2,199.3c0.5-0.5,1.1-1.2,1.7-1.2c2.5,0,5,0.2,7.6,0.3c0.3,0,0.6-0.1,1.1-0.2c4.3,1.9,8.2,4,12.3,5.7
	c10.7,4.5,21.4,9.1,32.3,13.1c13.1,4.8,26.6,8.5,40.3,11.5c3.7,0.8,7.4,1.4,11.1,2.2c0,0.1,0,0.3,0,0.3c0.1,2.1,0.2,4.2,0.3,6.5
	c-5.9-1.2-11.9-2.3-17.7-3.9c-12.3-3.4-24.7-6.7-36.8-10.5c-7.3-2.3-14.4-5.4-21.5-8.4c-5.6-2.3-11-5-16.4-7.6
	c-2.3-1.1-4.4-2.5-6.6-3.7c-1.2-0.7-2.5-1.1-3.9-1.9c-0.4-1.5-1.1-2-2.4-1.3C316.1,199.7,315.7,199.5,315.2,199.3z"/>
<path class="st27" d="M316.6,200c1.2-0.8,1.9-0.3,2.2,1.2C318.1,200.9,317.4,200.5,316.6,200z"/>
<path class="st15" d="M13,236c-0.1,0-0.1,0-0.3,0c-0.7,0-1.3,0-1.9,0c-2.5-0.1-4.1-1.7-4.1-4.2c0-4.8,0-9.6,0-14.6
	c0.2-3.1,0.5-5.9,0.7-8.8c0.6-6.3,1.2-12.6,1.8-18.9c0-0.4,0-0.7,0-1.3c0.1-0.3,0.2-0.5,0.5-0.8c3.3,0,6.4,0.1,9.5,0.4
	c-0.6,3.3-1.2,6.4-2,9.6c-0.9,5-2,9.8-2.5,14.7C14,220,13.6,228,13,236z"/>
<path class="st12" d="M19.3,187.6c-3.1-0.1-6.2-0.3-9.5-0.4c0.7-5.3,1.4-10.6,2.4-15.8c0.8-4,1.8-7.9,3-12c1.2-0.1,2.1-0.1,3-0.1
	c3.3,0.1,6.6,0.2,9.9,0.5c-0.2,0.9-0.5,1.7-0.7,2.4c-1.2,3.6-2.5,7.2-3.8,10.9C22.2,178.1,20.8,182.9,19.3,187.6z"/>
<path class="st18" d="M28.3,159.7c-3.3-0.1-6.6-0.3-9.9-0.4c-0.9,0-1.8,0-2.9,0c0.5-2.8,1.2-5.6,2.1-8.4c5,0.1,9.7,0.1,14.5,0.3
	C30.7,154.2,29.5,156.9,28.3,159.7z"/>
<path class="st12" d="M32,151.2c-4.8-0.1-9.5-0.1-14.4-0.3c0.2-1.5,0.6-2.9,1-4.4c0.2-0.6,0.4-1,0.8-1.5c1.1,0.1,2,0.2,2.9,0.2
	c4.1,0.1,8.2,0.3,12.3,0.5c0,0.3,0,0.5-0.1,0.7C33.6,148,32.8,149.6,32,151.2z"/>
<path class="st28" d="M53.5,75c1.1-1.3,2.1-2.5,3.3-3.7c0.9,0.2,1.7,0.5,2.5,0.5c9.6,0,19.2,0,28.8,0.1c0.8,0,1.5,0.5,2.3,0.8
	c-1.3,1.3-2.6,2.5-3.8,3.7c-3.3,3.3-6.6,6.6-10,10c-5.2,5.8-10.5,11.4-15.4,17.3c-3.3,3.9-6,8.2-9.1,12.4c-0.3,0.1-0.5,0.2-0.7,0.2
	c0.1-0.6,0.3-1.2,0.5-1.7c0.5-0.9,1-1.7,1.7-2.9c-1.1-0.1-1.8-0.1-2.5-0.1c-5.3,0-10.6,0-15.9,0c-1.2,0-2-0.3-2.4-1.5
	c1.6-3.3,3-6.6,4.8-9.8c3.1-5.5,6.4-11,9.8-16.3C49.2,81,51.4,78.1,53.5,75z"/>
<path class="st18" d="M32.6,110.3c0.5,1.1,1.3,1.5,2.5,1.4c5.3-0.1,10.6,0,15.9,0c0.7,0,1.3,0.1,2.5,0.1c-0.7,1.2-1.2,2.1-1.7,2.9
	c-0.3,0.5-0.4,1-0.6,1.8c-3.7,6.5-7.6,12.6-11.3,18.9c-1.9,3.3-3.6,6.7-5.4,10.1c-4.1-0.1-8.2-0.2-12.3-0.4c-0.9,0-1.8-0.1-2.9-0.3
	c1.2-4.4,2.6-8.7,3.9-13c0.2-0.7,0.5-1.4,0.8-2.2c2.5-6,5-11.9,7.4-17.9C31.9,111.3,32.2,110.8,32.6,110.3z"/>
<path class="st29" d="M90.4,72.7c-0.8-0.2-1.5-0.7-2.3-0.7c-9.6,0-19.2,0-28.8-0.1c-0.8,0-1.5-0.3-2.3-0.6c1.6-2.2,3.1-4.3,4.9-6.3
	c2.4-2.7,4.9-5.4,7.3-8.2c3.5-3.3,7.1-6.5,10.7-9.6c1.2,0.4,2.2,0.9,3.2,0.9c13.2,0.1,26.4,0,39.6,0.1c0.8,0,1.5,0.2,2.2,0.5
	c-2.6,1.7-5.2,3.1-7.6,4.9c-7.7,5.5-15.3,11-22.9,16.5C93.1,70.9,91.7,71.7,90.4,72.7z"/>
<path class="st30" d="M125,48.5c-0.8-0.1-1.5-0.4-2.3-0.4c-13.2,0-26.4,0-39.6-0.1c-1,0-2.1-0.5-3.1-0.9c3.7-3.1,7.5-6.1,11.4-9
	c0.9,0.1,1.7,0.3,2.4,0.3c15.6,0,31.2,0,46.8,0c0.8,0,1.6,0.3,2.5,0.6c-2.4,1.4-4.8,2.6-7.3,3.9c-2.5,1.3-5,2.8-7.7,4.3
	C127,47.7,126,48.1,125,48.5z"/>
<path class="st12" d="M453.1,146.2c0.5,1.7,1,3.4,1.5,5.2c0.6,2.2,1.1,4.2,1.8,6.4c0.9,3.8,1.7,7.5,2.5,11.3c0.5,2.4,1,4.8,1.6,7.3
	c0.6,3.7,1.2,7.4,1.7,11c0.3,2.2,0.5,4.4,0.5,6.8c-2.3,0.2-4.4,0.1-6.5,0.2c-0.7,0-1.3,0.5-2,0.6c-0.3-0.7-0.5-1.4-0.7-2
	c-2.3-8.1-4.7-16.2-7-24.4c-1.2-3.2-2.3-6.2-3.4-9.3c-0.2-0.6-0.5-1.1-0.7-1.7c-1.6-3.7-3.2-7.5-4.6-11.3c1-0.3,1.9-0.6,2.8-0.7
	c4.1-0.1,8.2,0,12.3,0C452.8,145.8,452.9,145.9,453.1,146.2z"/>
<path class="st15" d="M454.2,195.1c0.6-0.2,1.3-0.7,1.9-0.7c2.1-0.1,4.2,0,6.5,0c0.5,2,1,4.1,1.2,6.1c0.4,3.5,0.6,7.1,0.8,10.8
	c0.2,6.2,0.5,12.2,0.7,18.3c0,0.6,0,1.2-0.1,1.8c-0.5,3.5-2.1,4.7-6.1,4.3c-0.2,0-0.3,0-0.4-0.2c-0.2-3-0.2-5.8-0.5-8.7
	c-0.5-5.9-1.1-11.9-1.9-17.8c-0.5-3.9-1.4-7.8-2.2-11.9C454.2,196.3,454.2,195.7,454.2,195.1z"/>
<path class="st17" d="M452.7,145.4c-4.1,0.1-8.2,0.1-12.3,0.2c-0.9,0-1.8,0.4-2.9,0.6c-1.7-2.9-3.1-5.8-4.6-8.6
	c-1.4-2.5-2.9-4.9-4.3-7.4c-1.5-2.6-2.9-5.2-4.5-7.5c-4.6-6.7-9.4-13.2-14-20c0.9-0.3,1.7-0.6,2.6-0.6c7.3,0,14.6,0,21.9,0
	c2.8,5.7,5.7,11.4,8.5,17.2c1.1,2.2,1.9,4.5,2.9,6.9c1.9,5.3,3.8,10.4,5.6,15.6C452,142.9,452.3,144.1,452.7,145.4z"/>
<path class="st28" d="M434.5,101.9c-7.3,0.1-14.6,0.1-21.9,0.2c-0.8,0-1.7,0.3-2.7,0.6c-2.7-2.9-5.3-5.8-7.9-8.9
	c-1.1-1.3-2.1-2.4-3.1-3.6c-1.9-2.1-3.8-4.2-5.8-6.2c-1.8-1.8-3.7-3.6-5.5-5.5c0.1-0.8,0.1-1.5,0.2-2.5c0.7,0,1.4,0,2.2,0
	c8.2,0,16.3,0,24.5,0c0.8,0,1.7-0.7,2.5-1.1c4.6,6.9,9.3,13.8,14,20.8C432.3,97.7,433.4,99.8,434.5,101.9z"/>
<path class="st29" d="M417,74.8c-0.8,0.5-1.6,1.2-2.5,1.2c-8.2,0.1-16.3,0-24.5,0c-0.7,0-1.5,0-2.2,0c-0.1,0.9-0.1,1.7-0.3,2.5
	c-0.4,0-0.7-0.1-0.8-0.2c-6.9-6.7-14.5-12.6-22.3-18.2c-2.6-1.9-5.3-3.5-8-5.3c-1.9-1.3-3.9-2.6-5.9-4.1c-0.6-0.7-1.2-1.3-1.8-1.8
	c0-0.2,0.1-0.3,0.1-0.5c0.7,0,1.4,0,2.1,0c12.8,0,25.6,0,38.4,0c0.9,0,1.8-0.5,2.8-0.7c0.7,0.5,1.3,1,2.1,1.5
	c2.3,2.2,4.5,4.4,6.6,6.7c5.3,6,10.5,12.1,15.8,18.2C416.8,74.3,416.9,74.5,417,74.8z"/>
<path class="st30" d="M392.1,47.6c-0.9,0.4-1.8,0.8-2.7,0.8c-12.8,0-25.6,0-38.4,0c-0.7,0-1.4,0-2.1,0c0,0.2-0.1,0.3-0.1,0.5
	c0.6,0.5,1.1,1,1.7,1.7c-2.7-1.3-5.3-2.9-8.1-4.3c-4.5-2.3-9.1-4.6-13.8-7c0.8-0.3,1.6-0.8,2.4-0.8c15.5,0,31,0,46.5,0
	c0.8,0,1.6-0.2,2.5-0.3c1.3,0.8,2.6,1.6,3.7,2.5C386.6,42.9,389.3,45.2,392.1,47.6z"/>
<path class="st31" d="M31.2,235.3c-2.9,0.1-5.7,0.2-8.7,0.2c-0.1-3.4,0-6.6,0.2-9.8c0.3-4.3,0.8-8.6,1.3-12.8
	c0.6-4.2,1.3-8.4,2-12.7c1.5-6,3-11.9,4.6-17.7c1.1,0.1,2.1,0.3,3.1,0.3c2,0.1,4.1,0.3,6.1,0.5c-1.1,4.6-2.2,9.1-3.4,13.8
	c-3,12.6-4.6,25.3-4.9,38.1C31.3,235.2,31.3,235.2,31.2,235.3z"/>
<path class="st20" d="M26,200.3c-0.7,4.2-1.4,8.4-2,12.6c-0.6,4.3-1,8.5-1.3,12.8c-0.3,3.2-0.3,6.4-0.4,9.8
	c-0.1,0.2-0.1,0.2-0.3,0.2c-3,0.1-5.8,0.2-8.8,0.3c0.4-8,0.9-16,1.7-23.9c0.5-4.9,1.6-9.7,2.6-14.6c0.4,0.2,0.6,0.4,0.6,0.6
	c-0.1,1.9,1,1.9,2.5,1.9C22.4,199.9,24.2,200.1,26,200.3z"/>
<path class="st15" d="M31.2,235.4c0.1-0.2,0.1-0.2,0.5-0.2c3.1-0.1,6-0.3,8.9-0.4c0,1.8,0,3.5,0,5.4c-2.5,0.4-5,0.6-7.5,0.9
	c-1.3,0.1-1.9-0.3-1.8-1.7C31.3,238.2,31.2,236.9,31.2,235.4z"/>
<path class="st20" d="M454.3,197.3c0.7,3.9,1.7,7.8,2.2,11.7c0.8,5.9,1.3,11.8,1.9,17.8c0.3,2.8,0.3,5.7,0.4,8.7
	c-2.9-0.1-5.7-0.3-8.8-0.5c-0.2,0-0.3,0-0.4-0.2c-0.2-2.5-0.2-4.9-0.5-7.2c-0.5-5.1-1-10.3-1.7-15.4c-0.5-4-1.3-7.9-1.8-11.8
	c1.9-0.1,3.7-0.3,5.4-0.3c1.5,0,2.9,0.1,2.8-2C453.6,197.7,454,197.5,454.3,197.3z"/>
<path class="st32" d="M421.7,230.8c-0.2,0-0.2-0.2-0.2-0.4c-0.1-1.2-0.3-2.2-0.4-3.2c-0.4-4-0.8-8.1-1.4-12.1
	c-0.6-4.2-1.3-8.4-1.9-12.6c0.2-0.3,0.2-0.5,0.3-0.8c0-0.1,0-0.3,0-0.4c0.6-0.4,1.1-0.8,1.7-0.9c0.8-0.1,1.7,0,2.6-0.1
	c0.4-0.1,1.1-0.5,1.1-0.7c-0.1-2,0.8-4-0.1-6.1c-0.7-1.6-1-3.3-1.5-4.9c-3.5-11-7.7-21.8-12.7-32.2c-0.7-1.5-0.1-2.4,1.5-2.5
	c1.7,0,3.5,0.1,5.2,0c0.7,0,1.3-0.5,2-0.6c2.7,5.8,5.3,11.5,7.8,17.3c1.5,3.5,2.7,7,4,10.7c0.4,1.3,0.8,2.3,1.1,3.5
	c1.2,4.2,2.3,8.5,3.3,12.9c-0.1,0.4-0.2,0.7-0.1,1c0.4,2.1,0.3,2.3-1.8,2.3c-1.4,0-2.8,0-4.3,0c-1.1,0-2,0.3-1.7,1.8
	c0.3,1.8,0.6,3.6,0.9,5.4c1.2,8.1,2.5,16.3,3.7,24.4C427.8,231.7,424.8,231.3,421.7,230.8z"/>
<path class="st33" d="M430.8,232.3c-1.2-8.2-2.5-16.4-3.7-24.5c-0.3-1.8-0.5-3.6-0.9-5.4c-0.3-1.4,0.6-1.7,1.7-1.8
	c1.4,0,2.8,0,4.3,0c2.1,0,2.2-0.2,1.8-2.3c-0.1-0.3,0-0.6,0.2-0.9c1.3,5,2.7,10.1,3.5,15.2c1.1,7,1.7,14.1,2.4,21.1c0,0,0,0,0,0
	c-3-0.4-6-0.8-9.1-1.2C430.8,232.6,430.8,232.4,430.8,232.3z"/>
<path class="st31" d="M440.3,233.7c-1-7-1.5-14.1-2.6-21.1c-0.8-5.1-2.2-10.1-3.4-15.3c-1.2-4.3-2.4-8.6-3.5-12.9
	c-0.3-1.1-0.7-2.2-0.9-3.5c2.2-0.3,4.3-0.3,6.4-0.5c1.1-0.1,2.1-0.7,3.3-1c1,3.2,2,6.2,2.9,9.3c1.1,3.8,2,7.6,3,11.4
	c0.7,3.9,1.5,7.9,2,11.8c0.7,5.1,1.2,10.3,1.7,15.4c0.2,2.3,0.3,4.7,0.4,7.2C446.4,234.5,443.4,234.1,440.3,233.7z"/>
<path class="st32" d="M36.4,196.9c1.1-4.5,2.2-9,3.4-13.7c2.5-6.8,4.8-13.5,7.4-20c1.5-3.8,3.4-7.5,5.3-11.2c1,0.4,1.9,0.9,2.8,1
	c1.2,0.2,2.3,0,3.5,0c2.2,0,2.7,0.8,1.8,2.9c-1.2,2.7-2.6,5.3-3.6,8.1c-2.9,7.8-5.6,15.6-8.4,23.4c-0.7,1.9-1.2,3.8-1.7,5.8
	c-0.6,2.7-1.5,4,2.7,3.8c1.8-0.1,3.6,0.4,5.4,0.8c-0.8,4.1-1.9,8.1-2.4,12.1c-1,7.9-1.7,15.9-2.5,23.8c-0.1,0.1-0.2,0.1-0.3,0.3
	c-2.9,0.2-5.8,0.3-8.8,0.3c0-2.7,0-5.2,0.2-7.7c0.5-4.9,1.2-9.9,1.7-14.8c0.4-4.1,2.1-8.1,1.4-12.4c-0.2-1.4-0.7-1.7-1.9-1.7
	C40.4,197.5,38.4,197.2,36.4,196.9z"/>
<path class="st33" d="M36.4,197.1c2,0.1,4,0.5,6,0.6c1.3,0.1,1.7,0.3,1.9,1.7c0.7,4.3-1,8.3-1.4,12.4c-0.5,5-1.2,9.9-1.7,14.8
	c-0.2,2.5-0.3,5-0.4,7.7c0,0.3-0.1,0.4-0.3,0.5c-2.9,0.2-5.8,0.3-8.8,0.4C31.8,222.3,33.4,209.7,36.4,197.1z"/>
<path class="st34" d="M145.4,48.5c8.4-3.3,16.7-6.8,25.2-9.8c10.6-3.7,21.6-6.3,32.8-7.7c8-1,16.1-1.6,24.1-2.2
	c4.4-0.3,8.9-0.5,13.3-0.3c6.3,0.3,12.7,0.9,19,1.4c11,0.9,21.9,3.1,32.5,6c10.5,2.8,20.7,6.4,30.5,11c5.3,2.5,10.5,5.2,15.9,8.1
	c-0.6,0.5-1.3,1-1.9,1c-3.7,0.1-7.4,0-11.1,0c-0.8,0-1.7-0.1-1.8,1.1c-2.2-0.9-4.2-1.7-6.3-2.7c-9.6-4.3-19.4-7.6-29.5-10.2
	c-12.9-3.4-26-5.1-39.2-6c-6.5-0.4-13-0.3-19.4,0c-7.4,0.3-14.9,0.8-22.3,1.9c-8.5,1.3-17,2.9-25.4,5.1c-8,2.1-15.7,5.2-23.5,7.9
	c-1.2,0.4-2.4,0.9-3.7,1.4c-0.4,0.1-0.8,0.1-1,0.2c-4.7,2.4-9.3,4.8-14,7.1c-1.1,0.6-2.3,1-3.6,1.5c-0.9-0.1-1.6-0.3-2.3-0.3
	c-3.6,0-7.1,0-10.7,0c-0.7,0-1.4-0.5-2-0.8c0.2-0.3,0.4-0.5,0.6-0.6C129.5,57.2,137.5,52.8,145.4,48.5z"/>
<path class="st35" d="M145.3,48.4c-7.8,4.5-15.8,8.8-23.8,13.2c-0.2,0.1-0.4,0.3-0.7,0.6c-0.5,0.3-0.8,0.4-1,0.6
	c-7.8,5.8-15.6,11.6-23.3,17.5c-2.4,1.8-4.3,4.1-6.6,6.2c-0.5,0.3-0.9,0.5-1.5,0.7c-3,0-5.8,0.1-8.5,0c-1.1,0-2.1-0.5-3.2-0.7
	c3.3-3.3,6.6-6.7,9.9-10c1.2-1.2,2.5-2.4,3.8-3.7c1.4-1,2.8-1.9,4.1-2.9c7.6-5.5,15.3-11,22.9-16.5c2.4-1.7,5-3.2,7.6-4.9
	c1.1-0.5,2.1-0.8,3.3-1.2c1.6,0.2,3,0.7,4.5,0.7C136.8,48.2,141,48.2,145.3,48.4z"/>
<path class="st35" d="M356.4,54.9c2.7,1.6,5.4,3.3,8,5.1c7.8,5.6,15.4,11.5,22.3,18.2c0.2,0.2,0.4,0.2,0.8,0.4
	c2,1.8,3.8,3.6,5.7,5.4c2,2,3.9,4.1,5.8,6.2c1,1.1,2,2.3,3,3.7c-0.8,0.4-1.5,0.7-2.3,0.7c-3.2,0.2-6.3,0.3-9.6,0.4
	c-3.4-3.2-6.7-6.4-10-9.7c-3.6-3.2-7.1-6.3-10.7-9.3c-7.8-6.6-16.1-12.4-24.8-17.7c-1-0.6-1.8-1.5-2.7-2.3c3.9,0,7.8,0,11.8,0
	C354.5,55.9,355.4,55.3,356.4,54.9z"/>
<path class="st36" d="M341.7,55.9c1.1,0.8,1.9,1.7,2.9,2.3c8.7,5.3,17.1,11.1,24.8,17.7c3.6,3,7.1,6.2,10.7,9.5c-0.5,0.5-1,1-1.5,1
	c-2.3,0.1-4.5,0-6.8,0.1c-0.9,0-1.8,0.5-2.9,0.7c-0.2,0-0.2,0-0.4-0.1c-0.3-0.3-0.6-0.4-0.8-0.6c-7-6.5-14.6-12.2-22.6-17.3
	c-5.4-3.5-11.1-6.6-16.7-10c-0.4-0.3-0.7-0.5-1.2-0.6c-0.4-0.1-0.7-0.2-1-0.5c-0.3-0.2-0.5-0.2-0.9-0.3c-0.5-0.3-1-0.5-1.4-0.7
	c0-1.3,0.9-1.1,1.7-1.1c3.7,0,7.4,0,11.1,0c0.7,0,1.4-0.5,2.1-0.9C339.8,55.2,340.7,55.5,341.7,55.9z"/>
<path class="st37" d="M50.4,233.7c0.6-7.9,1.3-15.9,2.3-23.8c0.5-4,1.6-8,2.4-12.2c1.2-4.2,2.3-8.1,3.5-12
	c3.7-12.3,9.4-23.8,14.8-35.3c0.4-0.8,0.6-1.7,1.1-2.6c0.7-0.7,1.3-1.3,1.7-2c2.6-4,5.1-8.1,7.7-12.1c0-0.1,0.1-0.1,0.1-0.2
	c0.1-1.9,1.5-2.4,3-2.7c-2.5,4.1-5,8.1-7.3,12.1c-0.5,0.8-0.7,1.8-1,2.6c0.9,0.1,1.8,0.3,2.7,0.3c103,0,206.1,0,309.1,0
	c0.4,0,0.8,0.1,1.1,0c0.5-0.1,1.4-0.3,1.5-0.6c0.2-0.4-0.2-1.1-0.5-1.7c-0.6-1.4-1.3-2.7-1.9-4c1.8,2.6,3.5,5.2,5.1,7.8
	c1.5,2.4,3,4.9,4.5,7.5c1,2.2,2.1,4.4,3.1,6.5c4.6,9.5,8.3,19.4,11.2,29.6c1.1,3.8,2.1,7.6,3.1,11.4c0.7,4.2,1.4,8.4,2,12.6
	c0.5,4,0.9,8.1,1.4,12.1c0.1,1,0.2,2,0.4,3.1c-3.7-0.5-7.4-1.1-11.1-1.9c-13.6-3-27.1-6.7-40.3-11.5c-10.9-4-21.6-8.6-32.3-13.1
	c-4.1-1.7-8-3.8-12.2-5.8c-5.7-3.2-11.4-6.2-16.8-9.7c-6.9-4.4-13.6-9.2-20.4-13.9c-1.1-0.8-1.9-1-3.2-0.4
	c-22.1,9.4-44.4,17.9-67.2,25.3c-11.4,3.7-23,6.9-34.5,10.3c-0.6,0.2-1.2,0.4-1.9,0.6c-6.6,1.7-13.2,3.4-19.7,5
	c-18.5,4.5-37.2,8.5-56,11.4c-9.9,1.5-19.7,3.1-29.6,4.4c-7.5,1-15,1.6-22.4,2.3C52.7,233.5,51.6,233.6,50.4,233.7z"/>
<path class="st38" d="M26.1,200.1c-1.9,0-3.7-0.2-5.5-0.2c-1.4,0-2.6,0-2.5-1.9c0-0.2-0.3-0.4-0.5-0.7c0.5-3.2,1.1-6.3,1.7-9.6
	c1.5-4.9,2.9-9.7,4.6-14.5c3.2,0,6.2,0.1,9.2,0.4c-0.9,3-1.7,5.9-2.6,8.8C29,188.3,27.6,194.1,26.1,200.1z"/>
<path class="st39" d="M33.1,173.5c-3-0.1-6-0.2-9.2-0.3c1.1-3.6,2.3-7.2,3.6-10.8c0.3-0.8,0.5-1.5,0.7-2.4c1.2-2.9,2.5-5.7,3.7-8.6
	c0.8-1.7,1.6-3.3,2.6-4.8c0.9,0.2,1.6,0.5,2.3,0.6c1.7,0.1,3.4,0,5.1,0.1c0.6,0,1.3,0.5,1.9,0.8c-2.1,4.7-4.2,9.2-6.2,13.8
	C36,165.6,34.6,169.6,33.1,173.5z"/>
<path class="st40" d="M43.9,147.8c-0.6-0.2-1.3-0.7-1.9-0.7c-1.7-0.1-3.4,0-5.1-0.1c-0.7,0-1.4-0.4-2.2-0.7
	c-0.1-0.2-0.1-0.4-0.1-0.7c1.8-3.5,3.5-6.9,5.4-10.2c3.7-6.3,7.5-12.5,11.3-18.8c0.2-0.2,0.4-0.3,0.8-0.4c2.7,0.1,5.2,0.1,7.7,0.3
	c0.8,0,1.6,0.5,2.3,0.8c-3.2,5.1-6.6,9.9-9.6,15c-2.6,4.3-4.7,8.8-7.2,13.2C44.7,146.4,44.3,147.1,43.9,147.8z"/>
<path class="st41" d="M62.1,117.3c-0.8-0.2-1.6-0.7-2.3-0.7c-2.5-0.1-5-0.1-7.6-0.3c2.9-4.2,5.7-8.5,8.9-12.5
	c4.9-5.9,10.2-11.5,15.4-17.3c1.2,0.2,2.2,0.6,3.3,0.7c2.8,0.1,5.6,0,8.5,0.1c-3.7,4.1-7.6,8-11.3,12c-3,3.3-5.7,6.8-8.7,10.2
	C66.2,112.2,64.1,114.7,62.1,117.3z"/>
<path class="st40" d="M428.6,130.3c1.4,2.4,3,4.8,4.3,7.3c1.5,2.8,2.9,5.7,4.5,8.6c1.7,3.8,3.3,7.6,4.9,11.3
	c0.2,0.6,0.5,1.1,0.7,1.7c1.1,3,2.3,6.1,3.3,9.3c-1.2,0.3-2.2,0.4-3.2,0.5c-2.3,0.1-4.7,0.3-7.1,0.3c-1.5-3.8-2.9-7.6-4.6-11.2
	c-2-4.5-4.3-8.8-6.6-13.4c-1.2-2.3-2.3-4.4-3.4-6.5c-1.1-2.2-2.2-4.5-3.1-6.8c2.8-0.1,5.5-0.2,8.2-0.3
	C427.2,131,427.9,130.6,428.6,130.3z"/>
<path class="st38" d="M436,169.4c2.3-0.1,4.7-0.2,7-0.4c1-0.1,2.1-0.2,3.3-0.3c2.5,8.1,4.8,16.2,7.2,24.3c0.2,0.6,0.4,1.3,0.7,2
	c0.1,0.7,0.1,1.4,0.1,2.2c-0.2,0.4-0.6,0.6-0.6,0.8c0.1,2.1-1.3,2-2.8,2c-1.8,0-3.5,0.2-5.4,0.3c-1.1-3.8-2.1-7.6-3.1-11.4
	c-0.9-3.1-1.8-6.1-2.9-9.4c-0.1-0.2-0.1-0.4-0.1-0.5c-0.4-1.2-0.7-2.2-1.1-3.4C437.5,173.4,436.7,171.4,436,169.4z"/>
<path class="st41" d="M428.6,130.2c-0.7,0.4-1.4,0.8-2.1,0.8c-2.7,0.2-5.4,0.2-8.3,0.3c-0.5-0.2-0.9-0.4-1.1-0.6
	c-2.8-4.2-5.5-8.6-8.5-12.8c-2-2.9-4.3-5.7-6.5-8.6c-2.6-3.1-5.1-6.2-7.6-9.2c-1.4-1.7-2.9-3.5-4.3-5.2c3.2-0.1,6.3-0.2,9.5-0.4
	c0.8,0,1.5-0.3,2.3-0.6c2.6,2.8,5.1,5.7,7.8,8.7c4.8,6.7,9.5,13.3,14.2,19.9C425.7,125,427,127.6,428.6,130.2z"/>
<path class="st42" d="M43.9,147.9c0.4-0.8,0.9-1.5,1.5-2.2c0.9,0.3,1.5,0.8,2.2,0.9c1.5,0.1,3.1-0.1,4.6,0.1
	c0.7,0.1,1.4,0.7,2.1,1.2c-0.6,1.4-1.2,2.7-1.8,4c-1.7,3.8-3.6,7.4-5.1,11.3c-2.6,6.5-4.9,13.2-7.4,19.9c-2.1,0-4.2-0.1-6.2-0.3
	c-1-0.1-2-0.2-3.1-0.3c0.7-2.9,1.6-5.8,2.4-8.8c1.5-4.1,3-8,4.6-11.9C39.6,157.2,41.8,152.6,43.9,147.9z"/>
<path class="st43" d="M417.9,202.4c-1.1-3.7-2.1-7.5-3.2-11.3c-2.9-10.2-6.6-20.1-11.2-29.6c-1-2.1-2.1-4.2-3.1-6.6
	c0.6-0.7,1.1-1.3,1.8-1.4c0.9-0.2,2-0.1,3-0.1c1.2,0,1.4-0.7,1-1.6c-0.9-2.2-1.8-4.5-2.9-6.6c-1.5-2.8-3-5.7-4.8-8.3
	c-4.6-6.8-9.2-13.6-14-20.2c-2.9-3.9-6.2-7.5-9.2-11.3c-0.6-0.8-1.1-1.7-1.8-2.9c2.5,0,4.6,0.1,6.7-0.1c0.9-0.1,1.8-0.7,2.9-1
	c2.6,3,5.1,5.9,7.7,8.8c1,1.1,2,2.3,3,3.5c0,0.1,0,0.3,0.1,0.4c0.6,0.8,1.2,1.5,1.9,2.2c3.2,4.6,6.4,9.1,9.4,13.7
	c3.4,5.4,6.6,10.9,9.9,16.5c1,2.3,2,4.4,3,6.6c-0.6,0.2-1.3,0.7-1.9,0.7c-1.7,0.1-3.5,0-5.2,0c-1.6,0-2.2,1-1.5,2.5
	c5,10.4,9.2,21.2,12.7,32.2c0.5,1.6,0.8,3.4,1.5,4.9c0.9,2.1,0.1,4.1,0.1,6.1c0,0.2-0.7,0.7-1.1,0.7c-0.9,0.1-1.7-0.1-2.6,0.1
	c-0.6,0.1-1.1,0.5-1.7,1c-0.1,0.3-0.1,0.4,0,0.5C418.1,201.9,418,202.2,417.9,202.4z"/>
<path class="st42" d="M417.9,153.1c-1.1-2.2-2.1-4.4-2.9-6.7c2.3-0.4,4.6-0.6,6.8-0.8c1.1-0.1,2.1-0.5,3.1-0.7
	c2.2,4.4,4.5,8.8,6.5,13.2c1.7,3.6,3,7.4,4.6,11.2c0.8,2.1,1.5,4.2,2.1,6.3c-2.4,0.3-4.7,0.3-7,0.5c-0.7,0.1-1.4,0.6-2.1,0.9
	c0.7,0.5,1.3,1.3,2.1,1.6c1,0.3,2.1,0,3.1,0.1c1.7,0.1,3.4,0.2,5.1,0.4c0,0,0,0.2,0,0.3c-1,0.5-2.1,1-3.2,1.2
	c-2.1,0.2-4.2,0.2-6.4,0.4c-1.5-3.5-2.7-7-4.1-10.5C423.2,164.6,420.6,158.9,417.9,153.1z"/>
<path class="st37" d="M418.1,201.7c-0.1,0-0.2-0.1-0.1-0.2C418.1,201.4,418.1,201.6,418.1,201.7z"/>
<path class="st43" d="M52.5,152c0.5-1.3,1.1-2.6,1.8-4.1c0.8-1.5,1.6-2.8,2.3-4.1c5.9-10.8,12.9-20.8,20.4-30.6
	c0.5-0.5,0.9-0.9,1.4-1.4c3-3.2,6-6.5,9.1-9.7c3.6,0.2,7,0.4,10.5,0.6c-0.7,1.3-1.4,2.4-2.1,3.6c-1,1.2-2,2.2-3,3.3
	c-3.4,3.9-7,7.4-10,11.5c-5.3,7.3-10.2,14.8-15.2,22.3c-0.4,0.6-0.6,1.3-0.7,2.1c-0.2,1.1,0.2,1.7,1.5,1.7c1.5-0.1,3-0.1,4.4,0
	c0.5,0,1,0.5,1.5,0.7c-0.3,0.9-0.5,1.8-0.9,2.6c-5.5,11.5-11.1,23-14.8,35.3c-1.2,3.9-2.3,7.8-3.5,11.9c-1.9-0.1-3.7-0.6-5.5-0.6
	c-4.2,0.1-3.3-1.1-2.7-3.8c0.5-2,1-3.9,1.7-5.8c2.8-7.8,5.5-15.6,8.4-23.4c1-2.8,2.4-5.4,3.6-8.1c0.9-2.1,0.4-2.8-1.8-2.9
	c-1.2,0-2.4,0.1-3.5,0C54.4,152.8,53.6,152.4,52.5,152z"/>
<path class="st44" d="M154.7,54.4c1.2-0.5,2.3-1,3.6-1.4c7.8-2.7,15.5-5.8,23.5-7.9c8.3-2.2,16.8-3.8,25.4-5.1
	c7.4-1.1,14.8-1.5,22.3-1.9c6.5-0.3,13-0.4,19.4,0c13.2,0.8,26.4,2.6,39.2,6c10.1,2.6,19.9,5.9,29.4,10.3c-0.8,0.4-1.7,0.7-2.5,0.7
	c-5,0-10,0-15,0c-0.8,0-1.7-0.1-1.8,1.1c-2.8-0.7-5.3-1.6-8-2.2c-7.4-1.6-14.8-3.4-22.3-4.5c-8.5-1.2-17.2-1.9-25.8-2.2
	c-11.4-0.4-22.7-0.2-34,1.8c-7.6,1.4-15.3,2.8-22.8,4.7c-6.1,1.5-12,3.8-18,5.6c1.3-0.8,2.6-1.4,3.9-2c1.1-0.5,2.2-0.9,3.4-1.4
	c-0.1-0.2-0.1-0.4-0.2-0.6c-0.7,0-1.3,0-2,0c-5.3,0-10.5,0-15.8,0C156.1,55.5,155.4,54.8,154.7,54.4z"/>
<path class="st45" d="M154.6,54.4c0.8,0.4,1.5,1.1,2.1,1.1c5.3,0.1,10.5,0,15.8,0c0.7,0,1.3,0,2,0c0.1,0.2,0.1,0.4,0.2,0.6
	c-1.1,0.4-2.3,0.9-3.4,1.4c-1.3,0.6-2.6,1.2-4,2c-0.4,0.1-0.7,0.1-1.1,0.1c-0.7,0.1-1.3,0.2-1.7,0.4c-2.9,1.4-5.9,2.7-8.8,4.2
	c-5.3,2.7-10.6,5.3-15.8,8.1c-3.4,1.9-6.7,4.2-10.1,6.3c-10,6.3-19,13.6-27.6,21.6c-2.1,1.9-4.1,4-6.1,5.9c0.7-1.1,1.3-2.2,2.1-3.5
	c-3.4-0.2-6.9-0.4-10.4-0.7c2.2-2.4,4.5-4.8,6.8-7c2.5-2.5,5-4.9,7.7-7.4c1-0.8,1.9-1.6,2.8-2.3c8.9-7.1,18-13.8,27.9-19.5
	c1.2-0.7,2.3-1.6,3.4-2.4c1.2-0.5,2.3-1,3.5-1.6c4.7-2.4,9.3-4.8,14-7.1C153.8,54.5,154.2,54.5,154.6,54.4z"/>
<path class="st46" d="M298.4,56.3c0-1.3,0.9-1.1,1.7-1.1c5,0,10,0,15,0c0.8,0,1.7-0.3,2.6-0.6c2.1,0.7,4.1,1.6,6.3,2.5
	c0.5,0.3,1,0.5,1.6,0.8c0.4,0.2,0.6,0.2,0.8,0.3c0.3,0.1,0.6,0.2,1.1,0.5c0.5,0.3,0.8,0.5,1.2,0.7c5.6,3.3,11.3,6.4,16.7,9.9
	c8,5.1,15.6,10.9,22.6,17.3c0.2,0.2,0.5,0.4,0.8,0.8c-0.8,0.6-1.5,1.3-2.4,1.4c-2.1,0.2-4.2,0.1-6.3,0.1c0.8,1.3,1.7,2,2.5,2.9
	c0.4,0.4,0.7,0.9,1,1.4c0.4,0.7,0.6,1.6,1.1,2.2c1.9,1.9,4,3.7,5.9,5.6c0.4,0.4,0.5,1,0.7,1.6c-0.5,0.2-1,0.4-1.5,0.4
	c-2.7,0-5.4,0-8.2,0c-0.7,0-1.4,0.2-2.2,0.3c-0.9-0.6-1.7-1.2-2.6-1.9c-2.3-2-4.4-3.9-6.6-6c0.5-0.4,1.1-0.9,1.6-0.9
	c2.5-0.1,5.1,0,7.6-0.1c0.6,0,1.2-0.2,2.1-0.4c-0.4-0.6-0.5-0.9-0.8-1.2c-2.3-2.3-4.4-4.8-6.9-6.8c-4.3-3.4-8.8-6.6-13.3-9.6
	c-4.5-2.9-9.1-5.6-13.9-8.2c-3.7-2-7.6-3.6-11.5-5.4c-2.3-0.9-4.4-1.7-6.6-2.7c-0.4-0.3-0.7-0.5-1.2-0.6
	C304.1,58.3,301.2,57.3,298.4,56.3z"/>
<path class="st36" d="M136,63.3c-1,0.9-2.1,1.8-3.3,2.5c-9.9,5.6-19,12.4-27.9,19.5c-0.9,0.7-1.8,1.5-2.9,2.2
	c-1.3-0.3-2.4-0.5-3.5-0.6c-2.8-0.2-5.6-0.3-8.5-0.4c2.2-2.1,4.1-4.4,6.5-6.2c7.7-5.9,15.5-11.7,23.3-17.5c0.2-0.2,0.5-0.3,0.9-0.5
	c0.8,0.2,1.5,0.7,2.2,0.7c3.6,0.1,7.1,0,10.7,0C134.4,63,135.1,63.1,136,63.3z"/>
<path class="st47" d="M89.9,86.4c2.9,0.1,5.8,0.2,8.6,0.4c1.1,0.1,2.2,0.3,3.3,0.6c-2.4,2.5-4.9,5-7.4,7.4c-2.3,2.3-4.6,4.6-6.9,7
	c-3,3.4-6,6.6-9,9.8c-0.4,0.4-0.8,0.9-1.4,1.3c0.2-0.7,0.5-1.3,0.9-2.2c-0.8-0.1-1.4-0.2-2-0.2c-2,0-4.1,0.1-6.1-0.1
	c-0.5,0-1-0.7-1.5-1.1c2.8-3.4,5.6-6.9,8.6-10.2c3.7-4.1,7.6-8,11.5-12C88.9,86.9,89.3,86.7,89.9,86.4z"/>
<path class="st47" d="M393.6,113.6c-1-1.1-2-2.3-3-3.4c-2.5-2.9-5-5.8-7.7-8.9c-2.7-2.9-5.3-5.6-7.9-8.3c-1.9-2-3.9-3.9-5.9-5.8
	c0.9-0.2,1.8-0.7,2.8-0.7c2.3-0.1,4.5,0,6.8-0.1c0.5,0,1-0.5,1.6-0.9c3.3,3.1,6.5,6.3,9.9,9.5c1.6,1.8,3,3.5,4.4,5.2
	c2.5,3,5,6.1,7.6,9.3c-0.7,0.7-1.4,1.4-2.1,1.4c-2.3,0.2-4.6,0.1-7.1,0.1C393.2,112.1,393.4,112.8,393.6,113.6z"/>
<path class="st45" d="M368.9,87.2c2.1,1.9,4.1,3.8,6,5.8c2.6,2.7,5.2,5.4,7.8,8.2c-0.9,0.5-1.8,1.1-2.7,1.2
	c-2.1,0.2-4.2,0.1-6.7,0.1c0.7,1.2,1.2,2.2,1.8,2.9c3.1,3.8,6.4,7.3,9.2,11.3c4.8,6.6,9.4,13.4,14,20.2c1.8,2.7,3.3,5.5,4.8,8.3
	c1.1,2.1,2,4.4,2.9,6.6c0.4,0.9,0.2,1.6-1,1.6c-1,0-2-0.1-3,0.1c-0.6,0.1-1.2,0.7-1.8,1.3c-1.5-2.3-2.9-4.8-4.5-7.2
	c-1.6-2.6-3.3-5.2-5.1-7.9c-4.5-7.3-9.8-13.9-15.3-20.2c-2.7-3-5.5-5.9-8.2-8.9c-0.4-0.4-0.7-0.7-1.2-1c-2.3-2.1-4.4-4.2-6.6-6.3
	c0.7-0.1,1.4-0.3,2.1-0.4c2.7,0,5.4,0,8.2,0c0.5,0,1-0.3,1.5-0.4c-0.2-0.5-0.3-1.2-0.7-1.6c-1.9-1.9-4-3.7-5.9-5.6
	c-0.6-0.6-0.7-1.5-1.1-2.2c-0.3-0.5-0.6-1-1-1.4c-0.8-0.8-1.7-1.5-2.5-2.9c2.1,0,4.2,0.1,6.3-0.1c0.8-0.1,1.6-0.8,2.4-1.3
	C368.7,87.2,368.8,87.2,368.9,87.2z"/>
<path class="st34" d="M328.5,59.1c-0.3-0.1-0.6-0.2-1-0.5C327.7,58.7,328.1,58.8,328.5,59.1z"/>
<path class="st34" d="M326.2,58c-0.2,0-0.4,0-0.7-0.2C325.7,57.8,326,57.9,326.2,58z"/>
<path class="st48" d="M367.2,110.6c2.7,2.9,5.6,5.8,8.2,8.8c5.6,6.3,10.8,12.8,15.2,20.1c0.7,1.5,1.4,2.8,2,4.2
	c0.2,0.5,0.6,1.2,0.5,1.7c-0.1,0.3-1,0.5-1.5,0.6c-0.4,0.1-0.7,0-1.1,0c-103,0-206.1,0-309.1,0c-0.9,0-1.8-0.2-2.7-0.3
	c0.3-0.9,0.5-1.9,1-2.6c2.4-4,4.9-8,7.4-12.2c0.3-0.5,0.5-0.8,0.9-1.2c0.4-0.5,0.7-1,1.1-1.5c0.4-0.5,0.7-1,1.1-1.5
	c0.3-0.3,0.6-0.4,0.8-0.7c6.7-8.6,14.4-16.2,22.3-23.7c0.4-0.4,1.2-0.6,1.8-0.7c0.7,1.9,2.3,1.3,3.5,1.3c78.2,0,156.4,0,234.7,0
	c0.8,0,1.7,0.1,2.4-0.2c0.5-0.2,0.8-0.8,1.2-1.3c0.8,0.6,1.6,1.2,2.5,1.8c2.3,2.1,4.4,4.2,6.7,6.4
	C366.5,110,366.8,110.3,367.2,110.6z"/>
<path class="st45" d="M90,126.6c-0.3,0.5-0.6,0.9-1.1,1.5c-0.5,0.6-0.8,1-1.1,1.5c-0.2,0.3-0.4,0.6-0.7,1c-1.6,0.4-3,0.9-3.1,2.9
	c0,0.1,0,0.1-0.1,0.2c-2.5,4.1-5.1,8.1-7.7,12.1c-0.5,0.7-1,1.3-1.7,2c-0.6-0.2-1.1-0.6-1.6-0.7c-1.5-0.1-3-0.1-4.4,0
	c-1.3,0.1-1.7-0.6-1.5-1.7c0.1-0.7,0.3-1.5,0.7-2.1c5-7.5,9.9-15,15.2-22.3c2.9-4.1,6.6-7.6,10-11.4c0.1,1.5,1.1,1.6,2.1,1.6
	c1.7,0,3.5,0,5.2,0c0,0.2,0,0.4,0,0.7c-0.6,0.1-1.2,0.4-1.8,0.4c-1.4,0.1-2.7,0-4.1,0c-2.4,0-5.1,2.1-6.1,4.8c2.6,0,5,0,7.5,0
	c0.1,0.2,0.2,0.4,0.3,0.5c-1,1.2-2,2.4-2.9,3.7C92,123.1,91,124.9,90,126.6z"/>
<path class="st49" d="M68.3,109.5c0.6,0.3,1.1,1,1.6,1c2,0.1,4,0,6.1,0.1c0.6,0,1.3,0.1,2,0.2c-0.4,0.8-0.7,1.5-1,2.2
	c-7.5,9.9-14.5,19.9-20.3,30.7c-0.7,1.3-1.5,2.6-2.3,3.9c-0.8-0.3-1.5-0.9-2.2-1c-1.5-0.2-3.1,0-4.6-0.1c-0.7-0.1-1.4-0.5-2.2-1
	c2.3-4.5,4.5-9,7-13.3c3-5.1,6.4-9.9,9.6-15C64.1,114.7,66.2,112.2,68.3,109.5z"/>
<path class="st49" d="M393.6,113.7c-0.2-0.8-0.4-1.6-0.8-2.7c2.5,0,4.8,0.1,7.1-0.1c0.7,0,1.5-0.7,2.2-1.3c2.2,2.7,4.4,5.4,6.5,8.3
	c2.9,4.2,5.6,8.5,8.5,12.8c0.2,0.3,0.5,0.5,0.9,0.7c1.2,2.3,2.3,4.5,3.4,6.8c1.1,2.1,2.3,4.2,3.4,6.5c-1,0.4-2.1,0.7-3.1,0.9
	c-2.2,0.3-4.4,0.4-6.8,0.7c-3.4-5.4-6.6-10.9-10-16.3c-3-4.6-6.2-9.1-9.4-13.8c-0.2-1.3-0.6-2.3-1.9-2.2
	C393.6,113.9,393.6,113.8,393.6,113.7z"/>
<path class="st31" d="M439.3,178.9c-1.7,0-3.4-0.1-5.1-0.2c-1-0.1-2.2,0.2-3.1-0.1c-0.8-0.2-1.4-1-2.1-1.6c0.7-0.3,1.4-0.8,2.1-0.9
	c2.3-0.2,4.5-0.3,7-0.4C438.6,176.7,439,177.8,439.3,178.9z"/>
<path class="st47" d="M393.7,114.1c1.3-0.2,1.6,0.8,1.8,2C394.9,115.5,394.3,114.8,393.7,114.1z"/>
<path class="st46" d="M90.1,126.5c0.9-1.7,1.9-3.4,3-5.1c0.9-1.3,1.9-2.4,2.9-3.7c-0.1-0.2-0.2-0.4-0.3-0.5c-2.5,0-4.9,0-7.5,0
	c0.9-2.7,3.7-4.8,6.1-4.8c1.4,0,2.7,0,4.1,0c0.6,0,1.2-0.3,1.8-0.4c0-0.2,0-0.4,0-0.7c-1.7,0-3.5,0-5.2,0c-1,0-2-0.1-2-1.7
	c1-1.2,1.9-2.2,2.9-3.4c2.1-2.1,4.1-4.1,6.2-6c8.6-7.9,17.6-15.3,27.7-21.5c1.2,0.3,2.1,0.6,3.1,0.6c2.7,0.1,5.4-0.1,8.2,0.1
	c0.9,0,1.7,0.7,2.5,1.2c-1,0.7-2,1.2-3,1.7c-0.1,0-0.3,0-0.3-0.1c-0.4-0.2-0.8-0.4-1.1-0.2c-1.6,0.9-3.2,1.8-4.6,2.9
	c-0.5,0.3-0.7,1-1.1,1.6c-0.4,0.4-0.7,0.7-1,1.1c0,0,0,0-0.1,0c-0.4,0.2-0.7,0.5-1,0.8c-0.4,0.3-0.7,0.5-1.2,0.6
	c-0.4,0.2-0.7,0.5-1,0.8c-0.6,0.5-1.2,1-1.9,1.4c-0.4,0.2-0.7,0.5-1,0.7c0,0,0,0-0.1,0c-0.4,0.2-0.7,0.5-1,0.8
	c-0.1,0.2-0.2,0.2-0.5,0.3c-0.5,0.4-0.9,0.7-1.4,1.1c0,0,0,0-0.1,0c-0.5,0.5-1,1-1.5,1.5c-0.1,0-0.3,0-0.4,0
	c-0.4,0.4-0.7,0.7-1.1,1.1c-0.3,0.1-0.5,0.2-0.8,0.3c-0.4,0.4-0.7,0.7-1.1,1.1c-0.4,0.3-0.7,0.5-1.1,0.7c-0.3,0.3-0.5,0.5-0.7,0.8
	c-0.5,0.5-1,1-1.4,1.4c-0.6,0.3-1.3,0.4-1.7,0.9c-7.8,7.5-15.6,15.1-22.3,23.7C90.7,126.1,90.5,126.3,90.1,126.5z"/>
<path class="st50" d="M298.2,56.3c3,1,5.9,2,9,3.1c0.5,0.3,0.9,0.5,1.2,0.6c2.2,0.8,4.3,1.7,6.6,2.7c0.8,0.7,1.3,1.3,2,1.6
	c2.5,1.2,5,2.4,7.5,3.6c1.2,0.6,2.3,1.4,3.5,2.1c0,0.2-0.1,0.3-0.1,0.5c-0.7,0.1-1.4,0.3-2.1,0.3c-4.5,0-9,0-13.6,0
	c-0.8,0-1.7-0.2-1.8,1.1c-4.8-1.9-9.4-3.9-14.1-5.5c-9.4-3.3-19-5.7-28.9-7.4c-9.5-1.6-19.1-2.5-28.7-2.7c-4-0.1-8,0.1-12,0.4
	c-5,0.3-10.1,0.4-15.1,1.2c-8.9,1.5-17.8,3.1-26.4,5.4c-10.8,2.8-21.3,6.9-31.3,12c-3.2,1.6-6.4,3.2-9.6,4.7
	c0.6-0.6,1.1-1.2,1.7-1.5c4.1-2.1,8.2-4.1,12.3-6.2c0.5-0.3,1-0.7,1.9-1.3c-5-0.6-9.5,0.3-14-0.8c0.2-0.5,0.4-0.7,0.7-0.8
	c5.8-2.9,11.6-5.7,17.4-8.6c0.6-0.3,1.2-0.8,1.8-1.2c0.3,0,0.6,0,1,0c6.1-1.9,12-4.2,18.1-5.7c7.5-1.9,15.2-3.3,22.8-4.7
	c11.2-2,22.6-2.3,34-1.8c8.6,0.3,17.2,1,25.8,2.2c7.5,1,14.9,2.9,22.3,4.5C292.9,54.7,295.4,55.5,298.2,56.3z"/>
<path class="st44" d="M166.1,59.6c-0.4,0.4-1,0.9-1.6,1.2c-5.8,2.9-11.6,5.7-17.4,8.6c-0.3,0.1-0.5,0.3-0.7,0.8
	c4.4,1,8.9,0.2,14,0.8c-0.9,0.6-1.4,1-1.9,1.3c-4.1,2.1-8.2,4.1-12.3,6.2c-0.6,0.3-1.1,0.9-1.8,1.6c-0.3,0.3-0.5,0.3-0.7,0.4
	c-0.8-0.4-1.7-1-2.5-1.1c-2.7-0.1-5.4,0-8.2-0.1c-1,0-1.9-0.3-3-0.6c3.2-2.2,6.5-4.5,9.9-6.3c5.2-2.8,10.5-5.5,15.8-8.1
	c2.9-1.5,5.9-2.8,8.8-4.2C164.9,59.8,165.4,59.8,166.1,59.6z"/>
<path class="st51" d="M143.5,80.6c0.3-0.2,0.5-0.2,0.7-0.4c3.3-1.7,6.5-3.3,9.7-4.9c10-5.2,20.5-9.2,31.3-12
	c8.7-2.3,17.6-3.9,26.4-5.4c5-0.8,10.1-0.9,15.1-1.2c4-0.2,8-0.4,12-0.4c9.6,0.1,19.2,1,28.7,2.7c9.8,1.7,19.5,4.1,28.9,7.4
	c4.7,1.6,9.3,3.6,14.2,5.6c3.6,1.7,7.1,3.2,10.4,5c6.4,3.6,12.7,7.4,18.9,11.3c3.5,2.2,6.8,4.7,10.2,7.1c2.2,1.9,4.4,3.8,6.6,5.8
	c-0.4,0.6-0.7,1.2-1.2,1.4c-0.7,0.3-1.6,0.2-2.4,0.2c-78.2,0-156.4,0-234.7,0c-1.3,0-2.8,0.5-3.5-1.3c0.4-0.6,0.8-1.1,1.5-1.6
	c0.4-0.3,0.6-0.5,0.7-0.8c0.3-0.2,0.6-0.4,1.1-0.7c0.5-0.4,0.8-0.8,1.1-1.1c0.2-0.1,0.4-0.2,0.8-0.3c0.5-0.4,0.8-0.8,1.1-1.1
	c0,0,0.2,0,0.4,0c0.6-0.5,1-1,1.5-1.5c0,0,0,0,0.1,0c0.5-0.4,1-0.7,1.4-1.1c0.1,0,0.2-0.1,0.4-0.3c0.5-0.3,0.8-0.6,1-0.8
	c0,0,0,0,0.1,0c0.4-0.3,0.7-0.5,1-0.7c0.6-0.4,1.2-0.9,1.9-1.4c0.5-0.4,0.8-0.6,1.1-0.8c0.3-0.2,0.7-0.4,1.2-0.7
	c0.5-0.4,0.8-0.6,1.1-0.8c0,0,0,0,0.1,0c0.5-0.4,1-0.7,1.5-1.1c1.9-1.1,3.7-2.2,5.6-3.3c0.4-0.3,0.7-0.5,1-0.7
	C141.6,81.8,142.5,81.2,143.5,80.6z"/>
<path class="st44" d="M350.1,95.2c-3.4-2.2-6.7-4.7-10.2-6.9c-6.2-3.9-12.5-7.7-18.9-11.3c-3.3-1.9-6.8-3.3-10.3-5
	c-0.2-1.3,0.8-1.2,1.6-1.2c4.5,0,9,0,13.6,0c0.7,0,1.4-0.2,2.1-0.3c0-0.2,0.1-0.3,0.1-0.5c-1.2-0.7-2.3-1.5-3.5-2.1
	c-2.5-1.3-5-2.4-7.5-3.6c-0.7-0.3-1.3-0.9-1.9-1.5c3.8,1.7,7.7,3.3,11.3,5.3c4.7,2.6,9.4,5.3,13.9,8.2c4.6,3,9,6.2,13.3,9.6
	c2.5,2,4.6,4.5,6.9,6.8c0.2,0.2,0.4,0.6,0.8,1.2c-0.8,0.2-1.4,0.4-2.1,0.4c-2.5,0-5.1,0-7.6,0.1C351.1,94.3,350.6,94.8,350.1,95.2z"
	/>
<path class="st44" d="M308.3,59.9c-0.3-0.1-0.7-0.2-1-0.5C307.6,59.4,307.9,59.6,308.3,59.9z"/>
<path class="st37" d="M367.2,110.5c-0.3-0.2-0.7-0.5-1.1-0.9C366.4,109.8,366.8,110,367.2,110.5z"/>
<path class="st46" d="M87.9,129.5c0.2-0.4,0.5-0.9,0.9-1.4C88.6,128.5,88.3,129,87.9,129.5z"/>
<path class="st44" d="M139.5,83.1c-1.8,1.1-3.5,2.2-5.5,3.3c-0.3,0-0.3,0-0.4,0c0.3-0.5,0.5-1.2,1-1.6c1.5-1,3.1-2,4.6-2.9
	c0.2-0.1,0.7,0.1,0.9,0.2C139.8,82.6,139.7,82.8,139.5,83.1z"/>
<path class="st48" d="M123,94.2c-0.3,0.5-0.7,1-1.2,1.5C122,95.2,122.5,94.7,123,94.2z"/>
<path class="st48" d="M133.4,86.4c0.2,0,0.2,0,0.4,0c-0.3,0.4-0.7,0.7-1.3,1.1C132.7,87.2,133,86.8,133.4,86.4z"/>
<path class="st48" d="M124.5,93.1c-0.3,0.4-0.7,0.7-1.2,1.1C123.5,93.9,123.9,93.5,124.5,93.1z"/>
<path class="st48" d="M119.3,97.2c-0.2,0.3-0.5,0.7-0.9,1.1C118.6,98,118.9,97.6,119.3,97.2z"/>
<path class="st48" d="M121.1,95.7c-0.2,0.3-0.5,0.7-0.9,1.1C120.4,96.5,120.7,96.1,121.1,95.7z"/>
<path class="st48" d="M130.1,89c-0.2,0.2-0.5,0.5-0.9,0.7C129.4,89.5,129.6,89.3,130.1,89z"/>
<path class="st48" d="M132.3,87.5c-0.2,0.2-0.5,0.5-0.9,0.7C131.6,88,131.9,87.8,132.3,87.5z"/>
<path class="st50" d="M139.6,83.1c0.1-0.2,0.2-0.5,0.5-0.7c0.1,0,0.3,0,0.4,0C140.3,82.6,140,82.8,139.6,83.1z"/>
<path class="st48" d="M126,92c-0.2,0.2-0.5,0.5-0.9,0.7C125.3,92.5,125.5,92.3,126,92z"/>
<path class="st48" d="M127.1,91.3c-0.2,0.2-0.5,0.5-0.9,0.7C126.4,91.8,126.7,91.5,127.1,91.3z"/>
<path class="st48" d="M117,99.1c-0.1,0.2-0.2,0.4-0.5,0.7C116.6,99.6,116.8,99.3,117,99.1z"/>
</svg>
