<?xml version="1.0" encoding="utf-8"?>
<!-- Generator: Adobe Illustrator 28.1.0, SVG Export Plug-In . SVG Version: 6.00 Build 0)  -->
<svg version="1.1" id="Layer_1" xmlns="http://www.w3.org/2000/svg" xmlns:xlink="http://www.w3.org/1999/xlink" x="0px" y="0px"
	 viewBox="0 0 506.4 506.7" style="enable-background:new 0 0 506.4 506.7;" xml:space="preserve">
<style type="text/css">
	.st0{fill:#DBA6FF;}
	.st1{fill:#52CEFE;}
	.st2{fill:#5CD4FE;}
	.st3{fill:#66DAFE;}
	.st4{fill:#47C8FE;}
	.st5{fill:#78E5FE;}
	.st6{fill:#32BBFD;}
	.st7{fill:#2BB6FD;}
	.st8{fill:#3FC3FD;}
	.st9{fill:#3AC0FD;}
	.st10{fill:#70E0FE;}
	.st11{fill:#25B3FC;}
	.st12{fill:#1FAEFB;}
	.st13{fill:#159BF4;}
	.st14{fill:#E0B5FF;}
	.st15{fill:#1AA5F8;}
	.st16{fill:#DEAEFF;}
	.st17{fill:#B19EFD;}
	.st18{fill:#C8A2FE;}
	.st19{fill:#A0A7FA;}
	.st20{fill:#7F9AF8;}
	.st21{fill:#8696FC;}
	.st22{fill:#9A9AFC;}
	.st23{fill:#AD9DFD;}
	.st24{fill:#9699FC;}
</style>
<path class="st0" d="M157.3,148.1c0.8-4.7,1.5-9.4,2.5-14.1c1.7-7.9,4.1-15.6,7.3-23c2.7-6.2,5.7-12.4,9.1-18.2
	c3.8-6.5,8.2-12.6,12.5-18.8c1.8-2.6,3.9-5,6.1-7.3c3.8-4.1,7.6-8.1,11.6-12c6.5-6.3,13.6-11.9,21-17.2c10-7.1,20.5-13.2,31.6-18.3
	c6.1-2.8,12.3-5.4,18.6-7.6c7.2-2.5,14.5-4.6,21.8-6.4c5.7-1.4,11.4-2.5,17.2-3.3c5.6-0.8,11.3-1.2,16.9-1.5
	c4.4-0.3,8.8-0.6,13.1-0.3c6.6,0.4,13.2,1.3,19.7,2.2c2.7,0.4,5.5,0.9,8,1.9c5.2,2,8.9,5.8,11,10.9c1,2.6,1.8,5.4,1.8,8.2
	c0,4.9-1.1,9.8-4.8,13.5c-12.7,12.9-25.4,25.8-38.2,38.6c-20.9,20.9-41.9,41.8-62.7,62.8c-4,4.1-5.1,9.3-4.2,15
	c0.8,5.1,3.7,9.2,6.4,13.4c3.3,5.1,6.9,10.1,10.5,15c1.8,2.5,3.8,5,5.9,7.3c4.1,4.4,8.2,8.8,12.5,12.9c4,3.7,8.2,7.2,12.6,10.4
	c5.8,4.3,11.9,8.4,18,12.4c3.9,2.5,7.9,5,12.7,5.1c5.1,0.2,9.8-1.3,13.5-5c32.7-32.7,65.5-65.5,98.3-98.2c3.7-3.7,8.1-6.2,13.7-6.6
	c5.8-0.3,10.9,1.1,15.4,4.8c4.8,3.9,6.9,9.1,7.7,15c0.6,4.5,1.6,9,1.8,13.5c0.3,6.6,0.1,13.2,0.1,19.7c0,2.4-0.1,4.8-0.4,7.2
	c-0.5,4.8-1,9.5-1.9,14.2c-1.1,6.1-2.2,12.2-3.8,18.2c-1.4,5.5-3.4,10.9-5.1,16.4c-0.1,0.2-0.1,0.5-0.3,0.7c-1-1-1.7-2-2.6-2.9
	c-1.5-1.5-2.2-1.4-2.8,0.6c-1.8,6-4.4,11.8-7.2,17.3c-3.2,6.1-6.4,12.3-10,18.2c-4.2,6.8-8.8,13.5-13.6,19.9
	c-4,5.4-8.6,10.3-13.1,15.5c-1.3,1.3-2.4,2.5-3.7,3.7c-0.4,0.4-0.7,0.7-1.1,1.1c-1.9,1.5-3.6,3-5.4,4.5c-4.5,3.6-8.8,7.3-13.5,10.7
	c-10.1,7.2-21,13-32.7,17.3c-8.4,3.1-16.9,5.7-25.7,6.9c-5.8,0.8-11.6,1.6-17.4,1.8c-6.8,0.3-13.7,0.4-20.5-0.1
	c-6.7-0.5-13.4-1.9-20-3c0.4-0.6,0.7-1.1,1-1.5c6.4-7.6,11.6-15.9,15.6-24.9c4.9-11.2,7.3-22.9,7.4-35.1c0-4.2-0.5-8.4-1-12.5
	c-1.2-9.7-4.1-19-8.2-27.8c-4-8.4-9-16.2-14.9-23.4c-5.4-6.5-11.4-12.3-18.1-17.5c-8.1-6.2-16.9-11.1-26.5-14.8
	c-10.3-3.9-20.9-6.1-31.8-6.3c-5.7-0.1-11.5,0.6-17.1,1.5c-10.6,1.7-20.6,5.5-29.7,11.1c-5.6,3.4-10.8,7.4-16.2,11
	c-1.1-8.3-2.2-16.5-3.3-24.6c-0.1-0.8-0.1-1.6-0.2-2.4c-0.3-1.8-0.8-3.6-0.8-5.4c0-1.9,0.5-3.7,0.7-5.6c0.3-2.4,0.6-4.7,0.7-7.1
	c0-1.1-0.1-2.5-0.8-3.2C160.7,150.8,158.9,149.5,157.3,148.1z"/>
<path class="st1" d="M55,363.9c6.9-6.9,13.7-13.8,20.8-20.7c1.2,0.8,2.2,1.5,3.1,2.4c27.4,27.4,54.8,54.8,82.2,82.2
	c1,1,1.7,2.1,2.6,3.1c-6.9,6.9-13.7,13.8-20.8,20.7c-0.9-1.2-1.5-2.5-2.4-3.4c-26.9-27-53.9-53.9-80.8-80.8
	C58.3,366,56.6,365,55,363.9z"/>
<path class="st2" d="M54.9,363.9c1.7,1.1,3.4,2,4.8,3.4c27,26.9,53.9,53.9,80.8,80.8c0.9,0.9,1.5,2.2,2.3,3.5
	c-6.1,6.3-12.2,12.5-18.5,18.6c-0.9-1.1-1.5-2.2-2.3-3c-17.3-17.3-34.6-34.6-51.9-51.9c-11.1-11.1-22.2-22.1-33.3-33.2
	C42.8,376,48.8,370,54.9,363.9z"/>
<path class="st3" d="M36.7,382.1c11.2,11,22.3,22,33.4,33.1c17.3,17.3,34.6,34.6,51.9,51.9c0.9,0.9,1.5,2,2.2,3.1
	c-6.9,7.1-13.9,14.2-20.9,21.2c-0.1,0.1-0.2,0.1-0.6,0c-0.8-0.8-1.2-1.6-1.9-2.3c-7.6-7.6-15.2-15.2-22.8-22.9
	c-0.5-0.6-0.9-1.3-1.3-1.9c1-0.8,1.9-1.5,2.7-2.3c5.3-5.8,8.2-12.4,7.2-20.4c-0.6-5.2-2.5-9.7-6-13.5c-5.8-6.3-13-9.2-21.7-8.1
	c-5.3,0.7-9.9,2.9-13.7,6.6c-3.1,2.9-5.1,6.6-6.7,10.4c-0.6-1-1.1-1.9-1.9-2.7c-8-8-15.9-16-23.9-23.9c-0.5-0.5-1.2-0.8-1.8-1.2
	c1.8-2.3,3.3-4.8,5.3-6.9C23,395.6,29.8,388.9,36.7,382.1z"/>
<path class="st4" d="M163.8,430.9c-1-1-1.7-2.1-2.7-3.1c-27.4-27.4-54.8-54.8-82.2-82.2c-0.9-0.9-1.9-1.5-2.9-2.4
	c5.2-5.4,10.4-10.7,15.9-16c0.4,0.1,0.5,0.2,0.7,0.4c28.4,28.4,56.8,56.8,85.2,85.2c0.7,0.7,0.9,1.9,1.3,2.9
	C173.9,420.7,168.9,425.8,163.8,430.9z"/>
<path class="st5" d="M80.3,503.8c-3.1,0.7-6.1,1.6-9.2,2.1c-2.8,0.5-5.7,0.7-8.6,0.8c-2.1,0.1-4.3,0-6.4-0.4c-4.9-1-10-1.8-14.7-3.4
	c-7.3-2.4-13.7-6.3-19.6-11.3C14.4,485.4,9,477.8,5.2,469c-2.3-5.4-4-10.9-4.5-16.8c-0.2-2.4-0.9-4.9-0.7-7.3
	c0.4-5.3,1.3-10.6,1.9-15.9c0.1-0.5,0.2-0.9,0.6-1.5c1.6-0.8,2.3,0.2,3.1,1c24.1,24.1,48.2,48.2,72.3,72.3
	C78.8,501.7,79.5,502.8,80.3,503.8z"/>
<path class="st6" d="M114.2,304.7c4.4-4.4,8.8-8.9,13.3-13.2c0.7,0.6,1.2,1.2,1.7,1.7c10.9,10.9,21.8,21.8,32.7,32.7
	c17,17,34,34,50.9,51c0.8,0.8,1.2,2,1.8,3.1c-4.1,4.2-8.3,8.4-12.6,12.5c-0.8-0.7-1.4-1.4-2.1-2.1
	C171.4,361.8,142.8,333.2,114.2,304.7z"/>
<path class="st7" d="M214.8,379.9c-0.7-1-1.1-2.2-1.9-3c-17-17-33.9-34-50.9-51c-10.9-10.9-21.8-21.8-32.7-32.7
	c-0.5-0.5-1-1.1-1.6-1.7c3.5-3.7,7-7.2,10.7-10.8c1.2,0.6,2.4,1,3.2,1.8c27.4,27.3,54.8,54.7,82.2,82.1c1.3,1.3,2.4,2.6,1.8,4.6
	C221.9,372.7,218.4,376.3,214.8,379.9z"/>
<path class="st8" d="M179,415.6c-0.5-0.9-0.7-2.2-1.4-2.9c-28.4-28.4-56.8-56.8-85.2-85.2c-0.1-0.1-0.3-0.2-0.5-0.4
	c3.4-3.6,6.9-7.2,10.7-10.8c1.1,0.5,2.2,0.9,2.9,1.6c27.9,27.9,55.8,55.8,83.7,83.7c0.6,0.6,1.1,1.5,1.7,2.2
	C186.9,407.7,183.1,411.6,179,415.6z"/>
<path class="st9" d="M191,403.7c-0.7-0.7-1.1-1.5-1.8-2.2c-27.9-27.9-55.8-55.8-83.7-83.7c-0.7-0.7-1.7-1.1-2.8-1.6
	c3.6-3.8,7.4-7.6,11.3-11.5c28.7,28.5,57.3,57,85.9,85.6c0.7,0.7,1.2,1.4,2,2.1C198.4,396.3,194.7,400,191,403.7z"/>
<path class="st10" d="M80.5,503.8c-1-1-1.7-2.1-2.6-3c-24.1-24.1-48.2-48.2-72.3-72.3c-0.8-0.8-1.5-1.7-3-1c0.7-2.5,1.3-5.1,2.4-7.4
	c1.7-3.7,3.8-7.1,5.9-10.7c0.7,0.4,1.4,0.7,1.9,1.2c8,8,16,15.9,23.9,23.9c0.7,0.7,1.2,1.7,1.8,2.8c-1.3,4.5-1.4,8.8-0.3,13
	c1.5,5.6,4.4,10.5,9.3,13.9c4.9,3.4,10.3,5.2,16.4,4.7c4.7-0.4,8.7-1.9,12.6-4.5c0.5,0.6,0.9,1.3,1.4,1.9
	c7.6,7.6,15.2,15.2,22.8,22.9c0.6,0.6,1.1,1.5,1.7,2.3c-2.8,2.3-5.5,4.9-8.7,6.6C89.7,500.3,85.1,501.9,80.5,503.8z"/>
<path class="st11" d="M225.6,369.1c0.5-2-0.6-3.2-1.9-4.6c-27.4-27.3-54.8-54.7-82.2-82.1c-0.8-0.8-1.9-1.2-3-1.9
	c3.1-3.3,6.4-6.7,9.9-10c1.3,0.5,2.6,0.9,3.4,1.7c11.8,11.8,23.5,23.8,35.3,35.6c5.3,5.3,10.7,10.4,16,15.7
	c10.3,10.3,20.6,20.6,30.9,30.8c1.2,1.1,2,2.3,2.2,3.9C232.7,361.9,229.2,365.5,225.6,369.1z"/>
<path class="st12" d="M236.3,358.3c-0.3-1.5-1.2-2.7-2.3-3.9c-10.3-10.3-20.6-20.6-30.9-30.8c-5.3-5.3-10.8-10.4-16-15.7
	c-11.8-11.8-23.5-23.8-35.3-35.6c-0.8-0.8-2.1-1.2-3.3-1.8c3.4-3.6,6.9-7.2,10.6-10.7c0.8,0.9,1.3,1.7,1.9,2.5
	c2.8,4,5.3,8.3,8.5,11.9c7.7,8.5,15.6,16.7,23.6,24.9c5.7,5.8,11.6,11.5,17.5,17.2c7.1,6.8,14.1,13.7,21.2,20.5
	c0.3,0.3,0.7,0.6,1,0.8c4,2.8,8,5.6,12,8.4c0.7,0.5,1.2,1.3,1.8,2C243.2,351.4,239.9,354.8,236.3,358.3z"/>
<path class="st13" d="M167,251.9c2.3-2.4,4.7-4.8,7.2-7.3c0.1-0.1,0.3-0.1,0.3,0c9.8,19.6,22.7,36.9,38.2,52.3
	c2.5,2.5,5.1,4.8,7.8,7.1c3.3,2.9,6.5,5.8,10,8.4c6.1,4.4,12.4,8.7,18.7,12.8c4.2,2.7,8.7,4.8,13,7.2c0,0.1,0,0.2,0,0.2
	c-2.4,2.4-4.8,4.7-7.4,7c-4.1-2.3-8.1-4.5-11.9-6.8c-11.6-6.9-22.2-15.2-32.1-24.4c-5-4.7-9.8-9.7-14.4-14.7
	c-4.2-4.6-8.3-9.5-12.1-14.5C177.7,270.7,172,261.5,167,251.9z"/>
<path class="st14" d="M305.4,341.2c6.7,1,13.4,2.4,20.1,2.8c6.8,0.5,13.7,0.4,20.5,0.1c5.8-0.3,11.7-1,17.4-1.8
	c8.8-1.2,17.4-3.9,25.7-6.9c11.7-4.3,22.6-10.1,32.7-17.3c4.7-3.3,9-7.1,13.5-10.7c1.8-1.4,3.5-2.9,5.5-4.5c0.9-0.1,1.8,0,1.1-1.2
	c1.2-1.2,2.3-2.4,3.8-3.7c1.7,0.1,3.2,0.2,4.6,0.5c0.7,0.2,1.3,0.9,2,1.3c-3.7,3.7-7.4,7.4-11.2,10.9c-6.5,6.1-13.7,11.4-21.2,16.2
	c-9.6,6.1-19.7,11.1-30.4,15c-7.9,2.8-16,4.9-24.3,6.6c-4.1,0.8-8.3,1.3-12.5,1.5c-7.4,0.4-14.9,0.8-22.3,0.7
	c-5.5-0.1-11-1-16.5-1.8c-4.5-0.6-8.9-1.5-13.4-2.5c1.4-1.9,2.9-3.6,4.5-5.3C305.2,341.2,305.4,341.2,305.4,341.2z"/>
<path class="st15" d="M166.9,251.9c5.2,9.5,10.8,18.8,17.4,27.3c3.8,5,7.9,9.8,12.1,14.5c4.6,5.1,9.4,10.1,14.4,14.7
	c9.9,9.2,20.5,17.4,32.1,24.4c3.9,2.3,7.8,4.5,11.8,6.8c-2.5,2.8-5.2,5.5-8,8.2c-0.7-0.6-1.2-1.5-1.9-2c-4-2.8-8-5.6-12-8.4
	c-0.4-0.2-0.7-0.5-1-0.8c-7.1-6.8-14.2-13.6-21.2-20.5c-5.9-5.7-11.8-11.3-17.5-17.2c-8-8.2-16-16.4-23.6-24.9
	c-3.2-3.6-5.7-7.9-8.5-11.9c-0.6-0.8-1.2-1.6-1.8-2.5C161.7,257.1,164.2,254.5,166.9,251.9z"/>
<path class="st16" d="M452.5,299.9c-0.8-0.4-1.4-1.1-2.1-1.3c-1.4-0.3-2.9-0.4-4.5-0.6c4.2-5.1,8.8-10.1,12.8-15.5
	c4.8-6.4,9.3-13.1,13.6-19.9c3.7-5.9,6.9-12,10-18.2c2.9-5.6,5.4-11.3,7.2-17.3c0.6-2,1.3-2.1,2.8-0.6c0.9,0.9,1.6,1.9,2.4,2.9
	c-0.6,2-1.2,4-2.2,6c-2.2,0.9-2.2,1.1-0.8,2.3c-0.9,2.2-1.6,4.5-2.7,6.6c-3.2,6.4-6.2,12.9-9.8,19.1c-4.2,7.1-8.8,14-13.6,20.7
	C461.6,289.6,457,294.6,452.5,299.9z"/>
<path class="st16" d="M157.2,148.2c1.8,1.3,3.5,2.6,4.9,4.3c0.6,0.7,0.8,2.1,0.8,3.2c-0.1,2.4-0.4,4.7-0.7,7.1
	c-0.2,1.9-0.7,3.8-0.7,5.6c0,1.8,0.6,3.6,0.8,5.4c0.1,0.8,0.1,1.6,0.2,2.4c1.1,8.2,2.2,16.3,3.3,24.8c0.9,3.5,1.8,6.8,2.6,10.1
	c0,0.1,0,0.3-0.1,0.3c-1,1-1.9,1.9-2.9,2.7c-0.8,0.7-1.8,1.2-2.6,1.7c-1.5-5.9-3.3-11.7-4.3-17.7c-1.1-6.3-1.8-12.7-2.3-19.1
	c-0.4-6.1-0.5-12.3-0.4-18.5C156,156.5,156.6,152.4,157.2,148.2z"/>
<path class="st17" d="M174.4,244.5c0,0-0.1,0-0.2,0c-2.5-5.4-4.8-10.8-7.2-16.2c-0.2-0.5-0.4-1-0.6-1.7c1.7-1.8,3.4-3.3,5.1-4.8
	c1.3,2.9,2.5,5.7,3.6,8.6c1.2,3,2.5,5.9,3.7,8.9c0,0.3,0,0.5-0.1,0.7C177.3,241.6,175.9,243,174.4,244.5z"/>
<path class="st17" d="M262.4,332.6c-0.1-0.1-0.1-0.2,0-0.3c1.5-1.6,3-3,4.5-4.5c0.3,0,0.5,0,0.7,0.1c3,1.4,5.9,2.7,8.9,4.1
	c2.9,1.3,5.7,2.4,8.4,3.7c-0.6,0.7-1.1,1.3-1.7,1.8c-1.1,0.9-2.4,1.7-3.5,2.6c0,0-0.2,0-0.3-0.1c-0.2-0.2-0.3-0.2-0.5-0.3
	c0,0-0.2,0-0.3-0.1c-0.4-0.2-0.6-0.2-0.8-0.3c0,0-0.2,0-0.3-0.1c-0.2-0.2-0.3-0.2-0.5-0.3c-0.2,0-0.3,0-0.6-0.1
	c-0.3-0.2-0.4-0.2-0.5-0.3c0,0-0.2,0-0.3-0.1c-0.2-0.2-0.3-0.2-0.5-0.3c-0.2,0-0.3,0-0.6-0.1c-0.3-0.2-0.4-0.2-0.5-0.3
	c0,0-0.2,0-0.3-0.1c-0.2-0.2-0.3-0.2-0.4-0.3c0,0-0.2,0-0.3-0.1c-0.2-0.1-0.3-0.1-0.4,0C269.3,335.8,265.9,334.3,262.4,332.6z"/>
<path class="st18" d="M171.5,221.8c-1.7,1.6-3.3,3.1-5.1,4.7c-1-2.7-1.9-5.4-2.8-8.4c-0.1-0.4-0.2-0.6-0.3-0.8c0,0-0.1-0.2-0.1-0.3
	c-0.1-0.3-0.2-0.4-0.3-0.4c0-0.2,0-0.3-0.1-0.6c0.9-0.7,1.8-1.2,2.6-1.8c1-0.8,1.8-1.8,2.9-2.6c1.1,3.2,2.1,6.3,3.1,9.6
	C171.5,221.4,171.5,221.6,171.5,221.8z"/>
<path class="st16" d="M305,341.2c-1.5,1.7-2.9,3.4-4.4,5.1c-3.6-0.8-7.2-1.7-10.7-2.8c1.6-1.7,3.1-3.3,4.8-4.9c0.3,0,0.5,0,0.8,0
	C298.8,339.5,301.9,340.3,305,341.2z"/>
<path class="st18" d="M294.6,338.6c-1.5,1.6-3.1,3.2-4.8,4.8c-3.1-0.9-6.1-1.9-9-2.8c-0.3-0.1-0.7-0.2-1.1-0.4
	c1.1-1,2.3-1.8,3.5-2.7c0.6-0.5,1.1-1.1,1.8-1.8c0.3-0.1,0.5-0.1,0.8-0.1C288.8,336.6,291.7,337.6,294.6,338.6z"/>
<path class="st0" d="M491.8,237.6c-1.4-1.1-1.4-1.2,0.7-2.1C492.3,236.2,492.1,236.9,491.8,237.6z"/>
<path class="st18" d="M277.9,339.5c0.2-0.1,0.4,0,0.7,0.1C278.4,339.6,278.2,339.6,277.9,339.5z"/>
<path class="st16" d="M163.3,217.4c0.1,0.1,0.2,0.3,0.3,0.6C163.5,217.9,163.4,217.7,163.3,217.4z"/>
<path class="st18" d="M273.4,337.6c0.1-0.1,0.2,0,0.3,0.1C273.7,337.8,273.6,337.7,273.4,337.6z"/>
<path class="st18" d="M274.1,338c0.1-0.1,0.2,0,0.3,0.1C274.4,338.1,274.3,338.1,274.1,338z"/>
<path class="st18" d="M275.3,338.3c0.1-0.1,0.2,0,0.3,0.1C275.5,338.5,275.4,338.5,275.3,338.3z"/>
<path class="st18" d="M276,338.7c0.1-0.1,0.2,0,0.3,0.1C276.3,338.9,276.2,338.8,276,338.7z"/>
<path class="st18" d="M272.8,337.4c0-0.2,0.1-0.2,0.2-0.1C273,337.4,272.9,337.5,272.8,337.4z"/>
<path class="st18" d="M277.1,339.1c0.1-0.1,0.2,0,0.3,0.1C277.4,339.3,277.3,339.2,277.1,339.1z"/>
<path class="st18" d="M279,339.8c0.1-0.1,0.2,0,0.3,0.1C279.3,340,279.1,340,279,339.8z"/>
<path class="st16" d="M163,216.7c0.1,0,0.2,0,0.3,0.2C163.2,216.9,163.1,216.8,163,216.7z"/>
<path class="st18" d="M305.1,341.2c-3.2-0.9-6.4-1.7-9.6-2.7c1.1-1.5,2.4-2.9,3.6-4.3c6.5-8,12-16.5,15.5-26.2
	c1.6-4.4,2.5-9.1,3.9-13.8c2-9.3,2-18.6,0.5-27.7c-1.7-10.5-5.2-20.4-10.4-29.8c-6.1-11-14.1-20.3-23.6-28.3
	c-7.8-6.6-16.6-11.9-26.2-15.6c-7.8-3-15.7-5.2-24.2-5.6c-1.3-0.2-2.4-0.2-3.8-0.3c-4.2,0.1-8.1,0.1-12.1,0.4
	c-2.4,0.2-4.7,0.7-7.2,1.1c-4.3,1.2-8.5,2.2-12.6,3.6c-6.9,2.4-13.2,5.9-19.1,10.2c-3.9,2.8-7.6,5.9-11.4,8.9
	c-0.9-3.2-1.7-6.5-2.6-9.9c5.4-3.9,10.6-7.9,16.1-11.3c9.2-5.6,19.1-9.4,29.7-11.1c5.7-0.9,11.4-1.6,17.1-1.5
	c10.9,0.2,21.6,2.4,31.8,6.3c9.5,3.7,18.4,8.6,26.5,14.8c6.7,5.1,12.7,11,18.1,17.5c6,7.2,11,14.9,14.9,23.4
	c4.2,8.8,7,18.1,8.2,27.8c0.5,4.2,1,8.4,1,12.5c-0.1,12.2-2.5,23.9-7.4,35.1c-4,9.1-9.2,17.4-15.6,24.9c-0.4,0.4-0.6,0.9-1,1.5
	C305.4,341.2,305.2,341.2,305.1,341.2z"/>
<path class="st16" d="M441.9,301.8c0.9,1.1-0.1,1-0.9,1.1C441.1,302.5,441.4,302.2,441.9,301.8z"/>
<path class="st19" d="M266.7,327.8c-1.4,1.5-2.9,2.9-4.4,4.4c-4.5-2.3-9-4.4-13.2-7.1c-6.4-4.1-12.6-8.4-18.7-12.8
	c-3.5-2.5-6.7-5.5-10-8.4c-2.6-2.3-5.3-4.6-7.8-7.1c-15.4-15.4-28.3-32.7-38.2-52.3c1.4-1.6,2.8-3,4.5-4.5c0.5,0.4,0.8,0.8,1,1.2
	c4.2,7.2,8.3,14.6,12.8,21.7c5.7,8.9,12.5,16.9,19.8,24.5c6.6,6.9,13.5,13.6,21.3,19.3c7.1,5.2,14.5,10.1,21.9,14.9
	C259.2,324,263,325.8,266.7,327.8z"/>
<path class="st17" d="M168.5,211.1c3.8-3.1,7.5-6.2,11.4-9c5.9-4.3,12.2-7.8,19.1-10.2c4.1-1.4,8.3-2.4,12.6-3.5
	c1.9,2.1,3.5,4.1,5.4,6c0.8,0.9,1,1.5,0.2,2.5c-2.4,0.5-4.7,1-7.1,1.4c-0.5,0-0.8,0-1.1,0.1c-7.6,2.2-15,5.2-21.5,9.8
	c-5.5,4-10.7,8.5-16,12.8c-1-3.1-2-6.3-3-9.5C168.5,211.3,168.5,211.2,168.5,211.1z"/>
<path class="st20" d="M266.8,327.8c-3.8-2-7.6-3.8-11.1-6.1c-7.4-4.8-14.8-9.6-21.9-14.9c-7.7-5.7-14.6-12.4-21.3-19.3
	c-7.3-7.6-14.1-15.6-19.8-24.5c-4.5-7.1-8.5-14.5-12.8-21.7c-0.2-0.4-0.5-0.8-0.9-1.3c-0.1-0.2-0.1-0.4,0-0.7c2.6-2.4,5.2-4.6,7.6-7
	c4.2-4.1,9-7.4,14.2-10c6.6-3.3,13.5-5.5,20.9-6.2c5.7-0.5,11.5-0.5,17.2,0.3c5.3,0.8,10.3,2.4,15.3,4.5c7.2,3.1,13.4,7.5,18.8,13
	c5.5,5.5,9.9,11.9,12.9,19.1c2.6,6.3,4.6,12.7,4.9,19.5c0.2,5.3,0,10.7-0.7,15.9c-1,7-3.5,13.6-7,19.8c-3.7,6.6-8.8,12.1-14.1,17.4
	c-0.6,0.6-1,1.4-1.5,2C267.3,327.8,267.1,327.8,266.8,327.8z"/>
<path class="st21" d="M267.5,327.9c0.4-0.8,0.8-1.5,1.4-2.1c5.3-5.3,10.3-10.8,14.1-17.4c3.5-6.2,6.1-12.8,7-19.8
	c0.7-5.2,1-10.6,0.7-15.9c-0.3-6.8-2.2-13.2-4.9-19.5c-3-7.2-7.4-13.6-12.9-19.1c-5.4-5.5-11.7-9.9-18.8-13
	c-4.9-2.1-9.9-3.7-15.3-4.5c-5.7-0.9-11.4-0.9-17.2-0.3c-7.4,0.7-14.3,2.9-20.9,6.2c-5.2,2.6-10,5.9-14.2,10c-2.4,2.4-5,4.6-7.6,6.9
	c-1.4-2.9-2.6-5.7-3.8-8.8c1.5-1.5,3-2.7,4.4-4c6.7-6.7,14.2-12.1,23-15.7c4.4-1.8,9.2-2.8,14-4.2c7.7-1.5,15.2-1.4,22.8,0
	c13.9,2.6,26,8.9,36.5,18.3c6.4,5.7,11.7,12.4,16,19.9c6,10.5,9.2,21.7,9.4,33.7c0.1,7.1-1.1,14-3.3,20.9c-1.4,3.2-2.5,6.4-4,9.3
	c-3.5,6.7-7.9,12.7-13.2,18c-1.6,1.6-2.9,3.5-4.4,5.2C273.5,330.6,270.5,329.3,267.5,327.9z"/>
<path class="st22" d="M216.5,206.5c-4.6,1.4-9.4,2.4-13.8,4.2c-8.8,3.5-16.3,9-23,15.7c-1.4,1.4-2.8,2.6-4.4,3.9
	c-1.3-2.7-2.5-5.5-3.7-8.4c-0.1-0.3-0.1-0.4-0.1-0.7c5.3-4.4,10.5-8.9,16-12.9c6.5-4.6,13.8-7.6,21.5-9.8c0.3-0.1,0.6-0.1,1.1,0
	c1.9,2.1,3.6,4,5.2,5.9C215.8,205,216.1,205.8,216.5,206.5z"/>
<path class="st22" d="M276.5,332c1.4-1.8,2.7-3.7,4.3-5.3c5.3-5.4,9.7-11.4,13.2-18c1.5-3,2.6-6.1,4.1-9.3c1.2-0.5,2.1-0.2,2.7,0.6
	c1.1,1.4,2.2,2.7,3.4,4.1c0.3-0.1,0.6-0.3,1-0.4c0.5-1.4,0.8-2.8,1.4-4.2c0.3-0.7,1-1.2,1.5-1.6c-0.3,1.3-0.6,2.4-0.9,3.5
	c-3.6,11.1-9.5,20.7-17.3,29.3c-1.4,1.6-2.7,3.3-4.1,5c-0.2,0-0.3,0-0.6,0C282.2,334.4,279.4,333.2,276.5,332z"/>
<path class="st17" d="M285.8,335.6c1.2-1.7,2.5-3.4,4-5c7.8-8.6,13.7-18.2,17.3-29.3c0.4-1.1,0.6-2.3,1-3.6c0.8-3.4,1.5-6.6,2.3-9.7
	c2.1,1.7,4,3.4,5.9,5.1c0.6,0.5,1.4,0.8,2.1,1.2c-1.2,4.6-2.2,9.3-3.8,13.7c-3.5,9.7-9.1,18.2-15.5,26.2c-1.2,1.4-2.4,2.8-3.7,4.3
	c-0.2,0.1-0.4,0.1-0.7,0.1C291.7,337.6,288.8,336.6,285.8,335.6z"/>
<path class="st23" d="M318.5,294.2c-0.8-0.3-1.6-0.6-2.2-1.1c-2-1.6-3.9-3.4-5.9-5.2c0.5-6.8,0.5-13.4-0.6-20
	c-1.7-10.3-5.2-20-10.6-29c-5.1-8.6-11.5-16-19.1-22.6c-7.3-6.3-15.3-11.3-24.3-14.7c-4.2-1.6-8.6-2.7-12.9-4.2
	c-0.3-0.8-0.6-1.6-1.1-2.2c-2-2.1-4-4-6-6.1c-0.5-0.5-0.8-1.3-1.1-2c8.4,0.3,16.3,2.5,24.1,5.6c9.6,3.7,18.3,9,26.2,15.6
	c9.5,8,17.5,17.4,23.6,28.3c5.2,9.4,8.8,19.3,10.4,29.8C320.5,275.7,320.5,284.9,318.5,294.2z"/>
<path class="st23" d="M217.2,196.8c0.7-0.9,0.5-1.6-0.3-2.5c-1.8-1.9-3.5-3.9-5.2-6c2.3-0.5,4.7-1,7-1.2c4-0.3,8-0.3,12.1-0.3
	c2.2,2.2,4.1,4.3,6.1,6.3c1.2,1.3,2.5,2.6,3.6,3.9c-3.5-0.4-6.9-1-10.2-1C226,196.1,221.6,196.6,217.2,196.8z"/>
<path class="st17" d="M240.7,197.2c-1.2-1.3-2.5-2.6-3.7-3.9c-2-2.1-4-4.1-5.9-6.3c1.1-0.1,2.3,0,3.6,0.1c0.5,0.8,0.7,1.6,1.2,2.1
	c2,2.1,4,4,6,6.1c0.5,0.5,0.7,1.3,0.9,2.2C242,197.5,241.3,197.3,240.7,197.2z"/>
<path class="st24" d="M240.5,197.2c0.8,0.1,1.4,0.3,2.2,0.4c4.5,1.3,8.8,2.5,13,4.1c9,3.4,17,8.5,24.3,14.7c7.6,6.5,14,14,19.1,22.6
	c5.4,9,8.9,18.6,10.6,29c1.1,6.5,1.1,13.2,0.4,19.9c-0.7,3.3-1.4,6.5-2.1,9.7c-0.6,0.7-1.3,1.2-1.6,1.9c-0.6,1.3-1,2.8-1.4,4.2
	c-0.3,0.1-0.6,0.3-1,0.4c-1.1-1.4-2.3-2.7-3.4-4.1c-0.7-0.9-1.5-1.2-2.7-0.8c2-6.7,3.3-13.7,3.2-20.7c-0.2-12-3.4-23.2-9.4-33.7
	c-4.3-7.5-9.6-14.1-16-19.9c-10.5-9.4-22.5-15.7-36.5-18.3c-7.5-1.4-15.1-1.6-22.8,0c-0.6-0.7-0.9-1.5-1.4-2.1
	c-1.6-2-3.4-3.9-5.1-5.9c2.3-0.6,4.5-1,6.9-1.6c4.5-0.3,8.8-0.8,13.2-0.7C233.7,196.2,237,196.8,240.5,197.2z"/>
</svg>
